G75*
%MOIN*%
%OFA0B0*%
%FSLAX24Y24*%
%IPPOS*%
%LPD*%
%AMOC8*
5,1,8,0,0,1.08239X$1,22.5*
%
%ADD10C,0.0000*%
D10*
X003868Y000174D02*
X003868Y011300D01*
X003867Y011300D02*
X003873Y011330D01*
X003882Y011359D01*
X003894Y011386D01*
X003911Y011411D01*
X003930Y011435D01*
X003952Y011455D01*
X003977Y011472D01*
X004004Y011486D01*
X004032Y011497D01*
X004062Y011503D01*
X004092Y011506D01*
X004122Y011505D01*
X023298Y011505D01*
X024038Y010864D02*
X023988Y000875D01*
X023978Y000817D01*
X023964Y000760D01*
X023947Y000704D01*
X023926Y000649D01*
X023901Y000595D01*
X023873Y000543D01*
X023841Y000494D01*
X023806Y000446D01*
X023769Y000401D01*
X023728Y000358D01*
X023685Y000318D01*
X023639Y000281D01*
X023591Y000247D01*
X023540Y000217D01*
X023488Y000189D01*
X023434Y000166D01*
X023379Y000145D01*
X023323Y000129D01*
X023265Y000116D01*
X023207Y000107D01*
X023148Y000101D01*
X023089Y000100D01*
X023031Y000102D01*
X022972Y000109D01*
X003933Y000109D01*
X003933Y000108D02*
X003918Y000110D01*
X003904Y000115D01*
X003892Y000122D01*
X003881Y000133D01*
X003874Y000145D01*
X003869Y000159D01*
X003867Y000174D01*
X016818Y001109D02*
X016820Y001153D01*
X016826Y001197D01*
X016836Y001240D01*
X016849Y001282D01*
X016866Y001323D01*
X016887Y001362D01*
X016911Y001399D01*
X016938Y001434D01*
X016968Y001466D01*
X017001Y001496D01*
X017037Y001522D01*
X017074Y001546D01*
X017114Y001565D01*
X017155Y001582D01*
X017198Y001594D01*
X017241Y001603D01*
X017285Y001608D01*
X017329Y001609D01*
X017373Y001606D01*
X017417Y001599D01*
X017460Y001588D01*
X017502Y001574D01*
X017542Y001556D01*
X017581Y001534D01*
X017617Y001510D01*
X017651Y001482D01*
X017683Y001451D01*
X017712Y001417D01*
X017738Y001381D01*
X017760Y001343D01*
X017779Y001303D01*
X017794Y001261D01*
X017806Y001219D01*
X017814Y001175D01*
X017818Y001131D01*
X017818Y001087D01*
X017814Y001043D01*
X017806Y000999D01*
X017794Y000957D01*
X017779Y000915D01*
X017760Y000875D01*
X017738Y000837D01*
X017712Y000801D01*
X017683Y000767D01*
X017651Y000736D01*
X017617Y000708D01*
X017581Y000684D01*
X017542Y000662D01*
X017502Y000644D01*
X017460Y000630D01*
X017417Y000619D01*
X017373Y000612D01*
X017329Y000609D01*
X017285Y000610D01*
X017241Y000615D01*
X017198Y000624D01*
X017155Y000636D01*
X017114Y000653D01*
X017074Y000672D01*
X017037Y000696D01*
X017001Y000722D01*
X016968Y000752D01*
X016938Y000784D01*
X016911Y000819D01*
X016887Y000856D01*
X016866Y000895D01*
X016849Y000936D01*
X016836Y000978D01*
X016826Y001021D01*
X016820Y001065D01*
X016818Y001109D01*
X017047Y009976D02*
X017049Y010020D01*
X017055Y010064D01*
X017065Y010107D01*
X017078Y010149D01*
X017095Y010190D01*
X017116Y010229D01*
X017140Y010266D01*
X017167Y010301D01*
X017197Y010333D01*
X017230Y010363D01*
X017266Y010389D01*
X017303Y010413D01*
X017343Y010432D01*
X017384Y010449D01*
X017427Y010461D01*
X017470Y010470D01*
X017514Y010475D01*
X017558Y010476D01*
X017602Y010473D01*
X017646Y010466D01*
X017689Y010455D01*
X017731Y010441D01*
X017771Y010423D01*
X017810Y010401D01*
X017846Y010377D01*
X017880Y010349D01*
X017912Y010318D01*
X017941Y010284D01*
X017967Y010248D01*
X017989Y010210D01*
X018008Y010170D01*
X018023Y010128D01*
X018035Y010086D01*
X018043Y010042D01*
X018047Y009998D01*
X018047Y009954D01*
X018043Y009910D01*
X018035Y009866D01*
X018023Y009824D01*
X018008Y009782D01*
X017989Y009742D01*
X017967Y009704D01*
X017941Y009668D01*
X017912Y009634D01*
X017880Y009603D01*
X017846Y009575D01*
X017810Y009551D01*
X017771Y009529D01*
X017731Y009511D01*
X017689Y009497D01*
X017646Y009486D01*
X017602Y009479D01*
X017558Y009476D01*
X017514Y009477D01*
X017470Y009482D01*
X017427Y009491D01*
X017384Y009503D01*
X017343Y009520D01*
X017303Y009539D01*
X017266Y009563D01*
X017230Y009589D01*
X017197Y009619D01*
X017167Y009651D01*
X017140Y009686D01*
X017116Y009723D01*
X017095Y009762D01*
X017078Y009803D01*
X017065Y009845D01*
X017055Y009888D01*
X017049Y009932D01*
X017047Y009976D01*
X023298Y011504D02*
X023350Y011506D01*
X023401Y011504D01*
X023453Y011498D01*
X023504Y011488D01*
X023554Y011475D01*
X023602Y011458D01*
X023650Y011437D01*
X023695Y011412D01*
X023739Y011385D01*
X023781Y011354D01*
X023820Y011320D01*
X023856Y011283D01*
X023890Y011244D01*
X023921Y011202D01*
X023948Y011159D01*
X023972Y011113D01*
X023993Y011065D01*
X024010Y011016D01*
X024023Y010966D01*
X024033Y010915D01*
X024038Y010864D01*
M02*
