G75*
%MOIN*%
%OFA0B0*%
%FSLAX24Y24*%
%IPPOS*%
%LPD*%
%AMOC8*
5,1,8,0,0,1.08239X$1,22.5*
%
%ADD10C,0.0060*%
%ADD11C,0.0200*%
%ADD12C,0.0160*%
%ADD13C,0.0010*%
%ADD14R,0.0079X0.0079*%
%ADD15C,0.0030*%
%ADD16C,0.0080*%
%ADD17C,0.0050*%
%ADD18C,0.0020*%
%ADD19C,0.0100*%
%ADD20C,0.0070*%
%ADD21C,0.0040*%
D10*
X007706Y000827D02*
X007920Y000614D01*
X008133Y000827D01*
X008133Y001254D01*
X008351Y001148D02*
X008457Y001254D01*
X008671Y001254D01*
X008778Y001148D01*
X008778Y001041D01*
X008351Y000614D01*
X008778Y000614D01*
X009640Y000614D02*
X010067Y000614D01*
X009853Y000614D02*
X009853Y001254D01*
X009640Y001041D01*
X010284Y000934D02*
X010498Y001041D01*
X010605Y001041D01*
X010711Y000934D01*
X010711Y000721D01*
X010605Y000614D01*
X010391Y000614D01*
X010284Y000721D01*
X010284Y000934D02*
X010284Y001254D01*
X010711Y001254D01*
X010929Y000934D02*
X011249Y001254D01*
X011249Y000614D01*
X011573Y000721D02*
X012001Y001148D01*
X012001Y000721D01*
X011894Y000614D01*
X011680Y000614D01*
X011573Y000721D01*
X011573Y001148D01*
X011680Y001254D01*
X011894Y001254D01*
X012001Y001148D01*
X012218Y001148D02*
X012218Y001041D01*
X012325Y000934D01*
X012538Y000934D01*
X012645Y000827D01*
X012645Y000721D01*
X012538Y000614D01*
X012325Y000614D01*
X012218Y000721D01*
X012218Y000827D01*
X012325Y000934D01*
X012538Y000934D02*
X012645Y001041D01*
X012645Y001148D01*
X012538Y001254D01*
X012325Y001254D01*
X012218Y001148D01*
X011356Y000934D02*
X010929Y000934D01*
X007706Y000827D02*
X007706Y001254D01*
X007068Y004959D02*
X006568Y004959D01*
X006318Y005209D01*
X006068Y004959D01*
X005568Y004959D01*
X005318Y005209D01*
X005068Y004959D01*
X004568Y004959D01*
X004318Y005209D01*
X004318Y005709D01*
X004568Y005959D01*
X005068Y005959D01*
X005318Y005709D01*
X005568Y005959D01*
X006068Y005959D01*
X006318Y005709D01*
X006568Y005959D01*
X007068Y005959D01*
X007318Y005709D01*
X007318Y005209D01*
X007068Y004959D01*
X006318Y005209D02*
X006318Y005709D01*
X005318Y005709D02*
X005318Y005209D01*
X005118Y007209D02*
X004618Y007209D01*
X004368Y007459D01*
X004368Y007959D01*
X004618Y008209D01*
X005118Y008209D01*
X005368Y007959D01*
X005618Y008209D01*
X006118Y008209D01*
X006368Y007959D01*
X006368Y007459D01*
X006118Y007209D01*
X005618Y007209D01*
X005368Y007459D01*
X005118Y007209D01*
X005368Y007459D02*
X005368Y007959D01*
X006368Y007959D02*
X006618Y008209D01*
X007118Y008209D01*
X007368Y007959D01*
X007618Y008209D01*
X008118Y008209D01*
X008368Y007959D01*
X008368Y007459D01*
X008118Y007209D01*
X007618Y007209D01*
X007368Y007459D01*
X007118Y007209D01*
X006618Y007209D01*
X006368Y007459D01*
X007368Y007459D02*
X007368Y007959D01*
X010718Y008089D02*
X011128Y008089D01*
X011958Y007509D02*
X012118Y007349D01*
X015208Y007769D02*
X015608Y007769D01*
X017752Y006792D02*
X019171Y006792D01*
X019171Y004932D02*
X017752Y004932D01*
X020541Y002913D02*
X020543Y002973D01*
X020549Y003034D01*
X020559Y003093D01*
X020573Y003152D01*
X020590Y003210D01*
X020611Y003267D01*
X020636Y003322D01*
X020665Y003375D01*
X020697Y003427D01*
X020732Y003476D01*
X020771Y003523D01*
X020812Y003567D01*
X020856Y003608D01*
X020903Y003647D01*
X020952Y003682D01*
X021003Y003714D01*
X021057Y003743D01*
X021112Y003768D01*
X021169Y003789D01*
X021227Y003806D01*
X021286Y003820D01*
X021345Y003830D01*
X021406Y003836D01*
X021466Y003838D01*
X021526Y003836D01*
X021587Y003830D01*
X021646Y003820D01*
X021705Y003806D01*
X021763Y003789D01*
X021820Y003768D01*
X021875Y003743D01*
X021928Y003714D01*
X021980Y003682D01*
X022029Y003647D01*
X022076Y003608D01*
X022120Y003567D01*
X022161Y003523D01*
X022200Y003476D01*
X022235Y003427D01*
X022267Y003376D01*
X022296Y003322D01*
X022321Y003267D01*
X022342Y003210D01*
X022359Y003152D01*
X022373Y003093D01*
X022383Y003034D01*
X022389Y002973D01*
X022391Y002913D01*
X022389Y002853D01*
X022383Y002792D01*
X022373Y002733D01*
X022359Y002674D01*
X022342Y002616D01*
X022321Y002559D01*
X022296Y002504D01*
X022267Y002451D01*
X022235Y002399D01*
X022200Y002350D01*
X022161Y002303D01*
X022120Y002259D01*
X022076Y002218D01*
X022029Y002179D01*
X021980Y002144D01*
X021929Y002112D01*
X021875Y002083D01*
X021820Y002058D01*
X021763Y002037D01*
X021705Y002020D01*
X021646Y002006D01*
X021587Y001996D01*
X021526Y001990D01*
X021466Y001988D01*
X021406Y001990D01*
X021345Y001996D01*
X021286Y002006D01*
X021227Y002020D01*
X021169Y002037D01*
X021112Y002058D01*
X021057Y002083D01*
X021004Y002112D01*
X020952Y002144D01*
X020903Y002179D01*
X020856Y002218D01*
X020812Y002259D01*
X020771Y002303D01*
X020732Y002350D01*
X020697Y002399D01*
X020665Y002450D01*
X020636Y002504D01*
X020611Y002559D01*
X020590Y002616D01*
X020573Y002674D01*
X020559Y002733D01*
X020549Y002792D01*
X020543Y002853D01*
X020541Y002913D01*
X020541Y008819D02*
X020543Y008879D01*
X020549Y008940D01*
X020559Y008999D01*
X020573Y009058D01*
X020590Y009116D01*
X020611Y009173D01*
X020636Y009228D01*
X020665Y009281D01*
X020697Y009333D01*
X020732Y009382D01*
X020771Y009429D01*
X020812Y009473D01*
X020856Y009514D01*
X020903Y009553D01*
X020952Y009588D01*
X021003Y009620D01*
X021057Y009649D01*
X021112Y009674D01*
X021169Y009695D01*
X021227Y009712D01*
X021286Y009726D01*
X021345Y009736D01*
X021406Y009742D01*
X021466Y009744D01*
X021526Y009742D01*
X021587Y009736D01*
X021646Y009726D01*
X021705Y009712D01*
X021763Y009695D01*
X021820Y009674D01*
X021875Y009649D01*
X021928Y009620D01*
X021980Y009588D01*
X022029Y009553D01*
X022076Y009514D01*
X022120Y009473D01*
X022161Y009429D01*
X022200Y009382D01*
X022235Y009333D01*
X022267Y009282D01*
X022296Y009228D01*
X022321Y009173D01*
X022342Y009116D01*
X022359Y009058D01*
X022373Y008999D01*
X022383Y008940D01*
X022389Y008879D01*
X022391Y008819D01*
X022389Y008759D01*
X022383Y008698D01*
X022373Y008639D01*
X022359Y008580D01*
X022342Y008522D01*
X022321Y008465D01*
X022296Y008410D01*
X022267Y008357D01*
X022235Y008305D01*
X022200Y008256D01*
X022161Y008209D01*
X022120Y008165D01*
X022076Y008124D01*
X022029Y008085D01*
X021980Y008050D01*
X021929Y008018D01*
X021875Y007989D01*
X021820Y007964D01*
X021763Y007943D01*
X021705Y007926D01*
X021646Y007912D01*
X021587Y007902D01*
X021526Y007896D01*
X021466Y007894D01*
X021406Y007896D01*
X021345Y007902D01*
X021286Y007912D01*
X021227Y007926D01*
X021169Y007943D01*
X021112Y007964D01*
X021057Y007989D01*
X021004Y008018D01*
X020952Y008050D01*
X020903Y008085D01*
X020856Y008124D01*
X020812Y008165D01*
X020771Y008209D01*
X020732Y008256D01*
X020697Y008305D01*
X020665Y008356D01*
X020636Y008410D01*
X020611Y008465D01*
X020590Y008522D01*
X020573Y008580D01*
X020559Y008639D01*
X020549Y008698D01*
X020543Y008759D01*
X020541Y008819D01*
X013318Y010599D02*
X013318Y010999D01*
D11*
X017595Y008810D02*
X019157Y008810D01*
D12*
X017824Y003673D02*
X017824Y002446D01*
X018438Y003060D02*
X017210Y003060D01*
D13*
X013320Y005264D02*
X013220Y005264D01*
X013320Y005364D01*
X013320Y005389D01*
X013295Y005414D01*
X013245Y005414D01*
X013220Y005389D01*
X013173Y005389D02*
X013173Y005339D01*
X013148Y005314D01*
X013073Y005314D01*
X013123Y005314D02*
X013173Y005264D01*
X013073Y005264D02*
X013073Y005414D01*
X013148Y005414D01*
X013173Y005389D01*
X012370Y005439D02*
X012345Y005414D01*
X012295Y005414D01*
X012270Y005439D01*
X012270Y005464D01*
X012295Y005489D01*
X012345Y005489D01*
X012370Y005464D01*
X012370Y005439D01*
X012345Y005489D02*
X012370Y005514D01*
X012370Y005539D01*
X012345Y005564D01*
X012295Y005564D01*
X012270Y005539D01*
X012270Y005514D01*
X012295Y005489D01*
X012223Y005489D02*
X012198Y005464D01*
X012123Y005464D01*
X012173Y005464D02*
X012223Y005414D01*
X012223Y005489D02*
X012223Y005539D01*
X012198Y005564D01*
X012123Y005564D01*
X012123Y005414D01*
X012122Y004657D02*
X012047Y004657D01*
X012047Y004507D01*
X012047Y004557D02*
X012122Y004557D01*
X012147Y004582D01*
X012147Y004632D01*
X012122Y004657D01*
X012194Y004607D02*
X012244Y004657D01*
X012244Y004507D01*
X012194Y004507D02*
X012294Y004507D01*
X012341Y004532D02*
X012441Y004632D01*
X012441Y004532D01*
X012416Y004507D01*
X012366Y004507D01*
X012341Y004532D01*
X012341Y004632D01*
X012366Y004657D01*
X012416Y004657D01*
X012441Y004632D01*
X012147Y004507D02*
X012097Y004557D01*
X012094Y003875D02*
X012169Y003875D01*
X012194Y003850D01*
X012194Y003800D01*
X012169Y003775D01*
X012094Y003775D01*
X012094Y003725D02*
X012094Y003875D01*
X012144Y003775D02*
X012194Y003725D01*
X012241Y003750D02*
X012267Y003725D01*
X012317Y003725D01*
X012342Y003750D01*
X012342Y003775D01*
X012317Y003800D01*
X012292Y003800D01*
X012317Y003800D02*
X012342Y003825D01*
X012342Y003850D01*
X012317Y003875D01*
X012267Y003875D01*
X012241Y003850D01*
X008901Y003753D02*
X008801Y003753D01*
X008851Y003753D02*
X008851Y003903D01*
X008801Y003853D01*
X008754Y003878D02*
X008729Y003903D01*
X008679Y003903D01*
X008654Y003878D01*
X008654Y003778D01*
X008679Y003753D01*
X008729Y003753D01*
X008754Y003778D01*
X008770Y004885D02*
X008870Y004885D01*
X008820Y004885D02*
X008820Y005035D01*
X008770Y004985D01*
X008723Y004960D02*
X008698Y004935D01*
X008623Y004935D01*
X008673Y004935D02*
X008723Y004885D01*
X008723Y004960D02*
X008723Y005010D01*
X008698Y005035D01*
X008623Y005035D01*
X008623Y004885D01*
X014673Y006574D02*
X014673Y006724D01*
X014748Y006724D01*
X014773Y006699D01*
X014773Y006649D01*
X014748Y006624D01*
X014673Y006624D01*
X014723Y006624D02*
X014773Y006574D01*
X014821Y006574D02*
X014921Y006574D01*
X014871Y006574D02*
X014871Y006724D01*
X014821Y006674D01*
X014968Y006699D02*
X014993Y006724D01*
X015043Y006724D01*
X015068Y006699D01*
X015068Y006674D01*
X015043Y006649D01*
X015068Y006624D01*
X015068Y006599D01*
X015043Y006574D01*
X014993Y006574D01*
X014968Y006599D01*
X015018Y006649D02*
X015043Y006649D01*
X015036Y005980D02*
X014936Y005980D01*
X014889Y005955D02*
X014864Y005980D01*
X014814Y005980D01*
X014789Y005955D01*
X014789Y005854D01*
X014814Y005829D01*
X014864Y005829D01*
X014889Y005854D01*
X014936Y005854D02*
X014936Y005829D01*
X014936Y005854D02*
X015036Y005955D01*
X015036Y005980D01*
X018106Y006009D02*
X018132Y006009D01*
X018232Y005909D01*
X018257Y005909D01*
X018232Y005862D02*
X018257Y005837D01*
X018257Y005787D01*
X018232Y005762D01*
X018232Y005714D02*
X018257Y005689D01*
X018257Y005639D01*
X018232Y005614D01*
X018132Y005614D01*
X018106Y005639D01*
X018106Y005689D01*
X018132Y005714D01*
X018132Y005762D02*
X018157Y005762D01*
X018182Y005787D01*
X018182Y005837D01*
X018207Y005862D01*
X018232Y005862D01*
X018132Y005862D02*
X018106Y005837D01*
X018106Y005787D01*
X018132Y005762D01*
X018157Y005567D02*
X018257Y005567D01*
X018182Y005567D02*
X018182Y005467D01*
X018157Y005467D02*
X018257Y005467D01*
X018157Y005467D02*
X018106Y005517D01*
X018157Y005567D01*
X018106Y005909D02*
X018106Y006009D01*
X018157Y006056D02*
X018106Y006106D01*
X018257Y006106D01*
X018257Y006056D02*
X018257Y006156D01*
X018257Y006204D02*
X018257Y006304D01*
X018257Y006254D02*
X018106Y006254D01*
X018157Y006204D01*
X009364Y010546D02*
X009364Y010583D01*
X009345Y010601D01*
X009309Y010638D02*
X009309Y010711D01*
X009364Y010693D02*
X009254Y010693D01*
X009309Y010638D01*
X009272Y010601D02*
X009254Y010583D01*
X009254Y010546D01*
X009272Y010528D01*
X009345Y010528D01*
X009364Y010546D01*
D14*
X009329Y002909D03*
X011329Y002909D03*
D15*
X011258Y002504D02*
X011258Y002140D01*
X011379Y002261D01*
X011501Y002140D01*
X011501Y002504D01*
X011620Y002504D02*
X011802Y002504D01*
X011863Y002443D01*
X011863Y002322D01*
X011802Y002261D01*
X011620Y002261D01*
X011620Y002140D02*
X011620Y002504D01*
X011742Y002261D02*
X011863Y002140D01*
X011138Y002322D02*
X011077Y002261D01*
X010895Y002261D01*
X010895Y002140D02*
X010895Y002504D01*
X011077Y002504D01*
X011138Y002443D01*
X011138Y002322D01*
X010275Y002132D02*
X010033Y002132D01*
X010033Y002496D01*
X009550Y002436D02*
X009490Y002496D01*
X009368Y002496D01*
X009308Y002436D01*
X009308Y002193D01*
X009368Y002132D01*
X009490Y002132D01*
X009550Y002193D01*
X009550Y002314D01*
X009429Y002314D01*
X009188Y002254D02*
X009188Y002193D01*
X009127Y002132D01*
X008945Y002132D01*
X008945Y002496D01*
X009127Y002496D01*
X009188Y002436D01*
X009188Y002375D01*
X009127Y002314D01*
X008945Y002314D01*
X008825Y002193D02*
X008825Y002436D01*
X008765Y002496D01*
X008583Y002496D01*
X008583Y002132D01*
X008765Y002132D01*
X008825Y002193D01*
X009127Y002314D02*
X009188Y002254D01*
X009670Y002072D02*
X009913Y002072D01*
X011601Y006184D02*
X011915Y006497D01*
X011601Y006184D01*
X011601Y006341D02*
X011915Y006341D01*
X011601Y006341D01*
X011758Y006497D02*
X011758Y006184D01*
X011758Y006497D01*
X011601Y006497D02*
X011915Y006184D01*
X011601Y006497D01*
X012151Y007514D02*
X012103Y007562D01*
X012103Y007659D01*
X012151Y007707D01*
X012199Y007707D01*
X012248Y007659D01*
X012296Y007707D01*
X012345Y007707D01*
X012393Y007659D01*
X012393Y007562D01*
X012345Y007514D01*
X012248Y007610D02*
X012248Y007659D01*
X012151Y007808D02*
X012103Y007857D01*
X012103Y007954D01*
X012151Y008002D01*
X012199Y008002D01*
X012393Y007808D01*
X012393Y008002D01*
X012345Y008103D02*
X012296Y008103D01*
X012248Y008151D01*
X012248Y008248D01*
X012296Y008297D01*
X012345Y008297D01*
X012393Y008248D01*
X012393Y008151D01*
X012345Y008103D01*
X012248Y008151D02*
X012199Y008103D01*
X012151Y008103D01*
X012103Y008151D01*
X012103Y008248D01*
X012151Y008297D01*
X012199Y008297D01*
X012248Y008248D01*
X012296Y008398D02*
X012296Y008543D01*
X012248Y008591D01*
X012151Y008591D01*
X012103Y008543D01*
X012103Y008398D01*
X012393Y008398D01*
X012248Y008692D02*
X012248Y008886D01*
X012248Y008987D02*
X012248Y009180D01*
X012199Y009180D02*
X012393Y009180D01*
X012345Y009282D02*
X012393Y009330D01*
X012393Y009427D01*
X012345Y009475D01*
X012103Y009475D01*
X012103Y009282D02*
X012345Y009282D01*
X012199Y009180D02*
X012103Y009084D01*
X012199Y008987D01*
X012393Y008987D01*
D16*
X018795Y005152D02*
X018797Y005167D01*
X018803Y005180D01*
X018812Y005192D01*
X018823Y005201D01*
X018837Y005207D01*
X018852Y005209D01*
X018867Y005207D01*
X018880Y005201D01*
X018892Y005192D01*
X018901Y005181D01*
X018907Y005167D01*
X018909Y005152D01*
X018907Y005137D01*
X018901Y005124D01*
X018892Y005112D01*
X018881Y005103D01*
X018867Y005097D01*
X018852Y005095D01*
X018837Y005097D01*
X018824Y005103D01*
X018812Y005112D01*
X018803Y005123D01*
X018797Y005137D01*
X018795Y005152D01*
X014777Y004365D02*
X014777Y003853D01*
X014737Y003853D01*
X014737Y004365D02*
X014777Y004365D01*
X013399Y004365D02*
X013340Y004365D01*
X013340Y003853D01*
X013399Y003853D01*
X007418Y003559D02*
X007418Y002059D01*
X007168Y001809D01*
X006668Y001809D01*
X006418Y002059D01*
X006418Y003559D01*
X006168Y003809D01*
X005668Y003809D01*
X005418Y003559D01*
X005418Y002059D01*
X005168Y001809D01*
X004668Y001809D01*
X004418Y002059D01*
X004418Y003559D01*
X004668Y003809D01*
X005168Y003809D01*
X005418Y003559D01*
X006418Y003559D02*
X006668Y003809D01*
X007168Y003809D01*
X007418Y003559D01*
X007168Y003941D02*
X006668Y003941D01*
X006418Y002059D02*
X006168Y001809D01*
X005668Y001809D01*
X005418Y002059D01*
D17*
X004668Y001312D02*
X004518Y001312D01*
X004593Y001312D02*
X004593Y001763D01*
X004518Y001763D02*
X004668Y001763D01*
X004825Y001688D02*
X004825Y001613D01*
X004900Y001538D01*
X005050Y001538D01*
X005125Y001463D01*
X005125Y001388D01*
X005050Y001312D01*
X004900Y001312D01*
X004825Y001388D01*
X005285Y001463D02*
X005510Y001463D01*
X005586Y001538D01*
X005586Y001688D01*
X005510Y001763D01*
X005285Y001763D01*
X005285Y001312D01*
X005125Y001688D02*
X005050Y001763D01*
X004900Y001763D01*
X004825Y001688D01*
X004792Y004264D02*
X004792Y004564D01*
X004642Y004714D01*
X004492Y004564D01*
X004492Y004264D01*
X004492Y004489D02*
X004792Y004489D01*
X004952Y004339D02*
X004952Y004714D01*
X005252Y004714D02*
X005252Y004339D01*
X005177Y004264D01*
X005027Y004264D01*
X004952Y004339D01*
X005413Y004264D02*
X005713Y004714D01*
X005413Y004714D02*
X005713Y004264D01*
X005834Y006554D02*
X005834Y007004D01*
X005994Y006929D02*
X005994Y006629D01*
X006069Y006554D01*
X006219Y006554D01*
X006294Y006629D01*
X006454Y006629D02*
X006530Y006554D01*
X006680Y006554D01*
X006755Y006629D01*
X006755Y006929D01*
X006680Y007004D01*
X006530Y007004D01*
X006454Y006929D01*
X006454Y006629D01*
X006294Y006929D02*
X006219Y007004D01*
X006069Y007004D01*
X005994Y006929D01*
X005834Y006554D02*
X005534Y007004D01*
X005534Y006554D01*
X005374Y006554D02*
X005374Y006854D01*
X005223Y007004D01*
X005073Y006854D01*
X005073Y006554D01*
X004913Y006629D02*
X004838Y006554D01*
X004613Y006554D01*
X004613Y007004D01*
X004838Y007004D01*
X004913Y006929D01*
X004913Y006854D01*
X004838Y006779D01*
X004613Y006779D01*
X004838Y006779D02*
X004913Y006704D01*
X004913Y006629D01*
X005073Y006779D02*
X005374Y006779D01*
X013425Y002298D02*
X015551Y002298D01*
X015551Y002297D02*
X015568Y002296D01*
X015585Y002291D01*
X015600Y002284D01*
X015614Y002274D01*
X015626Y002262D01*
X015636Y002248D01*
X015643Y002233D01*
X015648Y002216D01*
X015649Y002199D01*
X015649Y002042D01*
X015058Y001904D02*
X015058Y001313D01*
X013877Y001313D01*
X013877Y001904D01*
X015058Y001904D01*
X015649Y001176D02*
X015649Y001018D01*
X015648Y001001D01*
X015643Y000984D01*
X015636Y000969D01*
X015626Y000955D01*
X015614Y000943D01*
X015600Y000933D01*
X015585Y000926D01*
X015568Y000921D01*
X015551Y000920D01*
X013385Y000920D01*
X013368Y000921D01*
X013351Y000926D01*
X013336Y000933D01*
X013322Y000943D01*
X013310Y000955D01*
X013300Y000969D01*
X013293Y000984D01*
X013288Y001001D01*
X013287Y001018D01*
X013287Y001176D01*
X013287Y002042D02*
X013287Y002199D01*
X013287Y002200D02*
X013292Y002220D01*
X013301Y002239D01*
X013312Y002256D01*
X013327Y002271D01*
X013344Y002283D01*
X013363Y002292D01*
X013383Y002298D01*
X013404Y002300D01*
X013425Y002298D01*
D18*
X014207Y001715D02*
X014207Y001668D01*
X014253Y001621D01*
X014347Y001621D01*
X014393Y001575D01*
X014393Y001528D01*
X014347Y001481D01*
X014253Y001481D01*
X014207Y001528D01*
X014483Y001481D02*
X014670Y001481D01*
X014576Y001481D02*
X014576Y001762D01*
X014483Y001668D01*
X014393Y001715D02*
X014347Y001762D01*
X014253Y001762D01*
X014207Y001715D01*
D19*
X006539Y009125D02*
X005289Y009125D01*
X005289Y009625D01*
X002139Y009625D01*
X001939Y009725D01*
X001939Y010145D01*
X001939Y010105D01*
X001939Y010145D02*
X001939Y010525D01*
X002139Y010625D01*
X005289Y010625D01*
X005289Y010775D02*
X002839Y010775D01*
X002699Y010645D01*
X002699Y009605D02*
X002839Y009475D01*
X005289Y009475D01*
X005289Y009625D02*
X005289Y010775D01*
X005289Y011125D01*
X006539Y011125D01*
X006539Y010875D01*
X006289Y010875D01*
X006289Y010375D01*
X006539Y010375D01*
X006539Y009875D01*
X006289Y009875D01*
X006289Y009375D01*
X006539Y009375D01*
X006539Y009125D01*
D20*
X005811Y009350D02*
X005524Y009350D01*
X005668Y009350D02*
X005668Y009781D01*
X005524Y009637D01*
X005574Y010330D02*
X005861Y010617D01*
X005861Y010689D01*
X005790Y010761D01*
X005646Y010761D01*
X005574Y010689D01*
X005574Y010330D02*
X005861Y010330D01*
D21*
X004380Y010284D02*
X004380Y010224D01*
X004320Y010224D01*
X004320Y010284D01*
X004380Y010284D01*
X004200Y010408D02*
X004200Y010648D01*
X004080Y010528D02*
X004320Y010528D01*
X004200Y010096D02*
X004200Y009855D01*
M02*
