G75*
%MOIN*%
%OFA0B0*%
%FSLAX24Y24*%
%IPPOS*%
%LPD*%
%AMOC8*
5,1,8,0,0,1.08239X$1,22.5*
%
%ADD10C,0.0100*%
%ADD11OC8,0.0740*%
%ADD12R,0.0480X0.0880*%
%ADD13R,0.1417X0.0866*%
%ADD14R,0.0591X0.0512*%
%ADD15R,0.0177X0.0512*%
%ADD16R,0.0512X0.0591*%
%ADD17C,0.3543*%
%ADD18C,0.0600*%
%ADD19C,0.0160*%
%ADD20C,0.0317*%
%ADD21C,0.0356*%
%ADD22C,0.0120*%
%ADD23C,0.0277*%
D10*
X009868Y003459D02*
X010218Y003109D01*
X010218Y002159D01*
X010318Y002059D01*
X010918Y002059D01*
X012518Y002780D02*
X012540Y003752D01*
X012518Y002780D02*
X012668Y002509D01*
X018568Y002523D02*
X023968Y002523D01*
X023968Y002425D02*
X018568Y002425D01*
X018568Y002326D02*
X023968Y002326D01*
X023968Y002228D02*
X018568Y002228D01*
X018568Y002129D02*
X023968Y002129D01*
X023968Y002031D02*
X018568Y002031D01*
X018568Y001932D02*
X023968Y001932D01*
X023968Y001834D02*
X018568Y001834D01*
X018568Y001735D02*
X023968Y001735D01*
X023968Y001637D02*
X018568Y001637D01*
X018568Y001538D02*
X023968Y001538D01*
X023968Y001440D02*
X018568Y001440D01*
X018568Y001341D02*
X023968Y001341D01*
X023968Y001243D02*
X018568Y001243D01*
X018568Y001144D02*
X023968Y001144D01*
X023968Y001059D02*
X018568Y001059D01*
X018568Y005709D01*
X023968Y005709D01*
X023968Y001059D01*
X023968Y002622D02*
X018568Y002622D01*
X018568Y002720D02*
X023968Y002720D01*
X023968Y002819D02*
X018568Y002819D01*
X018568Y002917D02*
X023968Y002917D01*
X023968Y003016D02*
X018568Y003016D01*
X018568Y003114D02*
X023968Y003114D01*
X023968Y003213D02*
X018568Y003213D01*
X018568Y003311D02*
X023968Y003311D01*
X023968Y003410D02*
X018568Y003410D01*
X018568Y003508D02*
X023968Y003508D01*
X023968Y003607D02*
X018568Y003607D01*
X018568Y003705D02*
X023968Y003705D01*
X023968Y003804D02*
X018568Y003804D01*
X018568Y003902D02*
X023968Y003902D01*
X023968Y004001D02*
X018568Y004001D01*
X018568Y004099D02*
X023968Y004099D01*
X023968Y004198D02*
X018568Y004198D01*
X018568Y004296D02*
X023968Y004296D01*
X023968Y004395D02*
X018568Y004395D01*
X018568Y004493D02*
X023968Y004493D01*
X023968Y004592D02*
X018568Y004592D01*
X018568Y004690D02*
X023968Y004690D01*
X023968Y004789D02*
X018568Y004789D01*
X018568Y004887D02*
X023968Y004887D01*
X023968Y004986D02*
X018568Y004986D01*
X018568Y005084D02*
X023968Y005084D01*
X023968Y005183D02*
X018568Y005183D01*
X018568Y005281D02*
X023968Y005281D01*
X023968Y005380D02*
X018568Y005380D01*
X018568Y005478D02*
X023968Y005478D01*
X023968Y005577D02*
X018568Y005577D01*
X018568Y005675D02*
X023968Y005675D01*
X023968Y006009D02*
X018518Y006009D01*
X018518Y010759D01*
X023968Y010759D01*
X023968Y006009D01*
X023968Y006069D02*
X018518Y006069D01*
X018518Y006168D02*
X023968Y006168D01*
X023968Y006266D02*
X018518Y006266D01*
X018518Y006365D02*
X023968Y006365D01*
X023968Y006463D02*
X018518Y006463D01*
X018518Y006562D02*
X023968Y006562D01*
X023968Y006660D02*
X018518Y006660D01*
X018518Y006759D02*
X023968Y006759D01*
X023968Y006857D02*
X018518Y006857D01*
X018518Y006956D02*
X023968Y006956D01*
X023968Y007054D02*
X018518Y007054D01*
X018518Y007153D02*
X023968Y007153D01*
X023968Y007251D02*
X018518Y007251D01*
X018518Y007350D02*
X023968Y007350D01*
X023968Y007448D02*
X018518Y007448D01*
X018518Y007547D02*
X023968Y007547D01*
X023968Y007645D02*
X018518Y007645D01*
X018518Y007744D02*
X023968Y007744D01*
X023968Y007842D02*
X018518Y007842D01*
X018518Y007941D02*
X023968Y007941D01*
X023968Y008039D02*
X018518Y008039D01*
X018518Y008138D02*
X023968Y008138D01*
X023968Y008236D02*
X018518Y008236D01*
X018518Y008335D02*
X023968Y008335D01*
X023968Y008433D02*
X018518Y008433D01*
X018518Y008532D02*
X023968Y008532D01*
X023968Y008630D02*
X018518Y008630D01*
X018518Y008729D02*
X023968Y008729D01*
X023968Y008827D02*
X018518Y008827D01*
X018518Y008926D02*
X023968Y008926D01*
X023968Y009024D02*
X018518Y009024D01*
X018518Y009123D02*
X023968Y009123D01*
X023968Y009221D02*
X018518Y009221D01*
X018518Y009320D02*
X023968Y009320D01*
X023968Y009418D02*
X018518Y009418D01*
X018518Y009517D02*
X023968Y009517D01*
X023968Y009615D02*
X018518Y009615D01*
X018518Y009714D02*
X023968Y009714D01*
X023968Y009812D02*
X018518Y009812D01*
X018518Y009911D02*
X023968Y009911D01*
X023968Y010009D02*
X018518Y010009D01*
X018518Y010108D02*
X023968Y010108D01*
X023968Y010206D02*
X018518Y010206D01*
X018518Y010305D02*
X023968Y010305D01*
X023968Y010403D02*
X018518Y010403D01*
X018518Y010502D02*
X023968Y010502D01*
X023968Y010600D02*
X018518Y010600D01*
X018518Y010699D02*
X023968Y010699D01*
X018118Y007059D02*
X017618Y007559D01*
X016818Y007609D01*
X016818Y010109D01*
X018118Y007059D02*
X018118Y005559D01*
D11*
X006918Y003309D03*
X005918Y003309D03*
X004918Y003309D03*
X004918Y002309D03*
X005918Y002309D03*
X006918Y002309D03*
D12*
X008258Y004779D03*
X009168Y004779D03*
X010078Y004779D03*
D13*
X009168Y002339D03*
D14*
X010637Y009735D03*
X011429Y009735D03*
X011429Y010483D03*
X010637Y010483D03*
D15*
X012284Y005366D03*
X012540Y005366D03*
X012796Y005366D03*
X013052Y005366D03*
X013052Y003752D03*
X012796Y003752D03*
X012540Y003752D03*
X012284Y003752D03*
D16*
X010192Y006009D03*
X009444Y006009D03*
D17*
X021466Y008819D03*
X021466Y002913D03*
D18*
X007868Y007409D02*
X007868Y008009D01*
X006868Y008009D02*
X006868Y007409D01*
X005868Y007409D02*
X005868Y008009D01*
X004868Y008009D02*
X004868Y007409D01*
X004818Y005759D02*
X004818Y005159D01*
X005818Y005159D02*
X005818Y005759D01*
X006818Y005759D02*
X006818Y005159D01*
X006989Y009625D02*
X007589Y009625D01*
X007589Y010625D02*
X006989Y010625D01*
D19*
X004168Y004409D02*
X004168Y001659D01*
X005168Y000659D01*
X013118Y000659D01*
X014818Y002459D01*
X015868Y002459D01*
X016318Y002909D01*
X016318Y009959D01*
X016418Y010059D01*
X016119Y010071D02*
X016098Y010050D01*
X016098Y009628D01*
X016027Y009657D01*
X015916Y009657D01*
X015916Y009718D01*
X015871Y009828D01*
X015787Y009912D01*
X015677Y009957D01*
X015559Y009957D01*
X015449Y009912D01*
X015365Y009828D01*
X015319Y009718D01*
X015319Y009599D01*
X015365Y009490D01*
X015398Y009457D01*
X015398Y007849D01*
X015377Y007857D01*
X015259Y007857D01*
X015149Y007812D01*
X015116Y007779D01*
X014370Y007779D01*
X014337Y007812D01*
X014227Y007857D01*
X014109Y007857D01*
X013999Y007812D01*
X013915Y007728D01*
X013869Y007618D01*
X013869Y007499D01*
X013915Y007390D01*
X013999Y007306D01*
X014109Y007260D01*
X014227Y007260D01*
X014337Y007306D01*
X014370Y007339D01*
X015116Y007339D01*
X015149Y007306D01*
X015259Y007260D01*
X015377Y007260D01*
X015398Y007269D01*
X015398Y003300D01*
X015377Y003279D01*
X014607Y003279D01*
X014606Y003280D01*
X014516Y003279D01*
X014427Y003279D01*
X014425Y003277D01*
X014424Y003277D01*
X014361Y003213D01*
X014298Y003150D01*
X014298Y003148D01*
X012675Y001479D01*
X012620Y001479D01*
X012587Y001512D01*
X012477Y001557D01*
X012504Y001584D01*
X012504Y003316D01*
X012540Y003316D01*
X012652Y003316D01*
X012668Y003320D01*
X012684Y003316D01*
X012796Y003316D01*
X012908Y003316D01*
X012924Y003320D01*
X012939Y003316D01*
X013052Y003316D01*
X013164Y003316D01*
X013210Y003328D01*
X013251Y003352D01*
X013284Y003385D01*
X013308Y003426D01*
X013320Y003472D01*
X013320Y003752D01*
X013320Y004031D01*
X013308Y004077D01*
X013284Y004118D01*
X013251Y004152D01*
X013210Y004175D01*
X013164Y004188D01*
X013052Y004188D01*
X013052Y004078D01*
X013052Y004188D01*
X012939Y004188D01*
X012924Y004183D01*
X012908Y004188D01*
X012796Y004188D01*
X012796Y004078D01*
X012796Y004078D01*
X012796Y004188D01*
X012684Y004188D01*
X012668Y004183D01*
X012652Y004188D01*
X012540Y004188D01*
X012540Y004078D01*
X012540Y004078D01*
X012540Y004188D01*
X012428Y004188D01*
X012382Y004175D01*
X012341Y004152D01*
X012337Y004148D01*
X012137Y004148D01*
X012055Y004066D01*
X012055Y003438D01*
X012064Y003429D01*
X012064Y001779D01*
X010770Y001779D01*
X010737Y001812D01*
X010627Y001857D01*
X010509Y001857D01*
X010399Y001812D01*
X010369Y001782D01*
X009958Y001789D01*
X010017Y001848D01*
X010017Y002830D01*
X009935Y002912D01*
X008906Y002912D01*
X008538Y003280D01*
X008566Y003349D01*
X008566Y003468D01*
X008558Y003489D01*
X009209Y003489D01*
X009919Y004199D01*
X010376Y004199D01*
X010458Y004281D01*
X010458Y005277D01*
X010376Y005359D01*
X009780Y005359D01*
X009698Y005277D01*
X009698Y004600D01*
X009548Y004450D01*
X009548Y004848D01*
X009664Y004964D01*
X009664Y005573D01*
X009758Y005573D01*
X009818Y005634D01*
X009878Y005573D01*
X010316Y005573D01*
X010615Y005275D01*
X010744Y005146D01*
X012055Y005146D01*
X012055Y005052D01*
X012097Y005010D01*
X012015Y004928D01*
X011969Y004818D01*
X011969Y004699D01*
X012015Y004590D01*
X012099Y004506D01*
X012209Y004460D01*
X012327Y004460D01*
X012437Y004506D01*
X012521Y004590D01*
X012566Y004699D01*
X012566Y004746D01*
X012631Y004811D01*
X012760Y004940D01*
X012760Y004970D01*
X012849Y004970D01*
X012853Y004966D01*
X012894Y004942D01*
X012939Y004930D01*
X013052Y004930D01*
X013164Y004930D01*
X013210Y004942D01*
X013251Y004966D01*
X013284Y004999D01*
X013308Y005040D01*
X013320Y005086D01*
X013320Y005366D01*
X013320Y005645D01*
X013308Y005691D01*
X013284Y005732D01*
X013251Y005766D01*
X013210Y005789D01*
X013164Y005802D01*
X013052Y005802D01*
X013052Y005366D01*
X013320Y005366D01*
X013052Y005366D01*
X013052Y005366D01*
X013052Y005366D01*
X013052Y005802D01*
X012939Y005802D01*
X012894Y005789D01*
X012853Y005766D01*
X012849Y005762D01*
X012744Y005762D01*
X012785Y008253D01*
X012821Y008290D01*
X012866Y008399D01*
X012866Y008518D01*
X012821Y008628D01*
X012737Y008712D01*
X012720Y008719D01*
X013804Y008736D01*
X013848Y008629D01*
X013938Y008539D01*
X014055Y008491D01*
X014181Y008491D01*
X014298Y008539D01*
X014388Y008629D01*
X014436Y008745D01*
X014436Y008872D01*
X014388Y008989D01*
X014298Y009078D01*
X014181Y009127D01*
X014111Y009127D01*
X014059Y009179D01*
X014057Y009179D01*
X014055Y009180D01*
X013966Y009179D01*
X013877Y009179D01*
X013875Y009177D01*
X010849Y009128D01*
X010454Y009272D01*
X010448Y009282D01*
X010377Y009300D01*
X010308Y009325D01*
X010298Y009320D01*
X010288Y009323D01*
X010225Y009286D01*
X010158Y009255D01*
X010155Y009245D01*
X009451Y008831D01*
X008375Y008917D01*
X008288Y009149D01*
X008288Y009200D01*
X008257Y009231D01*
X008242Y009271D01*
X008195Y009292D01*
X008159Y009329D01*
X008116Y009329D01*
X008076Y009347D01*
X008028Y009329D01*
X007967Y009329D01*
X008000Y009373D01*
X008034Y009441D01*
X008057Y009512D01*
X008069Y009587D01*
X008069Y009605D01*
X007309Y009605D01*
X007309Y009645D01*
X007269Y009645D01*
X007269Y009605D01*
X006509Y009605D01*
X006509Y009587D01*
X006521Y009512D01*
X006544Y009441D01*
X006579Y009373D01*
X006611Y009329D01*
X006609Y009329D01*
X006288Y009650D01*
X006159Y009779D01*
X004998Y009779D01*
X004948Y009828D01*
X004831Y009877D01*
X004705Y009877D01*
X004588Y009828D01*
X004498Y009739D01*
X004450Y009622D01*
X004450Y009495D01*
X004498Y009379D01*
X004548Y009329D01*
X004427Y009329D01*
X004077Y008979D01*
X004048Y008950D01*
X004048Y010388D01*
X004057Y010429D01*
X004110Y010568D01*
X004184Y010698D01*
X004278Y010815D01*
X004389Y010915D01*
X004514Y010997D01*
X004651Y011059D01*
X004795Y011098D01*
X004944Y011114D01*
X011973Y011043D01*
X011899Y011012D01*
X011833Y010946D01*
X011492Y010895D01*
X011448Y010906D01*
X011405Y010881D01*
X011386Y010879D01*
X011076Y010879D01*
X011033Y010836D01*
X010990Y010879D01*
X010284Y010879D01*
X010202Y010797D01*
X010202Y010169D01*
X010262Y010109D01*
X010202Y010049D01*
X010202Y009880D01*
X009786Y009806D01*
X009771Y009812D01*
X009645Y009812D01*
X009528Y009763D01*
X009438Y009674D01*
X009390Y009557D01*
X009390Y009430D01*
X009438Y009314D01*
X009528Y009224D01*
X009645Y009176D01*
X009771Y009176D01*
X009888Y009224D01*
X009978Y009314D01*
X010013Y009400D01*
X010202Y009433D01*
X010202Y009421D01*
X010284Y009339D01*
X010990Y009339D01*
X011005Y009354D01*
X011024Y009335D01*
X011065Y009311D01*
X011110Y009299D01*
X011381Y009299D01*
X011381Y009687D01*
X011477Y009687D01*
X011477Y009299D01*
X011748Y009299D01*
X011794Y009311D01*
X011835Y009335D01*
X011869Y009368D01*
X011892Y009409D01*
X011905Y009455D01*
X011905Y009687D01*
X011477Y009687D01*
X011477Y009783D01*
X011905Y009783D01*
X011905Y010014D01*
X011892Y010060D01*
X011869Y010101D01*
X011835Y010135D01*
X011832Y010136D01*
X011865Y010169D01*
X011865Y010506D01*
X011894Y010510D01*
X011899Y010506D01*
X012009Y010460D01*
X012127Y010460D01*
X012237Y010506D01*
X012321Y010590D01*
X012366Y010699D01*
X012366Y010818D01*
X012321Y010928D01*
X012237Y011012D01*
X012167Y011041D01*
X012875Y011033D01*
X012850Y010972D01*
X012850Y010845D01*
X012898Y010729D01*
X012988Y010639D01*
X013105Y010591D01*
X013231Y010591D01*
X013348Y010639D01*
X013418Y010709D01*
X016207Y010709D01*
X016427Y010357D01*
X016359Y010357D01*
X016249Y010312D01*
X016165Y010228D01*
X016119Y010118D01*
X016119Y010071D01*
X016098Y010041D02*
X011897Y010041D01*
X011865Y010200D02*
X016153Y010200D01*
X016426Y010358D02*
X011865Y010358D01*
X011429Y010483D02*
X010637Y010483D01*
X010202Y010517D02*
X008021Y010517D01*
X008029Y010537D02*
X008029Y010712D01*
X007962Y010874D01*
X007838Y010998D01*
X007677Y011065D01*
X006902Y011065D01*
X006740Y010998D01*
X006616Y010874D01*
X006549Y010712D01*
X006549Y010537D01*
X006616Y010376D01*
X006740Y010252D01*
X006902Y010185D01*
X007677Y010185D01*
X007838Y010252D01*
X007962Y010376D01*
X008029Y010537D01*
X008029Y010675D02*
X010202Y010675D01*
X010239Y010834D02*
X007979Y010834D01*
X007844Y010992D02*
X011879Y010992D01*
X012256Y010992D02*
X012858Y010992D01*
X012855Y010834D02*
X012360Y010834D01*
X012356Y010675D02*
X012951Y010675D01*
X013384Y010675D02*
X016228Y010675D01*
X016327Y010517D02*
X012248Y010517D01*
X012068Y010759D02*
X011479Y010670D01*
X011429Y010483D01*
X011905Y009883D02*
X015420Y009883D01*
X015322Y009724D02*
X011477Y009724D01*
X011429Y009735D02*
X011429Y009597D01*
X011518Y009509D01*
X011518Y009409D01*
X011418Y009309D01*
X011381Y009407D02*
X011477Y009407D01*
X011477Y009566D02*
X011381Y009566D01*
X011429Y009735D02*
X012768Y009459D01*
X011905Y009566D02*
X015333Y009566D01*
X015618Y009659D02*
X015618Y003209D01*
X015468Y003059D01*
X014518Y003059D01*
X012768Y001259D01*
X012418Y001259D01*
X012128Y001339D02*
X012119Y001318D01*
X012119Y001199D01*
X012128Y001179D01*
X007770Y001179D01*
X007737Y001212D01*
X007627Y001257D01*
X007509Y001257D01*
X007399Y001212D01*
X007315Y001128D01*
X007269Y001018D01*
X007269Y000899D01*
X007278Y000879D01*
X005259Y000879D01*
X004388Y001750D01*
X004388Y002061D01*
X004690Y001759D01*
X004898Y001759D01*
X004898Y002289D01*
X004938Y002289D01*
X004938Y001759D01*
X005146Y001759D01*
X005446Y002059D01*
X005707Y001799D01*
X006129Y001799D01*
X006418Y002087D01*
X006707Y001799D01*
X007091Y001799D01*
X007346Y001524D01*
X007346Y001521D01*
X007408Y001457D01*
X007469Y001392D01*
X007471Y001392D01*
X007473Y001390D01*
X007562Y001389D01*
X007651Y001386D01*
X007653Y001387D01*
X010362Y001342D01*
X010399Y001306D01*
X010509Y001260D01*
X010627Y001260D01*
X010737Y001306D01*
X010770Y001339D01*
X012128Y001339D01*
X012122Y001324D02*
X010755Y001324D01*
X010568Y001559D02*
X012168Y001559D01*
X012284Y001675D01*
X012284Y003752D01*
X012055Y003701D02*
X009422Y003701D01*
X009580Y003860D02*
X012055Y003860D01*
X012055Y004018D02*
X009739Y004018D01*
X009897Y004177D02*
X012387Y004177D01*
X012540Y004177D02*
X012540Y004177D01*
X012796Y004177D02*
X012796Y004177D01*
X012796Y004078D02*
X012796Y004078D01*
X013052Y004078D02*
X013052Y004078D01*
X013052Y004177D02*
X013052Y004177D01*
X013204Y004177D02*
X015398Y004177D01*
X015398Y004335D02*
X010458Y004335D01*
X010458Y004494D02*
X012128Y004494D01*
X011989Y004652D02*
X010458Y004652D01*
X010458Y004811D02*
X011969Y004811D01*
X012268Y004759D02*
X012540Y005031D01*
X012540Y005366D01*
X012518Y005388D01*
X012568Y008459D01*
X012826Y008615D02*
X013862Y008615D01*
X014118Y008809D02*
X013968Y008959D01*
X010868Y008909D01*
X010768Y008659D02*
X010868Y008409D01*
X010718Y007309D01*
X012118Y006009D01*
X012747Y005920D02*
X015398Y005920D01*
X015398Y006079D02*
X012749Y006079D01*
X012752Y006237D02*
X015398Y006237D01*
X015398Y006396D02*
X012754Y006396D01*
X012757Y006554D02*
X015398Y006554D01*
X015398Y006713D02*
X012760Y006713D01*
X012762Y006871D02*
X015398Y006871D01*
X015398Y007030D02*
X012765Y007030D01*
X012767Y007188D02*
X015398Y007188D01*
X015318Y007559D02*
X014168Y007559D01*
X013888Y007664D02*
X012775Y007664D01*
X012772Y007505D02*
X013869Y007505D01*
X013958Y007347D02*
X012770Y007347D01*
X012778Y007822D02*
X014024Y007822D01*
X014312Y007822D02*
X015174Y007822D01*
X015398Y007981D02*
X012780Y007981D01*
X012783Y008139D02*
X015398Y008139D01*
X015398Y008298D02*
X012824Y008298D01*
X012866Y008456D02*
X015398Y008456D01*
X015398Y008615D02*
X014374Y008615D01*
X014436Y008773D02*
X015398Y008773D01*
X015398Y008932D02*
X014411Y008932D01*
X014269Y009090D02*
X015398Y009090D01*
X015398Y009249D02*
X010518Y009249D01*
X010215Y009407D02*
X010056Y009407D01*
X010118Y009309D02*
X009518Y008909D01*
X009218Y009309D01*
X008718Y009309D01*
X008518Y009509D01*
X008518Y010609D01*
X008618Y010709D01*
X009018Y010709D01*
X009018Y010609D01*
X008218Y010409D02*
X007434Y009625D01*
X007289Y009625D01*
X007269Y009645D02*
X006509Y009645D01*
X006509Y009663D01*
X006521Y009737D01*
X006544Y009809D01*
X006579Y009876D01*
X006623Y009938D01*
X006676Y009991D01*
X006738Y010035D01*
X006805Y010070D01*
X006877Y010093D01*
X006951Y010105D01*
X007269Y010105D01*
X007269Y009645D01*
X007309Y009645D02*
X007309Y010105D01*
X007627Y010105D01*
X007702Y010093D01*
X007773Y010070D01*
X007841Y010035D01*
X007902Y009991D01*
X007955Y009938D01*
X008000Y009876D01*
X008034Y009809D01*
X008057Y009737D01*
X008069Y009663D01*
X008069Y009645D01*
X007309Y009645D01*
X007309Y009724D02*
X007269Y009724D01*
X007269Y009883D02*
X007309Y009883D01*
X007309Y010041D02*
X007269Y010041D01*
X006866Y010200D02*
X004048Y010200D01*
X004048Y010358D02*
X006634Y010358D01*
X006558Y010517D02*
X004090Y010517D01*
X004171Y010675D02*
X006549Y010675D01*
X006599Y010834D02*
X004299Y010834D01*
X004507Y010992D02*
X006734Y010992D01*
X007945Y010358D02*
X010202Y010358D01*
X010202Y010200D02*
X007713Y010200D01*
X007829Y010041D02*
X010202Y010041D01*
X010202Y009883D02*
X007995Y009883D01*
X008059Y009724D02*
X009489Y009724D01*
X009394Y009566D02*
X008066Y009566D01*
X008017Y009407D02*
X009400Y009407D01*
X009503Y009249D02*
X008250Y009249D01*
X008068Y009109D02*
X008218Y008709D01*
X009468Y008609D01*
X009518Y008359D02*
X010318Y008859D01*
X010768Y008659D01*
X010268Y008459D02*
X010192Y008333D01*
X010192Y006009D01*
X010835Y005366D01*
X012284Y005366D01*
X012055Y005128D02*
X010458Y005128D01*
X010448Y005286D02*
X010603Y005286D01*
X010445Y005445D02*
X009664Y005445D01*
X009788Y005603D02*
X009848Y005603D01*
X009224Y005573D02*
X009224Y005359D01*
X008870Y005359D01*
X008788Y005277D01*
X008788Y004999D01*
X008678Y004999D01*
X008678Y005242D01*
X008666Y005288D01*
X008642Y005329D01*
X008608Y005363D01*
X008567Y005386D01*
X008522Y005399D01*
X008298Y005399D01*
X008298Y004819D01*
X008218Y004819D01*
X008218Y005399D01*
X007994Y005399D01*
X007948Y005386D01*
X007907Y005363D01*
X007874Y005329D01*
X007850Y005288D01*
X007838Y005242D01*
X007838Y004819D01*
X008218Y004819D01*
X008218Y004739D01*
X007838Y004739D01*
X007838Y004315D01*
X007850Y004269D01*
X007874Y004228D01*
X007907Y004195D01*
X007948Y004171D01*
X007994Y004159D01*
X008218Y004159D01*
X008218Y004739D01*
X008298Y004739D01*
X008298Y004159D01*
X008386Y004159D01*
X008369Y004118D01*
X008369Y003999D01*
X008399Y003929D01*
X008065Y003929D01*
X007785Y004053D01*
X007748Y005938D01*
X007756Y005949D01*
X007747Y006023D01*
X007749Y006098D01*
X007745Y006102D01*
X007745Y006107D01*
X007735Y006117D01*
X007733Y006130D01*
X007674Y006176D01*
X007623Y006230D01*
X007617Y006230D01*
X007613Y006234D01*
X007600Y006233D01*
X007335Y006439D01*
X008702Y006439D01*
X008777Y006428D01*
X008791Y006439D01*
X008809Y006439D01*
X008862Y006492D01*
X008991Y006589D01*
X009009Y006589D01*
X009062Y006642D01*
X009123Y006687D01*
X009125Y006705D01*
X009138Y006718D01*
X009138Y006793D01*
X009149Y006868D01*
X009138Y006882D01*
X009138Y007429D01*
X009188Y007479D01*
X009236Y007595D01*
X009236Y007722D01*
X009188Y007839D01*
X009098Y007928D01*
X008981Y007977D01*
X008855Y007977D01*
X008738Y007928D01*
X008648Y007839D01*
X008600Y007722D01*
X008600Y007595D01*
X008648Y007479D01*
X008698Y007429D01*
X008698Y006919D01*
X008645Y006879D01*
X005741Y006879D01*
X005271Y007232D01*
X005308Y007321D01*
X005308Y008096D01*
X005241Y008258D01*
X005117Y008382D01*
X005036Y008415D01*
X005564Y008438D01*
X005726Y008426D01*
X005619Y008382D01*
X005495Y008258D01*
X005428Y008096D01*
X005428Y007321D01*
X005495Y007159D01*
X005619Y007036D01*
X005780Y006969D01*
X005955Y006969D01*
X006117Y007036D01*
X006241Y007159D01*
X006308Y007321D01*
X006308Y008096D01*
X006241Y008258D01*
X006117Y008382D01*
X006074Y008400D01*
X006597Y008360D01*
X006495Y008258D01*
X006428Y008096D01*
X006428Y007321D01*
X006495Y007159D01*
X006619Y007036D01*
X006780Y006969D01*
X006955Y006969D01*
X007117Y007036D01*
X007241Y007159D01*
X007308Y007321D01*
X007308Y008096D01*
X007241Y008258D01*
X007183Y008315D01*
X007526Y008289D01*
X007495Y008258D01*
X007428Y008096D01*
X007428Y007321D01*
X007495Y007159D01*
X007619Y007036D01*
X007780Y006969D01*
X007955Y006969D01*
X008117Y007036D01*
X008241Y007159D01*
X008308Y007321D01*
X008308Y008096D01*
X008251Y008234D01*
X009485Y008141D01*
X009557Y008124D01*
X009573Y008134D01*
X009592Y008132D01*
X009649Y008181D01*
X009961Y008376D01*
X009956Y008368D01*
X009972Y008306D01*
X009972Y006444D01*
X009878Y006444D01*
X009818Y006384D01*
X009758Y006444D01*
X009688Y006444D01*
X009688Y006457D01*
X009721Y006490D01*
X009766Y006599D01*
X009766Y006718D01*
X009721Y006828D01*
X009637Y006912D01*
X009527Y006957D01*
X009409Y006957D01*
X009299Y006912D01*
X009215Y006828D01*
X009169Y006718D01*
X009169Y006599D01*
X009215Y006490D01*
X009248Y006457D01*
X009248Y006444D01*
X009130Y006444D01*
X009048Y006362D01*
X009048Y005655D01*
X009130Y005573D01*
X009224Y005573D01*
X009100Y005603D02*
X007755Y005603D01*
X007758Y005445D02*
X009224Y005445D01*
X009048Y005762D02*
X007752Y005762D01*
X007518Y005652D02*
X007527Y006012D01*
X007080Y006359D01*
X005368Y006359D01*
X005095Y006237D02*
X004838Y006237D01*
X004838Y006218D02*
X004838Y006497D01*
X004847Y006575D01*
X004838Y006586D01*
X004838Y006600D01*
X004782Y006656D01*
X004638Y006836D01*
X004638Y007028D01*
X004780Y006969D01*
X004888Y006969D01*
X005305Y006656D01*
X005199Y006612D01*
X005115Y006528D01*
X005069Y006418D01*
X005069Y006299D01*
X005115Y006190D01*
X005199Y006106D01*
X005309Y006060D01*
X005427Y006060D01*
X005537Y006106D01*
X005570Y006139D01*
X005586Y006139D01*
X005569Y006132D01*
X005445Y006008D01*
X005378Y005846D01*
X005378Y005071D01*
X005445Y004909D01*
X005569Y004786D01*
X005730Y004719D01*
X005905Y004719D01*
X006067Y004786D01*
X006191Y004909D01*
X006258Y005071D01*
X006258Y005846D01*
X006191Y006008D01*
X006067Y006132D01*
X006050Y006139D01*
X006586Y006139D01*
X006569Y006132D01*
X006445Y006008D01*
X006378Y005846D01*
X006378Y005071D01*
X006445Y004909D01*
X006498Y004856D01*
X006498Y004850D01*
X006362Y004714D01*
X006331Y004727D01*
X006205Y004727D01*
X006088Y004678D01*
X005998Y004589D01*
X005950Y004472D01*
X005950Y004345D01*
X005998Y004229D01*
X006088Y004139D01*
X006205Y004091D01*
X006331Y004091D01*
X006429Y004131D01*
X006117Y003819D01*
X005707Y003819D01*
X005418Y003530D01*
X005129Y003819D01*
X004707Y003819D01*
X004408Y003520D01*
X004408Y003097D01*
X004668Y002837D01*
X004388Y002557D01*
X004388Y004179D01*
X004438Y004229D01*
X004485Y004342D01*
X004984Y004065D01*
X005015Y003990D01*
X005099Y003906D01*
X005209Y003860D01*
X005327Y003860D01*
X005437Y003906D01*
X005521Y003990D01*
X005566Y004099D01*
X005566Y004218D01*
X005521Y004328D01*
X005437Y004412D01*
X005327Y004457D01*
X005209Y004457D01*
X005194Y004451D01*
X004662Y004747D01*
X004730Y004719D01*
X004905Y004719D01*
X005067Y004786D01*
X005191Y004909D01*
X005258Y005071D01*
X005258Y005846D01*
X005191Y006008D01*
X005067Y006132D01*
X004905Y006199D01*
X004819Y006199D01*
X004838Y006218D01*
X004618Y006309D02*
X004618Y006509D01*
X004418Y006759D01*
X004418Y008609D01*
X005568Y008659D01*
X009518Y008359D01*
X009835Y008298D02*
X009972Y008298D01*
X009972Y008139D02*
X009600Y008139D01*
X009491Y008139D02*
X008290Y008139D01*
X008308Y007981D02*
X009972Y007981D01*
X009972Y007822D02*
X009194Y007822D01*
X009236Y007664D02*
X009972Y007664D01*
X009972Y007505D02*
X009199Y007505D01*
X009138Y007347D02*
X009972Y007347D01*
X009972Y007188D02*
X009138Y007188D01*
X009138Y007030D02*
X009972Y007030D01*
X009972Y006871D02*
X009677Y006871D01*
X009258Y006871D02*
X009146Y006871D01*
X008918Y006809D02*
X008718Y006659D01*
X005668Y006659D01*
X004868Y007259D01*
X004868Y007709D01*
X005308Y007664D02*
X005428Y007664D01*
X005428Y007505D02*
X005308Y007505D01*
X005308Y007347D02*
X005428Y007347D01*
X005483Y007188D02*
X005329Y007188D01*
X005540Y007030D02*
X005633Y007030D01*
X006103Y007030D02*
X006633Y007030D01*
X006483Y007188D02*
X006253Y007188D01*
X006308Y007347D02*
X006428Y007347D01*
X006428Y007505D02*
X006308Y007505D01*
X006308Y007664D02*
X006428Y007664D01*
X006428Y007822D02*
X006308Y007822D01*
X006308Y007981D02*
X006428Y007981D01*
X006446Y008139D02*
X006290Y008139D01*
X006201Y008298D02*
X006535Y008298D01*
X007201Y008298D02*
X007416Y008298D01*
X007446Y008139D02*
X007290Y008139D01*
X007308Y007981D02*
X007428Y007981D01*
X007428Y007822D02*
X007308Y007822D01*
X007308Y007664D02*
X007428Y007664D01*
X007428Y007505D02*
X007308Y007505D01*
X007308Y007347D02*
X007428Y007347D01*
X007483Y007188D02*
X007253Y007188D01*
X007103Y007030D02*
X007633Y007030D01*
X008103Y007030D02*
X008698Y007030D01*
X008698Y007188D02*
X008253Y007188D01*
X008308Y007347D02*
X008698Y007347D01*
X008637Y007505D02*
X008308Y007505D01*
X008308Y007664D02*
X008600Y007664D01*
X008918Y007659D02*
X008918Y006809D01*
X009133Y006713D02*
X009169Y006713D01*
X009188Y006554D02*
X008945Y006554D01*
X009082Y006396D02*
X007391Y006396D01*
X007595Y006237D02*
X009048Y006237D01*
X009048Y006079D02*
X007748Y006079D01*
X007748Y005920D02*
X009048Y005920D01*
X009444Y006009D02*
X009444Y005055D01*
X009168Y004779D01*
X008738Y004779D01*
X008668Y004709D01*
X008668Y004059D01*
X008369Y004018D02*
X007863Y004018D01*
X007938Y004177D02*
X007783Y004177D01*
X007780Y004335D02*
X007838Y004335D01*
X008218Y004335D02*
X008298Y004335D01*
X008298Y004177D02*
X008218Y004177D01*
X008258Y004099D02*
X008218Y004059D01*
X008258Y004099D02*
X008258Y004779D01*
X008218Y004811D02*
X007770Y004811D01*
X007773Y004652D02*
X007838Y004652D01*
X007838Y004494D02*
X007776Y004494D01*
X008218Y004494D02*
X008298Y004494D01*
X008298Y004652D02*
X008218Y004652D01*
X008218Y004969D02*
X008298Y004969D01*
X008298Y005128D02*
X008218Y005128D01*
X008218Y005286D02*
X008298Y005286D01*
X008666Y005286D02*
X008797Y005286D01*
X008788Y005128D02*
X008678Y005128D01*
X007838Y005128D02*
X007764Y005128D01*
X007761Y005286D02*
X007850Y005286D01*
X007838Y004969D02*
X007767Y004969D01*
X007168Y004559D02*
X005918Y003309D01*
X005431Y003543D02*
X005405Y003543D01*
X005418Y003759D02*
X004818Y003959D01*
X004418Y003759D01*
X004388Y003701D02*
X004589Y003701D01*
X004431Y003543D02*
X004388Y003543D01*
X004388Y003384D02*
X004408Y003384D01*
X004408Y003226D02*
X004388Y003226D01*
X004388Y003067D02*
X004438Y003067D01*
X004388Y002909D02*
X004597Y002909D01*
X004582Y002750D02*
X004388Y002750D01*
X004418Y002759D02*
X004918Y002309D01*
X004898Y002275D02*
X004938Y002275D01*
X004938Y002116D02*
X004898Y002116D01*
X004898Y001958D02*
X004938Y001958D01*
X004938Y001799D02*
X004898Y001799D01*
X004650Y001799D02*
X004388Y001799D01*
X004388Y001958D02*
X004491Y001958D01*
X004497Y001641D02*
X007238Y001641D01*
X007384Y001482D02*
X004656Y001482D01*
X004814Y001324D02*
X010381Y001324D01*
X010568Y001559D02*
X007568Y001609D01*
X006918Y002309D01*
X006548Y001958D02*
X006288Y001958D01*
X006130Y001799D02*
X006706Y001799D01*
X005706Y001799D02*
X005186Y001799D01*
X005345Y001958D02*
X005548Y001958D01*
X004423Y002592D02*
X004388Y002592D01*
X005247Y003701D02*
X005589Y003701D01*
X005418Y003759D02*
X005718Y004059D01*
X006018Y004059D01*
X006050Y004177D02*
X005566Y004177D01*
X005533Y004018D02*
X006316Y004018D01*
X006158Y003860D02*
X004388Y003860D01*
X004388Y004018D02*
X005003Y004018D01*
X004782Y004177D02*
X004388Y004177D01*
X004482Y004335D02*
X004497Y004335D01*
X004368Y004659D02*
X004318Y004709D01*
X004318Y006009D01*
X004618Y006309D01*
X004838Y006396D02*
X005069Y006396D01*
X005141Y006554D02*
X004844Y006554D01*
X004736Y006713D02*
X005229Y006713D01*
X005018Y006871D02*
X004638Y006871D01*
X004168Y006359D02*
X004168Y008759D01*
X004518Y009109D01*
X005918Y009109D01*
X006068Y009559D02*
X006518Y009109D01*
X008068Y009109D01*
X008310Y009090D02*
X009892Y009090D01*
X009623Y008932D02*
X008369Y008932D01*
X009708Y009494D02*
X009799Y009585D01*
X010637Y009735D01*
X010156Y009249D02*
X009913Y009249D01*
X011891Y009407D02*
X015398Y009407D01*
X015968Y009359D02*
X015968Y003009D01*
X015718Y002759D01*
X014668Y002759D01*
X012918Y000959D01*
X007568Y000959D01*
X007352Y001165D02*
X004973Y001165D01*
X005131Y001007D02*
X007269Y001007D01*
X009168Y002339D02*
X008268Y003239D01*
X008268Y003409D01*
X008566Y003384D02*
X012064Y003384D01*
X012064Y003226D02*
X008592Y003226D01*
X008750Y003067D02*
X012064Y003067D01*
X012064Y002909D02*
X009938Y002909D01*
X010017Y002750D02*
X012064Y002750D01*
X012064Y002592D02*
X010017Y002592D01*
X010017Y002433D02*
X012064Y002433D01*
X012064Y002275D02*
X010017Y002275D01*
X010017Y002116D02*
X012064Y002116D01*
X012064Y001958D02*
X010017Y001958D01*
X009968Y001799D02*
X010386Y001799D01*
X010749Y001799D02*
X012064Y001799D01*
X012504Y001799D02*
X012987Y001799D01*
X013141Y001958D02*
X012504Y001958D01*
X012504Y002116D02*
X013295Y002116D01*
X013449Y002275D02*
X012504Y002275D01*
X012504Y002433D02*
X013603Y002433D01*
X013757Y002592D02*
X012504Y002592D01*
X012504Y002750D02*
X013911Y002750D01*
X014065Y002909D02*
X012504Y002909D01*
X012504Y003067D02*
X014219Y003067D01*
X014373Y003226D02*
X012504Y003226D01*
X012540Y003316D02*
X012540Y003426D01*
X012540Y003426D01*
X012540Y003316D01*
X012540Y003384D02*
X012540Y003384D01*
X012796Y003384D02*
X012796Y003384D01*
X012796Y003426D02*
X012796Y003316D01*
X012796Y003426D01*
X012796Y003426D01*
X012796Y003426D01*
X013052Y003426D02*
X013052Y003316D01*
X013052Y003426D01*
X013052Y003426D01*
X013052Y003384D02*
X013052Y003384D01*
X013283Y003384D02*
X015398Y003384D01*
X015398Y003543D02*
X013320Y003543D01*
X013320Y003701D02*
X015398Y003701D01*
X015398Y003860D02*
X013320Y003860D01*
X013320Y003752D02*
X013052Y003752D01*
X013052Y003752D01*
X013825Y003752D01*
X014068Y003509D01*
X013320Y003752D02*
X013052Y003752D01*
X012796Y003752D01*
X013052Y003752D01*
X013052Y005366D01*
X013068Y005382D01*
X013068Y005809D01*
X013268Y006009D01*
X013318Y006009D01*
X013318Y008059D01*
X009972Y006713D02*
X009766Y006713D01*
X009748Y006554D02*
X009972Y006554D01*
X009830Y006396D02*
X009806Y006396D01*
X009468Y006659D02*
X009468Y006033D01*
X009444Y006009D01*
X009664Y005286D02*
X009707Y005286D01*
X009698Y005128D02*
X009664Y005128D01*
X009664Y004969D02*
X009698Y004969D01*
X009698Y004811D02*
X009548Y004811D01*
X009548Y004652D02*
X009698Y004652D01*
X009592Y004494D02*
X009548Y004494D01*
X009968Y004559D02*
X010018Y004559D01*
X010078Y004619D01*
X010078Y004779D01*
X009968Y004559D02*
X009118Y003709D01*
X008018Y003709D01*
X007568Y003909D01*
X007527Y006012D01*
X006818Y005459D02*
X006718Y005359D01*
X006718Y004759D01*
X006468Y004509D01*
X006268Y004409D01*
X005959Y004494D02*
X005118Y004494D01*
X005092Y004811D02*
X005544Y004811D01*
X005420Y004969D02*
X005216Y004969D01*
X005258Y005128D02*
X005378Y005128D01*
X005378Y005286D02*
X005258Y005286D01*
X005258Y005445D02*
X005378Y005445D01*
X005378Y005603D02*
X005258Y005603D01*
X005258Y005762D02*
X005378Y005762D01*
X005409Y005920D02*
X005227Y005920D01*
X005264Y006079D02*
X005120Y006079D01*
X005472Y006079D02*
X005516Y006079D01*
X006120Y006079D02*
X006516Y006079D01*
X006409Y005920D02*
X006227Y005920D01*
X006258Y005762D02*
X006378Y005762D01*
X006378Y005603D02*
X006258Y005603D01*
X006258Y005445D02*
X006378Y005445D01*
X006378Y005286D02*
X006258Y005286D01*
X006258Y005128D02*
X006378Y005128D01*
X006420Y004969D02*
X006216Y004969D01*
X006092Y004811D02*
X006459Y004811D01*
X006062Y004652D02*
X004833Y004652D01*
X004368Y004659D02*
X005268Y004159D01*
X005513Y004335D02*
X005954Y004335D01*
X009263Y003543D02*
X012055Y003543D01*
X012540Y003752D02*
X012796Y003752D01*
X012796Y003752D01*
X012796Y003752D01*
X012783Y003752D01*
X012540Y003752D01*
X012540Y003752D01*
X012796Y003752D01*
X013052Y003752D01*
X013052Y003752D01*
X013320Y004018D02*
X015398Y004018D01*
X015398Y004494D02*
X012408Y004494D01*
X012547Y004652D02*
X015398Y004652D01*
X015398Y004811D02*
X012631Y004811D01*
X013052Y004930D02*
X013052Y005366D01*
X013052Y004930D01*
X013052Y004969D02*
X013052Y004969D01*
X013052Y005128D02*
X013052Y005128D01*
X013052Y005286D02*
X013052Y005286D01*
X013052Y005366D02*
X013052Y005366D01*
X013052Y005366D01*
X013024Y005366D01*
X013024Y005366D01*
X013052Y005366D01*
X013052Y005445D02*
X013052Y005445D01*
X013052Y005603D02*
X013052Y005603D01*
X013052Y005762D02*
X013052Y005762D01*
X013255Y005762D02*
X015398Y005762D01*
X015398Y005603D02*
X013320Y005603D01*
X013320Y005445D02*
X015398Y005445D01*
X015398Y005286D02*
X013320Y005286D01*
X013320Y005128D02*
X015398Y005128D01*
X015398Y004969D02*
X013254Y004969D01*
X012849Y004969D02*
X012760Y004969D01*
X012056Y004969D02*
X010458Y004969D01*
X012744Y005762D02*
X012849Y005762D01*
X016538Y005762D02*
X017383Y005762D01*
X017384Y005603D02*
X016538Y005603D01*
X016538Y005445D02*
X017384Y005445D01*
X017385Y005286D02*
X016538Y005286D01*
X016538Y005128D02*
X017386Y005128D01*
X017387Y004969D02*
X016538Y004969D01*
X016538Y004811D02*
X017387Y004811D01*
X017388Y004652D02*
X016538Y004652D01*
X016538Y004494D02*
X017389Y004494D01*
X017390Y004335D02*
X016538Y004335D01*
X016538Y004177D02*
X017390Y004177D01*
X017391Y004018D02*
X016538Y004018D01*
X016538Y003860D02*
X017392Y003860D01*
X017393Y003701D02*
X016538Y003701D01*
X016538Y003543D02*
X017393Y003543D01*
X017394Y003384D02*
X016538Y003384D01*
X016538Y003226D02*
X017395Y003226D01*
X017396Y003067D02*
X016538Y003067D01*
X016538Y002909D02*
X017396Y002909D01*
X017397Y002750D02*
X016471Y002750D01*
X016538Y002818D02*
X016538Y009785D01*
X016587Y009806D01*
X016628Y009847D01*
X016628Y007615D01*
X016623Y007542D01*
X016628Y007537D01*
X016628Y007530D01*
X016679Y007479D01*
X016728Y007424D01*
X016734Y007424D01*
X016739Y007419D01*
X016812Y007419D01*
X017375Y007384D01*
X017402Y001789D01*
X017183Y001789D01*
X016933Y001685D01*
X016888Y001640D01*
X016888Y001650D01*
X016759Y001779D01*
X016577Y001779D01*
X016448Y001650D01*
X016448Y001279D01*
X016077Y001279D01*
X015948Y001150D01*
X015948Y000468D01*
X016027Y000389D01*
X015806Y000386D01*
X015888Y000468D01*
X015888Y001150D01*
X015759Y001279D01*
X015388Y001279D01*
X015388Y001339D01*
X015759Y001339D01*
X015888Y001468D01*
X015888Y001650D01*
X015759Y001779D01*
X015077Y001779D01*
X014948Y001650D01*
X014948Y000968D01*
X015077Y000839D01*
X015448Y000839D01*
X015448Y000468D01*
X015533Y000383D01*
X014549Y000370D01*
X014582Y000412D01*
X014638Y000468D01*
X014638Y000482D01*
X014782Y000662D01*
X014838Y000718D01*
X014838Y000732D01*
X014847Y000742D01*
X014838Y000821D01*
X014838Y001650D01*
X014709Y001779D01*
X014527Y001779D01*
X014398Y001650D01*
X014398Y000890D01*
X014388Y000900D01*
X014388Y001650D01*
X014372Y001666D01*
X014913Y002239D01*
X015959Y002239D01*
X016088Y002368D01*
X016538Y002818D01*
X016312Y002592D02*
X017398Y002592D01*
X017399Y002433D02*
X016154Y002433D01*
X015995Y002275D02*
X017399Y002275D01*
X017400Y002116D02*
X014797Y002116D01*
X014647Y001958D02*
X017401Y001958D01*
X017402Y001799D02*
X014498Y001799D01*
X014398Y001641D02*
X014388Y001641D01*
X014388Y001482D02*
X014398Y001482D01*
X014388Y001324D02*
X014398Y001324D01*
X014388Y001165D02*
X014398Y001165D01*
X014388Y001007D02*
X014398Y001007D01*
X014618Y000809D02*
X014618Y001559D01*
X014838Y001482D02*
X014948Y001482D01*
X014948Y001324D02*
X014838Y001324D01*
X014838Y001165D02*
X014948Y001165D01*
X014948Y001007D02*
X014838Y001007D01*
X014838Y000848D02*
X015067Y000848D01*
X015168Y001059D02*
X015668Y001059D01*
X015668Y000559D01*
X015888Y000531D02*
X015948Y000531D01*
X015948Y000690D02*
X015888Y000690D01*
X016168Y000559D02*
X016168Y001059D01*
X016668Y001059D01*
X016668Y001559D01*
X016448Y001482D02*
X015888Y001482D01*
X015888Y001641D02*
X016448Y001641D01*
X016448Y001324D02*
X015388Y001324D01*
X015168Y001559D02*
X015168Y001059D01*
X014618Y000809D02*
X014418Y000559D01*
X014168Y000809D01*
X014168Y001559D01*
X014838Y001641D02*
X014948Y001641D01*
X015168Y001559D02*
X015668Y001559D01*
X015873Y001165D02*
X015963Y001165D01*
X015948Y001007D02*
X015888Y001007D01*
X015888Y000848D02*
X015948Y000848D01*
X015448Y000690D02*
X014810Y000690D01*
X014678Y000531D02*
X015448Y000531D01*
X014767Y000373D02*
X014551Y000373D01*
X016168Y000559D02*
X016668Y000559D01*
X016888Y001641D02*
X016888Y001641D01*
X016568Y002159D02*
X016668Y002259D01*
X016668Y005409D01*
X016718Y005909D02*
X016768Y006009D01*
X016668Y007059D01*
X016538Y007030D02*
X017377Y007030D01*
X017376Y007188D02*
X016538Y007188D01*
X016538Y007347D02*
X017375Y007347D01*
X016653Y007505D02*
X016538Y007505D01*
X016538Y007664D02*
X016628Y007664D01*
X016628Y007822D02*
X016538Y007822D01*
X016538Y007981D02*
X016628Y007981D01*
X016628Y008139D02*
X016538Y008139D01*
X016538Y008298D02*
X016628Y008298D01*
X016628Y008456D02*
X016538Y008456D01*
X016538Y008615D02*
X016628Y008615D01*
X016628Y008773D02*
X016538Y008773D01*
X016538Y008932D02*
X016628Y008932D01*
X016628Y009090D02*
X016538Y009090D01*
X016538Y009249D02*
X016628Y009249D01*
X016628Y009407D02*
X016538Y009407D01*
X016538Y009566D02*
X016628Y009566D01*
X016628Y009724D02*
X016538Y009724D01*
X016098Y009724D02*
X015914Y009724D01*
X015816Y009883D02*
X016098Y009883D01*
X016538Y006871D02*
X017378Y006871D01*
X017378Y006713D02*
X016538Y006713D01*
X016538Y006554D02*
X017379Y006554D01*
X017380Y006396D02*
X016538Y006396D01*
X016538Y006237D02*
X017381Y006237D01*
X017381Y006079D02*
X016538Y006079D01*
X016538Y005920D02*
X017382Y005920D01*
X022550Y005322D02*
X023387Y005322D01*
X018906Y002716D02*
X018906Y001929D01*
X012832Y001641D02*
X012504Y001641D01*
X012616Y001482D02*
X012678Y001482D01*
X008641Y007822D02*
X008308Y007822D01*
X005535Y008298D02*
X005201Y008298D01*
X005290Y008139D02*
X005446Y008139D01*
X005428Y007981D02*
X005308Y007981D01*
X005308Y007822D02*
X005428Y007822D01*
X004188Y009090D02*
X004048Y009090D01*
X004048Y009249D02*
X004347Y009249D01*
X004486Y009407D02*
X004048Y009407D01*
X004048Y009566D02*
X004450Y009566D01*
X004492Y009724D02*
X004048Y009724D01*
X004048Y009883D02*
X006583Y009883D01*
X006519Y009724D02*
X006213Y009724D01*
X006372Y009566D02*
X006513Y009566D01*
X006068Y009559D02*
X004768Y009559D01*
X004048Y010041D02*
X006749Y010041D01*
X006561Y009407D02*
X006530Y009407D01*
D20*
X010268Y008459D03*
X010868Y008409D03*
X012568Y008459D03*
X013318Y008059D03*
X014168Y007559D03*
X015318Y007559D03*
X016668Y007059D03*
X016718Y005909D03*
X013318Y006009D03*
X012118Y006009D03*
X012268Y004759D03*
X008668Y004059D03*
X008268Y003409D03*
X007168Y004559D03*
X005268Y004159D03*
X005368Y006359D03*
X009468Y006659D03*
X015618Y009659D03*
X015968Y009359D03*
X016418Y010059D03*
X012068Y010759D03*
X010568Y001559D03*
X012418Y001259D03*
X007568Y000959D03*
D21*
X010918Y002059D03*
X012668Y002509D03*
X014068Y003509D03*
X016568Y002159D03*
X016668Y005409D03*
X018118Y005559D03*
X014118Y008809D03*
X012768Y009459D03*
X013168Y010909D03*
X009708Y009494D03*
X008218Y010409D03*
X009018Y010609D03*
X005918Y009109D03*
X004768Y009559D03*
X008918Y007659D03*
X004168Y006359D03*
X004168Y004409D03*
X006018Y004059D03*
X006268Y004409D03*
X008218Y004059D03*
X009868Y003459D03*
D22*
X004418Y003759D02*
X004418Y002759D01*
X009468Y008609D02*
X010318Y009109D01*
X010868Y008909D01*
X011418Y009309D02*
X010118Y009309D01*
X011403Y009759D02*
X011429Y009735D01*
X013168Y010909D02*
X016318Y010909D01*
X016818Y010109D01*
D23*
X018906Y009803D03*
X019247Y009456D03*
X018906Y009015D03*
X020088Y008819D03*
X018906Y008228D03*
X019497Y008031D03*
X020481Y007834D03*
X021466Y007441D03*
X022450Y007834D03*
X023437Y007940D03*
X023737Y007690D03*
X023040Y007244D03*
X023687Y007040D03*
X023737Y006390D03*
X023237Y006260D03*
X022450Y006260D03*
X021662Y006260D03*
X020875Y006260D03*
X020284Y006456D03*
X020678Y006850D03*
X019891Y007244D03*
X018906Y007441D03*
X022253Y006850D03*
X022550Y005322D03*
X023387Y005322D03*
X023687Y005072D03*
X022940Y004488D03*
X023678Y004432D03*
X023703Y003882D03*
X023087Y003622D03*
X022450Y003897D03*
X021466Y004291D03*
X020481Y003897D03*
X019497Y003700D03*
X018906Y003504D03*
X020088Y002913D03*
X018906Y002716D03*
X018906Y001929D03*
X019891Y001338D03*
X020481Y001929D03*
X021466Y001535D03*
X021987Y001472D03*
X023437Y001722D03*
X022805Y002278D03*
X022843Y002913D03*
X023637Y002922D03*
X019891Y004488D03*
X019356Y004541D03*
X018906Y004291D03*
X020284Y005275D03*
X021025Y005322D03*
X021612Y005222D03*
X023487Y008640D03*
X022843Y008819D03*
X023637Y009290D03*
X022450Y009803D03*
X023437Y010140D03*
X022587Y010490D03*
X021466Y010197D03*
X020481Y009803D03*
X019447Y010056D03*
X019541Y010543D03*
X018906Y010590D03*
M02*
