G75*
%MOIN*%
%OFA0B0*%
%FSLAX24Y24*%
%IPPOS*%
%LPD*%
%AMOC8*
5,1,8,0,0,1.08239X$1,22.5*
%
%ADD10C,0.0050*%
%ADD11R,0.0512X0.0591*%
%ADD12R,0.0512X0.0630*%
%ADD13R,0.0630X0.0512*%
%ADD14R,0.0472X0.0472*%
%ADD15OC8,0.0740*%
%ADD16R,0.0276X0.0669*%
%ADD17C,0.3543*%
%ADD18R,0.0906X0.0630*%
%ADD19R,0.0870X0.0240*%
%ADD20C,0.0600*%
%ADD21R,0.0200X0.0580*%
%ADD22R,0.0580X0.0200*%
%ADD23C,0.0100*%
%ADD24C,0.0160*%
%ADD25C,0.0317*%
%ADD26C,0.0356*%
%ADD27C,0.0120*%
%ADD28C,0.0277*%
D10*
X018510Y000945D02*
X018510Y005748D01*
X023984Y005748D01*
X023984Y000945D01*
X018510Y000945D01*
X018510Y000978D02*
X023984Y000978D01*
X023984Y001027D02*
X018510Y001027D01*
X018510Y001075D02*
X023984Y001075D01*
X023984Y001124D02*
X018510Y001124D01*
X018510Y001172D02*
X023984Y001172D01*
X023984Y001221D02*
X018510Y001221D01*
X018510Y001269D02*
X023984Y001269D01*
X023984Y001318D02*
X018510Y001318D01*
X018510Y001366D02*
X023984Y001366D01*
X023984Y001415D02*
X018510Y001415D01*
X018510Y001463D02*
X023984Y001463D01*
X023984Y001512D02*
X018510Y001512D01*
X018510Y001560D02*
X023984Y001560D01*
X023984Y001609D02*
X018510Y001609D01*
X018510Y001657D02*
X023984Y001657D01*
X023984Y001706D02*
X018510Y001706D01*
X018510Y001754D02*
X023984Y001754D01*
X023984Y001803D02*
X018510Y001803D01*
X018510Y001851D02*
X023984Y001851D01*
X023984Y001900D02*
X018510Y001900D01*
X018510Y001948D02*
X023984Y001948D01*
X023984Y001997D02*
X018510Y001997D01*
X018510Y002045D02*
X023984Y002045D01*
X023984Y002094D02*
X018510Y002094D01*
X018510Y002142D02*
X023984Y002142D01*
X023984Y002191D02*
X018510Y002191D01*
X018510Y002239D02*
X023984Y002239D01*
X023984Y002288D02*
X018510Y002288D01*
X018510Y002336D02*
X023984Y002336D01*
X023984Y002385D02*
X018510Y002385D01*
X018510Y002433D02*
X023984Y002433D01*
X023984Y002482D02*
X018510Y002482D01*
X018510Y002530D02*
X023984Y002530D01*
X023984Y002579D02*
X018510Y002579D01*
X018510Y002627D02*
X023984Y002627D01*
X023984Y002676D02*
X018510Y002676D01*
X018510Y002724D02*
X023984Y002724D01*
X023984Y002773D02*
X018510Y002773D01*
X018510Y002821D02*
X023984Y002821D01*
X023984Y002870D02*
X018510Y002870D01*
X018510Y002918D02*
X023984Y002918D01*
X023984Y002967D02*
X018510Y002967D01*
X018510Y003015D02*
X023984Y003015D01*
X023984Y003064D02*
X018510Y003064D01*
X018510Y003112D02*
X023984Y003112D01*
X023984Y003161D02*
X018510Y003161D01*
X018510Y003209D02*
X023984Y003209D01*
X023984Y003258D02*
X018510Y003258D01*
X018510Y003306D02*
X023984Y003306D01*
X023984Y003355D02*
X018510Y003355D01*
X018510Y003403D02*
X023984Y003403D01*
X023984Y003452D02*
X018510Y003452D01*
X018510Y003500D02*
X023984Y003500D01*
X023984Y003549D02*
X018510Y003549D01*
X018510Y003597D02*
X023984Y003597D01*
X023984Y003646D02*
X018510Y003646D01*
X018510Y003694D02*
X023984Y003694D01*
X023984Y003743D02*
X018510Y003743D01*
X018510Y003791D02*
X023984Y003791D01*
X023984Y003840D02*
X018510Y003840D01*
X018510Y003888D02*
X023984Y003888D01*
X023984Y003937D02*
X018510Y003937D01*
X018510Y003985D02*
X023984Y003985D01*
X023984Y004034D02*
X018510Y004034D01*
X018510Y004082D02*
X023984Y004082D01*
X023984Y004131D02*
X018510Y004131D01*
X018510Y004179D02*
X023984Y004179D01*
X023984Y004228D02*
X018510Y004228D01*
X018510Y004276D02*
X023984Y004276D01*
X023984Y004325D02*
X018510Y004325D01*
X018510Y004373D02*
X023984Y004373D01*
X023984Y004422D02*
X018510Y004422D01*
X018510Y004470D02*
X023984Y004470D01*
X023984Y004519D02*
X018510Y004519D01*
X018510Y004567D02*
X023984Y004567D01*
X023984Y004616D02*
X018510Y004616D01*
X018510Y004664D02*
X023984Y004664D01*
X023984Y004713D02*
X018510Y004713D01*
X018510Y004761D02*
X023984Y004761D01*
X023984Y004810D02*
X018510Y004810D01*
X018510Y004858D02*
X023984Y004858D01*
X023984Y004907D02*
X018510Y004907D01*
X018510Y004955D02*
X023984Y004955D01*
X023984Y005004D02*
X018510Y005004D01*
X018510Y005052D02*
X023984Y005052D01*
X023984Y005101D02*
X018510Y005101D01*
X018510Y005149D02*
X023984Y005149D01*
X023984Y005198D02*
X018510Y005198D01*
X018510Y005246D02*
X023984Y005246D01*
X023984Y005295D02*
X018510Y005295D01*
X018510Y005343D02*
X023984Y005343D01*
X023984Y005392D02*
X018510Y005392D01*
X018510Y005440D02*
X023984Y005440D01*
X023984Y005489D02*
X018510Y005489D01*
X018510Y005537D02*
X023984Y005537D01*
X023984Y005586D02*
X018510Y005586D01*
X018510Y005634D02*
X023984Y005634D01*
X023984Y005683D02*
X018510Y005683D01*
X018510Y005731D02*
X023984Y005731D01*
X023984Y005984D02*
X018510Y005984D01*
X018510Y010787D01*
X023984Y010787D01*
X023984Y005984D01*
X023984Y006022D02*
X018510Y006022D01*
X018510Y006071D02*
X023984Y006071D01*
X023984Y006119D02*
X018510Y006119D01*
X018510Y006168D02*
X023984Y006168D01*
X023984Y006216D02*
X018510Y006216D01*
X018510Y006265D02*
X023984Y006265D01*
X023984Y006313D02*
X018510Y006313D01*
X018510Y006362D02*
X023984Y006362D01*
X023984Y006410D02*
X018510Y006410D01*
X018510Y006459D02*
X023984Y006459D01*
X023984Y006507D02*
X018510Y006507D01*
X018510Y006556D02*
X023984Y006556D01*
X023984Y006604D02*
X018510Y006604D01*
X018510Y006653D02*
X023984Y006653D01*
X023984Y006701D02*
X018510Y006701D01*
X018510Y006750D02*
X023984Y006750D01*
X023984Y006798D02*
X018510Y006798D01*
X018510Y006847D02*
X023984Y006847D01*
X023984Y006895D02*
X018510Y006895D01*
X018510Y006944D02*
X023984Y006944D01*
X023984Y006992D02*
X018510Y006992D01*
X018510Y007041D02*
X023984Y007041D01*
X023984Y007089D02*
X018510Y007089D01*
X018510Y007138D02*
X023984Y007138D01*
X023984Y007186D02*
X018510Y007186D01*
X018510Y007235D02*
X023984Y007235D01*
X023984Y007283D02*
X018510Y007283D01*
X018510Y007332D02*
X023984Y007332D01*
X023984Y007380D02*
X018510Y007380D01*
X018510Y007429D02*
X023984Y007429D01*
X023984Y007477D02*
X018510Y007477D01*
X018510Y007526D02*
X023984Y007526D01*
X023984Y007574D02*
X018510Y007574D01*
X018510Y007623D02*
X023984Y007623D01*
X023984Y007671D02*
X018510Y007671D01*
X018510Y007720D02*
X023984Y007720D01*
X023984Y007768D02*
X018510Y007768D01*
X018510Y007817D02*
X023984Y007817D01*
X023984Y007865D02*
X018510Y007865D01*
X018510Y007914D02*
X023984Y007914D01*
X023984Y007962D02*
X018510Y007962D01*
X018510Y008011D02*
X023984Y008011D01*
X023984Y008059D02*
X018510Y008059D01*
X018510Y008108D02*
X023984Y008108D01*
X023984Y008156D02*
X018510Y008156D01*
X018510Y008205D02*
X023984Y008205D01*
X023984Y008253D02*
X018510Y008253D01*
X018510Y008302D02*
X023984Y008302D01*
X023984Y008350D02*
X018510Y008350D01*
X018510Y008399D02*
X023984Y008399D01*
X023984Y008447D02*
X018510Y008447D01*
X018510Y008496D02*
X023984Y008496D01*
X023984Y008544D02*
X018510Y008544D01*
X018510Y008593D02*
X023984Y008593D01*
X023984Y008641D02*
X018510Y008641D01*
X018510Y008690D02*
X023984Y008690D01*
X023984Y008738D02*
X018510Y008738D01*
X018510Y008787D02*
X023984Y008787D01*
X023984Y008835D02*
X018510Y008835D01*
X018510Y008884D02*
X023984Y008884D01*
X023984Y008932D02*
X018510Y008932D01*
X018510Y008981D02*
X023984Y008981D01*
X023984Y009029D02*
X018510Y009029D01*
X018510Y009078D02*
X023984Y009078D01*
X023984Y009126D02*
X018510Y009126D01*
X018510Y009175D02*
X023984Y009175D01*
X023984Y009223D02*
X018510Y009223D01*
X018510Y009272D02*
X023984Y009272D01*
X023984Y009320D02*
X018510Y009320D01*
X018510Y009369D02*
X023984Y009369D01*
X023984Y009417D02*
X018510Y009417D01*
X018510Y009466D02*
X023984Y009466D01*
X023984Y009514D02*
X018510Y009514D01*
X018510Y009563D02*
X023984Y009563D01*
X023984Y009611D02*
X018510Y009611D01*
X018510Y009660D02*
X023984Y009660D01*
X023984Y009708D02*
X018510Y009708D01*
X018510Y009757D02*
X023984Y009757D01*
X023984Y009805D02*
X018510Y009805D01*
X018510Y009854D02*
X023984Y009854D01*
X023984Y009902D02*
X018510Y009902D01*
X018510Y009951D02*
X023984Y009951D01*
X023984Y009999D02*
X018510Y009999D01*
X018510Y010048D02*
X023984Y010048D01*
X023984Y010096D02*
X018510Y010096D01*
X018510Y010145D02*
X023984Y010145D01*
X023984Y010193D02*
X018510Y010193D01*
X018510Y010242D02*
X023984Y010242D01*
X023984Y010290D02*
X018510Y010290D01*
X018510Y010339D02*
X023984Y010339D01*
X023984Y010387D02*
X018510Y010387D01*
X018510Y010436D02*
X023984Y010436D01*
X023984Y010484D02*
X018510Y010484D01*
X018510Y010533D02*
X023984Y010533D01*
X023984Y010581D02*
X018510Y010581D01*
X018510Y010630D02*
X023984Y010630D01*
X023984Y010678D02*
X018510Y010678D01*
X018510Y010727D02*
X023984Y010727D01*
X023984Y010775D02*
X018510Y010775D01*
D11*
X016129Y006429D03*
X015381Y006429D03*
X014442Y005309D03*
X013694Y005309D03*
X011692Y005609D03*
X010944Y005609D03*
X009992Y005109D03*
X009244Y005109D03*
X010994Y004759D03*
X011742Y004759D03*
X011742Y003909D03*
X010994Y003909D03*
D12*
X010008Y004046D03*
X009220Y004046D03*
X015384Y005641D03*
X016172Y005641D03*
D13*
X009021Y009344D03*
X009021Y010131D03*
D14*
X008955Y002909D03*
X009781Y002909D03*
X010955Y002909D03*
X011781Y002909D03*
D15*
X006918Y003309D03*
X005918Y003309D03*
X004918Y003309D03*
X004918Y002309D03*
X005918Y002309D03*
X006918Y002309D03*
D16*
X013595Y004109D03*
X014068Y004109D03*
X014540Y004109D03*
D17*
X021466Y002913D03*
X021466Y008819D03*
D18*
X015708Y001609D03*
X013228Y001609D03*
D19*
X017432Y005112D03*
X017432Y005612D03*
X017432Y006112D03*
X017432Y006612D03*
X019492Y006612D03*
X019492Y006112D03*
X019492Y005612D03*
X019492Y005112D03*
D20*
X007868Y007409D02*
X007868Y008009D01*
X006868Y008009D02*
X006868Y007409D01*
X005868Y007409D02*
X005868Y008009D01*
X004868Y008009D02*
X004868Y007409D01*
X004818Y005759D02*
X004818Y005159D01*
X005818Y005159D02*
X005818Y005759D01*
X006818Y005759D02*
X006818Y005159D01*
X006989Y009625D02*
X007589Y009625D01*
X007589Y010625D02*
X006989Y010625D01*
D21*
X012068Y010179D03*
X012378Y010179D03*
X012698Y010179D03*
X013008Y010179D03*
X013328Y010179D03*
X013638Y010179D03*
X013958Y010179D03*
X014268Y010179D03*
X014268Y006939D03*
X013958Y006939D03*
X013638Y006939D03*
X013328Y006939D03*
X013008Y006939D03*
X012698Y006939D03*
X012378Y006939D03*
X012068Y006939D03*
D22*
X011548Y007459D03*
X011548Y007769D03*
X011548Y008089D03*
X011548Y008399D03*
X011548Y008719D03*
X011548Y009029D03*
X011548Y009349D03*
X011548Y009659D03*
X014788Y009659D03*
X014788Y009349D03*
X014788Y009029D03*
X014788Y008719D03*
X014788Y008399D03*
X014788Y008089D03*
X014788Y007769D03*
X014788Y007459D03*
D23*
X015207Y007823D02*
X015207Y007922D01*
X015200Y007929D01*
X015207Y007935D01*
X015207Y008242D01*
X015205Y008244D01*
X015207Y008245D01*
X015207Y008552D01*
X015200Y008559D01*
X015207Y008565D01*
X015207Y008872D01*
X015205Y008874D01*
X015207Y008875D01*
X015207Y009150D01*
X015771Y009150D01*
X015805Y009115D01*
X015911Y009072D01*
X016025Y009072D01*
X016131Y009115D01*
X016211Y009196D01*
X016255Y009302D01*
X016255Y009416D01*
X016211Y009521D01*
X016131Y009602D01*
X016025Y009646D01*
X015911Y009646D01*
X015905Y009644D01*
X015905Y009716D01*
X015861Y009821D01*
X015833Y009850D01*
X016221Y009850D01*
X016255Y009815D01*
X016361Y009772D01*
X016475Y009772D01*
X016581Y009815D01*
X016661Y009896D01*
X016705Y010002D01*
X016705Y010116D01*
X016661Y010221D01*
X016581Y010302D01*
X016475Y010346D01*
X016361Y010346D01*
X016255Y010302D01*
X016221Y010267D01*
X014497Y010267D01*
X014497Y010522D01*
X014421Y010597D01*
X014115Y010597D01*
X014113Y010596D01*
X014111Y010597D01*
X013805Y010597D01*
X013798Y010591D01*
X013791Y010597D01*
X013485Y010597D01*
X013483Y010596D01*
X013481Y010597D01*
X013185Y010597D01*
X013177Y010602D01*
X013229Y010602D01*
X013342Y010649D01*
X013428Y010735D01*
X013475Y010848D01*
X013475Y010970D01*
X013431Y011075D01*
X017458Y011059D01*
X017458Y010626D01*
X017417Y010626D01*
X017178Y010527D01*
X016996Y010344D01*
X016897Y010105D01*
X016897Y009846D01*
X016996Y009607D01*
X017178Y009425D01*
X017417Y009326D01*
X017458Y009326D01*
X017458Y006882D01*
X017442Y006882D01*
X017442Y006622D01*
X017422Y006622D01*
X017422Y006882D01*
X016977Y006882D01*
X016939Y006872D01*
X016905Y006852D01*
X016877Y006824D01*
X016857Y006790D01*
X016847Y006752D01*
X016847Y006638D01*
X016513Y006638D01*
X016513Y006777D01*
X016438Y006853D01*
X015819Y006853D01*
X015755Y006788D01*
X015690Y006853D01*
X015569Y006853D01*
X015538Y007373D01*
X015561Y007396D01*
X015605Y007502D01*
X015605Y007616D01*
X015561Y007721D01*
X015481Y007802D01*
X015375Y007846D01*
X015261Y007846D01*
X015207Y007823D01*
X015207Y007842D02*
X015252Y007842D01*
X015207Y007941D02*
X017458Y007941D01*
X017458Y008039D02*
X015207Y008039D01*
X015207Y008138D02*
X017458Y008138D01*
X017458Y008236D02*
X015207Y008236D01*
X015207Y008335D02*
X017458Y008335D01*
X017458Y008433D02*
X015207Y008433D01*
X015207Y008532D02*
X017458Y008532D01*
X017458Y008630D02*
X015207Y008630D01*
X015207Y008729D02*
X017458Y008729D01*
X017458Y008827D02*
X015207Y008827D01*
X015207Y008926D02*
X017458Y008926D01*
X017458Y009024D02*
X015207Y009024D01*
X015207Y009123D02*
X015798Y009123D01*
X016138Y009123D02*
X017458Y009123D01*
X017458Y009221D02*
X016222Y009221D01*
X016255Y009320D02*
X017458Y009320D01*
X017194Y009418D02*
X016254Y009418D01*
X016213Y009517D02*
X017086Y009517D01*
X016992Y009615D02*
X016099Y009615D01*
X015905Y009714D02*
X016952Y009714D01*
X016911Y009812D02*
X016573Y009812D01*
X016667Y009911D02*
X016897Y009911D01*
X016897Y010009D02*
X016705Y010009D01*
X016705Y010108D02*
X016898Y010108D01*
X016939Y010206D02*
X016668Y010206D01*
X016574Y010305D02*
X016979Y010305D01*
X017055Y010403D02*
X014497Y010403D01*
X014497Y010305D02*
X016262Y010305D01*
X017154Y010502D02*
X014497Y010502D01*
X013454Y010797D02*
X017458Y010797D01*
X017458Y010699D02*
X013392Y010699D01*
X013180Y010600D02*
X017356Y010600D01*
X017458Y010896D02*
X013475Y010896D01*
X013465Y010994D02*
X017458Y010994D01*
X016262Y009812D02*
X015865Y009812D01*
X013749Y009760D02*
X013749Y009435D01*
X013581Y009267D01*
X013459Y009145D01*
X013459Y007767D01*
X013189Y007767D01*
X013124Y007780D01*
X013105Y007767D01*
X013081Y007767D01*
X013035Y007721D01*
X012957Y007669D01*
X012935Y007669D01*
X012887Y007622D01*
X012830Y007584D01*
X012826Y007564D01*
X012811Y007549D01*
X012810Y007481D01*
X012796Y007415D01*
X012808Y007397D01*
X012808Y007379D01*
X012698Y007379D01*
X012698Y006939D01*
X012698Y006939D01*
X012698Y007379D01*
X012578Y007379D01*
X012540Y007369D01*
X012521Y007357D01*
X012225Y007357D01*
X012223Y007356D01*
X012221Y007357D01*
X011967Y007357D01*
X011967Y007612D01*
X011965Y007614D01*
X011967Y007615D01*
X011967Y007922D01*
X011960Y007929D01*
X011967Y007935D01*
X011967Y008242D01*
X011965Y008244D01*
X011967Y008245D01*
X011967Y008510D01*
X012221Y008510D01*
X012281Y008451D01*
X012281Y008402D01*
X012324Y008296D01*
X012405Y008215D01*
X012511Y008172D01*
X012625Y008172D01*
X012731Y008215D01*
X012811Y008296D01*
X012855Y008402D01*
X012855Y008516D01*
X012811Y008621D01*
X012731Y008702D01*
X012625Y008746D01*
X012576Y008746D01*
X012517Y008805D01*
X012394Y008927D01*
X011967Y008927D01*
X011967Y009182D01*
X011960Y009189D01*
X011967Y009195D01*
X011967Y009502D01*
X011965Y009504D01*
X011967Y009505D01*
X011967Y009760D01*
X012221Y009760D01*
X012223Y009762D01*
X012225Y009760D01*
X012531Y009760D01*
X012538Y009767D01*
X012545Y009760D01*
X012831Y009760D01*
X012850Y009749D01*
X012888Y009739D01*
X013008Y009739D01*
X013128Y009739D01*
X013166Y009749D01*
X013185Y009760D01*
X013481Y009760D01*
X013483Y009762D01*
X013485Y009760D01*
X013749Y009760D01*
X013749Y009714D02*
X011967Y009714D01*
X011967Y009615D02*
X013749Y009615D01*
X013749Y009517D02*
X011967Y009517D01*
X011967Y009418D02*
X013732Y009418D01*
X013634Y009320D02*
X011967Y009320D01*
X011967Y009221D02*
X013535Y009221D01*
X013581Y009267D02*
X013581Y009267D01*
X013459Y009123D02*
X011967Y009123D01*
X011967Y009024D02*
X013459Y009024D01*
X013459Y008926D02*
X012396Y008926D01*
X012495Y008827D02*
X013459Y008827D01*
X013459Y008729D02*
X012666Y008729D01*
X012802Y008630D02*
X013459Y008630D01*
X013459Y008532D02*
X012848Y008532D01*
X012855Y008433D02*
X013459Y008433D01*
X013459Y008335D02*
X012827Y008335D01*
X012752Y008236D02*
X013459Y008236D01*
X013459Y008138D02*
X011967Y008138D01*
X011967Y008236D02*
X012384Y008236D01*
X012308Y008335D02*
X011967Y008335D01*
X011967Y008433D02*
X012281Y008433D01*
X011967Y008039D02*
X013459Y008039D01*
X013459Y007941D02*
X011967Y007941D01*
X011967Y007842D02*
X013459Y007842D01*
X013058Y007744D02*
X011967Y007744D01*
X011967Y007645D02*
X012911Y007645D01*
X012811Y007547D02*
X011967Y007547D01*
X011967Y007448D02*
X012803Y007448D01*
X012698Y007350D02*
X012698Y007350D01*
X012698Y007251D02*
X012698Y007251D01*
X012698Y007153D02*
X012698Y007153D01*
X012698Y007054D02*
X012698Y007054D01*
X012698Y006956D02*
X012698Y006956D01*
X013328Y006939D02*
X013328Y006939D01*
X013328Y006499D01*
X013448Y006499D01*
X013486Y006509D01*
X013505Y006520D01*
X013759Y006520D01*
X013759Y006395D01*
X013485Y006121D01*
X013485Y005733D01*
X013385Y005733D01*
X013309Y005657D01*
X013309Y004960D01*
X013385Y004885D01*
X013387Y004885D01*
X013387Y004554D01*
X013329Y004497D01*
X013329Y003721D01*
X013404Y003645D01*
X013787Y003645D01*
X013817Y003675D01*
X013838Y003654D01*
X013872Y003634D01*
X013910Y003624D01*
X014049Y003624D01*
X014049Y004090D01*
X014087Y004090D01*
X014087Y003624D01*
X014225Y003624D01*
X014264Y003634D01*
X014298Y003654D01*
X014319Y003675D01*
X014349Y003645D01*
X014731Y003645D01*
X014807Y003721D01*
X014807Y003875D01*
X015209Y003472D01*
X015331Y003350D01*
X016081Y003350D01*
X016959Y002472D01*
X016959Y002145D01*
X016331Y001517D01*
X016311Y001497D01*
X016311Y001559D01*
X015758Y001559D01*
X015758Y001659D01*
X015658Y001659D01*
X015658Y002074D01*
X015236Y002074D01*
X015197Y002063D01*
X015163Y002044D01*
X015135Y002016D01*
X015116Y001982D01*
X015105Y001943D01*
X015105Y001659D01*
X015658Y001659D01*
X015658Y001559D01*
X015105Y001559D01*
X015105Y001274D01*
X015116Y001236D01*
X015135Y001202D01*
X015163Y001174D01*
X015197Y001154D01*
X015236Y001144D01*
X015658Y001144D01*
X015658Y001559D01*
X015758Y001559D01*
X015758Y001144D01*
X016181Y001144D01*
X016209Y001151D01*
X016209Y001095D01*
X016081Y000967D01*
X014131Y000967D01*
X014031Y000867D01*
X007841Y000867D01*
X007855Y000902D01*
X007855Y001016D01*
X007811Y001121D01*
X007731Y001202D01*
X007625Y001246D01*
X007576Y001246D01*
X007377Y001445D01*
X007254Y001567D01*
X006633Y001567D01*
X006342Y002028D01*
X006417Y002102D01*
X006417Y002515D01*
X006124Y002807D01*
X005711Y002807D01*
X005433Y002529D01*
X005138Y002824D01*
X005417Y003102D01*
X005417Y003515D01*
X005243Y003689D01*
X005352Y003883D01*
X005431Y003915D01*
X005511Y003996D01*
X005555Y004102D01*
X005555Y004216D01*
X005541Y004250D01*
X006002Y004250D01*
X006008Y004235D01*
X006094Y004149D01*
X006207Y004102D01*
X006329Y004102D01*
X006442Y004149D01*
X006528Y004235D01*
X006575Y004348D01*
X006575Y004470D01*
X006550Y004530D01*
X006826Y004530D01*
X006881Y004502D01*
X006924Y004396D01*
X007005Y004315D01*
X007111Y004272D01*
X007225Y004272D01*
X007331Y004315D01*
X007411Y004396D01*
X007455Y004502D01*
X007455Y004599D01*
X008074Y005450D01*
X008831Y005450D01*
X008859Y005422D01*
X008859Y004760D01*
X008935Y004685D01*
X009553Y004685D01*
X009618Y004749D01*
X009683Y004685D01*
X010259Y004685D01*
X010259Y004511D01*
X010058Y004511D01*
X010058Y004096D01*
X010259Y004096D01*
X010259Y003996D01*
X010058Y003996D01*
X010058Y004096D01*
X009958Y004096D01*
X009958Y004511D01*
X009732Y004511D01*
X009694Y004501D01*
X009660Y004481D01*
X009632Y004453D01*
X009612Y004419D01*
X009605Y004393D01*
X009605Y004414D01*
X009530Y004490D01*
X008911Y004490D01*
X008836Y004414D01*
X008836Y004297D01*
X008831Y004302D01*
X008725Y004346D01*
X008611Y004346D01*
X008505Y004302D01*
X008424Y004221D01*
X008381Y004116D01*
X008381Y004002D01*
X008424Y003896D01*
X008505Y003815D01*
X008593Y003779D01*
X008581Y003767D01*
X008331Y003767D01*
X008260Y003696D01*
X008211Y003696D01*
X008105Y003652D01*
X008024Y003571D01*
X007981Y003466D01*
X007981Y003352D01*
X008024Y003246D01*
X008105Y003165D01*
X008211Y003122D01*
X008325Y003122D01*
X008431Y003165D01*
X008511Y003246D01*
X008554Y003350D01*
X008754Y003350D01*
X009007Y003602D01*
X009530Y003602D01*
X009605Y003678D01*
X009605Y003700D01*
X009612Y003673D01*
X009632Y003639D01*
X009660Y003611D01*
X009694Y003591D01*
X009732Y003581D01*
X009958Y003581D01*
X009958Y003996D01*
X010058Y003996D01*
X010058Y003581D01*
X010159Y003581D01*
X009851Y003274D01*
X009492Y003274D01*
X009416Y003198D01*
X009416Y002619D01*
X009492Y002544D01*
X010071Y002544D01*
X010146Y002619D01*
X010146Y002978D01*
X010359Y003191D01*
X010359Y001756D01*
X010324Y001721D01*
X010281Y001616D01*
X010281Y001502D01*
X010295Y001467D01*
X008764Y001467D01*
X007391Y003076D01*
X007417Y003102D01*
X007417Y003515D01*
X007124Y003807D01*
X006711Y003807D01*
X006419Y003515D01*
X006419Y003102D01*
X006711Y002810D01*
X007069Y002810D01*
X007071Y002807D01*
X006711Y002807D01*
X006419Y002515D01*
X006419Y002102D01*
X006711Y001810D01*
X007124Y001810D01*
X007417Y002102D01*
X007417Y002403D01*
X008459Y001182D01*
X008459Y001172D01*
X008514Y001117D01*
X008565Y001057D01*
X008575Y001057D01*
X008581Y001050D01*
X008660Y001050D01*
X008738Y001044D01*
X008745Y001050D01*
X012221Y001050D01*
X012255Y001015D01*
X012361Y000972D01*
X012475Y000972D01*
X012581Y001015D01*
X012661Y001096D01*
X012699Y001187D01*
X012722Y001165D01*
X013734Y001165D01*
X013809Y001240D01*
X013809Y001977D01*
X013734Y002052D01*
X013377Y002052D01*
X013377Y003145D01*
X012877Y003645D01*
X012877Y005389D01*
X012887Y005403D01*
X012877Y005474D01*
X012877Y005545D01*
X012865Y005557D01*
X012862Y005574D01*
X012805Y005617D01*
X012754Y005667D01*
X012737Y005667D01*
X012605Y005767D01*
X012554Y005817D01*
X012537Y005817D01*
X012524Y005828D01*
X012453Y005817D01*
X012333Y005817D01*
X012361Y005846D01*
X012405Y005952D01*
X012405Y006066D01*
X012391Y006100D01*
X012804Y006100D01*
X013094Y006390D01*
X013204Y006500D01*
X013208Y006499D01*
X013328Y006499D01*
X013328Y006939D01*
X013328Y006857D02*
X013328Y006857D01*
X013328Y006759D02*
X013328Y006759D01*
X013328Y006660D02*
X013328Y006660D01*
X013328Y006562D02*
X013328Y006562D01*
X013168Y006463D02*
X013759Y006463D01*
X013729Y006365D02*
X013069Y006365D01*
X012971Y006266D02*
X013630Y006266D01*
X013532Y006168D02*
X012872Y006168D01*
X012404Y006069D02*
X013485Y006069D01*
X013485Y005971D02*
X012405Y005971D01*
X012372Y005872D02*
X013485Y005872D01*
X013485Y005774D02*
X012598Y005774D01*
X012727Y005675D02*
X013327Y005675D01*
X013309Y005577D02*
X012858Y005577D01*
X012877Y005478D02*
X013309Y005478D01*
X013309Y005380D02*
X012877Y005380D01*
X012877Y005281D02*
X013309Y005281D01*
X013309Y005183D02*
X012877Y005183D01*
X012877Y005084D02*
X013309Y005084D01*
X013309Y004986D02*
X012877Y004986D01*
X012877Y004887D02*
X013382Y004887D01*
X013387Y004789D02*
X012877Y004789D01*
X012877Y004690D02*
X013387Y004690D01*
X013387Y004592D02*
X012877Y004592D01*
X012877Y004493D02*
X013329Y004493D01*
X013329Y004395D02*
X012877Y004395D01*
X012877Y004296D02*
X013329Y004296D01*
X013329Y004198D02*
X012877Y004198D01*
X012877Y004099D02*
X013329Y004099D01*
X013329Y004001D02*
X012877Y004001D01*
X012877Y003902D02*
X013329Y003902D01*
X013329Y003804D02*
X012877Y003804D01*
X012877Y003705D02*
X013344Y003705D01*
X013014Y003508D02*
X015173Y003508D01*
X015272Y003410D02*
X013112Y003410D01*
X013211Y003311D02*
X016120Y003311D01*
X016219Y003213D02*
X013309Y003213D01*
X013377Y003114D02*
X016317Y003114D01*
X016416Y003016D02*
X013377Y003016D01*
X013377Y002917D02*
X016514Y002917D01*
X016613Y002819D02*
X013377Y002819D01*
X013377Y002720D02*
X016711Y002720D01*
X016810Y002622D02*
X013377Y002622D01*
X013377Y002523D02*
X016908Y002523D01*
X016959Y002425D02*
X013377Y002425D01*
X013377Y002326D02*
X016959Y002326D01*
X016959Y002228D02*
X013377Y002228D01*
X013377Y002129D02*
X016943Y002129D01*
X016845Y002031D02*
X016266Y002031D01*
X016253Y002044D02*
X016219Y002063D01*
X016181Y002074D01*
X015758Y002074D01*
X015758Y001659D01*
X016311Y001659D01*
X016311Y001943D01*
X016301Y001982D01*
X016281Y002016D01*
X016253Y002044D01*
X016311Y001932D02*
X016746Y001932D01*
X016648Y001834D02*
X016311Y001834D01*
X016311Y001735D02*
X016549Y001735D01*
X016451Y001637D02*
X015758Y001637D01*
X015758Y001735D02*
X015658Y001735D01*
X015658Y001637D02*
X013809Y001637D01*
X013809Y001735D02*
X015105Y001735D01*
X015105Y001834D02*
X013809Y001834D01*
X013809Y001932D02*
X015105Y001932D01*
X015150Y002031D02*
X013755Y002031D01*
X012959Y002052D02*
X012722Y002052D01*
X012646Y001977D01*
X012646Y001436D01*
X012581Y001502D01*
X012475Y001546D01*
X012361Y001546D01*
X012255Y001502D01*
X012221Y001467D01*
X010841Y001467D01*
X010855Y001502D01*
X010855Y001616D01*
X010811Y001721D01*
X010777Y001756D01*
X010777Y002523D01*
X010905Y002523D01*
X011005Y002523D01*
X011210Y002523D01*
X011249Y002533D01*
X011283Y002552D01*
X011311Y002580D01*
X011331Y002615D01*
X011341Y002653D01*
X011341Y002859D01*
X011005Y002859D01*
X011005Y002959D01*
X011341Y002959D01*
X011341Y003165D01*
X011331Y003203D01*
X011311Y003237D01*
X011283Y003265D01*
X011249Y003285D01*
X011210Y003295D01*
X011005Y003295D01*
X011005Y002959D01*
X010905Y002959D01*
X010905Y003295D01*
X010829Y003295D01*
X010958Y003485D01*
X011303Y003485D01*
X011368Y003549D01*
X011433Y003485D01*
X011573Y003485D01*
X011573Y003274D01*
X011492Y003274D01*
X011416Y003198D01*
X011416Y002619D01*
X011492Y002544D01*
X012071Y002544D01*
X012146Y002619D01*
X012146Y003198D01*
X012071Y003274D01*
X011990Y003274D01*
X011990Y003485D01*
X012051Y003485D01*
X012127Y003560D01*
X012127Y004257D01*
X012051Y004333D01*
X011433Y004333D01*
X011368Y004268D01*
X011303Y004333D01*
X011203Y004333D01*
X011203Y004335D01*
X011303Y004335D01*
X011368Y004399D01*
X011433Y004335D01*
X012051Y004335D01*
X012127Y004410D01*
X012127Y004506D01*
X012211Y004472D01*
X012325Y004472D01*
X012431Y004515D01*
X012459Y004544D01*
X012459Y003472D01*
X012581Y003350D01*
X012959Y002972D01*
X012959Y002052D01*
X012959Y002129D02*
X010777Y002129D01*
X010777Y002031D02*
X012700Y002031D01*
X012646Y001932D02*
X010777Y001932D01*
X010777Y001834D02*
X012646Y001834D01*
X012646Y001735D02*
X010797Y001735D01*
X010846Y001637D02*
X012646Y001637D01*
X012646Y001538D02*
X012493Y001538D01*
X012342Y001538D02*
X010855Y001538D01*
X010338Y001735D02*
X008536Y001735D01*
X008620Y001637D02*
X010289Y001637D01*
X010281Y001538D02*
X008704Y001538D01*
X008451Y001834D02*
X010359Y001834D01*
X010359Y001932D02*
X008367Y001932D01*
X008283Y002031D02*
X010359Y002031D01*
X010359Y002129D02*
X008199Y002129D01*
X008115Y002228D02*
X010359Y002228D01*
X010359Y002326D02*
X008031Y002326D01*
X007947Y002425D02*
X010359Y002425D01*
X010359Y002523D02*
X009213Y002523D01*
X009210Y002523D02*
X009249Y002533D01*
X009283Y002552D01*
X009311Y002580D01*
X009331Y002615D01*
X009341Y002653D01*
X009341Y002859D01*
X009005Y002859D01*
X009005Y002959D01*
X009341Y002959D01*
X009341Y003165D01*
X009331Y003203D01*
X009311Y003237D01*
X009283Y003265D01*
X009249Y003285D01*
X009210Y003295D01*
X009005Y003295D01*
X009005Y002959D01*
X008905Y002959D01*
X008905Y003295D01*
X008699Y003295D01*
X008660Y003285D01*
X008626Y003265D01*
X008598Y003237D01*
X008579Y003203D01*
X008568Y003165D01*
X008568Y002959D01*
X008905Y002959D01*
X008905Y002859D01*
X009005Y002859D01*
X009005Y002523D01*
X008905Y002523D01*
X008905Y002859D01*
X008568Y002859D01*
X008568Y002653D01*
X008579Y002615D01*
X008598Y002580D01*
X008626Y002552D01*
X008660Y002533D01*
X008699Y002523D01*
X008905Y002523D01*
X008905Y002622D02*
X009005Y002622D01*
X009005Y002720D02*
X008905Y002720D01*
X008905Y002819D02*
X009005Y002819D01*
X009005Y002917D02*
X009416Y002917D01*
X009416Y002819D02*
X009341Y002819D01*
X009341Y002720D02*
X009416Y002720D01*
X009416Y002622D02*
X009332Y002622D01*
X009210Y002523D02*
X009005Y002523D01*
X008696Y002523D02*
X007863Y002523D01*
X007779Y002622D02*
X008577Y002622D01*
X008568Y002720D02*
X007695Y002720D01*
X007611Y002819D02*
X008568Y002819D01*
X008905Y002917D02*
X007527Y002917D01*
X007442Y003016D02*
X008568Y003016D01*
X008568Y003114D02*
X007417Y003114D01*
X007417Y003213D02*
X008058Y003213D01*
X007997Y003311D02*
X007417Y003311D01*
X007417Y003410D02*
X007981Y003410D01*
X007998Y003508D02*
X007417Y003508D01*
X007325Y003607D02*
X008060Y003607D01*
X008269Y003705D02*
X007227Y003705D01*
X007128Y003804D02*
X008533Y003804D01*
X008422Y003902D02*
X005399Y003902D01*
X005308Y003804D02*
X005708Y003804D01*
X005711Y003807D02*
X005419Y003515D01*
X005419Y003102D01*
X005711Y002810D01*
X006124Y002810D01*
X006417Y003102D01*
X006417Y003515D01*
X006124Y003807D01*
X005711Y003807D01*
X005609Y003705D02*
X005252Y003705D01*
X005325Y003607D02*
X005511Y003607D01*
X005419Y003508D02*
X005417Y003508D01*
X005417Y003410D02*
X005419Y003410D01*
X005417Y003311D02*
X005419Y003311D01*
X005417Y003213D02*
X005419Y003213D01*
X005417Y003114D02*
X005419Y003114D01*
X005506Y003016D02*
X005330Y003016D01*
X005232Y002917D02*
X005604Y002917D01*
X005703Y002819D02*
X005143Y002819D01*
X005242Y002720D02*
X005624Y002720D01*
X005526Y002622D02*
X005340Y002622D01*
X004968Y002259D02*
X004968Y001789D01*
X005133Y001789D01*
X005433Y002088D01*
X005711Y001810D01*
X005986Y001810D01*
X006309Y001298D01*
X006309Y001272D01*
X006354Y001228D01*
X006388Y001174D01*
X006413Y001168D01*
X006431Y001150D01*
X006495Y001150D01*
X006556Y001136D01*
X006578Y001150D01*
X007081Y001150D01*
X007281Y000951D01*
X007281Y000902D01*
X007295Y000867D01*
X005354Y000867D01*
X004377Y001845D01*
X004377Y003722D01*
X004904Y004250D01*
X004995Y004250D01*
X004981Y004216D01*
X004981Y004102D01*
X004987Y004086D01*
X004831Y003807D01*
X004711Y003807D01*
X004419Y003515D01*
X004419Y003102D01*
X004698Y002824D01*
X004398Y002524D01*
X004398Y002359D01*
X004868Y002359D01*
X004868Y002259D01*
X004398Y002259D01*
X004398Y002093D01*
X004703Y001789D01*
X004868Y001789D01*
X004868Y002259D01*
X004968Y002259D01*
X004968Y002228D02*
X004868Y002228D01*
X004868Y002326D02*
X004377Y002326D01*
X004377Y002228D02*
X004398Y002228D01*
X004398Y002129D02*
X004377Y002129D01*
X004377Y002031D02*
X004460Y002031D01*
X004377Y001932D02*
X004559Y001932D01*
X004657Y001834D02*
X004388Y001834D01*
X004487Y001735D02*
X006033Y001735D01*
X006095Y001637D02*
X004585Y001637D01*
X004684Y001538D02*
X006158Y001538D01*
X006220Y001440D02*
X004782Y001440D01*
X004881Y001341D02*
X006282Y001341D01*
X006339Y001243D02*
X004979Y001243D01*
X005078Y001144D02*
X006520Y001144D01*
X006569Y001144D02*
X007087Y001144D01*
X007186Y001046D02*
X005176Y001046D01*
X005275Y000947D02*
X007281Y000947D01*
X007633Y001243D02*
X008407Y001243D01*
X008487Y001144D02*
X007788Y001144D01*
X007843Y001046D02*
X008713Y001046D01*
X008740Y001046D02*
X012225Y001046D01*
X012611Y001046D02*
X016160Y001046D01*
X016182Y001144D02*
X016209Y001144D01*
X015758Y001144D02*
X015658Y001144D01*
X015658Y001243D02*
X015758Y001243D01*
X015758Y001341D02*
X015658Y001341D01*
X015658Y001440D02*
X015758Y001440D01*
X015758Y001538D02*
X015658Y001538D01*
X015658Y001834D02*
X015758Y001834D01*
X015758Y001932D02*
X015658Y001932D01*
X015658Y002031D02*
X015758Y002031D01*
X016311Y001538D02*
X016352Y001538D01*
X015234Y001144D02*
X012681Y001144D01*
X012643Y001440D02*
X012646Y001440D01*
X013809Y001440D02*
X015105Y001440D01*
X015105Y001538D02*
X013809Y001538D01*
X013809Y001341D02*
X015105Y001341D01*
X015114Y001243D02*
X013809Y001243D01*
X014111Y000947D02*
X007855Y000947D01*
X007481Y001341D02*
X008323Y001341D01*
X008239Y001440D02*
X007382Y001440D01*
X007284Y001538D02*
X008155Y001538D01*
X008071Y001637D02*
X006589Y001637D01*
X006527Y001735D02*
X007987Y001735D01*
X007903Y001834D02*
X007148Y001834D01*
X007247Y001932D02*
X007818Y001932D01*
X007734Y002031D02*
X007345Y002031D01*
X007417Y002129D02*
X007650Y002129D01*
X007566Y002228D02*
X007417Y002228D01*
X007417Y002326D02*
X007482Y002326D01*
X006589Y001932D02*
X006403Y001932D01*
X006345Y002031D02*
X006491Y002031D01*
X006419Y002129D02*
X006417Y002129D01*
X006417Y002228D02*
X006419Y002228D01*
X006417Y002326D02*
X006419Y002326D01*
X006417Y002425D02*
X006419Y002425D01*
X006409Y002523D02*
X006427Y002523D01*
X006526Y002622D02*
X006310Y002622D01*
X006212Y002720D02*
X006624Y002720D01*
X006703Y002819D02*
X006133Y002819D01*
X006232Y002917D02*
X006604Y002917D01*
X006506Y003016D02*
X006330Y003016D01*
X006417Y003114D02*
X006419Y003114D01*
X006417Y003213D02*
X006419Y003213D01*
X006417Y003311D02*
X006419Y003311D01*
X006417Y003410D02*
X006419Y003410D01*
X006417Y003508D02*
X006419Y003508D01*
X006511Y003607D02*
X006325Y003607D01*
X006227Y003705D02*
X006609Y003705D01*
X006708Y003804D02*
X006128Y003804D01*
X006045Y004198D02*
X005555Y004198D01*
X005554Y004099D02*
X008381Y004099D01*
X008381Y004001D02*
X005513Y004001D01*
X004982Y004099D02*
X004754Y004099D01*
X004852Y004198D02*
X004981Y004198D01*
X004940Y004001D02*
X004655Y004001D01*
X004557Y003902D02*
X004884Y003902D01*
X004708Y003804D02*
X004458Y003804D01*
X004377Y003705D02*
X004609Y003705D01*
X004511Y003607D02*
X004377Y003607D01*
X004377Y003508D02*
X004419Y003508D01*
X004419Y003410D02*
X004377Y003410D01*
X004377Y003311D02*
X004419Y003311D01*
X004419Y003213D02*
X004377Y003213D01*
X004377Y003114D02*
X004419Y003114D01*
X004377Y003016D02*
X004506Y003016D01*
X004604Y002917D02*
X004377Y002917D01*
X004377Y002819D02*
X004693Y002819D01*
X004594Y002720D02*
X004377Y002720D01*
X004377Y002622D02*
X004496Y002622D01*
X004398Y002523D02*
X004377Y002523D01*
X004377Y002425D02*
X004398Y002425D01*
X004868Y002129D02*
X004968Y002129D01*
X004968Y002031D02*
X004868Y002031D01*
X004868Y001932D02*
X004968Y001932D01*
X004968Y001834D02*
X004868Y001834D01*
X005178Y001834D02*
X005688Y001834D01*
X005589Y001932D02*
X005277Y001932D01*
X005375Y002031D02*
X005491Y002031D01*
X006465Y001834D02*
X006688Y001834D01*
X008905Y003016D02*
X009005Y003016D01*
X009005Y003114D02*
X008905Y003114D01*
X008905Y003213D02*
X009005Y003213D01*
X008814Y003410D02*
X009987Y003410D01*
X009868Y003459D02*
X009868Y003906D01*
X010008Y004046D01*
X010231Y004046D01*
X010259Y004001D02*
X010058Y004001D01*
X010058Y004099D02*
X009958Y004099D01*
X009958Y004096D02*
X009958Y003996D01*
X009605Y003996D01*
X009605Y004096D01*
X009958Y004096D01*
X009958Y004001D02*
X009605Y004001D01*
X009958Y003902D02*
X010058Y003902D01*
X010058Y003804D02*
X009958Y003804D01*
X009958Y003705D02*
X010058Y003705D01*
X010058Y003607D02*
X009958Y003607D01*
X010086Y003508D02*
X008913Y003508D01*
X008538Y003311D02*
X009889Y003311D01*
X009667Y003607D02*
X009534Y003607D01*
X009431Y003213D02*
X009325Y003213D01*
X009341Y003114D02*
X009416Y003114D01*
X009416Y003016D02*
X009341Y003016D01*
X008584Y003213D02*
X008478Y003213D01*
X010146Y002917D02*
X010359Y002917D01*
X010359Y002819D02*
X010146Y002819D01*
X010146Y002720D02*
X010359Y002720D01*
X010359Y002622D02*
X010146Y002622D01*
X010184Y003016D02*
X010359Y003016D01*
X010359Y003114D02*
X010282Y003114D01*
X010840Y003311D02*
X011573Y003311D01*
X011573Y003410D02*
X010907Y003410D01*
X010905Y003213D02*
X011005Y003213D01*
X011005Y003114D02*
X010905Y003114D01*
X010905Y003016D02*
X011005Y003016D01*
X011005Y002917D02*
X011416Y002917D01*
X011416Y002819D02*
X011341Y002819D01*
X011341Y002720D02*
X011416Y002720D01*
X011416Y002622D02*
X011332Y002622D01*
X011213Y002523D02*
X012959Y002523D01*
X012959Y002425D02*
X010777Y002425D01*
X010777Y002326D02*
X012959Y002326D01*
X012959Y002228D02*
X010777Y002228D01*
X010968Y002159D02*
X010918Y002059D01*
X010968Y002159D02*
X010968Y002459D01*
X010955Y002472D01*
X010955Y002909D01*
X010955Y002422D01*
X011318Y002059D01*
X012168Y002059D01*
X012668Y002509D01*
X012959Y002622D02*
X012146Y002622D01*
X012146Y002720D02*
X012959Y002720D01*
X012959Y002819D02*
X012146Y002819D01*
X012146Y002917D02*
X012959Y002917D01*
X012916Y003016D02*
X012146Y003016D01*
X012146Y003114D02*
X012817Y003114D01*
X012719Y003213D02*
X012132Y003213D01*
X011990Y003311D02*
X012620Y003311D01*
X012522Y003410D02*
X011990Y003410D01*
X012075Y003508D02*
X012459Y003508D01*
X012459Y003607D02*
X012127Y003607D01*
X012127Y003705D02*
X012459Y003705D01*
X012459Y003804D02*
X012127Y003804D01*
X012127Y003902D02*
X012459Y003902D01*
X012459Y004001D02*
X012127Y004001D01*
X012127Y004099D02*
X012459Y004099D01*
X012459Y004198D02*
X012127Y004198D01*
X012088Y004296D02*
X012459Y004296D01*
X012459Y004395D02*
X012111Y004395D01*
X012127Y004493D02*
X012158Y004493D01*
X012377Y004493D02*
X012459Y004493D01*
X011396Y004296D02*
X011340Y004296D01*
X011363Y004395D02*
X011373Y004395D01*
X010259Y004592D02*
X007455Y004592D01*
X007452Y004493D02*
X009681Y004493D01*
X009606Y004395D02*
X009605Y004395D01*
X009559Y004690D02*
X009677Y004690D01*
X009958Y004493D02*
X010058Y004493D01*
X010058Y004395D02*
X009958Y004395D01*
X009958Y004296D02*
X010058Y004296D01*
X010058Y004198D02*
X009958Y004198D01*
X008836Y004395D02*
X007410Y004395D01*
X007285Y004296D02*
X008499Y004296D01*
X008415Y004198D02*
X006491Y004198D01*
X006553Y004296D02*
X007051Y004296D01*
X006926Y004395D02*
X006575Y004395D01*
X006565Y004493D02*
X006884Y004493D01*
X006881Y004502D02*
X006881Y004502D01*
X006868Y004709D02*
X007168Y004559D01*
X006868Y004709D02*
X004718Y004709D01*
X004168Y004409D01*
X004389Y005809D02*
X004377Y005813D01*
X004377Y006134D01*
X004428Y006185D01*
X004475Y006298D01*
X004475Y006420D01*
X004428Y006533D01*
X004342Y006619D01*
X004229Y006666D01*
X004107Y006666D01*
X004018Y006629D01*
X004018Y008050D01*
X004068Y010631D01*
X004099Y010727D01*
X004145Y010818D01*
X004204Y010900D01*
X004276Y010971D01*
X004358Y011031D01*
X004448Y011077D01*
X004544Y011108D01*
X004644Y011124D01*
X004746Y011124D01*
X004846Y011109D01*
X012492Y011078D01*
X012318Y010904D01*
X012311Y010921D01*
X012231Y011002D01*
X012125Y011046D01*
X012011Y011046D01*
X011905Y011002D01*
X011824Y010921D01*
X011781Y010816D01*
X011781Y010702D01*
X011824Y010596D01*
X011859Y010561D01*
X011859Y010542D01*
X011839Y010522D01*
X011839Y009887D01*
X011205Y009887D01*
X011185Y009867D01*
X010981Y009867D01*
X010681Y009567D01*
X010559Y009445D01*
X010559Y009273D01*
X010160Y009019D01*
X009464Y009036D01*
X009464Y009227D01*
X009527Y009241D01*
X009534Y009234D01*
X009647Y009187D01*
X009769Y009187D01*
X009882Y009234D01*
X009968Y009320D01*
X010015Y009433D01*
X010015Y009555D01*
X009968Y009668D01*
X009882Y009754D01*
X009769Y009801D01*
X009647Y009801D01*
X009534Y009754D01*
X009449Y009669D01*
X009389Y009728D01*
X009367Y009728D01*
X009394Y009735D01*
X009428Y009755D01*
X009456Y009783D01*
X009475Y009817D01*
X009486Y009856D01*
X009486Y010081D01*
X009071Y010081D01*
X009071Y010181D01*
X009486Y010181D01*
X009486Y010407D01*
X009475Y010445D01*
X009456Y010479D01*
X009428Y010507D01*
X009394Y010527D01*
X009355Y010537D01*
X009071Y010537D01*
X009071Y010181D01*
X008971Y010181D01*
X008971Y010537D01*
X008686Y010537D01*
X008648Y010527D01*
X008614Y010507D01*
X008586Y010479D01*
X008566Y010445D01*
X008556Y010407D01*
X008556Y010181D01*
X008971Y010181D01*
X008971Y010081D01*
X008556Y010081D01*
X008556Y009856D01*
X008566Y009817D01*
X008586Y009783D01*
X008614Y009755D01*
X008648Y009735D01*
X008674Y009728D01*
X008652Y009728D01*
X008577Y009653D01*
X008577Y009650D01*
X007899Y010328D01*
X007953Y010382D01*
X008018Y010540D01*
X008018Y010710D01*
X007953Y010868D01*
X007832Y010988D01*
X007674Y011054D01*
X006904Y011054D01*
X006746Y010988D01*
X006626Y010868D01*
X006560Y010710D01*
X006560Y010667D01*
X006401Y010667D01*
X006399Y010670D01*
X006315Y010667D01*
X006231Y010667D01*
X006229Y010665D01*
X006226Y010665D01*
X006168Y010604D01*
X006109Y010545D01*
X006109Y010542D01*
X005218Y009604D01*
X005159Y009545D01*
X005159Y009542D01*
X005157Y009540D01*
X005159Y009456D01*
X005159Y008324D01*
X005111Y008372D01*
X004953Y008437D01*
X004783Y008437D01*
X004625Y008372D01*
X004577Y008324D01*
X004577Y009072D01*
X004756Y009252D01*
X004829Y009252D01*
X004942Y009299D01*
X005028Y009385D01*
X005075Y009498D01*
X005075Y009620D01*
X005028Y009733D01*
X004942Y009819D01*
X004829Y009866D01*
X004707Y009866D01*
X004594Y009819D01*
X004508Y009733D01*
X004461Y009620D01*
X004461Y009547D01*
X004281Y009367D01*
X004159Y009245D01*
X004159Y006972D01*
X004859Y006272D01*
X004859Y006187D01*
X004733Y006187D01*
X004575Y006122D01*
X004454Y006002D01*
X004389Y005844D01*
X004389Y005809D01*
X004377Y005872D02*
X004401Y005872D01*
X004377Y005971D02*
X004442Y005971D01*
X004377Y006069D02*
X004522Y006069D01*
X004411Y006168D02*
X004685Y006168D01*
X004859Y006266D02*
X004462Y006266D01*
X004475Y006365D02*
X004767Y006365D01*
X004668Y006463D02*
X004457Y006463D01*
X004399Y006562D02*
X004570Y006562D01*
X004471Y006660D02*
X004242Y006660D01*
X004094Y006660D02*
X004018Y006660D01*
X004018Y006759D02*
X004373Y006759D01*
X004274Y006857D02*
X004018Y006857D01*
X004018Y006956D02*
X004176Y006956D01*
X004159Y007054D02*
X004018Y007054D01*
X004018Y007153D02*
X004159Y007153D01*
X004159Y007251D02*
X004018Y007251D01*
X004018Y007350D02*
X004159Y007350D01*
X004159Y007448D02*
X004018Y007448D01*
X004018Y007547D02*
X004159Y007547D01*
X004159Y007645D02*
X004018Y007645D01*
X004018Y007744D02*
X004159Y007744D01*
X004159Y007842D02*
X004018Y007842D01*
X004018Y007941D02*
X004159Y007941D01*
X004159Y008039D02*
X004018Y008039D01*
X004020Y008138D02*
X004159Y008138D01*
X004159Y008236D02*
X004022Y008236D01*
X004023Y008335D02*
X004159Y008335D01*
X004159Y008433D02*
X004025Y008433D01*
X004027Y008532D02*
X004159Y008532D01*
X004159Y008630D02*
X004029Y008630D01*
X004031Y008729D02*
X004159Y008729D01*
X004159Y008827D02*
X004033Y008827D01*
X004035Y008926D02*
X004159Y008926D01*
X004159Y009024D02*
X004037Y009024D01*
X004039Y009123D02*
X004159Y009123D01*
X004159Y009221D02*
X004041Y009221D01*
X004043Y009320D02*
X004234Y009320D01*
X004332Y009418D02*
X004044Y009418D01*
X004046Y009517D02*
X004431Y009517D01*
X004461Y009615D02*
X004048Y009615D01*
X004050Y009714D02*
X004500Y009714D01*
X004588Y009812D02*
X004052Y009812D01*
X004054Y009911D02*
X005509Y009911D01*
X005416Y009812D02*
X004948Y009812D01*
X005036Y009714D02*
X005322Y009714D01*
X005229Y009615D02*
X005075Y009615D01*
X005075Y009517D02*
X005158Y009517D01*
X005159Y009418D02*
X005042Y009418D01*
X004963Y009320D02*
X005159Y009320D01*
X005159Y009221D02*
X004726Y009221D01*
X004627Y009123D02*
X005159Y009123D01*
X005159Y009024D02*
X004577Y009024D01*
X004577Y008926D02*
X005159Y008926D01*
X005159Y008827D02*
X004577Y008827D01*
X004577Y008729D02*
X005159Y008729D01*
X005159Y008630D02*
X004577Y008630D01*
X004577Y008532D02*
X005159Y008532D01*
X005159Y008433D02*
X004963Y008433D01*
X004773Y008433D02*
X004577Y008433D01*
X004577Y008335D02*
X004588Y008335D01*
X005148Y008335D02*
X005159Y008335D01*
X005577Y008335D02*
X005588Y008335D01*
X005577Y008324D02*
X005577Y009375D01*
X006408Y010250D01*
X006774Y010250D01*
X006904Y010196D01*
X007440Y010196D01*
X007562Y010075D01*
X007339Y010075D01*
X007339Y009675D01*
X007239Y009675D01*
X007239Y009575D01*
X006541Y009575D01*
X006550Y009519D01*
X006572Y009452D01*
X006604Y009389D01*
X006646Y009332D01*
X006696Y009282D01*
X006753Y009240D01*
X006816Y009208D01*
X006884Y009186D01*
X006954Y009175D01*
X007239Y009175D01*
X007239Y009575D01*
X007339Y009575D01*
X007339Y009175D01*
X007625Y009175D01*
X007695Y009186D01*
X007762Y009208D01*
X007825Y009240D01*
X007882Y009282D01*
X007932Y009332D01*
X007974Y009389D01*
X008006Y009452D01*
X008028Y009519D01*
X008037Y009575D01*
X007339Y009575D01*
X007339Y009675D01*
X007962Y009675D01*
X008379Y009257D01*
X008502Y009135D01*
X008577Y009135D01*
X008577Y009059D01*
X006283Y009116D01*
X006225Y009155D01*
X006225Y009170D01*
X006178Y009283D01*
X006092Y009369D01*
X005979Y009416D01*
X005857Y009416D01*
X005744Y009369D01*
X005658Y009283D01*
X005611Y009170D01*
X005611Y009048D01*
X005658Y008935D01*
X005744Y008849D01*
X005857Y008802D01*
X005916Y008802D01*
X005861Y008750D01*
X005861Y008747D01*
X005781Y008667D01*
X005659Y008545D01*
X005659Y008386D01*
X005625Y008372D01*
X005577Y008324D01*
X005577Y008433D02*
X005659Y008433D01*
X005659Y008532D02*
X005577Y008532D01*
X005577Y008630D02*
X005744Y008630D01*
X005843Y008729D02*
X005577Y008729D01*
X005577Y008827D02*
X005796Y008827D01*
X005667Y008926D02*
X005577Y008926D01*
X005577Y009024D02*
X005621Y009024D01*
X005611Y009123D02*
X005577Y009123D01*
X005577Y009221D02*
X005632Y009221D01*
X005577Y009320D02*
X005695Y009320D01*
X005617Y009418D02*
X006589Y009418D01*
X006551Y009517D02*
X005711Y009517D01*
X005805Y009615D02*
X007239Y009615D01*
X007239Y009675D02*
X006541Y009675D01*
X006550Y009730D01*
X006572Y009798D01*
X006604Y009861D01*
X006646Y009918D01*
X006696Y009968D01*
X006753Y010010D01*
X006816Y010042D01*
X006884Y010064D01*
X006954Y010075D01*
X007239Y010075D01*
X007239Y009675D01*
X007239Y009714D02*
X007339Y009714D01*
X007339Y009812D02*
X007239Y009812D01*
X007239Y009911D02*
X007339Y009911D01*
X007339Y010009D02*
X007239Y010009D01*
X007529Y010108D02*
X006272Y010108D01*
X006179Y010009D02*
X006753Y010009D01*
X006641Y009911D02*
X006085Y009911D01*
X005992Y009812D02*
X006580Y009812D01*
X006548Y009714D02*
X005898Y009714D01*
X005603Y010009D02*
X004056Y010009D01*
X004058Y010108D02*
X005697Y010108D01*
X005790Y010206D02*
X004060Y010206D01*
X004062Y010305D02*
X005884Y010305D01*
X005977Y010403D02*
X004063Y010403D01*
X004065Y010502D02*
X006071Y010502D01*
X006164Y010600D02*
X004067Y010600D01*
X004090Y010699D02*
X006560Y010699D01*
X006597Y010797D02*
X004135Y010797D01*
X004202Y010896D02*
X006654Y010896D01*
X006761Y010994D02*
X004307Y010994D01*
X004496Y011093D02*
X008866Y011093D01*
X008018Y010699D02*
X011782Y010699D01*
X011781Y010797D02*
X007982Y010797D01*
X007925Y010896D02*
X011814Y010896D01*
X011897Y010994D02*
X007818Y010994D01*
X008018Y010600D02*
X011823Y010600D01*
X011839Y010502D02*
X009433Y010502D01*
X009486Y010403D02*
X011839Y010403D01*
X011839Y010305D02*
X009486Y010305D01*
X009486Y010206D02*
X011839Y010206D01*
X011839Y010108D02*
X009071Y010108D01*
X009071Y010206D02*
X008971Y010206D01*
X008971Y010108D02*
X008119Y010108D01*
X008021Y010206D02*
X008556Y010206D01*
X008556Y010305D02*
X007922Y010305D01*
X007961Y010403D02*
X008556Y010403D01*
X008608Y010502D02*
X008002Y010502D01*
X008218Y010009D02*
X008556Y010009D01*
X008556Y009911D02*
X008316Y009911D01*
X008415Y009812D02*
X008569Y009812D01*
X008513Y009714D02*
X008638Y009714D01*
X008120Y009517D02*
X008027Y009517D01*
X008021Y009615D02*
X007339Y009615D01*
X007339Y009517D02*
X007239Y009517D01*
X007239Y009418D02*
X007339Y009418D01*
X007339Y009320D02*
X007239Y009320D01*
X007239Y009221D02*
X007339Y009221D01*
X007788Y009221D02*
X008415Y009221D01*
X008379Y009257D02*
X008379Y009257D01*
X008317Y009320D02*
X007920Y009320D01*
X007989Y009418D02*
X008218Y009418D01*
X008577Y009123D02*
X006273Y009123D01*
X006203Y009221D02*
X006790Y009221D01*
X006658Y009320D02*
X006141Y009320D01*
X006366Y010206D02*
X006879Y010206D01*
X008971Y010305D02*
X009071Y010305D01*
X009071Y010403D02*
X008971Y010403D01*
X008971Y010502D02*
X009071Y010502D01*
X009486Y010009D02*
X011839Y010009D01*
X011839Y009911D02*
X009486Y009911D01*
X009472Y009812D02*
X010926Y009812D01*
X010828Y009714D02*
X009922Y009714D01*
X009990Y009615D02*
X010729Y009615D01*
X010631Y009517D02*
X010015Y009517D01*
X010009Y009418D02*
X010559Y009418D01*
X010559Y009320D02*
X009968Y009320D01*
X009852Y009221D02*
X010477Y009221D01*
X010323Y009123D02*
X009464Y009123D01*
X009464Y009221D02*
X009564Y009221D01*
X009948Y009024D02*
X010168Y009024D01*
X009494Y009714D02*
X009404Y009714D01*
X012238Y010994D02*
X012408Y010994D01*
X012703Y010699D02*
X012944Y010699D01*
X012943Y010700D02*
X012704Y010700D01*
X012602Y010597D01*
X012831Y010597D01*
X012850Y010609D01*
X012888Y010619D01*
X013008Y010619D01*
X013008Y010179D01*
X013008Y010179D01*
X013008Y010619D01*
X013066Y010619D01*
X012994Y010649D01*
X012943Y010700D01*
X013008Y010600D02*
X013008Y010600D01*
X013008Y010502D02*
X013008Y010502D01*
X013008Y010403D02*
X013008Y010403D01*
X013008Y010305D02*
X013008Y010305D01*
X013008Y010206D02*
X013008Y010206D01*
X013008Y010179D02*
X013008Y009739D01*
X013008Y010179D01*
X013008Y010179D01*
X013008Y010108D02*
X013008Y010108D01*
X013008Y010009D02*
X013008Y010009D01*
X013008Y009911D02*
X013008Y009911D01*
X013008Y009812D02*
X013008Y009812D01*
X012836Y010600D02*
X012605Y010600D01*
X015384Y007842D02*
X017458Y007842D01*
X017458Y007744D02*
X015539Y007744D01*
X015593Y007645D02*
X017458Y007645D01*
X017458Y007547D02*
X015605Y007547D01*
X015583Y007448D02*
X017458Y007448D01*
X017458Y007350D02*
X015539Y007350D01*
X015545Y007251D02*
X017458Y007251D01*
X017458Y007153D02*
X015551Y007153D01*
X015557Y007054D02*
X017458Y007054D01*
X017458Y006956D02*
X015563Y006956D01*
X015568Y006857D02*
X016914Y006857D01*
X016849Y006759D02*
X016513Y006759D01*
X016513Y006660D02*
X016847Y006660D01*
X017422Y006660D02*
X017442Y006660D01*
X017442Y006759D02*
X017422Y006759D01*
X017422Y006857D02*
X017442Y006857D01*
X016764Y006168D02*
X016513Y006168D01*
X016513Y006220D02*
X016711Y006220D01*
X016868Y006064D01*
X016868Y005939D01*
X016943Y005863D01*
X017068Y005863D01*
X017071Y005861D01*
X016943Y005861D01*
X016868Y005785D01*
X016868Y005439D01*
X016943Y005363D01*
X017458Y005363D01*
X017458Y005361D01*
X016943Y005361D01*
X016868Y005285D01*
X016868Y005252D01*
X016553Y005243D01*
X016568Y005269D01*
X016578Y005307D01*
X016578Y005591D01*
X016222Y005591D01*
X016222Y005691D01*
X016578Y005691D01*
X016578Y005976D01*
X016568Y006014D01*
X016548Y006048D01*
X016520Y006076D01*
X016513Y006080D01*
X016513Y006220D01*
X016527Y006069D02*
X016862Y006069D01*
X016868Y005971D02*
X016578Y005971D01*
X016578Y005872D02*
X016934Y005872D01*
X016868Y005774D02*
X016578Y005774D01*
X016578Y005577D02*
X016868Y005577D01*
X016868Y005675D02*
X016222Y005675D01*
X016578Y005478D02*
X016868Y005478D01*
X016927Y005380D02*
X016578Y005380D01*
X016571Y005281D02*
X016868Y005281D01*
X017432Y005612D02*
X017485Y005559D01*
X018118Y005559D01*
X019450Y005441D02*
X019450Y004928D01*
X020481Y003897D01*
X019492Y006112D02*
X019492Y006482D01*
X019568Y006559D01*
X020584Y006559D01*
X021466Y007441D01*
X014332Y004885D02*
X014332Y004554D01*
X014319Y004542D01*
X014298Y004563D01*
X014264Y004583D01*
X014225Y004593D01*
X014087Y004593D01*
X014087Y004128D01*
X014049Y004128D01*
X014049Y004593D01*
X013910Y004593D01*
X013872Y004583D01*
X013838Y004563D01*
X013817Y004542D01*
X013804Y004554D01*
X013804Y004885D01*
X014003Y004885D01*
X014068Y004949D01*
X014133Y004885D01*
X014332Y004885D01*
X014332Y004789D02*
X013804Y004789D01*
X013804Y004690D02*
X014332Y004690D01*
X014332Y004592D02*
X014231Y004592D01*
X014087Y004592D02*
X014049Y004592D01*
X014049Y004493D02*
X014087Y004493D01*
X014087Y004395D02*
X014049Y004395D01*
X014049Y004296D02*
X014087Y004296D01*
X014087Y004198D02*
X014049Y004198D01*
X014049Y004001D02*
X014087Y004001D01*
X014087Y003902D02*
X014049Y003902D01*
X014049Y003804D02*
X014087Y003804D01*
X014087Y003705D02*
X014049Y003705D01*
X014791Y003705D02*
X014976Y003705D01*
X015075Y003607D02*
X012915Y003607D01*
X011409Y003508D02*
X011327Y003508D01*
X011325Y003213D02*
X011431Y003213D01*
X011416Y003114D02*
X011341Y003114D01*
X011341Y003016D02*
X011416Y003016D01*
X011005Y002859D02*
X011005Y002523D01*
X011005Y002622D02*
X010905Y002622D01*
X010905Y002720D02*
X011005Y002720D01*
X011005Y002819D02*
X010905Y002819D01*
X010905Y002859D02*
X011005Y002859D01*
X010905Y002859D02*
X010905Y002523D01*
X013804Y004592D02*
X013904Y004592D01*
X014006Y004887D02*
X014130Y004887D01*
X014807Y003804D02*
X014878Y003804D01*
X008929Y004690D02*
X007522Y004690D01*
X007593Y004789D02*
X008859Y004789D01*
X008859Y004887D02*
X007665Y004887D01*
X007737Y004986D02*
X008859Y004986D01*
X008859Y005084D02*
X007808Y005084D01*
X007880Y005183D02*
X008859Y005183D01*
X008859Y005281D02*
X007951Y005281D01*
X008023Y005380D02*
X008859Y005380D01*
D24*
X004168Y003809D02*
X004168Y001759D01*
X005268Y000659D01*
X014118Y000659D01*
X014218Y000759D01*
X016168Y000759D01*
X016418Y001009D01*
X016418Y001309D01*
X017168Y002059D01*
X017168Y002559D01*
X016168Y003559D01*
X015418Y003559D01*
X014918Y004059D01*
X014918Y007329D01*
X014788Y007459D01*
X014788Y007769D02*
X014408Y007769D01*
X014118Y008059D01*
X014118Y008809D01*
X013668Y009059D02*
X013668Y007559D01*
X013638Y006939D01*
X013668Y006969D01*
X013668Y007559D01*
X013168Y007559D01*
X013018Y007459D01*
X013008Y006939D01*
X013008Y006599D01*
X012718Y006309D01*
X011068Y006309D01*
X012718Y006309D01*
X013318Y006009D02*
X013328Y006019D01*
X013328Y006939D01*
X012718Y006959D02*
X012718Y007609D01*
X013168Y008059D01*
X013318Y008059D01*
X013318Y009409D01*
X013008Y009719D01*
X013008Y010179D01*
X012378Y010179D02*
X012378Y010669D01*
X012618Y010909D01*
X013168Y010909D01*
X012068Y010759D02*
X012068Y010179D01*
X011548Y009659D02*
X011068Y009659D01*
X010768Y009359D01*
X010768Y009159D01*
X010218Y008809D01*
X006218Y008909D01*
X005918Y009109D01*
X005368Y009459D02*
X005368Y006359D01*
X005368Y006409D01*
X005068Y006359D02*
X005068Y006209D01*
X005818Y005459D01*
X004818Y005459D02*
X004168Y005659D01*
X004168Y006359D01*
X004368Y007059D02*
X005068Y006359D01*
X004368Y007059D02*
X004368Y009159D01*
X004768Y009559D01*
X005368Y009459D02*
X006318Y010459D01*
X007473Y010459D01*
X007520Y010411D01*
X007503Y010411D01*
X007289Y010625D01*
X007520Y010411D02*
X008588Y009344D01*
X009021Y009344D01*
X009708Y009494D01*
X009021Y010131D02*
X009021Y010609D01*
X009018Y010609D01*
X008743Y010409D02*
X009021Y010131D01*
X008743Y010409D02*
X008218Y010409D01*
X010268Y008459D02*
X011068Y009009D01*
X011218Y009009D01*
X011518Y009059D01*
X011548Y009029D01*
X011548Y008719D02*
X012308Y008719D01*
X012568Y008459D01*
X011548Y008399D02*
X010858Y008399D01*
X010868Y008409D01*
X011548Y008089D02*
X008592Y008089D01*
X008072Y008609D01*
X006068Y008659D01*
X005868Y008459D01*
X005868Y007709D01*
X006868Y007709D02*
X006868Y007309D01*
X006968Y006709D01*
X008018Y006709D01*
X008418Y007009D01*
X011468Y007009D01*
X011568Y006909D01*
X012038Y006909D01*
X012068Y006939D01*
X012698Y006939D02*
X012718Y006959D01*
X013958Y006939D02*
X013968Y006929D01*
X013968Y006309D01*
X013694Y006035D01*
X013694Y005309D01*
X013595Y005210D01*
X013595Y004109D01*
X014068Y004109D02*
X014068Y003509D01*
X014068Y003249D01*
X015708Y001609D01*
X016018Y001609D01*
X016568Y002159D01*
X013228Y001609D02*
X013168Y001669D01*
X013168Y003059D01*
X012668Y003559D01*
X012668Y005459D01*
X012468Y005609D01*
X011692Y005609D01*
X012092Y006009D01*
X012118Y006009D01*
X011068Y006309D02*
X010968Y006209D01*
X010968Y005585D01*
X010994Y005559D01*
X010994Y004759D01*
X010994Y003909D01*
X010568Y003283D01*
X010568Y001559D01*
X012418Y001259D02*
X008668Y001259D01*
X006918Y003309D01*
X007218Y003859D02*
X007668Y003409D01*
X007668Y003109D01*
X007918Y002859D01*
X008905Y002859D01*
X008955Y002909D01*
X009505Y003459D01*
X009868Y003459D01*
X009781Y002909D02*
X010468Y003595D01*
X010468Y004809D01*
X010168Y005109D01*
X009992Y005109D01*
X009244Y005109D02*
X009244Y005333D01*
X008918Y005659D01*
X007968Y005659D01*
X007168Y004559D01*
X006268Y004409D02*
X006168Y004459D01*
X006118Y004459D02*
X006268Y004409D01*
X006118Y004459D02*
X004818Y004459D01*
X004168Y003809D01*
X004818Y003359D02*
X005268Y004159D01*
X006018Y004059D02*
X006218Y003859D01*
X007218Y003859D01*
X008218Y004059D02*
X008218Y004459D01*
X008318Y004559D01*
X009718Y004559D01*
X009718Y004056D01*
X009868Y003906D01*
X009220Y004046D02*
X008708Y004059D01*
X008668Y004059D01*
X009155Y004046D02*
X009220Y004046D01*
X009155Y004046D02*
X008668Y003559D01*
X008418Y003559D01*
X008268Y003409D01*
X005918Y002309D02*
X006518Y001359D01*
X007168Y001359D01*
X007568Y000959D01*
X011781Y002909D02*
X011781Y003869D01*
X011742Y003909D01*
X011742Y004759D02*
X012268Y004759D01*
X010968Y005585D02*
X010944Y005609D01*
X010944Y006583D01*
X010768Y006759D01*
X009568Y006759D01*
X009468Y006659D01*
X008918Y007659D02*
X009028Y007769D01*
X011548Y007769D01*
X013668Y007559D02*
X014168Y007559D01*
X015318Y007559D02*
X015381Y006496D01*
X015381Y006429D01*
X015384Y006425D01*
X015384Y005641D01*
X015368Y005625D01*
X015418Y005259D01*
X015668Y005009D01*
X017432Y005059D01*
X017432Y005112D01*
X016668Y005409D02*
X016435Y005641D01*
X016172Y005641D01*
X016439Y005909D01*
X016718Y005909D01*
X017168Y006059D02*
X016798Y006429D01*
X016129Y006429D01*
X016718Y007109D02*
X017168Y006959D01*
X017432Y006645D01*
X017432Y006612D01*
X017432Y006112D02*
X017378Y006059D01*
X017168Y006059D01*
X016668Y007059D02*
X016718Y007109D01*
X018906Y007441D02*
X019492Y006855D01*
X019492Y006612D01*
X019492Y006845D01*
X019891Y007244D01*
X020568Y006740D02*
X020678Y006850D01*
X020678Y006448D01*
X021068Y006059D01*
X021068Y006067D01*
X020875Y006260D01*
X020568Y006559D02*
X020466Y006456D01*
X020284Y006456D01*
X019647Y006456D01*
X019492Y006612D01*
X020568Y006559D02*
X020568Y006740D01*
X021466Y007441D02*
X021568Y007543D01*
X021568Y007559D01*
X021843Y007834D01*
X022450Y007834D01*
X020068Y008559D02*
X019540Y008031D01*
X019497Y008031D01*
X019103Y008031D01*
X018906Y008228D01*
X018906Y007720D01*
X019068Y007559D01*
X019025Y007559D01*
X018906Y007441D01*
X020068Y008559D02*
X020068Y008799D01*
X020088Y008819D01*
X016418Y010059D02*
X014388Y010059D01*
X014268Y010179D01*
X013958Y010179D02*
X013958Y009349D01*
X013668Y009059D01*
X014788Y009349D02*
X014798Y009359D01*
X015968Y009359D01*
X015618Y009659D02*
X014788Y009659D01*
X014268Y006939D02*
X014442Y006765D01*
X014442Y005309D01*
X014540Y005210D01*
X014540Y004109D01*
X019356Y004541D02*
X019450Y005441D01*
X019568Y005559D01*
X019545Y005559D01*
X019492Y005612D01*
X019655Y005275D02*
X020284Y005275D01*
X020331Y005322D01*
X021025Y005322D01*
X021125Y005222D01*
X021612Y005222D01*
X021466Y005075D01*
X021466Y004291D01*
X021859Y003897D01*
X022450Y003897D01*
X021568Y003059D02*
X020481Y001972D01*
X020481Y001929D01*
X021466Y002913D02*
X021568Y003015D01*
X021568Y003059D01*
X022568Y005059D02*
X022405Y005222D01*
X021612Y005222D01*
X022550Y005322D02*
X022568Y005304D01*
X022568Y005059D01*
X019655Y005275D02*
X019492Y005112D01*
X004918Y003309D02*
X004818Y003359D01*
D25*
X005268Y004159D03*
X007168Y004559D03*
X008668Y004059D03*
X008268Y003409D03*
X010568Y001559D03*
X012418Y001259D03*
X007568Y000959D03*
X012268Y004759D03*
X012118Y006009D03*
X013318Y006009D03*
X014168Y007559D03*
X013318Y008059D03*
X012568Y008459D03*
X010868Y008409D03*
X010268Y008459D03*
X009468Y006659D03*
X005368Y006359D03*
X012068Y010759D03*
X015618Y009659D03*
X015968Y009359D03*
X016418Y010059D03*
X015318Y007559D03*
X016668Y007059D03*
X016718Y005909D03*
D26*
X016668Y005409D03*
X018118Y005559D03*
X014068Y003509D03*
X012668Y002509D03*
X010918Y002059D03*
X009868Y003459D03*
X008218Y004059D03*
X006268Y004409D03*
X006018Y004059D03*
X004168Y004409D03*
X004168Y006359D03*
X008918Y007659D03*
X005918Y009109D03*
X004768Y009559D03*
X008218Y010409D03*
X009018Y010609D03*
X009708Y009494D03*
X012768Y009459D03*
X014118Y008809D03*
X013168Y010909D03*
X016568Y002159D03*
D27*
X017428Y005109D02*
X017432Y005112D01*
X013008Y009699D02*
X012768Y009459D01*
X013008Y009699D02*
X013008Y010179D01*
D28*
X018906Y009803D03*
X019247Y009456D03*
X018906Y009015D03*
X020088Y008819D03*
X018906Y008228D03*
X019497Y008031D03*
X020481Y007834D03*
X021466Y007441D03*
X022450Y007834D03*
X023437Y007940D03*
X023737Y007690D03*
X023040Y007244D03*
X023687Y007040D03*
X023737Y006390D03*
X023237Y006260D03*
X022450Y006260D03*
X021662Y006260D03*
X020875Y006260D03*
X020284Y006456D03*
X020678Y006850D03*
X019891Y007244D03*
X018906Y007441D03*
X022253Y006850D03*
X022550Y005322D03*
X023387Y005322D03*
X023687Y005072D03*
X022940Y004488D03*
X023678Y004432D03*
X023703Y003882D03*
X023087Y003622D03*
X022450Y003897D03*
X021466Y004291D03*
X020481Y003897D03*
X019497Y003700D03*
X018906Y003504D03*
X020088Y002913D03*
X018906Y002716D03*
X018906Y001929D03*
X019891Y001338D03*
X020481Y001929D03*
X021466Y001535D03*
X021987Y001472D03*
X023437Y001722D03*
X022805Y002278D03*
X022843Y002913D03*
X023637Y002922D03*
X019891Y004488D03*
X019356Y004541D03*
X018906Y004291D03*
X020284Y005275D03*
X021025Y005322D03*
X021612Y005222D03*
X023487Y008640D03*
X022843Y008819D03*
X023637Y009290D03*
X022450Y009803D03*
X023437Y010140D03*
X022587Y010490D03*
X021466Y010197D03*
X020481Y009803D03*
X019447Y010056D03*
X019541Y010543D03*
X018906Y010590D03*
M02*
