G75*
%MOIN*%
%OFA0B0*%
%FSLAX24Y24*%
%IPPOS*%
%LPD*%
%AMOC8*
5,1,8,0,0,1.08239X$1,22.5*
%
%ADD10C,0.0000*%
D10*
X006333Y005500D02*
X026742Y005500D01*
X026183Y006650D02*
X026185Y006694D01*
X026191Y006738D01*
X026201Y006781D01*
X026214Y006823D01*
X026231Y006864D01*
X026252Y006903D01*
X026276Y006940D01*
X026303Y006975D01*
X026333Y007007D01*
X026366Y007037D01*
X026402Y007063D01*
X026439Y007087D01*
X026479Y007106D01*
X026520Y007123D01*
X026563Y007135D01*
X026606Y007144D01*
X026650Y007149D01*
X026694Y007150D01*
X026738Y007147D01*
X026782Y007140D01*
X026825Y007129D01*
X026867Y007115D01*
X026907Y007097D01*
X026946Y007075D01*
X026982Y007051D01*
X027016Y007023D01*
X027048Y006992D01*
X027077Y006958D01*
X027103Y006922D01*
X027125Y006884D01*
X027144Y006844D01*
X027159Y006802D01*
X027171Y006760D01*
X027179Y006716D01*
X027183Y006672D01*
X027183Y006628D01*
X027179Y006584D01*
X027171Y006540D01*
X027159Y006498D01*
X027144Y006456D01*
X027125Y006416D01*
X027103Y006378D01*
X027077Y006342D01*
X027048Y006308D01*
X027016Y006277D01*
X026982Y006249D01*
X026946Y006225D01*
X026907Y006203D01*
X026867Y006185D01*
X026825Y006171D01*
X026782Y006160D01*
X026738Y006153D01*
X026694Y006150D01*
X026650Y006151D01*
X026606Y006156D01*
X026563Y006165D01*
X026520Y006177D01*
X026479Y006194D01*
X026439Y006213D01*
X026402Y006237D01*
X026366Y006263D01*
X026333Y006293D01*
X026303Y006325D01*
X026276Y006360D01*
X026252Y006397D01*
X026231Y006436D01*
X026214Y006477D01*
X026201Y006519D01*
X026191Y006562D01*
X026185Y006606D01*
X026183Y006650D01*
X026742Y005500D02*
X026816Y005502D01*
X026890Y005508D01*
X026963Y005517D01*
X027036Y005531D01*
X027107Y005548D01*
X027178Y005569D01*
X027248Y005594D01*
X027316Y005622D01*
X027383Y005654D01*
X027448Y005689D01*
X027511Y005728D01*
X027572Y005770D01*
X027631Y005815D01*
X027687Y005863D01*
X027740Y005914D01*
X027791Y005967D01*
X027839Y006023D01*
X027884Y006082D01*
X027926Y006143D01*
X027965Y006206D01*
X028000Y006271D01*
X028032Y006338D01*
X028060Y006406D01*
X028085Y006476D01*
X028106Y006547D01*
X028123Y006618D01*
X028137Y006691D01*
X028146Y006764D01*
X028152Y006838D01*
X028154Y006912D01*
X028153Y006912D02*
X028153Y028406D01*
X028151Y028452D01*
X028146Y028498D01*
X028137Y028544D01*
X028124Y028588D01*
X028108Y028632D01*
X028089Y028674D01*
X028066Y028714D01*
X028040Y028753D01*
X028012Y028789D01*
X027980Y028823D01*
X027946Y028855D01*
X027910Y028883D01*
X027871Y028909D01*
X027831Y028932D01*
X027789Y028951D01*
X027745Y028967D01*
X027701Y028980D01*
X027655Y028989D01*
X027609Y028994D01*
X027563Y028996D01*
X006038Y028996D01*
X005988Y028994D01*
X005938Y028989D01*
X005888Y028980D01*
X005840Y028967D01*
X005792Y028952D01*
X005746Y028932D01*
X005701Y028910D01*
X005657Y028884D01*
X005616Y028856D01*
X005577Y028824D01*
X005540Y028790D01*
X005506Y028753D01*
X005474Y028714D01*
X005446Y028673D01*
X005420Y028629D01*
X005398Y028584D01*
X005378Y028538D01*
X005363Y028490D01*
X005350Y028442D01*
X005341Y028392D01*
X005336Y028342D01*
X005334Y028292D01*
X005333Y028292D02*
X005333Y006500D01*
X005335Y006440D01*
X005340Y006379D01*
X005349Y006320D01*
X005362Y006261D01*
X005378Y006202D01*
X005398Y006145D01*
X005421Y006090D01*
X005448Y006035D01*
X005477Y005983D01*
X005510Y005932D01*
X005546Y005883D01*
X005584Y005837D01*
X005626Y005793D01*
X005670Y005751D01*
X005716Y005713D01*
X005765Y005677D01*
X005816Y005644D01*
X005868Y005615D01*
X005923Y005588D01*
X005978Y005565D01*
X006035Y005545D01*
X006094Y005529D01*
X006153Y005516D01*
X006212Y005507D01*
X006273Y005502D01*
X006333Y005500D01*
X006333Y007000D02*
X006335Y007044D01*
X006341Y007088D01*
X006351Y007131D01*
X006364Y007173D01*
X006381Y007214D01*
X006402Y007253D01*
X006426Y007290D01*
X006453Y007325D01*
X006483Y007357D01*
X006516Y007387D01*
X006552Y007413D01*
X006589Y007437D01*
X006629Y007456D01*
X006670Y007473D01*
X006713Y007485D01*
X006756Y007494D01*
X006800Y007499D01*
X006844Y007500D01*
X006888Y007497D01*
X006932Y007490D01*
X006975Y007479D01*
X007017Y007465D01*
X007057Y007447D01*
X007096Y007425D01*
X007132Y007401D01*
X007166Y007373D01*
X007198Y007342D01*
X007227Y007308D01*
X007253Y007272D01*
X007275Y007234D01*
X007294Y007194D01*
X007309Y007152D01*
X007321Y007110D01*
X007329Y007066D01*
X007333Y007022D01*
X007333Y006978D01*
X007329Y006934D01*
X007321Y006890D01*
X007309Y006848D01*
X007294Y006806D01*
X007275Y006766D01*
X007253Y006728D01*
X007227Y006692D01*
X007198Y006658D01*
X007166Y006627D01*
X007132Y006599D01*
X007096Y006575D01*
X007057Y006553D01*
X007017Y006535D01*
X006975Y006521D01*
X006932Y006510D01*
X006888Y006503D01*
X006844Y006500D01*
X006800Y006501D01*
X006756Y006506D01*
X006713Y006515D01*
X006670Y006527D01*
X006629Y006544D01*
X006589Y006563D01*
X006552Y006587D01*
X006516Y006613D01*
X006483Y006643D01*
X006453Y006675D01*
X006426Y006710D01*
X006402Y006747D01*
X006381Y006786D01*
X006364Y006827D01*
X006351Y006869D01*
X006341Y006912D01*
X006335Y006956D01*
X006333Y007000D01*
X006333Y023736D02*
X006335Y023780D01*
X006341Y023824D01*
X006351Y023867D01*
X006364Y023909D01*
X006381Y023950D01*
X006402Y023989D01*
X006426Y024026D01*
X006453Y024061D01*
X006483Y024093D01*
X006516Y024123D01*
X006552Y024149D01*
X006589Y024173D01*
X006629Y024192D01*
X006670Y024209D01*
X006713Y024221D01*
X006756Y024230D01*
X006800Y024235D01*
X006844Y024236D01*
X006888Y024233D01*
X006932Y024226D01*
X006975Y024215D01*
X007017Y024201D01*
X007057Y024183D01*
X007096Y024161D01*
X007132Y024137D01*
X007166Y024109D01*
X007198Y024078D01*
X007227Y024044D01*
X007253Y024008D01*
X007275Y023970D01*
X007294Y023930D01*
X007309Y023888D01*
X007321Y023846D01*
X007329Y023802D01*
X007333Y023758D01*
X007333Y023714D01*
X007329Y023670D01*
X007321Y023626D01*
X007309Y023584D01*
X007294Y023542D01*
X007275Y023502D01*
X007253Y023464D01*
X007227Y023428D01*
X007198Y023394D01*
X007166Y023363D01*
X007132Y023335D01*
X007096Y023311D01*
X007057Y023289D01*
X007017Y023271D01*
X006975Y023257D01*
X006932Y023246D01*
X006888Y023239D01*
X006844Y023236D01*
X006800Y023237D01*
X006756Y023242D01*
X006713Y023251D01*
X006670Y023263D01*
X006629Y023280D01*
X006589Y023299D01*
X006552Y023323D01*
X006516Y023349D01*
X006483Y023379D01*
X006453Y023411D01*
X006426Y023446D01*
X006402Y023483D01*
X006381Y023522D01*
X006364Y023563D01*
X006351Y023605D01*
X006341Y023648D01*
X006335Y023692D01*
X006333Y023736D01*
X026812Y027917D02*
X026814Y027961D01*
X026820Y028005D01*
X026830Y028048D01*
X026843Y028090D01*
X026860Y028131D01*
X026881Y028170D01*
X026905Y028207D01*
X026932Y028242D01*
X026962Y028274D01*
X026995Y028304D01*
X027031Y028330D01*
X027068Y028354D01*
X027108Y028373D01*
X027149Y028390D01*
X027192Y028402D01*
X027235Y028411D01*
X027279Y028416D01*
X027323Y028417D01*
X027367Y028414D01*
X027411Y028407D01*
X027454Y028396D01*
X027496Y028382D01*
X027536Y028364D01*
X027575Y028342D01*
X027611Y028318D01*
X027645Y028290D01*
X027677Y028259D01*
X027706Y028225D01*
X027732Y028189D01*
X027754Y028151D01*
X027773Y028111D01*
X027788Y028069D01*
X027800Y028027D01*
X027808Y027983D01*
X027812Y027939D01*
X027812Y027895D01*
X027808Y027851D01*
X027800Y027807D01*
X027788Y027765D01*
X027773Y027723D01*
X027754Y027683D01*
X027732Y027645D01*
X027706Y027609D01*
X027677Y027575D01*
X027645Y027544D01*
X027611Y027516D01*
X027575Y027492D01*
X027536Y027470D01*
X027496Y027452D01*
X027454Y027438D01*
X027411Y027427D01*
X027367Y027420D01*
X027323Y027417D01*
X027279Y027418D01*
X027235Y027423D01*
X027192Y027432D01*
X027149Y027444D01*
X027108Y027461D01*
X027068Y027480D01*
X027031Y027504D01*
X026995Y027530D01*
X026962Y027560D01*
X026932Y027592D01*
X026905Y027627D01*
X026881Y027664D01*
X026860Y027703D01*
X026843Y027744D01*
X026830Y027786D01*
X026820Y027829D01*
X026814Y027873D01*
X026812Y027917D01*
M02*
