G75*
%MOIN*%
%OFA0B0*%
%FSLAX24Y24*%
%IPPOS*%
%LPD*%
%AMOC8*
5,1,8,0,0,1.08239X$1,22.5*
%
%ADD10C,0.0060*%
%ADD11C,0.0030*%
%ADD12C,0.0080*%
%ADD13C,0.0401*%
%ADD14C,0.0070*%
%ADD15R,0.0079X0.0079*%
%ADD16C,0.0040*%
%ADD17C,0.0050*%
%ADD18C,0.0100*%
%ADD19C,0.0010*%
%ADD20C,0.0020*%
D10*
X010786Y009848D02*
X010786Y012152D01*
X014881Y012152D01*
X014881Y009848D01*
X010786Y009848D01*
X014316Y011768D02*
X014318Y011794D01*
X014324Y011820D01*
X014333Y011845D01*
X014346Y011868D01*
X014362Y011889D01*
X014381Y011907D01*
X014403Y011923D01*
X014426Y011935D01*
X014451Y011943D01*
X014477Y011948D01*
X014504Y011949D01*
X014530Y011946D01*
X014555Y011939D01*
X014580Y011929D01*
X014602Y011915D01*
X014623Y011898D01*
X014640Y011879D01*
X014655Y011857D01*
X014666Y011833D01*
X014674Y011807D01*
X014678Y011781D01*
X014678Y011755D01*
X014674Y011729D01*
X014666Y011703D01*
X014655Y011679D01*
X014640Y011657D01*
X014623Y011638D01*
X014602Y011621D01*
X014580Y011607D01*
X014555Y011597D01*
X014530Y011590D01*
X014504Y011587D01*
X014477Y011588D01*
X014451Y011593D01*
X014426Y011601D01*
X014403Y011613D01*
X014381Y011629D01*
X014362Y011647D01*
X014346Y011668D01*
X014333Y011691D01*
X014324Y011716D01*
X014318Y011742D01*
X014316Y011768D01*
X006278Y015402D02*
X006065Y015615D01*
X005638Y015615D01*
X005851Y015833D02*
X005638Y016046D01*
X006278Y016046D01*
X006278Y015833D02*
X006278Y016260D01*
X006278Y015402D02*
X006065Y015188D01*
X005638Y015188D01*
X005851Y017122D02*
X005638Y017335D01*
X006278Y017335D01*
X006278Y017122D02*
X006278Y017549D01*
X005958Y017766D02*
X005958Y018193D01*
X006171Y018411D02*
X006278Y018518D01*
X006278Y018731D01*
X006171Y018838D01*
X006065Y018838D01*
X005958Y018731D01*
X005958Y018625D01*
X005958Y018731D02*
X005851Y018838D01*
X005744Y018838D01*
X005638Y018731D01*
X005638Y018518D01*
X005744Y018411D01*
X005638Y018087D02*
X005958Y017766D01*
X006278Y018087D02*
X005638Y018087D01*
X005851Y019056D02*
X005638Y019269D01*
X006278Y019269D01*
X006278Y019056D02*
X006278Y019483D01*
X021983Y021000D02*
X021985Y021073D01*
X021991Y021146D01*
X022001Y021218D01*
X022015Y021290D01*
X022032Y021361D01*
X022054Y021431D01*
X022079Y021500D01*
X022108Y021567D01*
X022140Y021632D01*
X022176Y021696D01*
X022216Y021758D01*
X022258Y021817D01*
X022304Y021874D01*
X022353Y021928D01*
X022405Y021980D01*
X022459Y022029D01*
X022516Y022075D01*
X022575Y022117D01*
X022637Y022157D01*
X022701Y022193D01*
X022766Y022225D01*
X022833Y022254D01*
X022902Y022279D01*
X022972Y022301D01*
X023043Y022318D01*
X023115Y022332D01*
X023187Y022342D01*
X023260Y022348D01*
X023333Y022350D01*
X023406Y022348D01*
X023479Y022342D01*
X023551Y022332D01*
X023623Y022318D01*
X023694Y022301D01*
X023764Y022279D01*
X023833Y022254D01*
X023900Y022225D01*
X023965Y022193D01*
X024029Y022157D01*
X024091Y022117D01*
X024150Y022075D01*
X024207Y022029D01*
X024261Y021980D01*
X024313Y021928D01*
X024362Y021874D01*
X024408Y021817D01*
X024450Y021758D01*
X024490Y021696D01*
X024526Y021632D01*
X024558Y021567D01*
X024587Y021500D01*
X024612Y021431D01*
X024634Y021361D01*
X024651Y021290D01*
X024665Y021218D01*
X024675Y021146D01*
X024681Y021073D01*
X024683Y021000D01*
X024681Y020927D01*
X024675Y020854D01*
X024665Y020782D01*
X024651Y020710D01*
X024634Y020639D01*
X024612Y020569D01*
X024587Y020500D01*
X024558Y020433D01*
X024526Y020368D01*
X024490Y020304D01*
X024450Y020242D01*
X024408Y020183D01*
X024362Y020126D01*
X024313Y020072D01*
X024261Y020020D01*
X024207Y019971D01*
X024150Y019925D01*
X024091Y019883D01*
X024029Y019843D01*
X023965Y019807D01*
X023900Y019775D01*
X023833Y019746D01*
X023764Y019721D01*
X023694Y019699D01*
X023623Y019682D01*
X023551Y019668D01*
X023479Y019658D01*
X023406Y019652D01*
X023333Y019650D01*
X023260Y019652D01*
X023187Y019658D01*
X023115Y019668D01*
X023043Y019682D01*
X022972Y019699D01*
X022902Y019721D01*
X022833Y019746D01*
X022766Y019775D01*
X022701Y019807D01*
X022637Y019843D01*
X022575Y019883D01*
X022516Y019925D01*
X022459Y019971D01*
X022405Y020020D01*
X022353Y020072D01*
X022304Y020126D01*
X022258Y020183D01*
X022216Y020242D01*
X022176Y020304D01*
X022140Y020368D01*
X022108Y020433D01*
X022079Y020500D01*
X022054Y020569D01*
X022032Y020639D01*
X022015Y020710D01*
X022001Y020782D01*
X021991Y020854D01*
X021985Y020927D01*
X021983Y021000D01*
X021983Y027000D02*
X021985Y027073D01*
X021991Y027146D01*
X022001Y027218D01*
X022015Y027290D01*
X022032Y027361D01*
X022054Y027431D01*
X022079Y027500D01*
X022108Y027567D01*
X022140Y027632D01*
X022176Y027696D01*
X022216Y027758D01*
X022258Y027817D01*
X022304Y027874D01*
X022353Y027928D01*
X022405Y027980D01*
X022459Y028029D01*
X022516Y028075D01*
X022575Y028117D01*
X022637Y028157D01*
X022701Y028193D01*
X022766Y028225D01*
X022833Y028254D01*
X022902Y028279D01*
X022972Y028301D01*
X023043Y028318D01*
X023115Y028332D01*
X023187Y028342D01*
X023260Y028348D01*
X023333Y028350D01*
X023406Y028348D01*
X023479Y028342D01*
X023551Y028332D01*
X023623Y028318D01*
X023694Y028301D01*
X023764Y028279D01*
X023833Y028254D01*
X023900Y028225D01*
X023965Y028193D01*
X024029Y028157D01*
X024091Y028117D01*
X024150Y028075D01*
X024207Y028029D01*
X024261Y027980D01*
X024313Y027928D01*
X024362Y027874D01*
X024408Y027817D01*
X024450Y027758D01*
X024490Y027696D01*
X024526Y027632D01*
X024558Y027567D01*
X024587Y027500D01*
X024612Y027431D01*
X024634Y027361D01*
X024651Y027290D01*
X024665Y027218D01*
X024675Y027146D01*
X024681Y027073D01*
X024683Y027000D01*
X024681Y026927D01*
X024675Y026854D01*
X024665Y026782D01*
X024651Y026710D01*
X024634Y026639D01*
X024612Y026569D01*
X024587Y026500D01*
X024558Y026433D01*
X024526Y026368D01*
X024490Y026304D01*
X024450Y026242D01*
X024408Y026183D01*
X024362Y026126D01*
X024313Y026072D01*
X024261Y026020D01*
X024207Y025971D01*
X024150Y025925D01*
X024091Y025883D01*
X024029Y025843D01*
X023965Y025807D01*
X023900Y025775D01*
X023833Y025746D01*
X023764Y025721D01*
X023694Y025699D01*
X023623Y025682D01*
X023551Y025668D01*
X023479Y025658D01*
X023406Y025652D01*
X023333Y025650D01*
X023260Y025652D01*
X023187Y025658D01*
X023115Y025668D01*
X023043Y025682D01*
X022972Y025699D01*
X022902Y025721D01*
X022833Y025746D01*
X022766Y025775D01*
X022701Y025807D01*
X022637Y025843D01*
X022575Y025883D01*
X022516Y025925D01*
X022459Y025971D01*
X022405Y026020D01*
X022353Y026072D01*
X022304Y026126D01*
X022258Y026183D01*
X022216Y026242D01*
X022176Y026304D01*
X022140Y026368D01*
X022108Y026433D01*
X022079Y026500D01*
X022054Y026569D01*
X022032Y026639D01*
X022015Y026710D01*
X022001Y026782D01*
X021991Y026854D01*
X021985Y026927D01*
X021983Y027000D01*
D11*
X019597Y024796D02*
X019537Y024856D01*
X019294Y024856D01*
X019233Y024796D01*
X019233Y024674D01*
X019294Y024614D01*
X019355Y024614D01*
X019415Y024674D01*
X019415Y024856D01*
X019597Y024796D02*
X019597Y024674D01*
X019537Y024614D01*
X019537Y024494D02*
X019476Y024494D01*
X019415Y024433D01*
X019415Y024251D01*
X019537Y024251D01*
X019597Y024312D01*
X019597Y024433D01*
X019537Y024494D01*
X019294Y024373D02*
X019415Y024251D01*
X019294Y024373D02*
X019233Y024494D01*
X019233Y024010D02*
X019597Y024010D01*
X019597Y023889D02*
X019597Y024131D01*
X019355Y023889D02*
X019233Y024010D01*
X019355Y023769D02*
X019597Y023769D01*
X019415Y023769D02*
X019415Y023526D01*
X019355Y023526D02*
X019233Y023648D01*
X019355Y023769D01*
X019355Y023526D02*
X019597Y023526D01*
X019597Y023406D02*
X019233Y023406D01*
X019233Y023164D02*
X019597Y023406D01*
X019597Y023164D02*
X019233Y023164D01*
X019233Y023043D02*
X019233Y022922D01*
X019233Y022983D02*
X019597Y022983D01*
X019597Y023043D02*
X019597Y022922D01*
X021148Y023894D02*
X021195Y023847D01*
X021290Y023847D01*
X021338Y023894D01*
X021338Y023942D01*
X021290Y023989D01*
X021195Y023989D01*
X021148Y024037D01*
X021148Y024085D01*
X021195Y024132D01*
X021290Y024132D01*
X021338Y024085D01*
X021438Y024132D02*
X021438Y023847D01*
X021438Y023989D02*
X021628Y023989D01*
X021728Y023894D02*
X021775Y023847D01*
X021870Y023847D01*
X021918Y023894D01*
X021918Y024132D01*
X022018Y024132D02*
X022208Y023847D01*
X022208Y024132D01*
X022308Y024132D02*
X022498Y024132D01*
X022403Y024132D02*
X022403Y023847D01*
X022018Y023847D02*
X022018Y024132D01*
X021728Y024132D02*
X021728Y023894D01*
X021628Y023847D02*
X021628Y024132D01*
X017144Y023881D02*
X017144Y023820D01*
X017083Y023760D01*
X017144Y023699D01*
X017144Y023638D01*
X017083Y023578D01*
X016962Y023578D01*
X016901Y023638D01*
X016781Y023578D02*
X016539Y023578D01*
X016419Y023578D02*
X016297Y023699D01*
X016358Y023699D02*
X016176Y023699D01*
X016176Y023578D02*
X016176Y023942D01*
X016358Y023942D01*
X016419Y023881D01*
X016419Y023760D01*
X016358Y023699D01*
X016539Y023820D02*
X016660Y023942D01*
X016660Y023578D01*
X016901Y023881D02*
X016962Y023942D01*
X017083Y023942D01*
X017144Y023881D01*
X017083Y023760D02*
X017023Y023760D01*
X015938Y023401D02*
X015938Y023340D01*
X015695Y023098D01*
X015695Y023037D01*
X015576Y023098D02*
X015515Y023037D01*
X015394Y023037D01*
X015333Y023098D01*
X015333Y023340D01*
X015394Y023401D01*
X015515Y023401D01*
X015576Y023340D01*
X015695Y023401D02*
X015938Y023401D01*
X014734Y023229D02*
X014492Y023229D01*
X014492Y023047D01*
X014613Y023107D01*
X014674Y023107D01*
X014734Y023047D01*
X014734Y022925D01*
X014674Y022865D01*
X014552Y022865D01*
X014492Y022925D01*
X014372Y022865D02*
X014129Y022865D01*
X014009Y022865D02*
X013888Y022986D01*
X013949Y022986D02*
X013767Y022986D01*
X013767Y022865D02*
X013767Y023229D01*
X013949Y023229D01*
X014009Y023168D01*
X014009Y023047D01*
X013949Y022986D01*
X014129Y023107D02*
X014251Y023229D01*
X014251Y022865D01*
X013014Y023492D02*
X012650Y023492D01*
X012650Y023674D01*
X012710Y023735D01*
X012832Y023735D01*
X012892Y023674D01*
X012892Y023492D01*
X012892Y023614D02*
X013014Y023735D01*
X013014Y023855D02*
X013014Y024098D01*
X013014Y023976D02*
X012650Y023976D01*
X012771Y023855D01*
X012832Y024217D02*
X012832Y024460D01*
X013014Y024399D02*
X012650Y024399D01*
X012832Y024217D01*
X009147Y018698D02*
X009026Y018698D01*
X008965Y018637D01*
X008965Y018395D01*
X009026Y018334D01*
X009147Y018334D01*
X009208Y018395D01*
X009208Y018637D02*
X009147Y018698D01*
X008845Y018698D02*
X008603Y018698D01*
X008724Y018698D02*
X008724Y018334D01*
X008483Y018334D02*
X008361Y018455D01*
X008422Y018455D02*
X008240Y018455D01*
X008240Y018334D02*
X008240Y018698D01*
X008422Y018698D01*
X008483Y018637D01*
X008483Y018516D01*
X008422Y018455D01*
X010954Y014213D02*
X010954Y013970D01*
X011136Y013970D01*
X011076Y014091D01*
X011076Y014152D01*
X011136Y014213D01*
X011258Y014213D01*
X011318Y014152D01*
X011318Y014031D01*
X011258Y013970D01*
X011318Y013850D02*
X011197Y013729D01*
X011197Y013790D02*
X011197Y013608D01*
X011318Y013608D02*
X010954Y013608D01*
X010954Y013790D01*
X011015Y013850D01*
X011136Y013850D01*
X011197Y013790D01*
X010540Y013230D02*
X010479Y013290D01*
X010358Y013290D01*
X010297Y013230D01*
X010297Y013169D01*
X010358Y013108D01*
X010540Y013108D01*
X010540Y012987D02*
X010540Y013230D01*
X010540Y012987D02*
X010479Y012926D01*
X010358Y012926D01*
X010297Y012987D01*
X010177Y012987D02*
X010116Y012926D01*
X009995Y012926D01*
X009934Y012987D01*
X009934Y013230D01*
X009995Y013290D01*
X010116Y013290D01*
X010177Y013230D01*
X009110Y013820D02*
X009110Y013881D01*
X009049Y013941D01*
X008867Y013941D01*
X008867Y013820D01*
X008928Y013759D01*
X009049Y013759D01*
X009110Y013820D01*
X008988Y014063D02*
X008867Y013941D01*
X008747Y013820D02*
X008687Y013759D01*
X008565Y013759D01*
X008505Y013820D01*
X008505Y014063D01*
X008565Y014123D01*
X008687Y014123D01*
X008747Y014063D01*
X008988Y014063D02*
X009110Y014123D01*
X008912Y012236D02*
X008974Y012175D01*
X008974Y012051D01*
X008912Y011990D01*
X008912Y011868D02*
X008974Y011806D01*
X008974Y011683D01*
X008912Y011621D01*
X008665Y011621D01*
X008604Y011683D01*
X008604Y011806D01*
X008665Y011868D01*
X008665Y011990D02*
X008604Y012051D01*
X008604Y012175D01*
X008665Y012236D01*
X008727Y012236D01*
X008789Y012175D01*
X008850Y012236D01*
X008912Y012236D01*
X008789Y012175D02*
X008789Y012113D01*
X009350Y010089D02*
X009714Y010089D01*
X009714Y010210D02*
X009714Y009967D01*
X009653Y009848D02*
X009714Y009787D01*
X009714Y009666D01*
X009653Y009605D01*
X009411Y009605D01*
X009350Y009666D01*
X009350Y009787D01*
X009411Y009848D01*
X009471Y009967D02*
X009350Y010089D01*
X007639Y009899D02*
X007396Y009899D01*
X007578Y010081D01*
X007578Y009717D01*
X007276Y009778D02*
X007215Y009717D01*
X007094Y009717D01*
X007033Y009778D01*
X007033Y010020D01*
X007094Y010081D01*
X007215Y010081D01*
X007276Y010020D01*
X011575Y011066D02*
X011575Y011430D01*
X011817Y011430D01*
X011937Y011430D02*
X012180Y011430D01*
X012058Y011430D02*
X012058Y011066D01*
X012300Y011066D02*
X012542Y011309D01*
X012542Y011370D01*
X012482Y011430D01*
X012360Y011430D01*
X012300Y011370D01*
X012300Y011066D02*
X012542Y011066D01*
X012662Y011127D02*
X012723Y011066D01*
X012844Y011066D01*
X012905Y011127D01*
X012905Y011188D01*
X012844Y011248D01*
X012783Y011248D01*
X012844Y011248D02*
X012905Y011309D01*
X012905Y011370D01*
X012844Y011430D01*
X012723Y011430D01*
X012662Y011370D01*
X013025Y011370D02*
X013085Y011430D01*
X013207Y011430D01*
X013267Y011370D01*
X013267Y011309D01*
X013025Y011066D01*
X013267Y011066D01*
X013387Y011066D02*
X013387Y011430D01*
X013569Y011430D01*
X013630Y011370D01*
X013630Y011248D01*
X013569Y011188D01*
X013387Y011188D01*
X013508Y011188D02*
X013630Y011066D01*
X013750Y011066D02*
X013992Y011066D01*
X013750Y011066D02*
X013750Y011430D01*
X011696Y011248D02*
X011575Y011248D01*
X013372Y013686D02*
X013372Y013868D01*
X013432Y013929D01*
X013554Y013929D01*
X013614Y013868D01*
X013614Y013686D01*
X013614Y013808D02*
X013736Y013929D01*
X013736Y014049D02*
X013493Y014291D01*
X013432Y014291D01*
X013372Y014231D01*
X013372Y014109D01*
X013432Y014049D01*
X013736Y014049D02*
X013736Y014291D01*
X013736Y013686D02*
X013372Y013686D01*
X015850Y013149D02*
X015850Y013028D01*
X015911Y012967D01*
X015911Y012848D02*
X015850Y012787D01*
X015850Y012666D01*
X015911Y012605D01*
X016153Y012605D01*
X016214Y012666D01*
X016214Y012787D01*
X016153Y012848D01*
X016214Y012967D02*
X015971Y013210D01*
X015911Y013210D01*
X015850Y013149D01*
X016214Y013210D02*
X016214Y012967D01*
X016209Y011139D02*
X016269Y011078D01*
X016269Y010957D01*
X016209Y010896D01*
X016027Y010896D01*
X016148Y010896D02*
X016269Y010775D01*
X016389Y010775D02*
X016632Y010775D01*
X016510Y010775D02*
X016510Y011139D01*
X016389Y011018D01*
X016209Y011139D02*
X016027Y011139D01*
X016027Y010775D01*
X015987Y010194D02*
X016169Y010194D01*
X016230Y010133D01*
X016230Y010012D01*
X016169Y009951D01*
X015987Y009951D01*
X015987Y009830D02*
X015987Y010194D01*
X016109Y009951D02*
X016230Y009830D01*
X016350Y009830D02*
X016592Y009830D01*
X016471Y009830D02*
X016471Y010194D01*
X016350Y010073D01*
X016712Y010012D02*
X016712Y009891D01*
X016773Y009830D01*
X016894Y009830D01*
X016955Y009891D01*
X016955Y009951D01*
X016894Y010012D01*
X016712Y010012D01*
X016834Y010133D01*
X016955Y010194D01*
X016934Y010775D02*
X016812Y010775D01*
X016752Y010836D01*
X016994Y011078D01*
X016994Y010836D01*
X016934Y010775D01*
X016752Y010836D02*
X016752Y011078D01*
X016812Y011139D01*
X016934Y011139D01*
X016994Y011078D01*
X016625Y008800D02*
X016503Y008740D01*
X016382Y008618D01*
X016564Y008618D01*
X016625Y008558D01*
X016625Y008497D01*
X016564Y008436D01*
X016443Y008436D01*
X016382Y008497D01*
X016382Y008618D01*
X016262Y008618D02*
X016262Y008740D01*
X016202Y008800D01*
X016020Y008800D01*
X016020Y008436D01*
X016020Y008558D02*
X016202Y008558D01*
X016262Y008618D01*
X016141Y008558D02*
X016262Y008436D01*
X017531Y008381D02*
X017531Y008745D01*
X017713Y008745D01*
X017773Y008684D01*
X017773Y008563D01*
X017713Y008502D01*
X017531Y008502D01*
X017652Y008502D02*
X017773Y008381D01*
X017893Y008381D02*
X017893Y008442D01*
X018136Y008684D01*
X018136Y008745D01*
X017893Y008745D01*
X019702Y008774D02*
X019702Y008410D01*
X019702Y008531D02*
X019884Y008531D01*
X019945Y008592D01*
X019945Y008713D01*
X019884Y008774D01*
X019702Y008774D01*
X019823Y008531D02*
X019945Y008410D01*
X020065Y008471D02*
X020125Y008410D01*
X020247Y008410D01*
X020307Y008471D01*
X020307Y008531D01*
X020247Y008592D01*
X020186Y008592D01*
X020247Y008592D02*
X020307Y008653D01*
X020307Y008713D01*
X020247Y008774D01*
X020125Y008774D01*
X020065Y008713D01*
X021198Y008800D02*
X021198Y008436D01*
X021198Y008558D02*
X021380Y008558D01*
X021441Y008618D01*
X021441Y008740D01*
X021380Y008800D01*
X021198Y008800D01*
X021320Y008558D02*
X021441Y008436D01*
X021561Y008436D02*
X021804Y008436D01*
X021682Y008436D02*
X021682Y008800D01*
X021561Y008679D01*
X021548Y006138D02*
X021730Y006138D01*
X021791Y006077D01*
X021791Y005834D01*
X021730Y005774D01*
X021548Y005774D01*
X021548Y006138D01*
X021910Y006138D02*
X022092Y006138D01*
X022153Y006077D01*
X022153Y006016D01*
X022092Y005956D01*
X021910Y005956D01*
X021910Y005774D02*
X021910Y006138D01*
X022092Y005956D02*
X022153Y005895D01*
X022153Y005834D01*
X022092Y005774D01*
X021910Y005774D01*
X022273Y005834D02*
X022334Y005774D01*
X022455Y005774D01*
X022516Y005834D01*
X022516Y005956D01*
X022394Y005956D01*
X022273Y006077D02*
X022273Y005834D01*
X022273Y006077D02*
X022334Y006138D01*
X022455Y006138D01*
X022516Y006077D01*
X022635Y005713D02*
X022878Y005713D01*
X022998Y005774D02*
X023241Y005774D01*
X022998Y005774D02*
X022998Y006138D01*
X020616Y006059D02*
X020616Y005937D01*
X020555Y005876D01*
X020373Y005876D01*
X020373Y005755D02*
X020373Y006119D01*
X020555Y006119D01*
X020616Y006059D01*
X020495Y005876D02*
X020616Y005755D01*
X020254Y005755D02*
X020254Y006119D01*
X020011Y006119D02*
X020011Y005755D01*
X020132Y005876D01*
X020254Y005755D01*
X019891Y005937D02*
X019830Y005876D01*
X019648Y005876D01*
X019648Y005755D02*
X019648Y006119D01*
X019830Y006119D01*
X019891Y006059D01*
X019891Y005937D01*
X024348Y010551D02*
X024445Y010647D01*
X024348Y010744D01*
X024638Y010744D01*
X024638Y010845D02*
X024638Y010942D01*
X024638Y010894D02*
X024348Y010894D01*
X024348Y010942D02*
X024348Y010845D01*
X024396Y011042D02*
X024590Y011042D01*
X024638Y011090D01*
X024638Y011187D01*
X024590Y011235D01*
X024638Y011336D02*
X024348Y011336D01*
X024348Y011482D01*
X024396Y011530D01*
X024493Y011530D01*
X024542Y011482D01*
X024542Y011336D01*
X024542Y011433D02*
X024638Y011530D01*
X024590Y011631D02*
X024638Y011679D01*
X024638Y011776D01*
X024590Y011825D01*
X024396Y011825D01*
X024348Y011776D01*
X024348Y011679D01*
X024396Y011631D01*
X024590Y011631D01*
X024590Y011926D02*
X024638Y011974D01*
X024638Y012071D01*
X024590Y012119D01*
X024542Y012119D01*
X024493Y012071D01*
X024493Y011974D01*
X024445Y011926D01*
X024396Y011926D01*
X024348Y011974D01*
X024348Y012071D01*
X024396Y012119D01*
X024348Y012220D02*
X024348Y012365D01*
X024396Y012414D01*
X024590Y012414D01*
X024638Y012365D01*
X024638Y012220D01*
X024348Y012220D01*
X024396Y011235D02*
X024348Y011187D01*
X024348Y011090D01*
X024396Y011042D01*
X024348Y010551D02*
X024638Y010551D01*
X021651Y016354D02*
X021712Y016414D01*
X021712Y016536D01*
X021651Y016596D01*
X021591Y016596D01*
X021530Y016536D01*
X021530Y016414D01*
X021469Y016354D01*
X021409Y016354D01*
X021348Y016414D01*
X021348Y016536D01*
X021409Y016596D01*
X021348Y016716D02*
X021348Y016898D01*
X021409Y016959D01*
X021651Y016959D01*
X021712Y016898D01*
X021712Y016716D01*
X021348Y016716D01*
X020972Y016730D02*
X020972Y016973D01*
X020972Y017092D02*
X020972Y017335D01*
X020972Y017214D02*
X020608Y017214D01*
X020729Y017092D01*
X020608Y016851D02*
X020972Y016851D01*
X020972Y016610D02*
X020851Y016489D01*
X020851Y016549D02*
X020851Y016367D01*
X020972Y016367D02*
X020608Y016367D01*
X020608Y016549D01*
X020669Y016610D01*
X020790Y016610D01*
X020851Y016549D01*
X020729Y016730D02*
X020608Y016851D01*
X021348Y017441D02*
X021712Y017441D01*
X021712Y017684D01*
X021773Y017321D02*
X021773Y017079D01*
D12*
X008172Y008630D02*
X008172Y005638D01*
X010495Y005638D01*
X010495Y008630D01*
X010121Y008630D01*
X010121Y008000D01*
X008546Y008000D02*
X008546Y008630D01*
X008172Y008630D01*
X008623Y011339D02*
X006043Y011339D01*
X006043Y012661D01*
X008623Y012661D01*
X008623Y011339D01*
X013203Y016244D02*
X013105Y016343D01*
X013105Y021461D01*
X013400Y021756D01*
X018518Y021756D01*
X018617Y021657D01*
X018617Y016343D01*
X018518Y016244D01*
X013203Y016244D01*
X015625Y014756D02*
X015625Y014244D01*
X015664Y014244D01*
X015664Y014756D02*
X015625Y014756D01*
X017003Y014756D02*
X017062Y014756D01*
X017062Y014244D01*
X017003Y014244D01*
X021833Y014512D02*
X021833Y012583D01*
X021833Y011520D02*
X021833Y010339D01*
X021833Y009276D02*
X021833Y009000D01*
X026597Y009000D01*
X027188Y009630D02*
X027188Y012937D01*
X027187Y012937D02*
X027190Y012975D01*
X027196Y013013D01*
X027206Y013050D01*
X027220Y013086D01*
X027236Y013121D01*
X027256Y013153D01*
X027279Y013184D01*
X027305Y013213D01*
X027334Y013239D01*
X027365Y013262D01*
X027397Y013282D01*
X027432Y013298D01*
X027468Y013312D01*
X027505Y013322D01*
X027543Y013328D01*
X027581Y013331D01*
X027613Y013330D01*
X027644Y013334D01*
X027675Y013341D01*
X027705Y013352D01*
X027733Y013366D01*
X027759Y013384D01*
X027783Y013405D01*
X027804Y013429D01*
X027822Y013455D01*
X027836Y013483D01*
X027847Y013513D01*
X027854Y013544D01*
X027858Y013575D01*
X027857Y013607D01*
X027857Y013606D02*
X027857Y013921D01*
X027030Y014512D02*
X021833Y014512D01*
X022733Y015350D02*
X022733Y015850D01*
X022983Y016100D01*
X024483Y016100D01*
X024733Y016350D01*
X024733Y016850D01*
X024483Y017100D01*
X022983Y017100D01*
X022733Y017350D01*
X022733Y017850D01*
X022983Y018100D01*
X024483Y018100D01*
X024733Y017850D01*
X024733Y017350D01*
X024483Y017100D01*
X024483Y016100D02*
X024733Y015850D01*
X024733Y015350D01*
X024483Y015100D01*
X022983Y015100D01*
X022733Y015350D01*
X022983Y016100D02*
X022733Y016350D01*
X022733Y016850D01*
X022983Y017100D01*
X024865Y015850D02*
X024865Y015350D01*
X026933Y020500D02*
X026683Y020750D01*
X026683Y021250D01*
X026933Y021500D01*
X026683Y021750D01*
X026683Y022250D01*
X026933Y022500D01*
X026683Y022750D01*
X026683Y023250D01*
X026933Y023500D01*
X026683Y023750D01*
X026683Y024250D01*
X026933Y024500D01*
X026683Y024750D01*
X026683Y025250D01*
X026933Y025500D01*
X027433Y025500D01*
X027683Y025250D01*
X027683Y024750D01*
X027433Y024500D01*
X027683Y024250D01*
X027683Y023750D01*
X027433Y023500D01*
X027683Y023250D01*
X027683Y022750D01*
X027433Y022500D01*
X027683Y022250D01*
X027683Y021750D01*
X027433Y021500D01*
X027683Y021250D01*
X027683Y020750D01*
X027433Y020500D01*
X026933Y020500D01*
X022703Y021000D02*
X022705Y021050D01*
X022711Y021100D01*
X022721Y021149D01*
X022735Y021197D01*
X022752Y021244D01*
X022773Y021289D01*
X022798Y021333D01*
X022826Y021374D01*
X022858Y021413D01*
X022892Y021450D01*
X022929Y021484D01*
X022969Y021514D01*
X023011Y021541D01*
X023055Y021565D01*
X023101Y021586D01*
X023148Y021602D01*
X023196Y021615D01*
X023246Y021624D01*
X023295Y021629D01*
X023346Y021630D01*
X023396Y021627D01*
X023445Y021620D01*
X023494Y021609D01*
X023542Y021594D01*
X023588Y021576D01*
X023633Y021554D01*
X023676Y021528D01*
X023717Y021499D01*
X023756Y021467D01*
X023792Y021432D01*
X023824Y021394D01*
X023854Y021354D01*
X023881Y021311D01*
X023904Y021267D01*
X023923Y021221D01*
X023939Y021173D01*
X023951Y021124D01*
X023959Y021075D01*
X023963Y021025D01*
X023963Y020975D01*
X023959Y020925D01*
X023951Y020876D01*
X023939Y020827D01*
X023923Y020779D01*
X023904Y020733D01*
X023881Y020689D01*
X023854Y020646D01*
X023824Y020606D01*
X023792Y020568D01*
X023756Y020533D01*
X023717Y020501D01*
X023676Y020472D01*
X023633Y020446D01*
X023588Y020424D01*
X023542Y020406D01*
X023494Y020391D01*
X023445Y020380D01*
X023396Y020373D01*
X023346Y020370D01*
X023295Y020371D01*
X023246Y020376D01*
X023196Y020385D01*
X023148Y020398D01*
X023101Y020414D01*
X023055Y020435D01*
X023011Y020459D01*
X022969Y020486D01*
X022929Y020516D01*
X022892Y020550D01*
X022858Y020587D01*
X022826Y020626D01*
X022798Y020667D01*
X022773Y020711D01*
X022752Y020756D01*
X022735Y020803D01*
X022721Y020851D01*
X022711Y020900D01*
X022705Y020950D01*
X022703Y021000D01*
X018819Y023551D02*
X018819Y023890D01*
X018364Y024040D02*
X018153Y024040D01*
X017699Y023890D02*
X017699Y023551D01*
X022703Y027000D02*
X022705Y027050D01*
X022711Y027100D01*
X022721Y027149D01*
X022735Y027197D01*
X022752Y027244D01*
X022773Y027289D01*
X022798Y027333D01*
X022826Y027374D01*
X022858Y027413D01*
X022892Y027450D01*
X022929Y027484D01*
X022969Y027514D01*
X023011Y027541D01*
X023055Y027565D01*
X023101Y027586D01*
X023148Y027602D01*
X023196Y027615D01*
X023246Y027624D01*
X023295Y027629D01*
X023346Y027630D01*
X023396Y027627D01*
X023445Y027620D01*
X023494Y027609D01*
X023542Y027594D01*
X023588Y027576D01*
X023633Y027554D01*
X023676Y027528D01*
X023717Y027499D01*
X023756Y027467D01*
X023792Y027432D01*
X023824Y027394D01*
X023854Y027354D01*
X023881Y027311D01*
X023904Y027267D01*
X023923Y027221D01*
X023939Y027173D01*
X023951Y027124D01*
X023959Y027075D01*
X023963Y027025D01*
X023963Y026975D01*
X023959Y026925D01*
X023951Y026876D01*
X023939Y026827D01*
X023923Y026779D01*
X023904Y026733D01*
X023881Y026689D01*
X023854Y026646D01*
X023824Y026606D01*
X023792Y026568D01*
X023756Y026533D01*
X023717Y026501D01*
X023676Y026472D01*
X023633Y026446D01*
X023588Y026424D01*
X023542Y026406D01*
X023494Y026391D01*
X023445Y026380D01*
X023396Y026373D01*
X023346Y026370D01*
X023295Y026371D01*
X023246Y026376D01*
X023196Y026385D01*
X023148Y026398D01*
X023101Y026414D01*
X023055Y026435D01*
X023011Y026459D01*
X022969Y026486D01*
X022929Y026516D01*
X022892Y026550D01*
X022858Y026587D01*
X022826Y026626D01*
X022798Y026667D01*
X022773Y026711D01*
X022752Y026756D01*
X022735Y026803D01*
X022721Y026851D01*
X022711Y026900D01*
X022705Y026950D01*
X022703Y027000D01*
X010522Y021500D02*
X010122Y021500D01*
X010322Y021700D02*
X010322Y021300D01*
X011251Y020968D02*
X011229Y020879D01*
X011203Y020791D01*
X011173Y020704D01*
X011140Y020619D01*
X011103Y020535D01*
X011063Y020452D01*
X011019Y020372D01*
X010972Y020293D01*
X010921Y020216D01*
X010868Y020142D01*
X010811Y020070D01*
X010751Y020000D01*
X010689Y019933D01*
X010624Y019868D01*
X010556Y019807D01*
X010485Y019748D01*
X010412Y019692D01*
X010337Y019640D01*
X010260Y019590D01*
X010180Y019544D01*
X010099Y019502D01*
X010016Y019462D01*
X009931Y019427D01*
X009845Y019394D01*
X009758Y019366D01*
X009670Y019341D01*
X009581Y019320D01*
X009490Y019303D01*
X009400Y019289D01*
X009308Y019280D01*
X009217Y019274D01*
X009125Y019272D01*
X009033Y019274D01*
X008942Y019280D01*
X008850Y019289D01*
X008760Y019303D01*
X008669Y019320D01*
X008580Y019341D01*
X008492Y019366D01*
X008405Y019394D01*
X008319Y019427D01*
X008234Y019462D01*
X008151Y019502D01*
X008070Y019544D01*
X007990Y019590D01*
X007913Y019640D01*
X007838Y019692D01*
X007765Y019748D01*
X007694Y019807D01*
X007626Y019868D01*
X007561Y019933D01*
X007499Y020000D01*
X007439Y020070D01*
X007382Y020142D01*
X007329Y020216D01*
X007278Y020293D01*
X007231Y020372D01*
X007187Y020452D01*
X007147Y020535D01*
X007110Y020619D01*
X007077Y020704D01*
X007047Y020791D01*
X007021Y020879D01*
X006999Y020968D01*
X006999Y020969D02*
X006467Y020969D01*
X006467Y022031D01*
X006999Y022031D01*
X007759Y021500D02*
X008159Y021500D01*
X006999Y022032D02*
X007021Y022121D01*
X007047Y022209D01*
X007077Y022296D01*
X007110Y022381D01*
X007147Y022465D01*
X007187Y022548D01*
X007231Y022628D01*
X007278Y022707D01*
X007329Y022784D01*
X007382Y022858D01*
X007439Y022930D01*
X007499Y023000D01*
X007561Y023067D01*
X007626Y023132D01*
X007694Y023193D01*
X007765Y023252D01*
X007838Y023308D01*
X007913Y023360D01*
X007990Y023410D01*
X008070Y023456D01*
X008151Y023498D01*
X008234Y023538D01*
X008319Y023573D01*
X008405Y023606D01*
X008492Y023634D01*
X008580Y023659D01*
X008669Y023680D01*
X008760Y023697D01*
X008850Y023711D01*
X008942Y023720D01*
X009033Y023726D01*
X009125Y023728D01*
X009217Y023726D01*
X009308Y023720D01*
X009400Y023711D01*
X009490Y023697D01*
X009581Y023680D01*
X009670Y023659D01*
X009758Y023634D01*
X009845Y023606D01*
X009931Y023573D01*
X010016Y023538D01*
X010099Y023498D01*
X010180Y023456D01*
X010260Y023410D01*
X010337Y023360D01*
X010412Y023308D01*
X010485Y023252D01*
X010556Y023193D01*
X010624Y023132D01*
X010689Y023067D01*
X010751Y023000D01*
X010811Y022930D01*
X010868Y022858D01*
X010921Y022784D01*
X010972Y022707D01*
X011019Y022628D01*
X011063Y022548D01*
X011103Y022465D01*
X011140Y022381D01*
X011173Y022296D01*
X011203Y022209D01*
X011229Y022121D01*
X011251Y022032D01*
D13*
X013597Y021264D03*
D14*
X014459Y021264D02*
X014675Y021264D01*
X014675Y021318D02*
X014675Y021102D01*
X014675Y021318D02*
X014567Y021426D01*
X014459Y021318D01*
X014459Y021102D01*
X014929Y021102D02*
X014929Y021426D01*
X014821Y021426D02*
X015037Y021426D01*
X015184Y021426D02*
X015292Y021318D01*
X015400Y021426D01*
X015400Y021102D01*
X015546Y021102D02*
X015762Y021102D01*
X015909Y021156D02*
X015963Y021102D01*
X016071Y021102D01*
X016125Y021156D01*
X016125Y021264D01*
X016017Y021264D01*
X016125Y021372D02*
X016071Y021426D01*
X015963Y021426D01*
X015909Y021372D01*
X015909Y021156D01*
X015654Y021264D02*
X015546Y021264D01*
X015546Y021426D02*
X015546Y021102D01*
X015546Y021426D02*
X015762Y021426D01*
X016271Y021318D02*
X016271Y021102D01*
X016271Y021264D02*
X016487Y021264D01*
X016487Y021318D02*
X016487Y021102D01*
X016634Y021102D02*
X016850Y021102D01*
X016742Y021102D02*
X016742Y021426D01*
X016634Y021318D01*
X016487Y021318D02*
X016379Y021426D01*
X016271Y021318D01*
X016996Y021372D02*
X017050Y021426D01*
X017158Y021426D01*
X017212Y021372D01*
X017212Y021318D01*
X016996Y021102D01*
X017212Y021102D01*
X017359Y021156D02*
X017359Y021210D01*
X017413Y021264D01*
X017521Y021264D01*
X017575Y021210D01*
X017575Y021156D01*
X017521Y021102D01*
X017413Y021102D01*
X017359Y021156D01*
X017413Y021264D02*
X017359Y021318D01*
X017359Y021372D01*
X017413Y021426D01*
X017521Y021426D01*
X017575Y021372D01*
X017575Y021318D01*
X017521Y021264D01*
X017722Y021372D02*
X017776Y021426D01*
X017883Y021426D01*
X017937Y021372D01*
X017722Y021156D01*
X017776Y021102D01*
X017883Y021102D01*
X017937Y021156D01*
X017937Y021372D01*
X017722Y021372D02*
X017722Y021156D01*
X015184Y021102D02*
X015184Y021426D01*
X009394Y022684D02*
X009178Y022684D01*
X009286Y022684D02*
X009286Y022360D01*
X009032Y022360D02*
X009032Y022576D01*
X008924Y022684D01*
X008816Y022576D01*
X008816Y022360D01*
X008669Y022414D02*
X008615Y022360D01*
X008453Y022360D01*
X008453Y022684D01*
X008615Y022684D01*
X008669Y022630D01*
X008669Y022576D01*
X008615Y022522D01*
X008453Y022522D01*
X008615Y022522D02*
X008669Y022468D01*
X008669Y022414D01*
X008816Y022522D02*
X009032Y022522D01*
X007668Y012280D02*
X007560Y012280D01*
X007506Y012226D01*
X007614Y012118D02*
X007668Y012118D01*
X007722Y012064D01*
X007722Y012010D01*
X007668Y011956D01*
X007560Y011956D01*
X007506Y012010D01*
X007359Y012064D02*
X007359Y012280D01*
X007143Y012280D02*
X007143Y012064D01*
X007251Y011956D01*
X007359Y012064D01*
X007668Y012118D02*
X007722Y012172D01*
X007722Y012226D01*
X007668Y012280D01*
X006997Y012226D02*
X006997Y012172D01*
X006943Y012118D01*
X006997Y012064D01*
X006997Y012010D01*
X006943Y011956D01*
X006835Y011956D01*
X006781Y012010D01*
X006889Y012118D02*
X006943Y012118D01*
X006997Y012226D02*
X006943Y012280D01*
X006835Y012280D01*
X006781Y012226D01*
D15*
X016794Y006500D03*
X018294Y006500D03*
X020373Y006500D03*
X021794Y006500D03*
X021597Y015539D03*
D16*
X022188Y017167D02*
X022188Y017285D01*
X022188Y017226D02*
X022542Y017226D01*
X022542Y017167D02*
X022542Y017285D01*
X022483Y017409D02*
X022542Y017468D01*
X022542Y017586D01*
X022483Y017645D01*
X022424Y017645D01*
X022365Y017586D01*
X022365Y017468D01*
X022306Y017409D01*
X022247Y017409D01*
X022188Y017468D01*
X022188Y017586D01*
X022247Y017645D01*
X022188Y017771D02*
X022188Y017948D01*
X022247Y018007D01*
X022365Y018007D01*
X022424Y017948D01*
X022424Y017771D01*
X022542Y017771D02*
X022188Y017771D01*
X017737Y013117D02*
X017660Y013117D01*
X017583Y013040D01*
X017583Y012886D01*
X017506Y012810D01*
X017430Y012810D01*
X017353Y012886D01*
X017353Y013040D01*
X017430Y013117D01*
X017506Y013117D01*
X017583Y013040D01*
X017583Y012886D02*
X017660Y012810D01*
X017737Y012810D01*
X017813Y012886D01*
X017813Y013040D01*
X017737Y013117D01*
X017813Y012656D02*
X017660Y012503D01*
X017660Y012579D02*
X017660Y012349D01*
X017813Y012349D02*
X017353Y012349D01*
X017353Y012579D01*
X017430Y012656D01*
X017583Y012656D01*
X017660Y012579D01*
X017933Y005980D02*
X018163Y005980D01*
X018239Y005904D01*
X018239Y005750D01*
X018163Y005673D01*
X017933Y005673D01*
X017933Y005520D02*
X017933Y005980D01*
X018086Y005673D02*
X018239Y005520D01*
X018393Y005520D02*
X018700Y005980D01*
X018393Y005980D02*
X018700Y005520D01*
X017200Y005520D02*
X016893Y005980D01*
X016739Y005980D02*
X016433Y005980D01*
X016586Y005980D02*
X016586Y005520D01*
X016893Y005520D02*
X017200Y005980D01*
X015871Y024410D02*
X015635Y024410D01*
X015635Y024764D01*
X015871Y024764D01*
X015753Y024587D02*
X015635Y024587D01*
X015508Y024410D02*
X015272Y024410D01*
X015272Y024764D01*
X015146Y024705D02*
X015146Y024646D01*
X015087Y024587D01*
X014910Y024587D01*
X015087Y024587D02*
X015146Y024528D01*
X015146Y024469D01*
X015087Y024410D01*
X014910Y024410D01*
X014910Y024764D01*
X015087Y024764D01*
X015146Y024705D01*
X012017Y024705D02*
X012017Y024469D01*
X011958Y024410D01*
X011840Y024410D01*
X011781Y024469D01*
X011781Y024705D01*
X011840Y024764D01*
X011958Y024764D01*
X012017Y024705D01*
X011654Y024705D02*
X011595Y024764D01*
X011477Y024764D01*
X011418Y024705D01*
X011418Y024469D01*
X011477Y024410D01*
X011595Y024410D01*
X011654Y024469D01*
X011292Y024410D02*
X011292Y024764D01*
X011056Y024764D02*
X011056Y024410D01*
X010929Y024410D02*
X010929Y024646D01*
X010811Y024764D01*
X010693Y024646D01*
X010693Y024410D01*
X010567Y024469D02*
X010508Y024410D01*
X010331Y024410D01*
X010331Y024764D01*
X010508Y024764D01*
X010567Y024705D01*
X010567Y024646D01*
X010508Y024587D01*
X010331Y024587D01*
X010508Y024587D02*
X010567Y024528D01*
X010567Y024469D01*
X010693Y024587D02*
X010929Y024587D01*
X011056Y024764D02*
X011292Y024410D01*
X006792Y024469D02*
X006733Y024410D01*
X006615Y024410D01*
X006556Y024469D01*
X006615Y024587D02*
X006556Y024646D01*
X006556Y024705D01*
X006615Y024764D01*
X006733Y024764D01*
X006792Y024705D01*
X006733Y024587D02*
X006792Y024528D01*
X006792Y024469D01*
X006733Y024587D02*
X006615Y024587D01*
X006429Y024587D02*
X006370Y024528D01*
X006193Y024528D01*
X006193Y024410D02*
X006193Y024764D01*
X006370Y024764D01*
X006429Y024705D01*
X006429Y024587D01*
X006067Y024587D02*
X006067Y024469D01*
X006008Y024410D01*
X005890Y024410D01*
X005831Y024469D01*
X005831Y024705D01*
X005890Y024764D01*
X006008Y024764D01*
X006067Y024705D01*
X006067Y024587D02*
X005949Y024587D01*
D17*
X005865Y025106D02*
X005865Y025894D01*
X010365Y025894D02*
X010365Y025106D01*
X014865Y025106D02*
X014865Y025894D01*
X027778Y022130D02*
X027778Y021830D01*
X027853Y021755D01*
X028003Y021755D01*
X028078Y021830D01*
X028078Y022130D02*
X028003Y022205D01*
X027853Y022205D01*
X027778Y022130D01*
X025916Y008689D02*
X023790Y008689D01*
X023769Y008691D01*
X023748Y008689D01*
X023728Y008683D01*
X023709Y008674D01*
X023692Y008662D01*
X023677Y008647D01*
X023666Y008630D01*
X023657Y008611D01*
X023652Y008591D01*
X023652Y008433D01*
X024243Y008295D02*
X024243Y007705D01*
X025424Y007705D01*
X025424Y008295D01*
X024243Y008295D01*
X023652Y007567D02*
X023652Y007409D01*
X023653Y007409D02*
X023654Y007392D01*
X023659Y007375D01*
X023666Y007360D01*
X023676Y007346D01*
X023688Y007334D01*
X023702Y007324D01*
X023717Y007317D01*
X023734Y007312D01*
X023751Y007311D01*
X025916Y007311D01*
X025933Y007312D01*
X025950Y007317D01*
X025965Y007324D01*
X025979Y007334D01*
X025991Y007346D01*
X026001Y007360D01*
X026008Y007375D01*
X026013Y007392D01*
X026014Y007409D01*
X026014Y007567D01*
X026014Y008433D02*
X026014Y008591D01*
X026013Y008608D01*
X026008Y008625D01*
X026001Y008640D01*
X025991Y008654D01*
X025979Y008666D01*
X025965Y008676D01*
X025950Y008683D01*
X025933Y008688D01*
X025916Y008689D01*
X014853Y008567D02*
X014853Y005024D01*
X011782Y005024D01*
X011782Y008567D01*
X014853Y008567D01*
X013613Y007189D02*
X013022Y007189D01*
X012825Y005220D01*
X012530Y005220D02*
X012727Y006992D01*
X011940Y006992D02*
X012136Y005220D01*
X012530Y005220D01*
X013810Y005220D02*
X013613Y007189D01*
X013908Y006795D02*
X014105Y005220D01*
X014499Y005220D01*
X014696Y006795D01*
D18*
X014865Y024909D02*
X018802Y024909D01*
X018802Y026130D01*
X014865Y026130D01*
X014865Y024909D01*
X014302Y024909D02*
X010365Y024909D01*
X010365Y026130D01*
X014302Y026130D01*
X014302Y028807D01*
X013436Y028807D01*
X013436Y028413D01*
X011231Y028413D01*
X011231Y028807D01*
X010365Y028807D01*
X010365Y026130D01*
X009802Y026130D02*
X005865Y026130D01*
X005865Y024909D01*
X009802Y024909D01*
X009802Y026130D01*
X009802Y028807D01*
X008936Y028807D01*
X008936Y028413D01*
X006731Y028413D01*
X006731Y028807D01*
X005865Y028807D01*
X005865Y026130D01*
X014302Y026130D02*
X014302Y024909D01*
X014865Y026130D02*
X014865Y028807D01*
X015731Y028807D01*
X015731Y028413D01*
X017936Y028413D01*
X017936Y028807D01*
X018802Y028807D01*
X018802Y026130D01*
D19*
X009766Y005920D02*
X009716Y005920D01*
X009691Y005895D01*
X009644Y005895D02*
X009644Y005845D01*
X009619Y005820D01*
X009544Y005820D01*
X009544Y005770D02*
X009544Y005920D01*
X009619Y005920D01*
X009644Y005895D01*
X009766Y005920D02*
X009791Y005895D01*
X009791Y005870D01*
X009691Y005770D01*
X009791Y005770D01*
X009471Y005795D02*
X009471Y005920D01*
X009446Y005920D02*
X009496Y005920D01*
X009471Y005795D02*
X009446Y005770D01*
X009421Y005770D01*
X009396Y005795D01*
D20*
X023722Y007019D02*
X023769Y006973D01*
X023862Y006973D01*
X023909Y007019D01*
X023909Y007066D01*
X023862Y007113D01*
X023769Y007113D01*
X023722Y007159D01*
X023722Y007206D01*
X023769Y007253D01*
X023862Y007253D01*
X023909Y007206D01*
X023998Y007159D02*
X024092Y007253D01*
X024092Y006973D01*
X024185Y006973D02*
X023998Y006973D01*
M02*
