G75*
%MOIN*%
%OFA0B0*%
%FSLAX24Y24*%
%IPPOS*%
%LPD*%
%AMOC8*
5,1,8,0,0,1.08239X$1,22.5*
%
%ADD10C,0.0050*%
%ADD11C,0.1040*%
%ADD12R,0.0670X0.0552*%
%ADD13R,0.0552X0.0631*%
%ADD14R,0.0552X0.0670*%
%ADD15R,0.0906X0.0276*%
%ADD16C,0.0158*%
%ADD17R,0.0512X0.0512*%
%ADD18OC8,0.0800*%
%ADD19OC8,0.0780*%
%ADD20R,0.0177X0.0590*%
%ADD21R,0.0631X0.0552*%
%ADD22C,0.0555*%
%ADD23C,0.1162*%
%ADD24R,0.0520X0.0920*%
%ADD25R,0.1457X0.0906*%
%ADD26R,0.0591X0.0749*%
%ADD27R,0.0788X0.0591*%
%ADD28R,0.0631X0.0355*%
%ADD29R,0.0749X0.0670*%
%ADD30R,0.0257X0.0512*%
%ADD31R,0.0555X0.0555*%
%ADD32R,0.0316X0.0709*%
%ADD33C,0.0610*%
%ADD34C,0.2340*%
%ADD35R,0.0946X0.0670*%
%ADD36C,0.0780*%
D10*
X020558Y019000D02*
X020558Y023800D01*
X026215Y023800D01*
X026215Y019000D01*
X020558Y019000D01*
X020558Y019032D02*
X026215Y019032D01*
X026215Y019080D02*
X020558Y019080D01*
X020558Y019129D02*
X026215Y019129D01*
X026215Y019177D02*
X020558Y019177D01*
X020558Y019226D02*
X026215Y019226D01*
X026215Y019274D02*
X020558Y019274D01*
X020558Y019323D02*
X026215Y019323D01*
X026215Y019371D02*
X020558Y019371D01*
X020558Y019420D02*
X026215Y019420D01*
X026215Y019468D02*
X020558Y019468D01*
X020558Y019517D02*
X026215Y019517D01*
X026215Y019565D02*
X020558Y019565D01*
X020558Y019614D02*
X026215Y019614D01*
X026215Y019662D02*
X020558Y019662D01*
X020558Y019711D02*
X026215Y019711D01*
X026215Y019759D02*
X020558Y019759D01*
X020558Y019808D02*
X026215Y019808D01*
X026215Y019856D02*
X020558Y019856D01*
X020558Y019905D02*
X026215Y019905D01*
X026215Y019953D02*
X020558Y019953D01*
X020558Y020002D02*
X026215Y020002D01*
X026215Y020050D02*
X020558Y020050D01*
X020558Y020099D02*
X026215Y020099D01*
X026215Y020147D02*
X020558Y020147D01*
X020558Y020196D02*
X026215Y020196D01*
X026215Y020244D02*
X020558Y020244D01*
X020558Y020293D02*
X026215Y020293D01*
X026215Y020341D02*
X020558Y020341D01*
X020558Y020390D02*
X026215Y020390D01*
X026215Y020438D02*
X020558Y020438D01*
X020558Y020487D02*
X026215Y020487D01*
X026215Y020535D02*
X020558Y020535D01*
X020558Y020584D02*
X026215Y020584D01*
X026215Y020632D02*
X020558Y020632D01*
X020558Y020681D02*
X026215Y020681D01*
X026215Y020729D02*
X020558Y020729D01*
X020558Y020778D02*
X026215Y020778D01*
X026215Y020826D02*
X020558Y020826D01*
X020558Y020875D02*
X026215Y020875D01*
X026215Y020923D02*
X020558Y020923D01*
X020558Y020972D02*
X026215Y020972D01*
X026215Y021020D02*
X020558Y021020D01*
X020558Y021069D02*
X026215Y021069D01*
X026215Y021117D02*
X020558Y021117D01*
X020558Y021166D02*
X026215Y021166D01*
X026215Y021214D02*
X020558Y021214D01*
X020558Y021263D02*
X026215Y021263D01*
X026215Y021311D02*
X020558Y021311D01*
X020558Y021360D02*
X026215Y021360D01*
X026215Y021408D02*
X020558Y021408D01*
X020558Y021457D02*
X026215Y021457D01*
X026215Y021505D02*
X020558Y021505D01*
X020558Y021554D02*
X026215Y021554D01*
X026215Y021602D02*
X020558Y021602D01*
X020558Y021651D02*
X026215Y021651D01*
X026215Y021699D02*
X020558Y021699D01*
X020558Y021748D02*
X026215Y021748D01*
X026215Y021796D02*
X020558Y021796D01*
X020558Y021845D02*
X026215Y021845D01*
X026215Y021893D02*
X020558Y021893D01*
X020558Y021942D02*
X026215Y021942D01*
X026215Y021990D02*
X020558Y021990D01*
X020558Y022039D02*
X026215Y022039D01*
X026215Y022087D02*
X020558Y022087D01*
X020558Y022136D02*
X026215Y022136D01*
X026215Y022184D02*
X020558Y022184D01*
X020558Y022233D02*
X026215Y022233D01*
X026215Y022281D02*
X020558Y022281D01*
X020558Y022330D02*
X026215Y022330D01*
X026215Y022378D02*
X020558Y022378D01*
X020558Y022427D02*
X026215Y022427D01*
X026215Y022475D02*
X020558Y022475D01*
X020558Y022524D02*
X026215Y022524D01*
X026215Y022572D02*
X020558Y022572D01*
X020558Y022621D02*
X026215Y022621D01*
X026215Y022669D02*
X020558Y022669D01*
X020558Y022718D02*
X026215Y022718D01*
X026215Y022766D02*
X020558Y022766D01*
X020558Y022815D02*
X026215Y022815D01*
X026215Y022863D02*
X020558Y022863D01*
X020558Y022912D02*
X026215Y022912D01*
X026215Y022960D02*
X020558Y022960D01*
X020558Y023009D02*
X026215Y023009D01*
X026215Y023057D02*
X020558Y023057D01*
X020558Y023106D02*
X026215Y023106D01*
X026215Y023154D02*
X020558Y023154D01*
X020558Y023203D02*
X026215Y023203D01*
X026215Y023251D02*
X020558Y023251D01*
X020558Y023300D02*
X026215Y023300D01*
X026215Y023348D02*
X020558Y023348D01*
X020558Y023397D02*
X026215Y023397D01*
X026215Y023445D02*
X020558Y023445D01*
X020558Y023494D02*
X026215Y023494D01*
X026215Y023542D02*
X020558Y023542D01*
X020558Y023591D02*
X026215Y023591D01*
X026215Y023639D02*
X020558Y023639D01*
X020558Y023688D02*
X026215Y023688D01*
X026215Y023736D02*
X020558Y023736D01*
X020558Y023785D02*
X026215Y023785D01*
X026215Y024200D02*
X020558Y024200D01*
X020558Y026968D01*
X020553Y026968D01*
X020553Y028689D01*
X026215Y028689D01*
X026215Y024200D01*
X026215Y024221D02*
X020558Y024221D01*
X020558Y024270D02*
X026215Y024270D01*
X026215Y024318D02*
X020558Y024318D01*
X020558Y024367D02*
X026215Y024367D01*
X026215Y024415D02*
X020558Y024415D01*
X020558Y024464D02*
X026215Y024464D01*
X026215Y024512D02*
X020558Y024512D01*
X020558Y024561D02*
X026215Y024561D01*
X026215Y024609D02*
X020558Y024609D01*
X020558Y024658D02*
X026215Y024658D01*
X026215Y024706D02*
X020558Y024706D01*
X020558Y024755D02*
X026215Y024755D01*
X026215Y024803D02*
X020558Y024803D01*
X020558Y024852D02*
X026215Y024852D01*
X026215Y024900D02*
X020558Y024900D01*
X020558Y024949D02*
X026215Y024949D01*
X026215Y024997D02*
X020558Y024997D01*
X020558Y025046D02*
X026215Y025046D01*
X026215Y025094D02*
X020558Y025094D01*
X020558Y025143D02*
X026215Y025143D01*
X026215Y025191D02*
X020558Y025191D01*
X020558Y025240D02*
X026215Y025240D01*
X026215Y025288D02*
X020558Y025288D01*
X020558Y025337D02*
X026215Y025337D01*
X026215Y025385D02*
X020558Y025385D01*
X020558Y025434D02*
X026215Y025434D01*
X026215Y025482D02*
X020558Y025482D01*
X020558Y025531D02*
X026215Y025531D01*
X026215Y025579D02*
X020558Y025579D01*
X020558Y025628D02*
X026215Y025628D01*
X026215Y025676D02*
X020558Y025676D01*
X020558Y025725D02*
X026215Y025725D01*
X026215Y025773D02*
X020558Y025773D01*
X020558Y025822D02*
X026215Y025822D01*
X026215Y025870D02*
X020558Y025870D01*
X020558Y025919D02*
X026215Y025919D01*
X026215Y025967D02*
X020558Y025967D01*
X020558Y026016D02*
X026215Y026016D01*
X026215Y026064D02*
X020558Y026064D01*
X020558Y026113D02*
X026215Y026113D01*
X026215Y026161D02*
X020558Y026161D01*
X020558Y026210D02*
X026215Y026210D01*
X026215Y026258D02*
X020558Y026258D01*
X020558Y026307D02*
X026215Y026307D01*
X026215Y026355D02*
X020558Y026355D01*
X020558Y026404D02*
X026215Y026404D01*
X026215Y026452D02*
X020558Y026452D01*
X020558Y026501D02*
X026215Y026501D01*
X026215Y026549D02*
X020558Y026549D01*
X020558Y026598D02*
X026215Y026598D01*
X026215Y026646D02*
X020558Y026646D01*
X020558Y026695D02*
X026215Y026695D01*
X026215Y026743D02*
X020558Y026743D01*
X020558Y026792D02*
X026215Y026792D01*
X026215Y026840D02*
X020558Y026840D01*
X020558Y026889D02*
X026215Y026889D01*
X026215Y026937D02*
X020558Y026937D01*
X020553Y026986D02*
X026215Y026986D01*
X026215Y027034D02*
X020553Y027034D01*
X020553Y027083D02*
X026215Y027083D01*
X026215Y027131D02*
X020553Y027131D01*
X020553Y027180D02*
X026215Y027180D01*
X026215Y027228D02*
X020553Y027228D01*
X020553Y027277D02*
X026215Y027277D01*
X026215Y027325D02*
X020553Y027325D01*
X020553Y027374D02*
X026215Y027374D01*
X026215Y027422D02*
X020553Y027422D01*
X020553Y027471D02*
X026215Y027471D01*
X026215Y027519D02*
X020553Y027519D01*
X020553Y027568D02*
X026215Y027568D01*
X026215Y027616D02*
X020553Y027616D01*
X020553Y027665D02*
X026215Y027665D01*
X026215Y027713D02*
X020553Y027713D01*
X020553Y027762D02*
X026215Y027762D01*
X026215Y027810D02*
X020553Y027810D01*
X020553Y027859D02*
X026215Y027859D01*
X026215Y027907D02*
X020553Y027907D01*
X020553Y027956D02*
X026215Y027956D01*
X026215Y028004D02*
X020553Y028004D01*
X020553Y028053D02*
X026215Y028053D01*
X026215Y028101D02*
X020553Y028101D01*
X020553Y028150D02*
X026215Y028150D01*
X026215Y028198D02*
X020553Y028198D01*
X020553Y028247D02*
X026215Y028247D01*
X026215Y028295D02*
X020553Y028295D01*
X020553Y028344D02*
X026215Y028344D01*
X026215Y028392D02*
X020553Y028392D01*
X020553Y028441D02*
X026215Y028441D01*
X026215Y028489D02*
X020553Y028489D01*
X020553Y028538D02*
X026215Y028538D01*
X026215Y028586D02*
X020553Y028586D01*
X020553Y028635D02*
X026215Y028635D01*
X026215Y028683D02*
X020553Y028683D01*
D11*
X006833Y007000D03*
X006833Y023736D03*
X026683Y006650D03*
X027312Y027917D03*
D12*
X015333Y013394D03*
X015333Y012606D03*
X010333Y012394D03*
X010333Y011606D03*
X009333Y011606D03*
X009333Y012394D03*
X008833Y010394D03*
X008833Y009606D03*
D13*
X016459Y008000D03*
X017207Y008000D03*
X017959Y008000D03*
X018707Y008000D03*
X019959Y008000D03*
X020707Y008000D03*
X021459Y008000D03*
X022207Y008000D03*
X018207Y010000D03*
X017459Y010000D03*
X017459Y011000D03*
X018207Y011000D03*
X017136Y024346D03*
X016388Y024346D03*
D14*
X016369Y023189D03*
X017156Y023189D03*
X009227Y014500D03*
X008440Y014500D03*
X007727Y009200D03*
X006940Y009200D03*
D15*
X007022Y015250D03*
X007022Y015750D03*
X007022Y016250D03*
X007022Y016750D03*
X007022Y017250D03*
X007022Y017750D03*
X007022Y018250D03*
X007022Y018750D03*
X010644Y018750D03*
X010644Y018250D03*
X010644Y017750D03*
X010644Y017250D03*
X010644Y016750D03*
X010644Y016250D03*
X010644Y015750D03*
X010644Y015250D03*
D16*
X012475Y016638D02*
X012947Y016638D01*
X012947Y016835D02*
X012475Y016835D01*
X012475Y017031D02*
X012947Y017031D01*
X012947Y017228D02*
X012475Y017228D01*
X012475Y017425D02*
X012947Y017425D01*
X012947Y017622D02*
X012475Y017622D01*
X012475Y017819D02*
X012947Y017819D01*
X012947Y018016D02*
X012475Y018016D01*
X012475Y018213D02*
X012947Y018213D01*
X012947Y018409D02*
X012475Y018409D01*
X012475Y018606D02*
X012947Y018606D01*
X012947Y018803D02*
X012475Y018803D01*
X012475Y019000D02*
X012947Y019000D01*
X012947Y019197D02*
X012475Y019197D01*
X012475Y019394D02*
X012947Y019394D01*
X012947Y019591D02*
X012475Y019591D01*
X012475Y019787D02*
X012947Y019787D01*
X012947Y019984D02*
X012475Y019984D01*
X012475Y020181D02*
X012947Y020181D01*
X012947Y020378D02*
X012475Y020378D01*
X012475Y020575D02*
X012947Y020575D01*
X012947Y020772D02*
X012475Y020772D01*
X012475Y020969D02*
X012947Y020969D01*
X012947Y021165D02*
X012475Y021165D01*
X012475Y021362D02*
X012947Y021362D01*
X013499Y021914D02*
X013499Y022386D01*
X013696Y022386D02*
X013696Y021914D01*
X013892Y021914D02*
X013892Y022386D01*
X014089Y022386D02*
X014089Y021914D01*
X014286Y021914D02*
X014286Y022386D01*
X014483Y022386D02*
X014483Y021914D01*
X014680Y021914D02*
X014680Y022386D01*
X014877Y022386D02*
X014877Y021914D01*
X015073Y021914D02*
X015073Y022386D01*
X015270Y022386D02*
X015270Y021914D01*
X015467Y021914D02*
X015467Y022386D01*
X015664Y022386D02*
X015664Y021914D01*
X015861Y021914D02*
X015861Y022386D01*
X016058Y022386D02*
X016058Y021914D01*
X016255Y021914D02*
X016255Y022386D01*
X016451Y022386D02*
X016451Y021914D01*
X016648Y021914D02*
X016648Y022386D01*
X016845Y022386D02*
X016845Y021914D01*
X017042Y021914D02*
X017042Y022386D01*
X017239Y022386D02*
X017239Y021914D01*
X017436Y021914D02*
X017436Y022386D01*
X017633Y022386D02*
X017633Y021914D01*
X017829Y021914D02*
X017829Y022386D01*
X018026Y022386D02*
X018026Y021914D01*
X018223Y021914D02*
X018223Y022386D01*
X018774Y021362D02*
X019246Y021362D01*
X019246Y021165D02*
X018774Y021165D01*
X018774Y020969D02*
X019246Y020969D01*
X019246Y020772D02*
X018774Y020772D01*
X018774Y020575D02*
X019246Y020575D01*
X019246Y020378D02*
X018774Y020378D01*
X018774Y020181D02*
X019246Y020181D01*
X019246Y019984D02*
X018774Y019984D01*
X018774Y019787D02*
X019246Y019787D01*
X019246Y019591D02*
X018774Y019591D01*
X018774Y019394D02*
X019246Y019394D01*
X019246Y019197D02*
X018774Y019197D01*
X018774Y019000D02*
X019246Y019000D01*
X019246Y018803D02*
X018774Y018803D01*
X018774Y018606D02*
X019246Y018606D01*
X019246Y018409D02*
X018774Y018409D01*
X018774Y018213D02*
X019246Y018213D01*
X019246Y018016D02*
X018774Y018016D01*
X018774Y017819D02*
X019246Y017819D01*
X019246Y017622D02*
X018774Y017622D01*
X018774Y017425D02*
X019246Y017425D01*
X019246Y017228D02*
X018774Y017228D01*
X018774Y017031D02*
X019246Y017031D01*
X019246Y016835D02*
X018774Y016835D01*
X018774Y016638D02*
X019246Y016638D01*
X018223Y016086D02*
X018223Y015614D01*
X018026Y015614D02*
X018026Y016086D01*
X017829Y016086D02*
X017829Y015614D01*
X017633Y015614D02*
X017633Y016086D01*
X017436Y016086D02*
X017436Y015614D01*
X017239Y015614D02*
X017239Y016086D01*
X017042Y016086D02*
X017042Y015614D01*
X016845Y015614D02*
X016845Y016086D01*
X016648Y016086D02*
X016648Y015614D01*
X016451Y015614D02*
X016451Y016086D01*
X016255Y016086D02*
X016255Y015614D01*
X016058Y015614D02*
X016058Y016086D01*
X015861Y016086D02*
X015861Y015614D01*
X015664Y015614D02*
X015664Y016086D01*
X015467Y016086D02*
X015467Y015614D01*
X015270Y015614D02*
X015270Y016086D01*
X015073Y016086D02*
X015073Y015614D01*
X014877Y015614D02*
X014877Y016086D01*
X014680Y016086D02*
X014680Y015614D01*
X014483Y015614D02*
X014483Y016086D01*
X014286Y016086D02*
X014286Y015614D01*
X014089Y015614D02*
X014089Y016086D01*
X013892Y016086D02*
X013892Y015614D01*
X013696Y015614D02*
X013696Y016086D01*
X013499Y016086D02*
X013499Y015614D01*
D17*
X021597Y015913D03*
X021597Y015087D03*
X021420Y006500D03*
X020747Y006500D03*
X019920Y006500D03*
X018747Y006500D03*
X017920Y006500D03*
X017247Y006500D03*
X016420Y006500D03*
X022247Y006500D03*
D18*
X011093Y021500D03*
X007156Y021500D03*
D19*
X023233Y017600D03*
X023233Y016600D03*
X023233Y015600D03*
X024233Y015600D03*
X024233Y016600D03*
X024233Y017600D03*
D20*
X014497Y012439D03*
X014241Y012439D03*
X013985Y012439D03*
X013729Y012439D03*
X013473Y012439D03*
X013217Y012439D03*
X012961Y012439D03*
X012705Y012439D03*
X012449Y012439D03*
X012194Y012439D03*
X011938Y012439D03*
X011682Y012439D03*
X011426Y012439D03*
X011170Y012439D03*
X011170Y009561D03*
X011426Y009561D03*
X011682Y009561D03*
X011938Y009561D03*
X012194Y009561D03*
X012449Y009561D03*
X012705Y009561D03*
X012961Y009561D03*
X013217Y009561D03*
X013473Y009561D03*
X013729Y009561D03*
X013985Y009561D03*
X014241Y009561D03*
X014497Y009561D03*
D21*
X016833Y012626D03*
X016833Y013374D03*
X020833Y015126D03*
X020833Y015874D03*
X012833Y014374D03*
X012833Y013626D03*
X011833Y013626D03*
X011833Y014374D03*
X013552Y023626D03*
X014295Y023626D03*
X014295Y024374D03*
X013552Y024374D03*
D22*
X013514Y025500D03*
X012727Y025500D03*
X011940Y025500D03*
X009014Y025500D03*
X008227Y025500D03*
X007440Y025500D03*
X016440Y025500D03*
X017227Y025500D03*
X018014Y025500D03*
X013948Y008508D03*
X013633Y008035D03*
X013318Y008508D03*
X013003Y008035D03*
X012688Y008508D03*
D23*
X011881Y006500D03*
X014755Y006500D03*
D24*
X008243Y013220D03*
X007333Y013220D03*
X006423Y013220D03*
D25*
X007333Y010780D03*
D26*
X021991Y009807D03*
X021991Y012051D03*
D27*
X027168Y009177D03*
X027562Y014354D03*
D28*
X026046Y012520D03*
X025888Y012087D03*
X026046Y011654D03*
X026125Y011220D03*
X026046Y010787D03*
X026125Y010354D03*
X026046Y009921D03*
X026046Y009488D03*
D29*
X023333Y023449D03*
X023333Y024551D03*
D30*
X018633Y024232D03*
X017885Y024232D03*
X017885Y023209D03*
X018259Y023209D03*
X018633Y023209D03*
D31*
X015652Y025500D03*
X011152Y025500D03*
X006652Y025500D03*
D32*
X015861Y014500D03*
X016333Y014500D03*
X016806Y014500D03*
D33*
X009727Y008000D03*
X008940Y008000D03*
D34*
X023333Y021000D03*
X023333Y027000D03*
D35*
X023593Y008000D03*
X026073Y008000D03*
D36*
X027183Y021000D03*
X027183Y022000D03*
X027183Y023000D03*
X027183Y024000D03*
X027183Y025000D03*
M02*
