G75*
%MOIN*%
%OFA0B0*%
%FSLAX24Y24*%
%IPPOS*%
%LPD*%
%AMOC8*
5,1,8,0,0,1.08239X$1,22.5*
%
%ADD10C,0.0050*%
%ADD11R,0.0630X0.0512*%
%ADD12R,0.0512X0.0591*%
%ADD13R,0.0512X0.0630*%
%ADD14R,0.0866X0.0236*%
%ADD15C,0.0118*%
%ADD16R,0.0472X0.0472*%
%ADD17OC8,0.0760*%
%ADD18OC8,0.0740*%
%ADD19R,0.0137X0.0550*%
%ADD20R,0.0591X0.0512*%
%ADD21C,0.0515*%
%ADD22C,0.1122*%
%ADD23R,0.0480X0.0880*%
%ADD24R,0.1417X0.0866*%
%ADD25R,0.0551X0.0709*%
%ADD26R,0.0748X0.0551*%
%ADD27R,0.0591X0.0315*%
%ADD28R,0.0515X0.0515*%
%ADD29R,0.0276X0.0669*%
%ADD30C,0.3543*%
%ADD31R,0.0906X0.0630*%
%ADD32C,0.0740*%
%ADD33R,0.0870X0.0240*%
%ADD34C,0.0600*%
%ADD35C,0.0100*%
%ADD36C,0.0317*%
%ADD37C,0.0320*%
%ADD38C,0.0300*%
%ADD39C,0.0356*%
%ADD40C,0.0591*%
%ADD41C,0.0157*%
%ADD42C,0.0150*%
%ADD43C,0.0277*%
D10*
X021275Y019386D02*
X021275Y024189D01*
X026249Y024189D01*
X026249Y019386D01*
X021275Y019386D01*
X021275Y019420D02*
X026249Y019420D01*
X026249Y019468D02*
X021275Y019468D01*
X021275Y019517D02*
X026249Y019517D01*
X026249Y019565D02*
X021275Y019565D01*
X021275Y019614D02*
X026249Y019614D01*
X026249Y019662D02*
X021275Y019662D01*
X021275Y019711D02*
X026249Y019711D01*
X026249Y019759D02*
X021275Y019759D01*
X021275Y019808D02*
X026249Y019808D01*
X026249Y019856D02*
X021275Y019856D01*
X021275Y019905D02*
X026249Y019905D01*
X026249Y019953D02*
X021275Y019953D01*
X021275Y020002D02*
X026249Y020002D01*
X026249Y020050D02*
X021275Y020050D01*
X021275Y020099D02*
X026249Y020099D01*
X026249Y020147D02*
X021275Y020147D01*
X021275Y020196D02*
X026249Y020196D01*
X026249Y020244D02*
X021275Y020244D01*
X021275Y020293D02*
X026249Y020293D01*
X026249Y020341D02*
X021275Y020341D01*
X021275Y020390D02*
X026249Y020390D01*
X026249Y020438D02*
X021275Y020438D01*
X021275Y020487D02*
X026249Y020487D01*
X026249Y020535D02*
X021275Y020535D01*
X021275Y020584D02*
X026249Y020584D01*
X026249Y020632D02*
X021275Y020632D01*
X021275Y020681D02*
X026249Y020681D01*
X026249Y020729D02*
X021275Y020729D01*
X021275Y020778D02*
X026249Y020778D01*
X026249Y020826D02*
X021275Y020826D01*
X021275Y020875D02*
X026249Y020875D01*
X026249Y020923D02*
X021275Y020923D01*
X021275Y020972D02*
X026249Y020972D01*
X026249Y021020D02*
X021275Y021020D01*
X021275Y021069D02*
X026249Y021069D01*
X026249Y021117D02*
X021275Y021117D01*
X021275Y021166D02*
X026249Y021166D01*
X026249Y021214D02*
X021275Y021214D01*
X021275Y021263D02*
X026249Y021263D01*
X026249Y021311D02*
X021275Y021311D01*
X021275Y021360D02*
X026249Y021360D01*
X026249Y021408D02*
X021275Y021408D01*
X021275Y021457D02*
X026249Y021457D01*
X026249Y021505D02*
X021275Y021505D01*
X021275Y021554D02*
X026249Y021554D01*
X026249Y021602D02*
X021275Y021602D01*
X021275Y021651D02*
X026249Y021651D01*
X026249Y021699D02*
X021275Y021699D01*
X021275Y021748D02*
X026249Y021748D01*
X026249Y021796D02*
X021275Y021796D01*
X021275Y021845D02*
X026249Y021845D01*
X026249Y021893D02*
X021275Y021893D01*
X021275Y021942D02*
X026249Y021942D01*
X026249Y021990D02*
X021275Y021990D01*
X021275Y022039D02*
X026249Y022039D01*
X026249Y022087D02*
X021275Y022087D01*
X021275Y022136D02*
X026249Y022136D01*
X026249Y022184D02*
X021275Y022184D01*
X021275Y022233D02*
X026249Y022233D01*
X026249Y022281D02*
X021275Y022281D01*
X021275Y022330D02*
X026249Y022330D01*
X026249Y022378D02*
X021275Y022378D01*
X021275Y022427D02*
X026249Y022427D01*
X026249Y022475D02*
X021275Y022475D01*
X021275Y022524D02*
X026249Y022524D01*
X026249Y022572D02*
X021275Y022572D01*
X021275Y022621D02*
X026249Y022621D01*
X026249Y022669D02*
X021275Y022669D01*
X021275Y022718D02*
X026249Y022718D01*
X026249Y022766D02*
X021275Y022766D01*
X021275Y022815D02*
X026249Y022815D01*
X026249Y022863D02*
X021275Y022863D01*
X021275Y022912D02*
X026249Y022912D01*
X026249Y022960D02*
X021275Y022960D01*
X021275Y023009D02*
X026249Y023009D01*
X026249Y023057D02*
X021275Y023057D01*
X021275Y023106D02*
X026249Y023106D01*
X026249Y023154D02*
X021275Y023154D01*
X021275Y023203D02*
X026249Y023203D01*
X026249Y023251D02*
X021275Y023251D01*
X021275Y023300D02*
X026249Y023300D01*
X026249Y023348D02*
X021275Y023348D01*
X021275Y023397D02*
X026249Y023397D01*
X026249Y023445D02*
X021275Y023445D01*
X021275Y023494D02*
X026249Y023494D01*
X026249Y023542D02*
X021275Y023542D01*
X021275Y023591D02*
X026249Y023591D01*
X026249Y023639D02*
X021275Y023639D01*
X021275Y023688D02*
X026249Y023688D01*
X026249Y023736D02*
X021275Y023736D01*
X021275Y023785D02*
X026249Y023785D01*
X026249Y023833D02*
X021275Y023833D01*
X021275Y023882D02*
X026249Y023882D01*
X026249Y023930D02*
X021275Y023930D01*
X021275Y023979D02*
X026249Y023979D01*
X026249Y024027D02*
X021275Y024027D01*
X021275Y024076D02*
X026249Y024076D01*
X026249Y024124D02*
X021275Y024124D01*
X021275Y024173D02*
X026249Y024173D01*
X026249Y024425D02*
X021275Y024425D01*
X021275Y029228D01*
X026249Y029228D01*
X026249Y024425D01*
X026249Y024464D02*
X021275Y024464D01*
X021275Y024512D02*
X026249Y024512D01*
X026249Y024561D02*
X021275Y024561D01*
X021275Y024609D02*
X026249Y024609D01*
X026249Y024658D02*
X021275Y024658D01*
X021275Y024706D02*
X026249Y024706D01*
X026249Y024755D02*
X021275Y024755D01*
X021275Y024803D02*
X026249Y024803D01*
X026249Y024852D02*
X021275Y024852D01*
X021275Y024900D02*
X026249Y024900D01*
X026249Y024949D02*
X021275Y024949D01*
X021275Y024997D02*
X026249Y024997D01*
X026249Y025046D02*
X021275Y025046D01*
X021275Y025094D02*
X026249Y025094D01*
X026249Y025143D02*
X021275Y025143D01*
X021275Y025191D02*
X026249Y025191D01*
X026249Y025240D02*
X021275Y025240D01*
X021275Y025288D02*
X026249Y025288D01*
X026249Y025337D02*
X021275Y025337D01*
X021275Y025385D02*
X026249Y025385D01*
X026249Y025434D02*
X021275Y025434D01*
X021275Y025482D02*
X026249Y025482D01*
X026249Y025531D02*
X021275Y025531D01*
X021275Y025579D02*
X026249Y025579D01*
X026249Y025628D02*
X021275Y025628D01*
X021275Y025676D02*
X026249Y025676D01*
X026249Y025725D02*
X021275Y025725D01*
X021275Y025773D02*
X026249Y025773D01*
X026249Y025822D02*
X021275Y025822D01*
X021275Y025870D02*
X026249Y025870D01*
X026249Y025919D02*
X021275Y025919D01*
X021275Y025967D02*
X026249Y025967D01*
X026249Y026016D02*
X021275Y026016D01*
X021275Y026064D02*
X026249Y026064D01*
X026249Y026113D02*
X021275Y026113D01*
X021275Y026161D02*
X026249Y026161D01*
X026249Y026210D02*
X021275Y026210D01*
X021275Y026258D02*
X026249Y026258D01*
X026249Y026307D02*
X021275Y026307D01*
X021275Y026355D02*
X026249Y026355D01*
X026249Y026404D02*
X021275Y026404D01*
X021275Y026452D02*
X026249Y026452D01*
X026249Y026501D02*
X021275Y026501D01*
X021275Y026549D02*
X026249Y026549D01*
X026249Y026598D02*
X021275Y026598D01*
X021275Y026646D02*
X026249Y026646D01*
X026249Y026695D02*
X021275Y026695D01*
X021275Y026743D02*
X026249Y026743D01*
X026249Y026792D02*
X021275Y026792D01*
X021275Y026840D02*
X026249Y026840D01*
X026249Y026889D02*
X021275Y026889D01*
X021275Y026937D02*
X026249Y026937D01*
X026249Y026986D02*
X021275Y026986D01*
X021275Y027034D02*
X026249Y027034D01*
X026249Y027083D02*
X021275Y027083D01*
X021275Y027131D02*
X026249Y027131D01*
X026249Y027180D02*
X021275Y027180D01*
X021275Y027228D02*
X026249Y027228D01*
X026249Y027277D02*
X021275Y027277D01*
X021275Y027325D02*
X026249Y027325D01*
X026249Y027374D02*
X021275Y027374D01*
X021275Y027422D02*
X026249Y027422D01*
X026249Y027471D02*
X021275Y027471D01*
X021275Y027519D02*
X026249Y027519D01*
X026249Y027568D02*
X021275Y027568D01*
X021275Y027616D02*
X026249Y027616D01*
X026249Y027665D02*
X021275Y027665D01*
X021275Y027713D02*
X026249Y027713D01*
X026249Y027762D02*
X021275Y027762D01*
X021275Y027810D02*
X026249Y027810D01*
X026249Y027859D02*
X021275Y027859D01*
X021275Y027907D02*
X026249Y027907D01*
X026249Y027956D02*
X021275Y027956D01*
X021275Y028004D02*
X026249Y028004D01*
X026249Y028053D02*
X021275Y028053D01*
X021275Y028101D02*
X026249Y028101D01*
X026249Y028150D02*
X021275Y028150D01*
X021275Y028198D02*
X026249Y028198D01*
X026249Y028247D02*
X021275Y028247D01*
X021275Y028295D02*
X026249Y028295D01*
X026249Y028344D02*
X021275Y028344D01*
X021275Y028392D02*
X026249Y028392D01*
X026249Y028441D02*
X021275Y028441D01*
X021275Y028489D02*
X026249Y028489D01*
X026249Y028538D02*
X021275Y028538D01*
X021275Y028586D02*
X026249Y028586D01*
X026249Y028635D02*
X021275Y028635D01*
X021275Y028683D02*
X026249Y028683D01*
X026249Y028732D02*
X021275Y028732D01*
X021275Y028780D02*
X026249Y028780D01*
X026249Y028829D02*
X021275Y028829D01*
X021275Y028877D02*
X026249Y028877D01*
X026249Y028926D02*
X021275Y028926D01*
X021275Y028974D02*
X026249Y028974D01*
X026249Y029023D02*
X021275Y029023D01*
X021275Y029071D02*
X026249Y029071D01*
X026249Y029120D02*
X021275Y029120D01*
X021275Y029168D02*
X026249Y029168D01*
X026249Y029217D02*
X021275Y029217D01*
D11*
X015333Y013894D03*
X015333Y013106D03*
X010333Y013287D03*
X010333Y012500D03*
X009333Y012500D03*
X009333Y013287D03*
X006081Y009315D03*
X006081Y008528D03*
D12*
X016459Y008500D03*
X017207Y008500D03*
X017959Y008500D03*
X018707Y008500D03*
X019959Y008500D03*
X020707Y008500D03*
X021459Y008500D03*
X022207Y008500D03*
X018207Y010500D03*
X017459Y010500D03*
X017459Y011250D03*
X018207Y011250D03*
X018294Y024870D03*
X017546Y024870D03*
D13*
X017550Y024083D03*
X018337Y024083D03*
X009227Y015000D03*
X008440Y015000D03*
X007723Y010287D03*
X006936Y010287D03*
D14*
X007022Y015750D03*
X007022Y016250D03*
X007022Y016750D03*
X007022Y017250D03*
X007022Y017750D03*
X007022Y018250D03*
X007022Y018750D03*
X007022Y019250D03*
X010644Y019250D03*
X010644Y018750D03*
X010644Y018250D03*
X010644Y017750D03*
X010644Y017250D03*
X010644Y016750D03*
X010644Y016250D03*
X010644Y015750D03*
D15*
X012475Y017138D02*
X012947Y017138D01*
X012947Y017335D02*
X012475Y017335D01*
X012475Y017531D02*
X012947Y017531D01*
X012947Y017728D02*
X012475Y017728D01*
X012475Y017925D02*
X012947Y017925D01*
X012947Y018122D02*
X012475Y018122D01*
X012475Y018319D02*
X012947Y018319D01*
X012947Y018516D02*
X012475Y018516D01*
X012475Y018713D02*
X012947Y018713D01*
X012947Y018909D02*
X012475Y018909D01*
X012475Y019106D02*
X012947Y019106D01*
X012947Y019303D02*
X012475Y019303D01*
X012475Y019500D02*
X012947Y019500D01*
X012947Y019697D02*
X012475Y019697D01*
X012475Y019894D02*
X012947Y019894D01*
X012947Y020091D02*
X012475Y020091D01*
X012475Y020287D02*
X012947Y020287D01*
X012947Y020484D02*
X012475Y020484D01*
X012475Y020681D02*
X012947Y020681D01*
X012947Y020878D02*
X012475Y020878D01*
X012475Y021075D02*
X012947Y021075D01*
X012947Y021272D02*
X012475Y021272D01*
X012475Y021469D02*
X012947Y021469D01*
X012947Y021665D02*
X012475Y021665D01*
X012475Y021862D02*
X012947Y021862D01*
X013499Y022414D02*
X013499Y022886D01*
X013696Y022886D02*
X013696Y022414D01*
X013892Y022414D02*
X013892Y022886D01*
X014089Y022886D02*
X014089Y022414D01*
X014286Y022414D02*
X014286Y022886D01*
X014483Y022886D02*
X014483Y022414D01*
X014680Y022414D02*
X014680Y022886D01*
X014877Y022886D02*
X014877Y022414D01*
X015073Y022414D02*
X015073Y022886D01*
X015270Y022886D02*
X015270Y022414D01*
X015467Y022414D02*
X015467Y022886D01*
X015664Y022886D02*
X015664Y022414D01*
X015861Y022414D02*
X015861Y022886D01*
X016058Y022886D02*
X016058Y022414D01*
X016255Y022414D02*
X016255Y022886D01*
X016451Y022886D02*
X016451Y022414D01*
X016648Y022414D02*
X016648Y022886D01*
X016845Y022886D02*
X016845Y022414D01*
X017042Y022414D02*
X017042Y022886D01*
X017239Y022886D02*
X017239Y022414D01*
X017436Y022414D02*
X017436Y022886D01*
X017633Y022886D02*
X017633Y022414D01*
X017829Y022414D02*
X017829Y022886D01*
X018026Y022886D02*
X018026Y022414D01*
X018223Y022414D02*
X018223Y022886D01*
X018774Y021862D02*
X019246Y021862D01*
X019246Y021665D02*
X018774Y021665D01*
X018774Y021469D02*
X019246Y021469D01*
X019246Y021272D02*
X018774Y021272D01*
X018774Y021075D02*
X019246Y021075D01*
X019246Y020878D02*
X018774Y020878D01*
X018774Y020681D02*
X019246Y020681D01*
X019246Y020484D02*
X018774Y020484D01*
X018774Y020287D02*
X019246Y020287D01*
X019246Y020091D02*
X018774Y020091D01*
X018774Y019894D02*
X019246Y019894D01*
X019246Y019697D02*
X018774Y019697D01*
X018774Y019500D02*
X019246Y019500D01*
X019246Y019303D02*
X018774Y019303D01*
X018774Y019106D02*
X019246Y019106D01*
X019246Y018909D02*
X018774Y018909D01*
X018774Y018713D02*
X019246Y018713D01*
X019246Y018516D02*
X018774Y018516D01*
X018774Y018319D02*
X019246Y018319D01*
X019246Y018122D02*
X018774Y018122D01*
X018774Y017925D02*
X019246Y017925D01*
X019246Y017728D02*
X018774Y017728D01*
X018774Y017531D02*
X019246Y017531D01*
X019246Y017335D02*
X018774Y017335D01*
X018774Y017138D02*
X019246Y017138D01*
X018223Y016586D02*
X018223Y016114D01*
X018026Y016114D02*
X018026Y016586D01*
X017829Y016586D02*
X017829Y016114D01*
X017633Y016114D02*
X017633Y016586D01*
X017436Y016586D02*
X017436Y016114D01*
X017239Y016114D02*
X017239Y016586D01*
X017042Y016586D02*
X017042Y016114D01*
X016845Y016114D02*
X016845Y016586D01*
X016648Y016586D02*
X016648Y016114D01*
X016451Y016114D02*
X016451Y016586D01*
X016255Y016586D02*
X016255Y016114D01*
X016058Y016114D02*
X016058Y016586D01*
X015861Y016586D02*
X015861Y016114D01*
X015664Y016114D02*
X015664Y016586D01*
X015467Y016586D02*
X015467Y016114D01*
X015270Y016114D02*
X015270Y016586D01*
X015073Y016586D02*
X015073Y016114D01*
X014877Y016114D02*
X014877Y016586D01*
X014680Y016586D02*
X014680Y016114D01*
X014483Y016114D02*
X014483Y016586D01*
X014286Y016586D02*
X014286Y016114D01*
X014089Y016114D02*
X014089Y016586D01*
X013892Y016586D02*
X013892Y016114D01*
X013696Y016114D02*
X013696Y016586D01*
X013499Y016586D02*
X013499Y016114D01*
D16*
X021597Y016413D03*
X021597Y015587D03*
X021420Y007000D03*
X020747Y007000D03*
X019920Y007000D03*
X018747Y007000D03*
X017920Y007000D03*
X017247Y007000D03*
X016420Y007000D03*
X022247Y007000D03*
D17*
X011093Y022000D03*
X007156Y022000D03*
D18*
X023233Y018100D03*
X024233Y018100D03*
X024233Y017100D03*
X023233Y017100D03*
X023233Y016100D03*
X024233Y016100D03*
D19*
X014497Y012939D03*
X014241Y012939D03*
X013985Y012939D03*
X013729Y012939D03*
X013473Y012939D03*
X013217Y012939D03*
X012961Y012939D03*
X012705Y012939D03*
X012449Y012939D03*
X012194Y012939D03*
X011938Y012939D03*
X011682Y012939D03*
X011426Y012939D03*
X011170Y012939D03*
X011170Y010061D03*
X011426Y010061D03*
X011682Y010061D03*
X011938Y010061D03*
X012194Y010061D03*
X012449Y010061D03*
X012705Y010061D03*
X012961Y010061D03*
X013217Y010061D03*
X013473Y010061D03*
X013729Y010061D03*
X013985Y010061D03*
X014241Y010061D03*
X014497Y010061D03*
D20*
X016333Y013126D03*
X016333Y013874D03*
X012833Y014126D03*
X011833Y014126D03*
X011833Y014874D03*
X012833Y014874D03*
X020833Y015626D03*
X020833Y016374D03*
X014295Y024126D03*
X013552Y024126D03*
X013552Y024874D03*
X014295Y024874D03*
D21*
X013514Y026000D03*
X012727Y026000D03*
X011940Y026000D03*
X009014Y026000D03*
X008227Y026000D03*
X007440Y026000D03*
X016440Y026000D03*
X017227Y026000D03*
X018014Y026000D03*
X013948Y009008D03*
X013633Y008535D03*
X013318Y009008D03*
X013003Y008535D03*
X012688Y009008D03*
D22*
X011881Y007000D03*
X014755Y007000D03*
D23*
X008243Y013720D03*
X007333Y013720D03*
X006423Y013720D03*
D24*
X007333Y011280D03*
D25*
X021991Y010307D03*
X021991Y012551D03*
D26*
X027168Y009677D03*
X027562Y014854D03*
D27*
X026046Y013020D03*
X025888Y012587D03*
X026046Y012154D03*
X026125Y011720D03*
X026046Y011287D03*
X026125Y010854D03*
X026046Y010421D03*
X026046Y009988D03*
D28*
X015652Y026000D03*
X011152Y026000D03*
X006652Y026000D03*
D29*
X015361Y015150D03*
X015833Y015150D03*
X016306Y015150D03*
D30*
X024231Y021354D03*
X024231Y027260D03*
D31*
X023593Y008500D03*
X026073Y008500D03*
D32*
X027183Y021500D03*
X027183Y022500D03*
X027183Y023500D03*
X027183Y024500D03*
X027183Y025500D03*
D33*
X022257Y025053D03*
X022257Y024553D03*
X022257Y024053D03*
X022257Y023553D03*
X020197Y023553D03*
X020197Y024053D03*
X020197Y024553D03*
X020197Y025053D03*
D34*
X009967Y011221D02*
X009967Y010621D01*
X008967Y010621D02*
X008967Y011221D01*
D35*
X006156Y005796D02*
X027738Y005796D01*
X027750Y005804D02*
X027530Y005644D01*
X027273Y005561D01*
X027137Y005550D01*
X006949Y005550D01*
X006758Y005563D01*
X006388Y005662D01*
X006057Y005853D01*
X005786Y006123D01*
X005595Y006455D01*
X005496Y006824D01*
X005483Y007016D01*
X005483Y014375D01*
X005593Y014265D01*
X005999Y013859D01*
X005999Y013416D01*
X005793Y013209D01*
X005674Y013090D01*
X005609Y012934D01*
X005609Y009278D01*
X005637Y009211D01*
X005637Y009006D01*
X005712Y008930D01*
X005734Y008930D01*
X005708Y008923D01*
X005674Y008903D01*
X005646Y008876D01*
X005626Y008841D01*
X005616Y008803D01*
X005616Y008578D01*
X006031Y008578D01*
X006031Y008478D01*
X006131Y008478D01*
X006131Y008578D01*
X006546Y008578D01*
X006546Y008803D01*
X006535Y008841D01*
X006516Y008876D01*
X006488Y008903D01*
X006453Y008923D01*
X006427Y008930D01*
X006449Y008930D01*
X006457Y008938D01*
X008386Y008938D01*
X008542Y009003D01*
X009207Y009668D01*
X009327Y009787D01*
X009391Y009943D01*
X009391Y010525D01*
X009396Y010536D01*
X009396Y011307D01*
X009331Y011464D01*
X009210Y011585D01*
X009052Y011650D01*
X008882Y011650D01*
X008724Y011585D01*
X008604Y011464D01*
X008538Y011307D01*
X008538Y010536D01*
X008543Y010525D01*
X008543Y010203D01*
X008126Y009786D01*
X006457Y009786D01*
X006457Y012674D01*
X006664Y012881D01*
X006783Y013000D01*
X006847Y013156D01*
X006847Y014119D01*
X006783Y014275D01*
X006664Y014394D01*
X006257Y014801D01*
X006257Y023928D01*
X006282Y023868D01*
X006465Y023685D01*
X006704Y023586D01*
X006963Y023586D01*
X007202Y023685D01*
X007384Y023868D01*
X007483Y024107D01*
X007483Y024366D01*
X007384Y024604D01*
X007202Y024787D01*
X006963Y024886D01*
X006704Y024886D01*
X006465Y024787D01*
X006282Y024604D01*
X006257Y024544D01*
X006257Y025681D01*
X006275Y025650D01*
X006303Y025622D01*
X006337Y025603D01*
X006375Y025593D01*
X006623Y025593D01*
X006623Y025971D01*
X006681Y025971D01*
X006681Y025593D01*
X006929Y025593D01*
X006968Y025603D01*
X007002Y025622D01*
X007030Y025650D01*
X007049Y025685D01*
X007060Y025723D01*
X007060Y025908D01*
X007112Y025781D01*
X007221Y025673D01*
X007363Y025614D01*
X007516Y025614D01*
X007658Y025673D01*
X007767Y025781D01*
X007826Y025923D01*
X007826Y026077D01*
X007767Y026219D01*
X007658Y026327D01*
X007516Y026386D01*
X007363Y026386D01*
X007221Y026327D01*
X007112Y026219D01*
X007060Y026092D01*
X007060Y026277D01*
X007049Y026315D01*
X007030Y026350D01*
X007002Y026378D01*
X006968Y026397D01*
X006929Y026407D01*
X006681Y026407D01*
X006681Y026029D01*
X006623Y026029D01*
X006623Y026407D01*
X006375Y026407D01*
X006337Y026397D01*
X006303Y026378D01*
X006275Y026350D01*
X006260Y026324D01*
X006261Y026337D01*
X006288Y026421D01*
X006340Y026493D01*
X006412Y026545D01*
X006496Y026572D01*
X006540Y026576D01*
X012658Y026576D01*
X012878Y026355D01*
X012804Y026386D01*
X012650Y026386D01*
X012508Y026327D01*
X012400Y026219D01*
X012341Y026077D01*
X012341Y025923D01*
X012400Y025781D01*
X012508Y025673D01*
X012650Y025614D01*
X012804Y025614D01*
X012946Y025673D01*
X013054Y025781D01*
X013100Y025892D01*
X013155Y025760D01*
X013274Y025641D01*
X013336Y025615D01*
X013336Y025259D01*
X013204Y025259D01*
X013128Y025183D01*
X013128Y024565D01*
X013193Y024500D01*
X013128Y024435D01*
X013128Y023817D01*
X013204Y023741D01*
X013901Y023741D01*
X013923Y023764D01*
X013946Y023741D01*
X014107Y023741D01*
X014107Y023074D01*
X014011Y023074D01*
X013991Y023053D01*
X013970Y023074D01*
X013815Y023074D01*
X013805Y023064D01*
X013776Y023081D01*
X013723Y023095D01*
X013696Y023095D01*
X013696Y022650D01*
X013696Y022650D01*
X013696Y023095D01*
X013668Y023095D01*
X013615Y023081D01*
X013586Y023064D01*
X013576Y023074D01*
X013421Y023074D01*
X013311Y022964D01*
X013311Y022336D01*
X013320Y022327D01*
X013320Y022013D01*
X013422Y021910D01*
X013488Y021844D01*
X013135Y021844D01*
X013135Y021940D01*
X013025Y022050D01*
X012397Y022050D01*
X012287Y021940D01*
X012287Y021784D01*
X012308Y021764D01*
X012287Y021743D01*
X012287Y021588D01*
X012308Y021567D01*
X012287Y021546D01*
X012287Y021391D01*
X012308Y021370D01*
X012287Y021349D01*
X012287Y021194D01*
X012308Y021173D01*
X012287Y021153D01*
X012287Y020997D01*
X012308Y020976D01*
X012287Y020956D01*
X012287Y020800D01*
X012308Y020780D01*
X012287Y020759D01*
X012287Y020603D01*
X012308Y020583D01*
X012287Y020562D01*
X012287Y020406D01*
X012308Y020386D01*
X012287Y020365D01*
X012287Y020210D01*
X012308Y020189D01*
X012287Y020168D01*
X012287Y020013D01*
X012297Y020003D01*
X012280Y019974D01*
X012266Y019921D01*
X012266Y019894D01*
X012711Y019894D01*
X012711Y019894D01*
X012266Y019894D01*
X012266Y019866D01*
X012280Y019813D01*
X012297Y019784D01*
X012287Y019775D01*
X012287Y019683D01*
X012258Y019683D01*
X012048Y019893D01*
X012048Y022516D01*
X012129Y022598D01*
X012176Y022711D01*
X012176Y022833D01*
X012129Y022945D01*
X012043Y023032D01*
X011930Y023079D01*
X011808Y023079D01*
X011695Y023032D01*
X011609Y022945D01*
X011562Y022833D01*
X011562Y022711D01*
X011609Y022598D01*
X011690Y022516D01*
X011690Y019745D01*
X011795Y019640D01*
X012110Y019325D01*
X012287Y019325D01*
X012287Y019225D01*
X012308Y019205D01*
X012287Y019184D01*
X012287Y019029D01*
X012308Y019008D01*
X012287Y018987D01*
X012287Y018832D01*
X012308Y018811D01*
X012287Y018790D01*
X012287Y018635D01*
X012308Y018614D01*
X012287Y018594D01*
X012287Y018438D01*
X012308Y018417D01*
X012287Y018397D01*
X012287Y018305D01*
X012257Y018305D01*
X012258Y018305D02*
X012126Y018436D01*
X012126Y018830D01*
X011632Y019324D01*
X011527Y019429D01*
X011199Y019429D01*
X011131Y019497D01*
X010158Y019497D01*
X010083Y019421D01*
X010083Y019079D01*
X010158Y019003D01*
X011131Y019003D01*
X011199Y019071D01*
X011379Y019071D01*
X011769Y018682D01*
X011769Y018288D01*
X011873Y018183D01*
X011953Y018104D01*
X011830Y018104D01*
X011733Y018006D01*
X011733Y018515D01*
X011628Y018620D01*
X011313Y018935D01*
X011193Y018935D01*
X011131Y018997D01*
X010158Y018997D01*
X010083Y018921D01*
X010083Y018579D01*
X010158Y018503D01*
X011131Y018503D01*
X011185Y018557D01*
X011375Y018367D01*
X011375Y016806D01*
X011294Y016725D01*
X011247Y016612D01*
X011247Y016490D01*
X011294Y016377D01*
X011380Y016291D01*
X011493Y016244D01*
X011615Y016244D01*
X011728Y016291D01*
X011814Y016377D01*
X011861Y016490D01*
X011861Y016612D01*
X011814Y016725D01*
X011733Y016806D01*
X011733Y017501D01*
X011978Y017746D01*
X012287Y017746D01*
X012287Y017651D01*
X012308Y017630D01*
X012287Y017609D01*
X012287Y017454D01*
X012308Y017433D01*
X012287Y017412D01*
X012287Y017257D01*
X012308Y017236D01*
X012287Y017216D01*
X012287Y017060D01*
X012397Y016950D01*
X013025Y016950D01*
X013135Y017060D01*
X013135Y017216D01*
X013115Y017236D01*
X013135Y017257D01*
X013135Y017412D01*
X013115Y017433D01*
X013135Y017454D01*
X013135Y017550D01*
X014522Y017550D01*
X014705Y017334D01*
X014705Y017326D01*
X014752Y017279D01*
X014795Y017228D01*
X014803Y017227D01*
X014809Y017221D01*
X014876Y017221D01*
X014942Y017216D01*
X014949Y017221D01*
X016467Y017221D01*
X016595Y017112D01*
X016595Y017043D01*
X016639Y016936D01*
X016720Y016855D01*
X016826Y016811D01*
X016941Y016811D01*
X017044Y016854D01*
X017044Y016774D01*
X016964Y016774D01*
X016944Y016754D01*
X016923Y016774D01*
X016767Y016774D01*
X016747Y016754D01*
X016726Y016774D01*
X016571Y016774D01*
X016550Y016754D01*
X016529Y016774D01*
X016374Y016774D01*
X016353Y016754D01*
X016332Y016774D01*
X016177Y016774D01*
X016156Y016754D01*
X016136Y016774D01*
X015980Y016774D01*
X015959Y016754D01*
X015939Y016774D01*
X015783Y016774D01*
X015762Y016754D01*
X015742Y016774D01*
X015586Y016774D01*
X015566Y016754D01*
X015545Y016774D01*
X015389Y016774D01*
X015369Y016754D01*
X015348Y016774D01*
X015193Y016774D01*
X015172Y016754D01*
X015151Y016774D01*
X014996Y016774D01*
X014975Y016754D01*
X014954Y016774D01*
X014799Y016774D01*
X014789Y016765D01*
X014760Y016781D01*
X014707Y016796D01*
X014680Y016796D01*
X014680Y016350D01*
X014680Y015905D01*
X014698Y015905D01*
X014698Y015883D01*
X015094Y015486D01*
X015094Y014762D01*
X015170Y014687D01*
X015552Y014687D01*
X015582Y014717D01*
X015603Y014695D01*
X015638Y014676D01*
X015676Y014665D01*
X015814Y014665D01*
X015814Y015131D01*
X015852Y015131D01*
X015852Y014665D01*
X015991Y014665D01*
X016029Y014676D01*
X016063Y014695D01*
X016085Y014717D01*
X016115Y014687D01*
X016497Y014687D01*
X016572Y014762D01*
X016572Y015538D01*
X016497Y015613D01*
X016485Y015613D01*
X016485Y015652D01*
X016380Y015756D01*
X016210Y015926D01*
X016332Y015926D01*
X016353Y015947D01*
X016374Y015926D01*
X016529Y015926D01*
X016550Y015947D01*
X016571Y015926D01*
X016726Y015926D01*
X016747Y015947D01*
X016767Y015926D01*
X016923Y015926D01*
X016944Y015947D01*
X016964Y015926D01*
X017120Y015926D01*
X017140Y015947D01*
X017161Y015926D01*
X017317Y015926D01*
X017337Y015947D01*
X017358Y015926D01*
X017513Y015926D01*
X017534Y015947D01*
X017555Y015926D01*
X017710Y015926D01*
X017731Y015947D01*
X017752Y015926D01*
X017907Y015926D01*
X017928Y015947D01*
X017948Y015926D01*
X018075Y015926D01*
X018149Y015853D01*
X018295Y015707D01*
X018295Y015614D01*
X018339Y015508D01*
X018420Y015426D01*
X018526Y015383D01*
X018641Y015383D01*
X018747Y015426D01*
X018828Y015508D01*
X018872Y015614D01*
X018872Y015729D01*
X018828Y015835D01*
X018747Y015916D01*
X018641Y015960D01*
X018547Y015960D01*
X018411Y016096D01*
X018411Y016664D01*
X018301Y016774D01*
X018145Y016774D01*
X018125Y016754D01*
X018104Y016774D01*
X017948Y016774D01*
X017928Y016754D01*
X017907Y016774D01*
X017752Y016774D01*
X017731Y016754D01*
X017710Y016774D01*
X017614Y016774D01*
X017614Y016881D01*
X017712Y016921D01*
X017798Y017007D01*
X017845Y017120D01*
X017845Y017242D01*
X017798Y017355D01*
X017712Y017441D01*
X017599Y017488D01*
X017477Y017488D01*
X017402Y017457D01*
X017402Y017570D01*
X017297Y017675D01*
X017244Y017728D01*
X017244Y018579D01*
X017326Y018661D01*
X017372Y018774D01*
X017372Y018896D01*
X018586Y018896D01*
X018586Y018928D02*
X018586Y018832D01*
X018607Y018811D01*
X018586Y018790D01*
X018586Y018635D01*
X018607Y018614D01*
X018586Y018594D01*
X018586Y018438D01*
X018607Y018417D01*
X018586Y018397D01*
X018586Y018241D01*
X018607Y018220D01*
X018586Y018200D01*
X018586Y018044D01*
X018607Y018024D01*
X018586Y018003D01*
X018586Y017847D01*
X018607Y017827D01*
X018586Y017806D01*
X018586Y017651D01*
X018607Y017630D01*
X018586Y017609D01*
X018586Y017454D01*
X018607Y017433D01*
X018586Y017412D01*
X018586Y017257D01*
X018607Y017236D01*
X018586Y017216D01*
X018586Y017060D01*
X018696Y016950D01*
X019325Y016950D01*
X019435Y017060D01*
X019435Y017216D01*
X019414Y017236D01*
X019435Y017257D01*
X019435Y017412D01*
X019414Y017433D01*
X019435Y017454D01*
X019435Y017609D01*
X019414Y017630D01*
X019435Y017651D01*
X019435Y017806D01*
X019414Y017827D01*
X019435Y017847D01*
X019435Y018003D01*
X019414Y018024D01*
X019435Y018044D01*
X019435Y018200D01*
X019414Y018220D01*
X019435Y018241D01*
X019435Y018397D01*
X019414Y018417D01*
X019435Y018438D01*
X019435Y018594D01*
X019414Y018614D01*
X019435Y018635D01*
X019435Y018790D01*
X019414Y018811D01*
X019435Y018832D01*
X019435Y018987D01*
X019414Y019008D01*
X019435Y019029D01*
X019435Y019184D01*
X019425Y019194D01*
X019442Y019222D01*
X019456Y019276D01*
X019456Y019303D01*
X019011Y019303D01*
X019011Y019303D01*
X019456Y019303D01*
X019456Y019331D01*
X019442Y019384D01*
X019425Y019413D01*
X019435Y019422D01*
X019435Y019578D01*
X019414Y019598D01*
X019435Y019619D01*
X019435Y019775D01*
X019414Y019795D01*
X019435Y019816D01*
X019435Y019971D01*
X019414Y019992D01*
X019435Y020013D01*
X019435Y020168D01*
X019414Y020189D01*
X019435Y020210D01*
X019435Y020365D01*
X019414Y020386D01*
X019435Y020406D01*
X019435Y020562D01*
X019414Y020583D01*
X019435Y020603D01*
X019435Y020759D01*
X019414Y020780D01*
X019435Y020800D01*
X019435Y020956D01*
X019414Y020976D01*
X019435Y020997D01*
X019435Y021153D01*
X019414Y021173D01*
X019435Y021194D01*
X019435Y021349D01*
X019414Y021370D01*
X019435Y021391D01*
X019435Y021546D01*
X019414Y021567D01*
X019435Y021588D01*
X019435Y021646D01*
X019655Y021426D01*
X019655Y019730D01*
X019589Y019664D01*
X019545Y019557D01*
X019545Y019443D01*
X019589Y019336D01*
X019670Y019255D01*
X019776Y019211D01*
X019891Y019211D01*
X019997Y019255D01*
X020078Y019336D01*
X020122Y019443D01*
X020122Y019557D01*
X020078Y019664D01*
X020012Y019730D01*
X020012Y021574D01*
X019907Y021679D01*
X019545Y022041D01*
X019334Y022041D01*
X019325Y022050D01*
X018696Y022050D01*
X018586Y021940D01*
X018586Y021784D01*
X018607Y021764D01*
X018586Y021743D01*
X018586Y021588D01*
X018607Y021567D01*
X018586Y021546D01*
X018586Y021391D01*
X018607Y021370D01*
X018586Y021349D01*
X018586Y021194D01*
X018607Y021173D01*
X018586Y021153D01*
X018586Y020997D01*
X018607Y020976D01*
X018586Y020956D01*
X018586Y020800D01*
X018607Y020780D01*
X018586Y020759D01*
X018586Y020603D01*
X018607Y020583D01*
X018586Y020562D01*
X018586Y020406D01*
X018607Y020386D01*
X018586Y020365D01*
X018586Y020210D01*
X018607Y020189D01*
X018586Y020168D01*
X018586Y020013D01*
X018607Y019992D01*
X018586Y019971D01*
X018586Y019876D01*
X018482Y019876D01*
X018081Y020277D01*
X018081Y020392D01*
X018034Y020505D01*
X017948Y020591D01*
X017835Y020638D01*
X017713Y020638D01*
X017600Y020591D01*
X017514Y020505D01*
X017467Y020392D01*
X017467Y020270D01*
X017514Y020157D01*
X017600Y020071D01*
X017713Y020024D01*
X017828Y020024D01*
X017851Y020001D01*
X017835Y020008D01*
X017713Y020008D01*
X017600Y019961D01*
X017514Y019875D01*
X017467Y019762D01*
X017467Y019640D01*
X017514Y019527D01*
X017600Y019441D01*
X017713Y019394D01*
X017828Y019394D01*
X017901Y019321D01*
X018565Y019321D01*
X018565Y019303D01*
X018565Y019285D01*
X017734Y019285D01*
X017402Y019617D01*
X017402Y020712D01*
X017614Y020924D01*
X017614Y022226D01*
X017710Y022226D01*
X017731Y022246D01*
X017752Y022226D01*
X017907Y022226D01*
X017928Y022246D01*
X017948Y022226D01*
X018104Y022226D01*
X018125Y022246D01*
X018145Y022226D01*
X018301Y022226D01*
X018411Y022336D01*
X018411Y022964D01*
X018388Y022987D01*
X018818Y022987D01*
X018900Y022905D01*
X019012Y022859D01*
X019135Y022859D01*
X019247Y022905D01*
X019334Y022992D01*
X019380Y023104D01*
X019380Y023219D01*
X019535Y023374D01*
X019639Y023374D01*
X019709Y023304D01*
X020223Y023304D01*
X020223Y018850D01*
X021970Y018850D01*
X020761Y017679D01*
X020759Y017679D01*
X020708Y017627D01*
X020656Y017577D01*
X020656Y017575D01*
X020655Y017574D01*
X020655Y017501D01*
X020653Y017429D01*
X020655Y017428D01*
X020655Y016759D01*
X020485Y016759D01*
X020409Y016683D01*
X020409Y016579D01*
X020063Y016579D01*
X019997Y016645D01*
X019891Y016689D01*
X019776Y016689D01*
X019670Y016645D01*
X019589Y016564D01*
X019545Y016457D01*
X019545Y016343D01*
X019589Y016236D01*
X019670Y016155D01*
X019776Y016111D01*
X019891Y016111D01*
X019997Y016155D01*
X020063Y016221D01*
X020409Y016221D01*
X020409Y016065D01*
X020474Y016000D01*
X020409Y015935D01*
X020409Y015317D01*
X020485Y015241D01*
X021182Y015241D01*
X021235Y015294D01*
X021308Y015222D01*
X021887Y015222D01*
X021962Y015297D01*
X021962Y015876D01*
X021887Y015952D01*
X021308Y015952D01*
X021257Y015901D01*
X021257Y015935D01*
X021193Y016000D01*
X021257Y016065D01*
X021257Y016069D01*
X021269Y016057D01*
X021303Y016037D01*
X021341Y016027D01*
X021547Y016027D01*
X021547Y016363D01*
X021647Y016363D01*
X021647Y016027D01*
X021853Y016027D01*
X021891Y016037D01*
X021925Y016057D01*
X021953Y016085D01*
X021973Y016119D01*
X021983Y016157D01*
X021983Y016363D01*
X021647Y016363D01*
X021647Y016463D01*
X021983Y016463D01*
X021983Y016669D01*
X021973Y016708D01*
X021953Y016742D01*
X021925Y016770D01*
X021891Y016789D01*
X021853Y016800D01*
X021647Y016800D01*
X021647Y016463D01*
X021547Y016463D01*
X021547Y016800D01*
X021341Y016800D01*
X021303Y016789D01*
X021269Y016770D01*
X021241Y016742D01*
X021225Y016715D01*
X021182Y016759D01*
X021012Y016759D01*
X021012Y017424D01*
X022155Y018531D01*
X022155Y014380D01*
X022104Y014329D01*
X021909Y014329D01*
X021805Y014224D01*
X021759Y014179D01*
X016757Y014179D01*
X016757Y014183D01*
X016682Y014259D01*
X015985Y014259D01*
X015909Y014183D01*
X015909Y014053D01*
X015777Y014053D01*
X015777Y014203D01*
X015702Y014278D01*
X015201Y014278D01*
X014465Y015015D01*
X014465Y015926D01*
X014561Y015926D01*
X014570Y015936D01*
X014599Y015919D01*
X014652Y015905D01*
X014680Y015905D01*
X014680Y016350D01*
X014680Y016350D01*
X014680Y016350D01*
X014680Y016796D01*
X014662Y016796D01*
X014662Y017003D01*
X014488Y017176D01*
X014384Y017281D01*
X013448Y017281D01*
X012503Y016336D01*
X011952Y016336D01*
X011227Y015611D01*
X011227Y015612D01*
X011227Y015741D01*
X010653Y015741D01*
X010653Y015482D01*
X011097Y015482D01*
X011098Y015482D01*
X010850Y015234D01*
X010132Y015234D01*
X010040Y015326D01*
X010040Y015995D01*
X009961Y016074D01*
X009856Y016179D01*
X008647Y016179D01*
X008647Y018808D01*
X009100Y019261D01*
X009100Y019261D01*
X009222Y019383D01*
X009222Y025668D01*
X009233Y025673D01*
X009342Y025781D01*
X009401Y025923D01*
X009401Y026077D01*
X009342Y026219D01*
X009233Y026327D01*
X009091Y026386D01*
X008938Y026386D01*
X008796Y026327D01*
X008687Y026219D01*
X008628Y026077D01*
X008628Y025923D01*
X008687Y025781D01*
X008796Y025673D01*
X008807Y025668D01*
X008807Y019554D01*
X008232Y018980D01*
X008232Y018395D01*
X007669Y018957D01*
X007548Y018957D01*
X007509Y018997D01*
X006536Y018997D01*
X006460Y018921D01*
X006460Y018579D01*
X006536Y018503D01*
X007509Y018503D01*
X007523Y018517D01*
X008232Y017808D01*
X008232Y015444D01*
X008130Y015444D01*
X008055Y015368D01*
X008055Y015207D01*
X007547Y015207D01*
X007247Y014907D01*
X007126Y014786D01*
X007126Y014289D01*
X007040Y014289D01*
X006965Y014213D01*
X006965Y013227D01*
X007040Y013151D01*
X007126Y013151D01*
X007126Y011842D01*
X006571Y011842D01*
X006496Y011766D01*
X006496Y010794D01*
X006571Y010718D01*
X006613Y010718D01*
X006551Y010656D01*
X006551Y009919D01*
X006626Y009844D01*
X007245Y009844D01*
X007320Y009919D01*
X007320Y009941D01*
X007327Y009915D01*
X007347Y009880D01*
X007375Y009852D01*
X007409Y009833D01*
X007447Y009822D01*
X007673Y009822D01*
X007673Y010237D01*
X007773Y010237D01*
X007773Y009822D01*
X007999Y009822D01*
X008037Y009833D01*
X008071Y009852D01*
X008099Y009880D01*
X008119Y009915D01*
X008129Y009953D01*
X008129Y010237D01*
X007773Y010237D01*
X007773Y010337D01*
X008129Y010337D01*
X008129Y010622D01*
X008538Y010622D01*
X008538Y010721D02*
X008098Y010721D01*
X008095Y010718D02*
X008171Y010794D01*
X008171Y011766D01*
X008095Y011842D01*
X007541Y011842D01*
X007541Y012289D01*
X008200Y012289D01*
X008791Y011698D01*
X010366Y011698D01*
X010759Y011304D01*
X011331Y011304D01*
X011452Y011426D01*
X011719Y011692D01*
X014765Y011686D01*
X014851Y011686D01*
X014937Y011686D01*
X015163Y011686D01*
X015285Y011808D01*
X015285Y011813D01*
X015556Y012084D01*
X015545Y012057D01*
X015545Y011943D01*
X015589Y011836D01*
X015670Y011755D01*
X015776Y011711D01*
X015869Y011711D01*
X017075Y010506D01*
X017075Y010151D01*
X017150Y010076D01*
X017281Y010076D01*
X017281Y010050D01*
X017385Y009945D01*
X017495Y009836D01*
X017495Y009743D01*
X017539Y009636D01*
X017620Y009555D01*
X017726Y009511D01*
X017841Y009511D01*
X017947Y009555D01*
X018028Y009636D01*
X018072Y009743D01*
X018072Y009857D01*
X018028Y009964D01*
X017947Y010045D01*
X017841Y010089D01*
X017781Y010089D01*
X017833Y010141D01*
X017898Y010076D01*
X018379Y010076D01*
X018589Y009866D01*
X018446Y009866D01*
X018342Y009761D01*
X017655Y009074D01*
X017655Y008924D01*
X017650Y008924D01*
X017583Y008857D01*
X017517Y008924D01*
X016898Y008924D01*
X016833Y008859D01*
X016769Y008924D01*
X016150Y008924D01*
X016075Y008849D01*
X014300Y008849D01*
X014275Y008789D02*
X014334Y008931D01*
X014334Y009085D01*
X014275Y009227D01*
X014166Y009335D01*
X014126Y009352D01*
X014126Y009428D01*
X014022Y009533D01*
X013919Y009636D01*
X013985Y009636D01*
X014073Y009636D01*
X014111Y009646D01*
X014130Y009657D01*
X014363Y009657D01*
X014369Y009663D01*
X014375Y009657D01*
X014619Y009657D01*
X014694Y009732D01*
X014694Y010389D01*
X014619Y010464D01*
X014375Y010464D01*
X014369Y010458D01*
X014363Y010464D01*
X014130Y010464D01*
X014111Y010475D01*
X014073Y010486D01*
X013985Y010486D01*
X013985Y010061D01*
X013985Y010061D01*
X013985Y010486D01*
X013897Y010486D01*
X013859Y010475D01*
X013857Y010475D01*
X013855Y010475D01*
X013817Y010486D01*
X013729Y010486D01*
X013641Y010486D01*
X013603Y010475D01*
X013583Y010464D01*
X013396Y010464D01*
X013396Y010621D01*
X013446Y010671D01*
X014104Y010671D01*
X014170Y010605D01*
X014276Y010561D01*
X014391Y010561D01*
X014497Y010605D01*
X014578Y010686D01*
X014622Y010793D01*
X014622Y010907D01*
X014578Y011014D01*
X014497Y011095D01*
X014391Y011139D01*
X014276Y011139D01*
X014170Y011095D01*
X014104Y011029D01*
X013570Y011029D01*
X013578Y011036D01*
X013622Y011143D01*
X013622Y011257D01*
X013578Y011364D01*
X013497Y011445D01*
X013391Y011489D01*
X013276Y011489D01*
X013170Y011445D01*
X013089Y011364D01*
X013045Y011257D01*
X013045Y011164D01*
X012783Y010902D01*
X012783Y010486D01*
X012705Y010486D01*
X012628Y010486D01*
X012628Y010926D01*
X012634Y010992D01*
X012628Y010999D01*
X012628Y011008D01*
X012581Y011055D01*
X012470Y011187D01*
X012472Y011193D01*
X012472Y011307D01*
X012428Y011414D01*
X012347Y011495D01*
X012241Y011539D01*
X012126Y011539D01*
X012020Y011495D01*
X011939Y011414D01*
X011895Y011307D01*
X011895Y011193D01*
X011939Y011086D01*
X012020Y011005D01*
X012126Y010961D01*
X012193Y010961D01*
X012271Y010869D01*
X012271Y010464D01*
X012083Y010464D01*
X012064Y010475D01*
X012026Y010486D01*
X011938Y010486D01*
X011938Y010061D01*
X011938Y010061D01*
X011938Y010486D01*
X011906Y010486D01*
X011932Y010511D01*
X011979Y010624D01*
X011979Y010746D01*
X011932Y010859D01*
X011846Y010945D01*
X011733Y010992D01*
X011611Y010992D01*
X011498Y010945D01*
X011412Y010859D01*
X011365Y010746D01*
X011365Y010624D01*
X011412Y010511D01*
X011459Y010464D01*
X011304Y010464D01*
X011298Y010458D01*
X011292Y010464D01*
X011048Y010464D01*
X010973Y010389D01*
X010973Y009732D01*
X010981Y009724D01*
X010981Y009696D01*
X010978Y009693D01*
X010863Y009693D01*
X010750Y009646D01*
X010664Y009560D01*
X010617Y009447D01*
X010617Y009325D01*
X010664Y009212D01*
X010750Y009126D01*
X010863Y009079D01*
X010985Y009079D01*
X011098Y009126D01*
X011184Y009212D01*
X011231Y009325D01*
X011231Y009440D01*
X011247Y009440D01*
X011231Y009440D02*
X011247Y009456D01*
X011247Y008967D01*
X011352Y008863D01*
X012346Y007869D01*
X013596Y007869D01*
X013701Y007973D01*
X013819Y008091D01*
X013819Y008195D01*
X013851Y008208D01*
X013960Y008317D01*
X014019Y008459D01*
X014019Y008612D01*
X014015Y008622D01*
X014024Y008622D01*
X014166Y008680D01*
X014275Y008789D01*
X014236Y008751D02*
X016075Y008751D01*
X016075Y008849D02*
X016075Y008151D01*
X016150Y008076D01*
X016281Y008076D01*
X016281Y007713D01*
X016385Y007609D01*
X016385Y007609D01*
X016629Y007365D01*
X016308Y007365D01*
X015872Y007801D01*
X015872Y007907D01*
X015828Y008014D01*
X015747Y008095D01*
X015641Y008139D01*
X015526Y008139D01*
X015420Y008095D01*
X015339Y008014D01*
X015295Y007907D01*
X015295Y007793D01*
X015339Y007686D01*
X015420Y007605D01*
X015526Y007561D01*
X015606Y007561D01*
X016055Y007112D01*
X016055Y006710D01*
X016130Y006635D01*
X016709Y006635D01*
X016785Y006710D01*
X016785Y007209D01*
X016882Y007112D01*
X016882Y006710D01*
X016957Y006635D01*
X017536Y006635D01*
X017583Y006682D01*
X017583Y006682D01*
X017630Y006635D01*
X018209Y006635D01*
X018285Y006710D01*
X018285Y007290D01*
X018209Y007365D01*
X017958Y007365D01*
X017762Y007561D01*
X017762Y007670D01*
X017828Y007736D01*
X017872Y007843D01*
X017872Y007957D01*
X017828Y008064D01*
X017816Y008076D01*
X018269Y008076D01*
X018333Y008141D01*
X018398Y008076D01*
X018568Y008076D01*
X018568Y007365D01*
X018457Y007365D01*
X018382Y007290D01*
X018382Y006710D01*
X018457Y006635D01*
X019036Y006635D01*
X019112Y006710D01*
X019112Y007290D01*
X019036Y007365D01*
X018925Y007365D01*
X018925Y008076D01*
X019017Y008076D01*
X019092Y008151D01*
X019092Y008849D01*
X019017Y008924D01*
X018398Y008924D01*
X018333Y008859D01*
X018269Y008924D01*
X018012Y008924D01*
X018012Y008926D01*
X018594Y009508D01*
X018946Y009508D01*
X019590Y008864D01*
X019575Y008849D01*
X019092Y008849D01*
X019092Y008751D02*
X019575Y008751D01*
X019575Y008849D02*
X019575Y008151D01*
X019650Y008076D01*
X020269Y008076D01*
X020333Y008141D01*
X020398Y008076D01*
X020655Y008076D01*
X020655Y008074D01*
X019946Y007365D01*
X019630Y007365D01*
X019555Y007290D01*
X019555Y006710D01*
X019630Y006635D01*
X020209Y006635D01*
X020285Y006710D01*
X020285Y007199D01*
X020367Y007281D01*
X020360Y007256D01*
X020360Y007050D01*
X020697Y007050D01*
X020697Y007386D01*
X020491Y007386D01*
X020466Y007379D01*
X021012Y007926D01*
X021012Y008076D01*
X021017Y008076D01*
X021083Y008143D01*
X021150Y008076D01*
X021769Y008076D01*
X021833Y008141D01*
X021898Y008076D01*
X022068Y008076D01*
X022068Y007365D01*
X021957Y007365D01*
X021882Y007290D01*
X021882Y006710D01*
X021957Y006635D01*
X022536Y006635D01*
X022612Y006710D01*
X022612Y007290D01*
X022536Y007365D01*
X022425Y007365D01*
X022425Y008076D01*
X022517Y008076D01*
X022592Y008151D01*
X022592Y008849D01*
X022517Y008924D01*
X021898Y008924D01*
X021833Y008859D01*
X021769Y008924D01*
X021638Y008924D01*
X021638Y009298D01*
X021533Y009403D01*
X021107Y009829D01*
X019757Y009829D01*
X019622Y009964D01*
X019622Y010057D01*
X019578Y010164D01*
X019497Y010245D01*
X019391Y010289D01*
X019276Y010289D01*
X019170Y010245D01*
X019089Y010164D01*
X019045Y010057D01*
X019045Y009943D01*
X019064Y009896D01*
X018592Y010368D01*
X018592Y010849D01*
X018566Y010875D01*
X018592Y010901D01*
X018592Y011382D01*
X018831Y011621D01*
X019604Y011621D01*
X019670Y011555D01*
X019776Y011511D01*
X019891Y011511D01*
X019997Y011555D01*
X020050Y011609D01*
X021972Y011609D01*
X022367Y011213D01*
X022402Y011179D01*
X019113Y011179D01*
X019047Y011245D01*
X018941Y011289D01*
X018826Y011289D01*
X018720Y011245D01*
X018639Y011164D01*
X018595Y011057D01*
X018595Y010943D01*
X018639Y010836D01*
X018720Y010755D01*
X018826Y010711D01*
X018941Y010711D01*
X019047Y010755D01*
X019113Y010821D01*
X022259Y010821D01*
X022290Y010790D01*
X021662Y010790D01*
X021586Y010715D01*
X021586Y009899D01*
X021662Y009824D01*
X022320Y009824D01*
X022395Y009899D01*
X022395Y010685D01*
X022655Y010426D01*
X022759Y010321D01*
X023181Y010321D01*
X023259Y010243D01*
X023668Y010243D01*
X023589Y010164D01*
X023545Y010057D01*
X023545Y009943D01*
X023589Y009836D01*
X023655Y009770D01*
X023655Y008944D01*
X023087Y008944D01*
X023012Y008868D01*
X023012Y008132D01*
X023087Y008056D01*
X024099Y008056D01*
X024175Y008132D01*
X024175Y008868D01*
X024099Y008944D01*
X024012Y008944D01*
X024012Y009770D01*
X024078Y009836D01*
X024122Y009943D01*
X024122Y010057D01*
X024078Y010164D01*
X023999Y010243D01*
X025622Y010243D01*
X025622Y010210D01*
X025628Y010205D01*
X025622Y010199D01*
X025622Y009777D01*
X025697Y009702D01*
X026395Y009702D01*
X026470Y009777D01*
X026470Y010199D01*
X026464Y010205D01*
X026470Y010210D01*
X026470Y010243D01*
X026829Y010243D01*
X026933Y010347D01*
X026933Y010347D01*
X028003Y011417D01*
X028003Y006416D01*
X027993Y006281D01*
X027909Y006023D01*
X027750Y005804D01*
X027815Y005894D02*
X006016Y005894D01*
X005917Y005993D02*
X027887Y005993D01*
X027931Y006091D02*
X005819Y006091D01*
X005748Y006190D02*
X027963Y006190D01*
X027993Y006288D02*
X005691Y006288D01*
X005634Y006387D02*
X011559Y006387D01*
X011490Y006415D02*
X011743Y006310D01*
X012018Y006310D01*
X012271Y006415D01*
X012465Y006609D01*
X012570Y006863D01*
X012570Y007137D01*
X012465Y007391D01*
X012271Y007585D01*
X012018Y007690D01*
X011743Y007690D01*
X011490Y007585D01*
X011296Y007391D01*
X011191Y007137D01*
X011191Y006863D01*
X011296Y006609D01*
X011490Y006415D01*
X011420Y006485D02*
X005587Y006485D01*
X005560Y006584D02*
X011322Y006584D01*
X011266Y006682D02*
X005534Y006682D01*
X005508Y006781D02*
X011225Y006781D01*
X011191Y006879D02*
X007033Y006879D01*
X006963Y006850D02*
X007202Y006949D01*
X007384Y007132D01*
X007483Y007371D01*
X007483Y007629D01*
X007384Y007868D01*
X007202Y008051D01*
X006963Y008150D01*
X006704Y008150D01*
X006465Y008051D01*
X006282Y007868D01*
X006183Y007629D01*
X006183Y007371D01*
X006282Y007132D01*
X006465Y006949D01*
X006704Y006850D01*
X006963Y006850D01*
X007230Y006978D02*
X011191Y006978D01*
X011191Y007076D02*
X007329Y007076D01*
X007402Y007175D02*
X011206Y007175D01*
X011247Y007273D02*
X007443Y007273D01*
X007483Y007372D02*
X011288Y007372D01*
X011375Y007470D02*
X007483Y007470D01*
X007483Y007569D02*
X011474Y007569D01*
X011688Y007667D02*
X007468Y007667D01*
X007427Y007766D02*
X015306Y007766D01*
X015295Y007864D02*
X007386Y007864D01*
X007290Y007963D02*
X012252Y007963D01*
X012153Y008061D02*
X007177Y008061D01*
X006535Y008214D02*
X006546Y008252D01*
X006546Y008478D01*
X006131Y008478D01*
X006131Y008122D01*
X006415Y008122D01*
X006453Y008132D01*
X006488Y008152D01*
X006516Y008180D01*
X006535Y008214D01*
X006546Y008258D02*
X011956Y008258D01*
X011858Y008357D02*
X006546Y008357D01*
X006546Y008455D02*
X011759Y008455D01*
X011661Y008554D02*
X006131Y008554D01*
X006131Y008455D02*
X006031Y008455D01*
X006031Y008478D02*
X006031Y008122D01*
X005746Y008122D01*
X005708Y008132D01*
X005674Y008152D01*
X005646Y008180D01*
X005626Y008214D01*
X005616Y008252D01*
X005616Y008478D01*
X006031Y008478D01*
X006031Y008554D02*
X005483Y008554D01*
X005483Y008652D02*
X005616Y008652D01*
X005616Y008751D02*
X005483Y008751D01*
X005483Y008849D02*
X005630Y008849D01*
X005695Y008948D02*
X005483Y008948D01*
X005483Y009046D02*
X005637Y009046D01*
X005637Y009145D02*
X005483Y009145D01*
X005483Y009243D02*
X005624Y009243D01*
X005609Y009342D02*
X005483Y009342D01*
X005483Y009440D02*
X005609Y009440D01*
X005609Y009539D02*
X005483Y009539D01*
X005483Y009637D02*
X005609Y009637D01*
X005609Y009736D02*
X005483Y009736D01*
X005483Y009834D02*
X005609Y009834D01*
X005609Y009933D02*
X005483Y009933D01*
X005483Y010031D02*
X005609Y010031D01*
X005609Y010130D02*
X005483Y010130D01*
X005483Y010228D02*
X005609Y010228D01*
X005609Y010327D02*
X005483Y010327D01*
X005483Y010425D02*
X005609Y010425D01*
X005609Y010524D02*
X005483Y010524D01*
X005483Y010622D02*
X005609Y010622D01*
X005609Y010721D02*
X005483Y010721D01*
X005483Y010819D02*
X005609Y010819D01*
X005609Y010918D02*
X005483Y010918D01*
X005483Y011016D02*
X005609Y011016D01*
X005609Y011115D02*
X005483Y011115D01*
X005483Y011213D02*
X005609Y011213D01*
X005609Y011312D02*
X005483Y011312D01*
X005483Y011410D02*
X005609Y011410D01*
X005609Y011509D02*
X005483Y011509D01*
X005483Y011607D02*
X005609Y011607D01*
X005609Y011706D02*
X005483Y011706D01*
X005483Y011804D02*
X005609Y011804D01*
X005609Y011903D02*
X005483Y011903D01*
X005483Y012001D02*
X005609Y012001D01*
X005609Y012100D02*
X005483Y012100D01*
X005483Y012198D02*
X005609Y012198D01*
X005609Y012297D02*
X005483Y012297D01*
X005483Y012395D02*
X005609Y012395D01*
X005609Y012494D02*
X005483Y012494D01*
X005483Y012592D02*
X005609Y012592D01*
X005609Y012691D02*
X005483Y012691D01*
X005483Y012789D02*
X005609Y012789D01*
X005609Y012888D02*
X005483Y012888D01*
X005483Y012986D02*
X005631Y012986D01*
X005672Y013085D02*
X005483Y013085D01*
X005483Y013183D02*
X005767Y013183D01*
X005793Y013209D02*
X005793Y013209D01*
X005865Y013282D02*
X005483Y013282D01*
X005483Y013380D02*
X005964Y013380D01*
X005999Y013479D02*
X005483Y013479D01*
X005483Y013577D02*
X005999Y013577D01*
X005999Y013676D02*
X005483Y013676D01*
X005483Y013774D02*
X005999Y013774D01*
X005986Y013873D02*
X005483Y013873D01*
X005483Y013971D02*
X005888Y013971D01*
X005789Y014070D02*
X005483Y014070D01*
X005483Y014168D02*
X005691Y014168D01*
X005593Y014265D02*
X005593Y014265D01*
X005592Y014267D02*
X005483Y014267D01*
X005483Y014365D02*
X005494Y014365D01*
X006299Y014759D02*
X007126Y014759D01*
X007126Y014661D02*
X006397Y014661D01*
X006496Y014562D02*
X007126Y014562D01*
X007126Y014464D02*
X006594Y014464D01*
X006693Y014365D02*
X007126Y014365D01*
X007018Y014267D02*
X006786Y014267D01*
X006827Y014168D02*
X006965Y014168D01*
X006965Y014070D02*
X006847Y014070D01*
X006847Y013971D02*
X006965Y013971D01*
X006965Y013873D02*
X006847Y013873D01*
X006847Y013774D02*
X006965Y013774D01*
X006965Y013676D02*
X006847Y013676D01*
X006847Y013577D02*
X006965Y013577D01*
X006965Y013479D02*
X006847Y013479D01*
X006847Y013380D02*
X006965Y013380D01*
X006965Y013282D02*
X006847Y013282D01*
X006847Y013183D02*
X007008Y013183D01*
X007126Y013085D02*
X006818Y013085D01*
X006769Y012986D02*
X007126Y012986D01*
X007126Y012888D02*
X006670Y012888D01*
X006572Y012789D02*
X007126Y012789D01*
X007126Y012691D02*
X006473Y012691D01*
X006457Y012592D02*
X007126Y012592D01*
X007126Y012494D02*
X006457Y012494D01*
X006457Y012395D02*
X007126Y012395D01*
X007126Y012297D02*
X006457Y012297D01*
X006457Y012198D02*
X007126Y012198D01*
X007126Y012100D02*
X006457Y012100D01*
X006457Y012001D02*
X007126Y012001D01*
X007126Y011903D02*
X006457Y011903D01*
X006457Y011804D02*
X006534Y011804D01*
X006496Y011706D02*
X006457Y011706D01*
X006457Y011607D02*
X006496Y011607D01*
X006496Y011509D02*
X006457Y011509D01*
X006457Y011410D02*
X006496Y011410D01*
X006496Y011312D02*
X006457Y011312D01*
X006457Y011213D02*
X006496Y011213D01*
X006496Y011115D02*
X006457Y011115D01*
X006457Y011016D02*
X006496Y011016D01*
X006496Y010918D02*
X006457Y010918D01*
X006457Y010819D02*
X006496Y010819D01*
X006457Y010721D02*
X006569Y010721D01*
X006551Y010622D02*
X006457Y010622D01*
X006457Y010524D02*
X006551Y010524D01*
X006551Y010425D02*
X006457Y010425D01*
X006457Y010327D02*
X006551Y010327D01*
X006551Y010228D02*
X006457Y010228D01*
X006457Y010130D02*
X006551Y010130D01*
X006551Y010031D02*
X006457Y010031D01*
X006457Y009933D02*
X006551Y009933D01*
X006457Y009834D02*
X007407Y009834D01*
X007323Y009933D02*
X007320Y009933D01*
X007673Y009933D02*
X007773Y009933D01*
X007773Y010031D02*
X007673Y010031D01*
X007673Y010130D02*
X007773Y010130D01*
X007773Y010228D02*
X007673Y010228D01*
X007773Y010327D02*
X008543Y010327D01*
X008543Y010425D02*
X008129Y010425D01*
X008129Y010524D02*
X008543Y010524D01*
X008538Y010819D02*
X008171Y010819D01*
X008171Y010918D02*
X008538Y010918D01*
X008538Y011016D02*
X008171Y011016D01*
X008171Y011115D02*
X008538Y011115D01*
X008538Y011213D02*
X008171Y011213D01*
X008171Y011312D02*
X008541Y011312D01*
X008581Y011410D02*
X008171Y011410D01*
X008171Y011509D02*
X008648Y011509D01*
X008778Y011607D02*
X008171Y011607D01*
X008171Y011706D02*
X008783Y011706D01*
X008685Y011804D02*
X008133Y011804D01*
X008389Y012100D02*
X007541Y012100D01*
X007541Y012198D02*
X008291Y012198D01*
X008488Y012001D02*
X007541Y012001D01*
X007541Y011903D02*
X008586Y011903D01*
X008878Y012198D02*
X008890Y012198D01*
X008890Y012191D02*
X008965Y012115D01*
X009702Y012115D01*
X009777Y012191D01*
X009777Y012321D01*
X009890Y012321D01*
X009890Y012191D01*
X009965Y012115D01*
X010465Y012115D01*
X010468Y012113D01*
X008963Y012113D01*
X008494Y012582D01*
X008372Y012704D01*
X007541Y012704D01*
X007541Y013151D01*
X007627Y013151D01*
X007702Y013227D01*
X007702Y014213D01*
X007627Y014289D01*
X007541Y014289D01*
X007541Y014614D01*
X007719Y014793D01*
X008055Y014793D01*
X008055Y014632D01*
X008130Y014556D01*
X008749Y014556D01*
X008824Y014632D01*
X008824Y014654D01*
X008831Y014627D01*
X008851Y014593D01*
X008879Y014565D01*
X008913Y014545D01*
X008951Y014535D01*
X009177Y014535D01*
X009177Y014950D01*
X009277Y014950D01*
X009277Y014535D01*
X009503Y014535D01*
X009541Y014545D01*
X009575Y014565D01*
X009603Y014593D01*
X009623Y014627D01*
X009633Y014665D01*
X009633Y014950D01*
X009277Y014950D01*
X009277Y015050D01*
X009177Y015050D01*
X009177Y015465D01*
X008951Y015465D01*
X008913Y015455D01*
X008879Y015435D01*
X008851Y015407D01*
X008831Y015373D01*
X008824Y015346D01*
X008824Y015368D01*
X008749Y015444D01*
X008647Y015444D01*
X008647Y015821D01*
X009682Y015821D01*
X009682Y015178D01*
X009787Y015073D01*
X009984Y014876D01*
X010998Y014876D01*
X011103Y014981D01*
X012100Y015979D01*
X012651Y015979D01*
X012756Y016083D01*
X013311Y016638D01*
X013311Y016036D01*
X013320Y016027D01*
X013320Y015761D01*
X013493Y015587D01*
X013493Y015494D01*
X013537Y015388D01*
X013619Y015306D01*
X013725Y015262D01*
X013840Y015262D01*
X013946Y015306D01*
X014027Y015388D01*
X014071Y015494D01*
X014071Y015609D01*
X014027Y015715D01*
X013946Y015796D01*
X013840Y015840D01*
X013746Y015840D01*
X013677Y015909D01*
X013677Y015926D01*
X013773Y015926D01*
X013794Y015947D01*
X013815Y015926D01*
X013970Y015926D01*
X013991Y015947D01*
X014011Y015926D01*
X014107Y015926D01*
X014107Y014867D01*
X014212Y014762D01*
X014890Y014085D01*
X014890Y013584D01*
X014965Y013509D01*
X015702Y013509D01*
X015777Y013584D01*
X015777Y013695D01*
X015909Y013695D01*
X015909Y013565D01*
X015974Y013500D01*
X015909Y013435D01*
X015909Y013014D01*
X015777Y012882D01*
X015777Y013416D01*
X015702Y013491D01*
X014965Y013491D01*
X014890Y013416D01*
X014890Y012832D01*
X014690Y012579D01*
X014662Y012579D01*
X014694Y012611D01*
X014694Y013268D01*
X014675Y013286D01*
X014675Y013411D01*
X014571Y013515D01*
X013907Y014179D01*
X013257Y014179D01*
X013257Y014435D01*
X013193Y014500D01*
X013257Y014565D01*
X013257Y015183D01*
X013182Y015259D01*
X013012Y015259D01*
X013012Y015470D01*
X013078Y015536D01*
X013122Y015643D01*
X013122Y015757D01*
X013078Y015864D01*
X012997Y015945D01*
X012891Y015989D01*
X012776Y015989D01*
X012670Y015945D01*
X012589Y015864D01*
X012545Y015757D01*
X012545Y015643D01*
X012589Y015536D01*
X012655Y015470D01*
X012655Y015259D01*
X012485Y015259D01*
X012409Y015183D01*
X012409Y014565D01*
X012474Y014500D01*
X012409Y014435D01*
X012409Y013817D01*
X012485Y013741D01*
X013182Y013741D01*
X013257Y013817D01*
X013257Y013821D01*
X013759Y013821D01*
X014237Y013343D01*
X014119Y013343D01*
X014113Y013337D01*
X014107Y013343D01*
X013863Y013343D01*
X013857Y013337D01*
X013851Y013343D01*
X013652Y013343D01*
X013652Y013434D01*
X013512Y013574D01*
X013407Y013679D01*
X012407Y013679D01*
X012257Y013829D01*
X012257Y014435D01*
X012193Y014500D01*
X012257Y014565D01*
X012257Y015183D01*
X012182Y015259D01*
X012077Y015259D01*
X012141Y015333D01*
X012212Y015333D01*
X012318Y015376D01*
X012399Y015458D01*
X012443Y015564D01*
X012443Y015679D01*
X012399Y015785D01*
X012318Y015866D01*
X012212Y015910D01*
X012097Y015910D01*
X011991Y015866D01*
X011910Y015785D01*
X011866Y015679D01*
X011866Y015564D01*
X011867Y015562D01*
X011702Y015372D01*
X011655Y015324D01*
X011655Y015317D01*
X011650Y015311D01*
X011654Y015259D01*
X011485Y015259D01*
X011409Y015183D01*
X011409Y014565D01*
X011474Y014500D01*
X011409Y014435D01*
X011409Y013817D01*
X011485Y013741D01*
X011839Y013741D01*
X012237Y013343D01*
X012083Y013343D01*
X012064Y013354D01*
X012026Y013364D01*
X011938Y013364D01*
X011938Y012939D01*
X011938Y012514D01*
X012026Y012514D01*
X012064Y012525D01*
X012083Y012536D01*
X012315Y012536D01*
X012322Y012542D01*
X012328Y012536D01*
X012571Y012536D01*
X012577Y012542D01*
X012584Y012536D01*
X012816Y012536D01*
X012835Y012525D01*
X012873Y012514D01*
X012961Y012514D01*
X012961Y012939D01*
X012961Y012939D01*
X012961Y012514D01*
X013050Y012514D01*
X013088Y012525D01*
X013107Y012536D01*
X013339Y012536D01*
X013345Y012542D01*
X013351Y012536D01*
X013526Y012536D01*
X013469Y012478D01*
X013422Y012365D01*
X013422Y012243D01*
X013469Y012131D01*
X013496Y012104D01*
X011719Y012107D01*
X011719Y012107D01*
X011633Y012107D01*
X011547Y012107D01*
X011486Y012046D01*
X011426Y011986D01*
X011426Y011986D01*
X011159Y011719D01*
X010931Y011719D01*
X010729Y011921D01*
X010804Y011921D01*
X010870Y011855D01*
X010976Y011811D01*
X011091Y011811D01*
X011197Y011855D01*
X011278Y011936D01*
X011322Y012043D01*
X011322Y012157D01*
X011278Y012264D01*
X011197Y012345D01*
X011091Y012389D01*
X010976Y012389D01*
X010870Y012345D01*
X010806Y012281D01*
X010777Y012309D01*
X010777Y012809D01*
X010702Y012885D01*
X010680Y012885D01*
X010706Y012892D01*
X010740Y012911D01*
X010768Y012939D01*
X010788Y012974D01*
X010798Y013012D01*
X010798Y013237D01*
X010383Y013237D01*
X010383Y013337D01*
X010798Y013337D01*
X010798Y013563D01*
X010788Y013601D01*
X010768Y013635D01*
X010740Y013663D01*
X010706Y013683D01*
X010668Y013693D01*
X010383Y013693D01*
X010383Y013337D01*
X010283Y013337D01*
X010283Y013237D01*
X009868Y013237D01*
X009868Y013012D01*
X009879Y012974D01*
X009898Y012939D01*
X009926Y012911D01*
X009960Y012892D01*
X009987Y012885D01*
X009965Y012885D01*
X009890Y012809D01*
X009890Y012679D01*
X009777Y012679D01*
X009777Y012809D01*
X009702Y012885D01*
X009680Y012885D01*
X009706Y012892D01*
X009740Y012911D01*
X009768Y012939D01*
X009788Y012974D01*
X009798Y013012D01*
X009798Y013237D01*
X009383Y013237D01*
X009383Y013337D01*
X009798Y013337D01*
X009798Y013563D01*
X009788Y013601D01*
X009768Y013635D01*
X009740Y013663D01*
X009706Y013683D01*
X009668Y013693D01*
X009383Y013693D01*
X009383Y013337D01*
X009283Y013337D01*
X009283Y013237D01*
X008868Y013237D01*
X008868Y013012D01*
X008879Y012974D01*
X008898Y012939D01*
X008926Y012911D01*
X008960Y012892D01*
X008987Y012885D01*
X008965Y012885D01*
X008890Y012809D01*
X008890Y012191D01*
X008890Y012297D02*
X008779Y012297D01*
X008681Y012395D02*
X008890Y012395D01*
X008890Y012494D02*
X008582Y012494D01*
X008494Y012582D02*
X008494Y012582D01*
X008484Y012592D02*
X008890Y012592D01*
X008890Y012691D02*
X008385Y012691D01*
X008293Y013130D02*
X008503Y013130D01*
X008541Y013140D01*
X008575Y013160D01*
X008603Y013188D01*
X008623Y013222D01*
X008633Y013260D01*
X008633Y013670D01*
X008293Y013670D01*
X008293Y013130D01*
X008293Y013183D02*
X008193Y013183D01*
X008193Y013130D02*
X007984Y013130D01*
X007945Y013140D01*
X007911Y013160D01*
X007883Y013188D01*
X007864Y013222D01*
X007853Y013260D01*
X007853Y013670D01*
X008193Y013670D01*
X008193Y013770D01*
X007853Y013770D01*
X007853Y014180D01*
X007864Y014218D01*
X007883Y014252D01*
X007911Y014280D01*
X007945Y014300D01*
X007984Y014310D01*
X008193Y014310D01*
X008193Y013770D01*
X008293Y013770D01*
X008293Y014310D01*
X008503Y014310D01*
X008541Y014300D01*
X008575Y014280D01*
X008603Y014252D01*
X008623Y014218D01*
X008633Y014180D01*
X008633Y013770D01*
X008293Y013770D01*
X008293Y013670D01*
X008193Y013670D01*
X008193Y013130D01*
X008193Y013282D02*
X008293Y013282D01*
X008293Y013380D02*
X008193Y013380D01*
X008193Y013479D02*
X008293Y013479D01*
X008293Y013577D02*
X008193Y013577D01*
X008193Y013676D02*
X007702Y013676D01*
X007702Y013774D02*
X007853Y013774D01*
X007853Y013873D02*
X007702Y013873D01*
X007702Y013971D02*
X007853Y013971D01*
X007853Y014070D02*
X007702Y014070D01*
X007702Y014168D02*
X007853Y014168D01*
X007898Y014267D02*
X007649Y014267D01*
X007541Y014365D02*
X011409Y014365D01*
X011409Y014267D02*
X008589Y014267D01*
X008633Y014168D02*
X011409Y014168D01*
X011409Y014070D02*
X008633Y014070D01*
X008633Y013971D02*
X011409Y013971D01*
X011409Y013873D02*
X008633Y013873D01*
X008633Y013774D02*
X011452Y013774D01*
X011548Y013343D02*
X011304Y013343D01*
X011298Y013337D01*
X011292Y013343D01*
X011048Y013343D01*
X010973Y013268D01*
X010973Y012611D01*
X011048Y012536D01*
X011292Y012536D01*
X011298Y012542D01*
X011304Y012536D01*
X011548Y012536D01*
X011554Y012542D01*
X011560Y012536D01*
X011792Y012536D01*
X011811Y012525D01*
X011849Y012514D01*
X011938Y012514D01*
X011938Y012939D01*
X011938Y012939D01*
X011938Y012939D01*
X011938Y013364D01*
X011849Y013364D01*
X011811Y013354D01*
X011792Y013343D01*
X011560Y013343D01*
X011554Y013337D01*
X011548Y013343D01*
X011938Y013282D02*
X011938Y013282D01*
X011938Y013183D02*
X011938Y013183D01*
X011938Y013085D02*
X011938Y013085D01*
X011938Y012986D02*
X011938Y012986D01*
X011938Y012888D02*
X011938Y012888D01*
X011938Y012789D02*
X011938Y012789D01*
X011938Y012691D02*
X011938Y012691D01*
X011938Y012592D02*
X011938Y012592D01*
X011547Y012107D02*
X011547Y012107D01*
X011547Y012107D01*
X011539Y012100D02*
X011322Y012100D01*
X011305Y012198D02*
X013441Y012198D01*
X013422Y012297D02*
X011245Y012297D01*
X011033Y012100D02*
X010733Y012100D01*
X010333Y012500D01*
X009333Y012500D01*
X008976Y012888D02*
X007541Y012888D01*
X007541Y012986D02*
X008875Y012986D01*
X008868Y013085D02*
X007541Y013085D01*
X007658Y013183D02*
X007888Y013183D01*
X007853Y013282D02*
X007702Y013282D01*
X007702Y013380D02*
X007853Y013380D01*
X007853Y013479D02*
X007702Y013479D01*
X007702Y013577D02*
X007853Y013577D01*
X008193Y013774D02*
X008293Y013774D01*
X008293Y013676D02*
X008947Y013676D01*
X008960Y013683D02*
X008926Y013663D01*
X008898Y013635D01*
X008879Y013601D01*
X008868Y013563D01*
X008868Y013337D01*
X009283Y013337D01*
X009283Y013693D01*
X008999Y013693D01*
X008960Y013683D01*
X008872Y013577D02*
X008633Y013577D01*
X008633Y013479D02*
X008868Y013479D01*
X008868Y013380D02*
X008633Y013380D01*
X008633Y013282D02*
X009283Y013282D01*
X009283Y013380D02*
X009383Y013380D01*
X009383Y013282D02*
X010283Y013282D01*
X010283Y013337D02*
X009868Y013337D01*
X009868Y013563D01*
X009879Y013601D01*
X009898Y013635D01*
X009926Y013663D01*
X009960Y013683D01*
X009999Y013693D01*
X010283Y013693D01*
X010283Y013337D01*
X010283Y013380D02*
X010383Y013380D01*
X010383Y013282D02*
X010987Y013282D01*
X010973Y013183D02*
X010798Y013183D01*
X010798Y013085D02*
X010973Y013085D01*
X010973Y012986D02*
X010791Y012986D01*
X010691Y012888D02*
X010973Y012888D01*
X010973Y012789D02*
X010777Y012789D01*
X010777Y012691D02*
X010973Y012691D01*
X010992Y012592D02*
X010777Y012592D01*
X010777Y012494D02*
X013484Y012494D01*
X013434Y012395D02*
X010777Y012395D01*
X010790Y012297D02*
X010822Y012297D01*
X010590Y012250D02*
X010333Y012500D01*
X009890Y012691D02*
X009777Y012691D01*
X009777Y012789D02*
X009890Y012789D01*
X009976Y012888D02*
X009691Y012888D01*
X009791Y012986D02*
X009875Y012986D01*
X009868Y013085D02*
X009798Y013085D01*
X009798Y013183D02*
X009868Y013183D01*
X009868Y013380D02*
X009798Y013380D01*
X009798Y013479D02*
X009868Y013479D01*
X009872Y013577D02*
X009795Y013577D01*
X009719Y013676D02*
X009947Y013676D01*
X010283Y013676D02*
X010383Y013676D01*
X010383Y013577D02*
X010283Y013577D01*
X010283Y013479D02*
X010383Y013479D01*
X010719Y013676D02*
X011905Y013676D01*
X012004Y013577D02*
X010795Y013577D01*
X010798Y013479D02*
X012102Y013479D01*
X012201Y013380D02*
X010798Y013380D01*
X011833Y014000D02*
X011833Y014126D01*
X011833Y014000D02*
X012333Y013500D01*
X013333Y013500D01*
X013473Y013360D01*
X013473Y012939D01*
X013729Y012939D02*
X013729Y012304D01*
X014241Y012593D02*
X014383Y012400D01*
X014777Y012400D01*
X015333Y013106D01*
X015777Y013085D02*
X015909Y013085D01*
X015909Y013183D02*
X015777Y013183D01*
X015777Y013282D02*
X015909Y013282D01*
X015909Y013380D02*
X015777Y013380D01*
X015714Y013479D02*
X015953Y013479D01*
X015909Y013577D02*
X015770Y013577D01*
X015777Y013676D02*
X015909Y013676D01*
X015909Y014070D02*
X015777Y014070D01*
X015777Y014168D02*
X015909Y014168D01*
X015713Y014267D02*
X021847Y014267D01*
X021983Y014150D02*
X021833Y014000D01*
X016459Y014000D01*
X016333Y013874D01*
X015353Y013874D01*
X015333Y013894D01*
X014286Y014941D01*
X014286Y016350D01*
X014483Y016350D02*
X014483Y016929D01*
X014310Y017102D01*
X013522Y017102D01*
X012577Y016157D01*
X012026Y016157D01*
X010924Y015055D01*
X010058Y015055D01*
X009861Y015252D01*
X009861Y015921D01*
X009782Y016000D01*
X008440Y016000D01*
X008232Y016040D02*
X007575Y016040D01*
X007595Y016074D01*
X007605Y016112D01*
X007605Y016241D01*
X007031Y016241D01*
X007031Y015759D01*
X007013Y015759D01*
X007013Y015741D01*
X006439Y015741D01*
X006439Y015612D01*
X006449Y015574D01*
X006469Y015540D01*
X006497Y015512D01*
X006531Y015492D01*
X006569Y015482D01*
X007013Y015482D01*
X007013Y015741D01*
X007031Y015741D01*
X007031Y015482D01*
X007475Y015482D01*
X007513Y015492D01*
X007547Y015512D01*
X007575Y015540D01*
X007595Y015574D01*
X007605Y015612D01*
X007605Y015741D01*
X007031Y015741D01*
X007031Y015759D01*
X007605Y015759D01*
X007605Y015888D01*
X007595Y015926D01*
X007575Y015960D01*
X007547Y015988D01*
X007527Y016000D01*
X007547Y016012D01*
X007575Y016040D01*
X007586Y015941D02*
X008232Y015941D01*
X008232Y015843D02*
X007605Y015843D01*
X007605Y015646D02*
X008232Y015646D01*
X008232Y015744D02*
X007031Y015744D01*
X007013Y015744D02*
X006257Y015744D01*
X006257Y015646D02*
X006439Y015646D01*
X006465Y015547D02*
X006257Y015547D01*
X006257Y015449D02*
X008232Y015449D01*
X008232Y015547D02*
X007580Y015547D01*
X007031Y015547D02*
X007013Y015547D01*
X007013Y015646D02*
X007031Y015646D01*
X007013Y015759D02*
X006439Y015759D01*
X006439Y015888D01*
X006449Y015926D01*
X006469Y015960D01*
X006497Y015988D01*
X006518Y016000D01*
X006497Y016012D01*
X006469Y016040D01*
X006449Y016074D01*
X006439Y016112D01*
X006439Y016241D01*
X007013Y016241D01*
X007013Y016259D01*
X006439Y016259D01*
X006439Y016388D01*
X006449Y016426D01*
X006469Y016460D01*
X006497Y016488D01*
X006518Y016500D01*
X006497Y016512D01*
X006469Y016540D01*
X006449Y016574D01*
X006439Y016612D01*
X006439Y016741D01*
X007013Y016741D01*
X007013Y016759D01*
X006439Y016759D01*
X006439Y016888D01*
X006449Y016926D01*
X006469Y016960D01*
X006497Y016988D01*
X006518Y017000D01*
X006497Y017012D01*
X006469Y017040D01*
X006449Y017074D01*
X006439Y017112D01*
X006439Y017241D01*
X007013Y017241D01*
X007013Y017259D01*
X006439Y017259D01*
X006439Y017388D01*
X006449Y017426D01*
X006469Y017460D01*
X006497Y017488D01*
X006531Y017508D01*
X006460Y017579D01*
X006460Y017921D01*
X006536Y017997D01*
X007509Y017997D01*
X007584Y017921D01*
X007584Y017579D01*
X007513Y017508D01*
X007547Y017488D01*
X007575Y017460D01*
X007595Y017426D01*
X007605Y017388D01*
X007605Y017259D01*
X007031Y017259D01*
X007031Y017241D01*
X007031Y016982D01*
X007031Y016759D01*
X007013Y016759D01*
X007013Y017241D01*
X007031Y017241D01*
X007605Y017241D01*
X007605Y017112D01*
X007595Y017074D01*
X007575Y017040D01*
X007547Y017012D01*
X007527Y017000D01*
X007547Y016988D01*
X007575Y016960D01*
X007595Y016926D01*
X008232Y016926D01*
X008232Y016828D02*
X007605Y016828D01*
X007605Y016888D02*
X007595Y016926D01*
X007605Y016888D02*
X007605Y016759D01*
X007031Y016759D01*
X007031Y016741D01*
X007031Y016259D01*
X007013Y016259D01*
X007013Y016518D01*
X007013Y016741D01*
X007031Y016741D01*
X007605Y016741D01*
X007605Y016612D01*
X007595Y016574D01*
X007575Y016540D01*
X007547Y016512D01*
X007527Y016500D01*
X007547Y016488D01*
X007575Y016460D01*
X007595Y016426D01*
X007605Y016388D01*
X007605Y016259D01*
X007031Y016259D01*
X007031Y016241D01*
X007013Y016241D01*
X007013Y016018D01*
X007013Y015759D01*
X007013Y015843D02*
X007031Y015843D01*
X007031Y015941D02*
X007013Y015941D01*
X007013Y016040D02*
X007031Y016040D01*
X007031Y016138D02*
X007013Y016138D01*
X007013Y016237D02*
X007031Y016237D01*
X007031Y016335D02*
X007013Y016335D01*
X007013Y016434D02*
X007031Y016434D01*
X007031Y016532D02*
X007013Y016532D01*
X007013Y016631D02*
X007031Y016631D01*
X007031Y016729D02*
X007013Y016729D01*
X007013Y016828D02*
X007031Y016828D01*
X007031Y016926D02*
X007013Y016926D01*
X007013Y017025D02*
X007031Y017025D01*
X007031Y017123D02*
X007013Y017123D01*
X007013Y017222D02*
X007031Y017222D01*
X007560Y017025D02*
X008232Y017025D01*
X008232Y017123D02*
X007605Y017123D01*
X007605Y017222D02*
X008232Y017222D01*
X008232Y017320D02*
X007605Y017320D01*
X007597Y017419D02*
X008232Y017419D01*
X008232Y017517D02*
X007523Y017517D01*
X007584Y017616D02*
X008232Y017616D01*
X008232Y017714D02*
X007584Y017714D01*
X007584Y017813D02*
X008227Y017813D01*
X008129Y017911D02*
X007584Y017911D01*
X007509Y018003D02*
X007584Y018079D01*
X007584Y018421D01*
X007509Y018497D01*
X006536Y018497D01*
X006460Y018421D01*
X006460Y018079D01*
X006536Y018003D01*
X007509Y018003D01*
X007515Y018010D02*
X008030Y018010D01*
X007932Y018108D02*
X007584Y018108D01*
X007584Y018207D02*
X007833Y018207D01*
X007735Y018305D02*
X007584Y018305D01*
X007584Y018404D02*
X007636Y018404D01*
X007538Y018502D02*
X006257Y018502D01*
X006257Y018404D02*
X006460Y018404D01*
X006460Y018305D02*
X006257Y018305D01*
X006257Y018207D02*
X006460Y018207D01*
X006460Y018108D02*
X006257Y018108D01*
X006257Y018010D02*
X006530Y018010D01*
X006460Y017911D02*
X006257Y017911D01*
X006257Y017813D02*
X006460Y017813D01*
X006460Y017714D02*
X006257Y017714D01*
X006257Y017616D02*
X006460Y017616D01*
X006522Y017517D02*
X006257Y017517D01*
X006257Y017419D02*
X006447Y017419D01*
X006439Y017320D02*
X006257Y017320D01*
X006257Y017222D02*
X006439Y017222D01*
X006439Y017123D02*
X006257Y017123D01*
X006257Y017025D02*
X006484Y017025D01*
X006449Y016926D02*
X006257Y016926D01*
X006257Y016828D02*
X006439Y016828D01*
X006439Y016729D02*
X006257Y016729D01*
X006257Y016631D02*
X006439Y016631D01*
X006477Y016532D02*
X006257Y016532D01*
X006257Y016434D02*
X006454Y016434D01*
X006439Y016335D02*
X006257Y016335D01*
X006257Y016237D02*
X006439Y016237D01*
X006439Y016138D02*
X006257Y016138D01*
X006257Y016040D02*
X006469Y016040D01*
X006458Y015941D02*
X006257Y015941D01*
X006257Y015843D02*
X006439Y015843D01*
X006257Y015350D02*
X008055Y015350D01*
X008055Y015252D02*
X006257Y015252D01*
X006257Y015153D02*
X007493Y015153D01*
X007394Y015055D02*
X006257Y015055D01*
X006257Y014956D02*
X007296Y014956D01*
X007197Y014858D02*
X006257Y014858D01*
X007541Y014562D02*
X008125Y014562D01*
X008055Y014661D02*
X007587Y014661D01*
X007686Y014759D02*
X008055Y014759D01*
X008193Y014267D02*
X008293Y014267D01*
X008293Y014168D02*
X008193Y014168D01*
X008193Y014070D02*
X008293Y014070D01*
X008293Y013971D02*
X008193Y013971D01*
X008193Y013873D02*
X008293Y013873D01*
X008598Y013183D02*
X008868Y013183D01*
X008890Y012789D02*
X007541Y012789D01*
X007333Y013720D02*
X007333Y013894D01*
X007541Y014464D02*
X011438Y014464D01*
X011412Y014562D02*
X009570Y014562D01*
X009632Y014661D02*
X011409Y014661D01*
X011409Y014759D02*
X009633Y014759D01*
X009633Y014858D02*
X011409Y014858D01*
X011409Y014956D02*
X011078Y014956D01*
X011176Y015055D02*
X011409Y015055D01*
X011409Y015153D02*
X011275Y015153D01*
X011373Y015252D02*
X011478Y015252D01*
X011472Y015350D02*
X011681Y015350D01*
X011769Y015449D02*
X011570Y015449D01*
X011669Y015547D02*
X011854Y015547D01*
X011866Y015646D02*
X011767Y015646D01*
X011866Y015744D02*
X011893Y015744D01*
X011964Y015843D02*
X011968Y015843D01*
X012063Y015941D02*
X012666Y015941D01*
X012712Y016040D02*
X013311Y016040D01*
X013311Y016138D02*
X012811Y016138D01*
X012909Y016237D02*
X013311Y016237D01*
X013311Y016335D02*
X013008Y016335D01*
X013106Y016434D02*
X013311Y016434D01*
X013311Y016532D02*
X013205Y016532D01*
X013303Y016631D02*
X013311Y016631D01*
X013499Y016350D02*
X013499Y015835D01*
X013782Y015551D01*
X013575Y015350D02*
X013012Y015350D01*
X013012Y015449D02*
X013512Y015449D01*
X013493Y015547D02*
X013082Y015547D01*
X013122Y015646D02*
X013435Y015646D01*
X013337Y015744D02*
X013122Y015744D01*
X013087Y015843D02*
X013320Y015843D01*
X013320Y015941D02*
X013001Y015941D01*
X012833Y015700D02*
X012833Y014874D01*
X012409Y014858D02*
X012257Y014858D01*
X012257Y014956D02*
X012409Y014956D01*
X012409Y015055D02*
X012257Y015055D01*
X012257Y015153D02*
X012409Y015153D01*
X012478Y015252D02*
X012189Y015252D01*
X012254Y015350D02*
X012655Y015350D01*
X012655Y015449D02*
X012390Y015449D01*
X012436Y015547D02*
X012584Y015547D01*
X012545Y015646D02*
X012443Y015646D01*
X012416Y015744D02*
X012545Y015744D01*
X012580Y015843D02*
X012342Y015843D01*
X012155Y015621D02*
X011833Y015250D01*
X011833Y014874D01*
X012257Y014759D02*
X012409Y014759D01*
X012409Y014661D02*
X012257Y014661D01*
X012255Y014562D02*
X012412Y014562D01*
X012438Y014464D02*
X012229Y014464D01*
X012257Y014365D02*
X012409Y014365D01*
X012409Y014267D02*
X012257Y014267D01*
X012257Y014168D02*
X012409Y014168D01*
X012409Y014070D02*
X012257Y014070D01*
X012257Y013971D02*
X012409Y013971D01*
X012409Y013873D02*
X012257Y013873D01*
X012312Y013774D02*
X012452Y013774D01*
X012833Y014000D02*
X013833Y014000D01*
X014497Y013337D01*
X014497Y012939D01*
X014694Y012986D02*
X014890Y012986D01*
X014890Y012888D02*
X014694Y012888D01*
X014694Y012789D02*
X014856Y012789D01*
X014778Y012691D02*
X014694Y012691D01*
X014701Y012592D02*
X014675Y012592D01*
X014694Y013085D02*
X014890Y013085D01*
X014890Y013183D02*
X014694Y013183D01*
X014680Y013282D02*
X014890Y013282D01*
X014890Y013380D02*
X014675Y013380D01*
X014608Y013479D02*
X014953Y013479D01*
X014897Y013577D02*
X014509Y013577D01*
X014411Y013676D02*
X014890Y013676D01*
X014890Y013774D02*
X014312Y013774D01*
X014214Y013873D02*
X014890Y013873D01*
X014890Y013971D02*
X014115Y013971D01*
X014017Y014070D02*
X014890Y014070D01*
X014806Y014168D02*
X013918Y014168D01*
X013807Y013774D02*
X013215Y013774D01*
X013411Y013676D02*
X013905Y013676D01*
X014004Y013577D02*
X013509Y013577D01*
X013608Y013479D02*
X014102Y013479D01*
X014201Y013380D02*
X013652Y013380D01*
X014241Y012939D02*
X014241Y012593D01*
X014765Y011686D02*
X014765Y011686D01*
X014937Y011686D02*
X014937Y011686D01*
X015182Y011706D02*
X015875Y011706D01*
X015974Y011607D02*
X011634Y011607D01*
X011535Y011509D02*
X012053Y011509D01*
X011937Y011410D02*
X011437Y011410D01*
X011338Y011312D02*
X011896Y011312D01*
X011895Y011213D02*
X010417Y011213D01*
X010417Y011257D02*
X010406Y011327D01*
X010384Y011394D01*
X010352Y011457D01*
X010310Y011514D01*
X010260Y011564D01*
X010203Y011606D01*
X010140Y011638D01*
X010073Y011660D01*
X010017Y011669D01*
X010017Y010971D01*
X010017Y010871D01*
X010017Y010174D01*
X010073Y010182D01*
X010140Y010204D01*
X010203Y010236D01*
X010260Y010278D01*
X010310Y010328D01*
X010352Y010385D01*
X010384Y010449D01*
X010406Y010516D01*
X010417Y010586D01*
X010417Y010871D01*
X010017Y010871D01*
X009917Y010871D01*
X009917Y010174D01*
X009862Y010182D01*
X009794Y010204D01*
X009731Y010236D01*
X009674Y010278D01*
X009624Y010328D01*
X009582Y010385D01*
X009550Y010449D01*
X009528Y010516D01*
X009517Y010586D01*
X009517Y010871D01*
X009917Y010871D01*
X009917Y010971D01*
X009517Y010971D01*
X009517Y011257D01*
X009528Y011327D01*
X009550Y011394D01*
X009582Y011457D01*
X009624Y011514D01*
X009674Y011564D01*
X009731Y011606D01*
X009794Y011638D01*
X009862Y011660D01*
X009917Y011669D01*
X009917Y010971D01*
X010017Y010971D01*
X010417Y010971D01*
X010417Y011257D01*
X010409Y011312D02*
X010752Y011312D01*
X010654Y011410D02*
X010376Y011410D01*
X010315Y011509D02*
X010555Y011509D01*
X010457Y011607D02*
X010201Y011607D01*
X010017Y011607D02*
X009917Y011607D01*
X009917Y011509D02*
X010017Y011509D01*
X010017Y011410D02*
X009917Y011410D01*
X009917Y011312D02*
X010017Y011312D01*
X010017Y011213D02*
X009917Y011213D01*
X009917Y011115D02*
X010017Y011115D01*
X010017Y011016D02*
X009917Y011016D01*
X009917Y010918D02*
X009396Y010918D01*
X009396Y011016D02*
X009517Y011016D01*
X009517Y011115D02*
X009396Y011115D01*
X009396Y011213D02*
X009517Y011213D01*
X009526Y011312D02*
X009394Y011312D01*
X009353Y011410D02*
X009558Y011410D01*
X009620Y011509D02*
X009286Y011509D01*
X009156Y011607D02*
X009733Y011607D01*
X010417Y011115D02*
X011927Y011115D01*
X012009Y011016D02*
X010417Y011016D01*
X010417Y010819D02*
X011395Y010819D01*
X011365Y010721D02*
X010417Y010721D01*
X010417Y010622D02*
X011366Y010622D01*
X011407Y010524D02*
X010407Y010524D01*
X010372Y010425D02*
X011009Y010425D01*
X010973Y010327D02*
X010309Y010327D01*
X010187Y010228D02*
X010973Y010228D01*
X010973Y010130D02*
X009391Y010130D01*
X009391Y010228D02*
X009748Y010228D01*
X009626Y010327D02*
X009391Y010327D01*
X009391Y010425D02*
X009562Y010425D01*
X009527Y010524D02*
X009391Y010524D01*
X009396Y010622D02*
X009517Y010622D01*
X009517Y010721D02*
X009396Y010721D01*
X009396Y010819D02*
X009517Y010819D01*
X009917Y010819D02*
X010017Y010819D01*
X010017Y010721D02*
X009917Y010721D01*
X009917Y010622D02*
X010017Y010622D01*
X010017Y010524D02*
X009917Y010524D01*
X009917Y010425D02*
X010017Y010425D01*
X010017Y010327D02*
X009917Y010327D01*
X009917Y010228D02*
X010017Y010228D01*
X009391Y010031D02*
X010973Y010031D01*
X010973Y009933D02*
X009387Y009933D01*
X009346Y009834D02*
X010973Y009834D01*
X010973Y009736D02*
X009275Y009736D01*
X009176Y009637D02*
X010741Y009637D01*
X010655Y009539D02*
X009078Y009539D01*
X008979Y009440D02*
X010617Y009440D01*
X010617Y009342D02*
X008881Y009342D01*
X008782Y009243D02*
X010651Y009243D01*
X010731Y009145D02*
X008684Y009145D01*
X008585Y009046D02*
X011247Y009046D01*
X011247Y009145D02*
X011117Y009145D01*
X011197Y009243D02*
X011247Y009243D01*
X011247Y009342D02*
X011231Y009342D01*
X011160Y009622D02*
X010924Y009386D01*
X011160Y009622D02*
X011160Y010051D01*
X011170Y010061D01*
X011426Y010061D02*
X011426Y009041D01*
X012420Y008047D01*
X013522Y008047D01*
X013640Y008165D01*
X013640Y008528D01*
X013633Y008535D01*
X013901Y008258D02*
X016075Y008258D01*
X016075Y008160D02*
X013819Y008160D01*
X013789Y008061D02*
X015386Y008061D01*
X015317Y007963D02*
X013690Y007963D01*
X013976Y008357D02*
X016075Y008357D01*
X016075Y008455D02*
X014017Y008455D01*
X014019Y008554D02*
X016075Y008554D01*
X016075Y008652D02*
X014098Y008652D01*
X014334Y008948D02*
X017655Y008948D01*
X017655Y009046D02*
X014334Y009046D01*
X014309Y009145D02*
X017725Y009145D01*
X017824Y009243D02*
X014259Y009243D01*
X014151Y009342D02*
X017922Y009342D01*
X018021Y009440D02*
X014115Y009440D01*
X014016Y009539D02*
X017660Y009539D01*
X017538Y009637D02*
X014078Y009637D01*
X013985Y009637D02*
X013985Y009637D01*
X013985Y009636D02*
X013985Y010061D01*
X013985Y010061D01*
X013948Y010061D01*
X013729Y010061D01*
X013729Y010486D01*
X013729Y010061D01*
X013729Y010061D01*
X013729Y010061D01*
X013985Y010061D01*
X013985Y010061D01*
X013985Y009636D01*
X013985Y009736D02*
X013985Y009736D01*
X013985Y009834D02*
X013985Y009834D01*
X013985Y009933D02*
X013985Y009933D01*
X013985Y010031D02*
X013985Y010031D01*
X013985Y010130D02*
X013985Y010130D01*
X013985Y010228D02*
X013985Y010228D01*
X013985Y010327D02*
X013985Y010327D01*
X013985Y010425D02*
X013985Y010425D01*
X013729Y010425D02*
X013729Y010425D01*
X013729Y010327D02*
X013729Y010327D01*
X013729Y010228D02*
X013729Y010228D01*
X013729Y010130D02*
X013729Y010130D01*
X013396Y010524D02*
X017057Y010524D01*
X017075Y010425D02*
X014658Y010425D01*
X014694Y010327D02*
X017075Y010327D01*
X017075Y010228D02*
X014694Y010228D01*
X014694Y010130D02*
X017097Y010130D01*
X017300Y010031D02*
X014694Y010031D01*
X014694Y009933D02*
X017398Y009933D01*
X017495Y009834D02*
X014694Y009834D01*
X014694Y009736D02*
X017498Y009736D01*
X017783Y009800D02*
X017459Y010124D01*
X017459Y010500D01*
X017333Y010500D01*
X015833Y012000D01*
X015545Y012001D02*
X015472Y012001D01*
X015561Y011903D02*
X015374Y011903D01*
X015281Y011804D02*
X015621Y011804D01*
X016072Y011509D02*
X012314Y011509D01*
X012430Y011410D02*
X013135Y011410D01*
X013067Y011312D02*
X012470Y011312D01*
X012472Y011213D02*
X013045Y011213D01*
X012995Y011115D02*
X012531Y011115D01*
X012620Y011016D02*
X012897Y011016D01*
X012798Y010918D02*
X012628Y010918D01*
X012628Y010819D02*
X012783Y010819D01*
X012783Y010721D02*
X012628Y010721D01*
X012628Y010622D02*
X012783Y010622D01*
X012783Y010524D02*
X012628Y010524D01*
X012705Y010486D02*
X012705Y010061D01*
X012705Y010061D01*
X012705Y010486D01*
X012705Y010425D02*
X012705Y010425D01*
X012705Y010327D02*
X012705Y010327D01*
X012705Y010228D02*
X012705Y010228D01*
X012705Y010130D02*
X012705Y010130D01*
X012449Y010061D02*
X012449Y009671D01*
X012499Y009622D01*
X013680Y009622D01*
X013948Y009354D01*
X013948Y009008D01*
X013636Y009243D02*
X013629Y009243D01*
X013633Y009239D02*
X013721Y009328D01*
X013606Y009443D01*
X012425Y009443D01*
X012320Y009548D01*
X012271Y009597D01*
X012271Y009657D01*
X012083Y009657D01*
X012064Y009646D01*
X012026Y009636D01*
X011938Y009636D01*
X011938Y010061D01*
X011938Y010061D01*
X011938Y009636D01*
X011849Y009636D01*
X011811Y009646D01*
X011792Y009657D01*
X011605Y009657D01*
X011605Y009115D01*
X012494Y008226D01*
X012766Y008226D01*
X012675Y008317D01*
X012616Y008459D01*
X012616Y008607D01*
X012592Y008610D01*
X012531Y008630D01*
X012474Y008659D01*
X012422Y008697D01*
X012377Y008742D01*
X012339Y008794D01*
X012310Y008851D01*
X012290Y008912D01*
X012280Y008976D01*
X012280Y008979D01*
X012659Y008979D01*
X012659Y009037D01*
X012659Y009415D01*
X012656Y009415D01*
X012592Y009405D01*
X012531Y009385D01*
X012474Y009356D01*
X012422Y009319D01*
X012377Y009273D01*
X012339Y009221D01*
X012310Y009164D01*
X012290Y009103D01*
X012280Y009040D01*
X012280Y009037D01*
X012659Y009037D01*
X012716Y009037D01*
X012716Y009415D01*
X012720Y009415D01*
X012783Y009405D01*
X012844Y009385D01*
X012901Y009356D01*
X012953Y009319D01*
X012998Y009273D01*
X013015Y009251D01*
X013099Y009335D01*
X013241Y009394D01*
X013394Y009394D01*
X013536Y009335D01*
X013633Y009239D01*
X013708Y009342D02*
X013521Y009342D01*
X013609Y009440D02*
X011605Y009440D01*
X011605Y009342D02*
X012454Y009342D01*
X012355Y009243D02*
X011605Y009243D01*
X011605Y009145D02*
X012304Y009145D01*
X012281Y009046D02*
X011674Y009046D01*
X011772Y008948D02*
X012285Y008948D01*
X012311Y008849D02*
X011871Y008849D01*
X011969Y008751D02*
X012371Y008751D01*
X012489Y008652D02*
X012068Y008652D01*
X012166Y008554D02*
X012616Y008554D01*
X012618Y008455D02*
X012265Y008455D01*
X012363Y008357D02*
X012659Y008357D01*
X012734Y008258D02*
X012462Y008258D01*
X012055Y008160D02*
X006496Y008160D01*
X006489Y008061D02*
X005483Y008061D01*
X005483Y007963D02*
X006377Y007963D01*
X006281Y007864D02*
X005483Y007864D01*
X005483Y007766D02*
X006240Y007766D01*
X006199Y007667D02*
X005483Y007667D01*
X005483Y007569D02*
X006183Y007569D01*
X006183Y007470D02*
X005483Y007470D01*
X005483Y007372D02*
X006183Y007372D01*
X006224Y007273D02*
X005483Y007273D01*
X005483Y007175D02*
X006265Y007175D01*
X006338Y007076D02*
X005483Y007076D01*
X005486Y006978D02*
X006437Y006978D01*
X006634Y006879D02*
X005492Y006879D01*
X005483Y008160D02*
X005666Y008160D01*
X005616Y008258D02*
X005483Y008258D01*
X005483Y008357D02*
X005616Y008357D01*
X005616Y008455D02*
X005483Y008455D01*
X006031Y008357D02*
X006131Y008357D01*
X006131Y008258D02*
X006031Y008258D01*
X006031Y008160D02*
X006131Y008160D01*
X006546Y008652D02*
X011562Y008652D01*
X011464Y008751D02*
X006546Y008751D01*
X006531Y008849D02*
X011365Y008849D01*
X011267Y008948D02*
X008409Y008948D01*
X008174Y009834D02*
X008039Y009834D01*
X008124Y009933D02*
X008272Y009933D01*
X008371Y010031D02*
X008129Y010031D01*
X008129Y010130D02*
X008469Y010130D01*
X008543Y010228D02*
X008129Y010228D01*
X008129Y010622D02*
X008119Y010660D01*
X008099Y010694D01*
X008075Y010718D01*
X008095Y010718D01*
X007773Y009834D02*
X007673Y009834D01*
X010017Y010918D02*
X011470Y010918D01*
X011672Y010685D02*
X011672Y010070D01*
X011682Y010061D01*
X011938Y010031D02*
X011938Y010031D01*
X011938Y009933D02*
X011938Y009933D01*
X011938Y009834D02*
X011938Y009834D01*
X011938Y009736D02*
X011938Y009736D01*
X011938Y009637D02*
X011938Y009637D01*
X012031Y009637D02*
X012271Y009637D01*
X012329Y009539D02*
X011605Y009539D01*
X011605Y009637D02*
X011844Y009637D01*
X011938Y010130D02*
X011938Y010130D01*
X011938Y010228D02*
X011938Y010228D01*
X011938Y010327D02*
X011938Y010327D01*
X011938Y010425D02*
X011938Y010425D01*
X011937Y010524D02*
X012271Y010524D01*
X012271Y010622D02*
X011978Y010622D01*
X011979Y010721D02*
X012271Y010721D01*
X012271Y010819D02*
X011949Y010819D01*
X011873Y010918D02*
X012230Y010918D01*
X012449Y010934D02*
X012183Y011250D01*
X012449Y010934D02*
X012449Y010061D01*
X012961Y010061D02*
X012961Y010828D01*
X013333Y011200D01*
X013600Y011312D02*
X016269Y011312D01*
X016171Y011410D02*
X013532Y011410D01*
X013622Y011213D02*
X016368Y011213D01*
X016466Y011115D02*
X014449Y011115D01*
X014576Y011016D02*
X016565Y011016D01*
X016663Y010918D02*
X014618Y010918D01*
X014622Y010819D02*
X016762Y010819D01*
X016860Y010721D02*
X014592Y010721D01*
X014514Y010622D02*
X016959Y010622D01*
X017459Y011250D02*
X018359Y012150D01*
X020333Y012150D01*
X020483Y012000D01*
X022333Y012000D01*
X022613Y011720D01*
X026125Y011720D01*
X026554Y011720D01*
X027333Y012500D01*
X027333Y013000D01*
X026333Y014000D01*
X025333Y014000D01*
X023233Y016100D01*
X022862Y016434D02*
X022762Y016434D01*
X022762Y016532D02*
X022960Y016532D01*
X023027Y016599D02*
X022762Y016334D01*
X022762Y016676D01*
X022857Y016771D01*
X023027Y016601D01*
X023440Y016601D01*
X023732Y016893D01*
X023732Y017307D01*
X023454Y017585D01*
X023748Y017880D01*
X024027Y017601D01*
X024440Y017601D01*
X024655Y017816D01*
X024655Y017774D01*
X024460Y017579D01*
X024440Y017599D01*
X024027Y017599D01*
X023735Y017307D01*
X023735Y016893D01*
X024027Y016601D01*
X024440Y016601D01*
X024732Y016893D01*
X024732Y017307D01*
X024712Y017326D01*
X025012Y017626D01*
X025012Y018574D01*
X024907Y018679D01*
X024865Y018721D01*
X025294Y018850D01*
X026405Y018850D01*
X026405Y017780D01*
X026339Y017714D01*
X025012Y017714D01*
X025012Y017813D02*
X026405Y017813D01*
X026405Y017911D02*
X025012Y017911D01*
X025012Y018010D02*
X026405Y018010D01*
X026405Y018108D02*
X025012Y018108D01*
X025012Y018207D02*
X026405Y018207D01*
X026405Y018305D02*
X025012Y018305D01*
X025012Y018404D02*
X026405Y018404D01*
X026405Y018502D02*
X025012Y018502D01*
X024986Y018601D02*
X026405Y018601D01*
X026405Y018699D02*
X024887Y018699D01*
X024833Y018500D02*
X024833Y017700D01*
X024233Y017100D01*
X023735Y017123D02*
X023732Y017123D01*
X023732Y017025D02*
X023735Y017025D01*
X023732Y016926D02*
X023735Y016926D01*
X023800Y016828D02*
X023666Y016828D01*
X023568Y016729D02*
X023899Y016729D01*
X023997Y016631D02*
X023469Y016631D01*
X023440Y016599D02*
X023027Y016599D01*
X022997Y016631D02*
X022762Y016631D01*
X022815Y016729D02*
X022899Y016729D01*
X022583Y016750D02*
X022583Y014550D01*
X022714Y014398D01*
X022833Y014278D01*
X023612Y013500D01*
X026333Y013500D01*
X026833Y013000D01*
X026833Y012500D01*
X026487Y012154D01*
X026046Y012154D01*
X026125Y011720D02*
X024304Y011720D01*
X023304Y011720D02*
X026125Y011720D01*
X026470Y011434D02*
X026473Y011434D01*
X026549Y011510D01*
X026549Y011542D01*
X026628Y011542D01*
X027512Y012426D01*
X027512Y013068D01*
X027655Y012926D01*
X027655Y011574D01*
X026681Y010600D01*
X026535Y010600D01*
X026540Y010605D01*
X026560Y010639D01*
X026570Y010677D01*
X026570Y010826D01*
X026153Y010826D01*
X026153Y010883D01*
X026570Y010883D01*
X026570Y011032D01*
X026560Y011070D01*
X026540Y011104D01*
X026512Y011132D01*
X026478Y011152D01*
X026470Y011154D01*
X026470Y011434D01*
X026470Y011410D02*
X027491Y011410D01*
X027589Y011509D02*
X026548Y011509D01*
X026693Y011607D02*
X027655Y011607D01*
X027655Y011706D02*
X026792Y011706D01*
X026890Y011804D02*
X027655Y011804D01*
X027655Y011903D02*
X026989Y011903D01*
X027087Y012001D02*
X027655Y012001D01*
X027655Y012100D02*
X027186Y012100D01*
X027284Y012198D02*
X027655Y012198D01*
X027655Y012297D02*
X027383Y012297D01*
X027481Y012395D02*
X027655Y012395D01*
X027655Y012494D02*
X027512Y012494D01*
X027512Y012592D02*
X027655Y012592D01*
X027655Y012691D02*
X027512Y012691D01*
X027512Y012789D02*
X027655Y012789D01*
X027655Y012888D02*
X027512Y012888D01*
X027512Y012986D02*
X027595Y012986D01*
X027833Y013000D02*
X027833Y011500D01*
X026755Y010421D01*
X026046Y010421D01*
X023333Y010421D01*
X023255Y010500D01*
X022833Y010500D01*
X022333Y011000D01*
X018883Y011000D01*
X018618Y011115D02*
X018592Y011115D01*
X018592Y011213D02*
X018688Y011213D01*
X018592Y011312D02*
X022269Y011312D01*
X022171Y011410D02*
X018620Y011410D01*
X018719Y011509D02*
X022072Y011509D01*
X021974Y011607D02*
X020049Y011607D01*
X019833Y011800D02*
X019783Y011787D01*
X022046Y011787D01*
X022546Y011287D01*
X026046Y011287D01*
X026096Y010883D02*
X025679Y010883D01*
X025679Y011019D01*
X025622Y011077D01*
X025622Y011109D01*
X022477Y011109D01*
X022907Y010679D01*
X023329Y010679D01*
X023407Y010600D01*
X025622Y010600D01*
X025622Y010632D01*
X025679Y010690D01*
X025679Y010826D01*
X026096Y010826D01*
X026096Y010883D01*
X026570Y010918D02*
X026998Y010918D01*
X027097Y011016D02*
X026570Y011016D01*
X026529Y011115D02*
X027195Y011115D01*
X027294Y011213D02*
X026470Y011213D01*
X026470Y011312D02*
X027392Y011312D01*
X027602Y011016D02*
X028003Y011016D01*
X028003Y010918D02*
X027504Y010918D01*
X027405Y010819D02*
X028003Y010819D01*
X028003Y010721D02*
X027307Y010721D01*
X027208Y010622D02*
X028003Y010622D01*
X028003Y010524D02*
X027110Y010524D01*
X027011Y010425D02*
X028003Y010425D01*
X028003Y010327D02*
X026913Y010327D01*
X026774Y010103D02*
X026736Y010093D01*
X026702Y010073D01*
X026674Y010045D01*
X026654Y010011D01*
X026644Y009973D01*
X026644Y009727D01*
X027118Y009727D01*
X027118Y009627D01*
X027218Y009627D01*
X027218Y009252D01*
X027562Y009252D01*
X027600Y009262D01*
X027634Y009282D01*
X027662Y009309D01*
X027682Y009344D01*
X027692Y009382D01*
X027692Y009627D01*
X027218Y009627D01*
X027218Y009727D01*
X027692Y009727D01*
X027692Y009973D01*
X027682Y010011D01*
X027662Y010045D01*
X027634Y010073D01*
X027600Y010093D01*
X027562Y010103D01*
X027218Y010103D01*
X027218Y009727D01*
X027118Y009727D01*
X027118Y010103D01*
X026774Y010103D01*
X026666Y010031D02*
X026470Y010031D01*
X026470Y009933D02*
X026644Y009933D01*
X026644Y009834D02*
X026470Y009834D01*
X026428Y009736D02*
X026644Y009736D01*
X026644Y009627D02*
X026644Y009382D01*
X026654Y009344D01*
X026674Y009309D01*
X026702Y009282D01*
X026736Y009262D01*
X026774Y009252D01*
X027118Y009252D01*
X027118Y009627D01*
X026644Y009627D01*
X026644Y009539D02*
X024012Y009539D01*
X024012Y009637D02*
X027118Y009637D01*
X027118Y009539D02*
X027218Y009539D01*
X027218Y009637D02*
X028003Y009637D01*
X028003Y009539D02*
X027692Y009539D01*
X027692Y009440D02*
X028003Y009440D01*
X028003Y009342D02*
X027681Y009342D01*
X028003Y009243D02*
X024012Y009243D01*
X024012Y009145D02*
X028003Y009145D01*
X028003Y009046D02*
X024012Y009046D01*
X024012Y008948D02*
X025550Y008948D01*
X025563Y008955D02*
X025529Y008935D01*
X025501Y008907D01*
X025481Y008873D01*
X025471Y008835D01*
X025471Y008550D01*
X026023Y008550D01*
X026023Y008450D01*
X025471Y008450D01*
X025471Y008165D01*
X025481Y008127D01*
X025501Y008093D01*
X025529Y008065D01*
X025563Y008045D01*
X025601Y008035D01*
X026023Y008035D01*
X026023Y008450D01*
X026123Y008450D01*
X026123Y008035D01*
X026546Y008035D01*
X026584Y008045D01*
X026618Y008065D01*
X026646Y008093D01*
X026666Y008127D01*
X026676Y008165D01*
X026676Y008450D01*
X026123Y008450D01*
X026123Y008550D01*
X026023Y008550D01*
X026023Y008965D01*
X025601Y008965D01*
X025563Y008955D01*
X025475Y008849D02*
X024175Y008849D01*
X024175Y008751D02*
X025471Y008751D01*
X025471Y008652D02*
X024175Y008652D01*
X024175Y008554D02*
X025471Y008554D01*
X025471Y008357D02*
X024175Y008357D01*
X024175Y008455D02*
X026023Y008455D01*
X026023Y008357D02*
X026123Y008357D01*
X026123Y008455D02*
X028003Y008455D01*
X028003Y008357D02*
X026676Y008357D01*
X026676Y008258D02*
X028003Y008258D01*
X028003Y008160D02*
X026675Y008160D01*
X026611Y008061D02*
X028003Y008061D01*
X028003Y007963D02*
X022425Y007963D01*
X022425Y008061D02*
X023082Y008061D01*
X023012Y008160D02*
X022592Y008160D01*
X022592Y008258D02*
X023012Y008258D01*
X023012Y008357D02*
X022592Y008357D01*
X022592Y008455D02*
X023012Y008455D01*
X023012Y008554D02*
X022592Y008554D01*
X022592Y008652D02*
X023012Y008652D01*
X023012Y008751D02*
X022592Y008751D01*
X022592Y008849D02*
X023012Y008849D01*
X023593Y008500D02*
X023833Y008640D01*
X023833Y010000D01*
X023574Y010130D02*
X022395Y010130D01*
X022395Y010228D02*
X023653Y010228D01*
X023545Y010031D02*
X022395Y010031D01*
X022395Y009933D02*
X023549Y009933D01*
X023591Y009834D02*
X022330Y009834D01*
X022395Y010327D02*
X022754Y010327D01*
X022656Y010425D02*
X022395Y010425D01*
X022395Y010524D02*
X022557Y010524D01*
X022459Y010622D02*
X022395Y010622D01*
X022262Y010819D02*
X019111Y010819D01*
X018963Y010721D02*
X021592Y010721D01*
X021586Y010622D02*
X018592Y010622D01*
X018592Y010524D02*
X021586Y010524D01*
X021586Y010425D02*
X018592Y010425D01*
X018634Y010327D02*
X021586Y010327D01*
X021586Y010228D02*
X019514Y010228D01*
X019592Y010130D02*
X021586Y010130D01*
X021586Y010031D02*
X019622Y010031D01*
X019654Y009933D02*
X021586Y009933D01*
X021652Y009834D02*
X019752Y009834D01*
X019683Y009650D02*
X021033Y009650D01*
X021459Y009224D01*
X021459Y008500D01*
X021638Y008948D02*
X023655Y008948D01*
X023655Y009046D02*
X021638Y009046D01*
X021638Y009145D02*
X023655Y009145D01*
X023655Y009243D02*
X021638Y009243D01*
X021595Y009342D02*
X023655Y009342D01*
X023655Y009440D02*
X021496Y009440D01*
X021398Y009539D02*
X023655Y009539D01*
X023655Y009637D02*
X021299Y009637D01*
X021201Y009736D02*
X023655Y009736D01*
X024012Y009736D02*
X025664Y009736D01*
X025622Y009834D02*
X024076Y009834D01*
X024118Y009933D02*
X025622Y009933D01*
X025622Y010031D02*
X024122Y010031D01*
X024092Y010130D02*
X025622Y010130D01*
X025622Y010228D02*
X024014Y010228D01*
X023385Y010622D02*
X025622Y010622D01*
X025679Y010721D02*
X022866Y010721D01*
X022767Y010819D02*
X025679Y010819D01*
X025679Y010918D02*
X022669Y010918D01*
X022570Y011016D02*
X025679Y011016D01*
X026570Y010819D02*
X026900Y010819D01*
X026801Y010721D02*
X026570Y010721D01*
X026550Y010622D02*
X026703Y010622D01*
X026470Y010228D02*
X028003Y010228D01*
X028003Y010130D02*
X026470Y010130D01*
X027118Y010031D02*
X027218Y010031D01*
X027218Y009933D02*
X027118Y009933D01*
X027118Y009834D02*
X027218Y009834D01*
X027218Y009736D02*
X027118Y009736D01*
X027118Y009440D02*
X027218Y009440D01*
X027218Y009342D02*
X027118Y009342D01*
X026655Y009342D02*
X024012Y009342D01*
X024012Y009440D02*
X026644Y009440D01*
X026546Y008965D02*
X026123Y008965D01*
X026123Y008550D01*
X026676Y008550D01*
X026676Y008835D01*
X026666Y008873D01*
X026646Y008907D01*
X026618Y008935D01*
X026584Y008955D01*
X026546Y008965D01*
X026597Y008948D02*
X028003Y008948D01*
X028003Y008849D02*
X026672Y008849D01*
X026676Y008751D02*
X028003Y008751D01*
X028003Y008652D02*
X026676Y008652D01*
X026676Y008554D02*
X028003Y008554D01*
X028003Y007864D02*
X022425Y007864D01*
X022425Y007766D02*
X026471Y007766D01*
X026554Y007800D02*
X026315Y007701D01*
X026132Y007518D01*
X026033Y007279D01*
X026033Y007021D01*
X026132Y006782D01*
X026315Y006599D01*
X026554Y006500D01*
X026813Y006500D01*
X027052Y006599D01*
X027234Y006782D01*
X027333Y007021D01*
X027333Y007279D01*
X027234Y007518D01*
X027052Y007701D01*
X026813Y007800D01*
X026554Y007800D01*
X026281Y007667D02*
X022425Y007667D01*
X022425Y007569D02*
X026183Y007569D01*
X026112Y007470D02*
X022425Y007470D01*
X022425Y007372D02*
X026072Y007372D01*
X026033Y007273D02*
X022612Y007273D01*
X022612Y007175D02*
X026033Y007175D01*
X026033Y007076D02*
X022612Y007076D01*
X022612Y006978D02*
X026051Y006978D01*
X026092Y006879D02*
X022612Y006879D01*
X022612Y006781D02*
X026134Y006781D01*
X026232Y006682D02*
X022583Y006682D01*
X022247Y007000D02*
X022247Y008461D01*
X022207Y008500D01*
X022068Y008061D02*
X021012Y008061D01*
X021012Y007963D02*
X022068Y007963D01*
X022068Y007864D02*
X020950Y007864D01*
X020852Y007766D02*
X022068Y007766D01*
X022068Y007667D02*
X020753Y007667D01*
X020655Y007569D02*
X022068Y007569D01*
X022068Y007470D02*
X020556Y007470D01*
X020697Y007372D02*
X020797Y007372D01*
X020797Y007386D02*
X020797Y007050D01*
X021133Y007050D01*
X021370Y007050D01*
X021370Y007386D01*
X021164Y007386D01*
X021126Y007376D01*
X021092Y007356D01*
X021083Y007348D01*
X021075Y007356D01*
X021041Y007376D01*
X021003Y007386D01*
X020797Y007386D01*
X020797Y007273D02*
X020697Y007273D01*
X020697Y007175D02*
X020797Y007175D01*
X020797Y007076D02*
X020697Y007076D01*
X020697Y007050D02*
X020797Y007050D01*
X020797Y006950D01*
X021370Y006950D01*
X021470Y006950D01*
X021470Y007050D01*
X021806Y007050D01*
X021806Y007256D01*
X021796Y007294D01*
X021776Y007328D01*
X021748Y007356D01*
X021714Y007376D01*
X021676Y007386D01*
X021470Y007386D01*
X021470Y007050D01*
X021370Y007050D01*
X021370Y006950D01*
X021370Y006614D01*
X021164Y006614D01*
X021126Y006624D01*
X021092Y006644D01*
X021083Y006652D01*
X021075Y006644D01*
X021041Y006624D01*
X021003Y006614D01*
X020797Y006614D01*
X020797Y006950D01*
X020697Y006950D01*
X020697Y006614D01*
X020491Y006614D01*
X020453Y006624D01*
X020418Y006644D01*
X020390Y006672D01*
X020371Y006706D01*
X020360Y006744D01*
X020360Y006950D01*
X020697Y006950D01*
X020697Y007050D01*
X020697Y006978D02*
X020285Y006978D01*
X020285Y007076D02*
X020360Y007076D01*
X020360Y007175D02*
X020285Y007175D01*
X020359Y007273D02*
X020365Y007273D01*
X020149Y007569D02*
X018925Y007569D01*
X018925Y007667D02*
X020248Y007667D01*
X020346Y007766D02*
X018925Y007766D01*
X018925Y007864D02*
X020445Y007864D01*
X020543Y007963D02*
X018925Y007963D01*
X018925Y008061D02*
X020642Y008061D01*
X020833Y008000D02*
X019920Y007087D01*
X019920Y007000D01*
X019555Y006978D02*
X019112Y006978D01*
X019112Y007076D02*
X019555Y007076D01*
X019555Y007175D02*
X019112Y007175D01*
X019112Y007273D02*
X019555Y007273D01*
X019555Y006879D02*
X019112Y006879D01*
X019112Y006781D02*
X019555Y006781D01*
X019583Y006682D02*
X019083Y006682D01*
X018747Y007000D02*
X018747Y008461D01*
X018707Y008500D01*
X019092Y008455D02*
X019575Y008455D01*
X019575Y008357D02*
X019092Y008357D01*
X019092Y008258D02*
X019575Y008258D01*
X019575Y008160D02*
X019092Y008160D01*
X019092Y008554D02*
X019575Y008554D01*
X019575Y008652D02*
X019092Y008652D01*
X019409Y009046D02*
X018132Y009046D01*
X018034Y008948D02*
X019507Y008948D01*
X019310Y009145D02*
X018231Y009145D01*
X018329Y009243D02*
X019212Y009243D01*
X019113Y009342D02*
X018428Y009342D01*
X018526Y009440D02*
X019015Y009440D01*
X019020Y009687D02*
X018520Y009687D01*
X017833Y009000D01*
X017833Y008726D01*
X017959Y008500D01*
X017207Y008500D01*
X017583Y007900D02*
X017583Y007487D01*
X017920Y007150D01*
X017920Y007000D01*
X018285Y006978D02*
X018382Y006978D01*
X018382Y007076D02*
X018285Y007076D01*
X018285Y007175D02*
X018382Y007175D01*
X018382Y007273D02*
X018285Y007273D01*
X018568Y007372D02*
X017951Y007372D01*
X017853Y007470D02*
X018568Y007470D01*
X018568Y007569D02*
X017762Y007569D01*
X017762Y007667D02*
X018568Y007667D01*
X018568Y007766D02*
X017840Y007766D01*
X017872Y007864D02*
X018568Y007864D01*
X018568Y007963D02*
X017870Y007963D01*
X017829Y008061D02*
X018568Y008061D01*
X018925Y007470D02*
X020051Y007470D01*
X019952Y007372D02*
X018925Y007372D01*
X018382Y006879D02*
X018285Y006879D01*
X018285Y006781D02*
X018382Y006781D01*
X018410Y006682D02*
X018256Y006682D01*
X017247Y007000D02*
X016459Y007787D01*
X016459Y008500D01*
X016281Y008061D02*
X015781Y008061D01*
X015849Y007963D02*
X016281Y007963D01*
X016281Y007864D02*
X015872Y007864D01*
X015907Y007766D02*
X016281Y007766D01*
X016327Y007667D02*
X016006Y007667D01*
X016104Y007569D02*
X016425Y007569D01*
X016524Y007470D02*
X016203Y007470D01*
X016301Y007372D02*
X016622Y007372D01*
X016785Y007175D02*
X016819Y007175D01*
X016785Y007076D02*
X016882Y007076D01*
X016882Y006978D02*
X016785Y006978D01*
X016785Y006879D02*
X016882Y006879D01*
X016882Y006781D02*
X016785Y006781D01*
X016756Y006682D02*
X016910Y006682D01*
X016420Y007000D02*
X016333Y007087D01*
X015583Y007837D01*
X015583Y007850D01*
X015358Y007667D02*
X014947Y007667D01*
X014892Y007690D02*
X015145Y007585D01*
X015339Y007391D01*
X015444Y007137D01*
X015444Y006863D01*
X015339Y006609D01*
X015145Y006415D01*
X014892Y006310D01*
X014617Y006310D01*
X014364Y006415D01*
X014170Y006609D01*
X014065Y006863D01*
X014065Y007137D01*
X014170Y007391D01*
X014364Y007585D01*
X014617Y007690D01*
X014892Y007690D01*
X015162Y007569D02*
X015508Y007569D01*
X015697Y007470D02*
X015260Y007470D01*
X015347Y007372D02*
X015796Y007372D01*
X015894Y007273D02*
X015388Y007273D01*
X015429Y007175D02*
X015993Y007175D01*
X016055Y007076D02*
X015444Y007076D01*
X015444Y006978D02*
X016055Y006978D01*
X016055Y006879D02*
X015444Y006879D01*
X015410Y006781D02*
X016055Y006781D01*
X016083Y006682D02*
X015369Y006682D01*
X015314Y006584D02*
X026352Y006584D01*
X027014Y006584D02*
X028003Y006584D01*
X028003Y006682D02*
X027135Y006682D01*
X027233Y006781D02*
X028003Y006781D01*
X028003Y006879D02*
X027275Y006879D01*
X027315Y006978D02*
X028003Y006978D01*
X028003Y007076D02*
X027333Y007076D01*
X027333Y007175D02*
X028003Y007175D01*
X028003Y007273D02*
X027333Y007273D01*
X027295Y007372D02*
X028003Y007372D01*
X028003Y007470D02*
X027254Y007470D01*
X027184Y007569D02*
X028003Y007569D01*
X028003Y007667D02*
X027086Y007667D01*
X026896Y007766D02*
X028003Y007766D01*
X028003Y006485D02*
X015215Y006485D01*
X015076Y006387D02*
X028001Y006387D01*
X027603Y005697D02*
X006327Y005697D01*
X006623Y005599D02*
X027389Y005599D01*
X026123Y008061D02*
X026023Y008061D01*
X026023Y008160D02*
X026123Y008160D01*
X026123Y008258D02*
X026023Y008258D01*
X026023Y008554D02*
X026123Y008554D01*
X026123Y008652D02*
X026023Y008652D01*
X026023Y008751D02*
X026123Y008751D01*
X026123Y008849D02*
X026023Y008849D01*
X026023Y008948D02*
X026123Y008948D01*
X025471Y008258D02*
X024175Y008258D01*
X024175Y008160D02*
X025472Y008160D01*
X025536Y008061D02*
X024104Y008061D01*
X022068Y007372D02*
X021722Y007372D01*
X021802Y007273D02*
X021882Y007273D01*
X021882Y007175D02*
X021806Y007175D01*
X021806Y007076D02*
X021882Y007076D01*
X021882Y006978D02*
X021470Y006978D01*
X021470Y006950D02*
X021806Y006950D01*
X021806Y006744D01*
X021796Y006706D01*
X021776Y006672D01*
X021748Y006644D01*
X021714Y006624D01*
X021676Y006614D01*
X021470Y006614D01*
X021470Y006950D01*
X021470Y006879D02*
X021370Y006879D01*
X021370Y006781D02*
X021470Y006781D01*
X021470Y006682D02*
X021370Y006682D01*
X021370Y006978D02*
X020797Y006978D01*
X020797Y006879D02*
X020697Y006879D01*
X020697Y006781D02*
X020797Y006781D01*
X020797Y006682D02*
X020697Y006682D01*
X020385Y006682D02*
X020256Y006682D01*
X020285Y006781D02*
X020360Y006781D01*
X020360Y006879D02*
X020285Y006879D01*
X021049Y007372D02*
X021118Y007372D01*
X021370Y007372D02*
X021470Y007372D01*
X021470Y007273D02*
X021370Y007273D01*
X021370Y007175D02*
X021470Y007175D01*
X021470Y007076D02*
X021370Y007076D01*
X021806Y006879D02*
X021882Y006879D01*
X021882Y006781D02*
X021806Y006781D01*
X021782Y006682D02*
X021910Y006682D01*
X020833Y008000D02*
X020833Y008374D01*
X020707Y008500D01*
X019959Y008500D02*
X019959Y008748D01*
X019020Y009687D01*
X018207Y010500D01*
X017459Y011250D01*
X017333Y011500D01*
X018207Y011250D02*
X018757Y011800D01*
X019833Y011800D01*
X019618Y011607D02*
X018817Y011607D01*
X019079Y011213D02*
X022368Y011213D01*
X023247Y012587D02*
X025888Y012587D01*
X025407Y014179D02*
X023712Y015874D01*
X023732Y015893D01*
X023732Y016307D01*
X023440Y016599D01*
X023507Y016532D02*
X023960Y016532D01*
X024027Y016599D02*
X023735Y016307D01*
X023735Y015893D01*
X024027Y015601D01*
X024440Y015601D01*
X024460Y015621D01*
X025655Y014426D01*
X025759Y014321D01*
X026259Y014321D01*
X026402Y014179D01*
X025407Y014179D01*
X025320Y014267D02*
X026314Y014267D01*
X026333Y014500D02*
X027833Y013000D01*
X028002Y013085D02*
X028003Y013085D01*
X028003Y013083D02*
X027907Y013179D01*
X026512Y014574D01*
X026512Y014574D01*
X026407Y014679D01*
X025907Y014679D01*
X024712Y015874D01*
X024732Y015893D01*
X024732Y016307D01*
X024440Y016599D01*
X024027Y016599D01*
X023862Y016434D02*
X023605Y016434D01*
X023704Y016335D02*
X023763Y016335D01*
X023735Y016237D02*
X023732Y016237D01*
X023732Y016138D02*
X023735Y016138D01*
X023732Y016040D02*
X023735Y016040D01*
X023732Y015941D02*
X023735Y015941D01*
X023744Y015843D02*
X023785Y015843D01*
X023842Y015744D02*
X023884Y015744D01*
X023941Y015646D02*
X023982Y015646D01*
X024039Y015547D02*
X024534Y015547D01*
X024632Y015449D02*
X024138Y015449D01*
X024236Y015350D02*
X024731Y015350D01*
X024829Y015252D02*
X024335Y015252D01*
X024433Y015153D02*
X024928Y015153D01*
X025026Y015055D02*
X024532Y015055D01*
X024630Y014956D02*
X025125Y014956D01*
X025223Y014858D02*
X024729Y014858D01*
X024827Y014759D02*
X025322Y014759D01*
X025420Y014661D02*
X024926Y014661D01*
X025024Y014562D02*
X025519Y014562D01*
X025617Y014464D02*
X025123Y014464D01*
X025221Y014365D02*
X025716Y014365D01*
X025833Y014500D02*
X026333Y014500D01*
X026426Y014661D02*
X027038Y014661D01*
X027038Y014759D02*
X025827Y014759D01*
X025729Y014858D02*
X027512Y014858D01*
X027512Y014904D02*
X027512Y014804D01*
X027612Y014804D01*
X027612Y014429D01*
X027955Y014429D01*
X027994Y014439D01*
X028003Y014445D01*
X028003Y013083D01*
X028003Y013183D02*
X027903Y013183D01*
X027907Y013179D02*
X027907Y013179D01*
X028003Y013282D02*
X027805Y013282D01*
X027706Y013380D02*
X028003Y013380D01*
X028003Y013479D02*
X027608Y013479D01*
X027509Y013577D02*
X028003Y013577D01*
X028003Y013676D02*
X027411Y013676D01*
X027312Y013774D02*
X028003Y013774D01*
X028003Y013873D02*
X027214Y013873D01*
X027115Y013971D02*
X028003Y013971D01*
X028003Y014070D02*
X027017Y014070D01*
X026918Y014168D02*
X028003Y014168D01*
X028003Y014267D02*
X026820Y014267D01*
X026721Y014365D02*
X028003Y014365D01*
X027612Y014464D02*
X027512Y014464D01*
X027512Y014429D02*
X027512Y014804D01*
X027038Y014804D01*
X027038Y014559D01*
X027048Y014521D01*
X027068Y014487D01*
X027096Y014459D01*
X027130Y014439D01*
X027168Y014429D01*
X027512Y014429D01*
X027512Y014562D02*
X027612Y014562D01*
X027612Y014661D02*
X027512Y014661D01*
X027512Y014759D02*
X027612Y014759D01*
X027612Y014904D02*
X027512Y014904D01*
X027038Y014904D01*
X027038Y015150D01*
X027048Y015188D01*
X027068Y015222D01*
X027096Y015250D01*
X027130Y015270D01*
X027168Y015280D01*
X027512Y015280D01*
X027512Y014904D01*
X027512Y014956D02*
X027612Y014956D01*
X027612Y014904D02*
X027612Y015280D01*
X027955Y015280D01*
X027994Y015270D01*
X028003Y015264D01*
X028003Y018850D01*
X026762Y018850D01*
X026762Y017780D01*
X026828Y017714D01*
X028003Y017714D01*
X028003Y017616D02*
X026869Y017616D01*
X026872Y017607D02*
X026828Y017714D01*
X026872Y017607D02*
X026872Y017493D01*
X026828Y017386D01*
X026747Y017305D01*
X026641Y017261D01*
X026526Y017261D01*
X026420Y017305D01*
X026339Y017386D01*
X026295Y017493D01*
X026295Y017607D01*
X026339Y017714D01*
X026298Y017616D02*
X025002Y017616D01*
X024903Y017517D02*
X026295Y017517D01*
X026325Y017419D02*
X024805Y017419D01*
X024719Y017320D02*
X026405Y017320D01*
X026583Y017550D02*
X026583Y023200D01*
X026833Y023450D01*
X026833Y023500D01*
X027183Y023500D01*
X027933Y023650D02*
X027933Y019200D01*
X027333Y018500D01*
X026762Y018502D02*
X028003Y018502D01*
X028003Y018404D02*
X026762Y018404D01*
X026762Y018305D02*
X028003Y018305D01*
X028003Y018207D02*
X026762Y018207D01*
X026762Y018108D02*
X028003Y018108D01*
X028003Y018010D02*
X026762Y018010D01*
X026762Y017911D02*
X028003Y017911D01*
X028003Y017813D02*
X026762Y017813D01*
X026872Y017517D02*
X028003Y017517D01*
X028003Y017419D02*
X026841Y017419D01*
X026762Y017320D02*
X028003Y017320D01*
X028003Y017222D02*
X024732Y017222D01*
X024732Y017123D02*
X028003Y017123D01*
X028003Y017025D02*
X024732Y017025D01*
X024732Y016926D02*
X028003Y016926D01*
X028003Y016828D02*
X024666Y016828D01*
X024568Y016729D02*
X028003Y016729D01*
X028003Y016631D02*
X024469Y016631D01*
X024507Y016532D02*
X028003Y016532D01*
X028003Y016434D02*
X024605Y016434D01*
X024704Y016335D02*
X028003Y016335D01*
X028003Y016237D02*
X024732Y016237D01*
X024732Y016138D02*
X028003Y016138D01*
X028003Y016040D02*
X024732Y016040D01*
X024732Y015941D02*
X028003Y015941D01*
X028003Y015843D02*
X024744Y015843D01*
X024842Y015744D02*
X028003Y015744D01*
X028003Y015646D02*
X024941Y015646D01*
X025039Y015547D02*
X028003Y015547D01*
X028003Y015449D02*
X025138Y015449D01*
X025236Y015350D02*
X028003Y015350D01*
X027612Y015252D02*
X027512Y015252D01*
X027512Y015153D02*
X027612Y015153D01*
X027612Y015055D02*
X027512Y015055D01*
X027098Y015252D02*
X025335Y015252D01*
X025433Y015153D02*
X027039Y015153D01*
X027038Y015055D02*
X025532Y015055D01*
X025630Y014956D02*
X027038Y014956D01*
X027038Y014562D02*
X026524Y014562D01*
X026623Y014464D02*
X027091Y014464D01*
X025833Y014500D02*
X024233Y016100D01*
X023233Y017100D02*
X022933Y017100D01*
X022583Y016750D01*
X022512Y016932D02*
X022512Y018426D01*
X022707Y018621D01*
X023659Y018621D01*
X023854Y018426D01*
X023748Y018320D01*
X023449Y018620D01*
X023283Y018620D01*
X023283Y018150D01*
X023183Y018150D01*
X023183Y018050D01*
X022713Y018050D01*
X022713Y017885D01*
X023013Y017585D01*
X022735Y017307D01*
X022735Y017154D01*
X022512Y016932D01*
X022512Y017025D02*
X022605Y017025D01*
X022512Y017123D02*
X022704Y017123D01*
X022735Y017222D02*
X022512Y017222D01*
X022512Y017320D02*
X022748Y017320D01*
X022847Y017419D02*
X022512Y017419D01*
X022512Y017517D02*
X022945Y017517D01*
X022982Y017616D02*
X022512Y017616D01*
X022512Y017714D02*
X022884Y017714D01*
X022785Y017813D02*
X022512Y017813D01*
X022512Y017911D02*
X022713Y017911D01*
X022713Y018010D02*
X022512Y018010D01*
X022512Y018108D02*
X023183Y018108D01*
X023183Y018150D02*
X022713Y018150D01*
X022713Y018315D01*
X023018Y018620D01*
X023183Y018620D01*
X023183Y018150D01*
X023183Y018207D02*
X023283Y018207D01*
X023283Y018305D02*
X023183Y018305D01*
X023183Y018404D02*
X023283Y018404D01*
X023283Y018502D02*
X023183Y018502D01*
X023183Y018601D02*
X023283Y018601D01*
X023468Y018601D02*
X023680Y018601D01*
X023779Y018502D02*
X023567Y018502D01*
X023665Y018404D02*
X023832Y018404D01*
X023733Y018800D02*
X022633Y018800D01*
X022333Y018500D01*
X022333Y014150D01*
X021983Y014150D01*
X022140Y014365D02*
X015115Y014365D01*
X015016Y014464D02*
X022155Y014464D01*
X022155Y014562D02*
X014918Y014562D01*
X014819Y014661D02*
X022155Y014661D01*
X022155Y014759D02*
X016569Y014759D01*
X016572Y014858D02*
X022155Y014858D01*
X022155Y014956D02*
X016572Y014956D01*
X016572Y015055D02*
X022155Y015055D01*
X022155Y015153D02*
X016572Y015153D01*
X016572Y015252D02*
X020475Y015252D01*
X020409Y015350D02*
X016572Y015350D01*
X016572Y015449D02*
X018398Y015449D01*
X018322Y015547D02*
X016563Y015547D01*
X016485Y015646D02*
X018295Y015646D01*
X018258Y015744D02*
X016392Y015744D01*
X016294Y015843D02*
X018159Y015843D01*
X018223Y016031D02*
X018223Y016350D01*
X018411Y016335D02*
X019548Y016335D01*
X019545Y016434D02*
X018411Y016434D01*
X018411Y016532D02*
X019575Y016532D01*
X019656Y016631D02*
X018411Y016631D01*
X018346Y016729D02*
X020455Y016729D01*
X020409Y016631D02*
X020011Y016631D01*
X019833Y016400D02*
X020807Y016400D01*
X020833Y016374D01*
X020833Y017500D01*
X022433Y019050D01*
X024283Y019050D01*
X024833Y018500D01*
X025119Y018798D02*
X026405Y018798D01*
X026762Y018798D02*
X028003Y018798D01*
X028003Y018699D02*
X026762Y018699D01*
X026762Y018601D02*
X028003Y018601D01*
X024655Y017813D02*
X024651Y017813D01*
X024595Y017714D02*
X024553Y017714D01*
X024496Y017616D02*
X024454Y017616D01*
X024012Y017616D02*
X023484Y017616D01*
X023522Y017517D02*
X023945Y017517D01*
X023847Y017419D02*
X023620Y017419D01*
X023719Y017320D02*
X023748Y017320D01*
X023735Y017222D02*
X023732Y017222D01*
X023583Y017714D02*
X023914Y017714D01*
X023815Y017813D02*
X023681Y017813D01*
X024233Y018100D02*
X024233Y018300D01*
X023733Y018800D01*
X022998Y018601D02*
X022687Y018601D01*
X022588Y018502D02*
X022900Y018502D01*
X022801Y018404D02*
X022512Y018404D01*
X022512Y018305D02*
X022713Y018305D01*
X022713Y018207D02*
X022512Y018207D01*
X022155Y018207D02*
X021820Y018207D01*
X021921Y018305D02*
X022155Y018305D01*
X022155Y018404D02*
X022023Y018404D01*
X022125Y018502D02*
X022155Y018502D01*
X021916Y018798D02*
X019427Y018798D01*
X019435Y018896D02*
X020223Y018896D01*
X020223Y018995D02*
X019427Y018995D01*
X019435Y019093D02*
X020223Y019093D01*
X020223Y019192D02*
X019427Y019192D01*
X019456Y019290D02*
X019635Y019290D01*
X019567Y019389D02*
X019439Y019389D01*
X019435Y019487D02*
X019545Y019487D01*
X019556Y019586D02*
X019427Y019586D01*
X019435Y019684D02*
X019609Y019684D01*
X019655Y019783D02*
X019427Y019783D01*
X019435Y019881D02*
X019655Y019881D01*
X019655Y019980D02*
X019426Y019980D01*
X019435Y020078D02*
X019655Y020078D01*
X019655Y020177D02*
X019426Y020177D01*
X019435Y020275D02*
X019655Y020275D01*
X019655Y020374D02*
X019426Y020374D01*
X019435Y020472D02*
X019655Y020472D01*
X019655Y020571D02*
X019426Y020571D01*
X019435Y020669D02*
X019655Y020669D01*
X019655Y020768D02*
X019426Y020768D01*
X019435Y020866D02*
X019655Y020866D01*
X019655Y020965D02*
X019426Y020965D01*
X019435Y021063D02*
X019655Y021063D01*
X019655Y021162D02*
X019426Y021162D01*
X019435Y021260D02*
X019655Y021260D01*
X019655Y021359D02*
X019425Y021359D01*
X019435Y021457D02*
X019624Y021457D01*
X019525Y021556D02*
X019425Y021556D01*
X019471Y021862D02*
X019010Y021862D01*
X018695Y022048D02*
X017614Y022048D01*
X017614Y021950D02*
X018596Y021950D01*
X018586Y021851D02*
X017614Y021851D01*
X017614Y021753D02*
X018596Y021753D01*
X018586Y021654D02*
X017614Y021654D01*
X017614Y021556D02*
X018596Y021556D01*
X018586Y021457D02*
X017614Y021457D01*
X017614Y021359D02*
X018596Y021359D01*
X018586Y021260D02*
X017614Y021260D01*
X017614Y021162D02*
X018595Y021162D01*
X018586Y021063D02*
X017614Y021063D01*
X017614Y020965D02*
X018595Y020965D01*
X018586Y020866D02*
X017556Y020866D01*
X017458Y020768D02*
X018595Y020768D01*
X018586Y020669D02*
X017402Y020669D01*
X017402Y020571D02*
X017580Y020571D01*
X017501Y020472D02*
X017402Y020472D01*
X017402Y020374D02*
X017467Y020374D01*
X017467Y020275D02*
X017402Y020275D01*
X017402Y020177D02*
X017506Y020177D01*
X017593Y020078D02*
X017402Y020078D01*
X017402Y019980D02*
X017645Y019980D01*
X017521Y019881D02*
X017402Y019881D01*
X017402Y019783D02*
X017476Y019783D01*
X017467Y019684D02*
X017402Y019684D01*
X017434Y019586D02*
X017490Y019586D01*
X017532Y019487D02*
X017554Y019487D01*
X017631Y019389D02*
X017834Y019389D01*
X017729Y019290D02*
X018565Y019290D01*
X018565Y019303D02*
X019010Y019303D01*
X019010Y019303D01*
X018565Y019303D01*
X018586Y018928D02*
X017586Y018928D01*
X017044Y019469D01*
X017044Y020692D01*
X016677Y020947D01*
X014945Y020947D01*
X014945Y019926D01*
X014840Y019821D01*
X014840Y019821D01*
X014620Y019601D01*
X014197Y019601D01*
X014228Y019570D01*
X014272Y019464D01*
X014272Y019349D01*
X014228Y019243D01*
X014147Y019162D01*
X014041Y019118D01*
X013926Y019118D01*
X013820Y019162D01*
X013739Y019243D01*
X013695Y019349D01*
X013695Y019442D01*
X013619Y019518D01*
X013135Y019518D01*
X013135Y019422D01*
X013115Y019402D01*
X013135Y019381D01*
X013135Y019225D01*
X013115Y019205D01*
X013135Y019184D01*
X013135Y019029D01*
X013115Y019008D01*
X013135Y018987D01*
X013135Y018832D01*
X013115Y018811D01*
X013135Y018790D01*
X013135Y018635D01*
X013115Y018614D01*
X013135Y018594D01*
X013135Y018438D01*
X013115Y018417D01*
X013135Y018397D01*
X013135Y018301D01*
X016435Y018301D01*
X016460Y018275D01*
X016575Y018275D01*
X016688Y018229D01*
X016775Y018142D01*
X016821Y018030D01*
X016821Y017907D01*
X016775Y017795D01*
X016688Y017708D01*
X016575Y017662D01*
X016453Y017662D01*
X016341Y017708D01*
X016254Y017795D01*
X016208Y017907D01*
X016208Y017943D01*
X013135Y017943D01*
X013135Y017907D01*
X014539Y017907D01*
X014546Y017913D01*
X014612Y017907D01*
X014679Y017907D01*
X014685Y017901D01*
X014693Y017900D01*
X014737Y017850D01*
X014784Y017802D01*
X014784Y017794D01*
X014966Y017579D01*
X016526Y017579D01*
X016593Y017584D01*
X016599Y017579D01*
X016607Y017579D01*
X016655Y017531D01*
X016823Y017387D01*
X016826Y017389D01*
X016941Y017389D01*
X017044Y017346D01*
X017044Y017422D01*
X016887Y017580D01*
X016887Y018579D01*
X016805Y018661D01*
X016759Y018774D01*
X016759Y018896D01*
X013135Y018896D01*
X013128Y018798D02*
X016759Y018798D01*
X016759Y018896D02*
X016805Y019008D01*
X016892Y019095D01*
X017005Y019141D01*
X017127Y019141D01*
X017239Y019095D01*
X017326Y019008D01*
X017372Y018896D01*
X017372Y018798D02*
X018594Y018798D01*
X018586Y018699D02*
X017342Y018699D01*
X017265Y018601D02*
X018593Y018601D01*
X018586Y018502D02*
X017244Y018502D01*
X017244Y018404D02*
X018593Y018404D01*
X018586Y018305D02*
X017244Y018305D01*
X017244Y018207D02*
X018593Y018207D01*
X018586Y018108D02*
X017244Y018108D01*
X017244Y018010D02*
X018593Y018010D01*
X018586Y017911D02*
X017244Y017911D01*
X017244Y017813D02*
X018593Y017813D01*
X018586Y017714D02*
X017258Y017714D01*
X017356Y017616D02*
X018593Y017616D01*
X018586Y017517D02*
X017402Y017517D01*
X017223Y017496D02*
X017223Y016366D01*
X017239Y016350D01*
X017436Y016350D02*
X017436Y017079D01*
X017538Y017181D01*
X017813Y017320D02*
X018586Y017320D01*
X018592Y017222D02*
X017845Y017222D01*
X017845Y017123D02*
X018586Y017123D01*
X018622Y017025D02*
X017805Y017025D01*
X017717Y016926D02*
X020655Y016926D01*
X020655Y016828D02*
X017614Y016828D01*
X017044Y016828D02*
X016980Y016828D01*
X016787Y016828D02*
X014662Y016828D01*
X014662Y016926D02*
X016649Y016926D01*
X016602Y017025D02*
X014640Y017025D01*
X014542Y017123D02*
X016582Y017123D01*
X016533Y017400D02*
X016883Y017100D01*
X016786Y017419D02*
X017044Y017419D01*
X016949Y017517D02*
X016671Y017517D01*
X016533Y017400D02*
X014883Y017400D01*
X014605Y017728D01*
X012711Y017728D01*
X012711Y017925D02*
X011904Y017925D01*
X011554Y017575D01*
X011554Y018441D01*
X011239Y018756D01*
X010650Y018756D01*
X010644Y018750D01*
X010644Y019250D02*
X011453Y019250D01*
X011948Y018756D01*
X011948Y018362D01*
X012184Y018126D01*
X012707Y018126D01*
X012711Y018122D01*
X016361Y018122D01*
X016514Y017969D01*
X016789Y018108D02*
X016887Y018108D01*
X016887Y018010D02*
X016821Y018010D01*
X016821Y017911D02*
X016887Y017911D01*
X016887Y017813D02*
X016782Y017813D01*
X016694Y017714D02*
X016887Y017714D01*
X016887Y017616D02*
X014935Y017616D01*
X014851Y017714D02*
X016335Y017714D01*
X016247Y017813D02*
X014774Y017813D01*
X014564Y017911D02*
X016208Y017911D01*
X016710Y018207D02*
X016887Y018207D01*
X016887Y018305D02*
X013135Y018305D01*
X013128Y018404D02*
X016887Y018404D01*
X016887Y018502D02*
X013135Y018502D01*
X013128Y018601D02*
X016866Y018601D01*
X016790Y018699D02*
X013135Y018699D01*
X013128Y018995D02*
X016800Y018995D01*
X016890Y019093D02*
X013135Y019093D01*
X013128Y019192D02*
X013790Y019192D01*
X013719Y019290D02*
X013135Y019290D01*
X013128Y019389D02*
X013695Y019389D01*
X013650Y019487D02*
X013135Y019487D01*
X013157Y019876D02*
X013157Y019894D01*
X013157Y019912D01*
X013650Y019912D01*
X013686Y019876D01*
X013157Y019876D01*
X013157Y019881D02*
X013681Y019881D01*
X013693Y019697D02*
X012711Y019697D01*
X012707Y019504D02*
X012184Y019504D01*
X011869Y019819D01*
X011869Y022772D01*
X012146Y022639D02*
X013311Y022639D01*
X013311Y022541D02*
X012072Y022541D01*
X012048Y022442D02*
X013311Y022442D01*
X013311Y022344D02*
X012048Y022344D01*
X012048Y022245D02*
X013320Y022245D01*
X013320Y022147D02*
X012048Y022147D01*
X012048Y022048D02*
X012395Y022048D01*
X012297Y021950D02*
X012048Y021950D01*
X012048Y021851D02*
X012287Y021851D01*
X012297Y021753D02*
X012048Y021753D01*
X012048Y021654D02*
X012287Y021654D01*
X012297Y021556D02*
X012048Y021556D01*
X012048Y021457D02*
X012287Y021457D01*
X012296Y021359D02*
X012048Y021359D01*
X012048Y021260D02*
X012287Y021260D01*
X012296Y021162D02*
X012048Y021162D01*
X012048Y021063D02*
X012287Y021063D01*
X012296Y020965D02*
X012048Y020965D01*
X012048Y020866D02*
X012287Y020866D01*
X012296Y020768D02*
X012048Y020768D01*
X012048Y020669D02*
X012287Y020669D01*
X012296Y020571D02*
X012048Y020571D01*
X012048Y020472D02*
X012287Y020472D01*
X012296Y020374D02*
X012048Y020374D01*
X012048Y020275D02*
X012287Y020275D01*
X012295Y020177D02*
X012048Y020177D01*
X012048Y020078D02*
X012287Y020078D01*
X012283Y019980D02*
X012048Y019980D01*
X012059Y019881D02*
X012266Y019881D01*
X012295Y019783D02*
X012158Y019783D01*
X012256Y019684D02*
X012287Y019684D01*
X012046Y019389D02*
X011568Y019389D01*
X011666Y019290D02*
X012287Y019290D01*
X012295Y019192D02*
X011765Y019192D01*
X011863Y019093D02*
X012287Y019093D01*
X012295Y018995D02*
X011962Y018995D01*
X012060Y018896D02*
X012287Y018896D01*
X012294Y018798D02*
X012126Y018798D01*
X012126Y018699D02*
X012287Y018699D01*
X012294Y018601D02*
X012126Y018601D01*
X012126Y018502D02*
X012287Y018502D01*
X012294Y018404D02*
X012159Y018404D01*
X012258Y018305D02*
X012287Y018305D01*
X011949Y018108D02*
X011733Y018108D01*
X011733Y018010D02*
X011736Y018010D01*
X011733Y018207D02*
X011850Y018207D01*
X011769Y018305D02*
X011733Y018305D01*
X011733Y018404D02*
X011769Y018404D01*
X011769Y018502D02*
X011733Y018502D01*
X011769Y018601D02*
X011647Y018601D01*
X011548Y018699D02*
X011752Y018699D01*
X011653Y018798D02*
X011450Y018798D01*
X011351Y018896D02*
X011555Y018896D01*
X011456Y018995D02*
X011133Y018995D01*
X011131Y018497D02*
X010158Y018497D01*
X010090Y018429D01*
X010087Y018429D01*
X010050Y018466D01*
X010050Y018581D01*
X010003Y018694D01*
X009917Y018780D01*
X009804Y018827D01*
X009682Y018827D01*
X009569Y018780D01*
X009483Y018694D01*
X009436Y018581D01*
X009436Y018459D01*
X009483Y018346D01*
X009569Y018260D01*
X009682Y018213D01*
X009797Y018213D01*
X009834Y018176D01*
X009938Y018071D01*
X010090Y018071D01*
X010153Y018008D01*
X010119Y017988D01*
X010091Y017960D01*
X010072Y017926D01*
X010061Y017888D01*
X010061Y017759D01*
X010635Y017759D01*
X010635Y017741D01*
X010061Y017741D01*
X010061Y017612D01*
X010072Y017574D01*
X010091Y017540D01*
X010119Y017512D01*
X010140Y017500D01*
X010119Y017488D01*
X010091Y017460D01*
X010072Y017426D01*
X010061Y017388D01*
X010061Y017259D01*
X010635Y017259D01*
X010635Y017241D01*
X010061Y017241D01*
X010061Y017112D01*
X010072Y017074D01*
X010091Y017040D01*
X010119Y017012D01*
X010140Y017000D01*
X010119Y016988D01*
X010091Y016960D01*
X010072Y016926D01*
X008647Y016926D01*
X008647Y016828D02*
X010061Y016828D01*
X010061Y016888D02*
X010061Y016759D01*
X010635Y016759D01*
X010635Y016741D01*
X010061Y016741D01*
X010061Y016612D01*
X010072Y016574D01*
X010091Y016540D01*
X010119Y016512D01*
X010140Y016500D01*
X010119Y016488D01*
X010091Y016460D01*
X010072Y016426D01*
X010061Y016388D01*
X010061Y016259D01*
X010635Y016259D01*
X010635Y016241D01*
X010061Y016241D01*
X010061Y016112D01*
X010072Y016074D01*
X010091Y016040D01*
X010119Y016012D01*
X010140Y016000D01*
X010119Y015988D01*
X010091Y015960D01*
X010072Y015926D01*
X010061Y015888D01*
X010061Y015759D01*
X010635Y015759D01*
X010635Y015741D01*
X010061Y015741D01*
X010061Y015612D01*
X010072Y015574D01*
X010091Y015540D01*
X010119Y015512D01*
X010153Y015492D01*
X010192Y015482D01*
X010635Y015482D01*
X010635Y015741D01*
X010653Y015741D01*
X010653Y015759D01*
X010635Y015759D01*
X010635Y016241D01*
X010653Y016241D01*
X010653Y015982D01*
X010653Y015759D01*
X011227Y015759D01*
X011227Y015888D01*
X011217Y015926D01*
X011197Y015960D01*
X011170Y015988D01*
X011149Y016000D01*
X011170Y016012D01*
X011197Y016040D01*
X011217Y016074D01*
X011227Y016112D01*
X011227Y016241D01*
X010653Y016241D01*
X010653Y016259D01*
X010635Y016259D01*
X010635Y016518D01*
X010635Y016741D01*
X010653Y016741D01*
X010653Y016259D01*
X011227Y016259D01*
X011227Y016388D01*
X011217Y016426D01*
X011197Y016460D01*
X011170Y016488D01*
X011149Y016500D01*
X011170Y016512D01*
X011197Y016540D01*
X011217Y016574D01*
X011227Y016612D01*
X011227Y016741D01*
X010653Y016741D01*
X010653Y016759D01*
X010635Y016759D01*
X010635Y017018D01*
X010635Y017241D01*
X010653Y017241D01*
X010653Y016759D01*
X011227Y016759D01*
X011227Y016888D01*
X011217Y016926D01*
X011375Y016926D01*
X011375Y016828D02*
X011227Y016828D01*
X011217Y016926D02*
X011197Y016960D01*
X011170Y016988D01*
X011149Y017000D01*
X011170Y017012D01*
X011197Y017040D01*
X011217Y017074D01*
X011227Y017112D01*
X011227Y017241D01*
X010653Y017241D01*
X010653Y017259D01*
X010635Y017259D01*
X010635Y017518D01*
X010635Y017741D01*
X010653Y017741D01*
X010653Y017259D01*
X011227Y017259D01*
X011227Y017388D01*
X011217Y017426D01*
X011197Y017460D01*
X011170Y017488D01*
X011149Y017500D01*
X011170Y017512D01*
X011197Y017540D01*
X011217Y017574D01*
X011227Y017612D01*
X011227Y017741D01*
X010653Y017741D01*
X010653Y017759D01*
X011227Y017759D01*
X011227Y017888D01*
X011217Y017926D01*
X011197Y017960D01*
X011170Y017988D01*
X011135Y018008D01*
X011206Y018079D01*
X011206Y018421D01*
X011131Y018497D01*
X011240Y018502D02*
X010050Y018502D01*
X010041Y018601D02*
X010083Y018601D01*
X010083Y018699D02*
X009997Y018699D01*
X010083Y018798D02*
X009874Y018798D01*
X010083Y018896D02*
X008735Y018896D01*
X008647Y018798D02*
X009612Y018798D01*
X009488Y018699D02*
X008647Y018699D01*
X008647Y018601D02*
X009444Y018601D01*
X009436Y018502D02*
X008647Y018502D01*
X008647Y018404D02*
X009459Y018404D01*
X009523Y018305D02*
X008647Y018305D01*
X008647Y018207D02*
X009803Y018207D01*
X009902Y018108D02*
X008647Y018108D01*
X008647Y018010D02*
X010152Y018010D01*
X010067Y017911D02*
X008647Y017911D01*
X008647Y017813D02*
X010061Y017813D01*
X010061Y017714D02*
X008647Y017714D01*
X008647Y017616D02*
X010061Y017616D01*
X010114Y017517D02*
X008647Y017517D01*
X008647Y017419D02*
X010070Y017419D01*
X010061Y017320D02*
X008647Y017320D01*
X008647Y017222D02*
X010061Y017222D01*
X010061Y017123D02*
X008647Y017123D01*
X008647Y017025D02*
X010107Y017025D01*
X010072Y016926D02*
X010061Y016888D01*
X010061Y016729D02*
X008647Y016729D01*
X008647Y016631D02*
X010061Y016631D01*
X010099Y016532D02*
X008647Y016532D01*
X008647Y016434D02*
X010076Y016434D01*
X010061Y016335D02*
X008647Y016335D01*
X008647Y016237D02*
X010061Y016237D01*
X010061Y016138D02*
X009897Y016138D01*
X009995Y016040D02*
X010092Y016040D01*
X010080Y015941D02*
X010040Y015941D01*
X010040Y015843D02*
X010061Y015843D01*
X010040Y015744D02*
X010635Y015744D01*
X010653Y015744D02*
X011360Y015744D01*
X011262Y015646D02*
X011227Y015646D01*
X011227Y015843D02*
X011459Y015843D01*
X011557Y015941D02*
X011209Y015941D01*
X011197Y016040D02*
X011656Y016040D01*
X011754Y016138D02*
X011227Y016138D01*
X011227Y016237D02*
X011853Y016237D01*
X011772Y016335D02*
X011951Y016335D01*
X011837Y016434D02*
X012601Y016434D01*
X012699Y016532D02*
X011861Y016532D01*
X011853Y016631D02*
X012798Y016631D01*
X012896Y016729D02*
X011810Y016729D01*
X011733Y016828D02*
X012995Y016828D01*
X013093Y016926D02*
X011733Y016926D01*
X011733Y017025D02*
X012323Y017025D01*
X012287Y017123D02*
X011733Y017123D01*
X011733Y017222D02*
X012293Y017222D01*
X012287Y017320D02*
X011733Y017320D01*
X011733Y017419D02*
X012293Y017419D01*
X012287Y017517D02*
X011749Y017517D01*
X011847Y017616D02*
X012294Y017616D01*
X012287Y017714D02*
X011946Y017714D01*
X011554Y017575D02*
X011554Y016551D01*
X011336Y016335D02*
X011227Y016335D01*
X011213Y016434D02*
X011270Y016434D01*
X011247Y016532D02*
X011190Y016532D01*
X011227Y016631D02*
X011255Y016631D01*
X011227Y016729D02*
X011298Y016729D01*
X011375Y017025D02*
X011182Y017025D01*
X011227Y017123D02*
X011375Y017123D01*
X011375Y017222D02*
X011227Y017222D01*
X011227Y017320D02*
X011375Y017320D01*
X011375Y017419D02*
X011219Y017419D01*
X011175Y017517D02*
X011375Y017517D01*
X011375Y017616D02*
X011227Y017616D01*
X011227Y017714D02*
X011375Y017714D01*
X011375Y017813D02*
X011227Y017813D01*
X011221Y017911D02*
X011375Y017911D01*
X011375Y018010D02*
X011137Y018010D01*
X011206Y018108D02*
X011375Y018108D01*
X011375Y018207D02*
X011206Y018207D01*
X011206Y018305D02*
X011375Y018305D01*
X011338Y018404D02*
X011206Y018404D01*
X010644Y018250D02*
X010012Y018250D01*
X009743Y018520D01*
X010156Y018995D02*
X008834Y018995D01*
X008932Y019093D02*
X010083Y019093D01*
X010083Y019192D02*
X009031Y019192D01*
X009129Y019290D02*
X010083Y019290D01*
X010083Y019389D02*
X009222Y019389D01*
X009222Y019487D02*
X010148Y019487D01*
X009222Y019586D02*
X011849Y019586D01*
X011751Y019684D02*
X009222Y019684D01*
X009222Y019783D02*
X011690Y019783D01*
X011690Y019881D02*
X009222Y019881D01*
X009222Y019980D02*
X011690Y019980D01*
X011690Y020078D02*
X009222Y020078D01*
X009222Y020177D02*
X011690Y020177D01*
X011690Y020275D02*
X009222Y020275D01*
X009222Y020374D02*
X011690Y020374D01*
X011690Y020472D02*
X009222Y020472D01*
X009222Y020571D02*
X011690Y020571D01*
X011690Y020669D02*
X009222Y020669D01*
X009222Y020768D02*
X011690Y020768D01*
X011690Y020866D02*
X009222Y020866D01*
X009222Y020965D02*
X011690Y020965D01*
X011690Y021063D02*
X009222Y021063D01*
X009222Y021162D02*
X011690Y021162D01*
X011690Y021260D02*
X009222Y021260D01*
X009222Y021359D02*
X011690Y021359D01*
X011690Y021457D02*
X009222Y021457D01*
X009222Y021556D02*
X010818Y021556D01*
X010882Y021491D02*
X011304Y021491D01*
X011602Y021789D01*
X011602Y022211D01*
X011304Y022509D01*
X010882Y022509D01*
X010584Y022211D01*
X010584Y021789D01*
X010882Y021491D01*
X010720Y021654D02*
X009222Y021654D01*
X009222Y021753D02*
X010621Y021753D01*
X010584Y021851D02*
X009222Y021851D01*
X009222Y021950D02*
X010584Y021950D01*
X010584Y022048D02*
X009222Y022048D01*
X009222Y022147D02*
X010584Y022147D01*
X010619Y022245D02*
X009222Y022245D01*
X009222Y022344D02*
X010717Y022344D01*
X010816Y022442D02*
X009222Y022442D01*
X009222Y022541D02*
X011666Y022541D01*
X011690Y022442D02*
X011371Y022442D01*
X011469Y022344D02*
X011690Y022344D01*
X011690Y022245D02*
X011568Y022245D01*
X011602Y022147D02*
X011690Y022147D01*
X011690Y022048D02*
X011602Y022048D01*
X011602Y021950D02*
X011690Y021950D01*
X011690Y021851D02*
X011602Y021851D01*
X011565Y021753D02*
X011690Y021753D01*
X011690Y021654D02*
X011467Y021654D01*
X011368Y021556D02*
X011690Y021556D01*
X012711Y021469D02*
X013392Y021469D01*
X013522Y021339D01*
X013522Y021039D01*
X014333Y020228D01*
X014333Y020163D01*
X014546Y019780D02*
X014035Y019780D01*
X013724Y020091D01*
X012711Y020091D01*
X012711Y019894D02*
X013157Y019894D01*
X012711Y019894D01*
X012711Y019894D01*
X012707Y019504D02*
X012711Y019500D01*
X012733Y019500D01*
X011948Y019487D02*
X011141Y019487D01*
X012733Y018150D02*
X012761Y018122D01*
X012711Y018122D01*
X012708Y017925D02*
X012711Y017925D01*
X012833Y017925D01*
X013135Y017911D02*
X014544Y017911D01*
X014550Y017517D02*
X013135Y017517D01*
X013129Y017419D02*
X014633Y017419D01*
X014711Y017320D02*
X013135Y017320D01*
X013129Y017222D02*
X013389Y017222D01*
X013290Y017123D02*
X013135Y017123D01*
X013100Y017025D02*
X013192Y017025D01*
X013788Y015941D02*
X013800Y015941D01*
X013744Y015843D02*
X014107Y015843D01*
X014107Y015744D02*
X013998Y015744D01*
X014056Y015646D02*
X014107Y015646D01*
X014107Y015547D02*
X014071Y015547D01*
X014052Y015449D02*
X014107Y015449D01*
X014107Y015350D02*
X013989Y015350D01*
X014107Y015252D02*
X013189Y015252D01*
X013257Y015153D02*
X014107Y015153D01*
X014107Y015055D02*
X013257Y015055D01*
X013257Y014956D02*
X014107Y014956D01*
X014117Y014858D02*
X013257Y014858D01*
X013257Y014759D02*
X014215Y014759D01*
X014314Y014661D02*
X013257Y014661D01*
X013255Y014562D02*
X014412Y014562D01*
X014511Y014464D02*
X013229Y014464D01*
X013257Y014365D02*
X014609Y014365D01*
X014708Y014267D02*
X013257Y014267D01*
X012833Y014126D02*
X012833Y014000D01*
X012961Y012888D02*
X012961Y012888D01*
X012961Y012789D02*
X012961Y012789D01*
X012961Y012691D02*
X012961Y012691D01*
X012961Y012592D02*
X012961Y012592D01*
X013610Y011115D02*
X014217Y011115D01*
X014333Y010850D02*
X013372Y010850D01*
X013217Y010695D01*
X013217Y010061D01*
X013397Y010622D02*
X014153Y010622D01*
X013114Y009342D02*
X012922Y009342D01*
X012716Y009342D02*
X012659Y009342D01*
X012659Y009243D02*
X012716Y009243D01*
X012716Y009145D02*
X012659Y009145D01*
X012659Y009046D02*
X012716Y009046D01*
X012073Y007667D02*
X014562Y007667D01*
X014348Y007569D02*
X012288Y007569D01*
X012386Y007470D02*
X014249Y007470D01*
X014162Y007372D02*
X012473Y007372D01*
X012514Y007273D02*
X014121Y007273D01*
X014080Y007175D02*
X012555Y007175D01*
X012570Y007076D02*
X014065Y007076D01*
X014065Y006978D02*
X012570Y006978D01*
X012570Y006879D02*
X014065Y006879D01*
X014099Y006781D02*
X012536Y006781D01*
X012495Y006682D02*
X014140Y006682D01*
X014196Y006584D02*
X012440Y006584D01*
X012341Y006485D02*
X014294Y006485D01*
X014433Y006387D02*
X012202Y006387D01*
X016333Y007087D02*
X016333Y007100D01*
X017907Y009539D02*
X018119Y009539D01*
X018028Y009637D02*
X018218Y009637D01*
X018316Y009736D02*
X018069Y009736D01*
X018072Y009834D02*
X018415Y009834D01*
X018522Y009933D02*
X018041Y009933D01*
X017961Y010031D02*
X018424Y010031D01*
X018732Y010228D02*
X019153Y010228D01*
X019074Y010130D02*
X018831Y010130D01*
X018929Y010031D02*
X019045Y010031D01*
X019049Y009933D02*
X019028Y009933D01*
X019333Y010000D02*
X019683Y009650D01*
X018804Y010721D02*
X018592Y010721D01*
X018592Y010819D02*
X018656Y010819D01*
X018605Y010918D02*
X018592Y010918D01*
X018592Y011016D02*
X018595Y011016D01*
X017845Y010130D02*
X017822Y010130D01*
X015783Y012888D02*
X015777Y012888D01*
X015777Y012986D02*
X015881Y012986D01*
X016309Y013126D02*
X016333Y013126D01*
X015852Y014759D02*
X015814Y014759D01*
X015814Y014858D02*
X015852Y014858D01*
X015852Y014956D02*
X015814Y014956D01*
X015814Y015055D02*
X015852Y015055D01*
X016306Y015150D02*
X016306Y015578D01*
X016083Y015800D01*
X015297Y015800D01*
X015073Y016024D01*
X015073Y016350D01*
X014877Y016350D02*
X014877Y015957D01*
X015361Y015472D01*
X015361Y015150D01*
X015094Y015153D02*
X014465Y015153D01*
X014465Y015055D02*
X015094Y015055D01*
X015094Y014956D02*
X014524Y014956D01*
X014622Y014858D02*
X015094Y014858D01*
X015097Y014759D02*
X014721Y014759D01*
X014465Y015252D02*
X015094Y015252D01*
X015094Y015350D02*
X014465Y015350D01*
X014465Y015449D02*
X015094Y015449D01*
X015034Y015547D02*
X014465Y015547D01*
X014465Y015646D02*
X014935Y015646D01*
X014837Y015744D02*
X014465Y015744D01*
X014465Y015843D02*
X014738Y015843D01*
X014680Y015941D02*
X014680Y015941D01*
X014680Y016040D02*
X014680Y016040D01*
X014680Y016138D02*
X014680Y016138D01*
X014680Y016237D02*
X014680Y016237D01*
X014680Y016335D02*
X014680Y016335D01*
X014680Y016434D02*
X014680Y016434D01*
X014680Y016532D02*
X014680Y016532D01*
X014680Y016631D02*
X014680Y016631D01*
X014680Y016729D02*
X014680Y016729D01*
X014809Y017222D02*
X014443Y017222D01*
X013997Y015941D02*
X013985Y015941D01*
X016347Y015941D02*
X016359Y015941D01*
X016544Y015941D02*
X016556Y015941D01*
X016741Y015941D02*
X016753Y015941D01*
X016938Y015941D02*
X016950Y015941D01*
X017134Y015941D02*
X017146Y015941D01*
X017331Y015941D02*
X017343Y015941D01*
X017528Y015941D02*
X017540Y015941D01*
X017725Y015941D02*
X017737Y015941D01*
X017922Y015941D02*
X017934Y015941D01*
X018223Y016031D02*
X018583Y015671D01*
X018687Y015941D02*
X020415Y015941D01*
X020409Y015843D02*
X018820Y015843D01*
X018866Y015744D02*
X020409Y015744D01*
X020409Y015646D02*
X018872Y015646D01*
X018844Y015547D02*
X020409Y015547D01*
X020409Y015449D02*
X018769Y015449D01*
X018468Y016040D02*
X020435Y016040D01*
X020409Y016138D02*
X019955Y016138D01*
X019711Y016138D02*
X018411Y016138D01*
X018411Y016237D02*
X019589Y016237D01*
X019399Y017025D02*
X020655Y017025D01*
X020655Y017123D02*
X019435Y017123D01*
X019429Y017222D02*
X020655Y017222D01*
X020655Y017320D02*
X019435Y017320D01*
X019428Y017419D02*
X020655Y017419D01*
X020655Y017517D02*
X019435Y017517D01*
X019428Y017616D02*
X020696Y017616D01*
X020797Y017714D02*
X019435Y017714D01*
X019428Y017813D02*
X020899Y017813D01*
X021001Y017911D02*
X019435Y017911D01*
X019428Y018010D02*
X021102Y018010D01*
X021204Y018108D02*
X019435Y018108D01*
X019428Y018207D02*
X021306Y018207D01*
X021407Y018305D02*
X019435Y018305D01*
X019428Y018404D02*
X021509Y018404D01*
X021611Y018502D02*
X019435Y018502D01*
X019428Y018601D02*
X021712Y018601D01*
X021814Y018699D02*
X019435Y018699D01*
X019010Y019106D02*
X017660Y019106D01*
X017223Y019543D01*
X017223Y020786D01*
X017436Y020998D01*
X017436Y022650D01*
X017436Y023063D01*
X017538Y023165D01*
X019073Y023165D01*
X019461Y023553D01*
X020197Y023553D01*
X020223Y023230D02*
X019391Y023230D01*
X019380Y023132D02*
X020223Y023132D01*
X020223Y023033D02*
X019351Y023033D01*
X019277Y022935D02*
X020223Y022935D01*
X020223Y022836D02*
X018411Y022836D01*
X018411Y022738D02*
X020223Y022738D01*
X020223Y022639D02*
X018411Y022639D01*
X018411Y022541D02*
X020223Y022541D01*
X020223Y022442D02*
X018411Y022442D01*
X018411Y022344D02*
X020223Y022344D01*
X020223Y022245D02*
X018320Y022245D01*
X018126Y022245D02*
X018123Y022245D01*
X017929Y022245D02*
X017927Y022245D01*
X017732Y022245D02*
X017730Y022245D01*
X017614Y022147D02*
X020223Y022147D01*
X020223Y022048D02*
X019326Y022048D01*
X019471Y021862D02*
X019833Y021500D01*
X019833Y019500D01*
X020100Y019389D02*
X020223Y019389D01*
X020223Y019487D02*
X020122Y019487D01*
X020110Y019586D02*
X020223Y019586D01*
X020223Y019684D02*
X020058Y019684D01*
X020012Y019783D02*
X020223Y019783D01*
X020223Y019881D02*
X020012Y019881D01*
X020012Y019980D02*
X020223Y019980D01*
X020223Y020078D02*
X020012Y020078D01*
X020012Y020177D02*
X020223Y020177D01*
X020223Y020275D02*
X020012Y020275D01*
X020012Y020374D02*
X020223Y020374D01*
X020223Y020472D02*
X020012Y020472D01*
X020012Y020571D02*
X020223Y020571D01*
X020223Y020669D02*
X020012Y020669D01*
X020012Y020768D02*
X020223Y020768D01*
X020223Y020866D02*
X020012Y020866D01*
X020012Y020965D02*
X020223Y020965D01*
X020223Y021063D02*
X020012Y021063D01*
X020012Y021162D02*
X020223Y021162D01*
X020223Y021260D02*
X020012Y021260D01*
X020012Y021359D02*
X020223Y021359D01*
X020223Y021457D02*
X020012Y021457D01*
X020012Y021556D02*
X020223Y021556D01*
X020223Y021654D02*
X019932Y021654D01*
X019834Y021753D02*
X020223Y021753D01*
X020223Y021851D02*
X019735Y021851D01*
X019637Y021950D02*
X020223Y021950D01*
X019685Y023329D02*
X019489Y023329D01*
X018870Y022935D02*
X018411Y022935D01*
X018719Y023402D02*
X019371Y024053D01*
X020197Y024053D01*
X020223Y024302D02*
X019709Y024302D01*
X019639Y024232D01*
X019297Y024232D01*
X019192Y024127D01*
X018645Y023580D01*
X017218Y023580D01*
X017140Y023659D01*
X015300Y023659D01*
X015252Y023707D01*
X015154Y023748D01*
X015047Y023748D01*
X014949Y023707D01*
X014874Y023632D01*
X014833Y023534D01*
X014833Y023427D01*
X014465Y023427D01*
X014465Y023329D02*
X014874Y023329D01*
X014949Y023254D01*
X015047Y023213D01*
X015154Y023213D01*
X015252Y023254D01*
X015300Y023302D01*
X016992Y023302D01*
X017070Y023223D01*
X017343Y023223D01*
X017257Y023137D01*
X017257Y023095D01*
X017239Y023095D01*
X017239Y022650D01*
X017239Y022650D01*
X017239Y023095D01*
X017211Y023095D01*
X017158Y023081D01*
X017129Y023064D01*
X017120Y023074D01*
X016964Y023074D01*
X016944Y023053D01*
X016923Y023074D01*
X016767Y023074D01*
X016747Y023053D01*
X016726Y023074D01*
X016571Y023074D01*
X016550Y023053D01*
X016529Y023074D01*
X016374Y023074D01*
X016353Y023053D01*
X016332Y023074D01*
X016177Y023074D01*
X016156Y023053D01*
X016136Y023074D01*
X015980Y023074D01*
X015959Y023053D01*
X015939Y023074D01*
X015783Y023074D01*
X015762Y023053D01*
X015742Y023074D01*
X015586Y023074D01*
X015566Y023053D01*
X015545Y023074D01*
X015389Y023074D01*
X015369Y023053D01*
X015348Y023074D01*
X015193Y023074D01*
X015172Y023053D01*
X015151Y023074D01*
X014996Y023074D01*
X014975Y023053D01*
X014954Y023074D01*
X014799Y023074D01*
X014778Y023053D01*
X014758Y023074D01*
X014602Y023074D01*
X014581Y023053D01*
X014561Y023074D01*
X014465Y023074D01*
X014465Y023741D01*
X014643Y023741D01*
X014719Y023817D01*
X014719Y024435D01*
X014665Y024488D01*
X014682Y024498D01*
X014710Y024526D01*
X014730Y024560D01*
X014740Y024598D01*
X014740Y024824D01*
X014345Y024824D01*
X014345Y024924D01*
X014740Y024924D01*
X014740Y025150D01*
X014730Y025188D01*
X014710Y025222D01*
X014682Y025250D01*
X014648Y025270D01*
X014610Y025280D01*
X014345Y025280D01*
X014345Y024924D01*
X014245Y024924D01*
X014245Y025280D01*
X013980Y025280D01*
X013942Y025270D01*
X013909Y025251D01*
X013901Y025259D01*
X013693Y025259D01*
X013693Y025615D01*
X013755Y025641D01*
X013874Y025760D01*
X013938Y025916D01*
X013938Y026403D01*
X013874Y026559D01*
X013755Y026678D01*
X013074Y027359D01*
X012918Y027424D01*
X006361Y027424D01*
X006021Y027313D01*
X005731Y027103D01*
X005520Y026813D01*
X005520Y026813D01*
X005483Y026700D01*
X005483Y028792D01*
X005494Y028900D01*
X005577Y029100D01*
X005730Y029253D01*
X005930Y029335D01*
X006038Y029346D01*
X020223Y029346D01*
X020223Y025323D01*
X020207Y025323D01*
X020207Y025063D01*
X020187Y025063D01*
X020187Y025043D01*
X019612Y025043D01*
X019612Y024913D01*
X019622Y024875D01*
X019642Y024841D01*
X019670Y024813D01*
X019702Y024795D01*
X019639Y024732D01*
X019216Y024732D01*
X018872Y025076D01*
X018679Y025076D01*
X018679Y025219D01*
X018603Y025294D01*
X017985Y025294D01*
X017920Y025229D01*
X017855Y025294D01*
X017237Y025294D01*
X017161Y025219D01*
X017161Y024521D01*
X017199Y024484D01*
X017165Y024451D01*
X017165Y023714D01*
X017241Y023639D01*
X017859Y023639D01*
X017935Y023714D01*
X017935Y023736D01*
X017942Y023710D01*
X017961Y023676D01*
X017989Y023648D01*
X018023Y023628D01*
X018062Y023618D01*
X018287Y023618D01*
X018287Y024033D01*
X018387Y024033D01*
X018387Y024133D01*
X018743Y024133D01*
X018743Y024417D01*
X018733Y024456D01*
X018713Y024490D01*
X018685Y024518D01*
X018679Y024522D01*
X018679Y024719D01*
X018724Y024719D01*
X018964Y024479D01*
X019068Y024374D01*
X019639Y024374D01*
X019709Y024304D01*
X020223Y024304D01*
X020223Y024302D01*
X020197Y024553D02*
X019142Y024553D01*
X018798Y024898D01*
X018322Y024898D01*
X018294Y024870D01*
X018679Y024708D02*
X018735Y024708D01*
X018679Y024609D02*
X018834Y024609D01*
X018932Y024511D02*
X018692Y024511D01*
X018743Y024412D02*
X019031Y024412D01*
X018743Y024314D02*
X019700Y024314D01*
X019280Y024215D02*
X018743Y024215D01*
X018743Y024033D02*
X018387Y024033D01*
X018387Y023618D01*
X018613Y023618D01*
X018651Y023628D01*
X018685Y023648D01*
X018713Y023676D01*
X018733Y023710D01*
X018743Y023748D01*
X018743Y024033D01*
X018743Y024018D02*
X019083Y024018D01*
X019181Y024117D02*
X018387Y024117D01*
X018387Y024018D02*
X018287Y024018D01*
X018287Y023920D02*
X018387Y023920D01*
X018387Y023821D02*
X018287Y023821D01*
X018287Y023723D02*
X018387Y023723D01*
X018387Y023624D02*
X018287Y023624D01*
X018038Y023624D02*
X017175Y023624D01*
X017165Y023723D02*
X015215Y023723D01*
X014986Y023723D02*
X014465Y023723D01*
X014465Y023624D02*
X014871Y023624D01*
X014833Y023526D02*
X014465Y023526D01*
X014465Y023230D02*
X015006Y023230D01*
X014874Y023329D02*
X014833Y023427D01*
X015101Y023480D02*
X017066Y023480D01*
X017144Y023402D01*
X018719Y023402D01*
X018689Y023624D02*
X018637Y023624D01*
X018736Y023723D02*
X018787Y023723D01*
X018743Y023821D02*
X018886Y023821D01*
X018984Y023920D02*
X018743Y023920D01*
X017938Y023723D02*
X017935Y023723D01*
X017550Y024083D02*
X017550Y024866D01*
X017546Y024870D01*
X017161Y024905D02*
X014345Y024905D01*
X014345Y025003D02*
X014245Y025003D01*
X014245Y025102D02*
X014345Y025102D01*
X014345Y025200D02*
X014245Y025200D01*
X014723Y025200D02*
X017161Y025200D01*
X017161Y025102D02*
X014740Y025102D01*
X014740Y025003D02*
X017161Y025003D01*
X017161Y024806D02*
X014740Y024806D01*
X014740Y024708D02*
X017161Y024708D01*
X017161Y024609D02*
X014740Y024609D01*
X014695Y024511D02*
X017172Y024511D01*
X017165Y024412D02*
X014719Y024412D01*
X014719Y024314D02*
X017165Y024314D01*
X017165Y024215D02*
X014719Y024215D01*
X014719Y024117D02*
X017165Y024117D01*
X017165Y024018D02*
X014719Y024018D01*
X014719Y023920D02*
X017165Y023920D01*
X017165Y023821D02*
X014719Y023821D01*
X014295Y024126D02*
X013552Y024126D01*
X014107Y023723D02*
X009222Y023723D01*
X009222Y023821D02*
X013128Y023821D01*
X013128Y023920D02*
X009222Y023920D01*
X009222Y024018D02*
X013128Y024018D01*
X013128Y024117D02*
X009222Y024117D01*
X009222Y024215D02*
X013128Y024215D01*
X013128Y024314D02*
X009222Y024314D01*
X009222Y024412D02*
X013128Y024412D01*
X013182Y024511D02*
X009222Y024511D01*
X009222Y024609D02*
X013128Y024609D01*
X013128Y024708D02*
X009222Y024708D01*
X009222Y024806D02*
X013128Y024806D01*
X013128Y024905D02*
X009222Y024905D01*
X009222Y025003D02*
X013128Y025003D01*
X013128Y025102D02*
X009222Y025102D01*
X009222Y025200D02*
X013145Y025200D01*
X013336Y025299D02*
X009222Y025299D01*
X009222Y025397D02*
X013336Y025397D01*
X013336Y025496D02*
X009222Y025496D01*
X009222Y025594D02*
X010869Y025594D01*
X010875Y025593D02*
X011123Y025593D01*
X011123Y025971D01*
X010745Y025971D01*
X010745Y025723D01*
X010755Y025685D01*
X010775Y025650D01*
X010803Y025622D01*
X010837Y025603D01*
X010875Y025593D01*
X010753Y025693D02*
X009253Y025693D01*
X009346Y025791D02*
X010745Y025791D01*
X010745Y025890D02*
X009387Y025890D01*
X009401Y025988D02*
X011123Y025988D01*
X011123Y025971D02*
X011123Y026029D01*
X010745Y026029D01*
X010745Y026277D01*
X010755Y026315D01*
X010775Y026350D01*
X010803Y026378D01*
X010837Y026397D01*
X010875Y026407D01*
X011123Y026407D01*
X011123Y026029D01*
X011181Y026029D01*
X011181Y026407D01*
X011429Y026407D01*
X011468Y026397D01*
X011502Y026378D01*
X011530Y026350D01*
X011549Y026315D01*
X011560Y026277D01*
X011560Y026092D01*
X011612Y026219D01*
X011721Y026327D01*
X011863Y026386D01*
X012016Y026386D01*
X012158Y026327D01*
X012267Y026219D01*
X012326Y026077D01*
X012326Y025923D01*
X012267Y025781D01*
X012158Y025673D01*
X012016Y025614D01*
X011863Y025614D01*
X011721Y025673D01*
X011612Y025781D01*
X011560Y025908D01*
X011560Y025723D01*
X011549Y025685D01*
X011530Y025650D01*
X011502Y025622D01*
X011468Y025603D01*
X011429Y025593D01*
X011181Y025593D01*
X011181Y025971D01*
X011123Y025971D01*
X011123Y025890D02*
X011181Y025890D01*
X011181Y025791D02*
X011123Y025791D01*
X011123Y025693D02*
X011181Y025693D01*
X011181Y025594D02*
X011123Y025594D01*
X011435Y025594D02*
X013336Y025594D01*
X013222Y025693D02*
X012966Y025693D01*
X013059Y025791D02*
X013142Y025791D01*
X013099Y025890D02*
X013101Y025890D01*
X013514Y026000D02*
X013514Y024912D01*
X013552Y024874D01*
X013693Y025299D02*
X019679Y025299D01*
X019670Y025293D02*
X019642Y025265D01*
X019622Y025231D01*
X019612Y025193D01*
X019612Y025063D01*
X020187Y025063D01*
X020187Y025323D01*
X019742Y025323D01*
X019704Y025313D01*
X019670Y025293D01*
X019614Y025200D02*
X018679Y025200D01*
X018679Y025102D02*
X019612Y025102D01*
X019612Y025003D02*
X018945Y025003D01*
X019044Y024905D02*
X019614Y024905D01*
X019682Y024806D02*
X019142Y024806D01*
X020187Y025102D02*
X020207Y025102D01*
X020207Y025200D02*
X020187Y025200D01*
X020187Y025299D02*
X020207Y025299D01*
X020223Y025397D02*
X013693Y025397D01*
X013693Y025496D02*
X020223Y025496D01*
X020223Y025594D02*
X015935Y025594D01*
X015929Y025593D02*
X015968Y025603D01*
X016002Y025622D01*
X016030Y025650D01*
X016049Y025685D01*
X016060Y025723D01*
X016060Y025908D01*
X016112Y025781D01*
X016221Y025673D01*
X016363Y025614D01*
X016516Y025614D01*
X016658Y025673D01*
X016767Y025781D01*
X016826Y025923D01*
X016826Y026077D01*
X016767Y026219D01*
X016658Y026327D01*
X016516Y026386D01*
X016363Y026386D01*
X016221Y026327D01*
X016112Y026219D01*
X016060Y026092D01*
X016060Y026277D01*
X016049Y026315D01*
X016030Y026350D01*
X016002Y026378D01*
X015968Y026397D01*
X015929Y026407D01*
X015681Y026407D01*
X015681Y026029D01*
X015623Y026029D01*
X015623Y025971D01*
X015245Y025971D01*
X015245Y025723D01*
X015255Y025685D01*
X015275Y025650D01*
X015303Y025622D01*
X015337Y025603D01*
X015375Y025593D01*
X015623Y025593D01*
X015623Y025971D01*
X015681Y025971D01*
X015681Y025593D01*
X015929Y025593D01*
X016052Y025693D02*
X016201Y025693D01*
X016108Y025791D02*
X016060Y025791D01*
X016060Y025890D02*
X016067Y025890D01*
X016060Y026185D02*
X016098Y026185D01*
X016058Y026284D02*
X016177Y026284D01*
X016353Y026382D02*
X015994Y026382D01*
X015681Y026382D02*
X015623Y026382D01*
X015623Y026407D02*
X015375Y026407D01*
X015337Y026397D01*
X015303Y026378D01*
X015275Y026350D01*
X015255Y026315D01*
X015245Y026277D01*
X015245Y026029D01*
X015623Y026029D01*
X015623Y026407D01*
X015623Y026284D02*
X015681Y026284D01*
X015681Y026185D02*
X015623Y026185D01*
X015623Y026087D02*
X015681Y026087D01*
X015623Y025988D02*
X013938Y025988D01*
X013938Y026087D02*
X015245Y026087D01*
X015245Y026185D02*
X013938Y026185D01*
X013938Y026284D02*
X015246Y026284D01*
X015311Y026382D02*
X013938Y026382D01*
X013906Y026481D02*
X020223Y026481D01*
X020223Y026579D02*
X013854Y026579D01*
X013755Y026678D02*
X020223Y026678D01*
X020223Y026776D02*
X013657Y026776D01*
X013558Y026875D02*
X020223Y026875D01*
X020223Y026973D02*
X013460Y026973D01*
X013361Y027072D02*
X020223Y027072D01*
X020223Y027170D02*
X013263Y027170D01*
X013164Y027269D02*
X020223Y027269D01*
X020223Y027367D02*
X013055Y027367D01*
X012753Y026481D02*
X006331Y026481D01*
X006311Y026382D02*
X006275Y026382D01*
X006623Y026382D02*
X006681Y026382D01*
X006681Y026284D02*
X006623Y026284D01*
X006623Y026185D02*
X006681Y026185D01*
X006681Y026087D02*
X006623Y026087D01*
X006623Y025890D02*
X006681Y025890D01*
X006681Y025791D02*
X006623Y025791D01*
X006623Y025693D02*
X006681Y025693D01*
X006681Y025594D02*
X006623Y025594D01*
X006369Y025594D02*
X006257Y025594D01*
X006257Y025496D02*
X008807Y025496D01*
X008807Y025594D02*
X006935Y025594D01*
X007052Y025693D02*
X007201Y025693D01*
X007108Y025791D02*
X007060Y025791D01*
X007060Y025890D02*
X007067Y025890D01*
X007060Y026185D02*
X007098Y026185D01*
X007058Y026284D02*
X007177Y026284D01*
X007353Y026382D02*
X006994Y026382D01*
X007527Y026382D02*
X008140Y026382D01*
X008150Y026386D02*
X008008Y026327D01*
X007900Y026219D01*
X007841Y026077D01*
X007841Y025923D01*
X007900Y025781D01*
X008008Y025673D01*
X008150Y025614D01*
X008304Y025614D01*
X008446Y025673D01*
X008554Y025781D01*
X008613Y025923D01*
X008613Y026077D01*
X008554Y026219D01*
X008446Y026327D01*
X008304Y026386D01*
X008150Y026386D01*
X008314Y026382D02*
X008928Y026382D01*
X009101Y026382D02*
X010811Y026382D01*
X010746Y026284D02*
X009277Y026284D01*
X009356Y026185D02*
X010745Y026185D01*
X010745Y026087D02*
X009397Y026087D01*
X008752Y026284D02*
X008490Y026284D01*
X008568Y026185D02*
X008673Y026185D01*
X008632Y026087D02*
X008609Y026087D01*
X008613Y025988D02*
X008628Y025988D01*
X008642Y025890D02*
X008599Y025890D01*
X008559Y025791D02*
X008683Y025791D01*
X008776Y025693D02*
X008466Y025693D01*
X008807Y025397D02*
X006257Y025397D01*
X006257Y025299D02*
X008807Y025299D01*
X008807Y025200D02*
X006257Y025200D01*
X006257Y025102D02*
X008807Y025102D01*
X008807Y025003D02*
X006257Y025003D01*
X006257Y024905D02*
X008807Y024905D01*
X008807Y024806D02*
X007156Y024806D01*
X007281Y024708D02*
X008807Y024708D01*
X008807Y024609D02*
X007380Y024609D01*
X007423Y024511D02*
X008807Y024511D01*
X008807Y024412D02*
X007464Y024412D01*
X007483Y024314D02*
X008807Y024314D01*
X008807Y024215D02*
X007483Y024215D01*
X007483Y024117D02*
X008807Y024117D01*
X008807Y024018D02*
X007447Y024018D01*
X007406Y023920D02*
X008807Y023920D01*
X008807Y023821D02*
X007337Y023821D01*
X007239Y023723D02*
X008807Y023723D01*
X008807Y023624D02*
X007054Y023624D01*
X006613Y023624D02*
X006257Y023624D01*
X006257Y023526D02*
X008807Y023526D01*
X008807Y023427D02*
X006257Y023427D01*
X006257Y023329D02*
X008807Y023329D01*
X008807Y023230D02*
X006257Y023230D01*
X006257Y023132D02*
X008807Y023132D01*
X008807Y023033D02*
X006257Y023033D01*
X006257Y022935D02*
X008807Y022935D01*
X008807Y022836D02*
X006257Y022836D01*
X006257Y022738D02*
X008807Y022738D01*
X008807Y022639D02*
X006257Y022639D01*
X006257Y022541D02*
X008807Y022541D01*
X008807Y022442D02*
X007464Y022442D01*
X007376Y022530D02*
X007206Y022530D01*
X007206Y022050D01*
X007106Y022050D01*
X007106Y021950D01*
X006626Y021950D01*
X006626Y021780D01*
X006937Y021470D01*
X007106Y021470D01*
X007106Y021950D01*
X007206Y021950D01*
X007206Y021470D01*
X007376Y021470D01*
X007686Y021780D01*
X007686Y021950D01*
X007206Y021950D01*
X007206Y022050D01*
X007686Y022050D01*
X007686Y022220D01*
X007376Y022530D01*
X007206Y022442D02*
X007106Y022442D01*
X007106Y022530D02*
X006937Y022530D01*
X006626Y022220D01*
X006626Y022050D01*
X007106Y022050D01*
X007106Y022530D01*
X007106Y022344D02*
X007206Y022344D01*
X007206Y022245D02*
X007106Y022245D01*
X007106Y022147D02*
X007206Y022147D01*
X007206Y022048D02*
X008807Y022048D01*
X008807Y021950D02*
X007686Y021950D01*
X007686Y021851D02*
X008807Y021851D01*
X008807Y021753D02*
X007658Y021753D01*
X007560Y021654D02*
X008807Y021654D01*
X008807Y021556D02*
X007461Y021556D01*
X007206Y021556D02*
X007106Y021556D01*
X007106Y021654D02*
X007206Y021654D01*
X007206Y021753D02*
X007106Y021753D01*
X007106Y021851D02*
X007206Y021851D01*
X007206Y021950D02*
X007106Y021950D01*
X007106Y022048D02*
X006257Y022048D01*
X006257Y021950D02*
X006626Y021950D01*
X006626Y021851D02*
X006257Y021851D01*
X006257Y021753D02*
X006654Y021753D01*
X006753Y021654D02*
X006257Y021654D01*
X006257Y021556D02*
X006851Y021556D01*
X006257Y021457D02*
X008807Y021457D01*
X008807Y021359D02*
X006257Y021359D01*
X006257Y021260D02*
X008807Y021260D01*
X008807Y021162D02*
X006257Y021162D01*
X006257Y021063D02*
X008807Y021063D01*
X008807Y020965D02*
X006257Y020965D01*
X006257Y020866D02*
X008807Y020866D01*
X008807Y020768D02*
X006257Y020768D01*
X006257Y020669D02*
X008807Y020669D01*
X008807Y020571D02*
X006257Y020571D01*
X006257Y020472D02*
X008807Y020472D01*
X008807Y020374D02*
X006257Y020374D01*
X006257Y020275D02*
X008807Y020275D01*
X008807Y020177D02*
X006257Y020177D01*
X006257Y020078D02*
X008807Y020078D01*
X008807Y019980D02*
X006257Y019980D01*
X006257Y019881D02*
X008807Y019881D01*
X008807Y019783D02*
X006257Y019783D01*
X006257Y019684D02*
X008807Y019684D01*
X008807Y019586D02*
X006257Y019586D01*
X006257Y019487D02*
X006526Y019487D01*
X006536Y019497D02*
X006460Y019421D01*
X006460Y019079D01*
X006536Y019003D01*
X007509Y019003D01*
X007584Y019079D01*
X007584Y019421D01*
X007509Y019497D01*
X006536Y019497D01*
X006460Y019389D02*
X006257Y019389D01*
X006257Y019290D02*
X006460Y019290D01*
X006460Y019192D02*
X006257Y019192D01*
X006257Y019093D02*
X006460Y019093D01*
X006534Y018995D02*
X006257Y018995D01*
X006257Y018896D02*
X006460Y018896D01*
X006460Y018798D02*
X006257Y018798D01*
X006257Y018699D02*
X006460Y018699D01*
X006460Y018601D02*
X006257Y018601D01*
X007022Y018750D02*
X007583Y018750D01*
X007731Y018896D02*
X008232Y018896D01*
X008232Y018798D02*
X007829Y018798D01*
X007928Y018699D02*
X008232Y018699D01*
X008232Y018601D02*
X008026Y018601D01*
X008125Y018502D02*
X008232Y018502D01*
X008223Y018404D02*
X008232Y018404D01*
X008247Y018995D02*
X007511Y018995D01*
X007584Y019093D02*
X008346Y019093D01*
X008444Y019192D02*
X007584Y019192D01*
X007584Y019290D02*
X008543Y019290D01*
X008641Y019389D02*
X007584Y019389D01*
X007519Y019487D02*
X008740Y019487D01*
X010635Y017714D02*
X010653Y017714D01*
X010653Y017616D02*
X010635Y017616D01*
X010635Y017517D02*
X010653Y017517D01*
X010653Y017419D02*
X010635Y017419D01*
X010635Y017320D02*
X010653Y017320D01*
X010653Y017222D02*
X010635Y017222D01*
X010635Y017123D02*
X010653Y017123D01*
X010653Y017025D02*
X010635Y017025D01*
X010635Y016926D02*
X010653Y016926D01*
X010653Y016828D02*
X010635Y016828D01*
X010635Y016729D02*
X010653Y016729D01*
X010653Y016631D02*
X010635Y016631D01*
X010635Y016532D02*
X010653Y016532D01*
X010653Y016434D02*
X010635Y016434D01*
X010635Y016335D02*
X010653Y016335D01*
X010653Y016237D02*
X010635Y016237D01*
X010635Y016138D02*
X010653Y016138D01*
X010653Y016040D02*
X010635Y016040D01*
X010635Y015941D02*
X010653Y015941D01*
X010653Y015843D02*
X010635Y015843D01*
X010635Y015646D02*
X010653Y015646D01*
X010653Y015547D02*
X010635Y015547D01*
X010868Y015252D02*
X010114Y015252D01*
X010040Y015350D02*
X010966Y015350D01*
X011065Y015449D02*
X010040Y015449D01*
X010040Y015547D02*
X010087Y015547D01*
X010061Y015646D02*
X010040Y015646D01*
X009682Y015646D02*
X008647Y015646D01*
X008647Y015744D02*
X009682Y015744D01*
X009682Y015547D02*
X008647Y015547D01*
X008647Y015449D02*
X008902Y015449D01*
X008825Y015350D02*
X008824Y015350D01*
X009177Y015350D02*
X009277Y015350D01*
X009277Y015252D02*
X009177Y015252D01*
X009177Y015153D02*
X009277Y015153D01*
X009277Y015055D02*
X009177Y015055D01*
X009277Y015050D02*
X009277Y015465D01*
X009503Y015465D01*
X009541Y015455D01*
X009575Y015435D01*
X009603Y015407D01*
X009623Y015373D01*
X009633Y015335D01*
X009633Y015050D01*
X009277Y015050D01*
X009277Y014956D02*
X009904Y014956D01*
X009806Y015055D02*
X009633Y015055D01*
X009633Y015153D02*
X009707Y015153D01*
X009682Y015252D02*
X009633Y015252D01*
X009629Y015350D02*
X009682Y015350D01*
X009682Y015449D02*
X009552Y015449D01*
X009277Y015449D02*
X009177Y015449D01*
X009177Y014858D02*
X009277Y014858D01*
X009277Y014759D02*
X009177Y014759D01*
X009177Y014661D02*
X009277Y014661D01*
X009277Y014562D02*
X009177Y014562D01*
X008884Y014562D02*
X008755Y014562D01*
X009283Y013676D02*
X009383Y013676D01*
X009383Y013577D02*
X009283Y013577D01*
X009283Y013479D02*
X009383Y013479D01*
X009777Y012297D02*
X009890Y012297D01*
X009890Y012198D02*
X009777Y012198D01*
X010748Y011903D02*
X010822Y011903D01*
X010846Y011804D02*
X011244Y011804D01*
X011244Y011903D02*
X011342Y011903D01*
X011305Y012001D02*
X011441Y012001D01*
X008232Y016138D02*
X007605Y016138D01*
X007605Y016237D02*
X008232Y016237D01*
X008232Y016335D02*
X007605Y016335D01*
X007591Y016434D02*
X008232Y016434D01*
X008232Y016532D02*
X007568Y016532D01*
X007605Y016631D02*
X008232Y016631D01*
X008232Y016729D02*
X007605Y016729D01*
X006423Y013720D02*
X006333Y013630D01*
X013693Y019697D02*
X013983Y019406D01*
X014248Y019290D02*
X017224Y019290D01*
X017322Y019192D02*
X014177Y019192D01*
X014272Y019389D02*
X017125Y019389D01*
X017044Y019487D02*
X014262Y019487D01*
X014212Y019586D02*
X017044Y019586D01*
X017044Y019684D02*
X014703Y019684D01*
X014802Y019783D02*
X017044Y019783D01*
X017044Y019881D02*
X014900Y019881D01*
X014945Y019980D02*
X017044Y019980D01*
X017044Y020078D02*
X014945Y020078D01*
X014945Y020177D02*
X017044Y020177D01*
X017044Y020275D02*
X014945Y020275D01*
X014945Y020374D02*
X017044Y020374D01*
X017044Y020472D02*
X014945Y020472D01*
X014945Y020571D02*
X017044Y020571D01*
X017044Y020669D02*
X014945Y020669D01*
X014945Y020768D02*
X016936Y020768D01*
X016794Y020866D02*
X014945Y020866D01*
X014887Y021126D02*
X014766Y021155D01*
X014766Y020000D01*
X014546Y019780D01*
X014310Y020882D02*
X013526Y021665D01*
X012711Y021665D01*
X013135Y021851D02*
X013481Y021851D01*
X013383Y021950D02*
X013126Y021950D01*
X013027Y022048D02*
X013320Y022048D01*
X013499Y022087D02*
X013601Y021984D01*
X013798Y021984D01*
X013892Y022079D01*
X014766Y021155D01*
X014887Y021126D02*
X016733Y021126D01*
X017223Y020786D01*
X017202Y021018D02*
X016848Y021263D01*
X016807Y021304D01*
X016789Y021304D01*
X016774Y021315D01*
X016717Y021304D01*
X016546Y021304D01*
X016578Y021336D01*
X016622Y021443D01*
X016622Y021557D01*
X016578Y021664D01*
X016497Y021745D01*
X016391Y021789D01*
X016297Y021789D01*
X016236Y021850D01*
X016236Y022226D01*
X016332Y022226D01*
X016353Y022246D01*
X016374Y022226D01*
X016529Y022226D01*
X016550Y022246D01*
X016571Y022226D01*
X016726Y022226D01*
X016747Y022246D01*
X016767Y022226D01*
X016923Y022226D01*
X016944Y022246D01*
X016964Y022226D01*
X017120Y022226D01*
X017129Y022235D01*
X017158Y022219D01*
X017211Y022204D01*
X017239Y022204D01*
X017257Y022204D01*
X017257Y021072D01*
X017202Y021018D01*
X017248Y021063D02*
X017137Y021063D01*
X017257Y021162D02*
X016995Y021162D01*
X016853Y021260D02*
X017257Y021260D01*
X017257Y021359D02*
X016587Y021359D01*
X016622Y021457D02*
X017257Y021457D01*
X017257Y021556D02*
X016622Y021556D01*
X016582Y021654D02*
X017257Y021654D01*
X017257Y021753D02*
X016478Y021753D01*
X016236Y021851D02*
X017257Y021851D01*
X017257Y021950D02*
X016236Y021950D01*
X016236Y022048D02*
X017257Y022048D01*
X017257Y022147D02*
X016236Y022147D01*
X016352Y022245D02*
X016354Y022245D01*
X016549Y022245D02*
X016551Y022245D01*
X016746Y022245D02*
X016748Y022245D01*
X016942Y022245D02*
X016945Y022245D01*
X017239Y022245D02*
X017239Y022245D01*
X017239Y022204D02*
X017239Y022650D01*
X017239Y022650D01*
X017239Y022204D01*
X017239Y022344D02*
X017239Y022344D01*
X017239Y022442D02*
X017239Y022442D01*
X017239Y022541D02*
X017239Y022541D01*
X017239Y022639D02*
X017239Y022639D01*
X017239Y022738D02*
X017239Y022738D01*
X017239Y022836D02*
X017239Y022836D01*
X017239Y022935D02*
X017239Y022935D01*
X017239Y023033D02*
X017239Y023033D01*
X017257Y023132D02*
X014465Y023132D01*
X014107Y023132D02*
X009222Y023132D01*
X009222Y023230D02*
X014107Y023230D01*
X014107Y023329D02*
X009222Y023329D01*
X009222Y023427D02*
X014107Y023427D01*
X014107Y023526D02*
X009222Y023526D01*
X009222Y023624D02*
X014107Y023624D01*
X014286Y024117D02*
X014286Y022650D01*
X014089Y022650D02*
X014089Y022244D01*
X014433Y021900D01*
X014731Y021900D01*
X014751Y021930D01*
X013892Y022079D02*
X013892Y022650D01*
X013696Y022650D02*
X013696Y022204D01*
X013714Y022204D01*
X013714Y022163D01*
X013677Y022163D01*
X013677Y022204D01*
X013696Y022204D01*
X013696Y022650D01*
X013696Y022650D01*
X013696Y022639D02*
X013696Y022639D01*
X013696Y022541D02*
X013696Y022541D01*
X013696Y022442D02*
X013696Y022442D01*
X013696Y022344D02*
X013696Y022344D01*
X013696Y022245D02*
X013696Y022245D01*
X013499Y022087D02*
X013499Y022650D01*
X013311Y022738D02*
X012176Y022738D01*
X012174Y022836D02*
X013311Y022836D01*
X013311Y022935D02*
X012133Y022935D01*
X012040Y023033D02*
X013380Y023033D01*
X013696Y023033D02*
X013696Y023033D01*
X013696Y022935D02*
X013696Y022935D01*
X013696Y022836D02*
X013696Y022836D01*
X013696Y022738D02*
X013696Y022738D01*
X014286Y024117D02*
X014295Y024126D01*
X015195Y023230D02*
X017063Y023230D01*
X016058Y022650D02*
X016058Y021776D01*
X016333Y021500D01*
X017774Y020331D02*
X018408Y019697D01*
X019010Y019697D01*
X018930Y019697D01*
X019010Y019500D02*
X017975Y019500D01*
X017774Y019701D01*
X018181Y020177D02*
X018595Y020177D01*
X018586Y020275D02*
X018083Y020275D01*
X018081Y020374D02*
X018595Y020374D01*
X018586Y020472D02*
X018048Y020472D01*
X017968Y020571D02*
X018595Y020571D01*
X018586Y020078D02*
X018280Y020078D01*
X018378Y019980D02*
X018595Y019980D01*
X018586Y019881D02*
X018477Y019881D01*
X017519Y018995D02*
X017332Y018995D01*
X017421Y019093D02*
X017241Y019093D01*
X017066Y018835D02*
X017066Y017654D01*
X017223Y017496D01*
X017735Y017419D02*
X018593Y017419D01*
X020032Y019290D02*
X020223Y019290D01*
X021515Y017911D02*
X022155Y017911D01*
X022155Y017813D02*
X021413Y017813D01*
X021311Y017714D02*
X022155Y017714D01*
X022155Y017616D02*
X021209Y017616D01*
X021108Y017517D02*
X022155Y017517D01*
X022155Y017419D02*
X021012Y017419D01*
X021012Y017320D02*
X022155Y017320D01*
X022155Y017222D02*
X021012Y017222D01*
X021012Y017123D02*
X022155Y017123D01*
X022155Y017025D02*
X021012Y017025D01*
X021012Y016926D02*
X022155Y016926D01*
X022155Y016828D02*
X021012Y016828D01*
X021212Y016729D02*
X021234Y016729D01*
X021547Y016729D02*
X021647Y016729D01*
X021647Y016631D02*
X021547Y016631D01*
X021547Y016532D02*
X021647Y016532D01*
X021647Y016434D02*
X022155Y016434D01*
X022155Y016532D02*
X021983Y016532D01*
X021983Y016631D02*
X022155Y016631D01*
X022155Y016729D02*
X021961Y016729D01*
X021983Y016335D02*
X022155Y016335D01*
X022155Y016237D02*
X021983Y016237D01*
X021978Y016138D02*
X022155Y016138D01*
X022155Y016040D02*
X021895Y016040D01*
X021897Y015941D02*
X022155Y015941D01*
X022155Y015843D02*
X021962Y015843D01*
X021962Y015744D02*
X022155Y015744D01*
X022155Y015646D02*
X021962Y015646D01*
X021962Y015547D02*
X022155Y015547D01*
X022155Y015449D02*
X021962Y015449D01*
X021962Y015350D02*
X022155Y015350D01*
X022155Y015252D02*
X021917Y015252D01*
X021597Y015587D02*
X020873Y015587D01*
X020833Y015626D01*
X021192Y015252D02*
X021278Y015252D01*
X021252Y015941D02*
X021297Y015941D01*
X021299Y016040D02*
X021232Y016040D01*
X021547Y016040D02*
X021647Y016040D01*
X021647Y016138D02*
X021547Y016138D01*
X021547Y016237D02*
X021647Y016237D01*
X021647Y016335D02*
X021547Y016335D01*
X022762Y016335D02*
X022763Y016335D01*
X022155Y018010D02*
X021616Y018010D01*
X021718Y018108D02*
X022155Y018108D01*
X022833Y014278D02*
X022833Y013500D01*
X022683Y013150D02*
X019433Y013150D01*
X019283Y013400D01*
X022683Y013150D02*
X023247Y012587D01*
X027701Y011115D02*
X028003Y011115D01*
X028003Y011213D02*
X027799Y011213D01*
X027898Y011312D02*
X028003Y011312D01*
X027996Y011410D02*
X028003Y011410D01*
X028003Y010031D02*
X027670Y010031D01*
X027692Y009933D02*
X028003Y009933D01*
X028003Y009834D02*
X027692Y009834D01*
X027692Y009736D02*
X028003Y009736D01*
X027933Y023650D02*
X027183Y024500D01*
X020223Y025693D02*
X018253Y025693D01*
X018233Y025673D02*
X018342Y025781D01*
X018401Y025923D01*
X018401Y026077D01*
X018342Y026219D01*
X018233Y026327D01*
X018091Y026386D01*
X017938Y026386D01*
X017796Y026327D01*
X017687Y026219D01*
X017628Y026077D01*
X017628Y025923D01*
X017687Y025781D01*
X017796Y025673D01*
X017938Y025614D01*
X018091Y025614D01*
X018233Y025673D01*
X018346Y025791D02*
X020223Y025791D01*
X020223Y025890D02*
X018387Y025890D01*
X018401Y025988D02*
X020223Y025988D01*
X020223Y026087D02*
X018397Y026087D01*
X018356Y026185D02*
X020223Y026185D01*
X020223Y026284D02*
X018277Y026284D01*
X018101Y026382D02*
X020223Y026382D01*
X020223Y027466D02*
X005483Y027466D01*
X005483Y027564D02*
X020223Y027564D01*
X020223Y027663D02*
X005483Y027663D01*
X005483Y027761D02*
X020223Y027761D01*
X020223Y027860D02*
X005483Y027860D01*
X005483Y027958D02*
X020223Y027958D01*
X020223Y028057D02*
X005483Y028057D01*
X005483Y028155D02*
X020223Y028155D01*
X020223Y028254D02*
X005483Y028254D01*
X005483Y028352D02*
X020223Y028352D01*
X020223Y028451D02*
X005483Y028451D01*
X005483Y028549D02*
X020223Y028549D01*
X020223Y028648D02*
X005483Y028648D01*
X005483Y028746D02*
X020223Y028746D01*
X020223Y028845D02*
X005489Y028845D01*
X005512Y028943D02*
X020223Y028943D01*
X020223Y029042D02*
X005553Y029042D01*
X005617Y029140D02*
X020223Y029140D01*
X020223Y029239D02*
X005716Y029239D01*
X005946Y029337D02*
X020223Y029337D01*
X017928Y026382D02*
X017314Y026382D01*
X017304Y026386D02*
X017150Y026386D01*
X017008Y026327D01*
X016900Y026219D01*
X016841Y026077D01*
X016841Y025923D01*
X016900Y025781D01*
X017008Y025673D01*
X017150Y025614D01*
X017304Y025614D01*
X017446Y025673D01*
X017554Y025781D01*
X017613Y025923D01*
X017613Y026077D01*
X017554Y026219D01*
X017446Y026327D01*
X017304Y026386D01*
X017140Y026382D02*
X016527Y026382D01*
X016702Y026284D02*
X016964Y026284D01*
X016886Y026185D02*
X016781Y026185D01*
X016822Y026087D02*
X016845Y026087D01*
X016841Y025988D02*
X016826Y025988D01*
X016812Y025890D02*
X016855Y025890D01*
X016896Y025791D02*
X016771Y025791D01*
X016678Y025693D02*
X016988Y025693D01*
X017466Y025693D02*
X017776Y025693D01*
X017683Y025791D02*
X017559Y025791D01*
X017599Y025890D02*
X017642Y025890D01*
X017628Y025988D02*
X017613Y025988D01*
X017609Y026087D02*
X017632Y026087D01*
X017673Y026185D02*
X017568Y026185D01*
X017490Y026284D02*
X017752Y026284D01*
X015681Y025890D02*
X015623Y025890D01*
X015623Y025791D02*
X015681Y025791D01*
X015681Y025693D02*
X015623Y025693D01*
X015623Y025594D02*
X015681Y025594D01*
X015369Y025594D02*
X013693Y025594D01*
X013807Y025693D02*
X015253Y025693D01*
X015245Y025791D02*
X013887Y025791D01*
X013928Y025890D02*
X015245Y025890D01*
X012852Y026382D02*
X012814Y026382D01*
X012640Y026382D02*
X012027Y026382D01*
X011853Y026382D02*
X011494Y026382D01*
X011558Y026284D02*
X011677Y026284D01*
X011598Y026185D02*
X011560Y026185D01*
X011560Y025890D02*
X011567Y025890D01*
X011560Y025791D02*
X011608Y025791D01*
X011552Y025693D02*
X011701Y025693D01*
X011181Y026087D02*
X011123Y026087D01*
X011123Y026185D02*
X011181Y026185D01*
X011181Y026284D02*
X011123Y026284D01*
X011123Y026382D02*
X011181Y026382D01*
X012202Y026284D02*
X012464Y026284D01*
X012386Y026185D02*
X012281Y026185D01*
X012322Y026087D02*
X012345Y026087D01*
X012341Y025988D02*
X012326Y025988D01*
X012312Y025890D02*
X012355Y025890D01*
X012396Y025791D02*
X012271Y025791D01*
X012178Y025693D02*
X012488Y025693D01*
X011698Y023033D02*
X009222Y023033D01*
X009222Y022935D02*
X011604Y022935D01*
X011563Y022836D02*
X009222Y022836D01*
X009222Y022738D02*
X011562Y022738D01*
X011592Y022639D02*
X009222Y022639D01*
X008807Y022344D02*
X007562Y022344D01*
X007661Y022245D02*
X008807Y022245D01*
X008807Y022147D02*
X007686Y022147D01*
X006849Y022442D02*
X006257Y022442D01*
X006257Y022344D02*
X006750Y022344D01*
X006652Y022245D02*
X006257Y022245D01*
X006257Y022147D02*
X006626Y022147D01*
X006428Y023723D02*
X006257Y023723D01*
X006257Y023821D02*
X006329Y023821D01*
X006261Y023920D02*
X006257Y023920D01*
X006257Y024609D02*
X006287Y024609D01*
X006257Y024708D02*
X006385Y024708D01*
X006510Y024806D02*
X006257Y024806D01*
X007678Y025693D02*
X007988Y025693D01*
X007896Y025791D02*
X007771Y025791D01*
X007812Y025890D02*
X007855Y025890D01*
X007841Y025988D02*
X007826Y025988D01*
X007822Y026087D02*
X007845Y026087D01*
X007886Y026185D02*
X007781Y026185D01*
X007702Y026284D02*
X007964Y026284D01*
X006186Y027367D02*
X005483Y027367D01*
X005483Y027269D02*
X005959Y027269D01*
X005823Y027170D02*
X005483Y027170D01*
X005483Y027072D02*
X005708Y027072D01*
X005731Y027103D02*
X005731Y027103D01*
X005636Y026973D02*
X005483Y026973D01*
X005483Y026875D02*
X005565Y026875D01*
X005508Y026776D02*
X005483Y026776D01*
D36*
X009218Y016868D03*
X011063Y014257D03*
X006533Y015000D03*
X017733Y015650D03*
D37*
X018583Y015671D03*
X019833Y016400D03*
X022333Y014150D03*
X022833Y013500D03*
X020333Y012150D03*
X019833Y011800D03*
X018883Y011000D03*
X019333Y010000D03*
X017783Y009800D03*
X017583Y007900D03*
X015583Y007850D03*
X014333Y010850D03*
X013333Y011200D03*
X012183Y011250D03*
X011033Y012100D03*
X012155Y015621D03*
X012833Y015700D03*
X013782Y015551D03*
X016883Y017100D03*
X013983Y019406D03*
X014333Y020163D03*
X016333Y021500D03*
X019833Y019500D03*
X019283Y013400D03*
X015833Y012000D03*
X023833Y010000D03*
X024133Y010850D03*
X027333Y008800D03*
X024833Y006800D03*
X026583Y017550D03*
X027333Y018500D03*
D38*
X027183Y024500D02*
X027183Y025500D01*
D39*
X019073Y023165D03*
X017774Y020331D03*
X017774Y019701D03*
X017066Y018835D03*
X016514Y017969D03*
X017538Y017181D03*
X014310Y020882D03*
X014751Y021930D03*
X011869Y022772D03*
X009743Y018520D03*
X011554Y016551D03*
X013729Y012304D03*
X011672Y010685D03*
X010924Y009386D03*
D40*
X008967Y010028D02*
X008967Y010921D01*
X008967Y010028D02*
X008302Y009362D01*
X006033Y009362D01*
X006081Y009315D01*
X006033Y009362D02*
X006033Y012850D01*
X006423Y013240D01*
X006423Y013720D01*
X006423Y014035D01*
X005833Y014625D01*
X005833Y026293D01*
X005835Y026343D01*
X005840Y026394D01*
X005849Y026443D01*
X005862Y026492D01*
X005878Y026540D01*
X005897Y026587D01*
X005919Y026632D01*
X005945Y026675D01*
X005974Y026717D01*
X006006Y026756D01*
X006040Y026793D01*
X006077Y026827D01*
X006116Y026859D01*
X006158Y026888D01*
X006201Y026914D01*
X006246Y026936D01*
X006293Y026955D01*
X006341Y026971D01*
X006390Y026984D01*
X006439Y026993D01*
X006490Y026998D01*
X006540Y027000D01*
X012833Y027000D01*
X013514Y026319D01*
X013514Y026000D01*
D41*
X009014Y026000D02*
X009014Y019469D01*
X008440Y018894D01*
X008440Y017894D01*
X007583Y018750D01*
X008440Y017894D02*
X008440Y016000D01*
X008440Y015000D01*
X007633Y015000D01*
X007333Y014700D01*
X007333Y013720D01*
X007333Y012496D01*
X008286Y012496D01*
X008877Y011906D01*
X010451Y011906D01*
X010845Y011512D01*
X011245Y011512D01*
X011633Y011900D01*
X014851Y011894D01*
X015077Y011894D01*
X007333Y012496D02*
X007333Y011280D01*
X006936Y010882D01*
X006936Y010287D01*
D42*
X015077Y011894D02*
X016309Y013126D01*
X016333Y013126D02*
X016333Y012500D01*
X017333Y011500D01*
D43*
X021672Y019583D03*
X021672Y020370D03*
X022262Y020567D03*
X021672Y021157D03*
X021672Y021945D03*
X022262Y022142D03*
X021672Y022732D03*
X022656Y022929D03*
X023247Y022339D03*
X023444Y023323D03*
X023050Y023717D03*
X023640Y023913D03*
X023640Y024701D03*
X023050Y024898D03*
X023444Y025291D03*
X022656Y025685D03*
X023247Y026276D03*
X022262Y026472D03*
X021672Y026669D03*
X021672Y025882D03*
X021540Y024751D03*
X021522Y023882D03*
X022853Y021354D03*
X023247Y020370D03*
X022656Y019780D03*
X024231Y019976D03*
X025215Y020370D03*
X025609Y021354D03*
X025215Y022339D03*
X025806Y022929D03*
X025018Y023323D03*
X025215Y023913D03*
X024428Y023913D03*
X024428Y024701D03*
X025215Y024701D03*
X025018Y025291D03*
X025806Y025685D03*
X025215Y026276D03*
X025609Y027260D03*
X025215Y028244D03*
X026003Y029031D03*
X024231Y028638D03*
X023247Y028244D03*
X022656Y028835D03*
X022262Y028047D03*
X021672Y028244D03*
X021672Y027457D03*
X022853Y027260D03*
X024231Y025882D03*
X026003Y024701D03*
X026003Y023913D03*
X024231Y022732D03*
X026003Y019583D03*
X021672Y029031D03*
X015101Y023480D03*
M02*
