%
M48
M72
T01C0.0157
T02C0.0197
T03C0.0200
T04C0.0236
T05C0.0315
T06C0.0400
T07C0.0748
T08C0.1000
T09C0.1772
%
T01
X15101Y23480
X24231Y22732
X22853Y21354
X24231Y19976
X25609Y21354
X25215Y22339
X23247Y22339
X23247Y20370
X25215Y20370
X22853Y27260
X25609Y27260
X24231Y28638
X24231Y25882
X23247Y26276
X23247Y28244
X25215Y26276
X25215Y28244
X26003Y23913
X26003Y19583
X21672Y19583
X26003Y24701
X26003Y29031
X21672Y29031
X25215Y23913
X24428Y23913
X23640Y23913
X21672Y20370
X21672Y21157
X21672Y21945
X21672Y22732
X21522Y23882
X21672Y28244
X21672Y27457
X21672Y26669
X21672Y25882
X25215Y24701
X24428Y24701
X23640Y24701
X21540Y24751
X22262Y22142
X23444Y23323
X22656Y22929
X22262Y26472
X22656Y25685
X23444Y25291
X25018Y23323
X25806Y22929
X25018Y25291
X25806Y25685
X22262Y20567
X22656Y19780
X22262Y28047
X22656Y28835
X23050Y24898
X23050Y23717
T02
X9218Y16868
X6533Y15000
X11063Y14257
X17733Y15650
T03
X24833Y6800
X27333Y8800
X24133Y10850
X27333Y18500
X19833Y16400
X19833Y11800
X16883Y17100
X18883Y11000
X17783Y9800
X22833Y13500
X15833Y12000
X22333Y14150
X23833Y10000
X19333Y10000
X13782Y15551
X26583Y17550
X20333Y12150
X13333Y11200
X17583Y7900
X14333Y10850
X15583Y7850
X12833Y15700
X12155Y15621
X14333Y20163
X12183Y11250
X11033Y12100
X19283Y13400
X18583Y15671
X13983Y19406
X16333Y21500
X19833Y19500
T04
X16514Y17969
X11554Y16551
X9743Y18520
X19073Y23165
X14310Y20882
X17774Y20331
X17774Y19701
X10924Y9386
X11672Y10685
X13729Y12304
X14751Y21930
X11869Y22772
X17538Y17181
X17066Y18835
T05
X13948Y9008
X13318Y9008
X12688Y9008
X13633Y8535
X13003Y8535
X6652Y26000
X7440Y26000
X8227Y26000
X9014Y26000
X11152Y26000
X11940Y26000
X12727Y26000
X13514Y26000
X15652Y26000
X16440Y26000
X17227Y26000
X18014Y26000
T06
X11093Y22000
X7156Y22000
X24233Y16100
X23233Y16100
X24233Y17100
X23233Y17100
X24233Y18100
X23233Y18100
X27183Y21500
X27183Y22500
X27183Y23500
X27183Y24500
X27183Y25500
X9967Y10921
X8967Y10921
T07
X11881Y7000
X14755Y7000
T08
X6833Y24236
X26683Y7150
X27312Y28417
X6833Y7500
T09
X24231Y27260
X24231Y21354
M30
