G75*
%MOIN*%
%OFA0B0*%
%FSLAX24Y24*%
%IPPOS*%
%LPD*%
%AMOC8*
5,1,8,0,0,1.08239X$1,22.5*
%
%ADD10C,0.0100*%
%ADD11OC8,0.0760*%
%ADD12OC8,0.0740*%
%ADD13C,0.0515*%
%ADD14C,0.1122*%
%ADD15R,0.0177X0.0512*%
%ADD16R,0.0515X0.0515*%
%ADD17C,0.3543*%
%ADD18C,0.0740*%
%ADD19C,0.0600*%
%ADD20C,0.0160*%
%ADD21C,0.0317*%
%ADD22C,0.0320*%
%ADD23C,0.0356*%
%ADD24C,0.0157*%
%ADD25C,0.0277*%
D10*
X010924Y009386D02*
X011160Y009622D01*
X013050Y009622D01*
X013318Y009354D01*
X013318Y009008D01*
X012633Y010700D02*
X011687Y010700D01*
X011672Y010685D01*
X012183Y011250D02*
X011333Y012100D01*
X011033Y012100D01*
X012164Y013500D02*
X013833Y013500D01*
X015333Y012000D01*
X015833Y012000D01*
X015783Y011200D02*
X017583Y009250D01*
X017583Y007900D01*
X018083Y009500D02*
X017783Y009800D01*
X018083Y009500D02*
X020483Y009500D01*
X021217Y010384D01*
X021217Y011193D01*
X021217Y011716D01*
X021533Y011900D01*
X022433Y012500D01*
X022433Y013250D01*
X022833Y013500D01*
X022333Y014150D02*
X023683Y014150D01*
X023833Y014000D01*
X023833Y010000D01*
X020983Y011171D02*
X020961Y011193D01*
X020983Y011171D02*
X020983Y011450D01*
X020833Y011800D01*
X019833Y011800D01*
X019833Y016400D01*
X018933Y016400D01*
X017365Y017969D01*
X016514Y017969D01*
X017223Y017496D02*
X015727Y017496D01*
X015533Y017690D01*
X015533Y024450D01*
X014983Y025000D01*
X012940Y025000D01*
X011940Y026000D01*
X012727Y026000D02*
X013227Y025500D01*
X014833Y025500D01*
X015833Y024500D01*
X015833Y020000D01*
X016999Y018835D01*
X017066Y018835D01*
X017533Y018850D02*
X026683Y018850D01*
X027333Y019500D01*
X027333Y020500D01*
X027833Y021000D01*
X027833Y022000D01*
X027333Y022500D01*
X027183Y022500D01*
X026233Y022541D02*
X021333Y022541D01*
X021333Y022639D02*
X026233Y022639D01*
X026233Y022738D02*
X021333Y022738D01*
X021333Y022836D02*
X026233Y022836D01*
X026233Y022935D02*
X021333Y022935D01*
X021333Y023033D02*
X026233Y023033D01*
X026233Y023132D02*
X021333Y023132D01*
X021333Y023230D02*
X026233Y023230D01*
X026233Y023329D02*
X021333Y023329D01*
X021333Y023427D02*
X026233Y023427D01*
X026233Y023526D02*
X021333Y023526D01*
X021333Y023624D02*
X026233Y023624D01*
X026233Y023723D02*
X021333Y023723D01*
X021333Y023821D02*
X026233Y023821D01*
X026233Y023920D02*
X021333Y023920D01*
X021333Y024018D02*
X026233Y024018D01*
X026233Y024117D02*
X021333Y024117D01*
X021333Y024150D02*
X021333Y019500D01*
X026233Y019500D01*
X026233Y024150D01*
X021333Y024150D01*
X021283Y024450D02*
X026233Y024450D01*
X026233Y029200D01*
X021283Y029200D01*
X021283Y024450D01*
X021283Y024511D02*
X026233Y024511D01*
X026233Y024609D02*
X021283Y024609D01*
X021283Y024708D02*
X026233Y024708D01*
X026233Y024806D02*
X021283Y024806D01*
X021283Y024905D02*
X026233Y024905D01*
X026233Y025003D02*
X021283Y025003D01*
X021283Y025102D02*
X026233Y025102D01*
X026233Y025200D02*
X021283Y025200D01*
X021283Y025299D02*
X026233Y025299D01*
X026233Y025397D02*
X021283Y025397D01*
X021283Y025496D02*
X026233Y025496D01*
X026233Y025594D02*
X021283Y025594D01*
X021283Y025693D02*
X026233Y025693D01*
X026233Y025791D02*
X021283Y025791D01*
X021283Y025890D02*
X026233Y025890D01*
X026233Y025988D02*
X021283Y025988D01*
X021283Y026087D02*
X026233Y026087D01*
X026233Y026185D02*
X021283Y026185D01*
X021283Y026284D02*
X026233Y026284D01*
X026233Y026382D02*
X021283Y026382D01*
X021283Y026481D02*
X026233Y026481D01*
X026233Y026579D02*
X021283Y026579D01*
X021283Y026678D02*
X026233Y026678D01*
X026233Y026776D02*
X021283Y026776D01*
X021283Y026875D02*
X026233Y026875D01*
X026233Y026973D02*
X021283Y026973D01*
X021283Y027072D02*
X026233Y027072D01*
X026233Y027170D02*
X021283Y027170D01*
X021283Y027269D02*
X026233Y027269D01*
X026233Y027367D02*
X021283Y027367D01*
X021283Y027466D02*
X026233Y027466D01*
X026233Y027564D02*
X021283Y027564D01*
X021283Y027663D02*
X026233Y027663D01*
X026233Y027761D02*
X021283Y027761D01*
X021283Y027860D02*
X026233Y027860D01*
X026233Y027958D02*
X021283Y027958D01*
X021283Y028057D02*
X026233Y028057D01*
X026233Y028155D02*
X021283Y028155D01*
X021283Y028254D02*
X026233Y028254D01*
X026233Y028352D02*
X021283Y028352D01*
X021283Y028451D02*
X026233Y028451D01*
X026233Y028549D02*
X021283Y028549D01*
X021283Y028648D02*
X026233Y028648D01*
X026233Y028746D02*
X021283Y028746D01*
X021283Y028845D02*
X026233Y028845D01*
X026233Y028943D02*
X021283Y028943D01*
X021283Y029042D02*
X026233Y029042D01*
X026233Y029140D02*
X021283Y029140D01*
X018014Y026000D02*
X019073Y024941D01*
X019073Y023165D01*
X018333Y023000D02*
X018247Y022913D01*
X018247Y020016D01*
X017932Y019701D01*
X017774Y019701D01*
X017774Y020331D02*
X017774Y022809D01*
X017583Y023000D01*
X017583Y024850D01*
X016440Y025994D01*
X016440Y026000D01*
X017227Y026000D02*
X018333Y024894D01*
X018333Y023000D01*
X016333Y021500D02*
X016333Y020500D01*
X017533Y018850D01*
X017223Y017496D02*
X017538Y017181D01*
X016883Y017100D02*
X016883Y013000D01*
X018883Y011000D01*
X019333Y010000D02*
X013782Y015551D01*
X012833Y015700D02*
X014833Y018000D01*
X014833Y020646D01*
X014597Y020882D01*
X014310Y020882D01*
X014333Y020163D02*
X014333Y018050D01*
X012155Y015621D01*
X011711Y016394D02*
X011711Y013953D01*
X012164Y013500D01*
X013527Y012304D02*
X013729Y012304D01*
X013527Y012304D02*
X012814Y011591D01*
X012814Y010880D01*
X012633Y010700D01*
X013333Y011200D02*
X015783Y011200D01*
X015133Y010850D02*
X015583Y010150D01*
X015583Y007850D01*
X015133Y010850D02*
X014333Y010850D01*
X019283Y013400D02*
X019283Y014971D01*
X018583Y015671D01*
X021217Y012807D02*
X021217Y012384D01*
X021083Y012250D01*
X020433Y012250D01*
X020333Y012150D01*
X024083Y015250D02*
X023233Y016100D01*
X024083Y015250D02*
X025083Y015250D01*
X025333Y015500D01*
X025333Y016500D01*
X026583Y017550D01*
X026233Y019100D02*
X026633Y019500D01*
X026633Y020950D01*
X027183Y021500D01*
X026233Y021457D02*
X021333Y021457D01*
X021333Y021359D02*
X026233Y021359D01*
X026233Y021260D02*
X021333Y021260D01*
X021333Y021162D02*
X026233Y021162D01*
X026233Y021063D02*
X021333Y021063D01*
X021333Y020965D02*
X026233Y020965D01*
X026233Y020866D02*
X021333Y020866D01*
X021333Y020768D02*
X026233Y020768D01*
X026233Y020669D02*
X021333Y020669D01*
X021333Y020571D02*
X026233Y020571D01*
X026233Y020472D02*
X021333Y020472D01*
X021333Y020374D02*
X026233Y020374D01*
X026233Y020275D02*
X021333Y020275D01*
X021333Y020177D02*
X026233Y020177D01*
X026233Y020078D02*
X021333Y020078D01*
X021333Y019980D02*
X026233Y019980D01*
X026233Y019881D02*
X021333Y019881D01*
X021333Y019783D02*
X026233Y019783D01*
X026233Y019684D02*
X021333Y019684D01*
X021333Y019586D02*
X026233Y019586D01*
X026233Y019100D02*
X020383Y019100D01*
X019833Y019500D01*
X021333Y021556D02*
X026233Y021556D01*
X026233Y021654D02*
X021333Y021654D01*
X021333Y021753D02*
X026233Y021753D01*
X026233Y021851D02*
X021333Y021851D01*
X021333Y021950D02*
X026233Y021950D01*
X026233Y022048D02*
X021333Y022048D01*
X021333Y022147D02*
X026233Y022147D01*
X026233Y022245D02*
X021333Y022245D01*
X021333Y022344D02*
X026233Y022344D01*
X026233Y022442D02*
X021333Y022442D01*
X015101Y023480D02*
X014751Y023131D01*
X014751Y021930D01*
X013983Y021700D02*
X013983Y019406D01*
X013983Y021700D02*
X013833Y022000D01*
X011283Y024400D01*
X009833Y024400D01*
X008833Y025400D01*
X008727Y025500D01*
X008227Y026000D01*
X008233Y025600D02*
X007833Y025606D01*
X007440Y026000D01*
X008233Y025600D02*
X008740Y025144D01*
X009758Y024125D01*
X010515Y024125D01*
X011869Y022772D01*
X011093Y022000D02*
X010231Y022000D01*
X009743Y021512D01*
X009743Y018520D01*
X011554Y016551D02*
X011711Y016394D01*
D11*
X011093Y022000D03*
X007156Y022000D03*
D12*
X023233Y018100D03*
X024233Y018100D03*
X024233Y017100D03*
X023233Y017100D03*
X023233Y016100D03*
X024233Y016100D03*
D13*
X013948Y009008D03*
X013633Y008535D03*
X013318Y009008D03*
X013003Y008535D03*
X012688Y009008D03*
X012727Y026000D03*
X011940Y026000D03*
X013514Y026000D03*
X016440Y026000D03*
X017227Y026000D03*
X018014Y026000D03*
X009014Y026000D03*
X008227Y026000D03*
X007440Y026000D03*
D14*
X011881Y007000D03*
X014755Y007000D03*
D15*
X020449Y011193D03*
X020705Y011193D03*
X020961Y011193D03*
X021217Y011193D03*
X021217Y012807D03*
X020961Y012807D03*
X020705Y012807D03*
X020449Y012807D03*
D16*
X015652Y026000D03*
X011152Y026000D03*
X006652Y026000D03*
D17*
X024231Y027260D03*
X024231Y021354D03*
D18*
X027183Y021500D03*
X027183Y022500D03*
X027183Y023500D03*
X027183Y024500D03*
X027183Y025500D03*
D19*
X009967Y011221D02*
X009967Y010621D01*
X008967Y010621D02*
X008967Y011221D01*
D20*
X005976Y005976D02*
X027838Y005976D01*
X027882Y006037D02*
X027729Y005825D01*
X027517Y005671D01*
X027378Y005626D01*
X022128Y005580D01*
X006949Y005580D01*
X006762Y005592D01*
X006400Y005689D01*
X006075Y005877D01*
X005810Y006142D01*
X005623Y006466D01*
X005526Y006828D01*
X005513Y007016D01*
X005513Y028792D01*
X005520Y028874D01*
X005570Y029030D01*
X005667Y029162D01*
X005800Y029259D01*
X005956Y029310D01*
X006038Y029316D01*
X020124Y029316D01*
X020171Y019490D01*
X020133Y019517D01*
X020133Y019560D01*
X020088Y019670D01*
X020003Y019754D01*
X019893Y019800D01*
X019774Y019800D01*
X019663Y019754D01*
X019579Y019670D01*
X019533Y019560D01*
X019533Y019440D01*
X019579Y019330D01*
X019663Y019246D01*
X019774Y019200D01*
X019893Y019200D01*
X019912Y019208D01*
X020143Y019040D01*
X017630Y019040D01*
X016523Y020562D01*
X016523Y021266D01*
X016588Y021330D01*
X016633Y021440D01*
X016633Y021560D01*
X016588Y021670D01*
X016503Y021754D01*
X016393Y021800D01*
X016274Y021800D01*
X016163Y021754D01*
X016079Y021670D01*
X016033Y021560D01*
X016033Y021440D01*
X016079Y021330D01*
X016143Y021266D01*
X016143Y020515D01*
X016133Y020452D01*
X016143Y020438D01*
X016143Y020421D01*
X016188Y020376D01*
X017078Y019153D01*
X017002Y019153D01*
X016965Y019137D01*
X016023Y020079D01*
X016023Y024579D01*
X015912Y024690D01*
X014912Y025690D01*
X013767Y025690D01*
X013851Y025775D01*
X013912Y025921D01*
X013912Y026079D01*
X013851Y026225D01*
X013740Y026337D01*
X013593Y026397D01*
X013435Y026397D01*
X013289Y026337D01*
X013177Y026225D01*
X013121Y026088D01*
X013064Y026225D01*
X012952Y026337D01*
X012806Y026397D01*
X012648Y026397D01*
X012502Y026337D01*
X012390Y026225D01*
X012333Y026088D01*
X012277Y026225D01*
X012165Y026337D01*
X012019Y026397D01*
X011861Y026397D01*
X011714Y026337D01*
X011603Y026225D01*
X011590Y026194D01*
X011590Y026281D01*
X011577Y026327D01*
X011554Y026368D01*
X011520Y026402D01*
X011479Y026425D01*
X011433Y026437D01*
X011152Y026437D01*
X010871Y026437D01*
X010825Y026425D01*
X010784Y026402D01*
X010751Y026368D01*
X010727Y026327D01*
X010715Y026281D01*
X010715Y026000D01*
X010715Y025719D01*
X010727Y025673D01*
X010751Y025632D01*
X010784Y025598D01*
X010825Y025575D01*
X010871Y025563D01*
X011152Y025563D01*
X011152Y026000D01*
X010715Y026000D01*
X011152Y026000D01*
X011152Y026000D01*
X011152Y026000D01*
X011152Y026437D01*
X011152Y026000D01*
X011152Y026000D01*
X011152Y025563D01*
X011433Y025563D01*
X011479Y025575D01*
X011520Y025598D01*
X011554Y025632D01*
X011577Y025673D01*
X011590Y025719D01*
X011590Y025806D01*
X011603Y025775D01*
X011714Y025663D01*
X011861Y025603D01*
X012019Y025603D01*
X012054Y025617D01*
X012750Y024921D01*
X012861Y024810D01*
X014905Y024810D01*
X015343Y024371D01*
X015343Y023623D01*
X015337Y023638D01*
X015259Y023717D01*
X015156Y023759D01*
X015045Y023759D01*
X014943Y023717D01*
X014864Y023638D01*
X014822Y023536D01*
X014822Y023470D01*
X014561Y023209D01*
X014561Y022190D01*
X014481Y022111D01*
X014433Y021994D01*
X014433Y021867D01*
X014481Y021750D01*
X014571Y021661D01*
X014688Y021612D01*
X014814Y021612D01*
X014931Y021661D01*
X015021Y021750D01*
X015069Y021867D01*
X015069Y021994D01*
X015021Y022111D01*
X014941Y022190D01*
X014941Y023052D01*
X015091Y023202D01*
X015156Y023202D01*
X015259Y023244D01*
X015337Y023322D01*
X015343Y023338D01*
X015343Y017611D01*
X015537Y017417D01*
X015648Y017306D01*
X016665Y017306D01*
X016629Y017270D01*
X016583Y017160D01*
X016583Y017040D01*
X016629Y016930D01*
X016693Y016866D01*
X016693Y012921D01*
X018583Y011031D01*
X018583Y011019D01*
X014082Y015520D01*
X014082Y015611D01*
X014036Y015721D01*
X013952Y015806D01*
X013842Y015851D01*
X013722Y015851D01*
X013612Y015806D01*
X013528Y015721D01*
X013482Y015611D01*
X013482Y015492D01*
X013528Y015381D01*
X013612Y015297D01*
X013722Y015251D01*
X013813Y015251D01*
X019033Y010031D01*
X019033Y009940D01*
X019079Y009830D01*
X019163Y009746D01*
X019274Y009700D01*
X019393Y009700D01*
X019503Y009746D01*
X019588Y009830D01*
X019633Y009940D01*
X019633Y010060D01*
X019588Y010170D01*
X019503Y010254D01*
X019393Y010300D01*
X019302Y010300D01*
X018902Y010700D01*
X018943Y010700D01*
X019053Y010746D01*
X019138Y010830D01*
X019183Y010940D01*
X019183Y011060D01*
X019138Y011170D01*
X019053Y011254D01*
X018943Y011300D01*
X018852Y011300D01*
X017073Y013079D01*
X017073Y016866D01*
X017138Y016930D01*
X017183Y017040D01*
X017183Y017160D01*
X017138Y017270D01*
X017102Y017306D01*
X017144Y017306D01*
X017220Y017231D01*
X017220Y017118D01*
X017268Y017001D01*
X017358Y016911D01*
X017475Y016863D01*
X017601Y016863D01*
X017718Y016911D01*
X017808Y017001D01*
X017856Y017118D01*
X017856Y017208D01*
X018743Y016321D01*
X018855Y016210D01*
X019599Y016210D01*
X019643Y016166D01*
X019643Y012034D01*
X019579Y011970D01*
X019533Y011860D01*
X019533Y011740D01*
X019579Y011630D01*
X019663Y011546D01*
X019774Y011500D01*
X019893Y011500D01*
X020003Y011546D01*
X020068Y011610D01*
X020280Y011610D01*
X020250Y011593D01*
X020217Y011559D01*
X020193Y011518D01*
X020181Y011473D01*
X020181Y011193D01*
X020449Y011193D01*
X020449Y011193D01*
X020181Y011193D01*
X020181Y010913D01*
X020193Y010868D01*
X020217Y010826D01*
X020250Y010793D01*
X020291Y010769D01*
X020337Y010757D01*
X020449Y010757D01*
X020449Y011193D01*
X020449Y011610D01*
X020449Y011610D01*
X020449Y011193D01*
X020449Y011193D01*
X020449Y011193D01*
X020449Y010757D01*
X020562Y010757D01*
X020608Y010769D01*
X020649Y010793D01*
X020653Y010797D01*
X021027Y010797D01*
X021027Y010452D01*
X020394Y009690D01*
X018162Y009690D01*
X018083Y009769D01*
X018083Y009860D01*
X018038Y009970D01*
X017953Y010054D01*
X017843Y010100D01*
X017724Y010100D01*
X017613Y010054D01*
X017529Y009970D01*
X017483Y009860D01*
X017483Y009740D01*
X017529Y009630D01*
X017613Y009546D01*
X017724Y009500D01*
X017815Y009500D01*
X018005Y009310D01*
X020415Y009310D01*
X020423Y009304D01*
X020492Y009310D01*
X020562Y009310D01*
X020569Y009317D01*
X020579Y009318D01*
X020624Y009372D01*
X020673Y009421D01*
X020673Y009431D01*
X021358Y010256D01*
X021407Y010305D01*
X021407Y010315D01*
X021414Y010323D01*
X021407Y010393D01*
X021407Y010840D01*
X021446Y010879D01*
X021446Y011507D01*
X021407Y011545D01*
X021407Y011607D01*
X021567Y011700D01*
X021573Y011698D01*
X021634Y011739D01*
X021697Y011775D01*
X021699Y011782D01*
X022491Y012310D01*
X022512Y012310D01*
X022554Y012352D01*
X022604Y012386D01*
X022608Y012406D01*
X022623Y012421D01*
X022623Y012481D01*
X022635Y012540D01*
X022623Y012558D01*
X022623Y013145D01*
X022736Y013215D01*
X022774Y013200D01*
X022893Y013200D01*
X023003Y013246D01*
X023088Y013330D01*
X023133Y013440D01*
X023133Y013560D01*
X023088Y013670D01*
X023003Y013754D01*
X022893Y013800D01*
X022774Y013800D01*
X022663Y013754D01*
X022579Y013670D01*
X022533Y013560D01*
X022533Y013537D01*
X022379Y013440D01*
X022355Y013440D01*
X022314Y013400D01*
X022266Y013369D01*
X022260Y013346D01*
X022243Y013329D01*
X022243Y013272D01*
X022231Y013216D01*
X022243Y013196D01*
X022243Y012602D01*
X021433Y012061D01*
X021166Y011906D01*
X021138Y011906D01*
X021100Y011868D01*
X021054Y011841D01*
X021047Y011814D01*
X021038Y011805D01*
X021023Y011839D01*
X021023Y011879D01*
X020994Y011908D01*
X020977Y011947D01*
X020940Y011962D01*
X020912Y011990D01*
X020870Y011990D01*
X020831Y012006D01*
X020794Y011990D01*
X020592Y011990D01*
X020621Y012060D01*
X021162Y012060D01*
X021273Y012171D01*
X021407Y012305D01*
X021407Y012455D01*
X021446Y012493D01*
X021446Y013121D01*
X021364Y013203D01*
X021164Y013203D01*
X021160Y013207D01*
X021119Y013231D01*
X021074Y013243D01*
X020961Y013243D01*
X020849Y013243D01*
X020833Y013239D01*
X020818Y013243D01*
X020705Y013243D01*
X020593Y013243D01*
X020577Y013239D01*
X020562Y013243D01*
X020449Y013243D01*
X020337Y013243D01*
X020291Y013231D01*
X020250Y013207D01*
X020217Y013174D01*
X020193Y013132D01*
X020181Y013087D01*
X020181Y012807D01*
X020181Y012527D01*
X020193Y012482D01*
X020217Y012441D01*
X020227Y012431D01*
X020163Y012404D01*
X020079Y012320D01*
X020033Y012210D01*
X020033Y012090D01*
X020075Y011990D01*
X020068Y011990D01*
X020023Y012034D01*
X020023Y016166D01*
X020088Y016230D01*
X020133Y016340D01*
X020133Y016460D01*
X020088Y016570D01*
X020003Y016654D01*
X019893Y016700D01*
X019774Y016700D01*
X019663Y016654D01*
X019599Y016590D01*
X019012Y016590D01*
X017444Y018159D01*
X016774Y018159D01*
X016695Y018238D01*
X016578Y018287D01*
X016451Y018287D01*
X016334Y018238D01*
X016245Y018149D01*
X016196Y018032D01*
X016196Y017905D01*
X016245Y017788D01*
X016334Y017699D01*
X016365Y017686D01*
X015806Y017686D01*
X015723Y017768D01*
X015723Y019841D01*
X016748Y018817D01*
X016748Y018771D01*
X016796Y018654D01*
X016885Y018565D01*
X017002Y018517D01*
X017129Y018517D01*
X017246Y018565D01*
X017335Y018654D01*
X017372Y018743D01*
X017388Y018726D01*
X017426Y018675D01*
X017443Y018672D01*
X017455Y018660D01*
X017518Y018660D01*
X017581Y018650D01*
X017595Y018660D01*
X026762Y018660D01*
X026957Y018855D01*
X027973Y018851D01*
X027973Y006416D01*
X027963Y006285D01*
X027882Y006037D01*
X027914Y006134D02*
X005818Y006134D01*
X005723Y006293D02*
X027964Y006293D01*
X027973Y006451D02*
X015197Y006451D01*
X015152Y006406D02*
X015349Y006603D01*
X015456Y006861D01*
X015456Y007139D01*
X015349Y007397D01*
X015152Y007594D01*
X014894Y007701D01*
X014615Y007701D01*
X014357Y007594D01*
X014160Y007397D01*
X014054Y007139D01*
X014054Y006861D01*
X014160Y006603D01*
X014357Y006406D01*
X014615Y006299D01*
X014894Y006299D01*
X015152Y006406D01*
X015352Y006610D02*
X026262Y006610D01*
X026298Y006574D02*
X026548Y006470D01*
X026819Y006470D01*
X027069Y006574D01*
X027260Y006765D01*
X027363Y007015D01*
X027363Y007285D01*
X027260Y007535D01*
X027069Y007726D01*
X026819Y007830D01*
X026548Y007830D01*
X026298Y007726D01*
X026107Y007535D01*
X026003Y007285D01*
X026003Y007015D01*
X026107Y006765D01*
X026298Y006574D01*
X026106Y006768D02*
X015417Y006768D01*
X015456Y006927D02*
X026040Y006927D01*
X026003Y007085D02*
X015456Y007085D01*
X015413Y007244D02*
X026003Y007244D01*
X026052Y007402D02*
X015344Y007402D01*
X015413Y007596D02*
X015524Y007550D01*
X015643Y007550D01*
X015753Y007596D01*
X015838Y007680D01*
X015883Y007790D01*
X015883Y007910D01*
X015838Y008020D01*
X015773Y008084D01*
X015773Y010130D01*
X015786Y010187D01*
X015773Y010206D01*
X015773Y010229D01*
X015732Y010270D01*
X015323Y010906D01*
X015323Y010929D01*
X015282Y010970D01*
X015256Y011010D01*
X015700Y011010D01*
X017393Y009176D01*
X017393Y008134D01*
X017329Y008070D01*
X017283Y007960D01*
X017283Y007840D01*
X017329Y007730D01*
X017413Y007646D01*
X017524Y007600D01*
X017643Y007600D01*
X017753Y007646D01*
X017838Y007730D01*
X017883Y007840D01*
X017883Y007960D01*
X017838Y008070D01*
X017773Y008134D01*
X017773Y009246D01*
X017776Y009321D01*
X017773Y009324D01*
X017773Y009329D01*
X017720Y009382D01*
X015973Y011274D01*
X015973Y011279D01*
X015920Y011332D01*
X015870Y011387D01*
X015865Y011387D01*
X015862Y011390D01*
X015787Y011390D01*
X015712Y011393D01*
X015709Y011390D01*
X013568Y011390D01*
X013503Y011454D01*
X013393Y011500D01*
X013274Y011500D01*
X013163Y011454D01*
X013079Y011370D01*
X013033Y011260D01*
X013033Y011140D01*
X013079Y011030D01*
X013163Y010946D01*
X013274Y010900D01*
X013393Y010900D01*
X013503Y010946D01*
X013568Y011010D01*
X014075Y011010D01*
X014033Y010910D01*
X014033Y010790D01*
X014079Y010680D01*
X014163Y010596D01*
X014274Y010550D01*
X014393Y010550D01*
X014503Y010596D01*
X014568Y010660D01*
X015030Y010660D01*
X015393Y010094D01*
X015393Y008084D01*
X015329Y008020D01*
X015283Y007910D01*
X015283Y007790D01*
X015329Y007680D01*
X015413Y007596D01*
X015498Y007561D02*
X015185Y007561D01*
X015313Y007719D02*
X007479Y007719D01*
X007513Y007635D02*
X007410Y007885D01*
X007219Y008076D01*
X006969Y008180D01*
X006698Y008180D01*
X006448Y008076D01*
X006257Y007885D01*
X006153Y007635D01*
X006153Y007365D01*
X006257Y007115D01*
X006448Y006924D01*
X006698Y006820D01*
X006969Y006820D01*
X007219Y006924D01*
X007410Y007115D01*
X007513Y007365D01*
X007513Y007635D01*
X007513Y007561D02*
X011450Y007561D01*
X011483Y007594D02*
X011286Y007397D01*
X011180Y007139D01*
X011180Y006861D01*
X011286Y006603D01*
X011483Y006406D01*
X011741Y006299D01*
X012020Y006299D01*
X012278Y006406D01*
X012475Y006603D01*
X012582Y006861D01*
X012582Y007139D01*
X012475Y007397D01*
X012278Y007594D01*
X012020Y007701D01*
X011741Y007701D01*
X011483Y007594D01*
X011291Y007402D02*
X007513Y007402D01*
X007463Y007244D02*
X011223Y007244D01*
X011180Y007085D02*
X007380Y007085D01*
X007221Y006927D02*
X011180Y006927D01*
X011218Y006768D02*
X005542Y006768D01*
X005519Y006927D02*
X006445Y006927D01*
X006287Y007085D02*
X005513Y007085D01*
X005513Y007244D02*
X006204Y007244D01*
X006153Y007402D02*
X005513Y007402D01*
X005513Y007561D02*
X006153Y007561D01*
X006188Y007719D02*
X005513Y007719D01*
X005513Y007878D02*
X006254Y007878D01*
X006408Y008036D02*
X005513Y008036D01*
X005513Y008195D02*
X012787Y008195D01*
X012777Y008198D02*
X012924Y008138D01*
X013082Y008138D01*
X013228Y008198D01*
X013318Y008288D01*
X013407Y008198D01*
X013553Y008138D01*
X013712Y008138D01*
X013858Y008198D01*
X013970Y008310D01*
X014030Y008456D01*
X014030Y008612D01*
X014173Y008671D01*
X014284Y008783D01*
X014345Y008929D01*
X014345Y009087D01*
X014284Y009233D01*
X014173Y009345D01*
X014027Y009405D01*
X013868Y009405D01*
X013722Y009345D01*
X013633Y009255D01*
X013543Y009345D01*
X013508Y009359D01*
X013508Y009433D01*
X013396Y009544D01*
X013129Y009812D01*
X011081Y009812D01*
X010973Y009704D01*
X010861Y009704D01*
X010744Y009656D01*
X010654Y009566D01*
X010606Y009449D01*
X010606Y009323D01*
X010654Y009206D01*
X010744Y009116D01*
X010861Y009068D01*
X010987Y009068D01*
X011104Y009116D01*
X011194Y009206D01*
X011242Y009323D01*
X011242Y009432D01*
X012577Y009432D01*
X012520Y009413D01*
X012458Y009382D01*
X012403Y009342D01*
X012354Y009293D01*
X012313Y009237D01*
X012282Y009176D01*
X012261Y009110D01*
X012250Y009042D01*
X012250Y009008D01*
X012688Y009008D01*
X012688Y009008D01*
X012250Y009008D01*
X012250Y008973D01*
X012261Y008905D01*
X012282Y008840D01*
X012313Y008779D01*
X012354Y008723D01*
X012403Y008674D01*
X012458Y008634D01*
X012520Y008602D01*
X012585Y008581D01*
X012605Y008578D01*
X012605Y008456D01*
X012666Y008310D01*
X012777Y008198D01*
X012648Y008353D02*
X005513Y008353D01*
X005513Y008512D02*
X012605Y008512D01*
X012408Y008670D02*
X005513Y008670D01*
X005513Y008829D02*
X012288Y008829D01*
X012250Y008987D02*
X005513Y008987D01*
X005513Y009146D02*
X010714Y009146D01*
X010613Y009304D02*
X005513Y009304D01*
X005513Y009463D02*
X010611Y009463D01*
X010709Y009621D02*
X005513Y009621D01*
X005513Y009780D02*
X011049Y009780D01*
X011234Y009304D02*
X012365Y009304D01*
X012272Y009146D02*
X011133Y009146D01*
X010280Y010255D02*
X010333Y010309D01*
X010378Y010370D01*
X010412Y010437D01*
X010435Y010509D01*
X010447Y010583D01*
X010447Y010901D01*
X009987Y010901D01*
X009987Y010141D01*
X010005Y010141D01*
X010080Y010153D01*
X010151Y010176D01*
X010219Y010211D01*
X010280Y010255D01*
X015290Y010255D01*
X015392Y010097D02*
X005513Y010097D01*
X005513Y010255D02*
X008711Y010255D01*
X008718Y010248D02*
X008880Y010181D01*
X009055Y010181D01*
X009216Y010248D01*
X009340Y010372D01*
X009407Y010534D01*
X009407Y011309D01*
X009340Y011470D01*
X009216Y011594D01*
X009055Y011661D01*
X008880Y011661D01*
X008718Y011594D01*
X008594Y011470D01*
X008527Y011309D01*
X008527Y010534D01*
X008594Y010372D01*
X008718Y010248D01*
X008577Y010414D02*
X005513Y010414D01*
X005513Y010572D02*
X008527Y010572D01*
X008527Y010731D02*
X005513Y010731D01*
X005513Y010889D02*
X008527Y010889D01*
X008527Y011048D02*
X005513Y011048D01*
X005513Y011206D02*
X008527Y011206D01*
X008550Y011365D02*
X005513Y011365D01*
X005513Y011523D02*
X008647Y011523D01*
X009288Y011523D02*
X009593Y011523D01*
X009601Y011534D02*
X009557Y011473D01*
X009522Y011406D01*
X009499Y011334D01*
X009487Y011259D01*
X009487Y010941D01*
X009947Y010941D01*
X009947Y010901D01*
X009987Y010901D01*
X009987Y010941D01*
X010447Y010941D01*
X010447Y011259D01*
X010435Y011334D01*
X010412Y011406D01*
X010378Y011473D01*
X010333Y011534D01*
X010280Y011587D01*
X010219Y011632D01*
X010151Y011666D01*
X010080Y011689D01*
X010005Y011701D01*
X009987Y011701D01*
X009987Y010941D01*
X009947Y010941D01*
X009947Y011701D01*
X009929Y011701D01*
X009855Y011689D01*
X009783Y011666D01*
X009716Y011632D01*
X009654Y011587D01*
X009601Y011534D01*
X009509Y011365D02*
X009384Y011365D01*
X009407Y011206D02*
X009487Y011206D01*
X009487Y011048D02*
X009407Y011048D01*
X009407Y010889D02*
X009487Y010889D01*
X009487Y010901D02*
X009487Y010583D01*
X009499Y010509D01*
X009522Y010437D01*
X009557Y010370D01*
X009601Y010309D01*
X009654Y010255D01*
X009716Y010211D01*
X009783Y010176D01*
X009855Y010153D01*
X009929Y010141D01*
X009947Y010141D01*
X009947Y010901D01*
X009487Y010901D01*
X009487Y010731D02*
X009407Y010731D01*
X009407Y010572D02*
X009489Y010572D01*
X009534Y010414D02*
X009357Y010414D01*
X009223Y010255D02*
X009655Y010255D01*
X009947Y010255D02*
X009987Y010255D01*
X009987Y010414D02*
X009947Y010414D01*
X009947Y010572D02*
X009987Y010572D01*
X009987Y010731D02*
X009947Y010731D01*
X009947Y010889D02*
X009987Y010889D01*
X009987Y011048D02*
X009947Y011048D01*
X009947Y011206D02*
X009987Y011206D01*
X009987Y011365D02*
X009947Y011365D01*
X009947Y011523D02*
X009987Y011523D01*
X009987Y011682D02*
X009947Y011682D01*
X009830Y011682D02*
X005513Y011682D01*
X005513Y011840D02*
X010877Y011840D01*
X010863Y011846D02*
X010974Y011800D01*
X011093Y011800D01*
X011203Y011846D01*
X011261Y011904D01*
X011883Y011281D01*
X011883Y011190D01*
X011929Y011080D01*
X012013Y010996D01*
X012124Y010950D01*
X012243Y010950D01*
X012353Y010996D01*
X012438Y011080D01*
X012483Y011190D01*
X012483Y011310D01*
X012438Y011420D01*
X012353Y011504D01*
X012243Y011550D01*
X012152Y011550D01*
X011412Y012290D01*
X011268Y012290D01*
X011203Y012354D01*
X011093Y012400D01*
X010974Y012400D01*
X010863Y012354D01*
X010779Y012270D01*
X010733Y012160D01*
X010733Y012040D01*
X010779Y011930D01*
X010863Y011846D01*
X010751Y011999D02*
X005513Y011999D01*
X005513Y012157D02*
X010733Y012157D01*
X010825Y012316D02*
X005513Y012316D01*
X005513Y012474D02*
X013428Y012474D01*
X013449Y012494D02*
X013337Y012383D01*
X012624Y011669D01*
X012624Y010959D01*
X012555Y010890D01*
X011917Y010890D01*
X011852Y010955D01*
X011735Y011003D01*
X011609Y011003D01*
X011492Y010955D01*
X011402Y010865D01*
X011354Y010748D01*
X011354Y010622D01*
X011402Y010505D01*
X011492Y010415D01*
X011609Y010367D01*
X011735Y010367D01*
X011852Y010415D01*
X011942Y010505D01*
X011944Y010510D01*
X012712Y010510D01*
X012892Y010690D01*
X013004Y010802D01*
X013004Y011512D01*
X013538Y012046D01*
X013549Y012035D01*
X013666Y011986D01*
X013792Y011986D01*
X013909Y012035D01*
X013999Y012124D01*
X014047Y012241D01*
X014047Y012368D01*
X013999Y012485D01*
X013909Y012574D01*
X013792Y012622D01*
X013666Y012622D01*
X013549Y012574D01*
X013469Y012494D01*
X013449Y012494D01*
X013270Y012316D02*
X011242Y012316D01*
X011545Y012157D02*
X013111Y012157D01*
X012953Y011999D02*
X011704Y011999D01*
X011862Y011840D02*
X012794Y011840D01*
X012636Y011682D02*
X012021Y011682D01*
X012308Y011523D02*
X012624Y011523D01*
X012624Y011365D02*
X012461Y011365D01*
X012483Y011206D02*
X012624Y011206D01*
X012624Y011048D02*
X012405Y011048D01*
X011962Y011048D02*
X010447Y011048D01*
X010447Y011206D02*
X011883Y011206D01*
X011800Y011365D02*
X010425Y011365D01*
X010341Y011523D02*
X011642Y011523D01*
X011483Y011682D02*
X010104Y011682D01*
X010447Y010889D02*
X011426Y010889D01*
X011354Y010731D02*
X010447Y010731D01*
X010445Y010572D02*
X011374Y010572D01*
X011496Y010414D02*
X010400Y010414D01*
X011190Y011840D02*
X011325Y011840D01*
X011848Y010414D02*
X015188Y010414D01*
X015086Y010572D02*
X014446Y010572D01*
X014221Y010572D02*
X012774Y010572D01*
X012933Y010731D02*
X014058Y010731D01*
X014033Y010889D02*
X013004Y010889D01*
X013004Y011048D02*
X013072Y011048D01*
X013033Y011206D02*
X013004Y011206D01*
X013004Y011365D02*
X013077Y011365D01*
X013015Y011523D02*
X017542Y011523D01*
X017700Y011365D02*
X015890Y011365D01*
X016036Y011206D02*
X017859Y011206D01*
X018017Y011048D02*
X016183Y011048D01*
X016329Y010889D02*
X018176Y010889D01*
X018334Y010731D02*
X016475Y010731D01*
X016622Y010572D02*
X018493Y010572D01*
X018651Y010414D02*
X016768Y010414D01*
X016914Y010255D02*
X018810Y010255D01*
X018968Y010097D02*
X017851Y010097D01*
X017715Y010097D02*
X017061Y010097D01*
X017207Y009938D02*
X017516Y009938D01*
X017483Y009780D02*
X017353Y009780D01*
X017499Y009621D02*
X017538Y009621D01*
X017646Y009463D02*
X017852Y009463D01*
X017776Y009304D02*
X020422Y009304D01*
X020427Y009304D02*
X027973Y009304D01*
X027973Y009146D02*
X017773Y009146D01*
X017773Y008987D02*
X027973Y008987D01*
X027973Y008829D02*
X017773Y008829D01*
X017773Y008670D02*
X027973Y008670D01*
X027973Y008512D02*
X017773Y008512D01*
X017773Y008353D02*
X027973Y008353D01*
X027973Y008195D02*
X017773Y008195D01*
X017852Y008036D02*
X027973Y008036D01*
X027973Y007878D02*
X017883Y007878D01*
X017827Y007719D02*
X026291Y007719D01*
X026132Y007561D02*
X015668Y007561D01*
X015854Y007719D02*
X017340Y007719D01*
X017283Y007878D02*
X015883Y007878D01*
X015822Y008036D02*
X017315Y008036D01*
X017393Y008195D02*
X015773Y008195D01*
X015773Y008353D02*
X017393Y008353D01*
X017393Y008512D02*
X015773Y008512D01*
X015773Y008670D02*
X017393Y008670D01*
X017393Y008829D02*
X015773Y008829D01*
X015773Y008987D02*
X017393Y008987D01*
X017393Y009146D02*
X015773Y009146D01*
X015773Y009304D02*
X017275Y009304D01*
X017129Y009463D02*
X015773Y009463D01*
X015773Y009621D02*
X016982Y009621D01*
X016836Y009780D02*
X015773Y009780D01*
X015773Y009938D02*
X016690Y009938D01*
X016543Y010097D02*
X015773Y010097D01*
X015747Y010255D02*
X016397Y010255D01*
X016251Y010414D02*
X015640Y010414D01*
X015538Y010572D02*
X016104Y010572D01*
X015958Y010731D02*
X015436Y010731D01*
X015334Y010889D02*
X015812Y010889D01*
X015774Y011700D02*
X015893Y011700D01*
X016003Y011746D01*
X016088Y011830D01*
X016133Y011940D01*
X016133Y012060D01*
X016088Y012170D01*
X016003Y012254D01*
X015893Y012300D01*
X015774Y012300D01*
X015663Y012254D01*
X015599Y012190D01*
X015412Y012190D01*
X013912Y013690D01*
X012243Y013690D01*
X011901Y014031D01*
X011901Y015450D01*
X011985Y015367D01*
X012095Y015321D01*
X012214Y015321D01*
X012325Y015367D01*
X012409Y015451D01*
X012455Y015562D01*
X012455Y015671D01*
X012533Y015759D01*
X012533Y015640D01*
X012579Y015530D01*
X012663Y015446D01*
X012774Y015400D01*
X012893Y015400D01*
X013003Y015446D01*
X013088Y015530D01*
X013133Y015640D01*
X013133Y015755D01*
X014972Y017870D01*
X015023Y017921D01*
X015023Y017929D01*
X015028Y017935D01*
X015023Y018007D01*
X015023Y020724D01*
X014676Y021072D01*
X014570Y021072D01*
X014490Y021152D01*
X014373Y021200D01*
X014246Y021200D01*
X014173Y021170D01*
X014173Y021669D01*
X014188Y021715D01*
X014173Y021745D01*
X014173Y021779D01*
X014139Y021813D01*
X014022Y022048D01*
X014021Y022084D01*
X013988Y022115D01*
X013968Y022155D01*
X013933Y022167D01*
X011416Y024536D01*
X011362Y024590D01*
X011359Y024590D01*
X011356Y024592D01*
X011280Y024590D01*
X009912Y024590D01*
X009021Y025481D01*
X009021Y025484D01*
X008966Y025536D01*
X008912Y025590D01*
X008909Y025590D01*
X008864Y025632D01*
X008935Y025603D01*
X009093Y025603D01*
X009240Y025663D01*
X009351Y025775D01*
X009412Y025921D01*
X009412Y026079D01*
X009351Y026225D01*
X009263Y026313D01*
X010385Y027435D01*
X016818Y027435D01*
X017796Y026457D01*
X017796Y026340D01*
X017789Y026337D01*
X017677Y026225D01*
X017621Y026088D01*
X017564Y026225D01*
X017452Y026337D01*
X017306Y026397D01*
X017148Y026397D01*
X017002Y026337D01*
X016890Y026225D01*
X016833Y026088D01*
X016777Y026225D01*
X016665Y026337D01*
X016519Y026397D01*
X016361Y026397D01*
X016214Y026337D01*
X016103Y026225D01*
X016090Y026194D01*
X016090Y026281D01*
X016077Y026327D01*
X016054Y026368D01*
X016020Y026402D01*
X015979Y026425D01*
X015933Y026437D01*
X015652Y026437D01*
X015371Y026437D01*
X015325Y026425D01*
X015284Y026402D01*
X015251Y026368D01*
X015227Y026327D01*
X015215Y026281D01*
X015215Y026000D01*
X015215Y025719D01*
X015227Y025673D01*
X015251Y025632D01*
X015284Y025598D01*
X015325Y025575D01*
X015371Y025563D01*
X015652Y025563D01*
X015652Y026000D01*
X015215Y026000D01*
X015652Y026000D01*
X015652Y026000D01*
X015652Y026000D01*
X015652Y026437D01*
X015652Y026000D01*
X015652Y026000D01*
X015652Y025563D01*
X015933Y025563D01*
X015979Y025575D01*
X016020Y025598D01*
X016054Y025632D01*
X016077Y025673D01*
X016090Y025719D01*
X016090Y025806D01*
X016103Y025775D01*
X016214Y025663D01*
X016361Y025603D01*
X016519Y025603D01*
X016549Y025615D01*
X017393Y024771D01*
X017393Y022921D01*
X017584Y022730D01*
X017584Y020591D01*
X017505Y020511D01*
X017456Y020394D01*
X017456Y020267D01*
X017505Y020151D01*
X017594Y020061D01*
X017703Y020016D01*
X017594Y019970D01*
X017505Y019881D01*
X017456Y019764D01*
X017456Y019638D01*
X017505Y019521D01*
X017594Y019431D01*
X017711Y019383D01*
X017838Y019383D01*
X017954Y019431D01*
X018044Y019521D01*
X018061Y019561D01*
X018122Y019622D01*
X018437Y019937D01*
X018437Y022835D01*
X018523Y022921D01*
X018523Y024972D01*
X018412Y025084D01*
X017863Y025632D01*
X017935Y025603D01*
X018093Y025603D01*
X018129Y025617D01*
X018883Y024862D01*
X018883Y023425D01*
X018804Y023346D01*
X018755Y023229D01*
X018755Y023102D01*
X018804Y022985D01*
X018893Y022896D01*
X019010Y022847D01*
X019137Y022847D01*
X019254Y022896D01*
X019343Y022985D01*
X019392Y023102D01*
X019392Y023229D01*
X019343Y023346D01*
X019263Y023425D01*
X019263Y025020D01*
X018397Y025886D01*
X018412Y025921D01*
X018412Y026079D01*
X018351Y026225D01*
X018240Y026337D01*
X018233Y026340D01*
X018233Y026638D01*
X018105Y026766D01*
X016999Y027872D01*
X010203Y027872D01*
X010075Y027744D01*
X008815Y026484D01*
X008815Y026348D01*
X008789Y026337D01*
X008677Y026225D01*
X008621Y026088D01*
X008564Y026225D01*
X008452Y026337D01*
X008306Y026397D01*
X008148Y026397D01*
X008002Y026337D01*
X007890Y026225D01*
X007833Y026088D01*
X007777Y026225D01*
X007665Y026337D01*
X007519Y026397D01*
X007361Y026397D01*
X007214Y026337D01*
X007103Y026225D01*
X007090Y026194D01*
X007090Y026281D01*
X007077Y026327D01*
X007054Y026368D01*
X007020Y026402D01*
X006979Y026425D01*
X006933Y026437D01*
X006652Y026437D01*
X006371Y026437D01*
X006325Y026425D01*
X006284Y026402D01*
X006251Y026368D01*
X006227Y026327D01*
X006215Y026281D01*
X006215Y026000D01*
X006215Y025719D01*
X006227Y025673D01*
X006251Y025632D01*
X006284Y025598D01*
X006325Y025575D01*
X006371Y025563D01*
X006652Y025563D01*
X006652Y026000D01*
X006215Y026000D01*
X006652Y026000D01*
X006652Y026000D01*
X006652Y026000D01*
X006652Y026437D01*
X006652Y026000D01*
X006652Y026000D01*
X006652Y025563D01*
X006933Y025563D01*
X006979Y025575D01*
X007020Y025598D01*
X007054Y025632D01*
X007077Y025673D01*
X007090Y025719D01*
X007090Y025806D01*
X007103Y025775D01*
X007214Y025663D01*
X007361Y025603D01*
X007519Y025603D01*
X007554Y025617D01*
X007698Y025473D01*
X007752Y025418D01*
X007753Y025418D01*
X007755Y025416D01*
X007832Y025416D01*
X008159Y025411D01*
X008609Y025006D01*
X009568Y024047D01*
X009679Y023935D01*
X010436Y023935D01*
X011551Y022821D01*
X011551Y022708D01*
X011599Y022591D01*
X011689Y022502D01*
X011805Y022454D01*
X011932Y022454D01*
X012049Y022502D01*
X012138Y022591D01*
X012187Y022708D01*
X012187Y022835D01*
X012138Y022952D01*
X012049Y023041D01*
X011932Y023090D01*
X011819Y023090D01*
X010705Y024204D01*
X010699Y024210D01*
X011208Y024210D01*
X013679Y021885D01*
X013793Y021655D01*
X013793Y019641D01*
X013729Y019576D01*
X013683Y019466D01*
X013683Y019347D01*
X013729Y019236D01*
X013813Y019152D01*
X013924Y019106D01*
X014043Y019106D01*
X014143Y019148D01*
X014143Y018123D01*
X012168Y015921D01*
X012095Y015921D01*
X011985Y015876D01*
X011901Y015792D01*
X011901Y016472D01*
X011872Y016502D01*
X011872Y016614D01*
X011823Y016731D01*
X011734Y016821D01*
X011617Y016869D01*
X011491Y016869D01*
X011374Y016821D01*
X011284Y016731D01*
X011236Y016614D01*
X011236Y016488D01*
X011284Y016371D01*
X011374Y016281D01*
X011491Y016233D01*
X011521Y016233D01*
X011521Y013874D01*
X011974Y013421D01*
X012085Y013310D01*
X013755Y013310D01*
X015255Y011810D01*
X015599Y011810D01*
X015663Y011746D01*
X015774Y011700D01*
X016092Y011840D02*
X017225Y011840D01*
X017383Y011682D02*
X013173Y011682D01*
X013332Y011840D02*
X015225Y011840D01*
X015066Y011999D02*
X013822Y011999D01*
X013636Y011999D02*
X013490Y011999D01*
X014012Y012157D02*
X014908Y012157D01*
X014749Y012316D02*
X014047Y012316D01*
X014003Y012474D02*
X014591Y012474D01*
X014432Y012633D02*
X005513Y012633D01*
X005513Y012791D02*
X014274Y012791D01*
X014115Y012950D02*
X005513Y012950D01*
X005513Y013108D02*
X013957Y013108D01*
X013798Y013267D02*
X005513Y013267D01*
X005513Y013425D02*
X011970Y013425D01*
X011812Y013584D02*
X005513Y013584D01*
X005513Y013742D02*
X011653Y013742D01*
X011521Y013901D02*
X005513Y013901D01*
X005513Y014059D02*
X011521Y014059D01*
X011521Y014218D02*
X005513Y014218D01*
X005513Y014376D02*
X011521Y014376D01*
X011521Y014535D02*
X005513Y014535D01*
X005513Y014693D02*
X011521Y014693D01*
X011521Y014852D02*
X005513Y014852D01*
X005513Y015010D02*
X011521Y015010D01*
X011521Y015169D02*
X005513Y015169D01*
X005513Y015327D02*
X011521Y015327D01*
X011521Y015486D02*
X005513Y015486D01*
X005513Y015644D02*
X011521Y015644D01*
X011521Y015803D02*
X005513Y015803D01*
X005513Y015961D02*
X011521Y015961D01*
X011521Y016120D02*
X005513Y016120D01*
X005513Y016278D02*
X011382Y016278D01*
X011257Y016437D02*
X005513Y016437D01*
X005513Y016595D02*
X011236Y016595D01*
X011306Y016754D02*
X005513Y016754D01*
X005513Y016912D02*
X013057Y016912D01*
X012915Y016754D02*
X011801Y016754D01*
X011872Y016595D02*
X012773Y016595D01*
X012631Y016437D02*
X011901Y016437D01*
X011901Y016278D02*
X012489Y016278D01*
X012346Y016120D02*
X011901Y016120D01*
X011901Y015961D02*
X012204Y015961D01*
X011912Y015803D02*
X011901Y015803D01*
X011901Y015327D02*
X012081Y015327D01*
X012228Y015327D02*
X013582Y015327D01*
X013485Y015486D02*
X013043Y015486D01*
X013133Y015644D02*
X013496Y015644D01*
X013609Y015803D02*
X013174Y015803D01*
X013312Y015961D02*
X016693Y015961D01*
X016693Y015803D02*
X013955Y015803D01*
X014068Y015644D02*
X016693Y015644D01*
X016693Y015486D02*
X014117Y015486D01*
X014275Y015327D02*
X016693Y015327D01*
X016693Y015169D02*
X014434Y015169D01*
X014592Y015010D02*
X016693Y015010D01*
X016693Y014852D02*
X014751Y014852D01*
X014909Y014693D02*
X016693Y014693D01*
X016693Y014535D02*
X015068Y014535D01*
X015226Y014376D02*
X016693Y014376D01*
X016693Y014218D02*
X015385Y014218D01*
X015543Y014059D02*
X016693Y014059D01*
X016693Y013901D02*
X015702Y013901D01*
X015860Y013742D02*
X016693Y013742D01*
X016693Y013584D02*
X016019Y013584D01*
X016177Y013425D02*
X016693Y013425D01*
X016693Y013267D02*
X016336Y013267D01*
X016494Y013108D02*
X016693Y013108D01*
X016693Y012950D02*
X016653Y012950D01*
X016811Y012791D02*
X016824Y012791D01*
X016970Y012633D02*
X016982Y012633D01*
X017128Y012474D02*
X017141Y012474D01*
X017287Y012316D02*
X017299Y012316D01*
X017445Y012157D02*
X017458Y012157D01*
X017604Y011999D02*
X017616Y011999D01*
X017762Y011840D02*
X017775Y011840D01*
X017921Y011682D02*
X017933Y011682D01*
X018079Y011523D02*
X018092Y011523D01*
X018238Y011365D02*
X018250Y011365D01*
X018396Y011206D02*
X018409Y011206D01*
X018555Y011048D02*
X018567Y011048D01*
X018788Y011365D02*
X020181Y011365D01*
X020196Y011523D02*
X019949Y011523D01*
X019718Y011523D02*
X018629Y011523D01*
X018471Y011682D02*
X019558Y011682D01*
X019533Y011840D02*
X018312Y011840D01*
X018154Y011999D02*
X019608Y011999D01*
X019643Y012157D02*
X017995Y012157D01*
X017837Y012316D02*
X019643Y012316D01*
X019643Y012474D02*
X017678Y012474D01*
X017520Y012633D02*
X019643Y012633D01*
X019643Y012791D02*
X017361Y012791D01*
X017203Y012950D02*
X019643Y012950D01*
X019643Y013108D02*
X019362Y013108D01*
X019343Y013100D02*
X019453Y013146D01*
X019538Y013230D01*
X019583Y013340D01*
X019583Y013460D01*
X019538Y013570D01*
X019473Y013634D01*
X019473Y015050D01*
X019362Y015161D01*
X018883Y015640D01*
X018883Y015731D01*
X018838Y015841D01*
X018753Y015926D01*
X018643Y015971D01*
X018524Y015971D01*
X018413Y015926D01*
X018329Y015841D01*
X018283Y015731D01*
X018283Y015612D01*
X018329Y015501D01*
X018413Y015417D01*
X018524Y015371D01*
X018615Y015371D01*
X019093Y014893D01*
X019093Y013634D01*
X019029Y013570D01*
X018983Y013460D01*
X018983Y013340D01*
X019029Y013230D01*
X019113Y013146D01*
X019224Y013100D01*
X019343Y013100D01*
X019204Y013108D02*
X017073Y013108D01*
X017073Y013267D02*
X019014Y013267D01*
X018983Y013425D02*
X017073Y013425D01*
X017073Y013584D02*
X019043Y013584D01*
X019093Y013742D02*
X017073Y013742D01*
X017073Y013901D02*
X019093Y013901D01*
X019093Y014059D02*
X017073Y014059D01*
X017073Y014218D02*
X019093Y014218D01*
X019093Y014376D02*
X017073Y014376D01*
X017073Y014535D02*
X019093Y014535D01*
X019093Y014693D02*
X017073Y014693D01*
X017073Y014852D02*
X019093Y014852D01*
X018976Y015010D02*
X017073Y015010D01*
X017073Y015169D02*
X018817Y015169D01*
X018659Y015327D02*
X017073Y015327D01*
X017073Y015486D02*
X018345Y015486D01*
X018283Y015644D02*
X017073Y015644D01*
X017073Y015803D02*
X018313Y015803D01*
X018499Y015961D02*
X017073Y015961D01*
X017073Y016120D02*
X019643Y016120D01*
X019643Y015961D02*
X018668Y015961D01*
X018854Y015803D02*
X019643Y015803D01*
X019643Y015644D02*
X018883Y015644D01*
X019038Y015486D02*
X019643Y015486D01*
X019643Y015327D02*
X019196Y015327D01*
X019355Y015169D02*
X019643Y015169D01*
X019643Y015010D02*
X019473Y015010D01*
X019473Y014852D02*
X019643Y014852D01*
X019643Y014693D02*
X019473Y014693D01*
X019473Y014535D02*
X019643Y014535D01*
X019643Y014376D02*
X019473Y014376D01*
X019473Y014218D02*
X019643Y014218D01*
X019643Y014059D02*
X019473Y014059D01*
X019473Y013901D02*
X019643Y013901D01*
X019643Y013742D02*
X019473Y013742D01*
X019524Y013584D02*
X019643Y013584D01*
X019643Y013425D02*
X019583Y013425D01*
X019553Y013267D02*
X019643Y013267D01*
X020023Y013267D02*
X022242Y013267D01*
X022243Y013108D02*
X021446Y013108D01*
X021446Y012950D02*
X022243Y012950D01*
X022243Y012791D02*
X021446Y012791D01*
X021446Y012633D02*
X022243Y012633D01*
X022052Y012474D02*
X021427Y012474D01*
X021407Y012316D02*
X021814Y012316D01*
X021576Y012157D02*
X021259Y012157D01*
X021325Y011999D02*
X020849Y011999D01*
X020814Y011999D02*
X020595Y011999D01*
X021023Y011840D02*
X021053Y011840D01*
X021430Y011523D02*
X023643Y011523D01*
X023643Y011365D02*
X021446Y011365D01*
X021446Y011206D02*
X023643Y011206D01*
X023643Y011048D02*
X021446Y011048D01*
X021446Y010889D02*
X023643Y010889D01*
X023643Y010731D02*
X021407Y010731D01*
X021407Y010572D02*
X023643Y010572D01*
X023643Y010414D02*
X021407Y010414D01*
X021357Y010255D02*
X023643Y010255D01*
X023643Y010234D02*
X023579Y010170D01*
X023533Y010060D01*
X023533Y009940D01*
X023579Y009830D01*
X023663Y009746D01*
X023774Y009700D01*
X023893Y009700D01*
X024003Y009746D01*
X024088Y009830D01*
X024133Y009940D01*
X024133Y010060D01*
X024088Y010170D01*
X024023Y010234D01*
X024023Y014079D01*
X023912Y014190D01*
X023873Y014229D01*
X023762Y014340D01*
X022568Y014340D01*
X022503Y014404D01*
X022393Y014450D01*
X022274Y014450D01*
X022163Y014404D01*
X022079Y014320D01*
X022033Y014210D01*
X022033Y014090D01*
X022079Y013980D01*
X022163Y013896D01*
X022274Y013850D01*
X022393Y013850D01*
X022503Y013896D01*
X022568Y013960D01*
X023605Y013960D01*
X023643Y013921D01*
X023643Y010234D01*
X023549Y010097D02*
X021226Y010097D01*
X021094Y009938D02*
X023534Y009938D01*
X023630Y009780D02*
X020962Y009780D01*
X020831Y009621D02*
X027973Y009621D01*
X027973Y009463D02*
X020699Y009463D01*
X020468Y009780D02*
X019537Y009780D01*
X019632Y009938D02*
X020600Y009938D01*
X020732Y010097D02*
X019618Y010097D01*
X019502Y010255D02*
X020863Y010255D01*
X020995Y010414D02*
X019189Y010414D01*
X019030Y010572D02*
X021027Y010572D01*
X021027Y010731D02*
X019017Y010731D01*
X019162Y010889D02*
X020187Y010889D01*
X020181Y011048D02*
X019183Y011048D01*
X019102Y011206D02*
X020181Y011206D01*
X020449Y011206D02*
X020449Y011206D01*
X020449Y011193D02*
X020477Y011193D01*
X020477Y011193D01*
X020449Y011193D01*
X020449Y011193D01*
X020449Y011048D02*
X020449Y011048D01*
X020449Y010889D02*
X020449Y010889D01*
X020449Y011365D02*
X020449Y011365D01*
X020449Y011523D02*
X020449Y011523D01*
X020071Y011999D02*
X020059Y011999D01*
X020033Y012157D02*
X020023Y012157D01*
X020023Y012316D02*
X020077Y012316D01*
X020023Y012474D02*
X020198Y012474D01*
X020181Y012633D02*
X020023Y012633D01*
X020023Y012791D02*
X020181Y012791D01*
X020181Y012807D02*
X020449Y012807D01*
X020449Y012807D01*
X020181Y012807D01*
X020181Y012950D02*
X020023Y012950D01*
X020023Y013108D02*
X020187Y013108D01*
X020449Y013133D02*
X020449Y013243D01*
X020449Y013133D01*
X020449Y013133D01*
X020705Y013133D02*
X020705Y013243D01*
X020705Y013133D01*
X020705Y013133D01*
X020705Y013133D01*
X020961Y013133D02*
X020961Y013243D01*
X020961Y013133D01*
X020961Y013133D01*
X020961Y012807D02*
X020705Y012807D01*
X020693Y012807D01*
X020449Y012807D01*
X020449Y012807D01*
X020705Y012807D01*
X020705Y012807D01*
X020961Y012807D01*
X020961Y012807D01*
X020705Y012807D02*
X020705Y012807D01*
X020023Y013425D02*
X022340Y013425D01*
X022543Y013584D02*
X020023Y013584D01*
X020023Y013742D02*
X022651Y013742D01*
X022508Y013901D02*
X023643Y013901D01*
X023643Y013742D02*
X023016Y013742D01*
X023123Y013584D02*
X023643Y013584D01*
X023643Y013425D02*
X023127Y013425D01*
X023024Y013267D02*
X023643Y013267D01*
X023643Y013108D02*
X022623Y013108D01*
X022623Y012950D02*
X023643Y012950D01*
X023643Y012791D02*
X022623Y012791D01*
X022623Y012633D02*
X023643Y012633D01*
X023643Y012474D02*
X022623Y012474D01*
X022518Y012316D02*
X023643Y012316D01*
X023643Y012157D02*
X022261Y012157D01*
X022024Y011999D02*
X023643Y011999D01*
X023643Y011840D02*
X021786Y011840D01*
X021536Y011682D02*
X023643Y011682D01*
X024023Y011682D02*
X027973Y011682D01*
X027973Y011840D02*
X024023Y011840D01*
X024023Y011999D02*
X027973Y011999D01*
X027973Y012157D02*
X024023Y012157D01*
X024023Y012316D02*
X027973Y012316D01*
X027973Y012474D02*
X024023Y012474D01*
X024023Y012633D02*
X027973Y012633D01*
X027973Y012791D02*
X024023Y012791D01*
X024023Y012950D02*
X027973Y012950D01*
X027973Y013108D02*
X024023Y013108D01*
X024023Y013267D02*
X027973Y013267D01*
X027973Y013425D02*
X024023Y013425D01*
X024023Y013584D02*
X027973Y013584D01*
X027973Y013742D02*
X024023Y013742D01*
X024023Y013901D02*
X027973Y013901D01*
X027973Y014059D02*
X024023Y014059D01*
X023912Y014190D02*
X023912Y014190D01*
X023885Y014218D02*
X027973Y014218D01*
X027973Y014376D02*
X022532Y014376D01*
X022135Y014376D02*
X020023Y014376D01*
X020023Y014218D02*
X022037Y014218D01*
X022046Y014059D02*
X020023Y014059D01*
X020023Y013901D02*
X022159Y013901D01*
X023579Y015486D02*
X020023Y015486D01*
X020023Y015644D02*
X022968Y015644D01*
X023022Y015590D02*
X023445Y015590D01*
X023460Y015605D01*
X024005Y015060D01*
X025162Y015060D01*
X025273Y015171D01*
X025523Y015421D01*
X025523Y016411D01*
X026522Y017251D01*
X026524Y017250D01*
X026643Y017250D01*
X026753Y017296D01*
X026838Y017380D01*
X026883Y017490D01*
X026883Y017610D01*
X026838Y017720D01*
X026753Y017804D01*
X026643Y017850D01*
X026524Y017850D01*
X026413Y017804D01*
X026329Y017720D01*
X026283Y017610D01*
X026283Y017546D01*
X024509Y017546D01*
X024455Y017600D02*
X024743Y017889D01*
X024743Y018311D01*
X024445Y018610D01*
X024022Y018610D01*
X023762Y018350D01*
X023461Y018650D01*
X023253Y018650D01*
X023253Y018120D01*
X023213Y018120D01*
X023213Y018080D01*
X022683Y018080D01*
X022683Y017872D01*
X022984Y017572D01*
X022723Y017311D01*
X022723Y016889D01*
X023012Y016600D01*
X022723Y016311D01*
X022723Y015889D01*
X023022Y015590D01*
X022810Y015803D02*
X020023Y015803D01*
X020023Y015961D02*
X022723Y015961D01*
X022723Y016120D02*
X020023Y016120D01*
X020108Y016278D02*
X022723Y016278D01*
X022849Y016437D02*
X020133Y016437D01*
X020063Y016595D02*
X023007Y016595D01*
X022859Y016754D02*
X018849Y016754D01*
X019007Y016595D02*
X019604Y016595D01*
X018787Y016278D02*
X017073Y016278D01*
X017073Y016437D02*
X018628Y016437D01*
X018470Y016595D02*
X017073Y016595D01*
X017073Y016754D02*
X018311Y016754D01*
X018153Y016912D02*
X017719Y016912D01*
X017837Y017071D02*
X017994Y017071D01*
X018215Y017388D02*
X022800Y017388D01*
X022723Y017229D02*
X018373Y017229D01*
X018532Y017071D02*
X022723Y017071D01*
X022723Y016912D02*
X018690Y016912D01*
X018056Y017546D02*
X022958Y017546D01*
X022851Y017705D02*
X017898Y017705D01*
X017739Y017863D02*
X022692Y017863D01*
X022683Y018022D02*
X017581Y018022D01*
X017589Y018656D02*
X027973Y018656D01*
X027973Y018814D02*
X026916Y018814D01*
X027973Y018497D02*
X024558Y018497D01*
X024716Y018339D02*
X027973Y018339D01*
X027973Y018180D02*
X024743Y018180D01*
X024743Y018022D02*
X027973Y018022D01*
X027973Y017863D02*
X024718Y017863D01*
X024559Y017705D02*
X026323Y017705D01*
X026283Y017546D02*
X025264Y016690D01*
X025255Y016690D01*
X025205Y016640D01*
X025151Y016595D01*
X024460Y016595D01*
X024455Y016600D02*
X024743Y016889D01*
X024743Y017311D01*
X024455Y017600D01*
X024667Y017388D02*
X026095Y017388D01*
X025906Y017229D02*
X024743Y017229D01*
X024743Y017071D02*
X025717Y017071D01*
X025528Y016912D02*
X024743Y016912D01*
X024608Y016754D02*
X025340Y016754D01*
X025151Y016595D02*
X025150Y016585D01*
X025143Y016579D01*
X025143Y016508D01*
X025137Y016438D01*
X025143Y016431D01*
X025143Y015579D01*
X025005Y015440D01*
X024162Y015440D01*
X023728Y015874D01*
X023733Y015879D01*
X024022Y015590D01*
X024445Y015590D01*
X024743Y015889D01*
X024743Y016311D01*
X024455Y016600D01*
X024618Y016437D02*
X025139Y016437D01*
X025143Y016278D02*
X024743Y016278D01*
X024743Y016120D02*
X025143Y016120D01*
X025143Y015961D02*
X024743Y015961D01*
X024657Y015803D02*
X025143Y015803D01*
X025143Y015644D02*
X024499Y015644D01*
X024117Y015486D02*
X025050Y015486D01*
X025271Y015169D02*
X027973Y015169D01*
X027973Y015327D02*
X025429Y015327D01*
X025523Y015486D02*
X027973Y015486D01*
X027973Y015644D02*
X025523Y015644D01*
X025523Y015803D02*
X027973Y015803D01*
X027973Y015961D02*
X025523Y015961D01*
X025523Y016120D02*
X027973Y016120D01*
X027973Y016278D02*
X025523Y016278D01*
X025553Y016437D02*
X027973Y016437D01*
X027973Y016595D02*
X025742Y016595D01*
X025931Y016754D02*
X027973Y016754D01*
X027973Y016912D02*
X026119Y016912D01*
X026308Y017071D02*
X027973Y017071D01*
X027973Y017229D02*
X026497Y017229D01*
X026841Y017388D02*
X027973Y017388D01*
X027973Y017546D02*
X026883Y017546D01*
X026844Y017705D02*
X027973Y017705D01*
X027973Y015010D02*
X020023Y015010D01*
X020023Y014852D02*
X027973Y014852D01*
X027973Y014693D02*
X020023Y014693D01*
X020023Y014535D02*
X027973Y014535D01*
X027973Y011523D02*
X024023Y011523D01*
X024023Y011365D02*
X027973Y011365D01*
X027973Y011206D02*
X024023Y011206D01*
X024023Y011048D02*
X027973Y011048D01*
X027973Y010889D02*
X024023Y010889D01*
X024023Y010731D02*
X027973Y010731D01*
X027973Y010572D02*
X024023Y010572D01*
X024023Y010414D02*
X027973Y010414D01*
X027973Y010255D02*
X024023Y010255D01*
X024118Y010097D02*
X027973Y010097D01*
X027973Y009938D02*
X024132Y009938D01*
X024037Y009780D02*
X027973Y009780D01*
X027973Y007719D02*
X027076Y007719D01*
X027234Y007561D02*
X027973Y007561D01*
X027973Y007402D02*
X027315Y007402D01*
X027363Y007244D02*
X027973Y007244D01*
X027973Y007085D02*
X027363Y007085D01*
X027327Y006927D02*
X027973Y006927D01*
X027973Y006768D02*
X027261Y006768D01*
X027104Y006610D02*
X027973Y006610D01*
X027718Y005817D02*
X006178Y005817D01*
X006514Y005659D02*
X027478Y005659D01*
X019130Y009780D02*
X018083Y009780D01*
X018051Y009938D02*
X019034Y009938D01*
X017066Y011999D02*
X016133Y011999D01*
X016093Y012157D02*
X016908Y012157D01*
X016749Y012316D02*
X015287Y012316D01*
X015128Y012474D02*
X016591Y012474D01*
X016432Y012633D02*
X014970Y012633D01*
X014811Y012791D02*
X016274Y012791D01*
X016115Y012950D02*
X014653Y012950D01*
X014494Y013108D02*
X015957Y013108D01*
X015798Y013267D02*
X014336Y013267D01*
X014177Y013425D02*
X015640Y013425D01*
X015481Y013584D02*
X014019Y013584D01*
X014689Y014376D02*
X011901Y014376D01*
X011901Y014218D02*
X014847Y014218D01*
X015006Y014059D02*
X011901Y014059D01*
X012032Y013901D02*
X015164Y013901D01*
X015323Y013742D02*
X012191Y013742D01*
X011901Y014535D02*
X014530Y014535D01*
X014372Y014693D02*
X011901Y014693D01*
X011901Y014852D02*
X014213Y014852D01*
X014055Y015010D02*
X011901Y015010D01*
X011901Y015169D02*
X013896Y015169D01*
X013450Y016120D02*
X016693Y016120D01*
X016693Y016278D02*
X013588Y016278D01*
X013726Y016437D02*
X016693Y016437D01*
X016693Y016595D02*
X013863Y016595D01*
X014001Y016754D02*
X016693Y016754D01*
X016647Y016912D02*
X014139Y016912D01*
X014277Y017071D02*
X016583Y017071D01*
X016612Y017229D02*
X014415Y017229D01*
X014553Y017388D02*
X015567Y017388D01*
X015408Y017546D02*
X014690Y017546D01*
X014828Y017705D02*
X015343Y017705D01*
X015343Y017863D02*
X014966Y017863D01*
X015023Y018022D02*
X015343Y018022D01*
X015343Y018180D02*
X015023Y018180D01*
X015023Y018339D02*
X015343Y018339D01*
X015343Y018497D02*
X015023Y018497D01*
X015023Y018656D02*
X015343Y018656D01*
X015343Y018814D02*
X015023Y018814D01*
X015023Y018973D02*
X015343Y018973D01*
X015343Y019131D02*
X015023Y019131D01*
X015023Y019290D02*
X015343Y019290D01*
X015343Y019448D02*
X015023Y019448D01*
X015023Y019607D02*
X015343Y019607D01*
X015343Y019765D02*
X015023Y019765D01*
X015023Y019924D02*
X015343Y019924D01*
X015343Y020082D02*
X015023Y020082D01*
X015023Y020241D02*
X015343Y020241D01*
X015343Y020399D02*
X015023Y020399D01*
X015023Y020558D02*
X015343Y020558D01*
X015343Y020716D02*
X015023Y020716D01*
X014873Y020875D02*
X015343Y020875D01*
X015343Y021033D02*
X014715Y021033D01*
X014393Y021192D02*
X015343Y021192D01*
X015343Y021350D02*
X014173Y021350D01*
X014173Y021192D02*
X014226Y021192D01*
X014173Y021509D02*
X015343Y021509D01*
X015343Y021667D02*
X014938Y021667D01*
X015052Y021826D02*
X015343Y021826D01*
X015343Y021984D02*
X015069Y021984D01*
X014989Y022143D02*
X015343Y022143D01*
X015343Y022301D02*
X014941Y022301D01*
X014941Y022460D02*
X015343Y022460D01*
X015343Y022618D02*
X014941Y022618D01*
X014941Y022777D02*
X015343Y022777D01*
X015343Y022935D02*
X014941Y022935D01*
X014983Y023094D02*
X015343Y023094D01*
X015343Y023252D02*
X015267Y023252D01*
X015232Y023728D02*
X015343Y023728D01*
X015343Y023886D02*
X012107Y023886D01*
X012275Y023728D02*
X014969Y023728D01*
X014836Y023569D02*
X012443Y023569D01*
X012612Y023411D02*
X014762Y023411D01*
X014604Y023252D02*
X012780Y023252D01*
X012949Y023094D02*
X014561Y023094D01*
X014561Y022935D02*
X013117Y022935D01*
X013285Y022777D02*
X014561Y022777D01*
X014561Y022618D02*
X013454Y022618D01*
X013622Y022460D02*
X014561Y022460D01*
X014561Y022301D02*
X013791Y022301D01*
X013974Y022143D02*
X014513Y022143D01*
X014433Y021984D02*
X014054Y021984D01*
X014133Y021826D02*
X014450Y021826D01*
X014564Y021667D02*
X014173Y021667D01*
X013787Y021667D02*
X011496Y021667D01*
X011613Y021785D02*
X011309Y021480D01*
X010878Y021480D01*
X010573Y021785D01*
X010573Y021810D01*
X010310Y021810D01*
X009933Y021433D01*
X009933Y018780D01*
X010012Y018700D01*
X010061Y018583D01*
X010061Y018456D01*
X010012Y018339D01*
X009923Y018250D01*
X009806Y018202D01*
X009680Y018202D01*
X009563Y018250D01*
X009473Y018339D01*
X009425Y018456D01*
X009425Y018583D01*
X009473Y018700D01*
X009553Y018780D01*
X009553Y021591D01*
X009664Y021702D01*
X010152Y022190D01*
X010573Y022190D01*
X010573Y022215D01*
X010878Y022520D01*
X011309Y022520D01*
X011613Y022215D01*
X011613Y021785D01*
X011613Y021826D02*
X013708Y021826D01*
X013573Y021984D02*
X011613Y021984D01*
X011613Y022143D02*
X013405Y022143D01*
X013236Y022301D02*
X011528Y022301D01*
X011369Y022460D02*
X011791Y022460D01*
X011946Y022460D02*
X013068Y022460D01*
X012899Y022618D02*
X012149Y022618D01*
X012187Y022777D02*
X012731Y022777D01*
X012563Y022935D02*
X012145Y022935D01*
X012394Y023094D02*
X011816Y023094D01*
X011657Y023252D02*
X012226Y023252D01*
X012057Y023411D02*
X011499Y023411D01*
X011340Y023569D02*
X011889Y023569D01*
X011721Y023728D02*
X011182Y023728D01*
X011023Y023886D02*
X011552Y023886D01*
X011384Y024045D02*
X010865Y024045D01*
X010706Y024203D02*
X011215Y024203D01*
X011433Y024520D02*
X015195Y024520D01*
X015343Y024362D02*
X011601Y024362D01*
X011770Y024203D02*
X015343Y024203D01*
X015343Y024045D02*
X011938Y024045D01*
X011120Y023252D02*
X005513Y023252D01*
X005513Y023094D02*
X011278Y023094D01*
X011437Y022935D02*
X005513Y022935D01*
X005513Y022777D02*
X011551Y022777D01*
X011588Y022618D02*
X005513Y022618D01*
X005513Y022460D02*
X006824Y022460D01*
X006924Y022560D02*
X006596Y022232D01*
X006596Y022020D01*
X007136Y022020D01*
X007136Y021980D01*
X006596Y021980D01*
X006596Y021768D01*
X006924Y021440D01*
X007136Y021440D01*
X007136Y021980D01*
X007176Y021980D01*
X007176Y021440D01*
X007388Y021440D01*
X007716Y021768D01*
X007716Y021980D01*
X007176Y021980D01*
X007176Y022020D01*
X007136Y022020D01*
X007136Y022560D01*
X006924Y022560D01*
X007136Y022460D02*
X007176Y022460D01*
X007176Y022560D02*
X007388Y022560D01*
X007716Y022232D01*
X007716Y022020D01*
X007176Y022020D01*
X007176Y022560D01*
X007176Y022301D02*
X007136Y022301D01*
X007136Y022143D02*
X007176Y022143D01*
X007176Y021984D02*
X009946Y021984D01*
X009788Y021826D02*
X007716Y021826D01*
X007615Y021667D02*
X009629Y021667D01*
X009553Y021509D02*
X007457Y021509D01*
X007176Y021509D02*
X007136Y021509D01*
X007136Y021667D02*
X007176Y021667D01*
X007176Y021826D02*
X007136Y021826D01*
X007136Y021984D02*
X005513Y021984D01*
X005513Y021826D02*
X006596Y021826D01*
X006697Y021667D02*
X005513Y021667D01*
X005513Y021509D02*
X006856Y021509D01*
X006596Y022143D02*
X005513Y022143D01*
X005513Y022301D02*
X006665Y022301D01*
X007489Y022460D02*
X010817Y022460D01*
X010659Y022301D02*
X007647Y022301D01*
X007716Y022143D02*
X010105Y022143D01*
X010167Y021667D02*
X010691Y021667D01*
X010849Y021509D02*
X010008Y021509D01*
X009933Y021350D02*
X013793Y021350D01*
X013793Y021192D02*
X009933Y021192D01*
X009933Y021033D02*
X013793Y021033D01*
X013793Y020875D02*
X009933Y020875D01*
X009933Y020716D02*
X013793Y020716D01*
X013793Y020558D02*
X009933Y020558D01*
X009933Y020399D02*
X013793Y020399D01*
X013793Y020241D02*
X009933Y020241D01*
X009933Y020082D02*
X013793Y020082D01*
X013793Y019924D02*
X009933Y019924D01*
X009933Y019765D02*
X013793Y019765D01*
X013759Y019607D02*
X009933Y019607D01*
X009933Y019448D02*
X013683Y019448D01*
X013707Y019290D02*
X009933Y019290D01*
X009933Y019131D02*
X013864Y019131D01*
X014103Y019131D02*
X014143Y019131D01*
X014143Y018973D02*
X009933Y018973D01*
X009933Y018814D02*
X014143Y018814D01*
X014143Y018656D02*
X010031Y018656D01*
X010061Y018497D02*
X014143Y018497D01*
X014143Y018339D02*
X010011Y018339D01*
X009474Y018339D02*
X005513Y018339D01*
X005513Y018497D02*
X009425Y018497D01*
X009455Y018656D02*
X005513Y018656D01*
X005513Y018814D02*
X009553Y018814D01*
X009553Y018973D02*
X005513Y018973D01*
X005513Y019131D02*
X009553Y019131D01*
X009553Y019290D02*
X005513Y019290D01*
X005513Y019448D02*
X009553Y019448D01*
X009553Y019607D02*
X005513Y019607D01*
X005513Y019765D02*
X009553Y019765D01*
X009553Y019924D02*
X005513Y019924D01*
X005513Y020082D02*
X009553Y020082D01*
X009553Y020241D02*
X005513Y020241D01*
X005513Y020399D02*
X009553Y020399D01*
X009553Y020558D02*
X005513Y020558D01*
X005513Y020716D02*
X009553Y020716D01*
X009553Y020875D02*
X005513Y020875D01*
X005513Y021033D02*
X009553Y021033D01*
X009553Y021192D02*
X005513Y021192D01*
X005513Y021350D02*
X009553Y021350D01*
X011337Y021509D02*
X013793Y021509D01*
X015723Y019765D02*
X015800Y019765D01*
X015723Y019607D02*
X015958Y019607D01*
X016117Y019448D02*
X015723Y019448D01*
X015723Y019290D02*
X016275Y019290D01*
X016434Y019131D02*
X015723Y019131D01*
X015723Y018973D02*
X016592Y018973D01*
X016748Y018814D02*
X015723Y018814D01*
X015723Y018656D02*
X016795Y018656D01*
X016753Y018180D02*
X022683Y018180D01*
X022683Y018120D02*
X023213Y018120D01*
X023213Y018650D01*
X023006Y018650D01*
X022683Y018328D01*
X022683Y018120D01*
X022694Y018339D02*
X015723Y018339D01*
X015723Y018497D02*
X022853Y018497D01*
X023213Y018497D02*
X023253Y018497D01*
X023253Y018339D02*
X023213Y018339D01*
X023213Y018180D02*
X023253Y018180D01*
X023614Y018497D02*
X023909Y018497D01*
X023810Y015803D02*
X023800Y015803D01*
X023958Y015644D02*
X023968Y015644D01*
X023738Y015327D02*
X020023Y015327D01*
X020023Y015169D02*
X023896Y015169D01*
X020018Y019131D02*
X017564Y019131D01*
X017449Y019290D02*
X019620Y019290D01*
X019533Y019448D02*
X017971Y019448D01*
X018106Y019607D02*
X019553Y019607D01*
X019689Y019765D02*
X018265Y019765D01*
X018423Y019924D02*
X020169Y019924D01*
X020168Y020082D02*
X018437Y020082D01*
X018437Y020241D02*
X020167Y020241D01*
X020166Y020399D02*
X018437Y020399D01*
X018437Y020558D02*
X020166Y020558D01*
X020165Y020716D02*
X018437Y020716D01*
X018437Y020875D02*
X020164Y020875D01*
X020163Y021033D02*
X018437Y021033D01*
X018437Y021192D02*
X020163Y021192D01*
X020162Y021350D02*
X018437Y021350D01*
X018437Y021509D02*
X020161Y021509D01*
X020160Y021667D02*
X018437Y021667D01*
X018437Y021826D02*
X020160Y021826D01*
X020159Y021984D02*
X018437Y021984D01*
X018437Y022143D02*
X020158Y022143D01*
X020157Y022301D02*
X018437Y022301D01*
X018437Y022460D02*
X020157Y022460D01*
X020156Y022618D02*
X018437Y022618D01*
X018437Y022777D02*
X020155Y022777D01*
X020154Y022935D02*
X019293Y022935D01*
X019388Y023094D02*
X020154Y023094D01*
X020153Y023252D02*
X019382Y023252D01*
X019278Y023411D02*
X020152Y023411D01*
X020151Y023569D02*
X019263Y023569D01*
X019263Y023728D02*
X020151Y023728D01*
X020150Y023886D02*
X019263Y023886D01*
X019263Y024045D02*
X020149Y024045D01*
X020148Y024203D02*
X019263Y024203D01*
X019263Y024362D02*
X020148Y024362D01*
X020147Y024520D02*
X019263Y024520D01*
X019263Y024679D02*
X020146Y024679D01*
X020145Y024837D02*
X019263Y024837D01*
X019263Y024996D02*
X020144Y024996D01*
X020144Y025154D02*
X019129Y025154D01*
X018971Y025313D02*
X020143Y025313D01*
X020142Y025471D02*
X018812Y025471D01*
X018654Y025630D02*
X020141Y025630D01*
X020141Y025788D02*
X018495Y025788D01*
X018412Y025947D02*
X020140Y025947D01*
X020139Y026105D02*
X018401Y026105D01*
X018313Y026264D02*
X020138Y026264D01*
X020138Y026422D02*
X018233Y026422D01*
X018233Y026581D02*
X020137Y026581D01*
X020136Y026739D02*
X018132Y026739D01*
X017973Y026898D02*
X020135Y026898D01*
X020135Y027056D02*
X017815Y027056D01*
X017656Y027215D02*
X020134Y027215D01*
X020133Y027373D02*
X017498Y027373D01*
X017339Y027532D02*
X020132Y027532D01*
X020132Y027690D02*
X017181Y027690D01*
X017022Y027849D02*
X020131Y027849D01*
X020130Y028007D02*
X005513Y028007D01*
X005513Y027849D02*
X010180Y027849D01*
X010021Y027690D02*
X005513Y027690D01*
X005513Y027532D02*
X009863Y027532D01*
X009704Y027373D02*
X005513Y027373D01*
X005513Y027215D02*
X009546Y027215D01*
X009387Y027056D02*
X005513Y027056D01*
X005513Y026898D02*
X009229Y026898D01*
X009070Y026739D02*
X005513Y026739D01*
X005513Y026581D02*
X008912Y026581D01*
X008815Y026422D02*
X006985Y026422D01*
X007090Y026264D02*
X007141Y026264D01*
X006652Y026264D02*
X006652Y026264D01*
X006652Y026422D02*
X006652Y026422D01*
X006652Y026105D02*
X006652Y026105D01*
X006652Y025947D02*
X006652Y025947D01*
X006652Y025788D02*
X006652Y025788D01*
X006652Y025630D02*
X006652Y025630D01*
X006253Y025630D02*
X005513Y025630D01*
X005513Y025788D02*
X006215Y025788D01*
X006215Y025947D02*
X005513Y025947D01*
X005513Y026105D02*
X006215Y026105D01*
X006215Y026264D02*
X005513Y026264D01*
X005513Y026422D02*
X006320Y026422D01*
X007090Y025788D02*
X007097Y025788D01*
X007051Y025630D02*
X007295Y025630D01*
X007700Y025471D02*
X005513Y025471D01*
X005513Y025313D02*
X008268Y025313D01*
X008444Y025154D02*
X005513Y025154D01*
X005513Y024996D02*
X008619Y024996D01*
X008778Y024837D02*
X007160Y024837D01*
X007219Y024813D02*
X006969Y024916D01*
X006698Y024916D01*
X006448Y024813D01*
X006257Y024621D01*
X006153Y024371D01*
X006153Y024101D01*
X006257Y023851D01*
X006448Y023660D01*
X006698Y023556D01*
X006969Y023556D01*
X007219Y023660D01*
X007410Y023851D01*
X007513Y024101D01*
X007513Y024371D01*
X007410Y024621D01*
X007219Y024813D01*
X007353Y024679D02*
X008936Y024679D01*
X009095Y024520D02*
X007452Y024520D01*
X007513Y024362D02*
X009253Y024362D01*
X009412Y024203D02*
X007513Y024203D01*
X007490Y024045D02*
X009570Y024045D01*
X009824Y024679D02*
X015036Y024679D01*
X015448Y025154D02*
X017011Y025154D01*
X017169Y024996D02*
X015607Y024996D01*
X015765Y024837D02*
X017328Y024837D01*
X017393Y024679D02*
X015924Y024679D01*
X016023Y024520D02*
X017393Y024520D01*
X017393Y024362D02*
X016023Y024362D01*
X016023Y024203D02*
X017393Y024203D01*
X017393Y024045D02*
X016023Y024045D01*
X016023Y023886D02*
X017393Y023886D01*
X017393Y023728D02*
X016023Y023728D01*
X016023Y023569D02*
X017393Y023569D01*
X017393Y023411D02*
X016023Y023411D01*
X016023Y023252D02*
X017393Y023252D01*
X017393Y023094D02*
X016023Y023094D01*
X016023Y022935D02*
X017393Y022935D01*
X017538Y022777D02*
X016023Y022777D01*
X016023Y022618D02*
X017584Y022618D01*
X017584Y022460D02*
X016023Y022460D01*
X016023Y022301D02*
X017584Y022301D01*
X017584Y022143D02*
X016023Y022143D01*
X016023Y021984D02*
X017584Y021984D01*
X017584Y021826D02*
X016023Y021826D01*
X016023Y021667D02*
X016078Y021667D01*
X016033Y021509D02*
X016023Y021509D01*
X016023Y021350D02*
X016071Y021350D01*
X016023Y021192D02*
X016143Y021192D01*
X016143Y021033D02*
X016023Y021033D01*
X016023Y020875D02*
X016143Y020875D01*
X016143Y020716D02*
X016023Y020716D01*
X016023Y020558D02*
X016143Y020558D01*
X016166Y020399D02*
X016023Y020399D01*
X016023Y020241D02*
X016287Y020241D01*
X016402Y020082D02*
X016023Y020082D01*
X016179Y019924D02*
X016518Y019924D01*
X016633Y019765D02*
X016337Y019765D01*
X016496Y019607D02*
X016748Y019607D01*
X016654Y019448D02*
X016863Y019448D01*
X016813Y019290D02*
X016979Y019290D01*
X017333Y019448D02*
X017577Y019448D01*
X017469Y019607D02*
X017218Y019607D01*
X017103Y019765D02*
X017457Y019765D01*
X017547Y019924D02*
X016988Y019924D01*
X016872Y020082D02*
X017573Y020082D01*
X017467Y020241D02*
X016757Y020241D01*
X016642Y020399D02*
X017458Y020399D01*
X017551Y020558D02*
X016526Y020558D01*
X016523Y020716D02*
X017584Y020716D01*
X017584Y020875D02*
X016523Y020875D01*
X016523Y021033D02*
X017584Y021033D01*
X017584Y021192D02*
X016523Y021192D01*
X016596Y021350D02*
X017584Y021350D01*
X017584Y021509D02*
X016633Y021509D01*
X016589Y021667D02*
X017584Y021667D01*
X018523Y022935D02*
X018854Y022935D01*
X018759Y023094D02*
X018523Y023094D01*
X018523Y023252D02*
X018765Y023252D01*
X018869Y023411D02*
X018523Y023411D01*
X018523Y023569D02*
X018883Y023569D01*
X018883Y023728D02*
X018523Y023728D01*
X018523Y023886D02*
X018883Y023886D01*
X018883Y024045D02*
X018523Y024045D01*
X018523Y024203D02*
X018883Y024203D01*
X018883Y024362D02*
X018523Y024362D01*
X018523Y024520D02*
X018883Y024520D01*
X018883Y024679D02*
X018523Y024679D01*
X018523Y024837D02*
X018883Y024837D01*
X018750Y024996D02*
X018500Y024996D01*
X018592Y025154D02*
X018342Y025154D01*
X018433Y025313D02*
X018183Y025313D01*
X018275Y025471D02*
X018025Y025471D01*
X017870Y025630D02*
X017866Y025630D01*
X017628Y026105D02*
X017614Y026105D01*
X017526Y026264D02*
X017716Y026264D01*
X017796Y026422D02*
X015985Y026422D01*
X016090Y026264D02*
X016141Y026264D01*
X015652Y026264D02*
X015652Y026264D01*
X015652Y026422D02*
X015652Y026422D01*
X015652Y026105D02*
X015652Y026105D01*
X015652Y025947D02*
X015652Y025947D01*
X015652Y025788D02*
X015652Y025788D01*
X015652Y025630D02*
X015652Y025630D01*
X016051Y025630D02*
X016295Y025630D01*
X016097Y025788D02*
X016090Y025788D01*
X016694Y025471D02*
X015131Y025471D01*
X015253Y025630D02*
X014973Y025630D01*
X015215Y025788D02*
X013857Y025788D01*
X013912Y025947D02*
X015215Y025947D01*
X015215Y026105D02*
X013901Y026105D01*
X013813Y026264D02*
X015215Y026264D01*
X015320Y026422D02*
X011485Y026422D01*
X011590Y026264D02*
X011641Y026264D01*
X011152Y026264D02*
X011152Y026264D01*
X011152Y026422D02*
X011152Y026422D01*
X011152Y026105D02*
X011152Y026105D01*
X011152Y025947D02*
X011152Y025947D01*
X011152Y025788D02*
X011152Y025788D01*
X011152Y025630D02*
X011152Y025630D01*
X011551Y025630D02*
X011795Y025630D01*
X011597Y025788D02*
X011590Y025788D01*
X012200Y025471D02*
X009031Y025471D01*
X009159Y025630D02*
X010753Y025630D01*
X010715Y025788D02*
X009357Y025788D01*
X009412Y025947D02*
X010715Y025947D01*
X010715Y026105D02*
X009401Y026105D01*
X009313Y026264D02*
X010715Y026264D01*
X010820Y026422D02*
X009372Y026422D01*
X009530Y026581D02*
X017672Y026581D01*
X017513Y026739D02*
X009689Y026739D01*
X009847Y026898D02*
X017355Y026898D01*
X017196Y027056D02*
X010006Y027056D01*
X010164Y027215D02*
X017038Y027215D01*
X016879Y027373D02*
X010323Y027373D01*
X008716Y026264D02*
X008526Y026264D01*
X008614Y026105D02*
X008628Y026105D01*
X008867Y025630D02*
X008870Y025630D01*
X009190Y025313D02*
X012358Y025313D01*
X012517Y025154D02*
X009348Y025154D01*
X009507Y024996D02*
X012675Y024996D01*
X012834Y024837D02*
X009665Y024837D01*
X010486Y023886D02*
X007424Y023886D01*
X007286Y023728D02*
X010644Y023728D01*
X010803Y023569D02*
X007000Y023569D01*
X006667Y023569D02*
X005513Y023569D01*
X005513Y023411D02*
X010961Y023411D01*
X012326Y026105D02*
X012340Y026105D01*
X012428Y026264D02*
X012238Y026264D01*
X013026Y026264D02*
X013216Y026264D01*
X013128Y026105D02*
X013114Y026105D01*
X015290Y025313D02*
X016852Y025313D01*
X016826Y026105D02*
X016840Y026105D01*
X016928Y026264D02*
X016738Y026264D01*
X020129Y028166D02*
X005513Y028166D01*
X005513Y028324D02*
X020129Y028324D01*
X020128Y028483D02*
X005513Y028483D01*
X005513Y028641D02*
X020127Y028641D01*
X020126Y028800D02*
X005514Y028800D01*
X005547Y028958D02*
X020126Y028958D01*
X020125Y029117D02*
X005634Y029117D01*
X005849Y029275D02*
X020124Y029275D01*
X020169Y019765D02*
X019977Y019765D01*
X020114Y019607D02*
X020170Y019607D01*
X017547Y018656D02*
X017336Y018656D01*
X016276Y018180D02*
X015723Y018180D01*
X015723Y018022D02*
X016196Y018022D01*
X016214Y017863D02*
X015723Y017863D01*
X015787Y017705D02*
X016329Y017705D01*
X017155Y017229D02*
X017220Y017229D01*
X017240Y017071D02*
X017183Y017071D01*
X017120Y016912D02*
X017357Y016912D01*
X014143Y018180D02*
X005513Y018180D01*
X005513Y018022D02*
X014053Y018022D01*
X013910Y017863D02*
X005513Y017863D01*
X005513Y017705D02*
X013768Y017705D01*
X013626Y017546D02*
X005513Y017546D01*
X005513Y017388D02*
X013484Y017388D01*
X013342Y017229D02*
X005513Y017229D01*
X005513Y017071D02*
X013199Y017071D01*
X012533Y015644D02*
X012455Y015644D01*
X012423Y015486D02*
X012624Y015486D01*
X013161Y009780D02*
X015393Y009780D01*
X015393Y009938D02*
X005513Y009938D01*
X007259Y008036D02*
X015345Y008036D01*
X015393Y008195D02*
X013848Y008195D01*
X013987Y008353D02*
X015393Y008353D01*
X015393Y008512D02*
X014030Y008512D01*
X014170Y008670D02*
X015393Y008670D01*
X015393Y008829D02*
X014303Y008829D01*
X014345Y008987D02*
X015393Y008987D01*
X015393Y009146D02*
X014321Y009146D01*
X014213Y009304D02*
X015393Y009304D01*
X015393Y009463D02*
X013478Y009463D01*
X013396Y009544D02*
X013396Y009544D01*
X013320Y009621D02*
X015393Y009621D01*
X013682Y009304D02*
X013584Y009304D01*
X013417Y008195D02*
X013218Y008195D01*
X012470Y007402D02*
X014165Y007402D01*
X014097Y007244D02*
X012538Y007244D01*
X012582Y007085D02*
X014054Y007085D01*
X014054Y006927D02*
X012582Y006927D01*
X012543Y006768D02*
X014092Y006768D01*
X014158Y006610D02*
X012478Y006610D01*
X012323Y006451D02*
X014312Y006451D01*
X014324Y007561D02*
X012311Y007561D01*
X011284Y006610D02*
X005584Y006610D01*
X005631Y006451D02*
X011438Y006451D01*
X015283Y007878D02*
X007413Y007878D01*
X006380Y023728D02*
X005513Y023728D01*
X005513Y023886D02*
X006242Y023886D01*
X006177Y024045D02*
X005513Y024045D01*
X005513Y024203D02*
X006153Y024203D01*
X006153Y024362D02*
X005513Y024362D01*
X005513Y024520D02*
X006215Y024520D01*
X006314Y024679D02*
X005513Y024679D01*
X005513Y024837D02*
X006507Y024837D01*
X007826Y026105D02*
X007840Y026105D01*
X007928Y026264D02*
X007738Y026264D01*
D21*
X009218Y016868D03*
X011063Y014257D03*
X006533Y015000D03*
X017733Y015650D03*
D22*
X018583Y015671D03*
X019833Y016400D03*
X022333Y014150D03*
X022833Y013500D03*
X020333Y012150D03*
X019833Y011800D03*
X018883Y011000D03*
X019333Y010000D03*
X017783Y009800D03*
X017583Y007900D03*
X015583Y007850D03*
X014333Y010850D03*
X013333Y011200D03*
X012183Y011250D03*
X011033Y012100D03*
X012155Y015621D03*
X012833Y015700D03*
X013782Y015551D03*
X016883Y017100D03*
X013983Y019406D03*
X014333Y020163D03*
X016333Y021500D03*
X019833Y019500D03*
X019283Y013400D03*
X015833Y012000D03*
X023833Y010000D03*
X024133Y010850D03*
X027333Y008800D03*
X024833Y006800D03*
X026583Y017550D03*
X027333Y018500D03*
D23*
X019073Y023165D03*
X017774Y020331D03*
X017774Y019701D03*
X017066Y018835D03*
X016514Y017969D03*
X017538Y017181D03*
X014310Y020882D03*
X014751Y021930D03*
X011869Y022772D03*
X009743Y018520D03*
X011554Y016551D03*
X013729Y012304D03*
X011672Y010685D03*
X010924Y009386D03*
D24*
X009014Y026000D02*
X009034Y026020D01*
X009034Y026394D01*
X010294Y027654D01*
X016908Y027654D01*
X018014Y026547D01*
X018014Y026000D01*
D25*
X015101Y023480D03*
X021522Y023882D03*
X021540Y024751D03*
X022656Y025685D03*
X023247Y026276D03*
X022262Y026472D03*
X021672Y026669D03*
X021672Y025882D03*
X023050Y024898D03*
X023444Y025291D03*
X023640Y024701D03*
X023640Y023913D03*
X023050Y023717D03*
X023444Y023323D03*
X022656Y022929D03*
X023247Y022339D03*
X022262Y022142D03*
X021672Y021945D03*
X021672Y022732D03*
X022853Y021354D03*
X022262Y020567D03*
X021672Y020370D03*
X021672Y021157D03*
X022656Y019780D03*
X023247Y020370D03*
X024231Y019976D03*
X025215Y020370D03*
X025609Y021354D03*
X025215Y022339D03*
X025806Y022929D03*
X025018Y023323D03*
X025215Y023913D03*
X024428Y023913D03*
X024428Y024701D03*
X025215Y024701D03*
X025018Y025291D03*
X025806Y025685D03*
X025215Y026276D03*
X025609Y027260D03*
X025215Y028244D03*
X026003Y029031D03*
X024231Y028638D03*
X023247Y028244D03*
X022656Y028835D03*
X022262Y028047D03*
X021672Y028244D03*
X021672Y027457D03*
X022853Y027260D03*
X024231Y025882D03*
X026003Y024701D03*
X026003Y023913D03*
X024231Y022732D03*
X026003Y019583D03*
X021672Y019583D03*
X021672Y029031D03*
M02*
