G75*
%MOIN*%
%OFA0B0*%
%FSLAX24Y24*%
%IPPOS*%
%LPD*%
%AMOC8*
5,1,8,0,0,1.08239X$1,22.5*
%
%ADD10C,0.0050*%
%ADD11R,0.0630X0.0512*%
%ADD12R,0.0512X0.0591*%
%ADD13R,0.0512X0.0630*%
%ADD14R,0.0866X0.0236*%
%ADD15C,0.0118*%
%ADD16R,0.0472X0.0472*%
%ADD17OC8,0.0760*%
%ADD18OC8,0.0740*%
%ADD19R,0.0137X0.0550*%
%ADD20R,0.0591X0.0512*%
%ADD21R,0.0480X0.0880*%
%ADD22R,0.1417X0.0866*%
%ADD23R,0.0551X0.0709*%
%ADD24R,0.0748X0.0551*%
%ADD25R,0.0591X0.0315*%
%ADD26R,0.0515X0.0515*%
%ADD27C,0.0515*%
%ADD28R,0.0276X0.0669*%
%ADD29C,0.3543*%
%ADD30R,0.0906X0.0630*%
%ADD31R,0.0870X0.0240*%
%ADD32C,0.0600*%
%ADD33R,0.0276X0.0354*%
%ADD34R,0.0630X0.0551*%
%ADD35C,0.1122*%
%ADD36C,0.0100*%
%ADD37C,0.0317*%
%ADD38C,0.0320*%
%ADD39R,0.0356X0.0356*%
%ADD40C,0.0356*%
%ADD41C,0.0120*%
%ADD42C,0.0160*%
%ADD43C,0.0591*%
%ADD44C,0.0560*%
%ADD45C,0.0157*%
%ADD46C,0.0150*%
%ADD47C,0.0277*%
D10*
X021275Y019386D02*
X021275Y024189D01*
X027749Y024189D01*
X027749Y019386D01*
X021275Y019386D01*
X021275Y019420D02*
X027749Y019420D01*
X027749Y019468D02*
X021275Y019468D01*
X021275Y019517D02*
X027749Y019517D01*
X027749Y019565D02*
X021275Y019565D01*
X021275Y019614D02*
X027749Y019614D01*
X027749Y019662D02*
X021275Y019662D01*
X021275Y019711D02*
X027749Y019711D01*
X027749Y019759D02*
X021275Y019759D01*
X021275Y019808D02*
X027749Y019808D01*
X027749Y019856D02*
X021275Y019856D01*
X021275Y019905D02*
X027749Y019905D01*
X027749Y019953D02*
X021275Y019953D01*
X021275Y020002D02*
X027749Y020002D01*
X027749Y020050D02*
X021275Y020050D01*
X021275Y020099D02*
X027749Y020099D01*
X027749Y020147D02*
X021275Y020147D01*
X021275Y020196D02*
X027749Y020196D01*
X027749Y020244D02*
X021275Y020244D01*
X021275Y020293D02*
X027749Y020293D01*
X027749Y020341D02*
X021275Y020341D01*
X021275Y020390D02*
X027749Y020390D01*
X027749Y020438D02*
X021275Y020438D01*
X021275Y020487D02*
X027749Y020487D01*
X027749Y020535D02*
X021275Y020535D01*
X021275Y020584D02*
X027749Y020584D01*
X027749Y020632D02*
X021275Y020632D01*
X021275Y020681D02*
X027749Y020681D01*
X027749Y020729D02*
X021275Y020729D01*
X021275Y020778D02*
X027749Y020778D01*
X027749Y020826D02*
X021275Y020826D01*
X021275Y020875D02*
X027749Y020875D01*
X027749Y020923D02*
X021275Y020923D01*
X021275Y020972D02*
X027749Y020972D01*
X027749Y021020D02*
X021275Y021020D01*
X021275Y021069D02*
X027749Y021069D01*
X027749Y021117D02*
X021275Y021117D01*
X021275Y021166D02*
X027749Y021166D01*
X027749Y021214D02*
X021275Y021214D01*
X021275Y021263D02*
X027749Y021263D01*
X027749Y021311D02*
X021275Y021311D01*
X021275Y021360D02*
X027749Y021360D01*
X027749Y021408D02*
X021275Y021408D01*
X021275Y021457D02*
X027749Y021457D01*
X027749Y021505D02*
X021275Y021505D01*
X021275Y021554D02*
X027749Y021554D01*
X027749Y021602D02*
X021275Y021602D01*
X021275Y021651D02*
X027749Y021651D01*
X027749Y021699D02*
X021275Y021699D01*
X021275Y021748D02*
X027749Y021748D01*
X027749Y021796D02*
X021275Y021796D01*
X021275Y021845D02*
X027749Y021845D01*
X027749Y021893D02*
X021275Y021893D01*
X021275Y021942D02*
X027749Y021942D01*
X027749Y021990D02*
X021275Y021990D01*
X021275Y022039D02*
X027749Y022039D01*
X027749Y022087D02*
X021275Y022087D01*
X021275Y022136D02*
X027749Y022136D01*
X027749Y022184D02*
X021275Y022184D01*
X021275Y022233D02*
X027749Y022233D01*
X027749Y022281D02*
X021275Y022281D01*
X021275Y022330D02*
X027749Y022330D01*
X027749Y022378D02*
X021275Y022378D01*
X021275Y022427D02*
X027749Y022427D01*
X027749Y022475D02*
X021275Y022475D01*
X021275Y022524D02*
X027749Y022524D01*
X027749Y022572D02*
X021275Y022572D01*
X021275Y022621D02*
X027749Y022621D01*
X027749Y022669D02*
X021275Y022669D01*
X021275Y022718D02*
X027749Y022718D01*
X027749Y022766D02*
X021275Y022766D01*
X021275Y022815D02*
X027749Y022815D01*
X027749Y022863D02*
X021275Y022863D01*
X021275Y022912D02*
X027749Y022912D01*
X027749Y022960D02*
X021275Y022960D01*
X021275Y023009D02*
X027749Y023009D01*
X027749Y023057D02*
X021275Y023057D01*
X021275Y023106D02*
X027749Y023106D01*
X027749Y023154D02*
X021275Y023154D01*
X021275Y023203D02*
X027749Y023203D01*
X027749Y023251D02*
X021275Y023251D01*
X021275Y023300D02*
X027749Y023300D01*
X027749Y023348D02*
X021275Y023348D01*
X021275Y023397D02*
X027749Y023397D01*
X027749Y023445D02*
X021275Y023445D01*
X021275Y023494D02*
X027749Y023494D01*
X027749Y023542D02*
X021275Y023542D01*
X021275Y023591D02*
X027749Y023591D01*
X027749Y023639D02*
X021275Y023639D01*
X021275Y023688D02*
X027749Y023688D01*
X027749Y023736D02*
X021275Y023736D01*
X021275Y023785D02*
X027749Y023785D01*
X027749Y023833D02*
X021275Y023833D01*
X021275Y023882D02*
X027749Y023882D01*
X027749Y023930D02*
X021275Y023930D01*
X021275Y023979D02*
X027749Y023979D01*
X027749Y024027D02*
X021275Y024027D01*
X021275Y024076D02*
X027749Y024076D01*
X027749Y024124D02*
X021275Y024124D01*
X021275Y024173D02*
X027749Y024173D01*
X027749Y024425D02*
X021275Y024425D01*
X021275Y029228D01*
X027749Y029228D01*
X027749Y024425D01*
X027749Y024464D02*
X021275Y024464D01*
X021275Y024512D02*
X027749Y024512D01*
X027749Y024561D02*
X021275Y024561D01*
X021275Y024609D02*
X027749Y024609D01*
X027749Y024658D02*
X021275Y024658D01*
X021275Y024706D02*
X027749Y024706D01*
X027749Y024755D02*
X021275Y024755D01*
X021275Y024803D02*
X027749Y024803D01*
X027749Y024852D02*
X021275Y024852D01*
X021275Y024900D02*
X027749Y024900D01*
X027749Y024949D02*
X021275Y024949D01*
X021275Y024997D02*
X027749Y024997D01*
X027749Y025046D02*
X021275Y025046D01*
X021275Y025094D02*
X027749Y025094D01*
X027749Y025143D02*
X021275Y025143D01*
X021275Y025191D02*
X027749Y025191D01*
X027749Y025240D02*
X021275Y025240D01*
X021275Y025288D02*
X027749Y025288D01*
X027749Y025337D02*
X021275Y025337D01*
X021275Y025385D02*
X027749Y025385D01*
X027749Y025434D02*
X021275Y025434D01*
X021275Y025482D02*
X027749Y025482D01*
X027749Y025531D02*
X021275Y025531D01*
X021275Y025579D02*
X027749Y025579D01*
X027749Y025628D02*
X021275Y025628D01*
X021275Y025676D02*
X027749Y025676D01*
X027749Y025725D02*
X021275Y025725D01*
X021275Y025773D02*
X027749Y025773D01*
X027749Y025822D02*
X021275Y025822D01*
X021275Y025870D02*
X027749Y025870D01*
X027749Y025919D02*
X021275Y025919D01*
X021275Y025967D02*
X027749Y025967D01*
X027749Y026016D02*
X021275Y026016D01*
X021275Y026064D02*
X027749Y026064D01*
X027749Y026113D02*
X021275Y026113D01*
X021275Y026161D02*
X027749Y026161D01*
X027749Y026210D02*
X021275Y026210D01*
X021275Y026258D02*
X027749Y026258D01*
X027749Y026307D02*
X021275Y026307D01*
X021275Y026355D02*
X027749Y026355D01*
X027749Y026404D02*
X021275Y026404D01*
X021275Y026452D02*
X027749Y026452D01*
X027749Y026501D02*
X021275Y026501D01*
X021275Y026549D02*
X027749Y026549D01*
X027749Y026598D02*
X021275Y026598D01*
X021275Y026646D02*
X027749Y026646D01*
X027749Y026695D02*
X021275Y026695D01*
X021275Y026743D02*
X027749Y026743D01*
X027749Y026792D02*
X021275Y026792D01*
X021275Y026840D02*
X027749Y026840D01*
X027749Y026889D02*
X021275Y026889D01*
X021275Y026937D02*
X027749Y026937D01*
X027749Y026986D02*
X021275Y026986D01*
X021275Y027034D02*
X027749Y027034D01*
X027749Y027083D02*
X021275Y027083D01*
X021275Y027131D02*
X027749Y027131D01*
X027749Y027180D02*
X021275Y027180D01*
X021275Y027228D02*
X027749Y027228D01*
X027749Y027277D02*
X021275Y027277D01*
X021275Y027325D02*
X027749Y027325D01*
X027749Y027374D02*
X021275Y027374D01*
X021275Y027422D02*
X027749Y027422D01*
X027749Y027471D02*
X021275Y027471D01*
X021275Y027519D02*
X027749Y027519D01*
X027749Y027568D02*
X021275Y027568D01*
X021275Y027616D02*
X027749Y027616D01*
X027749Y027665D02*
X021275Y027665D01*
X021275Y027713D02*
X027749Y027713D01*
X027749Y027762D02*
X021275Y027762D01*
X021275Y027810D02*
X027749Y027810D01*
X027749Y027859D02*
X021275Y027859D01*
X021275Y027907D02*
X027749Y027907D01*
X027749Y027956D02*
X021275Y027956D01*
X021275Y028004D02*
X027749Y028004D01*
X027749Y028053D02*
X021275Y028053D01*
X021275Y028101D02*
X027749Y028101D01*
X027749Y028150D02*
X021275Y028150D01*
X021275Y028198D02*
X027749Y028198D01*
X027749Y028247D02*
X021275Y028247D01*
X021275Y028295D02*
X027749Y028295D01*
X027749Y028344D02*
X021275Y028344D01*
X021275Y028392D02*
X027749Y028392D01*
X027749Y028441D02*
X021275Y028441D01*
X021275Y028489D02*
X027749Y028489D01*
X027749Y028538D02*
X021275Y028538D01*
X021275Y028586D02*
X027749Y028586D01*
X027749Y028635D02*
X021275Y028635D01*
X021275Y028683D02*
X027749Y028683D01*
X027749Y028732D02*
X021275Y028732D01*
X021275Y028780D02*
X027749Y028780D01*
X027749Y028829D02*
X021275Y028829D01*
X021275Y028877D02*
X027749Y028877D01*
X027749Y028926D02*
X021275Y028926D01*
X021275Y028974D02*
X027749Y028974D01*
X027749Y029023D02*
X021275Y029023D01*
X021275Y029071D02*
X027749Y029071D01*
X027749Y029120D02*
X021275Y029120D01*
X021275Y029168D02*
X027749Y029168D01*
X027749Y029217D02*
X021275Y029217D01*
D11*
X015333Y013894D03*
X015333Y013106D03*
X006081Y009315D03*
X006081Y008528D03*
D12*
X016459Y008500D03*
X017207Y008500D03*
X017959Y008500D03*
X018707Y008500D03*
X019959Y008500D03*
X020707Y008500D03*
X021459Y008500D03*
X022207Y008500D03*
X018207Y010500D03*
X017459Y010500D03*
X017459Y011250D03*
X018207Y011250D03*
X018294Y024870D03*
X017546Y024870D03*
D13*
X017550Y024083D03*
X018337Y024083D03*
X009227Y015000D03*
X008440Y015000D03*
X007723Y010287D03*
X006936Y010287D03*
D14*
X007022Y015750D03*
X007022Y016250D03*
X007022Y016750D03*
X007022Y017250D03*
X007022Y017750D03*
X007022Y018250D03*
X007022Y018750D03*
X007022Y019250D03*
X010644Y019250D03*
X010644Y018750D03*
X010644Y018250D03*
X010644Y017750D03*
X010644Y017250D03*
X010644Y016750D03*
X010644Y016250D03*
X010644Y015750D03*
D15*
X012475Y017138D02*
X012947Y017138D01*
X012947Y017335D02*
X012475Y017335D01*
X012475Y017531D02*
X012947Y017531D01*
X012947Y017728D02*
X012475Y017728D01*
X012475Y017925D02*
X012947Y017925D01*
X012947Y018122D02*
X012475Y018122D01*
X012475Y018319D02*
X012947Y018319D01*
X012947Y018516D02*
X012475Y018516D01*
X012475Y018713D02*
X012947Y018713D01*
X012947Y018909D02*
X012475Y018909D01*
X012475Y019106D02*
X012947Y019106D01*
X012947Y019303D02*
X012475Y019303D01*
X012475Y019500D02*
X012947Y019500D01*
X012947Y019697D02*
X012475Y019697D01*
X012475Y019894D02*
X012947Y019894D01*
X012947Y020091D02*
X012475Y020091D01*
X012475Y020287D02*
X012947Y020287D01*
X012947Y020484D02*
X012475Y020484D01*
X012475Y020681D02*
X012947Y020681D01*
X012947Y020878D02*
X012475Y020878D01*
X012475Y021075D02*
X012947Y021075D01*
X012947Y021272D02*
X012475Y021272D01*
X012475Y021469D02*
X012947Y021469D01*
X012947Y021665D02*
X012475Y021665D01*
X012475Y021862D02*
X012947Y021862D01*
X013499Y022414D02*
X013499Y022886D01*
X013696Y022886D02*
X013696Y022414D01*
X013892Y022414D02*
X013892Y022886D01*
X014089Y022886D02*
X014089Y022414D01*
X014286Y022414D02*
X014286Y022886D01*
X014483Y022886D02*
X014483Y022414D01*
X014680Y022414D02*
X014680Y022886D01*
X014877Y022886D02*
X014877Y022414D01*
X015073Y022414D02*
X015073Y022886D01*
X015270Y022886D02*
X015270Y022414D01*
X015467Y022414D02*
X015467Y022886D01*
X015664Y022886D02*
X015664Y022414D01*
X015861Y022414D02*
X015861Y022886D01*
X016058Y022886D02*
X016058Y022414D01*
X016255Y022414D02*
X016255Y022886D01*
X016451Y022886D02*
X016451Y022414D01*
X016648Y022414D02*
X016648Y022886D01*
X016845Y022886D02*
X016845Y022414D01*
X017042Y022414D02*
X017042Y022886D01*
X017239Y022886D02*
X017239Y022414D01*
X017436Y022414D02*
X017436Y022886D01*
X017633Y022886D02*
X017633Y022414D01*
X017829Y022414D02*
X017829Y022886D01*
X018026Y022886D02*
X018026Y022414D01*
X018223Y022414D02*
X018223Y022886D01*
X018774Y021862D02*
X019246Y021862D01*
X019246Y021665D02*
X018774Y021665D01*
X018774Y021469D02*
X019246Y021469D01*
X019246Y021272D02*
X018774Y021272D01*
X018774Y021075D02*
X019246Y021075D01*
X019246Y020878D02*
X018774Y020878D01*
X018774Y020681D02*
X019246Y020681D01*
X019246Y020484D02*
X018774Y020484D01*
X018774Y020287D02*
X019246Y020287D01*
X019246Y020091D02*
X018774Y020091D01*
X018774Y019894D02*
X019246Y019894D01*
X019246Y019697D02*
X018774Y019697D01*
X018774Y019500D02*
X019246Y019500D01*
X019246Y019303D02*
X018774Y019303D01*
X018774Y019106D02*
X019246Y019106D01*
X019246Y018909D02*
X018774Y018909D01*
X018774Y018713D02*
X019246Y018713D01*
X019246Y018516D02*
X018774Y018516D01*
X018774Y018319D02*
X019246Y018319D01*
X019246Y018122D02*
X018774Y018122D01*
X018774Y017925D02*
X019246Y017925D01*
X019246Y017728D02*
X018774Y017728D01*
X018774Y017531D02*
X019246Y017531D01*
X019246Y017335D02*
X018774Y017335D01*
X018774Y017138D02*
X019246Y017138D01*
X018223Y016586D02*
X018223Y016114D01*
X018026Y016114D02*
X018026Y016586D01*
X017829Y016586D02*
X017829Y016114D01*
X017633Y016114D02*
X017633Y016586D01*
X017436Y016586D02*
X017436Y016114D01*
X017239Y016114D02*
X017239Y016586D01*
X017042Y016586D02*
X017042Y016114D01*
X016845Y016114D02*
X016845Y016586D01*
X016648Y016586D02*
X016648Y016114D01*
X016451Y016114D02*
X016451Y016586D01*
X016255Y016586D02*
X016255Y016114D01*
X016058Y016114D02*
X016058Y016586D01*
X015861Y016586D02*
X015861Y016114D01*
X015664Y016114D02*
X015664Y016586D01*
X015467Y016586D02*
X015467Y016114D01*
X015270Y016114D02*
X015270Y016586D01*
X015073Y016586D02*
X015073Y016114D01*
X014877Y016114D02*
X014877Y016586D01*
X014680Y016586D02*
X014680Y016114D01*
X014483Y016114D02*
X014483Y016586D01*
X014286Y016586D02*
X014286Y016114D01*
X014089Y016114D02*
X014089Y016586D01*
X013892Y016586D02*
X013892Y016114D01*
X013696Y016114D02*
X013696Y016586D01*
X013499Y016586D02*
X013499Y016114D01*
D16*
X021597Y016413D03*
X021597Y015587D03*
X021420Y007000D03*
X020747Y007000D03*
X019920Y007000D03*
X018747Y007000D03*
X017920Y007000D03*
X017247Y007000D03*
X016420Y007000D03*
X022247Y007000D03*
D17*
X011093Y022000D03*
X007156Y022000D03*
D18*
X023233Y018100D03*
X024233Y018100D03*
X024233Y017100D03*
X023233Y017100D03*
X023233Y016100D03*
X024233Y016100D03*
D19*
X014497Y012939D03*
X014241Y012939D03*
X013985Y012939D03*
X013729Y012939D03*
X013473Y012939D03*
X013217Y012939D03*
X012961Y012939D03*
X012705Y012939D03*
X012449Y012939D03*
X012194Y012939D03*
X011938Y012939D03*
X011682Y012939D03*
X011426Y012939D03*
X011170Y012939D03*
X011170Y010061D03*
X011426Y010061D03*
X011682Y010061D03*
X011938Y010061D03*
X012194Y010061D03*
X012449Y010061D03*
X012705Y010061D03*
X012961Y010061D03*
X013217Y010061D03*
X013473Y010061D03*
X013729Y010061D03*
X013985Y010061D03*
X014241Y010061D03*
X014497Y010061D03*
D20*
X016333Y013126D03*
X016333Y013874D03*
X012833Y014126D03*
X011833Y014126D03*
X011833Y014874D03*
X012833Y014874D03*
X020833Y015626D03*
X020833Y016374D03*
X014295Y024126D03*
X013552Y024126D03*
X013552Y024874D03*
X014295Y024874D03*
D21*
X008243Y013720D03*
X007333Y013720D03*
X006423Y013720D03*
D22*
X007333Y011280D03*
D23*
X021991Y010307D03*
X021991Y012551D03*
D24*
X027168Y009677D03*
X027562Y014854D03*
D25*
X026046Y013020D03*
X025888Y012587D03*
X026046Y012154D03*
X026125Y011720D03*
X026046Y011287D03*
X026125Y010854D03*
X026046Y010421D03*
X026046Y009988D03*
D26*
X015652Y026000D03*
X011152Y026000D03*
X006652Y026000D03*
D27*
X007440Y026000D03*
X008227Y026000D03*
X009014Y026000D03*
X011940Y026000D03*
X012727Y026000D03*
X013514Y026000D03*
X016440Y026000D03*
X017227Y026000D03*
X018014Y026000D03*
X013663Y009058D03*
X013348Y008585D03*
X013033Y009058D03*
X012718Y008585D03*
X012403Y009058D03*
D28*
X015361Y014750D03*
X015833Y014750D03*
X016306Y014750D03*
D29*
X024231Y021354D03*
X024231Y027260D03*
D30*
X023593Y008500D03*
X026073Y008500D03*
D31*
X022257Y023553D03*
X022257Y024053D03*
X022257Y024553D03*
X022257Y025053D03*
X020197Y025053D03*
X020197Y024553D03*
X020197Y024053D03*
X020197Y023553D03*
D32*
X010367Y011071D02*
X010367Y010471D01*
X009367Y010471D02*
X009367Y011071D01*
D33*
X008289Y008500D03*
X007777Y008500D03*
X007389Y008500D03*
X006877Y008500D03*
D34*
X008383Y007351D03*
X008383Y006249D03*
D35*
X011596Y007050D03*
X014470Y007050D03*
D36*
X006156Y005796D02*
X027738Y005796D01*
X027750Y005804D02*
X027530Y005644D01*
X027273Y005561D01*
X027137Y005550D01*
X006949Y005550D01*
X006758Y005563D01*
X006388Y005662D01*
X006057Y005853D01*
X005786Y006123D01*
X005595Y006455D01*
X005496Y006824D01*
X005483Y007016D01*
X005483Y014375D01*
X005999Y013859D01*
X005999Y013416D01*
X005674Y013090D01*
X005609Y012934D01*
X005609Y009278D01*
X005637Y009211D01*
X005637Y009006D01*
X005712Y008930D01*
X005734Y008930D01*
X005708Y008923D01*
X005674Y008903D01*
X005646Y008876D01*
X005626Y008841D01*
X005616Y008803D01*
X005616Y008578D01*
X006031Y008578D01*
X006031Y008478D01*
X006131Y008478D01*
X006131Y008578D01*
X006546Y008578D01*
X006546Y008803D01*
X006535Y008841D01*
X006516Y008876D01*
X006488Y008903D01*
X006453Y008923D01*
X006427Y008930D01*
X006449Y008930D01*
X006457Y008938D01*
X008386Y008938D01*
X008542Y009003D01*
X009252Y009713D01*
X009301Y009752D01*
X009311Y009772D01*
X009327Y009787D01*
X009351Y009846D01*
X009458Y010045D01*
X009610Y010108D01*
X009731Y010228D01*
X009796Y010386D01*
X009796Y010797D01*
X009798Y010813D01*
X009796Y010818D01*
X009796Y011157D01*
X009731Y011314D01*
X009610Y011435D01*
X009452Y011500D01*
X009282Y011500D01*
X009124Y011435D01*
X009004Y011314D01*
X008938Y011157D01*
X008938Y010869D01*
X008623Y010283D01*
X008126Y009786D01*
X006457Y009786D01*
X006457Y012674D01*
X006664Y012881D01*
X006783Y013000D01*
X006847Y013156D01*
X006847Y014119D01*
X006783Y014275D01*
X006664Y014394D01*
X006257Y014801D01*
X006257Y024428D01*
X006282Y024368D01*
X006465Y024185D01*
X006704Y024086D01*
X006963Y024086D01*
X007202Y024185D01*
X007384Y024368D01*
X007483Y024607D01*
X007483Y024866D01*
X007384Y025104D01*
X007202Y025287D01*
X006963Y025386D01*
X006704Y025386D01*
X006465Y025287D01*
X006282Y025104D01*
X006257Y025044D01*
X006257Y026293D01*
X006261Y026337D01*
X006288Y026421D01*
X006340Y026493D01*
X006412Y026545D01*
X006496Y026572D01*
X006540Y026576D01*
X006625Y026576D01*
X006662Y026591D01*
X011974Y026591D01*
X012093Y026355D01*
X012016Y026386D01*
X011863Y026386D01*
X011721Y026327D01*
X011612Y026219D01*
X011553Y026077D01*
X011553Y025923D01*
X011612Y025781D01*
X011721Y025673D01*
X011803Y025639D01*
X011488Y025639D01*
X011538Y025689D01*
X011538Y026311D01*
X011463Y026386D01*
X010841Y026386D01*
X010766Y026311D01*
X010766Y025689D01*
X010841Y025614D01*
X010963Y025614D01*
X010963Y025603D01*
X010988Y025578D01*
X011045Y025418D01*
X011045Y025372D01*
X011069Y025347D01*
X011081Y025314D01*
X011123Y025294D01*
X011155Y025261D01*
X011190Y025261D01*
X011222Y025246D01*
X011265Y025261D01*
X012788Y025261D01*
X012860Y025190D01*
X012972Y025143D01*
X013094Y025143D01*
X013128Y025157D01*
X013128Y024565D01*
X013193Y024500D01*
X013128Y024435D01*
X013128Y023817D01*
X013204Y023741D01*
X013901Y023741D01*
X013923Y023764D01*
X013946Y023741D01*
X014107Y023741D01*
X014107Y023074D01*
X014011Y023074D01*
X013991Y023053D01*
X013970Y023074D01*
X013815Y023074D01*
X013805Y023064D01*
X013776Y023081D01*
X013723Y023095D01*
X013696Y023095D01*
X013696Y022650D01*
X013696Y022650D01*
X013696Y023095D01*
X013668Y023095D01*
X013615Y023081D01*
X013586Y023064D01*
X013576Y023074D01*
X013421Y023074D01*
X013381Y023034D01*
X012726Y023689D01*
X009421Y023689D01*
X008422Y024870D01*
X008418Y025661D01*
X008446Y025673D01*
X008554Y025781D01*
X008613Y025923D01*
X008613Y025928D01*
X008617Y025905D01*
X008637Y025844D01*
X008666Y025786D01*
X008704Y025735D01*
X008749Y025689D01*
X008801Y025651D01*
X008858Y025622D01*
X008919Y025603D01*
X008982Y025593D01*
X008986Y025593D01*
X008986Y025971D01*
X009043Y025971D01*
X009043Y025593D01*
X009047Y025593D01*
X009110Y025603D01*
X009171Y025622D01*
X009228Y025651D01*
X009280Y025689D01*
X009325Y025735D01*
X009363Y025786D01*
X009392Y025844D01*
X009412Y025905D01*
X009422Y025968D01*
X009422Y025971D01*
X009043Y025971D01*
X009043Y026029D01*
X008986Y026029D01*
X008986Y026407D01*
X008982Y026407D01*
X008919Y026397D01*
X008858Y026378D01*
X008801Y026349D01*
X008749Y026311D01*
X008704Y026265D01*
X008666Y026214D01*
X008637Y026156D01*
X008617Y026095D01*
X008613Y026072D01*
X008613Y026077D01*
X008554Y026219D01*
X008446Y026327D01*
X008304Y026386D01*
X008150Y026386D01*
X008008Y026327D01*
X007900Y026219D01*
X007841Y026077D01*
X007841Y025923D01*
X007900Y025781D01*
X008008Y025673D01*
X008040Y025659D01*
X008045Y024807D01*
X008039Y024738D01*
X008045Y024730D01*
X008045Y024721D01*
X008095Y024672D01*
X009145Y023431D01*
X009145Y023422D01*
X009194Y023372D01*
X009240Y023318D01*
X009249Y023318D01*
X009255Y023311D01*
X009325Y023311D01*
X009396Y023305D01*
X009402Y023311D01*
X012570Y023311D01*
X013311Y022570D01*
X013311Y022336D01*
X013320Y022327D01*
X013320Y022013D01*
X013422Y021910D01*
X013488Y021844D01*
X013135Y021844D01*
X013135Y021940D01*
X013025Y022050D01*
X012397Y022050D01*
X012287Y021940D01*
X012287Y021784D01*
X012308Y021764D01*
X012287Y021743D01*
X012287Y021588D01*
X012308Y021567D01*
X012287Y021546D01*
X012287Y021391D01*
X012308Y021370D01*
X012287Y021349D01*
X012287Y021194D01*
X012308Y021173D01*
X012287Y021153D01*
X012287Y020997D01*
X012308Y020976D01*
X012287Y020956D01*
X012287Y020800D01*
X012308Y020780D01*
X012287Y020759D01*
X012287Y020603D01*
X012308Y020583D01*
X012287Y020562D01*
X012287Y020406D01*
X012308Y020386D01*
X012287Y020365D01*
X012287Y020210D01*
X012308Y020189D01*
X012287Y020168D01*
X012287Y020013D01*
X012297Y020003D01*
X012280Y019974D01*
X012266Y019921D01*
X012266Y019894D01*
X012711Y019894D01*
X012711Y019894D01*
X012266Y019894D01*
X012266Y019866D01*
X012280Y019813D01*
X012297Y019784D01*
X012287Y019775D01*
X012287Y019683D01*
X012258Y019683D01*
X012048Y019893D01*
X012048Y022516D01*
X012129Y022598D01*
X012176Y022711D01*
X012176Y022833D01*
X012129Y022945D01*
X012043Y023032D01*
X011930Y023079D01*
X011808Y023079D01*
X011695Y023032D01*
X011609Y022945D01*
X011562Y022833D01*
X011562Y022711D01*
X011609Y022598D01*
X011690Y022516D01*
X011690Y019745D01*
X011795Y019640D01*
X012110Y019325D01*
X012287Y019325D01*
X012287Y019225D01*
X012308Y019205D01*
X012287Y019184D01*
X012287Y019029D01*
X012308Y019008D01*
X012287Y018987D01*
X012287Y018832D01*
X012308Y018811D01*
X012287Y018790D01*
X012287Y018635D01*
X012308Y018614D01*
X012287Y018594D01*
X012287Y018438D01*
X012308Y018417D01*
X012287Y018397D01*
X012287Y018241D01*
X012308Y018220D01*
X012287Y018200D01*
X012287Y018044D01*
X012308Y018024D01*
X012287Y018003D01*
X012287Y017847D01*
X012308Y017827D01*
X012287Y017806D01*
X012287Y017651D01*
X012308Y017630D01*
X012287Y017609D01*
X012287Y017454D01*
X012308Y017433D01*
X012287Y017412D01*
X012287Y017257D01*
X012308Y017236D01*
X012287Y017216D01*
X012287Y017060D01*
X012397Y016950D01*
X013025Y016950D01*
X013135Y017060D01*
X013135Y017216D01*
X013115Y017236D01*
X013135Y017257D01*
X013135Y017412D01*
X013115Y017433D01*
X013135Y017454D01*
X013135Y017550D01*
X013331Y017550D01*
X013599Y017281D01*
X013448Y017281D01*
X012620Y016453D01*
X012620Y016557D01*
X012577Y016663D01*
X012496Y016743D01*
X012390Y016787D01*
X012276Y016787D01*
X012171Y016743D01*
X012090Y016663D01*
X012046Y016557D01*
X012046Y016447D01*
X011896Y016280D01*
X011227Y015611D01*
X011227Y015612D01*
X011227Y015741D01*
X010653Y015741D01*
X010653Y015482D01*
X011097Y015482D01*
X011098Y015482D01*
X010850Y015234D01*
X010132Y015234D01*
X010040Y015326D01*
X010040Y015995D01*
X009935Y016100D01*
X009935Y016100D01*
X009856Y016179D01*
X008647Y016179D01*
X008647Y017817D01*
X008653Y017825D01*
X008647Y017902D01*
X008647Y017980D01*
X008640Y017986D01*
X008640Y017996D01*
X008580Y018046D01*
X008526Y018101D01*
X008516Y018101D01*
X007584Y018894D01*
X007584Y018921D01*
X007509Y018997D01*
X006536Y018997D01*
X006460Y018921D01*
X006460Y018579D01*
X006536Y018503D01*
X007403Y018503D01*
X007411Y018497D01*
X006536Y018497D01*
X006460Y018421D01*
X006460Y018079D01*
X006536Y018003D01*
X007509Y018003D01*
X007584Y018079D01*
X007584Y018349D01*
X008232Y017798D01*
X008232Y015444D01*
X008130Y015444D01*
X008055Y015368D01*
X008055Y014632D01*
X008130Y014556D01*
X008244Y014556D01*
X008243Y014525D01*
X008259Y014509D01*
X008264Y014486D01*
X008312Y014454D01*
X008352Y014413D01*
X008375Y014412D01*
X008558Y014290D01*
X008541Y014300D01*
X008503Y014310D01*
X008293Y014310D01*
X008293Y013770D01*
X008193Y013770D01*
X008193Y013670D01*
X007853Y013670D01*
X007853Y013260D01*
X007864Y013222D01*
X007883Y013188D01*
X007911Y013160D01*
X007945Y013140D01*
X007984Y013130D01*
X008193Y013130D01*
X008193Y013670D01*
X008293Y013670D01*
X008293Y013130D01*
X008503Y013130D01*
X008541Y013140D01*
X008575Y013160D01*
X008603Y013188D01*
X008623Y013222D01*
X008633Y013260D01*
X008633Y013670D01*
X008293Y013670D01*
X008293Y013770D01*
X008633Y013770D01*
X008633Y014180D01*
X008623Y014218D01*
X008603Y014252D01*
X008580Y014275D01*
X008845Y014099D01*
X008845Y013228D01*
X008338Y012721D01*
X008338Y012010D01*
X008319Y011991D01*
X008319Y011820D01*
X008325Y011814D01*
X008325Y011075D01*
X008273Y011024D01*
X008226Y010911D01*
X008226Y010789D01*
X008273Y010676D01*
X008360Y010590D01*
X008472Y010543D01*
X008594Y010543D01*
X008707Y010590D01*
X008793Y010676D01*
X008840Y010789D01*
X008840Y010911D01*
X008793Y011024D01*
X008742Y011075D01*
X008742Y011698D01*
X010367Y011698D01*
X010369Y011697D01*
X010453Y011698D01*
X010537Y011698D01*
X010539Y011699D01*
X010761Y011703D01*
X011038Y011426D01*
X011038Y011426D01*
X011056Y011407D01*
X011056Y011210D01*
X011493Y010773D01*
X011493Y010464D01*
X011304Y010464D01*
X011298Y010458D01*
X011292Y010464D01*
X011048Y010464D01*
X010973Y010389D01*
X010973Y009732D01*
X010981Y009724D01*
X010981Y008750D01*
X010890Y008787D01*
X010776Y008787D01*
X010671Y008743D01*
X010616Y008689D01*
X008556Y008689D01*
X008556Y008730D01*
X008480Y008806D01*
X008098Y008806D01*
X008045Y008753D01*
X008035Y008769D01*
X008007Y008797D01*
X007973Y008817D01*
X007935Y008827D01*
X007796Y008827D01*
X007796Y008519D01*
X007759Y008519D01*
X007759Y008827D01*
X007620Y008827D01*
X007583Y008817D01*
X007547Y008827D01*
X007408Y008827D01*
X007408Y008519D01*
X007370Y008519D01*
X007370Y008827D01*
X007232Y008827D01*
X007194Y008817D01*
X007159Y008797D01*
X007131Y008769D01*
X007122Y008753D01*
X007069Y008806D01*
X006686Y008806D01*
X006611Y008730D01*
X006611Y008270D01*
X006680Y008200D01*
X006679Y008198D01*
X006695Y008159D01*
X006696Y008147D01*
X006465Y008051D01*
X006282Y007868D01*
X006183Y007629D01*
X006183Y007371D01*
X006282Y007132D01*
X006465Y006949D01*
X006704Y006850D01*
X006963Y006850D01*
X007202Y006949D01*
X007384Y007132D01*
X007483Y007371D01*
X007483Y007629D01*
X007410Y007806D01*
X007422Y007811D01*
X007616Y007811D01*
X007671Y007757D01*
X007776Y007713D01*
X007890Y007713D01*
X007996Y007757D01*
X008077Y007837D01*
X008120Y007943D01*
X008120Y008057D01*
X008077Y008163D01*
X008022Y008217D01*
X008035Y008231D01*
X008045Y008247D01*
X008098Y008194D01*
X008195Y008194D01*
X008195Y007756D01*
X008015Y007756D01*
X007940Y007680D01*
X007940Y007439D01*
X007890Y007439D01*
X007873Y007450D01*
X007815Y007439D01*
X007755Y007439D01*
X007740Y007424D01*
X007720Y007420D01*
X007687Y007370D01*
X007645Y007328D01*
X007645Y007307D01*
X007232Y006689D01*
X006551Y006689D01*
X006496Y006743D01*
X006390Y006787D01*
X006276Y006787D01*
X006171Y006743D01*
X006090Y006663D01*
X006046Y006557D01*
X006046Y006443D01*
X006090Y006337D01*
X006171Y006257D01*
X006276Y006213D01*
X006390Y006213D01*
X006496Y006257D01*
X006551Y006311D01*
X007276Y006311D01*
X007294Y006300D01*
X007352Y006311D01*
X007412Y006311D01*
X007426Y006326D01*
X007447Y006330D01*
X007480Y006380D01*
X007522Y006422D01*
X007522Y006443D01*
X007934Y007061D01*
X007940Y007061D01*
X007940Y007022D01*
X008015Y006947D01*
X008752Y006947D01*
X008827Y007022D01*
X008827Y007680D01*
X008752Y007756D01*
X008572Y007756D01*
X008572Y008311D01*
X010616Y008311D01*
X010671Y008257D01*
X010776Y008213D01*
X010890Y008213D01*
X010981Y008250D01*
X010981Y008233D01*
X010976Y008227D01*
X010923Y008174D01*
X010876Y008061D01*
X008572Y008061D01*
X008572Y007963D02*
X010876Y007963D01*
X010876Y007939D02*
X010923Y007826D01*
X011010Y007740D01*
X011122Y007693D01*
X011244Y007693D01*
X011357Y007740D01*
X011443Y007826D01*
X011490Y007939D01*
X011490Y008061D01*
X015386Y008061D01*
X015420Y008095D02*
X015339Y008014D01*
X015295Y007907D01*
X015295Y007793D01*
X015339Y007686D01*
X015420Y007605D01*
X015526Y007561D01*
X015606Y007561D01*
X016055Y007112D01*
X016055Y006710D01*
X016130Y006635D01*
X016709Y006635D01*
X016785Y006710D01*
X016785Y007209D01*
X016882Y007112D01*
X016882Y006710D01*
X016957Y006635D01*
X017536Y006635D01*
X017583Y006682D01*
X017583Y006682D01*
X017630Y006635D01*
X018209Y006635D01*
X018285Y006710D01*
X018285Y007290D01*
X018209Y007365D01*
X017958Y007365D01*
X017762Y007561D01*
X017762Y007670D01*
X017828Y007736D01*
X017872Y007843D01*
X017872Y007957D01*
X017828Y008064D01*
X017816Y008076D01*
X018269Y008076D01*
X018333Y008141D01*
X018398Y008076D01*
X018568Y008076D01*
X018568Y007365D01*
X018457Y007365D01*
X018382Y007290D01*
X018382Y006710D01*
X018457Y006635D01*
X019036Y006635D01*
X019112Y006710D01*
X019112Y007290D01*
X019036Y007365D01*
X018925Y007365D01*
X018925Y008076D01*
X019017Y008076D01*
X019092Y008151D01*
X019092Y008849D01*
X019017Y008924D01*
X018398Y008924D01*
X018333Y008859D01*
X018269Y008924D01*
X018012Y008924D01*
X018012Y008926D01*
X018594Y009508D01*
X018946Y009508D01*
X019590Y008864D01*
X019575Y008849D01*
X019092Y008849D01*
X019092Y008751D02*
X019575Y008751D01*
X019575Y008849D02*
X019575Y008151D01*
X019650Y008076D01*
X020269Y008076D01*
X020333Y008141D01*
X020398Y008076D01*
X020505Y008076D01*
X020505Y007929D01*
X020009Y007929D01*
X019905Y007824D01*
X019755Y007674D01*
X019755Y007365D01*
X019630Y007365D01*
X019555Y007290D01*
X019555Y006710D01*
X019630Y006635D01*
X020209Y006635D01*
X020285Y006710D01*
X020285Y007290D01*
X020209Y007365D01*
X020112Y007365D01*
X020112Y007526D01*
X020157Y007571D01*
X020657Y007571D01*
X020757Y007671D01*
X020862Y007776D01*
X020862Y008076D01*
X021017Y008076D01*
X021083Y008143D01*
X021150Y008076D01*
X021769Y008076D01*
X021833Y008141D01*
X021898Y008076D01*
X022068Y008076D01*
X022068Y007365D01*
X021957Y007365D01*
X021882Y007290D01*
X021882Y006710D01*
X021957Y006635D01*
X022536Y006635D01*
X022612Y006710D01*
X022612Y007290D01*
X022536Y007365D01*
X022425Y007365D01*
X022425Y008076D01*
X022517Y008076D01*
X022592Y008151D01*
X022592Y008849D01*
X022517Y008924D01*
X021898Y008924D01*
X021833Y008859D01*
X021769Y008924D01*
X021638Y008924D01*
X021638Y009298D01*
X021533Y009403D01*
X021107Y009829D01*
X019757Y009829D01*
X019622Y009964D01*
X019622Y010057D01*
X019578Y010164D01*
X019497Y010245D01*
X019391Y010289D01*
X019276Y010289D01*
X019170Y010245D01*
X019089Y010164D01*
X019045Y010057D01*
X019045Y009943D01*
X019064Y009896D01*
X018592Y010368D01*
X018592Y010849D01*
X018566Y010875D01*
X018592Y010901D01*
X018592Y011535D01*
X018656Y011644D01*
X018710Y011590D01*
X018750Y011573D01*
X018945Y010680D01*
X018945Y010622D01*
X018592Y010622D01*
X018592Y010524D02*
X019043Y010524D01*
X019014Y010552D02*
X019145Y010422D01*
X019255Y010311D01*
X020088Y010311D01*
X020160Y010240D01*
X020272Y010193D01*
X020394Y010193D01*
X020507Y010240D01*
X020593Y010326D01*
X020640Y010439D01*
X020640Y010561D01*
X020593Y010674D01*
X020507Y010760D01*
X020394Y010807D01*
X020272Y010807D01*
X020160Y010760D01*
X020088Y010689D01*
X019412Y010689D01*
X019306Y010794D01*
X019119Y011652D01*
X019143Y011676D01*
X019190Y011789D01*
X019190Y011911D01*
X019165Y011971D01*
X019596Y011971D01*
X019589Y011964D01*
X019545Y011857D01*
X019545Y011743D01*
X019589Y011636D01*
X019670Y011555D01*
X019776Y011511D01*
X019891Y011511D01*
X019997Y011555D01*
X020050Y011609D01*
X021972Y011609D01*
X022367Y011213D01*
X022402Y011179D01*
X019863Y011179D01*
X019797Y011245D01*
X019691Y011289D01*
X019576Y011289D01*
X019470Y011245D01*
X019389Y011164D01*
X019345Y011057D01*
X019345Y010943D01*
X019389Y010836D01*
X019470Y010755D01*
X019576Y010711D01*
X019691Y010711D01*
X019797Y010755D01*
X019863Y010821D01*
X022259Y010821D01*
X022290Y010790D01*
X021662Y010790D01*
X021586Y010715D01*
X021586Y009899D01*
X021662Y009824D01*
X022320Y009824D01*
X022395Y009899D01*
X022395Y010685D01*
X022655Y010426D01*
X022759Y010321D01*
X023181Y010321D01*
X023259Y010243D01*
X023668Y010243D01*
X023589Y010164D01*
X023545Y010057D01*
X023545Y009943D01*
X023589Y009836D01*
X023655Y009770D01*
X023655Y008944D01*
X023087Y008944D01*
X023012Y008868D01*
X023012Y008132D01*
X023087Y008056D01*
X024099Y008056D01*
X024175Y008132D01*
X024175Y008868D01*
X024099Y008944D01*
X024012Y008944D01*
X024012Y009770D01*
X024078Y009836D01*
X024122Y009943D01*
X024122Y010057D01*
X024078Y010164D01*
X023999Y010243D01*
X025622Y010243D01*
X025622Y010210D01*
X025628Y010205D01*
X025622Y010199D01*
X025622Y009777D01*
X025697Y009702D01*
X026395Y009702D01*
X026470Y009777D01*
X026470Y010199D01*
X026464Y010205D01*
X026470Y010210D01*
X026470Y010243D01*
X026829Y010243D01*
X028003Y011417D01*
X028003Y006416D01*
X027993Y006281D01*
X027909Y006023D01*
X027750Y005804D01*
X027815Y005894D02*
X008826Y005894D01*
X008818Y005881D02*
X008838Y005915D01*
X008848Y005953D01*
X008848Y006199D01*
X008433Y006199D01*
X008433Y005823D01*
X008718Y005823D01*
X008756Y005833D01*
X008790Y005853D01*
X008818Y005881D01*
X008848Y005993D02*
X027887Y005993D01*
X027931Y006091D02*
X008848Y006091D01*
X008848Y006190D02*
X027963Y006190D01*
X027993Y006288D02*
X008433Y006288D01*
X008433Y006299D02*
X008848Y006299D01*
X008848Y006544D01*
X008838Y006582D01*
X008818Y006617D01*
X008790Y006644D01*
X008756Y006664D01*
X008718Y006674D01*
X008433Y006674D01*
X008433Y006299D01*
X008333Y006299D01*
X008333Y006199D01*
X007918Y006199D01*
X007918Y005953D01*
X007929Y005915D01*
X007948Y005881D01*
X007976Y005853D01*
X008010Y005833D01*
X008049Y005823D01*
X008333Y005823D01*
X008333Y006199D01*
X008433Y006199D01*
X008433Y006299D01*
X008433Y006387D02*
X008333Y006387D01*
X008333Y006299D02*
X008333Y006674D01*
X008049Y006674D01*
X008010Y006664D01*
X007976Y006644D01*
X007948Y006617D01*
X007929Y006582D01*
X007918Y006544D01*
X007918Y006299D01*
X008333Y006299D01*
X008333Y006288D02*
X006527Y006288D01*
X006139Y006288D02*
X005691Y006288D01*
X005634Y006387D02*
X006070Y006387D01*
X006046Y006485D02*
X005587Y006485D01*
X005560Y006584D02*
X006057Y006584D01*
X006109Y006682D02*
X005534Y006682D01*
X005508Y006781D02*
X006260Y006781D01*
X006407Y006781D02*
X007293Y006781D01*
X007359Y006879D02*
X007033Y006879D01*
X007230Y006978D02*
X007425Y006978D01*
X007490Y007076D02*
X007329Y007076D01*
X007402Y007175D02*
X007556Y007175D01*
X007622Y007273D02*
X007443Y007273D01*
X007483Y007372D02*
X007687Y007372D01*
X007483Y007470D02*
X007940Y007470D01*
X007940Y007569D02*
X007483Y007569D01*
X007468Y007667D02*
X007940Y007667D01*
X008005Y007766D02*
X008195Y007766D01*
X008195Y007864D02*
X008088Y007864D01*
X008120Y007963D02*
X008195Y007963D01*
X008195Y008061D02*
X008119Y008061D01*
X008078Y008160D02*
X008195Y008160D01*
X008572Y008160D02*
X010917Y008160D01*
X010876Y008061D02*
X010876Y007939D01*
X010908Y007864D02*
X008572Y007864D01*
X008572Y007766D02*
X010984Y007766D01*
X011139Y007569D02*
X008827Y007569D01*
X008827Y007667D02*
X011283Y007667D01*
X011206Y007635D02*
X011012Y007441D01*
X010907Y007187D01*
X010907Y006913D01*
X011012Y006659D01*
X011206Y006465D01*
X011459Y006360D01*
X011734Y006360D01*
X011987Y006465D01*
X012181Y006659D01*
X012286Y006913D01*
X012286Y007187D01*
X012181Y007441D01*
X011987Y007635D01*
X011734Y007740D01*
X011459Y007740D01*
X011206Y007635D01*
X011383Y007766D02*
X015306Y007766D01*
X015295Y007864D02*
X011459Y007864D01*
X011490Y007963D02*
X015317Y007963D01*
X015420Y008095D02*
X015526Y008139D01*
X015641Y008139D01*
X015747Y008095D01*
X015828Y008014D01*
X015872Y007907D01*
X015872Y007801D01*
X016308Y007365D01*
X016629Y007365D01*
X016385Y007609D01*
X016281Y007713D01*
X016281Y008076D01*
X016150Y008076D01*
X016075Y008151D01*
X016075Y008849D01*
X014014Y008849D01*
X014012Y008844D02*
X014041Y008901D01*
X014061Y008962D01*
X014071Y009026D01*
X014071Y009029D01*
X013692Y009029D01*
X013692Y009087D01*
X013635Y009087D01*
X013635Y009465D01*
X013631Y009465D01*
X013568Y009455D01*
X013507Y009435D01*
X013450Y009406D01*
X013398Y009369D01*
X013352Y009323D01*
X013336Y009301D01*
X013252Y009385D01*
X013110Y009444D01*
X012957Y009444D01*
X012815Y009385D01*
X012718Y009289D01*
X012638Y009369D01*
X012638Y009636D01*
X012705Y009636D01*
X012705Y010061D01*
X012705Y010486D01*
X012617Y010486D01*
X012579Y010475D01*
X012560Y010464D01*
X012328Y010464D01*
X012322Y010458D01*
X012315Y010464D01*
X012083Y010464D01*
X012064Y010475D01*
X012026Y010486D01*
X011938Y010486D01*
X011938Y010061D01*
X011938Y010061D01*
X011938Y010486D01*
X011870Y010486D01*
X011870Y010930D01*
X011760Y011040D01*
X011434Y011367D01*
X011434Y011407D01*
X011452Y011426D01*
X011719Y011692D01*
X013641Y011688D01*
X013643Y011687D01*
X013919Y011687D01*
X013921Y011688D01*
X014765Y011686D01*
X014851Y011686D01*
X014937Y011686D01*
X015163Y011686D01*
X015285Y011808D01*
X015285Y011813D01*
X015975Y012503D01*
X015975Y011414D01*
X016097Y011291D01*
X017075Y011291D01*
X017075Y010901D01*
X017101Y010875D01*
X017075Y010849D01*
X017075Y010709D01*
X017059Y010709D01*
X017007Y010760D01*
X016894Y010807D01*
X016772Y010807D01*
X016660Y010760D01*
X016573Y010674D01*
X016526Y010561D01*
X016526Y010439D01*
X016573Y010326D01*
X016660Y010240D01*
X016772Y010193D01*
X016894Y010193D01*
X017007Y010240D01*
X017059Y010291D01*
X017075Y010291D01*
X017075Y010151D01*
X017150Y010076D01*
X017281Y010076D01*
X017281Y010050D01*
X017385Y009945D01*
X017385Y009945D01*
X017495Y009836D01*
X017495Y009743D01*
X017539Y009636D01*
X017620Y009555D01*
X017726Y009511D01*
X017841Y009511D01*
X017947Y009555D01*
X018028Y009636D01*
X018072Y009743D01*
X018072Y009857D01*
X018028Y009964D01*
X017947Y010045D01*
X017841Y010089D01*
X017781Y010089D01*
X017833Y010141D01*
X017898Y010076D01*
X018379Y010076D01*
X018589Y009866D01*
X018446Y009866D01*
X018342Y009761D01*
X017655Y009074D01*
X017655Y008924D01*
X017650Y008924D01*
X017583Y008857D01*
X017517Y008924D01*
X016898Y008924D01*
X016833Y008859D01*
X016769Y008924D01*
X016150Y008924D01*
X016075Y008849D01*
X016075Y008751D02*
X013932Y008751D01*
X013929Y008747D02*
X013974Y008792D01*
X014012Y008844D01*
X014056Y008948D02*
X017655Y008948D01*
X017655Y009046D02*
X013692Y009046D01*
X013692Y009087D02*
X014071Y009087D01*
X014071Y009090D01*
X014061Y009153D01*
X014041Y009214D01*
X014012Y009271D01*
X013974Y009323D01*
X013929Y009369D01*
X013877Y009406D01*
X013820Y009435D01*
X013759Y009455D01*
X013695Y009465D01*
X013692Y009465D01*
X013692Y009087D01*
X013692Y009145D02*
X013635Y009145D01*
X013635Y009243D02*
X013692Y009243D01*
X013692Y009342D02*
X013635Y009342D01*
X013635Y009440D02*
X013692Y009440D01*
X013806Y009440D02*
X018021Y009440D01*
X018119Y009539D02*
X017907Y009539D01*
X018028Y009637D02*
X018218Y009637D01*
X018316Y009736D02*
X018069Y009736D01*
X018072Y009834D02*
X018415Y009834D01*
X018522Y009933D02*
X018041Y009933D01*
X017961Y010031D02*
X018424Y010031D01*
X018520Y009687D02*
X019020Y009687D01*
X019959Y008748D01*
X019959Y008500D01*
X019575Y008455D02*
X019092Y008455D01*
X019092Y008357D02*
X019575Y008357D01*
X019575Y008258D02*
X019092Y008258D01*
X019092Y008160D02*
X019575Y008160D01*
X019575Y008554D02*
X019092Y008554D01*
X019092Y008652D02*
X019575Y008652D01*
X019507Y008948D02*
X018034Y008948D01*
X018132Y009046D02*
X019409Y009046D01*
X019310Y009145D02*
X018231Y009145D01*
X018329Y009243D02*
X019212Y009243D01*
X019113Y009342D02*
X018428Y009342D01*
X018526Y009440D02*
X019015Y009440D01*
X019020Y009687D02*
X018207Y010500D01*
X017459Y011250D01*
X018359Y012150D01*
X020833Y012150D01*
X021033Y012000D01*
X022333Y012000D01*
X022613Y011720D01*
X026125Y011720D01*
X026554Y011720D01*
X027333Y012500D01*
X027333Y013000D01*
X026333Y014000D01*
X025333Y014000D01*
X023233Y016100D01*
X022862Y016434D02*
X022812Y016434D01*
X022812Y016384D02*
X022812Y016726D01*
X022857Y016771D01*
X023027Y016601D01*
X023440Y016601D01*
X023732Y016893D01*
X023732Y017307D01*
X023454Y017585D01*
X023748Y017880D01*
X024027Y017601D01*
X024440Y017601D01*
X024655Y017816D01*
X024655Y017774D01*
X024460Y017579D01*
X024440Y017599D01*
X024027Y017599D01*
X023735Y017307D01*
X023735Y016893D01*
X024027Y016601D01*
X024440Y016601D01*
X024732Y016893D01*
X024732Y017307D01*
X024712Y017326D01*
X024907Y017521D01*
X024907Y017521D01*
X025012Y017626D01*
X025012Y018574D01*
X024907Y018679D01*
X024865Y018721D01*
X025294Y018850D01*
X028003Y018850D01*
X028003Y015264D01*
X027994Y015270D01*
X027955Y015280D01*
X027612Y015280D01*
X027612Y014904D01*
X027512Y014904D01*
X027512Y014804D01*
X027612Y014804D01*
X027612Y014429D01*
X027955Y014429D01*
X027994Y014439D01*
X028003Y014445D01*
X028003Y013083D01*
X027907Y013179D01*
X026407Y014679D01*
X025907Y014679D01*
X024712Y015874D01*
X024732Y015893D01*
X024732Y016307D01*
X024440Y016599D01*
X024027Y016599D01*
X023735Y016307D01*
X023735Y015893D01*
X024027Y015601D01*
X024440Y015601D01*
X024460Y015621D01*
X025655Y014426D01*
X025759Y014321D01*
X026259Y014321D01*
X026402Y014179D01*
X025407Y014179D01*
X023712Y015874D01*
X023732Y015893D01*
X023732Y016307D01*
X023440Y016599D01*
X023027Y016599D01*
X022812Y016384D01*
X022812Y016532D02*
X022960Y016532D01*
X022997Y016631D02*
X022812Y016631D01*
X022815Y016729D02*
X022899Y016729D01*
X022633Y016800D02*
X022833Y017000D01*
X022333Y017000D01*
X022212Y017262D02*
X022212Y018080D01*
X022712Y018621D01*
X023659Y018621D01*
X023854Y018426D01*
X023748Y018320D01*
X023449Y018620D01*
X023283Y018620D01*
X023283Y018150D01*
X023183Y018150D01*
X023183Y018050D01*
X022713Y018050D01*
X022713Y017885D01*
X023013Y017585D01*
X022735Y017307D01*
X022735Y017179D01*
X022563Y017179D01*
X022497Y017245D01*
X022391Y017289D01*
X022276Y017289D01*
X022212Y017262D01*
X022212Y017320D02*
X022748Y017320D01*
X022735Y017222D02*
X022520Y017222D01*
X022212Y017419D02*
X022847Y017419D01*
X022945Y017517D02*
X022212Y017517D01*
X022212Y017616D02*
X022982Y017616D01*
X022884Y017714D02*
X022212Y017714D01*
X022212Y017813D02*
X022785Y017813D01*
X022713Y017911D02*
X022212Y017911D01*
X022212Y018010D02*
X022713Y018010D01*
X022713Y018150D02*
X023183Y018150D01*
X023183Y018620D01*
X023018Y018620D01*
X022713Y018315D01*
X022713Y018150D01*
X022713Y018207D02*
X022329Y018207D01*
X022420Y018305D02*
X022713Y018305D01*
X022801Y018404D02*
X022511Y018404D01*
X022602Y018502D02*
X022900Y018502D01*
X022998Y018601D02*
X022692Y018601D01*
X022633Y018800D02*
X022033Y018150D01*
X022033Y014150D01*
X021983Y014150D01*
X021833Y014000D01*
X016459Y014000D01*
X016333Y013874D01*
X015353Y013874D01*
X015333Y013894D01*
X014286Y014941D01*
X014286Y016350D01*
X014483Y016350D02*
X014483Y016929D01*
X014310Y017102D01*
X013522Y017102D01*
X012577Y016157D01*
X012026Y016157D01*
X012333Y016500D01*
X012077Y016631D02*
X011227Y016631D01*
X011227Y016612D02*
X011227Y016741D01*
X010653Y016741D01*
X010653Y016259D01*
X010635Y016259D01*
X010635Y016241D01*
X010061Y016241D01*
X010061Y016112D01*
X010072Y016074D01*
X010091Y016040D01*
X010119Y016012D01*
X010140Y016000D01*
X010119Y015988D01*
X010091Y015960D01*
X010072Y015926D01*
X010061Y015888D01*
X010061Y015759D01*
X010635Y015759D01*
X010635Y015741D01*
X010061Y015741D01*
X010061Y015612D01*
X010072Y015574D01*
X010091Y015540D01*
X010119Y015512D01*
X010153Y015492D01*
X010192Y015482D01*
X010635Y015482D01*
X010635Y015741D01*
X010653Y015741D01*
X010653Y015759D01*
X010635Y015759D01*
X010635Y016241D01*
X010653Y016241D01*
X010653Y015982D01*
X010653Y015759D01*
X011227Y015759D01*
X011227Y015888D01*
X011217Y015926D01*
X011197Y015960D01*
X011170Y015988D01*
X011149Y016000D01*
X011170Y016012D01*
X011197Y016040D01*
X011217Y016074D01*
X011227Y016112D01*
X011227Y016241D01*
X010653Y016241D01*
X010653Y016259D01*
X011227Y016259D01*
X011227Y016388D01*
X011217Y016426D01*
X011197Y016460D01*
X011170Y016488D01*
X011149Y016500D01*
X011170Y016512D01*
X011197Y016540D01*
X011217Y016574D01*
X011227Y016612D01*
X011190Y016532D02*
X012046Y016532D01*
X012034Y016434D02*
X011213Y016434D01*
X011227Y016335D02*
X011945Y016335D01*
X011853Y016237D02*
X011227Y016237D01*
X011227Y016138D02*
X011754Y016138D01*
X011656Y016040D02*
X011197Y016040D01*
X011209Y015941D02*
X011557Y015941D01*
X011459Y015843D02*
X011227Y015843D01*
X011360Y015744D02*
X010653Y015744D01*
X010635Y015744D02*
X010040Y015744D01*
X010040Y015646D02*
X010061Y015646D01*
X010040Y015547D02*
X010087Y015547D01*
X010040Y015449D02*
X011065Y015449D01*
X010966Y015350D02*
X010040Y015350D01*
X010114Y015252D02*
X010868Y015252D01*
X010924Y015055D02*
X010058Y015055D01*
X009861Y015252D01*
X009861Y015921D01*
X009782Y016000D01*
X008440Y016000D01*
X008232Y016040D02*
X007575Y016040D01*
X007595Y016074D01*
X007605Y016112D01*
X007605Y016241D01*
X007031Y016241D01*
X007031Y015759D01*
X007013Y015759D01*
X007013Y015741D01*
X006439Y015741D01*
X006439Y015612D01*
X006449Y015574D01*
X006469Y015540D01*
X006497Y015512D01*
X006531Y015492D01*
X006569Y015482D01*
X007013Y015482D01*
X007013Y015741D01*
X007031Y015741D01*
X007031Y015482D01*
X007475Y015482D01*
X007513Y015492D01*
X007547Y015512D01*
X007575Y015540D01*
X007595Y015574D01*
X007605Y015612D01*
X007605Y015741D01*
X007031Y015741D01*
X007031Y015759D01*
X007605Y015759D01*
X007605Y015888D01*
X007595Y015926D01*
X007575Y015960D01*
X007547Y015988D01*
X007527Y016000D01*
X007547Y016012D01*
X007575Y016040D01*
X007586Y015941D02*
X008232Y015941D01*
X008232Y015843D02*
X007605Y015843D01*
X007605Y015646D02*
X008232Y015646D01*
X008232Y015744D02*
X007031Y015744D01*
X007013Y015744D02*
X006257Y015744D01*
X006257Y015646D02*
X006439Y015646D01*
X006465Y015547D02*
X006257Y015547D01*
X006257Y015449D02*
X008232Y015449D01*
X008232Y015547D02*
X007580Y015547D01*
X007031Y015547D02*
X007013Y015547D01*
X007013Y015646D02*
X007031Y015646D01*
X007013Y015759D02*
X006439Y015759D01*
X006439Y015888D01*
X006449Y015926D01*
X006469Y015960D01*
X006497Y015988D01*
X006518Y016000D01*
X006497Y016012D01*
X006469Y016040D01*
X006449Y016074D01*
X006439Y016112D01*
X006439Y016241D01*
X007013Y016241D01*
X007013Y016259D01*
X006439Y016259D01*
X006439Y016388D01*
X006449Y016426D01*
X006469Y016460D01*
X006497Y016488D01*
X006518Y016500D01*
X006497Y016512D01*
X006469Y016540D01*
X006449Y016574D01*
X006439Y016612D01*
X006439Y016741D01*
X007013Y016741D01*
X007013Y016759D01*
X006439Y016759D01*
X006439Y016888D01*
X006449Y016926D01*
X006469Y016960D01*
X006497Y016988D01*
X006518Y017000D01*
X006497Y017012D01*
X006469Y017040D01*
X006449Y017074D01*
X006439Y017112D01*
X006439Y017241D01*
X007013Y017241D01*
X007013Y017259D01*
X006439Y017259D01*
X006439Y017388D01*
X006449Y017426D01*
X006469Y017460D01*
X006497Y017488D01*
X006531Y017508D01*
X006460Y017579D01*
X006460Y017921D01*
X006536Y017997D01*
X007509Y017997D01*
X007584Y017921D01*
X007584Y017579D01*
X007513Y017508D01*
X007547Y017488D01*
X007575Y017460D01*
X007595Y017426D01*
X007605Y017388D01*
X007605Y017259D01*
X007031Y017259D01*
X007031Y017241D01*
X007031Y016982D01*
X007031Y016759D01*
X007013Y016759D01*
X007013Y017241D01*
X007031Y017241D01*
X007605Y017241D01*
X007605Y017112D01*
X007595Y017074D01*
X007575Y017040D01*
X007547Y017012D01*
X007527Y017000D01*
X007547Y016988D01*
X007575Y016960D01*
X007595Y016926D01*
X008232Y016926D01*
X008232Y016828D02*
X007605Y016828D01*
X007605Y016888D02*
X007595Y016926D01*
X007605Y016888D02*
X007605Y016759D01*
X007031Y016759D01*
X007031Y016741D01*
X007031Y016259D01*
X007013Y016259D01*
X007013Y016518D01*
X007013Y016741D01*
X007031Y016741D01*
X007605Y016741D01*
X007605Y016612D01*
X007595Y016574D01*
X007575Y016540D01*
X007547Y016512D01*
X007527Y016500D01*
X007547Y016488D01*
X007575Y016460D01*
X007595Y016426D01*
X007605Y016388D01*
X007605Y016259D01*
X007031Y016259D01*
X007031Y016241D01*
X007013Y016241D01*
X007013Y016018D01*
X007013Y015759D01*
X007013Y015843D02*
X007031Y015843D01*
X007031Y015941D02*
X007013Y015941D01*
X007013Y016040D02*
X007031Y016040D01*
X007031Y016138D02*
X007013Y016138D01*
X007013Y016237D02*
X007031Y016237D01*
X007031Y016335D02*
X007013Y016335D01*
X007013Y016434D02*
X007031Y016434D01*
X007031Y016532D02*
X007013Y016532D01*
X007013Y016631D02*
X007031Y016631D01*
X007031Y016729D02*
X007013Y016729D01*
X007013Y016828D02*
X007031Y016828D01*
X007031Y016926D02*
X007013Y016926D01*
X007013Y017025D02*
X007031Y017025D01*
X007031Y017123D02*
X007013Y017123D01*
X007013Y017222D02*
X007031Y017222D01*
X007560Y017025D02*
X008232Y017025D01*
X008232Y017123D02*
X007605Y017123D01*
X007605Y017222D02*
X008232Y017222D01*
X008232Y017320D02*
X007605Y017320D01*
X007597Y017419D02*
X008232Y017419D01*
X008232Y017517D02*
X007523Y017517D01*
X007584Y017616D02*
X008232Y017616D01*
X008232Y017714D02*
X007584Y017714D01*
X007584Y017813D02*
X008215Y017813D01*
X008099Y017911D02*
X007584Y017911D01*
X007515Y018010D02*
X007983Y018010D01*
X007868Y018108D02*
X007584Y018108D01*
X007584Y018207D02*
X007752Y018207D01*
X007636Y018305D02*
X007584Y018305D01*
X007405Y018502D02*
X006257Y018502D01*
X006257Y018404D02*
X006460Y018404D01*
X006460Y018305D02*
X006257Y018305D01*
X006257Y018207D02*
X006460Y018207D01*
X006460Y018108D02*
X006257Y018108D01*
X006257Y018010D02*
X006530Y018010D01*
X006460Y017911D02*
X006257Y017911D01*
X006257Y017813D02*
X006460Y017813D01*
X006460Y017714D02*
X006257Y017714D01*
X006257Y017616D02*
X006460Y017616D01*
X006522Y017517D02*
X006257Y017517D01*
X006257Y017419D02*
X006447Y017419D01*
X006439Y017320D02*
X006257Y017320D01*
X006257Y017222D02*
X006439Y017222D01*
X006439Y017123D02*
X006257Y017123D01*
X006257Y017025D02*
X006484Y017025D01*
X006449Y016926D02*
X006257Y016926D01*
X006257Y016828D02*
X006439Y016828D01*
X006439Y016729D02*
X006257Y016729D01*
X006257Y016631D02*
X006439Y016631D01*
X006477Y016532D02*
X006257Y016532D01*
X006257Y016434D02*
X006454Y016434D01*
X006439Y016335D02*
X006257Y016335D01*
X006257Y016237D02*
X006439Y016237D01*
X006439Y016138D02*
X006257Y016138D01*
X006257Y016040D02*
X006469Y016040D01*
X006458Y015941D02*
X006257Y015941D01*
X006257Y015843D02*
X006439Y015843D01*
X006257Y015350D02*
X008055Y015350D01*
X008055Y015252D02*
X006257Y015252D01*
X006257Y015153D02*
X008055Y015153D01*
X008055Y015055D02*
X006257Y015055D01*
X006257Y014956D02*
X008055Y014956D01*
X008055Y014858D02*
X006257Y014858D01*
X006299Y014759D02*
X008055Y014759D01*
X008055Y014661D02*
X006397Y014661D01*
X006496Y014562D02*
X008125Y014562D01*
X008298Y014464D02*
X006594Y014464D01*
X006693Y014365D02*
X008446Y014365D01*
X008589Y014267D02*
X008593Y014267D01*
X008633Y014168D02*
X008741Y014168D01*
X008845Y014070D02*
X008633Y014070D01*
X008633Y013971D02*
X008845Y013971D01*
X008845Y013873D02*
X008633Y013873D01*
X008633Y013774D02*
X008845Y013774D01*
X008845Y013676D02*
X008293Y013676D01*
X008293Y013774D02*
X008193Y013774D01*
X008193Y013770D02*
X008193Y014310D01*
X007984Y014310D01*
X007945Y014300D01*
X007911Y014280D01*
X007883Y014252D01*
X007864Y014218D01*
X007853Y014180D01*
X007853Y013770D01*
X008193Y013770D01*
X008193Y013676D02*
X007702Y013676D01*
X007702Y013774D02*
X007853Y013774D01*
X007853Y013873D02*
X007702Y013873D01*
X007702Y013971D02*
X007853Y013971D01*
X007853Y014070D02*
X007702Y014070D01*
X007702Y014168D02*
X007853Y014168D01*
X007898Y014267D02*
X007649Y014267D01*
X007627Y014289D02*
X007702Y014213D01*
X007702Y013227D01*
X007627Y013151D01*
X007522Y013151D01*
X007522Y012510D01*
X007530Y012443D01*
X007522Y012434D01*
X007522Y012422D01*
X007474Y012374D01*
X007220Y012057D01*
X007220Y011943D01*
X007179Y011842D01*
X008095Y011842D01*
X008171Y011766D01*
X008171Y010794D01*
X008095Y010718D01*
X008075Y010718D01*
X008099Y010694D01*
X008119Y010660D01*
X008129Y010622D01*
X008327Y010622D01*
X008255Y010721D02*
X008098Y010721D01*
X008129Y010622D02*
X008129Y010337D01*
X007773Y010337D01*
X007773Y010237D01*
X007773Y009822D01*
X007999Y009822D01*
X008037Y009833D01*
X008071Y009852D01*
X008099Y009880D01*
X008119Y009915D01*
X008129Y009953D01*
X008129Y010237D01*
X007773Y010237D01*
X007673Y010237D01*
X007673Y009822D01*
X007447Y009822D01*
X007409Y009833D01*
X007375Y009852D01*
X007347Y009880D01*
X007327Y009915D01*
X007320Y009941D01*
X007320Y009919D01*
X007245Y009844D01*
X006626Y009844D01*
X006551Y009919D01*
X006551Y010656D01*
X006613Y010718D01*
X006571Y010718D01*
X006496Y010794D01*
X006496Y011766D01*
X006571Y011842D01*
X006688Y011842D01*
X006646Y011943D01*
X006646Y012057D01*
X006690Y012163D01*
X006771Y012243D01*
X006876Y012287D01*
X006921Y012287D01*
X007145Y012566D01*
X007145Y013151D01*
X007040Y013151D01*
X006965Y013227D01*
X006965Y014213D01*
X007040Y014289D01*
X007627Y014289D01*
X007018Y014267D02*
X006786Y014267D01*
X006827Y014168D02*
X006965Y014168D01*
X006965Y014070D02*
X006847Y014070D01*
X006847Y013971D02*
X006965Y013971D01*
X006965Y013873D02*
X006847Y013873D01*
X006847Y013774D02*
X006965Y013774D01*
X006965Y013676D02*
X006847Y013676D01*
X006847Y013577D02*
X006965Y013577D01*
X006965Y013479D02*
X006847Y013479D01*
X006847Y013380D02*
X006965Y013380D01*
X006965Y013282D02*
X006847Y013282D01*
X006847Y013183D02*
X007008Y013183D01*
X007145Y013085D02*
X006818Y013085D01*
X006769Y012986D02*
X007145Y012986D01*
X007145Y012888D02*
X006670Y012888D01*
X006572Y012789D02*
X007145Y012789D01*
X007145Y012691D02*
X006473Y012691D01*
X006457Y012592D02*
X007145Y012592D01*
X007086Y012494D02*
X006457Y012494D01*
X006457Y012395D02*
X007008Y012395D01*
X006929Y012297D02*
X006457Y012297D01*
X006457Y012198D02*
X006725Y012198D01*
X006664Y012100D02*
X006457Y012100D01*
X006457Y012001D02*
X006646Y012001D01*
X006663Y011903D02*
X006457Y011903D01*
X006457Y011804D02*
X006534Y011804D01*
X006496Y011706D02*
X006457Y011706D01*
X006457Y011607D02*
X006496Y011607D01*
X006496Y011509D02*
X006457Y011509D01*
X006457Y011410D02*
X006496Y011410D01*
X006496Y011312D02*
X006457Y011312D01*
X006457Y011213D02*
X006496Y011213D01*
X006496Y011115D02*
X006457Y011115D01*
X006457Y011016D02*
X006496Y011016D01*
X006496Y010918D02*
X006457Y010918D01*
X006457Y010819D02*
X006496Y010819D01*
X006457Y010721D02*
X006569Y010721D01*
X006551Y010622D02*
X006457Y010622D01*
X006457Y010524D02*
X006551Y010524D01*
X006551Y010425D02*
X006457Y010425D01*
X006457Y010327D02*
X006551Y010327D01*
X006551Y010228D02*
X006457Y010228D01*
X006457Y010130D02*
X006551Y010130D01*
X006551Y010031D02*
X006457Y010031D01*
X006457Y009933D02*
X006551Y009933D01*
X006457Y009834D02*
X007407Y009834D01*
X007323Y009933D02*
X007320Y009933D01*
X007673Y009933D02*
X007773Y009933D01*
X007773Y010031D02*
X007673Y010031D01*
X007673Y010130D02*
X007773Y010130D01*
X007773Y010228D02*
X007673Y010228D01*
X007773Y010327D02*
X008647Y010327D01*
X008700Y010425D02*
X008129Y010425D01*
X008129Y010524D02*
X008752Y010524D01*
X008739Y010622D02*
X008805Y010622D01*
X008812Y010721D02*
X008858Y010721D01*
X008840Y010819D02*
X008911Y010819D01*
X008938Y010918D02*
X008838Y010918D01*
X008797Y011016D02*
X008938Y011016D01*
X008938Y011115D02*
X008742Y011115D01*
X008742Y011213D02*
X008962Y011213D01*
X009003Y011312D02*
X008742Y011312D01*
X008742Y011410D02*
X009100Y011410D01*
X008742Y011509D02*
X010257Y011509D01*
X010262Y011510D02*
X010194Y011488D01*
X010131Y011456D01*
X010074Y011414D01*
X010024Y011364D01*
X009982Y011307D01*
X009950Y011244D01*
X009928Y011177D01*
X009917Y011107D01*
X009917Y010821D01*
X010317Y010821D01*
X010317Y010721D01*
X010417Y010721D01*
X010417Y010024D01*
X010473Y010032D01*
X010540Y010054D01*
X010603Y010086D01*
X010660Y010128D01*
X010710Y010178D01*
X010752Y010235D01*
X010784Y010299D01*
X010806Y010366D01*
X010817Y010436D01*
X010817Y010721D01*
X010417Y010721D01*
X010417Y010821D01*
X010817Y010821D01*
X010817Y011107D01*
X010806Y011177D01*
X010784Y011244D01*
X010752Y011307D01*
X010710Y011364D01*
X010660Y011414D01*
X010603Y011456D01*
X010540Y011488D01*
X010473Y011510D01*
X010417Y011519D01*
X010417Y010821D01*
X010317Y010821D01*
X010317Y011519D01*
X010262Y011510D01*
X010317Y011509D02*
X010417Y011509D01*
X010478Y011509D02*
X010955Y011509D01*
X010856Y011607D02*
X008742Y011607D01*
X008325Y011607D02*
X008171Y011607D01*
X008171Y011509D02*
X008325Y011509D01*
X008325Y011410D02*
X008171Y011410D01*
X008171Y011312D02*
X008325Y011312D01*
X008325Y011213D02*
X008171Y011213D01*
X008171Y011115D02*
X008325Y011115D01*
X008270Y011016D02*
X008171Y011016D01*
X008171Y010918D02*
X008229Y010918D01*
X008226Y010819D02*
X008171Y010819D01*
X008129Y010228D02*
X008568Y010228D01*
X008469Y010130D02*
X008129Y010130D01*
X008129Y010031D02*
X008371Y010031D01*
X008272Y009933D02*
X008124Y009933D01*
X008174Y009834D02*
X008039Y009834D01*
X007773Y009834D02*
X007673Y009834D01*
X008585Y009046D02*
X010981Y009046D01*
X010981Y008948D02*
X008409Y008948D01*
X008536Y008751D02*
X010688Y008751D01*
X010979Y008751D02*
X010981Y008751D01*
X010981Y008849D02*
X006531Y008849D01*
X006546Y008751D02*
X006631Y008751D01*
X006611Y008652D02*
X006546Y008652D01*
X006611Y008554D02*
X006131Y008554D01*
X006131Y008478D02*
X006546Y008478D01*
X006546Y008252D01*
X006535Y008214D01*
X006516Y008180D01*
X006488Y008152D01*
X006453Y008132D01*
X006415Y008122D01*
X006131Y008122D01*
X006131Y008478D01*
X006131Y008455D02*
X006031Y008455D01*
X006031Y008478D02*
X006031Y008122D01*
X005746Y008122D01*
X005708Y008132D01*
X005674Y008152D01*
X005646Y008180D01*
X005626Y008214D01*
X005616Y008252D01*
X005616Y008478D01*
X006031Y008478D01*
X006031Y008554D02*
X005483Y008554D01*
X005483Y008652D02*
X005616Y008652D01*
X005616Y008751D02*
X005483Y008751D01*
X005483Y008849D02*
X005630Y008849D01*
X005695Y008948D02*
X005483Y008948D01*
X005483Y009046D02*
X005637Y009046D01*
X005637Y009145D02*
X005483Y009145D01*
X005483Y009243D02*
X005624Y009243D01*
X005609Y009342D02*
X005483Y009342D01*
X005483Y009440D02*
X005609Y009440D01*
X005609Y009539D02*
X005483Y009539D01*
X005483Y009637D02*
X005609Y009637D01*
X005609Y009736D02*
X005483Y009736D01*
X005483Y009834D02*
X005609Y009834D01*
X005609Y009933D02*
X005483Y009933D01*
X005483Y010031D02*
X005609Y010031D01*
X005609Y010130D02*
X005483Y010130D01*
X005483Y010228D02*
X005609Y010228D01*
X005609Y010327D02*
X005483Y010327D01*
X005483Y010425D02*
X005609Y010425D01*
X005609Y010524D02*
X005483Y010524D01*
X005483Y010622D02*
X005609Y010622D01*
X005609Y010721D02*
X005483Y010721D01*
X005483Y010819D02*
X005609Y010819D01*
X005609Y010918D02*
X005483Y010918D01*
X005483Y011016D02*
X005609Y011016D01*
X005609Y011115D02*
X005483Y011115D01*
X005483Y011213D02*
X005609Y011213D01*
X005609Y011312D02*
X005483Y011312D01*
X005483Y011410D02*
X005609Y011410D01*
X005609Y011509D02*
X005483Y011509D01*
X005483Y011607D02*
X005609Y011607D01*
X005609Y011706D02*
X005483Y011706D01*
X005483Y011804D02*
X005609Y011804D01*
X005609Y011903D02*
X005483Y011903D01*
X005483Y012001D02*
X005609Y012001D01*
X005609Y012100D02*
X005483Y012100D01*
X005483Y012198D02*
X005609Y012198D01*
X005609Y012297D02*
X005483Y012297D01*
X005483Y012395D02*
X005609Y012395D01*
X005609Y012494D02*
X005483Y012494D01*
X005483Y012592D02*
X005609Y012592D01*
X005609Y012691D02*
X005483Y012691D01*
X005483Y012789D02*
X005609Y012789D01*
X005609Y012888D02*
X005483Y012888D01*
X005483Y012986D02*
X005631Y012986D01*
X005672Y013085D02*
X005483Y013085D01*
X005483Y013183D02*
X005767Y013183D01*
X005865Y013282D02*
X005483Y013282D01*
X005483Y013380D02*
X005964Y013380D01*
X005999Y013479D02*
X005483Y013479D01*
X005483Y013577D02*
X005999Y013577D01*
X005999Y013676D02*
X005483Y013676D01*
X005483Y013774D02*
X005999Y013774D01*
X005986Y013873D02*
X005483Y013873D01*
X005483Y013971D02*
X005888Y013971D01*
X005789Y014070D02*
X005483Y014070D01*
X005483Y014168D02*
X005691Y014168D01*
X005592Y014267D02*
X005483Y014267D01*
X005483Y014365D02*
X005494Y014365D01*
X006333Y013630D02*
X006423Y013720D01*
X007522Y013085D02*
X008701Y013085D01*
X008799Y013183D02*
X008598Y013183D01*
X008633Y013282D02*
X008845Y013282D01*
X008845Y013380D02*
X008633Y013380D01*
X008633Y013479D02*
X008845Y013479D01*
X008845Y013577D02*
X008633Y013577D01*
X008293Y013577D02*
X008193Y013577D01*
X008193Y013479D02*
X008293Y013479D01*
X008293Y013380D02*
X008193Y013380D01*
X008193Y013282D02*
X008293Y013282D01*
X008293Y013183D02*
X008193Y013183D01*
X007888Y013183D02*
X007658Y013183D01*
X007702Y013282D02*
X007853Y013282D01*
X007853Y013380D02*
X007702Y013380D01*
X007702Y013479D02*
X007853Y013479D01*
X007853Y013577D02*
X007702Y013577D01*
X008193Y013873D02*
X008293Y013873D01*
X008293Y013971D02*
X008193Y013971D01*
X008193Y014070D02*
X008293Y014070D01*
X008293Y014168D02*
X008193Y014168D01*
X008193Y014267D02*
X008293Y014267D01*
X008785Y014592D02*
X008824Y014632D01*
X008824Y014654D01*
X008831Y014627D01*
X008851Y014593D01*
X008879Y014565D01*
X008913Y014545D01*
X008951Y014535D01*
X009177Y014535D01*
X009177Y014950D01*
X009277Y014950D01*
X009277Y014535D01*
X009503Y014535D01*
X009541Y014545D01*
X009575Y014565D01*
X009603Y014593D01*
X009623Y014627D01*
X009633Y014665D01*
X009633Y014950D01*
X009277Y014950D01*
X009277Y015050D01*
X009177Y015050D01*
X009177Y015465D01*
X008951Y015465D01*
X008913Y015455D01*
X008879Y015435D01*
X008851Y015407D01*
X008831Y015373D01*
X008824Y015346D01*
X008824Y015368D01*
X008749Y015444D01*
X008647Y015444D01*
X008647Y015821D01*
X009682Y015821D01*
X009682Y015178D01*
X009787Y015073D01*
X009984Y014876D01*
X010998Y014876D01*
X011103Y014981D01*
X012100Y015979D01*
X012651Y015979D01*
X012756Y016083D01*
X013311Y016638D01*
X013311Y016036D01*
X013320Y016027D01*
X013320Y015761D01*
X013493Y015587D01*
X013493Y015494D01*
X013537Y015388D01*
X013619Y015306D01*
X013725Y015262D01*
X013840Y015262D01*
X013946Y015306D01*
X014027Y015388D01*
X014071Y015494D01*
X014071Y015609D01*
X014027Y015715D01*
X013946Y015796D01*
X013840Y015840D01*
X013746Y015840D01*
X013677Y015909D01*
X013677Y015926D01*
X013773Y015926D01*
X013794Y015947D01*
X013815Y015926D01*
X013970Y015926D01*
X013991Y015947D01*
X014011Y015926D01*
X014107Y015926D01*
X014107Y014867D01*
X014212Y014762D01*
X014890Y014085D01*
X014890Y013584D01*
X014965Y013509D01*
X015702Y013509D01*
X015777Y013584D01*
X015777Y013695D01*
X015909Y013695D01*
X015909Y013565D01*
X015974Y013500D01*
X015909Y013435D01*
X015909Y013014D01*
X015777Y012882D01*
X015777Y013416D01*
X015702Y013491D01*
X014965Y013491D01*
X014890Y013416D01*
X014890Y012832D01*
X014690Y012579D01*
X014662Y012579D01*
X014694Y012611D01*
X014694Y013268D01*
X014675Y013286D01*
X014675Y013411D01*
X014571Y013515D01*
X013907Y014179D01*
X013257Y014179D01*
X013257Y014435D01*
X013193Y014500D01*
X013257Y014565D01*
X013257Y015183D01*
X013182Y015259D01*
X013012Y015259D01*
X013012Y015470D01*
X013078Y015536D01*
X013122Y015643D01*
X013122Y015757D01*
X013078Y015864D01*
X012997Y015945D01*
X012891Y015989D01*
X012776Y015989D01*
X012670Y015945D01*
X012589Y015864D01*
X012545Y015757D01*
X012545Y015643D01*
X012589Y015536D01*
X012655Y015470D01*
X012655Y015259D01*
X012485Y015259D01*
X012409Y015183D01*
X012409Y014565D01*
X012474Y014500D01*
X012409Y014435D01*
X012409Y013817D01*
X012485Y013741D01*
X013182Y013741D01*
X013257Y013817D01*
X013257Y013821D01*
X013759Y013821D01*
X014237Y013343D01*
X014119Y013343D01*
X014113Y013337D01*
X014107Y013343D01*
X013863Y013343D01*
X013857Y013337D01*
X013851Y013343D01*
X013652Y013343D01*
X013652Y013434D01*
X013512Y013574D01*
X013407Y013679D01*
X012407Y013679D01*
X012257Y013829D01*
X012257Y014435D01*
X012193Y014500D01*
X012257Y014565D01*
X012257Y015183D01*
X012182Y015259D01*
X012077Y015259D01*
X012141Y015333D01*
X012212Y015333D01*
X012318Y015376D01*
X012399Y015458D01*
X012443Y015564D01*
X012443Y015679D01*
X012399Y015785D01*
X012318Y015866D01*
X012212Y015910D01*
X012097Y015910D01*
X011991Y015866D01*
X011910Y015785D01*
X011866Y015679D01*
X011866Y015564D01*
X011867Y015562D01*
X011702Y015372D01*
X011655Y015324D01*
X011655Y015317D01*
X011650Y015311D01*
X011654Y015259D01*
X011485Y015259D01*
X011409Y015183D01*
X011409Y014565D01*
X011474Y014500D01*
X011409Y014435D01*
X011409Y013817D01*
X011485Y013741D01*
X011839Y013741D01*
X012237Y013343D01*
X012083Y013343D01*
X012064Y013354D01*
X012026Y013364D01*
X011938Y013364D01*
X011938Y012939D01*
X011938Y012514D01*
X012026Y012514D01*
X012064Y012525D01*
X012083Y012536D01*
X012315Y012536D01*
X012322Y012542D01*
X012328Y012536D01*
X012571Y012536D01*
X012577Y012542D01*
X012584Y012536D01*
X012816Y012536D01*
X012835Y012525D01*
X012873Y012514D01*
X012961Y012514D01*
X012961Y012939D01*
X012961Y012939D01*
X012961Y012514D01*
X013050Y012514D01*
X013088Y012525D01*
X013107Y012536D01*
X013339Y012536D01*
X013345Y012542D01*
X013351Y012536D01*
X013520Y012536D01*
X013520Y012104D01*
X011719Y012107D01*
X011719Y012107D01*
X011633Y012107D01*
X011547Y012107D01*
X011486Y012046D01*
X011426Y011986D01*
X011426Y011986D01*
X011245Y011805D01*
X011051Y011999D01*
X011051Y012001D01*
X011441Y012001D01*
X011539Y012100D02*
X010951Y012100D01*
X010931Y012119D02*
X010929Y012119D01*
X010928Y012121D01*
X010843Y012119D01*
X010759Y012119D01*
X010758Y012118D01*
X010450Y012113D01*
X008715Y012113D01*
X008715Y012565D01*
X009112Y012961D01*
X009222Y013072D01*
X009222Y014143D01*
X009234Y014160D01*
X009222Y014219D01*
X009222Y014278D01*
X009207Y014293D01*
X009203Y014314D01*
X009154Y014347D01*
X009112Y014389D01*
X009090Y014389D01*
X008785Y014592D01*
X008831Y014562D02*
X008884Y014562D01*
X008978Y014464D02*
X011438Y014464D01*
X011412Y014562D02*
X009570Y014562D01*
X009632Y014661D02*
X011409Y014661D01*
X011409Y014759D02*
X009633Y014759D01*
X009633Y014858D02*
X011409Y014858D01*
X011409Y014956D02*
X011078Y014956D01*
X011176Y015055D02*
X011409Y015055D01*
X011409Y015153D02*
X011275Y015153D01*
X011373Y015252D02*
X011478Y015252D01*
X011472Y015350D02*
X011681Y015350D01*
X011769Y015449D02*
X011570Y015449D01*
X011669Y015547D02*
X011854Y015547D01*
X011866Y015646D02*
X011767Y015646D01*
X011866Y015744D02*
X011893Y015744D01*
X011964Y015843D02*
X011968Y015843D01*
X012063Y015941D02*
X012666Y015941D01*
X012712Y016040D02*
X013311Y016040D01*
X013311Y016138D02*
X012811Y016138D01*
X012909Y016237D02*
X013311Y016237D01*
X013311Y016335D02*
X013008Y016335D01*
X013106Y016434D02*
X013311Y016434D01*
X013311Y016532D02*
X013205Y016532D01*
X013303Y016631D02*
X013311Y016631D01*
X013499Y016350D02*
X013499Y015835D01*
X013782Y015551D01*
X013575Y015350D02*
X013012Y015350D01*
X013012Y015449D02*
X013512Y015449D01*
X013493Y015547D02*
X013082Y015547D01*
X013122Y015646D02*
X013435Y015646D01*
X013337Y015744D02*
X013122Y015744D01*
X013087Y015843D02*
X013320Y015843D01*
X013320Y015941D02*
X013001Y015941D01*
X012833Y015700D02*
X012833Y014874D01*
X012409Y014858D02*
X012257Y014858D01*
X012257Y014956D02*
X012409Y014956D01*
X012409Y015055D02*
X012257Y015055D01*
X012257Y015153D02*
X012409Y015153D01*
X012478Y015252D02*
X012189Y015252D01*
X012254Y015350D02*
X012655Y015350D01*
X012655Y015449D02*
X012390Y015449D01*
X012436Y015547D02*
X012584Y015547D01*
X012545Y015646D02*
X012443Y015646D01*
X012416Y015744D02*
X012545Y015744D01*
X012580Y015843D02*
X012342Y015843D01*
X012155Y015621D02*
X011833Y015250D01*
X011833Y014874D01*
X012257Y014759D02*
X012409Y014759D01*
X012409Y014661D02*
X012257Y014661D01*
X012255Y014562D02*
X012412Y014562D01*
X012438Y014464D02*
X012229Y014464D01*
X012257Y014365D02*
X012409Y014365D01*
X012409Y014267D02*
X012257Y014267D01*
X012257Y014168D02*
X012409Y014168D01*
X012409Y014070D02*
X012257Y014070D01*
X012257Y013971D02*
X012409Y013971D01*
X012409Y013873D02*
X012257Y013873D01*
X012312Y013774D02*
X012452Y013774D01*
X012333Y013500D02*
X011833Y014000D01*
X011833Y014126D01*
X011905Y013676D02*
X009222Y013676D01*
X009222Y013774D02*
X011452Y013774D01*
X011409Y013873D02*
X009222Y013873D01*
X009222Y013971D02*
X011409Y013971D01*
X011409Y014070D02*
X009222Y014070D01*
X009232Y014168D02*
X011409Y014168D01*
X011409Y014267D02*
X009222Y014267D01*
X009135Y014365D02*
X011409Y014365D01*
X010924Y015055D02*
X012026Y016157D01*
X011894Y016693D02*
X011772Y016693D01*
X011660Y016740D01*
X011573Y016826D01*
X011546Y016892D01*
X011227Y017211D01*
X011227Y017112D01*
X011217Y017074D01*
X011197Y017040D01*
X011170Y017012D01*
X011149Y017000D01*
X011170Y016988D01*
X011197Y016960D01*
X011217Y016926D01*
X011512Y016926D01*
X011573Y016828D02*
X011227Y016828D01*
X011227Y016888D02*
X011217Y016926D01*
X011227Y016888D02*
X011227Y016759D01*
X010653Y016759D01*
X010635Y016759D01*
X010635Y016741D01*
X010061Y016741D01*
X010061Y016612D01*
X010072Y016574D01*
X010091Y016540D01*
X010119Y016512D01*
X010140Y016500D01*
X010119Y016488D01*
X010091Y016460D01*
X010072Y016426D01*
X010061Y016388D01*
X010061Y016259D01*
X010635Y016259D01*
X010635Y016518D01*
X010635Y016741D01*
X010653Y016741D01*
X010653Y016759D01*
X010653Y017241D01*
X010635Y017241D01*
X010061Y017241D01*
X010061Y017112D01*
X010072Y017074D01*
X010091Y017040D01*
X010119Y017012D01*
X010140Y017000D01*
X010119Y016988D01*
X010091Y016960D01*
X010072Y016926D01*
X008647Y016926D01*
X008647Y016828D02*
X010061Y016828D01*
X010061Y016888D02*
X010061Y016759D01*
X010635Y016759D01*
X010635Y017018D01*
X010635Y017241D01*
X010635Y017259D01*
X010061Y017259D01*
X010061Y017388D01*
X010072Y017426D01*
X010091Y017460D01*
X010119Y017488D01*
X010140Y017500D01*
X010119Y017512D01*
X010091Y017540D01*
X010072Y017574D01*
X010061Y017612D01*
X010061Y017741D01*
X010635Y017741D01*
X010635Y017759D01*
X010061Y017759D01*
X010061Y017888D01*
X010072Y017926D01*
X010091Y017960D01*
X010119Y017988D01*
X010153Y018008D01*
X010090Y018071D01*
X009938Y018071D01*
X009797Y018213D01*
X009682Y018213D01*
X009569Y018260D01*
X009483Y018346D01*
X009436Y018459D01*
X009436Y018581D01*
X009483Y018694D01*
X009569Y018780D01*
X009682Y018827D01*
X009804Y018827D01*
X009917Y018780D01*
X010003Y018694D01*
X010050Y018581D01*
X010050Y018466D01*
X010087Y018429D01*
X010090Y018429D01*
X010158Y018497D01*
X011041Y018497D01*
X011035Y018503D01*
X010158Y018503D01*
X010083Y018579D01*
X010083Y018921D01*
X010158Y018997D01*
X011131Y018997D01*
X011169Y018959D01*
X011170Y018959D01*
X011420Y018709D01*
X011542Y018586D01*
X011542Y017486D01*
X011737Y017292D01*
X011772Y017307D01*
X011894Y017307D01*
X012007Y017260D01*
X012093Y017174D01*
X012140Y017061D01*
X012140Y016939D01*
X012093Y016826D01*
X012007Y016740D01*
X011894Y016693D01*
X011981Y016729D02*
X012156Y016729D01*
X012094Y016828D02*
X012995Y016828D01*
X013093Y016926D02*
X012135Y016926D01*
X012140Y017025D02*
X012323Y017025D01*
X012287Y017123D02*
X012115Y017123D01*
X012046Y017222D02*
X012293Y017222D01*
X012287Y017320D02*
X011709Y017320D01*
X011610Y017419D02*
X012293Y017419D01*
X012287Y017517D02*
X011542Y017517D01*
X011542Y017616D02*
X012294Y017616D01*
X012287Y017714D02*
X011542Y017714D01*
X011542Y017813D02*
X012294Y017813D01*
X012287Y017911D02*
X011542Y017911D01*
X011542Y018010D02*
X012294Y018010D01*
X012287Y018108D02*
X011542Y018108D01*
X011542Y018207D02*
X012294Y018207D01*
X012287Y018305D02*
X011542Y018305D01*
X011542Y018404D02*
X012294Y018404D01*
X012287Y018502D02*
X011542Y018502D01*
X011528Y018601D02*
X012294Y018601D01*
X012287Y018699D02*
X011909Y018699D01*
X011894Y018693D02*
X012007Y018740D01*
X012093Y018826D01*
X012140Y018939D01*
X012140Y019061D01*
X012093Y019174D01*
X012007Y019260D01*
X011894Y019307D01*
X011822Y019307D01*
X011670Y019459D01*
X011169Y019459D01*
X011131Y019497D01*
X010158Y019497D01*
X010083Y019421D01*
X010083Y019079D01*
X010158Y019003D01*
X011131Y019003D01*
X011169Y019041D01*
X011497Y019041D01*
X011526Y019012D01*
X011526Y018939D01*
X011573Y018826D01*
X011660Y018740D01*
X011772Y018693D01*
X011894Y018693D01*
X011758Y018699D02*
X011430Y018699D01*
X011331Y018798D02*
X011602Y018798D01*
X011544Y018896D02*
X011233Y018896D01*
X011133Y018995D02*
X011526Y018995D01*
X011935Y019290D02*
X012287Y019290D01*
X012295Y019192D02*
X012076Y019192D01*
X012127Y019093D02*
X012287Y019093D01*
X012295Y018995D02*
X012140Y018995D01*
X012122Y018896D02*
X012287Y018896D01*
X012294Y018798D02*
X012065Y018798D01*
X012046Y019389D02*
X011740Y019389D01*
X011849Y019586D02*
X006257Y019586D01*
X006257Y019684D02*
X011751Y019684D01*
X011690Y019783D02*
X006257Y019783D01*
X006257Y019881D02*
X011690Y019881D01*
X011690Y019980D02*
X006257Y019980D01*
X006257Y020078D02*
X011690Y020078D01*
X011690Y020177D02*
X006257Y020177D01*
X006257Y020275D02*
X011690Y020275D01*
X011690Y020374D02*
X006257Y020374D01*
X006257Y020472D02*
X011690Y020472D01*
X011690Y020571D02*
X006257Y020571D01*
X006257Y020669D02*
X011690Y020669D01*
X011690Y020768D02*
X006257Y020768D01*
X006257Y020866D02*
X011690Y020866D01*
X011690Y020965D02*
X006257Y020965D01*
X006257Y021063D02*
X011690Y021063D01*
X011690Y021162D02*
X006257Y021162D01*
X006257Y021260D02*
X011690Y021260D01*
X011690Y021359D02*
X006257Y021359D01*
X006257Y021457D02*
X011690Y021457D01*
X011690Y021556D02*
X011368Y021556D01*
X011304Y021491D02*
X011602Y021789D01*
X011602Y022211D01*
X011304Y022509D01*
X010882Y022509D01*
X010584Y022211D01*
X010584Y021789D01*
X010882Y021491D01*
X011304Y021491D01*
X011467Y021654D02*
X011690Y021654D01*
X011690Y021753D02*
X011565Y021753D01*
X011602Y021851D02*
X011690Y021851D01*
X011690Y021950D02*
X011602Y021950D01*
X011602Y022048D02*
X011690Y022048D01*
X011690Y022147D02*
X011602Y022147D01*
X011568Y022245D02*
X011690Y022245D01*
X011690Y022344D02*
X011469Y022344D01*
X011371Y022442D02*
X011690Y022442D01*
X011666Y022541D02*
X006257Y022541D01*
X006257Y022639D02*
X011592Y022639D01*
X011562Y022738D02*
X006257Y022738D01*
X006257Y022836D02*
X011563Y022836D01*
X011604Y022935D02*
X006257Y022935D01*
X006257Y023033D02*
X011698Y023033D01*
X011869Y022772D02*
X011869Y019819D01*
X012184Y019504D01*
X012707Y019504D01*
X012711Y019500D01*
X012733Y019500D01*
X012711Y019697D02*
X013693Y019697D01*
X013983Y019406D01*
X014194Y019209D02*
X014228Y019243D01*
X014272Y019349D01*
X014272Y019464D01*
X014228Y019570D01*
X014197Y019601D01*
X014620Y019601D01*
X014725Y019705D01*
X014725Y019705D01*
X014840Y019821D01*
X014840Y019821D01*
X014945Y019926D01*
X014945Y020947D01*
X016677Y020947D01*
X017044Y020692D01*
X017044Y019469D01*
X017586Y018928D01*
X018586Y018928D01*
X018586Y018832D01*
X018607Y018811D01*
X018586Y018790D01*
X018586Y018635D01*
X018607Y018614D01*
X018586Y018594D01*
X018586Y018438D01*
X018607Y018417D01*
X018586Y018397D01*
X018586Y018241D01*
X018607Y018220D01*
X018586Y018200D01*
X018586Y018044D01*
X018607Y018024D01*
X018586Y018003D01*
X018586Y017847D01*
X018607Y017827D01*
X018586Y017806D01*
X018586Y017651D01*
X018607Y017630D01*
X018586Y017609D01*
X018586Y017454D01*
X018607Y017433D01*
X018586Y017412D01*
X018586Y017257D01*
X018607Y017236D01*
X018586Y017216D01*
X018586Y017060D01*
X018696Y016950D01*
X019325Y016950D01*
X019435Y017060D01*
X019435Y017216D01*
X019414Y017236D01*
X019435Y017257D01*
X019435Y017412D01*
X019414Y017433D01*
X019435Y017454D01*
X019435Y017609D01*
X019414Y017630D01*
X019435Y017651D01*
X019435Y017806D01*
X019414Y017827D01*
X019435Y017847D01*
X019435Y018003D01*
X019414Y018024D01*
X019435Y018044D01*
X019435Y018200D01*
X019414Y018220D01*
X019435Y018241D01*
X019435Y018397D01*
X019414Y018417D01*
X019435Y018438D01*
X019435Y018594D01*
X019414Y018614D01*
X019435Y018635D01*
X019435Y018790D01*
X019414Y018811D01*
X019435Y018832D01*
X019435Y018987D01*
X019414Y019008D01*
X019435Y019029D01*
X019435Y019184D01*
X019425Y019194D01*
X019442Y019222D01*
X019456Y019276D01*
X019456Y019303D01*
X019011Y019303D01*
X019011Y019303D01*
X019456Y019303D01*
X019456Y019331D01*
X019442Y019384D01*
X019425Y019413D01*
X019435Y019422D01*
X019435Y019578D01*
X019414Y019598D01*
X019435Y019619D01*
X019435Y019775D01*
X019414Y019795D01*
X019435Y019816D01*
X019435Y019971D01*
X019414Y019992D01*
X019435Y020013D01*
X019435Y020168D01*
X019414Y020189D01*
X019435Y020210D01*
X019435Y020365D01*
X019414Y020386D01*
X019435Y020406D01*
X019435Y020562D01*
X019414Y020583D01*
X019435Y020603D01*
X019435Y020759D01*
X019414Y020780D01*
X019435Y020800D01*
X019435Y020956D01*
X019414Y020976D01*
X019435Y020997D01*
X019435Y021153D01*
X019414Y021173D01*
X019435Y021194D01*
X019435Y021349D01*
X019414Y021370D01*
X019435Y021391D01*
X019435Y021546D01*
X019414Y021567D01*
X019435Y021588D01*
X019435Y021743D01*
X019414Y021764D01*
X019435Y021784D01*
X019435Y021940D01*
X019325Y022050D01*
X018696Y022050D01*
X018586Y021940D01*
X018586Y021784D01*
X018607Y021764D01*
X018586Y021743D01*
X018586Y021588D01*
X018607Y021567D01*
X018586Y021546D01*
X018586Y021391D01*
X018607Y021370D01*
X018586Y021349D01*
X018586Y021194D01*
X018607Y021173D01*
X018586Y021153D01*
X018586Y020997D01*
X018607Y020976D01*
X018586Y020956D01*
X018586Y020800D01*
X018607Y020780D01*
X018586Y020759D01*
X018586Y020603D01*
X018607Y020583D01*
X018586Y020562D01*
X018586Y020406D01*
X018607Y020386D01*
X018586Y020365D01*
X018586Y020210D01*
X018607Y020189D01*
X018586Y020168D01*
X018586Y020013D01*
X018607Y019992D01*
X018586Y019971D01*
X018586Y019876D01*
X018482Y019876D01*
X018081Y020277D01*
X018081Y020392D01*
X018034Y020505D01*
X017948Y020591D01*
X017835Y020638D01*
X017713Y020638D01*
X017600Y020591D01*
X017514Y020505D01*
X017467Y020392D01*
X017467Y020270D01*
X017514Y020157D01*
X017600Y020071D01*
X017713Y020024D01*
X017828Y020024D01*
X017851Y020001D01*
X017835Y020008D01*
X017713Y020008D01*
X017600Y019961D01*
X017514Y019875D01*
X017467Y019762D01*
X017467Y019640D01*
X017514Y019527D01*
X017600Y019441D01*
X017713Y019394D01*
X017828Y019394D01*
X017901Y019321D01*
X018565Y019321D01*
X018565Y019303D01*
X018565Y019285D01*
X017734Y019285D01*
X017402Y019617D01*
X017402Y020712D01*
X017614Y020924D01*
X017614Y022226D01*
X017710Y022226D01*
X017731Y022246D01*
X017752Y022226D01*
X017907Y022226D01*
X017928Y022246D01*
X017948Y022226D01*
X018104Y022226D01*
X018125Y022246D01*
X018145Y022226D01*
X018301Y022226D01*
X018411Y022336D01*
X018411Y022964D01*
X018363Y023011D01*
X019212Y023011D01*
X019322Y023122D01*
X019562Y023361D01*
X019652Y023361D01*
X019709Y023304D01*
X020223Y023304D01*
X020223Y018850D01*
X021970Y018850D01*
X020761Y017679D01*
X020759Y017679D01*
X020708Y017627D01*
X020656Y017577D01*
X020656Y017575D01*
X020655Y017574D01*
X020655Y017501D01*
X020653Y017429D01*
X020655Y017428D01*
X020655Y016759D01*
X020485Y016759D01*
X020409Y016683D01*
X020409Y016579D01*
X020063Y016579D01*
X019997Y016645D01*
X019891Y016689D01*
X019776Y016689D01*
X019670Y016645D01*
X019589Y016564D01*
X019545Y016457D01*
X019545Y016343D01*
X019589Y016236D01*
X019670Y016155D01*
X019776Y016111D01*
X019891Y016111D01*
X019997Y016155D01*
X020063Y016221D01*
X020409Y016221D01*
X020409Y016065D01*
X020474Y016000D01*
X020409Y015935D01*
X020409Y015317D01*
X020485Y015241D01*
X021182Y015241D01*
X021235Y015294D01*
X021308Y015222D01*
X021855Y015222D01*
X021855Y014380D01*
X021789Y014314D01*
X021745Y014207D01*
X021745Y014179D01*
X016757Y014179D01*
X016757Y014183D01*
X016682Y014259D01*
X015985Y014259D01*
X015909Y014183D01*
X015909Y014053D01*
X015777Y014053D01*
X015777Y014203D01*
X015715Y014265D01*
X015814Y014265D01*
X015814Y014731D01*
X015852Y014731D01*
X015852Y014265D01*
X015991Y014265D01*
X016029Y014276D01*
X016063Y014295D01*
X016085Y014317D01*
X016115Y014287D01*
X016497Y014287D01*
X016572Y014362D01*
X016572Y015138D01*
X016497Y015213D01*
X016485Y015213D01*
X016485Y015652D01*
X016380Y015756D01*
X016210Y015926D01*
X016332Y015926D01*
X016353Y015947D01*
X016374Y015926D01*
X016529Y015926D01*
X016550Y015947D01*
X016571Y015926D01*
X016645Y015926D01*
X016645Y015422D01*
X016755Y015311D01*
X017255Y014811D01*
X018138Y014811D01*
X018210Y014740D01*
X018322Y014693D01*
X018444Y014693D01*
X018557Y014740D01*
X018643Y014826D01*
X018690Y014939D01*
X018690Y015061D01*
X018643Y015174D01*
X018557Y015260D01*
X018444Y015307D01*
X018322Y015307D01*
X018210Y015260D01*
X018138Y015189D01*
X017412Y015189D01*
X017403Y015197D01*
X017507Y015240D01*
X017593Y015326D01*
X017640Y015439D01*
X017640Y015561D01*
X017593Y015674D01*
X017507Y015760D01*
X017394Y015807D01*
X017293Y015807D01*
X017231Y015870D01*
X017231Y015926D01*
X017317Y015926D01*
X017337Y015947D01*
X017358Y015926D01*
X017513Y015926D01*
X017534Y015947D01*
X017555Y015926D01*
X017710Y015926D01*
X017731Y015947D01*
X017752Y015926D01*
X017907Y015926D01*
X017928Y015947D01*
X017948Y015926D01*
X018075Y015926D01*
X018149Y015853D01*
X018295Y015707D01*
X018295Y015614D01*
X018339Y015508D01*
X018420Y015426D01*
X018526Y015383D01*
X018641Y015383D01*
X018747Y015426D01*
X018828Y015508D01*
X018872Y015614D01*
X018872Y015729D01*
X018828Y015835D01*
X018747Y015916D01*
X018641Y015960D01*
X018547Y015960D01*
X018411Y016096D01*
X018411Y016664D01*
X018301Y016774D01*
X018145Y016774D01*
X018125Y016754D01*
X018104Y016774D01*
X017948Y016774D01*
X017928Y016754D01*
X017907Y016774D01*
X017752Y016774D01*
X017731Y016754D01*
X017710Y016774D01*
X017631Y016774D01*
X017632Y016814D01*
X017658Y016878D01*
X017762Y016921D01*
X017848Y017007D01*
X017895Y017120D01*
X017895Y017242D01*
X017848Y017355D01*
X017762Y017441D01*
X017649Y017488D01*
X017527Y017488D01*
X017414Y017441D01*
X017355Y017382D01*
X017194Y017696D01*
X017194Y018579D01*
X017276Y018661D01*
X017322Y018774D01*
X017322Y018896D01*
X018586Y018896D01*
X018594Y018798D02*
X017322Y018798D01*
X017322Y018896D02*
X017276Y019008D01*
X017189Y019095D01*
X017077Y019141D01*
X016955Y019141D01*
X016842Y019095D01*
X016755Y019008D01*
X016709Y018896D01*
X015472Y018896D01*
X015490Y018939D02*
X015490Y019061D01*
X015443Y019174D01*
X015357Y019260D01*
X015244Y019307D01*
X015122Y019307D01*
X015010Y019260D01*
X014958Y019209D01*
X014194Y019209D01*
X014248Y019290D02*
X015082Y019290D01*
X015285Y019290D02*
X017224Y019290D01*
X017322Y019192D02*
X015426Y019192D01*
X015477Y019093D02*
X016840Y019093D01*
X016750Y018995D02*
X015490Y018995D01*
X015490Y018939D02*
X015443Y018826D01*
X015357Y018740D01*
X015244Y018693D01*
X015122Y018693D01*
X015010Y018740D01*
X014958Y018791D01*
X014059Y018791D01*
X014007Y018740D01*
X013968Y018724D01*
X014013Y018679D01*
X016104Y018679D01*
X016170Y018745D01*
X016276Y018789D01*
X016391Y018789D01*
X016497Y018745D01*
X016578Y018664D01*
X016622Y018557D01*
X016622Y018443D01*
X016578Y018336D01*
X016517Y018275D01*
X016575Y018275D01*
X016688Y018229D01*
X016775Y018142D01*
X016821Y018030D01*
X016821Y017907D01*
X016775Y017795D01*
X016688Y017708D01*
X016575Y017662D01*
X016453Y017662D01*
X016341Y017708D01*
X016266Y017783D01*
X016263Y017782D01*
X016253Y017790D01*
X016241Y017790D01*
X016196Y017834D01*
X016022Y017971D01*
X014046Y017971D01*
X014072Y017907D01*
X014072Y017793D01*
X014028Y017686D01*
X013947Y017605D01*
X013841Y017561D01*
X013825Y017561D01*
X013907Y017479D01*
X016673Y017479D01*
X016737Y017486D01*
X016746Y017479D01*
X016757Y017479D01*
X016803Y017433D01*
X016864Y017384D01*
X016876Y017389D01*
X016950Y017389D01*
X016869Y017547D01*
X016837Y017580D01*
X016837Y017611D01*
X016823Y017638D01*
X016837Y017682D01*
X016837Y018579D01*
X016755Y018661D01*
X016709Y018774D01*
X016709Y018896D01*
X016709Y018798D02*
X015415Y018798D01*
X015259Y018699D02*
X016124Y018699D01*
X016333Y018500D02*
X013783Y018500D01*
X013993Y018699D02*
X015108Y018699D01*
X014272Y019389D02*
X017125Y019389D01*
X017044Y019487D02*
X014262Y019487D01*
X014212Y019586D02*
X017044Y019586D01*
X017044Y019684D02*
X014703Y019684D01*
X014802Y019783D02*
X017044Y019783D01*
X017044Y019881D02*
X014900Y019881D01*
X014945Y019980D02*
X017044Y019980D01*
X017044Y020078D02*
X014945Y020078D01*
X014945Y020177D02*
X017044Y020177D01*
X017044Y020275D02*
X014945Y020275D01*
X014945Y020374D02*
X017044Y020374D01*
X017044Y020472D02*
X014945Y020472D01*
X014945Y020571D02*
X017044Y020571D01*
X017044Y020669D02*
X014945Y020669D01*
X014945Y020768D02*
X016936Y020768D01*
X016794Y020866D02*
X014945Y020866D01*
X014887Y021126D02*
X014766Y021155D01*
X014766Y020000D01*
X014546Y019780D01*
X014525Y019800D01*
X014033Y019800D01*
X013333Y020500D01*
X013724Y020091D02*
X014035Y019780D01*
X014546Y019780D01*
X014333Y020163D02*
X014333Y020228D01*
X013522Y021039D01*
X013522Y021339D01*
X013392Y021469D01*
X012711Y021469D01*
X012711Y021665D02*
X013526Y021665D01*
X014310Y020882D01*
X014766Y021155D02*
X013892Y022079D01*
X013892Y022650D01*
X013696Y022650D02*
X013696Y022204D01*
X013714Y022204D01*
X013714Y022163D01*
X013677Y022163D01*
X013677Y022204D01*
X013696Y022204D01*
X013696Y022650D01*
X013696Y022650D01*
X013696Y022639D02*
X013696Y022639D01*
X013696Y022541D02*
X013696Y022541D01*
X013696Y022442D02*
X013696Y022442D01*
X013696Y022344D02*
X013696Y022344D01*
X013696Y022245D02*
X013696Y022245D01*
X013499Y022087D02*
X013601Y021984D01*
X013798Y021984D01*
X013892Y022079D01*
X014089Y022244D02*
X014433Y021900D01*
X014731Y021900D01*
X014751Y021930D01*
X014089Y022244D02*
X014089Y022650D01*
X014286Y022650D02*
X014286Y024117D01*
X014295Y024126D01*
X013552Y024126D01*
X014107Y023723D02*
X009392Y023723D01*
X009309Y023821D02*
X013128Y023821D01*
X013128Y023920D02*
X009226Y023920D01*
X009142Y024018D02*
X013128Y024018D01*
X013128Y024117D02*
X009059Y024117D01*
X008976Y024215D02*
X013128Y024215D01*
X013128Y024314D02*
X008892Y024314D01*
X008809Y024412D02*
X013128Y024412D01*
X013182Y024511D02*
X008725Y024511D01*
X008642Y024609D02*
X013128Y024609D01*
X013128Y024708D02*
X008559Y024708D01*
X008475Y024806D02*
X013128Y024806D01*
X013128Y024905D02*
X008422Y024905D01*
X008421Y025003D02*
X013128Y025003D01*
X013128Y025102D02*
X008420Y025102D01*
X008420Y025200D02*
X012849Y025200D01*
X013057Y025757D02*
X013089Y025794D01*
X013121Y025891D01*
X013137Y025844D01*
X013166Y025786D01*
X013204Y025735D01*
X013249Y025689D01*
X013301Y025651D01*
X013358Y025622D01*
X013419Y025603D01*
X013482Y025593D01*
X013486Y025593D01*
X013486Y025971D01*
X013543Y025971D01*
X013543Y025593D01*
X013547Y025593D01*
X013610Y025603D01*
X013671Y025622D01*
X013728Y025651D01*
X013780Y025689D01*
X013825Y025735D01*
X013863Y025786D01*
X013892Y025844D01*
X013895Y025851D01*
X013895Y025678D01*
X013475Y025259D01*
X013276Y025259D01*
X013293Y025276D01*
X013340Y025389D01*
X013340Y025511D01*
X013293Y025624D01*
X013207Y025710D01*
X013094Y025757D01*
X013057Y025757D01*
X013087Y025791D02*
X013164Y025791D01*
X013121Y025890D02*
X013122Y025890D01*
X013225Y025693D02*
X013246Y025693D01*
X013306Y025594D02*
X013473Y025594D01*
X013486Y025594D02*
X013543Y025594D01*
X013556Y025594D02*
X013810Y025594D01*
X013783Y025693D02*
X013895Y025693D01*
X013895Y025791D02*
X013865Y025791D01*
X013543Y025791D02*
X013486Y025791D01*
X013486Y025693D02*
X013543Y025693D01*
X013543Y025890D02*
X013486Y025890D01*
X013486Y026029D02*
X013486Y026407D01*
X013482Y026407D01*
X013419Y026397D01*
X013358Y026378D01*
X013301Y026349D01*
X013249Y026311D01*
X013204Y026265D01*
X013166Y026214D01*
X013137Y026156D01*
X013125Y026119D01*
X012778Y026811D01*
X013255Y026811D01*
X013707Y026359D01*
X013671Y026378D01*
X013610Y026397D01*
X013547Y026407D01*
X013543Y026407D01*
X013543Y026029D01*
X013486Y026029D01*
X013486Y026087D02*
X013543Y026087D01*
X013543Y026185D02*
X013486Y026185D01*
X013486Y026284D02*
X013543Y026284D01*
X013543Y026382D02*
X013486Y026382D01*
X013372Y026382D02*
X012993Y026382D01*
X013042Y026284D02*
X013222Y026284D01*
X013151Y026185D02*
X013091Y026185D01*
X012944Y026481D02*
X013586Y026481D01*
X013657Y026382D02*
X013684Y026382D01*
X013487Y026579D02*
X012894Y026579D01*
X012845Y026678D02*
X013389Y026678D01*
X013290Y026776D02*
X012796Y026776D01*
X012591Y027189D02*
X012574Y027232D01*
X012563Y027242D01*
X012556Y027256D01*
X012506Y027299D01*
X012459Y027347D01*
X012445Y027352D01*
X012433Y027362D01*
X012370Y027383D01*
X012308Y027409D01*
X012293Y027409D01*
X012279Y027413D01*
X012213Y027409D01*
X006662Y027409D01*
X006625Y027424D01*
X006361Y027424D01*
X006021Y027313D01*
X006021Y027313D01*
X005731Y027103D01*
X005731Y027103D01*
X005731Y027103D01*
X005520Y026813D01*
X005520Y026813D01*
X005483Y026700D01*
X005483Y028792D01*
X005494Y028900D01*
X005577Y029100D01*
X005730Y029253D01*
X005930Y029335D01*
X006038Y029346D01*
X020223Y029346D01*
X020223Y029067D01*
X020183Y029067D01*
X019944Y028968D01*
X019761Y028785D01*
X019662Y028546D01*
X019662Y028288D01*
X019761Y028049D01*
X019944Y027866D01*
X020183Y027767D01*
X020223Y027767D01*
X020223Y025323D01*
X020207Y025323D01*
X020207Y025063D01*
X020187Y025063D01*
X020187Y025043D01*
X019612Y025043D01*
X019612Y024913D01*
X019622Y024875D01*
X019642Y024841D01*
X019670Y024813D01*
X019702Y024795D01*
X019639Y024732D01*
X019216Y024732D01*
X018872Y025076D01*
X018679Y025076D01*
X018679Y025219D01*
X018603Y025294D01*
X017985Y025294D01*
X017920Y025229D01*
X017855Y025294D01*
X017729Y025294D01*
X017729Y025447D01*
X017739Y025457D01*
X017739Y025700D01*
X017749Y025689D01*
X017801Y025651D01*
X017858Y025622D01*
X017919Y025603D01*
X017982Y025593D01*
X017986Y025593D01*
X017986Y025971D01*
X018043Y025971D01*
X018043Y025593D01*
X018047Y025593D01*
X018110Y025603D01*
X018171Y025622D01*
X018228Y025651D01*
X018280Y025689D01*
X018325Y025735D01*
X018363Y025786D01*
X018392Y025844D01*
X018412Y025905D01*
X018422Y025968D01*
X018422Y025971D01*
X018043Y025971D01*
X018043Y026029D01*
X017986Y026029D01*
X017986Y026407D01*
X017982Y026407D01*
X017919Y026397D01*
X017858Y026378D01*
X017801Y026349D01*
X017749Y026311D01*
X017704Y026265D01*
X017666Y026214D01*
X017637Y026156D01*
X017617Y026095D01*
X017613Y026072D01*
X017613Y026077D01*
X017554Y026219D01*
X017446Y026327D01*
X017304Y026386D01*
X017150Y026386D01*
X017008Y026327D01*
X016900Y026219D01*
X016841Y026077D01*
X016841Y025923D01*
X016900Y025781D01*
X017008Y025673D01*
X017150Y025614D01*
X017304Y025614D01*
X017334Y025626D01*
X017361Y025599D01*
X017361Y025457D01*
X017371Y025447D01*
X017371Y025294D01*
X017237Y025294D01*
X017161Y025219D01*
X017161Y024521D01*
X017199Y024484D01*
X017165Y024451D01*
X017165Y024271D01*
X016894Y024271D01*
X016893Y024274D01*
X016807Y024360D01*
X016694Y024407D01*
X016572Y024407D01*
X016460Y024360D01*
X016373Y024274D01*
X016326Y024161D01*
X016326Y024039D01*
X016373Y023926D01*
X016460Y023840D01*
X016572Y023793D01*
X016694Y023793D01*
X016807Y023840D01*
X016861Y023894D01*
X017165Y023894D01*
X017165Y023714D01*
X017171Y023709D01*
X015250Y023709D01*
X015202Y023757D01*
X015104Y023798D01*
X014997Y023798D01*
X014899Y023757D01*
X014824Y023682D01*
X014783Y023584D01*
X014783Y023477D01*
X014824Y023379D01*
X014899Y023304D01*
X014997Y023263D01*
X015104Y023263D01*
X015202Y023304D01*
X015250Y023352D01*
X017014Y023352D01*
X016976Y023261D01*
X016976Y023139D01*
X017004Y023074D01*
X016964Y023074D01*
X016944Y023053D01*
X016923Y023074D01*
X016767Y023074D01*
X016747Y023053D01*
X016726Y023074D01*
X016571Y023074D01*
X016550Y023053D01*
X016529Y023074D01*
X016374Y023074D01*
X016353Y023053D01*
X016332Y023074D01*
X016177Y023074D01*
X016156Y023053D01*
X016136Y023074D01*
X015980Y023074D01*
X015959Y023053D01*
X015939Y023074D01*
X015783Y023074D01*
X015762Y023053D01*
X015742Y023074D01*
X015586Y023074D01*
X015566Y023053D01*
X015545Y023074D01*
X015389Y023074D01*
X015369Y023053D01*
X015348Y023074D01*
X015193Y023074D01*
X015172Y023053D01*
X015151Y023074D01*
X014996Y023074D01*
X014975Y023053D01*
X014954Y023074D01*
X014799Y023074D01*
X014778Y023053D01*
X014758Y023074D01*
X014602Y023074D01*
X014581Y023053D01*
X014561Y023074D01*
X014465Y023074D01*
X014465Y023741D01*
X014643Y023741D01*
X014719Y023817D01*
X014719Y024435D01*
X014665Y024488D01*
X014682Y024498D01*
X014710Y024526D01*
X014730Y024560D01*
X014740Y024598D01*
X014740Y024824D01*
X014345Y024824D01*
X014345Y024924D01*
X014740Y024924D01*
X014740Y025150D01*
X014730Y025188D01*
X014710Y025222D01*
X014682Y025250D01*
X014648Y025270D01*
X014610Y025280D01*
X014345Y025280D01*
X014345Y024924D01*
X014245Y024924D01*
X014245Y025280D01*
X014030Y025280D01*
X014162Y025411D01*
X014272Y025522D01*
X014272Y026328D01*
X014162Y026439D01*
X014162Y026439D01*
X013522Y027078D01*
X013522Y027078D01*
X013412Y027189D01*
X012591Y027189D01*
X012541Y027269D02*
X018180Y027269D01*
X018160Y027260D02*
X018088Y027189D01*
X015755Y027189D01*
X015645Y027078D01*
X015463Y026897D01*
X015463Y026386D01*
X015341Y026386D01*
X015266Y026311D01*
X015266Y025689D01*
X015341Y025614D01*
X015963Y025614D01*
X016038Y025689D01*
X016038Y026311D01*
X015963Y026386D01*
X015841Y026386D01*
X015841Y026741D01*
X015912Y026811D01*
X018088Y026811D01*
X018160Y026740D01*
X018272Y026693D01*
X018394Y026693D01*
X018507Y026740D01*
X018593Y026826D01*
X018640Y026939D01*
X018640Y027061D01*
X018593Y027174D01*
X018507Y027260D01*
X018394Y027307D01*
X018272Y027307D01*
X018160Y027260D01*
X018487Y027269D02*
X020223Y027269D01*
X020223Y027367D02*
X012418Y027367D01*
X011981Y026579D02*
X006632Y026579D01*
X006331Y026481D02*
X012030Y026481D01*
X012027Y026382D02*
X012079Y026382D01*
X011853Y026382D02*
X011467Y026382D01*
X011538Y026284D02*
X011677Y026284D01*
X011598Y026185D02*
X011538Y026185D01*
X011538Y026087D02*
X011557Y026087D01*
X011553Y025988D02*
X011538Y025988D01*
X011538Y025890D02*
X011567Y025890D01*
X011538Y025791D02*
X011608Y025791D01*
X011538Y025693D02*
X011701Y025693D01*
X011113Y025299D02*
X008419Y025299D01*
X008419Y025397D02*
X011045Y025397D01*
X011017Y025496D02*
X008418Y025496D01*
X008418Y025594D02*
X008973Y025594D01*
X008986Y025594D02*
X009043Y025594D01*
X009056Y025594D02*
X010972Y025594D01*
X010766Y025693D02*
X009283Y025693D01*
X009365Y025791D02*
X010766Y025791D01*
X010766Y025890D02*
X009407Y025890D01*
X009422Y026029D02*
X009422Y026032D01*
X009412Y026095D01*
X009392Y026156D01*
X009363Y026214D01*
X009325Y026265D01*
X009280Y026311D01*
X009228Y026349D01*
X009171Y026378D01*
X009110Y026397D01*
X009047Y026407D01*
X009043Y026407D01*
X009043Y026029D01*
X009422Y026029D01*
X009413Y026087D02*
X010766Y026087D01*
X010766Y026185D02*
X009377Y026185D01*
X009307Y026284D02*
X010766Y026284D01*
X010837Y026382D02*
X009157Y026382D01*
X009043Y026382D02*
X008986Y026382D01*
X008986Y026284D02*
X009043Y026284D01*
X009043Y026185D02*
X008986Y026185D01*
X008986Y026087D02*
X009043Y026087D01*
X009043Y025988D02*
X010766Y025988D01*
X009043Y025890D02*
X008986Y025890D01*
X008986Y025791D02*
X009043Y025791D01*
X009043Y025693D02*
X008986Y025693D01*
X008746Y025693D02*
X008466Y025693D01*
X008559Y025791D02*
X008664Y025791D01*
X008622Y025890D02*
X008599Y025890D01*
X008609Y026087D02*
X008616Y026087D01*
X008651Y026185D02*
X008568Y026185D01*
X008490Y026284D02*
X008722Y026284D01*
X008872Y026382D02*
X008314Y026382D01*
X008140Y026382D02*
X007527Y026382D01*
X007516Y026386D02*
X007363Y026386D01*
X007221Y026327D01*
X007112Y026219D01*
X007053Y026077D01*
X007053Y025923D01*
X007112Y025781D01*
X007221Y025673D01*
X007363Y025614D01*
X007516Y025614D01*
X007658Y025673D01*
X007767Y025781D01*
X007826Y025923D01*
X007826Y026077D01*
X007767Y026219D01*
X007658Y026327D01*
X007516Y026386D01*
X007353Y026382D02*
X006967Y026382D01*
X006963Y026386D02*
X006341Y026386D01*
X006266Y026311D01*
X006266Y025689D01*
X006341Y025614D01*
X006963Y025614D01*
X007038Y025689D01*
X007038Y026311D01*
X006963Y026386D01*
X007038Y026284D02*
X007177Y026284D01*
X007098Y026185D02*
X007038Y026185D01*
X007038Y026087D02*
X007057Y026087D01*
X007053Y025988D02*
X007038Y025988D01*
X007038Y025890D02*
X007067Y025890D01*
X007038Y025791D02*
X007108Y025791D01*
X007038Y025693D02*
X007201Y025693D01*
X007174Y025299D02*
X008042Y025299D01*
X008041Y025397D02*
X006257Y025397D01*
X006257Y025299D02*
X006492Y025299D01*
X006378Y025200D02*
X006257Y025200D01*
X006257Y025102D02*
X006281Y025102D01*
X006257Y025496D02*
X008041Y025496D01*
X008040Y025594D02*
X006257Y025594D01*
X006257Y025693D02*
X006266Y025693D01*
X006257Y025791D02*
X006266Y025791D01*
X006257Y025890D02*
X006266Y025890D01*
X006257Y025988D02*
X006266Y025988D01*
X006257Y026087D02*
X006266Y026087D01*
X006257Y026185D02*
X006266Y026185D01*
X006257Y026284D02*
X006266Y026284D01*
X006275Y026382D02*
X006337Y026382D01*
X005565Y026875D02*
X005483Y026875D01*
X005483Y026973D02*
X005636Y026973D01*
X005708Y027072D02*
X005483Y027072D01*
X005483Y027170D02*
X005823Y027170D01*
X005959Y027269D02*
X005483Y027269D01*
X005483Y027367D02*
X006186Y027367D01*
X005483Y027466D02*
X020223Y027466D01*
X020223Y027564D02*
X005483Y027564D01*
X005483Y027663D02*
X020223Y027663D01*
X020223Y027761D02*
X005483Y027761D01*
X005483Y027860D02*
X019959Y027860D01*
X019852Y027958D02*
X005483Y027958D01*
X005483Y028057D02*
X019758Y028057D01*
X019717Y028155D02*
X005483Y028155D01*
X005483Y028254D02*
X019676Y028254D01*
X019662Y028352D02*
X005483Y028352D01*
X005483Y028451D02*
X019662Y028451D01*
X019663Y028549D02*
X005483Y028549D01*
X005483Y028648D02*
X019704Y028648D01*
X019745Y028746D02*
X005483Y028746D01*
X005489Y028845D02*
X019820Y028845D01*
X019919Y028943D02*
X005512Y028943D01*
X005553Y029042D02*
X020122Y029042D01*
X020223Y029140D02*
X005617Y029140D01*
X005716Y029239D02*
X020223Y029239D01*
X020223Y029337D02*
X005946Y029337D01*
X005508Y026776D02*
X005483Y026776D01*
X007289Y025200D02*
X008042Y025200D01*
X008043Y025102D02*
X007386Y025102D01*
X007426Y025003D02*
X008044Y025003D01*
X008044Y024905D02*
X007467Y024905D01*
X007483Y024806D02*
X008044Y024806D01*
X008058Y024708D02*
X007483Y024708D01*
X007483Y024609D02*
X008148Y024609D01*
X008231Y024511D02*
X007443Y024511D01*
X007403Y024412D02*
X008314Y024412D01*
X008398Y024314D02*
X007330Y024314D01*
X007231Y024215D02*
X008481Y024215D01*
X008564Y024117D02*
X007036Y024117D01*
X006631Y024117D02*
X006257Y024117D01*
X006257Y024215D02*
X006435Y024215D01*
X006337Y024314D02*
X006257Y024314D01*
X006257Y024412D02*
X006264Y024412D01*
X006257Y024018D02*
X008648Y024018D01*
X008731Y023920D02*
X006257Y023920D01*
X006257Y023821D02*
X008814Y023821D01*
X008898Y023723D02*
X006257Y023723D01*
X006257Y023624D02*
X008981Y023624D01*
X009064Y023526D02*
X006257Y023526D01*
X006257Y023427D02*
X009145Y023427D01*
X009231Y023329D02*
X006257Y023329D01*
X006257Y023230D02*
X012651Y023230D01*
X012750Y023132D02*
X006257Y023132D01*
X006257Y022442D02*
X006849Y022442D01*
X006937Y022530D02*
X006626Y022220D01*
X006626Y022050D01*
X007106Y022050D01*
X007106Y021950D01*
X006626Y021950D01*
X006626Y021780D01*
X006937Y021470D01*
X007106Y021470D01*
X007106Y021950D01*
X007206Y021950D01*
X007206Y021470D01*
X007376Y021470D01*
X007686Y021780D01*
X007686Y021950D01*
X007206Y021950D01*
X007206Y022050D01*
X007106Y022050D01*
X007106Y022530D01*
X006937Y022530D01*
X007106Y022442D02*
X007206Y022442D01*
X007206Y022530D02*
X007376Y022530D01*
X007686Y022220D01*
X007686Y022050D01*
X007206Y022050D01*
X007206Y022530D01*
X007206Y022344D02*
X007106Y022344D01*
X007106Y022245D02*
X007206Y022245D01*
X007206Y022147D02*
X007106Y022147D01*
X007106Y022048D02*
X006257Y022048D01*
X006257Y021950D02*
X006626Y021950D01*
X006626Y021851D02*
X006257Y021851D01*
X006257Y021753D02*
X006654Y021753D01*
X006753Y021654D02*
X006257Y021654D01*
X006257Y021556D02*
X006851Y021556D01*
X007106Y021556D02*
X007206Y021556D01*
X007206Y021654D02*
X007106Y021654D01*
X007106Y021753D02*
X007206Y021753D01*
X007206Y021851D02*
X007106Y021851D01*
X007106Y021950D02*
X007206Y021950D01*
X007206Y022048D02*
X010584Y022048D01*
X010584Y021950D02*
X007686Y021950D01*
X007686Y021851D02*
X010584Y021851D01*
X010621Y021753D02*
X007658Y021753D01*
X007560Y021654D02*
X010720Y021654D01*
X010818Y021556D02*
X007461Y021556D01*
X007686Y022147D02*
X010584Y022147D01*
X010619Y022245D02*
X007661Y022245D01*
X007562Y022344D02*
X010717Y022344D01*
X010816Y022442D02*
X007464Y022442D01*
X006750Y022344D02*
X006257Y022344D01*
X006257Y022245D02*
X006652Y022245D01*
X006626Y022147D02*
X006257Y022147D01*
X006257Y019487D02*
X006526Y019487D01*
X006536Y019497D02*
X006460Y019421D01*
X006460Y019079D01*
X006536Y019003D01*
X007509Y019003D01*
X007584Y019079D01*
X007584Y019421D01*
X007509Y019497D01*
X006536Y019497D01*
X006460Y019389D02*
X006257Y019389D01*
X006257Y019290D02*
X006460Y019290D01*
X006460Y019192D02*
X006257Y019192D01*
X006257Y019093D02*
X006460Y019093D01*
X006534Y018995D02*
X006257Y018995D01*
X006257Y018896D02*
X006460Y018896D01*
X006460Y018798D02*
X006257Y018798D01*
X006257Y018699D02*
X006460Y018699D01*
X006460Y018601D02*
X006257Y018601D01*
X007022Y018750D02*
X007433Y018750D01*
X007584Y018896D02*
X010083Y018896D01*
X010083Y018798D02*
X009874Y018798D01*
X009997Y018699D02*
X010083Y018699D01*
X010083Y018601D02*
X010041Y018601D01*
X010050Y018502D02*
X011036Y018502D01*
X010644Y018250D02*
X010012Y018250D01*
X009743Y018520D01*
X009612Y018798D02*
X007698Y018798D01*
X007813Y018699D02*
X009488Y018699D01*
X009444Y018601D02*
X007929Y018601D01*
X008045Y018502D02*
X009436Y018502D01*
X009459Y018404D02*
X008161Y018404D01*
X008276Y018305D02*
X009523Y018305D01*
X009803Y018207D02*
X008392Y018207D01*
X008508Y018108D02*
X009902Y018108D01*
X010067Y017911D02*
X008647Y017911D01*
X008647Y017813D02*
X010061Y017813D01*
X010061Y017714D02*
X008647Y017714D01*
X008647Y017616D02*
X010061Y017616D01*
X010114Y017517D02*
X008647Y017517D01*
X008647Y017419D02*
X010070Y017419D01*
X010061Y017320D02*
X008647Y017320D01*
X008647Y017222D02*
X010061Y017222D01*
X010061Y017123D02*
X008647Y017123D01*
X008647Y017025D02*
X010107Y017025D01*
X010072Y016926D02*
X010061Y016888D01*
X010061Y016729D02*
X008647Y016729D01*
X008647Y016631D02*
X010061Y016631D01*
X010099Y016532D02*
X008647Y016532D01*
X008647Y016434D02*
X010076Y016434D01*
X010061Y016335D02*
X008647Y016335D01*
X008647Y016237D02*
X010061Y016237D01*
X010061Y016138D02*
X009897Y016138D01*
X009995Y016040D02*
X010092Y016040D01*
X010080Y015941D02*
X010040Y015941D01*
X010040Y015843D02*
X010061Y015843D01*
X009682Y015744D02*
X008647Y015744D01*
X008647Y015646D02*
X009682Y015646D01*
X009682Y015547D02*
X008647Y015547D01*
X008647Y015449D02*
X008902Y015449D01*
X008825Y015350D02*
X008824Y015350D01*
X009177Y015350D02*
X009277Y015350D01*
X009277Y015252D02*
X009177Y015252D01*
X009177Y015153D02*
X009277Y015153D01*
X009277Y015055D02*
X009177Y015055D01*
X009277Y015050D02*
X009277Y015465D01*
X009503Y015465D01*
X009541Y015455D01*
X009575Y015435D01*
X009603Y015407D01*
X009623Y015373D01*
X009633Y015335D01*
X009633Y015050D01*
X009277Y015050D01*
X009277Y014956D02*
X009904Y014956D01*
X009806Y015055D02*
X009633Y015055D01*
X009633Y015153D02*
X009707Y015153D01*
X009682Y015252D02*
X009633Y015252D01*
X009629Y015350D02*
X009682Y015350D01*
X009682Y015449D02*
X009552Y015449D01*
X009277Y015449D02*
X009177Y015449D01*
X009177Y014858D02*
X009277Y014858D01*
X009277Y014759D02*
X009177Y014759D01*
X009177Y014661D02*
X009277Y014661D01*
X009277Y014562D02*
X009177Y014562D01*
X009222Y013577D02*
X012004Y013577D01*
X012102Y013479D02*
X009222Y013479D01*
X009222Y013380D02*
X012201Y013380D01*
X012333Y013500D02*
X013333Y013500D01*
X013473Y013360D01*
X013473Y012939D01*
X013652Y013380D02*
X014201Y013380D01*
X014102Y013479D02*
X013608Y013479D01*
X013509Y013577D02*
X014004Y013577D01*
X013905Y013676D02*
X013411Y013676D01*
X013215Y013774D02*
X013807Y013774D01*
X013833Y014000D02*
X014497Y013337D01*
X014497Y012939D01*
X014694Y012986D02*
X014890Y012986D01*
X014890Y012888D02*
X014694Y012888D01*
X014694Y012789D02*
X014856Y012789D01*
X014778Y012691D02*
X014694Y012691D01*
X014701Y012592D02*
X014675Y012592D01*
X014777Y012400D02*
X014383Y012400D01*
X014241Y012593D01*
X014241Y012939D01*
X014694Y013085D02*
X014890Y013085D01*
X014890Y013183D02*
X014694Y013183D01*
X014680Y013282D02*
X014890Y013282D01*
X014890Y013380D02*
X014675Y013380D01*
X014608Y013479D02*
X014953Y013479D01*
X014897Y013577D02*
X014509Y013577D01*
X014411Y013676D02*
X014890Y013676D01*
X014890Y013774D02*
X014312Y013774D01*
X014214Y013873D02*
X014890Y013873D01*
X014890Y013971D02*
X014115Y013971D01*
X014017Y014070D02*
X014890Y014070D01*
X014806Y014168D02*
X013918Y014168D01*
X013833Y014000D02*
X012833Y014000D01*
X012833Y014126D01*
X013257Y014267D02*
X014708Y014267D01*
X014609Y014365D02*
X013257Y014365D01*
X013229Y014464D02*
X014511Y014464D01*
X014412Y014562D02*
X013255Y014562D01*
X013257Y014661D02*
X014314Y014661D01*
X014215Y014759D02*
X013257Y014759D01*
X013257Y014858D02*
X014117Y014858D01*
X014107Y014956D02*
X013257Y014956D01*
X013257Y015055D02*
X014107Y015055D01*
X014107Y015153D02*
X013257Y015153D01*
X013189Y015252D02*
X014107Y015252D01*
X014107Y015350D02*
X013989Y015350D01*
X014052Y015449D02*
X014107Y015449D01*
X014107Y015547D02*
X014071Y015547D01*
X014056Y015646D02*
X014107Y015646D01*
X014107Y015744D02*
X013998Y015744D01*
X014107Y015843D02*
X013744Y015843D01*
X013788Y015941D02*
X013800Y015941D01*
X013985Y015941D02*
X013997Y015941D01*
X014465Y015926D02*
X014561Y015926D01*
X014570Y015936D01*
X014599Y015919D01*
X014652Y015905D01*
X014680Y015905D01*
X014698Y015905D01*
X014698Y015883D01*
X015182Y015398D01*
X015182Y015213D01*
X015170Y015213D01*
X015094Y015138D01*
X015094Y014385D01*
X014465Y015015D01*
X014465Y015926D01*
X014465Y015843D02*
X014738Y015843D01*
X014680Y015905D02*
X014680Y016350D01*
X014680Y016350D01*
X014680Y015905D01*
X014680Y015941D02*
X014680Y015941D01*
X014680Y016040D02*
X014680Y016040D01*
X014680Y016138D02*
X014680Y016138D01*
X014680Y016237D02*
X014680Y016237D01*
X014680Y016335D02*
X014680Y016335D01*
X014680Y016350D02*
X014680Y016796D01*
X014680Y016350D01*
X014680Y016350D01*
X014680Y016434D02*
X014680Y016434D01*
X014680Y016532D02*
X014680Y016532D01*
X014680Y016631D02*
X014680Y016631D01*
X014680Y016729D02*
X014680Y016729D01*
X014680Y016796D02*
X014662Y016796D01*
X014662Y017003D01*
X014544Y017121D01*
X015051Y017121D01*
X015026Y017061D01*
X015026Y016939D01*
X015073Y016826D01*
X015125Y016774D01*
X014996Y016774D01*
X014975Y016754D01*
X014954Y016774D01*
X014799Y016774D01*
X014789Y016765D01*
X014760Y016781D01*
X014707Y016796D01*
X014680Y016796D01*
X014662Y016828D02*
X015073Y016828D01*
X015032Y016926D02*
X014662Y016926D01*
X014640Y017025D02*
X015026Y017025D01*
X015073Y016350D02*
X015073Y016024D01*
X015297Y015800D01*
X016083Y015800D01*
X016306Y015578D01*
X016306Y014750D01*
X016572Y014759D02*
X018190Y014759D01*
X018576Y014759D02*
X021855Y014759D01*
X021855Y014661D02*
X016572Y014661D01*
X016572Y014562D02*
X021855Y014562D01*
X021855Y014464D02*
X016572Y014464D01*
X016572Y014365D02*
X021840Y014365D01*
X021769Y014267D02*
X015995Y014267D01*
X015909Y014168D02*
X015777Y014168D01*
X015777Y014070D02*
X015909Y014070D01*
X015852Y014267D02*
X015814Y014267D01*
X015814Y014365D02*
X015852Y014365D01*
X015852Y014464D02*
X015814Y014464D01*
X015814Y014562D02*
X015852Y014562D01*
X015852Y014661D02*
X015814Y014661D01*
X015814Y014769D02*
X015814Y015235D01*
X015676Y015235D01*
X015638Y015224D01*
X015603Y015205D01*
X015582Y015183D01*
X015552Y015213D01*
X015540Y015213D01*
X015540Y015546D01*
X015465Y015621D01*
X016009Y015621D01*
X016127Y015504D01*
X016127Y015213D01*
X016115Y015213D01*
X016085Y015183D01*
X016063Y015205D01*
X016029Y015224D01*
X015991Y015235D01*
X015852Y015235D01*
X015852Y014769D01*
X015814Y014769D01*
X015814Y014858D02*
X015852Y014858D01*
X015852Y014956D02*
X015814Y014956D01*
X015814Y015055D02*
X015852Y015055D01*
X015852Y015153D02*
X015814Y015153D01*
X015540Y015252D02*
X016127Y015252D01*
X016127Y015350D02*
X015540Y015350D01*
X015540Y015449D02*
X016127Y015449D01*
X016084Y015547D02*
X015539Y015547D01*
X015361Y015472D02*
X015361Y014750D01*
X015094Y014759D02*
X014721Y014759D01*
X014819Y014661D02*
X015094Y014661D01*
X015094Y014562D02*
X014918Y014562D01*
X015016Y014464D02*
X015094Y014464D01*
X015094Y014858D02*
X014622Y014858D01*
X014524Y014956D02*
X015094Y014956D01*
X015094Y015055D02*
X014465Y015055D01*
X014465Y015153D02*
X015109Y015153D01*
X015182Y015252D02*
X014465Y015252D01*
X014465Y015350D02*
X015182Y015350D01*
X015132Y015449D02*
X014465Y015449D01*
X014465Y015547D02*
X015034Y015547D01*
X014935Y015646D02*
X014465Y015646D01*
X014465Y015744D02*
X014837Y015744D01*
X014877Y015957D02*
X015361Y015472D01*
X014877Y015957D02*
X014877Y016350D01*
X013833Y017300D02*
X016683Y017300D01*
X016933Y017100D01*
X016935Y017419D02*
X016821Y017419D01*
X016885Y017517D02*
X013869Y017517D01*
X013957Y017616D02*
X016834Y017616D01*
X016837Y017714D02*
X016694Y017714D01*
X016782Y017813D02*
X016837Y017813D01*
X016837Y017911D02*
X016821Y017911D01*
X016821Y018010D02*
X016837Y018010D01*
X016837Y018108D02*
X016789Y018108D01*
X016837Y018207D02*
X016710Y018207D01*
X016837Y018305D02*
X016547Y018305D01*
X016606Y018404D02*
X016837Y018404D01*
X016837Y018502D02*
X016622Y018502D01*
X016604Y018601D02*
X016816Y018601D01*
X016740Y018699D02*
X016543Y018699D01*
X017016Y018835D02*
X017016Y017654D01*
X017223Y017246D01*
X017223Y016116D01*
X017239Y016350D01*
X017436Y016350D02*
X017455Y016852D01*
X017588Y017181D01*
X017863Y017320D02*
X018586Y017320D01*
X018592Y017222D02*
X017895Y017222D01*
X017895Y017123D02*
X018586Y017123D01*
X018622Y017025D02*
X017855Y017025D01*
X017767Y016926D02*
X020655Y016926D01*
X020655Y016828D02*
X017637Y016828D01*
X017785Y017419D02*
X018593Y017419D01*
X018586Y017517D02*
X017286Y017517D01*
X017336Y017419D02*
X017392Y017419D01*
X017236Y017616D02*
X018593Y017616D01*
X018586Y017714D02*
X017194Y017714D01*
X017194Y017813D02*
X018593Y017813D01*
X018586Y017911D02*
X017194Y017911D01*
X017194Y018010D02*
X018593Y018010D01*
X018586Y018108D02*
X017194Y018108D01*
X017194Y018207D02*
X018593Y018207D01*
X018586Y018305D02*
X017194Y018305D01*
X017194Y018404D02*
X018593Y018404D01*
X018586Y018502D02*
X017194Y018502D01*
X017215Y018601D02*
X018593Y018601D01*
X018586Y018699D02*
X017292Y018699D01*
X017282Y018995D02*
X017519Y018995D01*
X017421Y019093D02*
X017191Y019093D01*
X017223Y019543D02*
X017223Y020786D01*
X017436Y020998D01*
X017436Y022650D01*
X017239Y022650D02*
X017239Y022204D01*
X017257Y022204D01*
X017257Y021072D01*
X017202Y021018D01*
X016848Y021263D01*
X016807Y021304D01*
X016789Y021304D01*
X016774Y021315D01*
X016717Y021304D01*
X016546Y021304D01*
X016578Y021336D01*
X016622Y021443D01*
X016622Y021557D01*
X016578Y021664D01*
X016497Y021745D01*
X016391Y021789D01*
X016297Y021789D01*
X016236Y021850D01*
X016236Y022226D01*
X016332Y022226D01*
X016353Y022246D01*
X016374Y022226D01*
X016529Y022226D01*
X016550Y022246D01*
X016571Y022226D01*
X016726Y022226D01*
X016747Y022246D01*
X016767Y022226D01*
X016923Y022226D01*
X016944Y022246D01*
X016964Y022226D01*
X017120Y022226D01*
X017129Y022235D01*
X017158Y022219D01*
X017211Y022204D01*
X017239Y022204D01*
X017239Y022650D01*
X017239Y022206D01*
X016983Y021850D01*
X016833Y021900D01*
X016582Y021654D02*
X017257Y021654D01*
X017257Y021556D02*
X016622Y021556D01*
X016622Y021457D02*
X017257Y021457D01*
X017257Y021359D02*
X016587Y021359D01*
X016733Y021126D02*
X017223Y020786D01*
X017402Y020669D02*
X018586Y020669D01*
X018595Y020571D02*
X017968Y020571D01*
X018048Y020472D02*
X018586Y020472D01*
X018595Y020374D02*
X018081Y020374D01*
X018083Y020275D02*
X018586Y020275D01*
X018595Y020177D02*
X018181Y020177D01*
X018280Y020078D02*
X018586Y020078D01*
X018595Y019980D02*
X018378Y019980D01*
X018477Y019881D02*
X018586Y019881D01*
X018408Y019697D02*
X019010Y019697D01*
X018930Y019697D01*
X019010Y019500D02*
X017975Y019500D01*
X017774Y019701D01*
X017490Y019586D02*
X017434Y019586D01*
X017402Y019684D02*
X017467Y019684D01*
X017476Y019783D02*
X017402Y019783D01*
X017402Y019881D02*
X017521Y019881D01*
X017402Y019980D02*
X017645Y019980D01*
X017593Y020078D02*
X017402Y020078D01*
X017402Y020177D02*
X017506Y020177D01*
X017467Y020275D02*
X017402Y020275D01*
X017402Y020374D02*
X017467Y020374D01*
X017501Y020472D02*
X017402Y020472D01*
X017402Y020571D02*
X017580Y020571D01*
X017458Y020768D02*
X018595Y020768D01*
X018586Y020866D02*
X017556Y020866D01*
X017614Y020965D02*
X018595Y020965D01*
X018586Y021063D02*
X017614Y021063D01*
X017614Y021162D02*
X018595Y021162D01*
X018586Y021260D02*
X017614Y021260D01*
X017614Y021359D02*
X018596Y021359D01*
X018586Y021457D02*
X017614Y021457D01*
X017614Y021556D02*
X018596Y021556D01*
X018586Y021654D02*
X017614Y021654D01*
X017614Y021753D02*
X018596Y021753D01*
X018586Y021851D02*
X017614Y021851D01*
X017614Y021950D02*
X018596Y021950D01*
X018695Y022048D02*
X017614Y022048D01*
X017614Y022147D02*
X020223Y022147D01*
X020223Y022245D02*
X018320Y022245D01*
X018411Y022344D02*
X020223Y022344D01*
X020223Y022442D02*
X018411Y022442D01*
X018411Y022541D02*
X020223Y022541D01*
X020223Y022639D02*
X018411Y022639D01*
X018411Y022738D02*
X020223Y022738D01*
X020223Y022836D02*
X018411Y022836D01*
X018411Y022935D02*
X020223Y022935D01*
X020223Y023033D02*
X019233Y023033D01*
X019332Y023132D02*
X020223Y023132D01*
X020223Y023230D02*
X019430Y023230D01*
X019529Y023329D02*
X019685Y023329D01*
X019371Y024053D02*
X020197Y024053D01*
X020223Y024302D02*
X019709Y024302D01*
X019639Y024232D01*
X019379Y024232D01*
X019313Y024238D01*
X019306Y024232D01*
X019297Y024232D01*
X019250Y024185D01*
X018743Y023760D01*
X018743Y024033D01*
X018387Y024033D01*
X018387Y024133D01*
X018743Y024133D01*
X018743Y024417D01*
X018733Y024456D01*
X018713Y024490D01*
X018685Y024518D01*
X018679Y024522D01*
X018679Y024719D01*
X018724Y024719D01*
X018964Y024479D01*
X019068Y024374D01*
X019639Y024374D01*
X019709Y024304D01*
X020223Y024304D01*
X020223Y024302D01*
X020197Y024553D02*
X019142Y024553D01*
X018798Y024898D01*
X018322Y024898D01*
X018294Y024870D01*
X018679Y024708D02*
X018735Y024708D01*
X018679Y024609D02*
X018834Y024609D01*
X018932Y024511D02*
X018692Y024511D01*
X018743Y024412D02*
X019031Y024412D01*
X018743Y024314D02*
X019700Y024314D01*
X019371Y024053D02*
X018748Y023530D01*
X015051Y023530D01*
X015237Y023723D02*
X017165Y023723D01*
X017165Y023821D02*
X016762Y023821D01*
X016505Y023821D02*
X014719Y023821D01*
X014719Y023920D02*
X016380Y023920D01*
X016335Y024018D02*
X014719Y024018D01*
X014719Y024117D02*
X016326Y024117D01*
X016349Y024215D02*
X014719Y024215D01*
X014719Y024314D02*
X016413Y024314D01*
X016854Y024314D02*
X017165Y024314D01*
X017165Y024412D02*
X014719Y024412D01*
X014695Y024511D02*
X017172Y024511D01*
X017161Y024609D02*
X014740Y024609D01*
X014740Y024708D02*
X017161Y024708D01*
X017161Y024806D02*
X014740Y024806D01*
X014740Y025003D02*
X017161Y025003D01*
X017161Y024905D02*
X014345Y024905D01*
X014345Y025003D02*
X014245Y025003D01*
X014245Y025102D02*
X014345Y025102D01*
X014345Y025200D02*
X014245Y025200D01*
X014049Y025299D02*
X017371Y025299D01*
X017371Y025397D02*
X014147Y025397D01*
X014246Y025496D02*
X017361Y025496D01*
X017361Y025594D02*
X014272Y025594D01*
X014272Y025693D02*
X015266Y025693D01*
X015266Y025791D02*
X014272Y025791D01*
X014272Y025890D02*
X015266Y025890D01*
X015266Y025988D02*
X014272Y025988D01*
X014272Y026087D02*
X015266Y026087D01*
X015266Y026185D02*
X014272Y026185D01*
X014272Y026284D02*
X015266Y026284D01*
X015337Y026382D02*
X014218Y026382D01*
X014120Y026481D02*
X015463Y026481D01*
X015463Y026579D02*
X014021Y026579D01*
X013923Y026678D02*
X015463Y026678D01*
X015463Y026776D02*
X013824Y026776D01*
X013726Y026875D02*
X015463Y026875D01*
X015539Y026973D02*
X013627Y026973D01*
X013529Y027072D02*
X015638Y027072D01*
X015736Y027170D02*
X013430Y027170D01*
X013340Y025496D02*
X013712Y025496D01*
X013613Y025397D02*
X013340Y025397D01*
X013303Y025299D02*
X013515Y025299D01*
X013514Y024912D02*
X013552Y024874D01*
X014740Y025102D02*
X017161Y025102D01*
X017161Y025200D02*
X014723Y025200D01*
X015967Y026382D02*
X016353Y026382D01*
X016363Y026386D02*
X016221Y026327D01*
X016112Y026219D01*
X016053Y026077D01*
X016053Y025923D01*
X016112Y025781D01*
X016221Y025673D01*
X016363Y025614D01*
X016516Y025614D01*
X016658Y025673D01*
X016767Y025781D01*
X016826Y025923D01*
X016826Y026077D01*
X016767Y026219D01*
X016658Y026327D01*
X016516Y026386D01*
X016363Y026386D01*
X016527Y026382D02*
X017140Y026382D01*
X017314Y026382D02*
X017872Y026382D01*
X017986Y026382D02*
X018043Y026382D01*
X018043Y026407D02*
X018043Y026029D01*
X018422Y026029D01*
X018422Y026032D01*
X018412Y026095D01*
X018392Y026156D01*
X018363Y026214D01*
X018325Y026265D01*
X018280Y026311D01*
X018228Y026349D01*
X018171Y026378D01*
X018110Y026397D01*
X018047Y026407D01*
X018043Y026407D01*
X018157Y026382D02*
X020223Y026382D01*
X020223Y026284D02*
X018307Y026284D01*
X018377Y026185D02*
X020223Y026185D01*
X020223Y026087D02*
X018413Y026087D01*
X018407Y025890D02*
X020223Y025890D01*
X020223Y025988D02*
X018043Y025988D01*
X018014Y026000D02*
X018833Y026000D01*
X019333Y026500D01*
X018614Y026875D02*
X020223Y026875D01*
X020223Y026973D02*
X018640Y026973D01*
X018636Y027072D02*
X020223Y027072D01*
X020223Y027170D02*
X018595Y027170D01*
X018543Y026776D02*
X020223Y026776D01*
X020223Y026678D02*
X015841Y026678D01*
X015841Y026579D02*
X020223Y026579D01*
X020223Y026481D02*
X015841Y026481D01*
X016038Y026284D02*
X016177Y026284D01*
X016098Y026185D02*
X016038Y026185D01*
X016038Y026087D02*
X016057Y026087D01*
X016053Y025988D02*
X016038Y025988D01*
X016038Y025890D02*
X016067Y025890D01*
X016038Y025791D02*
X016108Y025791D01*
X016038Y025693D02*
X016201Y025693D01*
X016678Y025693D02*
X016988Y025693D01*
X016896Y025791D02*
X016771Y025791D01*
X016812Y025890D02*
X016855Y025890D01*
X016841Y025988D02*
X016826Y025988D01*
X016822Y026087D02*
X016845Y026087D01*
X016886Y026185D02*
X016781Y026185D01*
X016702Y026284D02*
X016964Y026284D01*
X017490Y026284D02*
X017722Y026284D01*
X017651Y026185D02*
X017568Y026185D01*
X017609Y026087D02*
X017616Y026087D01*
X017986Y026087D02*
X018043Y026087D01*
X018043Y026185D02*
X017986Y026185D01*
X017986Y026284D02*
X018043Y026284D01*
X018043Y025890D02*
X017986Y025890D01*
X017986Y025791D02*
X018043Y025791D01*
X018043Y025693D02*
X017986Y025693D01*
X017986Y025594D02*
X018043Y025594D01*
X018056Y025594D02*
X020223Y025594D01*
X020223Y025496D02*
X017739Y025496D01*
X017739Y025594D02*
X017973Y025594D01*
X017746Y025693D02*
X017739Y025693D01*
X017550Y025535D02*
X017550Y024083D01*
X017550Y024866D01*
X017546Y024870D01*
X017729Y025299D02*
X019679Y025299D01*
X019670Y025293D02*
X019642Y025265D01*
X019622Y025231D01*
X019612Y025193D01*
X019612Y025063D01*
X020187Y025063D01*
X020187Y025323D01*
X019742Y025323D01*
X019704Y025313D01*
X019670Y025293D01*
X019614Y025200D02*
X018679Y025200D01*
X018679Y025102D02*
X019612Y025102D01*
X019612Y025003D02*
X018945Y025003D01*
X019044Y024905D02*
X019614Y024905D01*
X019682Y024806D02*
X019142Y024806D01*
X019280Y024215D02*
X018743Y024215D01*
X018743Y024018D02*
X019051Y024018D01*
X019168Y024117D02*
X018387Y024117D01*
X018743Y023920D02*
X018934Y023920D01*
X018816Y023821D02*
X018743Y023821D01*
X017239Y022650D02*
X017239Y022650D01*
X017239Y022639D02*
X017239Y022639D01*
X017239Y022541D02*
X017239Y022541D01*
X017239Y022442D02*
X017239Y022442D01*
X017239Y022344D02*
X017239Y022344D01*
X017239Y022245D02*
X017239Y022245D01*
X017257Y022147D02*
X016236Y022147D01*
X016236Y022048D02*
X017257Y022048D01*
X017257Y021950D02*
X016236Y021950D01*
X016236Y021851D02*
X017257Y021851D01*
X017257Y021753D02*
X016478Y021753D01*
X016333Y021500D02*
X016058Y021776D01*
X016058Y022650D01*
X016352Y022245D02*
X016354Y022245D01*
X016549Y022245D02*
X016551Y022245D01*
X016746Y022245D02*
X016748Y022245D01*
X016942Y022245D02*
X016945Y022245D01*
X017730Y022245D02*
X017732Y022245D01*
X017927Y022245D02*
X017929Y022245D01*
X018123Y022245D02*
X018126Y022245D01*
X019326Y022048D02*
X020223Y022048D01*
X020223Y021950D02*
X019425Y021950D01*
X019435Y021851D02*
X020223Y021851D01*
X020223Y021753D02*
X019425Y021753D01*
X019435Y021654D02*
X020223Y021654D01*
X020223Y021556D02*
X019425Y021556D01*
X019435Y021457D02*
X020223Y021457D01*
X020223Y021359D02*
X019425Y021359D01*
X019435Y021260D02*
X020223Y021260D01*
X020223Y021162D02*
X019426Y021162D01*
X019435Y021063D02*
X020223Y021063D01*
X020223Y020965D02*
X019426Y020965D01*
X019435Y020866D02*
X020223Y020866D01*
X020223Y020768D02*
X019426Y020768D01*
X019435Y020669D02*
X020223Y020669D01*
X020223Y020571D02*
X019426Y020571D01*
X019435Y020472D02*
X020223Y020472D01*
X020223Y020374D02*
X019426Y020374D01*
X019435Y020275D02*
X020223Y020275D01*
X020223Y020177D02*
X019426Y020177D01*
X019435Y020078D02*
X020223Y020078D01*
X020223Y019980D02*
X019426Y019980D01*
X019435Y019881D02*
X020223Y019881D01*
X020223Y019783D02*
X019427Y019783D01*
X019435Y019684D02*
X020223Y019684D01*
X020223Y019586D02*
X019427Y019586D01*
X019435Y019487D02*
X020223Y019487D01*
X020223Y019389D02*
X019439Y019389D01*
X019456Y019290D02*
X020223Y019290D01*
X020223Y019192D02*
X019427Y019192D01*
X019435Y019093D02*
X020223Y019093D01*
X020223Y018995D02*
X019427Y018995D01*
X019435Y018896D02*
X020223Y018896D01*
X019427Y018798D02*
X021916Y018798D01*
X021814Y018699D02*
X019435Y018699D01*
X019428Y018601D02*
X021712Y018601D01*
X021611Y018502D02*
X019435Y018502D01*
X019428Y018404D02*
X021509Y018404D01*
X021407Y018305D02*
X019435Y018305D01*
X019428Y018207D02*
X021306Y018207D01*
X021204Y018108D02*
X019435Y018108D01*
X019428Y018010D02*
X021102Y018010D01*
X021001Y017911D02*
X019435Y017911D01*
X019428Y017813D02*
X020899Y017813D01*
X020797Y017714D02*
X019435Y017714D01*
X019428Y017616D02*
X020696Y017616D01*
X020655Y017517D02*
X019435Y017517D01*
X019428Y017419D02*
X020655Y017419D01*
X020655Y017320D02*
X019435Y017320D01*
X019429Y017222D02*
X020655Y017222D01*
X020655Y017123D02*
X019435Y017123D01*
X019399Y017025D02*
X020655Y017025D01*
X021012Y017025D02*
X021855Y017025D01*
X021855Y017123D02*
X021012Y017123D01*
X021012Y017222D02*
X021855Y017222D01*
X021855Y017320D02*
X021012Y017320D01*
X021012Y017419D02*
X021855Y017419D01*
X021855Y017517D02*
X021108Y017517D01*
X021012Y017424D02*
X022034Y018415D01*
X021904Y018274D01*
X021855Y018224D01*
X021855Y018220D01*
X021852Y018217D01*
X021855Y018146D01*
X021855Y016799D01*
X021853Y016800D01*
X021647Y016800D01*
X021647Y016463D01*
X021547Y016463D01*
X021547Y016800D01*
X021341Y016800D01*
X021303Y016789D01*
X021269Y016770D01*
X021241Y016742D01*
X021225Y016715D01*
X021182Y016759D01*
X021012Y016759D01*
X021012Y017424D01*
X020833Y017500D02*
X022433Y019050D01*
X024283Y019050D01*
X024833Y018500D01*
X024833Y017700D01*
X024233Y017100D01*
X023735Y017123D02*
X023732Y017123D01*
X023732Y017025D02*
X023735Y017025D01*
X023732Y016926D02*
X023735Y016926D01*
X023800Y016828D02*
X023666Y016828D01*
X023568Y016729D02*
X023899Y016729D01*
X023997Y016631D02*
X023469Y016631D01*
X023507Y016532D02*
X023960Y016532D01*
X023862Y016434D02*
X023605Y016434D01*
X023704Y016335D02*
X023763Y016335D01*
X023735Y016237D02*
X023732Y016237D01*
X023732Y016138D02*
X023735Y016138D01*
X023732Y016040D02*
X023735Y016040D01*
X023732Y015941D02*
X023735Y015941D01*
X023744Y015843D02*
X023785Y015843D01*
X023842Y015744D02*
X023884Y015744D01*
X023941Y015646D02*
X023982Y015646D01*
X024039Y015547D02*
X024534Y015547D01*
X024632Y015449D02*
X024138Y015449D01*
X024236Y015350D02*
X024731Y015350D01*
X024829Y015252D02*
X024335Y015252D01*
X024433Y015153D02*
X024928Y015153D01*
X025026Y015055D02*
X024532Y015055D01*
X024630Y014956D02*
X025125Y014956D01*
X025223Y014858D02*
X024729Y014858D01*
X024827Y014759D02*
X025322Y014759D01*
X025420Y014661D02*
X024926Y014661D01*
X025024Y014562D02*
X025519Y014562D01*
X025617Y014464D02*
X025123Y014464D01*
X025221Y014365D02*
X025716Y014365D01*
X025833Y014500D02*
X026333Y014500D01*
X027833Y013000D01*
X027833Y011500D01*
X026755Y010421D01*
X026046Y010421D01*
X023333Y010421D01*
X023255Y010500D01*
X022833Y010500D01*
X022333Y011000D01*
X019633Y011000D01*
X019368Y011115D02*
X019236Y011115D01*
X019215Y011213D02*
X019438Y011213D01*
X019345Y011016D02*
X019258Y011016D01*
X019279Y010918D02*
X019355Y010918D01*
X019406Y010819D02*
X019301Y010819D01*
X019380Y010721D02*
X019554Y010721D01*
X019713Y010721D02*
X020120Y010721D01*
X019861Y010819D02*
X022262Y010819D01*
X022395Y010622D02*
X022459Y010622D01*
X022395Y010524D02*
X022557Y010524D01*
X022656Y010425D02*
X022395Y010425D01*
X022395Y010327D02*
X022754Y010327D01*
X022395Y010228D02*
X023653Y010228D01*
X023574Y010130D02*
X022395Y010130D01*
X022395Y010031D02*
X023545Y010031D01*
X023549Y009933D02*
X022395Y009933D01*
X022330Y009834D02*
X023591Y009834D01*
X023655Y009736D02*
X021201Y009736D01*
X021299Y009637D02*
X023655Y009637D01*
X023655Y009539D02*
X021398Y009539D01*
X021496Y009440D02*
X023655Y009440D01*
X023655Y009342D02*
X021595Y009342D01*
X021638Y009243D02*
X023655Y009243D01*
X023655Y009145D02*
X021638Y009145D01*
X021638Y009046D02*
X023655Y009046D01*
X023655Y008948D02*
X021638Y008948D01*
X021459Y009224D02*
X021459Y008500D01*
X021459Y009224D02*
X021033Y009650D01*
X019683Y009650D01*
X019333Y010000D01*
X019074Y010130D02*
X018831Y010130D01*
X018732Y010228D02*
X019153Y010228D01*
X019240Y010327D02*
X018634Y010327D01*
X018592Y010425D02*
X019141Y010425D01*
X019014Y010552D02*
X018966Y010584D01*
X018961Y010606D01*
X018945Y010622D01*
X018936Y010721D02*
X018592Y010721D01*
X018592Y010819D02*
X018914Y010819D01*
X018893Y010918D02*
X018592Y010918D01*
X018592Y011016D02*
X018871Y011016D01*
X018850Y011115D02*
X018592Y011115D01*
X018592Y011213D02*
X018829Y011213D01*
X018807Y011312D02*
X018592Y011312D01*
X018592Y011410D02*
X018786Y011410D01*
X018764Y011509D02*
X018592Y011509D01*
X018634Y011607D02*
X018692Y011607D01*
X019129Y011607D02*
X019618Y011607D01*
X019560Y011706D02*
X019156Y011706D01*
X019190Y011804D02*
X019545Y011804D01*
X019563Y011903D02*
X019190Y011903D01*
X019151Y011509D02*
X022072Y011509D01*
X021974Y011607D02*
X020049Y011607D01*
X019833Y011800D02*
X019783Y011787D01*
X022046Y011787D01*
X022546Y011287D01*
X026046Y011287D01*
X026096Y010883D02*
X025679Y010883D01*
X025679Y011019D01*
X025622Y011077D01*
X025622Y011109D01*
X022477Y011109D01*
X022907Y010679D01*
X023329Y010679D01*
X023407Y010600D01*
X025622Y010600D01*
X025622Y010632D01*
X025679Y010690D01*
X025679Y010826D01*
X026096Y010826D01*
X026096Y010883D01*
X026153Y010883D02*
X026570Y010883D01*
X026570Y011032D01*
X026560Y011070D01*
X026540Y011104D01*
X026512Y011132D01*
X026478Y011152D01*
X026470Y011154D01*
X026470Y011434D01*
X026473Y011434D01*
X026549Y011510D01*
X026549Y011542D01*
X026628Y011542D01*
X027512Y012426D01*
X027512Y013068D01*
X027655Y012926D01*
X027655Y011574D01*
X026681Y010600D01*
X026535Y010600D01*
X026540Y010605D01*
X026560Y010639D01*
X026570Y010677D01*
X026570Y010826D01*
X026153Y010826D01*
X026153Y010883D01*
X026570Y010918D02*
X026998Y010918D01*
X027097Y011016D02*
X026570Y011016D01*
X026529Y011115D02*
X027195Y011115D01*
X027294Y011213D02*
X026470Y011213D01*
X026470Y011312D02*
X027392Y011312D01*
X027491Y011410D02*
X026470Y011410D01*
X026548Y011509D02*
X027589Y011509D01*
X027655Y011607D02*
X026693Y011607D01*
X026792Y011706D02*
X027655Y011706D01*
X027655Y011804D02*
X026890Y011804D01*
X026989Y011903D02*
X027655Y011903D01*
X027655Y012001D02*
X027087Y012001D01*
X027186Y012100D02*
X027655Y012100D01*
X027655Y012198D02*
X027284Y012198D01*
X027383Y012297D02*
X027655Y012297D01*
X027655Y012395D02*
X027481Y012395D01*
X027512Y012494D02*
X027655Y012494D01*
X027655Y012592D02*
X027512Y012592D01*
X027512Y012691D02*
X027655Y012691D01*
X027655Y012789D02*
X027512Y012789D01*
X027512Y012888D02*
X027655Y012888D01*
X027595Y012986D02*
X027512Y012986D01*
X027805Y013282D02*
X028003Y013282D01*
X028003Y013380D02*
X027706Y013380D01*
X027608Y013479D02*
X028003Y013479D01*
X028003Y013577D02*
X027509Y013577D01*
X027411Y013676D02*
X028003Y013676D01*
X028003Y013774D02*
X027312Y013774D01*
X027214Y013873D02*
X028003Y013873D01*
X028003Y013971D02*
X027115Y013971D01*
X027017Y014070D02*
X028003Y014070D01*
X028003Y014168D02*
X026918Y014168D01*
X026820Y014267D02*
X028003Y014267D01*
X028003Y014365D02*
X026721Y014365D01*
X026623Y014464D02*
X027091Y014464D01*
X027096Y014459D02*
X027068Y014487D01*
X027048Y014521D01*
X027038Y014559D01*
X027038Y014804D01*
X027512Y014804D01*
X027512Y014429D01*
X027168Y014429D01*
X027130Y014439D01*
X027096Y014459D01*
X027038Y014562D02*
X026524Y014562D01*
X026426Y014661D02*
X027038Y014661D01*
X027038Y014759D02*
X025827Y014759D01*
X025729Y014858D02*
X027512Y014858D01*
X027512Y014904D02*
X027038Y014904D01*
X027038Y015150D01*
X027048Y015188D01*
X027068Y015222D01*
X027096Y015250D01*
X027130Y015270D01*
X027168Y015280D01*
X027512Y015280D01*
X027512Y014904D01*
X027512Y014956D02*
X027612Y014956D01*
X027612Y015055D02*
X027512Y015055D01*
X027512Y015153D02*
X027612Y015153D01*
X027612Y015252D02*
X027512Y015252D01*
X027098Y015252D02*
X025335Y015252D01*
X025236Y015350D02*
X028003Y015350D01*
X028003Y015449D02*
X025138Y015449D01*
X025039Y015547D02*
X028003Y015547D01*
X028003Y015646D02*
X024941Y015646D01*
X024842Y015744D02*
X028003Y015744D01*
X028003Y015843D02*
X024744Y015843D01*
X024732Y015941D02*
X028003Y015941D01*
X028003Y016040D02*
X024732Y016040D01*
X024732Y016138D02*
X028003Y016138D01*
X028003Y016237D02*
X024732Y016237D01*
X024704Y016335D02*
X028003Y016335D01*
X028003Y016434D02*
X024605Y016434D01*
X024507Y016532D02*
X028003Y016532D01*
X028003Y016631D02*
X024469Y016631D01*
X024568Y016729D02*
X028003Y016729D01*
X028003Y016828D02*
X024666Y016828D01*
X024732Y016926D02*
X028003Y016926D01*
X028003Y017025D02*
X024732Y017025D01*
X024732Y017123D02*
X028003Y017123D01*
X028003Y017222D02*
X024732Y017222D01*
X024719Y017320D02*
X028003Y017320D01*
X028003Y017419D02*
X024805Y017419D01*
X024903Y017517D02*
X028003Y017517D01*
X028003Y017616D02*
X025002Y017616D01*
X025012Y017714D02*
X028003Y017714D01*
X028003Y017813D02*
X025012Y017813D01*
X025012Y017911D02*
X028003Y017911D01*
X028003Y018010D02*
X025012Y018010D01*
X025012Y018108D02*
X028003Y018108D01*
X028003Y018207D02*
X025012Y018207D01*
X025012Y018305D02*
X028003Y018305D01*
X028003Y018404D02*
X025012Y018404D01*
X025012Y018502D02*
X028003Y018502D01*
X028003Y018601D02*
X024986Y018601D01*
X024887Y018699D02*
X028003Y018699D01*
X028003Y018798D02*
X025119Y018798D01*
X024233Y018300D02*
X023733Y018800D01*
X022633Y018800D01*
X023183Y018601D02*
X023283Y018601D01*
X023283Y018502D02*
X023183Y018502D01*
X023183Y018404D02*
X023283Y018404D01*
X023283Y018305D02*
X023183Y018305D01*
X023183Y018207D02*
X023283Y018207D01*
X023183Y018108D02*
X022238Y018108D01*
X021933Y018305D02*
X021921Y018305D01*
X021852Y018207D02*
X021820Y018207D01*
X021855Y018108D02*
X021718Y018108D01*
X021616Y018010D02*
X021855Y018010D01*
X021855Y017911D02*
X021515Y017911D01*
X021413Y017813D02*
X021855Y017813D01*
X021855Y017714D02*
X021311Y017714D01*
X021209Y017616D02*
X021855Y017616D01*
X021855Y016926D02*
X021012Y016926D01*
X021012Y016828D02*
X021855Y016828D01*
X021647Y016729D02*
X021547Y016729D01*
X021547Y016631D02*
X021647Y016631D01*
X021647Y016532D02*
X021547Y016532D01*
X021547Y016363D02*
X021647Y016363D01*
X021647Y016027D01*
X021853Y016027D01*
X021855Y016028D01*
X021855Y015952D01*
X021308Y015952D01*
X021257Y015901D01*
X021257Y015935D01*
X021193Y016000D01*
X021257Y016065D01*
X021257Y016069D01*
X021269Y016057D01*
X021303Y016037D01*
X021341Y016027D01*
X021547Y016027D01*
X021547Y016363D01*
X021547Y016335D02*
X021647Y016335D01*
X021647Y016237D02*
X021547Y016237D01*
X021547Y016138D02*
X021647Y016138D01*
X021647Y016040D02*
X021547Y016040D01*
X021299Y016040D02*
X021232Y016040D01*
X021252Y015941D02*
X021297Y015941D01*
X021597Y015587D02*
X020873Y015587D01*
X020833Y015626D01*
X020409Y015646D02*
X018872Y015646D01*
X018866Y015744D02*
X020409Y015744D01*
X020409Y015843D02*
X018820Y015843D01*
X018687Y015941D02*
X020415Y015941D01*
X020435Y016040D02*
X018468Y016040D01*
X018411Y016138D02*
X019711Y016138D01*
X019589Y016237D02*
X018411Y016237D01*
X018411Y016335D02*
X019548Y016335D01*
X019545Y016434D02*
X018411Y016434D01*
X018411Y016532D02*
X019575Y016532D01*
X019656Y016631D02*
X018411Y016631D01*
X018346Y016729D02*
X020455Y016729D01*
X020409Y016631D02*
X020011Y016631D01*
X019833Y016400D02*
X020807Y016400D01*
X020833Y016374D01*
X020833Y017500D01*
X021212Y016729D02*
X021234Y016729D01*
X020409Y016138D02*
X019955Y016138D01*
X020409Y015547D02*
X018844Y015547D01*
X018769Y015449D02*
X020409Y015449D01*
X020409Y015350D02*
X017603Y015350D01*
X017640Y015449D02*
X018398Y015449D01*
X018322Y015547D02*
X017640Y015547D01*
X017605Y015646D02*
X018295Y015646D01*
X018258Y015744D02*
X017523Y015744D01*
X017528Y015941D02*
X017540Y015941D01*
X017725Y015941D02*
X017737Y015941D01*
X017922Y015941D02*
X017934Y015941D01*
X018159Y015843D02*
X017258Y015843D01*
X017331Y015941D02*
X017343Y015941D01*
X016645Y015843D02*
X016294Y015843D01*
X016347Y015941D02*
X016359Y015941D01*
X016544Y015941D02*
X016556Y015941D01*
X016645Y015744D02*
X016392Y015744D01*
X016485Y015646D02*
X016645Y015646D01*
X016645Y015547D02*
X016485Y015547D01*
X016485Y015449D02*
X016645Y015449D01*
X016716Y015350D02*
X016485Y015350D01*
X016485Y015252D02*
X016815Y015252D01*
X016755Y015311D02*
X016755Y015311D01*
X016913Y015153D02*
X016557Y015153D01*
X016572Y015055D02*
X017012Y015055D01*
X017110Y014956D02*
X016572Y014956D01*
X016572Y014858D02*
X017209Y014858D01*
X017519Y015252D02*
X018201Y015252D01*
X018566Y015252D02*
X020475Y015252D01*
X021192Y015252D02*
X021278Y015252D01*
X021855Y015153D02*
X018652Y015153D01*
X018690Y015055D02*
X021855Y015055D01*
X021855Y014956D02*
X018690Y014956D01*
X018656Y014858D02*
X021855Y014858D01*
X022633Y015600D02*
X022633Y016800D01*
X022833Y017000D02*
X023133Y017000D01*
X023233Y017100D01*
X023620Y017419D02*
X023847Y017419D01*
X023945Y017517D02*
X023522Y017517D01*
X023484Y017616D02*
X024012Y017616D01*
X023914Y017714D02*
X023583Y017714D01*
X023681Y017813D02*
X023815Y017813D01*
X024233Y018100D02*
X024233Y018300D01*
X023832Y018404D02*
X023665Y018404D01*
X023567Y018502D02*
X023779Y018502D01*
X023680Y018601D02*
X023468Y018601D01*
X024454Y017616D02*
X024496Y017616D01*
X024553Y017714D02*
X024595Y017714D01*
X024651Y017813D02*
X024655Y017813D01*
X023748Y017320D02*
X023719Y017320D01*
X023732Y017222D02*
X023735Y017222D01*
X024233Y016100D02*
X025833Y014500D01*
X026314Y014267D02*
X025320Y014267D01*
X025630Y014956D02*
X027038Y014956D01*
X027038Y015055D02*
X025532Y015055D01*
X025433Y015153D02*
X027039Y015153D01*
X027512Y014759D02*
X027612Y014759D01*
X027612Y014661D02*
X027512Y014661D01*
X027512Y014562D02*
X027612Y014562D01*
X027612Y014464D02*
X027512Y014464D01*
X027903Y013183D02*
X028003Y013183D01*
X028002Y013085D02*
X028003Y013085D01*
X026833Y013000D02*
X026833Y012500D01*
X026487Y012154D01*
X026046Y012154D01*
X025622Y012198D02*
X022395Y012198D01*
X022395Y012179D02*
X022395Y012959D01*
X022320Y013034D01*
X021662Y013034D01*
X021586Y012959D01*
X021586Y012179D01*
X021122Y012179D01*
X021122Y012207D01*
X021078Y012314D01*
X020997Y012395D01*
X020891Y012439D01*
X020776Y012439D01*
X020670Y012395D01*
X020604Y012329D01*
X018285Y012329D01*
X018181Y012224D01*
X017631Y011674D01*
X017455Y011674D01*
X017420Y011709D01*
X016932Y011709D01*
X017007Y011740D01*
X017093Y011826D01*
X017140Y011939D01*
X017140Y012012D01*
X017542Y012414D01*
X017542Y013275D01*
X017593Y013326D01*
X017640Y013439D01*
X017640Y013561D01*
X017593Y013674D01*
X017507Y013760D01*
X017394Y013807D01*
X017272Y013807D01*
X017160Y013760D01*
X017073Y013674D01*
X017026Y013561D01*
X017026Y013439D01*
X017073Y013326D01*
X017125Y013275D01*
X017125Y012586D01*
X016845Y012307D01*
X016772Y012307D01*
X016660Y012260D01*
X016573Y012174D01*
X016526Y012061D01*
X016526Y011939D01*
X016573Y011826D01*
X016660Y011740D01*
X016735Y011709D01*
X016392Y011709D01*
X016392Y012741D01*
X016682Y012741D01*
X016757Y012817D01*
X016757Y013435D01*
X016693Y013500D01*
X016757Y013565D01*
X016757Y013821D01*
X019021Y013821D01*
X018995Y013757D01*
X018995Y013643D01*
X019039Y013536D01*
X019120Y013455D01*
X019226Y013411D01*
X019341Y013411D01*
X019447Y013455D01*
X019513Y013521D01*
X022296Y013521D01*
X023068Y012525D01*
X023068Y012513D01*
X023112Y012468D01*
X023151Y012419D01*
X023164Y012417D01*
X023173Y012408D01*
X023235Y012408D01*
X023298Y012400D01*
X023308Y012408D01*
X025464Y012408D01*
X025464Y012376D01*
X025540Y012300D01*
X025622Y012300D01*
X025622Y011943D01*
X025665Y011899D01*
X022687Y011899D01*
X022512Y012074D01*
X022407Y012179D01*
X022395Y012179D01*
X022395Y012297D02*
X025622Y012297D01*
X025464Y012395D02*
X022395Y012395D01*
X022395Y012494D02*
X023087Y012494D01*
X023016Y012592D02*
X022395Y012592D01*
X022395Y012691D02*
X022940Y012691D01*
X022864Y012789D02*
X022395Y012789D01*
X022395Y012888D02*
X022787Y012888D01*
X022711Y012986D02*
X022368Y012986D01*
X022558Y013183D02*
X017542Y013183D01*
X017542Y013085D02*
X022634Y013085D01*
X022482Y013282D02*
X017549Y013282D01*
X017616Y013380D02*
X022405Y013380D01*
X022329Y013479D02*
X019470Y013479D01*
X019283Y013700D02*
X022383Y013700D01*
X023247Y012587D01*
X025888Y012587D01*
X025622Y012100D02*
X022487Y012100D01*
X022585Y012001D02*
X025622Y012001D01*
X025662Y011903D02*
X022684Y011903D01*
X022269Y011312D02*
X019194Y011312D01*
X019172Y011410D02*
X022171Y011410D01*
X022368Y011213D02*
X019829Y011213D01*
X020547Y010721D02*
X021592Y010721D01*
X021586Y010622D02*
X020615Y010622D01*
X020640Y010524D02*
X021586Y010524D01*
X021586Y010425D02*
X020634Y010425D01*
X020594Y010327D02*
X021586Y010327D01*
X021586Y010228D02*
X020479Y010228D01*
X020188Y010228D02*
X019514Y010228D01*
X019592Y010130D02*
X021586Y010130D01*
X021586Y010031D02*
X019622Y010031D01*
X019654Y009933D02*
X021586Y009933D01*
X021652Y009834D02*
X019752Y009834D01*
X019049Y009933D02*
X019028Y009933D01*
X019045Y010031D02*
X018929Y010031D01*
X018520Y009687D02*
X017833Y009000D01*
X017833Y008726D01*
X017959Y008500D01*
X017207Y008500D01*
X017583Y007900D02*
X017583Y007487D01*
X017920Y007150D01*
X017920Y007000D01*
X018285Y006978D02*
X018382Y006978D01*
X018382Y007076D02*
X018285Y007076D01*
X018285Y007175D02*
X018382Y007175D01*
X018382Y007273D02*
X018285Y007273D01*
X018568Y007372D02*
X017951Y007372D01*
X017853Y007470D02*
X018568Y007470D01*
X018568Y007569D02*
X017762Y007569D01*
X017762Y007667D02*
X018568Y007667D01*
X018568Y007766D02*
X017840Y007766D01*
X017872Y007864D02*
X018568Y007864D01*
X018568Y007963D02*
X017870Y007963D01*
X017829Y008061D02*
X018568Y008061D01*
X018925Y008061D02*
X020505Y008061D01*
X020505Y007963D02*
X018925Y007963D01*
X018925Y007864D02*
X019945Y007864D01*
X019846Y007766D02*
X018925Y007766D01*
X018925Y007667D02*
X019755Y007667D01*
X019755Y007569D02*
X018925Y007569D01*
X018925Y007470D02*
X019755Y007470D01*
X019755Y007372D02*
X018925Y007372D01*
X019112Y007273D02*
X019555Y007273D01*
X019555Y007175D02*
X019112Y007175D01*
X019112Y007076D02*
X019555Y007076D01*
X019555Y006978D02*
X019112Y006978D01*
X019112Y006879D02*
X019555Y006879D01*
X019555Y006781D02*
X019112Y006781D01*
X019083Y006682D02*
X019583Y006682D01*
X019920Y007000D02*
X019933Y007000D01*
X019933Y007600D01*
X020083Y007750D01*
X020583Y007750D01*
X020683Y007850D01*
X020683Y008476D01*
X020707Y008500D01*
X020862Y008061D02*
X022068Y008061D01*
X022068Y007963D02*
X020862Y007963D01*
X020862Y007864D02*
X022068Y007864D01*
X022068Y007766D02*
X020852Y007766D01*
X020753Y007667D02*
X022068Y007667D01*
X022068Y007569D02*
X020155Y007569D01*
X020112Y007470D02*
X022068Y007470D01*
X022068Y007372D02*
X021722Y007372D01*
X021714Y007376D02*
X021676Y007386D01*
X021470Y007386D01*
X021470Y007050D01*
X021806Y007050D01*
X021806Y007256D01*
X021796Y007294D01*
X021776Y007328D01*
X021748Y007356D01*
X021714Y007376D01*
X021802Y007273D02*
X021882Y007273D01*
X021882Y007175D02*
X021806Y007175D01*
X021806Y007076D02*
X021882Y007076D01*
X021882Y006978D02*
X021470Y006978D01*
X021470Y006950D02*
X021470Y007050D01*
X021370Y007050D01*
X021370Y007386D01*
X021164Y007386D01*
X021126Y007376D01*
X021092Y007356D01*
X021083Y007348D01*
X021075Y007356D01*
X021041Y007376D01*
X021003Y007386D01*
X020797Y007386D01*
X020797Y007050D01*
X021133Y007050D01*
X021370Y007050D01*
X021370Y006950D01*
X021470Y006950D01*
X021806Y006950D01*
X021806Y006744D01*
X021796Y006706D01*
X021776Y006672D01*
X021748Y006644D01*
X021714Y006624D01*
X021676Y006614D01*
X021470Y006614D01*
X021470Y006950D01*
X021470Y006879D02*
X021370Y006879D01*
X021370Y006950D02*
X021370Y006614D01*
X021164Y006614D01*
X021126Y006624D01*
X021092Y006644D01*
X021083Y006652D01*
X021075Y006644D01*
X021041Y006624D01*
X021003Y006614D01*
X020797Y006614D01*
X020797Y006950D01*
X020797Y007050D01*
X020697Y007050D01*
X020697Y007386D01*
X020491Y007386D01*
X020453Y007376D01*
X020418Y007356D01*
X020390Y007328D01*
X020371Y007294D01*
X020360Y007256D01*
X020360Y007050D01*
X020697Y007050D01*
X020697Y006950D01*
X020797Y006950D01*
X021370Y006950D01*
X021370Y006978D02*
X020797Y006978D01*
X020797Y007076D02*
X020697Y007076D01*
X020697Y006978D02*
X020285Y006978D01*
X020360Y006950D02*
X020360Y006744D01*
X020371Y006706D01*
X020390Y006672D01*
X020418Y006644D01*
X020453Y006624D01*
X020491Y006614D01*
X020697Y006614D01*
X020697Y006950D01*
X020360Y006950D01*
X020360Y006879D02*
X020285Y006879D01*
X020285Y006781D02*
X020360Y006781D01*
X020385Y006682D02*
X020256Y006682D01*
X020285Y007076D02*
X020360Y007076D01*
X020360Y007175D02*
X020285Y007175D01*
X020285Y007273D02*
X020365Y007273D01*
X020445Y007372D02*
X020112Y007372D01*
X020697Y007372D02*
X020797Y007372D01*
X020797Y007273D02*
X020697Y007273D01*
X020697Y007175D02*
X020797Y007175D01*
X020797Y006879D02*
X020697Y006879D01*
X020697Y006781D02*
X020797Y006781D01*
X020797Y006682D02*
X020697Y006682D01*
X021370Y006682D02*
X021470Y006682D01*
X021470Y006781D02*
X021370Y006781D01*
X021370Y007076D02*
X021470Y007076D01*
X021470Y007175D02*
X021370Y007175D01*
X021370Y007273D02*
X021470Y007273D01*
X021470Y007372D02*
X021370Y007372D01*
X021118Y007372D02*
X021049Y007372D01*
X021806Y006879D02*
X021882Y006879D01*
X021882Y006781D02*
X021806Y006781D01*
X021782Y006682D02*
X021910Y006682D01*
X022247Y007000D02*
X022247Y008461D01*
X022207Y008500D01*
X022592Y008455D02*
X023012Y008455D01*
X023012Y008357D02*
X022592Y008357D01*
X022592Y008258D02*
X023012Y008258D01*
X023012Y008160D02*
X022592Y008160D01*
X022425Y008061D02*
X023082Y008061D01*
X023012Y008554D02*
X022592Y008554D01*
X022592Y008652D02*
X023012Y008652D01*
X023012Y008751D02*
X022592Y008751D01*
X022592Y008849D02*
X023012Y008849D01*
X023593Y008500D02*
X023833Y008640D01*
X023833Y010000D01*
X024092Y010130D02*
X025622Y010130D01*
X025622Y010228D02*
X024014Y010228D01*
X024122Y010031D02*
X025622Y010031D01*
X025622Y009933D02*
X024118Y009933D01*
X024076Y009834D02*
X025622Y009834D01*
X025664Y009736D02*
X024012Y009736D01*
X024012Y009637D02*
X027118Y009637D01*
X027118Y009627D02*
X026644Y009627D01*
X026644Y009382D01*
X026654Y009344D01*
X026674Y009309D01*
X026702Y009282D01*
X026736Y009262D01*
X026774Y009252D01*
X027118Y009252D01*
X027118Y009627D01*
X027218Y009627D01*
X027218Y009252D01*
X027562Y009252D01*
X027600Y009262D01*
X027634Y009282D01*
X027662Y009309D01*
X027682Y009344D01*
X027692Y009382D01*
X027692Y009627D01*
X027218Y009627D01*
X027218Y009727D01*
X027692Y009727D01*
X027692Y009973D01*
X027682Y010011D01*
X027662Y010045D01*
X027634Y010073D01*
X027600Y010093D01*
X027562Y010103D01*
X027218Y010103D01*
X027218Y009727D01*
X027118Y009727D01*
X027118Y009627D01*
X027118Y009539D02*
X027218Y009539D01*
X027218Y009637D02*
X028003Y009637D01*
X028003Y009539D02*
X027692Y009539D01*
X027692Y009440D02*
X028003Y009440D01*
X028003Y009342D02*
X027681Y009342D01*
X028003Y009243D02*
X024012Y009243D01*
X024012Y009145D02*
X028003Y009145D01*
X028003Y009046D02*
X024012Y009046D01*
X024012Y008948D02*
X025550Y008948D01*
X025563Y008955D02*
X025529Y008935D01*
X025501Y008907D01*
X025481Y008873D01*
X025471Y008835D01*
X025471Y008550D01*
X026023Y008550D01*
X026023Y008450D01*
X025471Y008450D01*
X025471Y008165D01*
X025481Y008127D01*
X025501Y008093D01*
X025529Y008065D01*
X025563Y008045D01*
X025601Y008035D01*
X026023Y008035D01*
X026023Y008450D01*
X026123Y008450D01*
X026123Y008035D01*
X026546Y008035D01*
X026584Y008045D01*
X026618Y008065D01*
X026646Y008093D01*
X026666Y008127D01*
X026676Y008165D01*
X026676Y008450D01*
X026123Y008450D01*
X026123Y008550D01*
X026023Y008550D01*
X026023Y008965D01*
X025601Y008965D01*
X025563Y008955D01*
X025475Y008849D02*
X024175Y008849D01*
X024175Y008751D02*
X025471Y008751D01*
X025471Y008652D02*
X024175Y008652D01*
X024175Y008554D02*
X025471Y008554D01*
X025471Y008357D02*
X024175Y008357D01*
X024175Y008455D02*
X026023Y008455D01*
X026023Y008357D02*
X026123Y008357D01*
X026123Y008455D02*
X028003Y008455D01*
X028003Y008357D02*
X026676Y008357D01*
X026676Y008258D02*
X028003Y008258D01*
X028003Y008160D02*
X026675Y008160D01*
X026611Y008061D02*
X028003Y008061D01*
X028003Y007963D02*
X022425Y007963D01*
X022425Y007864D02*
X028003Y007864D01*
X028003Y007766D02*
X026896Y007766D01*
X026813Y007800D02*
X026554Y007800D01*
X026315Y007701D01*
X026132Y007518D01*
X026033Y007279D01*
X026033Y007021D01*
X026132Y006782D01*
X026315Y006599D01*
X026554Y006500D01*
X026813Y006500D01*
X027052Y006599D01*
X027234Y006782D01*
X027333Y007021D01*
X027333Y007279D01*
X027234Y007518D01*
X027052Y007701D01*
X026813Y007800D01*
X027086Y007667D02*
X028003Y007667D01*
X028003Y007569D02*
X027184Y007569D01*
X027254Y007470D02*
X028003Y007470D01*
X028003Y007372D02*
X027295Y007372D01*
X027333Y007273D02*
X028003Y007273D01*
X028003Y007175D02*
X027333Y007175D01*
X027333Y007076D02*
X028003Y007076D01*
X028003Y006978D02*
X027315Y006978D01*
X027275Y006879D02*
X028003Y006879D01*
X028003Y006781D02*
X027233Y006781D01*
X027135Y006682D02*
X028003Y006682D01*
X028003Y006584D02*
X027014Y006584D01*
X026352Y006584D02*
X014979Y006584D01*
X015055Y006659D02*
X015160Y006913D01*
X015160Y007187D01*
X015055Y007441D01*
X014861Y007635D01*
X014608Y007740D01*
X014333Y007740D01*
X014080Y007635D01*
X013886Y007441D01*
X013781Y007187D01*
X013781Y006913D01*
X013886Y006659D01*
X014080Y006465D01*
X014333Y006360D01*
X014608Y006360D01*
X014861Y006465D01*
X015055Y006659D01*
X015065Y006682D02*
X016083Y006682D01*
X016055Y006781D02*
X015105Y006781D01*
X015146Y006879D02*
X016055Y006879D01*
X016055Y006978D02*
X015160Y006978D01*
X015160Y007076D02*
X016055Y007076D01*
X015993Y007175D02*
X015160Y007175D01*
X015125Y007273D02*
X015894Y007273D01*
X015796Y007372D02*
X015084Y007372D01*
X015026Y007470D02*
X015697Y007470D01*
X015508Y007569D02*
X014927Y007569D01*
X014783Y007667D02*
X015358Y007667D01*
X015583Y007837D02*
X015583Y007850D01*
X015583Y007837D02*
X016333Y007087D01*
X016420Y007000D01*
X016333Y007087D02*
X016333Y007100D01*
X016301Y007372D02*
X016622Y007372D01*
X016524Y007470D02*
X016203Y007470D01*
X016104Y007569D02*
X016425Y007569D01*
X016327Y007667D02*
X016006Y007667D01*
X015907Y007766D02*
X016281Y007766D01*
X016281Y007864D02*
X015872Y007864D01*
X015849Y007963D02*
X016281Y007963D01*
X016281Y008061D02*
X015781Y008061D01*
X016075Y008160D02*
X011449Y008160D01*
X011443Y008174D02*
X011359Y008259D01*
X011359Y008958D01*
X011920Y008397D01*
X012379Y008397D01*
X012391Y008367D01*
X012500Y008258D01*
X011359Y008258D01*
X011359Y008357D02*
X012401Y008357D01*
X012500Y008258D02*
X012642Y008199D01*
X012795Y008199D01*
X012937Y008258D01*
X013130Y008258D01*
X013271Y008199D01*
X013425Y008199D01*
X013567Y008258D01*
X016075Y008258D01*
X016075Y008357D02*
X013666Y008357D01*
X013676Y008367D02*
X013735Y008509D01*
X013735Y008657D01*
X013759Y008660D01*
X013820Y008680D01*
X013877Y008709D01*
X013929Y008747D01*
X013735Y008652D02*
X016075Y008652D01*
X016075Y008554D02*
X013735Y008554D01*
X013712Y008455D02*
X016075Y008455D01*
X016459Y008500D02*
X016459Y007787D01*
X017247Y007000D01*
X016882Y006978D02*
X016785Y006978D01*
X016785Y007076D02*
X016882Y007076D01*
X016819Y007175D02*
X016785Y007175D01*
X016785Y006879D02*
X016882Y006879D01*
X016882Y006781D02*
X016785Y006781D01*
X016756Y006682D02*
X016910Y006682D01*
X018256Y006682D02*
X018410Y006682D01*
X018382Y006781D02*
X018285Y006781D01*
X018285Y006879D02*
X018382Y006879D01*
X018747Y007000D02*
X018747Y008461D01*
X018707Y008500D01*
X017922Y009342D02*
X013956Y009342D01*
X014026Y009243D02*
X017824Y009243D01*
X017725Y009145D02*
X014062Y009145D01*
X014073Y009636D02*
X014111Y009646D01*
X014130Y009657D01*
X014363Y009657D01*
X014369Y009663D01*
X014375Y009657D01*
X014619Y009657D01*
X014694Y009732D01*
X014694Y010389D01*
X014619Y010464D01*
X014375Y010464D01*
X014369Y010458D01*
X014363Y010464D01*
X014130Y010464D01*
X014111Y010475D01*
X014073Y010486D01*
X013985Y010486D01*
X013985Y010061D01*
X013985Y010061D01*
X013985Y010486D01*
X013897Y010486D01*
X013859Y010475D01*
X013857Y010475D01*
X013855Y010475D01*
X013817Y010486D01*
X013729Y010486D01*
X013641Y010486D01*
X013603Y010475D01*
X013583Y010464D01*
X013396Y010464D01*
X013396Y010621D01*
X013446Y010671D01*
X014104Y010671D01*
X014170Y010605D01*
X014276Y010561D01*
X014391Y010561D01*
X014497Y010605D01*
X014578Y010686D01*
X014622Y010793D01*
X014622Y010907D01*
X014578Y011014D01*
X014497Y011095D01*
X014391Y011139D01*
X014276Y011139D01*
X014170Y011095D01*
X014104Y011029D01*
X013570Y011029D01*
X013578Y011036D01*
X013622Y011143D01*
X013622Y011257D01*
X013578Y011364D01*
X013497Y011445D01*
X013391Y011489D01*
X013276Y011489D01*
X013170Y011445D01*
X013089Y011364D01*
X013045Y011257D01*
X013045Y011164D01*
X012783Y010902D01*
X012783Y010486D01*
X012705Y010486D01*
X012705Y010061D01*
X012705Y010061D01*
X012705Y010061D01*
X012705Y009636D01*
X012794Y009636D01*
X012832Y009646D01*
X012851Y009657D01*
X013083Y009657D01*
X013089Y009663D01*
X013095Y009657D01*
X013339Y009657D01*
X013345Y009663D01*
X013351Y009657D01*
X013583Y009657D01*
X013603Y009646D01*
X013641Y009636D01*
X013729Y009636D01*
X013817Y009636D01*
X013855Y009646D01*
X013857Y009647D01*
X013859Y009646D01*
X013897Y009636D01*
X013985Y009636D01*
X014073Y009636D01*
X014078Y009637D02*
X017538Y009637D01*
X017498Y009736D02*
X014694Y009736D01*
X014694Y009834D02*
X017495Y009834D01*
X017398Y009933D02*
X014694Y009933D01*
X014694Y010031D02*
X017300Y010031D01*
X017459Y010124D02*
X017459Y010500D01*
X017459Y010124D02*
X017783Y009800D01*
X017660Y009539D02*
X012638Y009539D01*
X012638Y009440D02*
X012947Y009440D01*
X013120Y009440D02*
X013521Y009440D01*
X013371Y009342D02*
X013296Y009342D01*
X013636Y009637D02*
X012799Y009637D01*
X012705Y009637D02*
X012705Y009637D01*
X012705Y009736D02*
X012705Y009736D01*
X012705Y009834D02*
X012705Y009834D01*
X012705Y009933D02*
X012705Y009933D01*
X012705Y010031D02*
X012705Y010031D01*
X012705Y010130D02*
X012705Y010130D01*
X012705Y010228D02*
X012705Y010228D01*
X012705Y010327D02*
X012705Y010327D01*
X012705Y010425D02*
X012705Y010425D01*
X012783Y010524D02*
X011870Y010524D01*
X011870Y010622D02*
X012783Y010622D01*
X012783Y010721D02*
X011870Y010721D01*
X011870Y010819D02*
X012783Y010819D01*
X012798Y010918D02*
X011870Y010918D01*
X011784Y011016D02*
X012897Y011016D01*
X012995Y011115D02*
X011686Y011115D01*
X011587Y011213D02*
X013045Y011213D01*
X013067Y011312D02*
X011489Y011312D01*
X011437Y011410D02*
X013135Y011410D01*
X013333Y011200D02*
X012961Y010828D01*
X012961Y010061D01*
X013217Y010061D02*
X013217Y010695D01*
X013372Y010850D01*
X014333Y010850D01*
X014217Y011115D02*
X013610Y011115D01*
X013622Y011213D02*
X017075Y011213D01*
X017075Y011115D02*
X014449Y011115D01*
X014576Y011016D02*
X017075Y011016D01*
X017075Y010918D02*
X014618Y010918D01*
X014622Y010819D02*
X017075Y010819D01*
X017075Y010721D02*
X017047Y010721D01*
X017459Y011250D02*
X017333Y011500D01*
X017423Y011706D02*
X017662Y011706D01*
X017761Y011804D02*
X017071Y011804D01*
X017125Y011903D02*
X017859Y011903D01*
X017958Y012001D02*
X017140Y012001D01*
X017228Y012100D02*
X018056Y012100D01*
X018155Y012198D02*
X017327Y012198D01*
X017425Y012297D02*
X018253Y012297D01*
X017524Y012395D02*
X020670Y012395D01*
X020996Y012395D02*
X021586Y012395D01*
X021586Y012297D02*
X021085Y012297D01*
X021122Y012198D02*
X021586Y012198D01*
X021586Y012494D02*
X017542Y012494D01*
X017542Y012592D02*
X021586Y012592D01*
X021586Y012691D02*
X017542Y012691D01*
X017542Y012789D02*
X021586Y012789D01*
X021586Y012888D02*
X017542Y012888D01*
X017542Y012986D02*
X021614Y012986D01*
X023304Y011720D02*
X026125Y011720D01*
X024304Y011720D01*
X023385Y010622D02*
X025622Y010622D01*
X025679Y010721D02*
X022866Y010721D01*
X022767Y010819D02*
X025679Y010819D01*
X025679Y010918D02*
X022669Y010918D01*
X022570Y011016D02*
X025679Y011016D01*
X026570Y010819D02*
X026900Y010819D01*
X026801Y010721D02*
X026570Y010721D01*
X026550Y010622D02*
X026703Y010622D01*
X026913Y010327D02*
X028003Y010327D01*
X028003Y010425D02*
X027011Y010425D01*
X027110Y010524D02*
X028003Y010524D01*
X028003Y010622D02*
X027208Y010622D01*
X027307Y010721D02*
X028003Y010721D01*
X028003Y010819D02*
X027405Y010819D01*
X027504Y010918D02*
X028003Y010918D01*
X028003Y011016D02*
X027602Y011016D01*
X027701Y011115D02*
X028003Y011115D01*
X028003Y011213D02*
X027799Y011213D01*
X027898Y011312D02*
X028003Y011312D01*
X027996Y011410D02*
X028003Y011410D01*
X028003Y010228D02*
X026470Y010228D01*
X026470Y010130D02*
X028003Y010130D01*
X028003Y010031D02*
X027670Y010031D01*
X027692Y009933D02*
X028003Y009933D01*
X028003Y009834D02*
X027692Y009834D01*
X027692Y009736D02*
X028003Y009736D01*
X027218Y009736D02*
X027118Y009736D01*
X027118Y009727D02*
X027118Y010103D01*
X026774Y010103D01*
X026736Y010093D01*
X026702Y010073D01*
X026674Y010045D01*
X026654Y010011D01*
X026644Y009973D01*
X026644Y009727D01*
X027118Y009727D01*
X027118Y009834D02*
X027218Y009834D01*
X027218Y009933D02*
X027118Y009933D01*
X027118Y010031D02*
X027218Y010031D01*
X026666Y010031D02*
X026470Y010031D01*
X026470Y009933D02*
X026644Y009933D01*
X026644Y009834D02*
X026470Y009834D01*
X026428Y009736D02*
X026644Y009736D01*
X026644Y009539D02*
X024012Y009539D01*
X024012Y009440D02*
X026644Y009440D01*
X026655Y009342D02*
X024012Y009342D01*
X024175Y008258D02*
X025471Y008258D01*
X025472Y008160D02*
X024175Y008160D01*
X024104Y008061D02*
X025536Y008061D01*
X026023Y008061D02*
X026123Y008061D01*
X026123Y008160D02*
X026023Y008160D01*
X026023Y008258D02*
X026123Y008258D01*
X026123Y008550D02*
X026676Y008550D01*
X026676Y008835D01*
X026666Y008873D01*
X026646Y008907D01*
X026618Y008935D01*
X026584Y008955D01*
X026546Y008965D01*
X026123Y008965D01*
X026123Y008550D01*
X026123Y008554D02*
X026023Y008554D01*
X026023Y008652D02*
X026123Y008652D01*
X026123Y008751D02*
X026023Y008751D01*
X026023Y008849D02*
X026123Y008849D01*
X026123Y008948D02*
X026023Y008948D01*
X026597Y008948D02*
X028003Y008948D01*
X028003Y008849D02*
X026672Y008849D01*
X026676Y008751D02*
X028003Y008751D01*
X028003Y008652D02*
X026676Y008652D01*
X026676Y008554D02*
X028003Y008554D01*
X027218Y009342D02*
X027118Y009342D01*
X027118Y009440D02*
X027218Y009440D01*
X026471Y007766D02*
X022425Y007766D01*
X022425Y007667D02*
X026281Y007667D01*
X026183Y007569D02*
X022425Y007569D01*
X022425Y007470D02*
X026112Y007470D01*
X026072Y007372D02*
X022425Y007372D01*
X022612Y007273D02*
X026033Y007273D01*
X026033Y007175D02*
X022612Y007175D01*
X022612Y007076D02*
X026033Y007076D01*
X026051Y006978D02*
X022612Y006978D01*
X022612Y006879D02*
X026092Y006879D01*
X026134Y006781D02*
X022612Y006781D01*
X022583Y006682D02*
X026232Y006682D01*
X027389Y005599D02*
X006623Y005599D01*
X006327Y005697D02*
X027603Y005697D01*
X028001Y006387D02*
X014671Y006387D01*
X014881Y006485D02*
X028003Y006485D01*
X026833Y013000D02*
X026333Y013500D01*
X024733Y013500D01*
X022633Y015600D01*
X022023Y018404D02*
X022024Y018404D01*
X019010Y019106D02*
X017660Y019106D01*
X017223Y019543D01*
X017532Y019487D02*
X017554Y019487D01*
X017631Y019389D02*
X017834Y019389D01*
X017729Y019290D02*
X018565Y019290D01*
X018565Y019303D02*
X019010Y019303D01*
X019010Y019303D01*
X018565Y019303D01*
X018408Y019697D02*
X017774Y020331D01*
X017248Y021063D02*
X017137Y021063D01*
X017257Y021162D02*
X016995Y021162D01*
X016853Y021260D02*
X017257Y021260D01*
X016733Y021126D02*
X014887Y021126D01*
X013724Y020091D02*
X012711Y020091D01*
X012711Y019894D02*
X013157Y019894D01*
X013157Y019912D01*
X013650Y019912D01*
X013686Y019876D01*
X013157Y019876D01*
X013157Y019894D01*
X012711Y019894D01*
X012711Y019894D01*
X012295Y019783D02*
X012158Y019783D01*
X012059Y019881D02*
X012266Y019881D01*
X012283Y019980D02*
X012048Y019980D01*
X012048Y020078D02*
X012287Y020078D01*
X012295Y020177D02*
X012048Y020177D01*
X012048Y020275D02*
X012287Y020275D01*
X012296Y020374D02*
X012048Y020374D01*
X012048Y020472D02*
X012287Y020472D01*
X012296Y020571D02*
X012048Y020571D01*
X012048Y020669D02*
X012287Y020669D01*
X012296Y020768D02*
X012048Y020768D01*
X012048Y020866D02*
X012287Y020866D01*
X012296Y020965D02*
X012048Y020965D01*
X012048Y021063D02*
X012287Y021063D01*
X012296Y021162D02*
X012048Y021162D01*
X012048Y021260D02*
X012287Y021260D01*
X012296Y021359D02*
X012048Y021359D01*
X012048Y021457D02*
X012287Y021457D01*
X012297Y021556D02*
X012048Y021556D01*
X012048Y021654D02*
X012287Y021654D01*
X012297Y021753D02*
X012048Y021753D01*
X012048Y021851D02*
X012287Y021851D01*
X012297Y021950D02*
X012048Y021950D01*
X012048Y022048D02*
X012395Y022048D01*
X012048Y022147D02*
X013320Y022147D01*
X013320Y022245D02*
X012048Y022245D01*
X012048Y022344D02*
X013311Y022344D01*
X013311Y022442D02*
X012048Y022442D01*
X012072Y022541D02*
X013311Y022541D01*
X013242Y022639D02*
X012146Y022639D01*
X012176Y022738D02*
X013144Y022738D01*
X013045Y022836D02*
X012174Y022836D01*
X012133Y022935D02*
X012947Y022935D01*
X012848Y023033D02*
X012040Y023033D01*
X012791Y023624D02*
X014107Y023624D01*
X014107Y023526D02*
X012890Y023526D01*
X012988Y023427D02*
X014107Y023427D01*
X014107Y023329D02*
X013087Y023329D01*
X013185Y023230D02*
X014107Y023230D01*
X014107Y023132D02*
X013284Y023132D01*
X013696Y023033D02*
X013696Y023033D01*
X013696Y022935D02*
X013696Y022935D01*
X013696Y022836D02*
X013696Y022836D01*
X013696Y022738D02*
X013696Y022738D01*
X013499Y022650D02*
X013499Y022087D01*
X013383Y021950D02*
X013126Y021950D01*
X013135Y021851D02*
X013481Y021851D01*
X013320Y022048D02*
X013027Y022048D01*
X014465Y023132D02*
X016980Y023132D01*
X016976Y023230D02*
X014465Y023230D01*
X014465Y023329D02*
X014874Y023329D01*
X014804Y023427D02*
X014465Y023427D01*
X014465Y023526D02*
X014783Y023526D01*
X014800Y023624D02*
X014465Y023624D01*
X014465Y023723D02*
X014865Y023723D01*
X015227Y023329D02*
X017004Y023329D01*
X017729Y025397D02*
X020223Y025397D01*
X020207Y025299D02*
X020187Y025299D01*
X020187Y025200D02*
X020207Y025200D01*
X020207Y025102D02*
X020187Y025102D01*
X020223Y025693D02*
X018283Y025693D01*
X018365Y025791D02*
X020223Y025791D01*
X018123Y026776D02*
X015876Y026776D01*
X013681Y019881D02*
X013157Y019881D01*
X013333Y019350D02*
X013333Y018500D01*
X013305Y018122D02*
X013633Y018150D01*
X016083Y018150D01*
X016315Y017969D01*
X016514Y017969D01*
X016335Y017714D02*
X014040Y017714D01*
X014072Y017813D02*
X016218Y017813D01*
X016098Y017911D02*
X014071Y017911D01*
X013809Y017925D02*
X013783Y017950D01*
X013783Y017850D01*
X013809Y017925D02*
X012711Y017925D01*
X012708Y017925D01*
X012711Y017925D02*
X012833Y017925D01*
X012711Y017728D02*
X013405Y017728D01*
X013833Y017300D01*
X013561Y017320D02*
X013135Y017320D01*
X013129Y017222D02*
X013389Y017222D01*
X013290Y017123D02*
X013135Y017123D01*
X013100Y017025D02*
X013192Y017025D01*
X013129Y017419D02*
X013462Y017419D01*
X013364Y017517D02*
X013135Y017517D01*
X013305Y018122D02*
X012711Y018122D01*
X011948Y019487D02*
X011141Y019487D01*
X010148Y019487D02*
X007519Y019487D01*
X007584Y019389D02*
X010083Y019389D01*
X010083Y019290D02*
X007584Y019290D01*
X007584Y019192D02*
X010083Y019192D01*
X010083Y019093D02*
X007584Y019093D01*
X007511Y018995D02*
X010156Y018995D01*
X010152Y018010D02*
X008624Y018010D01*
X008232Y016729D02*
X007605Y016729D01*
X007605Y016631D02*
X008232Y016631D01*
X008232Y016532D02*
X007568Y016532D01*
X007591Y016434D02*
X008232Y016434D01*
X008232Y016335D02*
X007605Y016335D01*
X007605Y016237D02*
X008232Y016237D01*
X008232Y016138D02*
X007605Y016138D01*
X010635Y016138D02*
X010653Y016138D01*
X010653Y016040D02*
X010635Y016040D01*
X010635Y015941D02*
X010653Y015941D01*
X010653Y015843D02*
X010635Y015843D01*
X010635Y015646D02*
X010653Y015646D01*
X010653Y015547D02*
X010635Y015547D01*
X011227Y015646D02*
X011262Y015646D01*
X010653Y016237D02*
X010635Y016237D01*
X010635Y016335D02*
X010653Y016335D01*
X010653Y016434D02*
X010635Y016434D01*
X010635Y016532D02*
X010653Y016532D01*
X010653Y016631D02*
X010635Y016631D01*
X010635Y016729D02*
X010653Y016729D01*
X010653Y016828D02*
X010635Y016828D01*
X010635Y016926D02*
X010653Y016926D01*
X010653Y017025D02*
X010635Y017025D01*
X010635Y017123D02*
X010653Y017123D01*
X010653Y017222D02*
X010635Y017222D01*
X010635Y017259D02*
X010635Y017518D01*
X010635Y017741D01*
X010653Y017741D01*
X010653Y017259D01*
X010635Y017259D01*
X010635Y017320D02*
X010653Y017320D01*
X010653Y017419D02*
X010635Y017419D01*
X010635Y017517D02*
X010653Y017517D01*
X010653Y017616D02*
X010635Y017616D01*
X010635Y017714D02*
X010653Y017714D01*
X011227Y017123D02*
X011315Y017123D01*
X011414Y017025D02*
X011182Y017025D01*
X011227Y016729D02*
X011686Y016729D01*
X012510Y016729D02*
X012896Y016729D01*
X012798Y016631D02*
X012590Y016631D01*
X012620Y016532D02*
X012699Y016532D01*
X015777Y013676D02*
X015909Y013676D01*
X015909Y013577D02*
X015770Y013577D01*
X015714Y013479D02*
X015953Y013479D01*
X015909Y013380D02*
X015777Y013380D01*
X015777Y013282D02*
X015909Y013282D01*
X015909Y013183D02*
X015777Y013183D01*
X015777Y013085D02*
X015909Y013085D01*
X015881Y012986D02*
X015777Y012986D01*
X015777Y012888D02*
X015783Y012888D01*
X015965Y012494D02*
X015975Y012494D01*
X015975Y012395D02*
X015866Y012395D01*
X015768Y012297D02*
X015975Y012297D01*
X015975Y012198D02*
X015669Y012198D01*
X015571Y012100D02*
X015975Y012100D01*
X015975Y012001D02*
X015472Y012001D01*
X015374Y011903D02*
X015975Y011903D01*
X015975Y011804D02*
X015281Y011804D01*
X015182Y011706D02*
X015975Y011706D01*
X015975Y011607D02*
X011634Y011607D01*
X011535Y011509D02*
X015975Y011509D01*
X015978Y011410D02*
X013532Y011410D01*
X013600Y011312D02*
X016077Y011312D01*
X016392Y011804D02*
X016595Y011804D01*
X016542Y011903D02*
X016392Y011903D01*
X016392Y012001D02*
X016526Y012001D01*
X016542Y012100D02*
X016392Y012100D01*
X016392Y012198D02*
X016597Y012198D01*
X016747Y012297D02*
X016392Y012297D01*
X016392Y012395D02*
X016933Y012395D01*
X017032Y012494D02*
X016392Y012494D01*
X016392Y012592D02*
X017125Y012592D01*
X017125Y012691D02*
X016392Y012691D01*
X016730Y012789D02*
X017125Y012789D01*
X017125Y012888D02*
X016757Y012888D01*
X016757Y012986D02*
X017125Y012986D01*
X017125Y013085D02*
X016757Y013085D01*
X016757Y013183D02*
X017125Y013183D01*
X017118Y013282D02*
X016757Y013282D01*
X016757Y013380D02*
X017051Y013380D01*
X017026Y013479D02*
X016714Y013479D01*
X016757Y013577D02*
X017033Y013577D01*
X017075Y013676D02*
X016757Y013676D01*
X016757Y013774D02*
X017193Y013774D01*
X017474Y013774D02*
X019001Y013774D01*
X018995Y013676D02*
X017592Y013676D01*
X017634Y013577D02*
X019022Y013577D01*
X019096Y013479D02*
X017640Y013479D01*
X016333Y013126D02*
X016309Y013126D01*
X015333Y013106D02*
X014777Y012400D01*
X014765Y011686D02*
X014765Y011686D01*
X014937Y011686D02*
X014937Y011686D01*
X014592Y010721D02*
X016620Y010721D01*
X016552Y010622D02*
X014514Y010622D01*
X014658Y010425D02*
X016532Y010425D01*
X016526Y010524D02*
X013396Y010524D01*
X013397Y010622D02*
X014153Y010622D01*
X013985Y010425D02*
X013985Y010425D01*
X013985Y010327D02*
X013985Y010327D01*
X013985Y010228D02*
X013985Y010228D01*
X013985Y010130D02*
X013985Y010130D01*
X013985Y010061D02*
X013985Y010061D01*
X013948Y010061D01*
X013729Y010061D01*
X013729Y010486D01*
X013729Y010061D01*
X013729Y010061D01*
X013729Y010061D01*
X013985Y010061D01*
X013985Y009636D01*
X013985Y010061D01*
X013985Y010061D01*
X013985Y010031D02*
X013985Y010031D01*
X013985Y009933D02*
X013985Y009933D01*
X013985Y009834D02*
X013985Y009834D01*
X013985Y009736D02*
X013985Y009736D01*
X013985Y009637D02*
X013985Y009637D01*
X013892Y009637D02*
X013822Y009637D01*
X013729Y009637D02*
X013729Y009637D01*
X013729Y009636D02*
X013729Y010061D01*
X013729Y010061D01*
X013729Y009636D01*
X013729Y009736D02*
X013729Y009736D01*
X013729Y009834D02*
X013729Y009834D01*
X013729Y009933D02*
X013729Y009933D01*
X013729Y010031D02*
X013729Y010031D01*
X013729Y010130D02*
X013729Y010130D01*
X013729Y010228D02*
X013729Y010228D01*
X013729Y010327D02*
X013729Y010327D01*
X013729Y010425D02*
X013729Y010425D01*
X014694Y010327D02*
X016573Y010327D01*
X016688Y010228D02*
X014694Y010228D01*
X014694Y010130D02*
X017097Y010130D01*
X017075Y010228D02*
X016979Y010228D01*
X017822Y010130D02*
X017845Y010130D01*
X014157Y007667D02*
X011909Y007667D01*
X012053Y007569D02*
X014013Y007569D01*
X013915Y007470D02*
X012152Y007470D01*
X012210Y007372D02*
X013857Y007372D01*
X013816Y007273D02*
X012251Y007273D01*
X012286Y007175D02*
X013781Y007175D01*
X013781Y007076D02*
X012286Y007076D01*
X012286Y006978D02*
X013781Y006978D01*
X013795Y006879D02*
X012272Y006879D01*
X012231Y006781D02*
X013835Y006781D01*
X013876Y006682D02*
X012190Y006682D01*
X012105Y006584D02*
X013961Y006584D01*
X014060Y006485D02*
X012007Y006485D01*
X011797Y006387D02*
X014270Y006387D01*
X013567Y008258D02*
X013676Y008367D01*
X013130Y008258D02*
X013033Y008354D01*
X012937Y008258D01*
X012141Y008774D02*
X012076Y008774D01*
X011622Y009228D01*
X011622Y009657D01*
X011792Y009657D01*
X011811Y009646D01*
X011849Y009636D01*
X011938Y009636D01*
X012026Y009636D01*
X012064Y009646D01*
X012083Y009657D01*
X012261Y009657D01*
X012261Y009417D01*
X012185Y009385D01*
X012076Y009277D01*
X012017Y009135D01*
X012017Y008981D01*
X012076Y008839D01*
X012141Y008774D01*
X012072Y008849D02*
X012001Y008849D01*
X012031Y008948D02*
X011903Y008948D01*
X011804Y009046D02*
X012017Y009046D01*
X012021Y009145D02*
X011706Y009145D01*
X011622Y009243D02*
X012062Y009243D01*
X012141Y009342D02*
X011622Y009342D01*
X011622Y009440D02*
X012261Y009440D01*
X012261Y009539D02*
X011622Y009539D01*
X011622Y009637D02*
X011844Y009637D01*
X011938Y009637D02*
X011938Y009637D01*
X011938Y009636D02*
X011938Y010061D01*
X011938Y010061D01*
X011938Y009636D01*
X012031Y009637D02*
X012261Y009637D01*
X011938Y009736D02*
X011938Y009736D01*
X011938Y009834D02*
X011938Y009834D01*
X011938Y009933D02*
X011938Y009933D01*
X011938Y010031D02*
X011938Y010031D01*
X011938Y010130D02*
X011938Y010130D01*
X011938Y010228D02*
X011938Y010228D01*
X011938Y010327D02*
X011938Y010327D01*
X011938Y010425D02*
X011938Y010425D01*
X011493Y010524D02*
X010817Y010524D01*
X010817Y010622D02*
X011493Y010622D01*
X011493Y010721D02*
X010817Y010721D01*
X010817Y010918D02*
X011349Y010918D01*
X011250Y011016D02*
X010817Y011016D01*
X010816Y011115D02*
X011152Y011115D01*
X011056Y011213D02*
X010794Y011213D01*
X010749Y011312D02*
X011056Y011312D01*
X011053Y011410D02*
X010665Y011410D01*
X010417Y011410D02*
X010317Y011410D01*
X010317Y011312D02*
X010417Y011312D01*
X010417Y011213D02*
X010317Y011213D01*
X010317Y011115D02*
X010417Y011115D01*
X010417Y011016D02*
X010317Y011016D01*
X010317Y010918D02*
X010417Y010918D01*
X010417Y010819D02*
X011447Y010819D01*
X011009Y010425D02*
X010815Y010425D01*
X010793Y010327D02*
X010973Y010327D01*
X010973Y010228D02*
X010747Y010228D01*
X010662Y010130D02*
X010973Y010130D01*
X010973Y010031D02*
X010464Y010031D01*
X010417Y010031D02*
X010317Y010031D01*
X010317Y010024D02*
X010317Y010721D01*
X009917Y010721D01*
X009917Y010436D01*
X009928Y010366D01*
X009950Y010299D01*
X009982Y010235D01*
X010024Y010178D01*
X010074Y010128D01*
X010131Y010086D01*
X010194Y010054D01*
X010262Y010032D01*
X010317Y010024D01*
X010270Y010031D02*
X009451Y010031D01*
X009398Y009933D02*
X010973Y009933D01*
X010973Y009834D02*
X009346Y009834D01*
X009280Y009736D02*
X010973Y009736D01*
X010981Y009637D02*
X009176Y009637D01*
X009078Y009539D02*
X010981Y009539D01*
X010981Y009440D02*
X008979Y009440D01*
X008881Y009342D02*
X010981Y009342D01*
X010981Y009243D02*
X008782Y009243D01*
X008684Y009145D02*
X010981Y009145D01*
X011359Y008948D02*
X011369Y008948D01*
X011359Y008849D02*
X011467Y008849D01*
X011566Y008751D02*
X011359Y008751D01*
X011359Y008652D02*
X011664Y008652D01*
X011763Y008554D02*
X011359Y008554D01*
X011359Y008455D02*
X011861Y008455D01*
X011443Y008174D02*
X011490Y008061D01*
X011041Y007470D02*
X008827Y007470D01*
X008827Y007372D02*
X010983Y007372D01*
X010942Y007273D02*
X008827Y007273D01*
X008827Y007175D02*
X010907Y007175D01*
X010907Y007076D02*
X008827Y007076D01*
X008782Y006978D02*
X010907Y006978D01*
X010921Y006879D02*
X007813Y006879D01*
X007879Y006978D02*
X007984Y006978D01*
X007747Y006781D02*
X010961Y006781D01*
X011002Y006682D02*
X007682Y006682D01*
X007616Y006584D02*
X007929Y006584D01*
X007918Y006485D02*
X007550Y006485D01*
X007487Y006387D02*
X007918Y006387D01*
X007918Y006190D02*
X005748Y006190D01*
X005819Y006091D02*
X007918Y006091D01*
X007918Y005993D02*
X005917Y005993D01*
X006016Y005894D02*
X007941Y005894D01*
X008333Y005894D02*
X008433Y005894D01*
X008433Y005993D02*
X008333Y005993D01*
X008333Y006091D02*
X008433Y006091D01*
X008433Y006190D02*
X008333Y006190D01*
X008333Y006485D02*
X008433Y006485D01*
X008433Y006584D02*
X008333Y006584D01*
X008837Y006584D02*
X011087Y006584D01*
X011186Y006485D02*
X008848Y006485D01*
X008848Y006387D02*
X011396Y006387D01*
X010669Y008258D02*
X008572Y008258D01*
X007796Y008554D02*
X007759Y008554D01*
X007759Y008519D02*
X007759Y008481D01*
X007408Y008481D01*
X007408Y008519D01*
X007490Y008519D01*
X007759Y008519D01*
X007759Y008652D02*
X007796Y008652D01*
X007796Y008751D02*
X007759Y008751D01*
X007408Y008751D02*
X007370Y008751D01*
X007370Y008652D02*
X007408Y008652D01*
X007408Y008554D02*
X007370Y008554D01*
X006611Y008455D02*
X006546Y008455D01*
X006546Y008357D02*
X006611Y008357D01*
X006622Y008258D02*
X006546Y008258D01*
X006496Y008160D02*
X006695Y008160D01*
X006489Y008061D02*
X005483Y008061D01*
X005483Y007963D02*
X006377Y007963D01*
X006281Y007864D02*
X005483Y007864D01*
X005483Y007766D02*
X006240Y007766D01*
X006199Y007667D02*
X005483Y007667D01*
X005483Y007569D02*
X006183Y007569D01*
X006183Y007470D02*
X005483Y007470D01*
X005483Y007372D02*
X006183Y007372D01*
X006224Y007273D02*
X005483Y007273D01*
X005483Y007175D02*
X006265Y007175D01*
X006338Y007076D02*
X005483Y007076D01*
X005486Y006978D02*
X006437Y006978D01*
X006634Y006879D02*
X005492Y006879D01*
X005483Y008160D02*
X005666Y008160D01*
X005616Y008258D02*
X005483Y008258D01*
X005483Y008357D02*
X005616Y008357D01*
X005616Y008455D02*
X005483Y008455D01*
X006031Y008357D02*
X006131Y008357D01*
X006131Y008258D02*
X006031Y008258D01*
X006031Y008160D02*
X006131Y008160D01*
X007427Y007766D02*
X007662Y007766D01*
X009632Y010130D02*
X010073Y010130D01*
X009988Y010228D02*
X009730Y010228D01*
X009771Y010327D02*
X009941Y010327D01*
X009919Y010425D02*
X009796Y010425D01*
X009796Y010524D02*
X009917Y010524D01*
X009917Y010622D02*
X009796Y010622D01*
X009796Y010721D02*
X009917Y010721D01*
X009796Y010819D02*
X010317Y010819D01*
X010317Y010721D02*
X010417Y010721D01*
X010417Y010622D02*
X010317Y010622D01*
X010317Y010524D02*
X010417Y010524D01*
X010417Y010425D02*
X010317Y010425D01*
X010317Y010327D02*
X010417Y010327D01*
X010417Y010228D02*
X010317Y010228D01*
X010317Y010130D02*
X010417Y010130D01*
X009917Y010918D02*
X009796Y010918D01*
X009796Y011016D02*
X009917Y011016D01*
X009918Y011115D02*
X009796Y011115D01*
X009773Y011213D02*
X009940Y011213D01*
X009986Y011312D02*
X009732Y011312D01*
X009635Y011410D02*
X010070Y011410D01*
X010931Y012119D02*
X010991Y012060D01*
X011051Y012001D01*
X011148Y011903D02*
X011342Y011903D01*
X011547Y012107D02*
X011547Y012107D01*
X011547Y012107D01*
X011548Y012536D02*
X011304Y012536D01*
X011298Y012542D01*
X011292Y012536D01*
X011048Y012536D01*
X010973Y012611D01*
X010973Y013268D01*
X011048Y013343D01*
X011292Y013343D01*
X011298Y013337D01*
X011304Y013343D01*
X011548Y013343D01*
X011554Y013337D01*
X011560Y013343D01*
X011792Y013343D01*
X011811Y013354D01*
X011849Y013364D01*
X011938Y013364D01*
X011938Y012939D01*
X011938Y012939D01*
X011938Y012514D01*
X011849Y012514D01*
X011811Y012525D01*
X011792Y012536D01*
X011560Y012536D01*
X011554Y012542D01*
X011548Y012536D01*
X011938Y012592D02*
X011938Y012592D01*
X011938Y012691D02*
X011938Y012691D01*
X011938Y012789D02*
X011938Y012789D01*
X011938Y012888D02*
X011938Y012888D01*
X011938Y012939D02*
X011938Y012939D01*
X011938Y012986D02*
X011938Y012986D01*
X011938Y013085D02*
X011938Y013085D01*
X011938Y013183D02*
X011938Y013183D01*
X011938Y013282D02*
X011938Y013282D01*
X010987Y013282D02*
X009222Y013282D01*
X009222Y013183D02*
X010973Y013183D01*
X010973Y013085D02*
X009222Y013085D01*
X009136Y012986D02*
X010973Y012986D01*
X010973Y012888D02*
X009038Y012888D01*
X008939Y012789D02*
X010973Y012789D01*
X010973Y012691D02*
X008841Y012691D01*
X008742Y012592D02*
X010992Y012592D01*
X011452Y011426D02*
X011452Y011426D01*
X012961Y012592D02*
X012961Y012592D01*
X012961Y012691D02*
X012961Y012691D01*
X012961Y012789D02*
X012961Y012789D01*
X012961Y012888D02*
X012961Y012888D01*
X013520Y012494D02*
X008715Y012494D01*
X008715Y012395D02*
X013520Y012395D01*
X013520Y012297D02*
X008715Y012297D01*
X008715Y012198D02*
X013520Y012198D01*
X012771Y009342D02*
X012666Y009342D01*
X008338Y012100D02*
X007255Y012100D01*
X007220Y012001D02*
X008329Y012001D01*
X008319Y011903D02*
X007204Y011903D01*
X007333Y012198D02*
X008338Y012198D01*
X008338Y012297D02*
X007412Y012297D01*
X007495Y012395D02*
X008338Y012395D01*
X008338Y012494D02*
X007524Y012494D01*
X007522Y012592D02*
X008338Y012592D01*
X008338Y012691D02*
X007522Y012691D01*
X007522Y012789D02*
X008405Y012789D01*
X008504Y012888D02*
X007522Y012888D01*
X007522Y012986D02*
X008602Y012986D01*
X008325Y011804D02*
X008133Y011804D01*
X008171Y011706D02*
X008325Y011706D01*
X012256Y019684D02*
X012287Y019684D01*
X018223Y016350D02*
X018223Y016031D01*
X018583Y015671D01*
X007988Y025693D02*
X007678Y025693D01*
X007771Y025791D02*
X007896Y025791D01*
X007855Y025890D02*
X007812Y025890D01*
X007826Y025988D02*
X007841Y025988D01*
X007845Y026087D02*
X007822Y026087D01*
X007781Y026185D02*
X007886Y026185D01*
X007964Y026284D02*
X007702Y026284D01*
D37*
X013333Y020500D03*
X013333Y019350D03*
X013333Y018500D03*
X012333Y016500D03*
X011063Y014257D03*
X006933Y012000D03*
X006533Y015000D03*
X010833Y008500D03*
X007833Y008000D03*
X006333Y006500D03*
X020383Y014950D03*
D38*
X019833Y016400D03*
X018583Y015671D03*
X016933Y017100D03*
X016333Y018500D03*
X014333Y020163D03*
X013983Y019406D03*
X013783Y018500D03*
X013783Y017850D03*
X013782Y015551D03*
X012833Y015700D03*
X012155Y015621D03*
X015833Y015450D03*
X019283Y013700D03*
X020833Y012150D03*
X019833Y011800D03*
X019633Y011000D03*
X019333Y010000D03*
X017783Y009800D03*
X017583Y007900D03*
X015583Y007850D03*
X014333Y010850D03*
X013333Y011200D03*
X022033Y014150D03*
X022333Y017000D03*
X016333Y021500D03*
X019333Y026500D03*
X023183Y010900D03*
X023833Y010000D03*
X024733Y010900D03*
X024833Y006800D03*
D39*
X021383Y017150D03*
D40*
X018383Y015000D03*
X017333Y015500D03*
X017588Y017181D03*
X016514Y017969D03*
X017016Y018835D03*
X017774Y019701D03*
X017774Y020331D03*
X016833Y021900D03*
X017283Y023200D03*
X016633Y024100D03*
X018783Y024000D03*
X019333Y025000D03*
X018333Y027000D03*
X013033Y025450D03*
X011869Y022772D03*
X014310Y020882D03*
X014751Y021930D03*
X015183Y019000D03*
X013833Y019000D03*
X011833Y019000D03*
X011833Y017000D03*
X009743Y018520D03*
X014683Y015450D03*
X015333Y017000D03*
X017333Y013500D03*
X016833Y012000D03*
X016833Y010500D03*
X018883Y011850D03*
X019283Y013050D03*
X020333Y013400D03*
X020333Y010500D03*
X027333Y016000D03*
X011183Y008000D03*
X008533Y010850D03*
D41*
X008527Y011906D02*
X008527Y012643D01*
X009033Y013150D01*
X009033Y014200D01*
X008433Y014600D01*
X008440Y015000D01*
X007333Y013720D02*
X007333Y012500D01*
X006933Y012000D01*
X006933Y011200D01*
X006983Y011150D01*
X007333Y011280D01*
X006983Y011150D02*
X006936Y010287D01*
X006877Y008500D02*
X006883Y008200D01*
X007383Y008000D01*
X007833Y008000D01*
X008333Y008450D02*
X008383Y008450D01*
X008383Y007550D01*
X008333Y007250D01*
X007833Y007250D01*
X007333Y006500D01*
X006333Y006500D01*
X008333Y008450D02*
X008289Y008500D01*
X010833Y008500D01*
X011170Y008163D02*
X011170Y010061D01*
X011426Y010061D02*
X011433Y010053D01*
X011433Y009150D01*
X011998Y008585D01*
X012718Y008585D01*
X012403Y009058D02*
X012449Y009104D01*
X012449Y010061D01*
X011682Y010061D02*
X011682Y010852D01*
X011245Y011288D01*
X011245Y011512D01*
X008383Y008500D02*
X008289Y008500D01*
X008383Y008500D02*
X008383Y008450D01*
X011170Y008163D02*
X011183Y008000D01*
X018207Y011250D02*
X018557Y011850D01*
X018883Y011850D01*
X019133Y010700D01*
X019333Y010500D01*
X020333Y010500D01*
X019283Y013050D02*
X019483Y013250D01*
X020083Y013250D01*
X020333Y013400D01*
X018383Y015000D02*
X017333Y015000D01*
X016833Y015500D01*
X016833Y016339D01*
X016845Y016350D01*
X016833Y016362D01*
X016833Y016800D01*
X016633Y017000D01*
X015333Y017000D01*
X017042Y016350D02*
X017042Y015791D01*
X017333Y015500D01*
X017436Y022650D02*
X017436Y022898D01*
X017433Y022900D01*
X017583Y023200D01*
X017283Y023200D01*
X017583Y023200D02*
X019133Y023200D01*
X019483Y023550D01*
X020194Y023550D01*
X020197Y023553D01*
X017550Y024083D02*
X016651Y024083D01*
X016633Y024100D01*
X017550Y025535D02*
X017550Y025677D01*
X017227Y026000D01*
X018333Y027000D02*
X015833Y027000D01*
X015652Y026819D01*
X015652Y026000D01*
X014083Y026250D02*
X014083Y025600D01*
X013514Y025031D01*
X013514Y024912D01*
X013033Y025450D02*
X011233Y025450D01*
X011152Y025681D01*
X011152Y026000D01*
X012248Y026957D02*
X012291Y027000D01*
X013333Y027000D01*
X014083Y026250D01*
X012648Y023500D02*
X013499Y022650D01*
X012648Y023500D02*
X009333Y023500D01*
X008233Y024800D01*
X008227Y026000D01*
D42*
X010644Y019250D02*
X011583Y019250D01*
X011833Y019000D01*
X011333Y018500D02*
X011333Y017400D01*
X011783Y016950D01*
X011833Y017000D01*
X011333Y018500D02*
X011083Y018750D01*
X010644Y018750D01*
X013833Y019000D02*
X015183Y019000D01*
X018337Y024083D02*
X018783Y024083D01*
X018783Y024000D01*
X019333Y025000D02*
X019386Y025053D01*
X020197Y025053D01*
X017333Y013500D02*
X017333Y012500D01*
X016833Y012000D01*
X017333Y011500D02*
X016183Y011500D01*
X016183Y013000D01*
X013729Y012939D02*
X013729Y011896D01*
X013833Y011896D01*
X016833Y010500D02*
X017459Y010500D01*
X008533Y010850D02*
X008533Y011906D01*
X008383Y007550D02*
X008383Y007351D01*
D43*
X008302Y009362D02*
X006033Y009362D01*
X006081Y009315D01*
X006033Y009362D02*
X006033Y012850D01*
X006423Y013240D01*
X006423Y013720D01*
X006423Y014035D01*
X005833Y014625D01*
X005833Y026293D01*
X005835Y026343D01*
X005840Y026394D01*
X005849Y026443D01*
X005862Y026492D01*
X005878Y026540D01*
X005897Y026587D01*
X005919Y026632D01*
X005945Y026675D01*
X005974Y026717D01*
X006006Y026756D01*
X006040Y026793D01*
X006077Y026827D01*
X006116Y026859D01*
X006158Y026888D01*
X006201Y026914D01*
X006246Y026936D01*
X006293Y026955D01*
X006341Y026971D01*
X006390Y026984D01*
X006439Y026993D01*
X006490Y026998D01*
X006540Y027000D01*
X009367Y010771D02*
X008967Y010028D01*
X008302Y009362D01*
D44*
X012727Y026000D02*
X012248Y026957D01*
X012227Y027000D01*
X006540Y027000D01*
D45*
X007433Y018750D02*
X008440Y017894D01*
X008440Y016000D01*
X008440Y015000D01*
X008533Y011906D02*
X008527Y011906D01*
X008533Y011906D02*
X010451Y011906D01*
X010845Y011912D01*
X011245Y011512D01*
X011633Y011900D01*
X013833Y011896D01*
X014851Y011894D01*
X015077Y011894D01*
D46*
X016183Y013000D01*
X016309Y013126D01*
D47*
X021672Y019633D03*
X021672Y020370D03*
X021672Y021157D03*
X021672Y021945D03*
X022262Y022142D03*
X021672Y022732D03*
X022656Y022929D03*
X023247Y022339D03*
X024231Y022732D03*
X024378Y023663D03*
X023790Y023763D03*
X023050Y023717D03*
X023640Y024701D03*
X023050Y024898D03*
X023444Y025291D03*
X022656Y025685D03*
X023247Y026276D03*
X022262Y026472D03*
X021672Y026669D03*
X021672Y025882D03*
X021540Y024751D03*
X021522Y023882D03*
X022853Y021354D03*
X023247Y020370D03*
X022656Y019780D03*
X024231Y019976D03*
X025215Y020370D03*
X025609Y021354D03*
X026320Y021219D03*
X027003Y021913D03*
X026503Y022413D03*
X026794Y023023D03*
X027418Y022673D03*
X027153Y023663D03*
X026153Y023763D03*
X026056Y023029D03*
X025315Y023763D03*
X025215Y024701D03*
X025018Y025291D03*
X024428Y024701D03*
X024231Y025882D03*
X025215Y026276D03*
X025806Y025685D03*
X026553Y025481D03*
X027203Y024931D03*
X027253Y026031D03*
X026503Y026531D03*
X027303Y027131D03*
X026503Y027531D03*
X025609Y027260D03*
X025215Y028244D03*
X026003Y029031D03*
X027003Y028531D03*
X024231Y028638D03*
X023247Y028244D03*
X022306Y028985D03*
X022212Y028497D03*
X021672Y028244D03*
X022012Y027897D03*
X021672Y027457D03*
X022853Y027260D03*
X021672Y029031D03*
X026003Y024701D03*
X025215Y022339D03*
X027303Y021163D03*
X027303Y020313D03*
X026203Y019933D03*
X015051Y023530D03*
M02*
