%
M48
M72
T01C0.0157
T02C0.0197
T03C0.0200
T04C0.0236
T05C0.0276
T06C0.0315
T07C0.0400
T08C0.0748
T09C0.1000
T10C0.1181
%
T01
X23039Y24802
X23662Y24802
X23039Y24308
X23662Y24308
X23325Y24555
X23039Y23206
X23612Y23206
X23039Y23700
X23612Y23700
X23325Y23453
X22420Y25343
X24231Y25343
X22420Y22744
X24231Y22744
X21633Y19201
X24940Y19201
X21593Y28531
X24979Y28531
X24940Y24437
X21633Y24387
X24940Y23571
X21633Y23621
T02
X9218Y16368
X6533Y14500
X10063Y13757
X17933Y14500
T03
X21033Y6550
X23333Y8300
X24333Y8300
X24633Y11300
X19833Y15000
X19833Y11300
X16883Y16600
X19883Y10200
X17783Y9300
X22833Y13000
X15833Y11500
X20133Y8000
X22333Y13650
X20333Y9500
X13782Y15051
X21083Y11700
X13333Y10700
X17583Y7400
X14333Y10350
X15583Y7350
X12833Y15200
X12155Y15121
X14333Y19663
X12183Y10750
X11033Y11600
X18833Y13000
X18833Y14921
X13983Y18906
T04
X16514Y17469
X11554Y16051
X9743Y18020
X18877Y22665
X14310Y20382
X17774Y19831
X17774Y19201
X10924Y8886
X11672Y10185
X13729Y11804
X15097Y22980
X13601Y22980
X11869Y22272
X17538Y16681
X17066Y18335
T05
X9727Y8000
X8940Y8000
T06
X13948Y8508
X13318Y8508
X12688Y8508
X13633Y8035
X13003Y8035
X6652Y25500
X7440Y25500
X8227Y25500
X9014Y25500
X11152Y25500
X11940Y25500
X12727Y25500
X13514Y25500
X15652Y25500
X16440Y25500
X17227Y25500
X18014Y25500
T07
X11093Y21500
X7156Y21500
X24233Y15600
X23233Y15600
X24233Y16600
X23233Y16600
X24233Y17600
X23233Y17600
T08
X11881Y6500
X14755Y6500
T09
X6833Y23736
X23833Y7000
X19912Y28067
X6833Y7000
T10
X23333Y27000
X23333Y21000
M30
