G75*
%MOIN*%
%OFA0B0*%
%FSLAX24Y24*%
%IPPOS*%
%LPD*%
%AMOC8*
5,1,8,0,0,1.08239X$1,22.5*
%
%ADD10C,0.0000*%
D10*
X006999Y005450D02*
X027187Y005450D01*
X027248Y005452D01*
X027308Y005458D01*
X027368Y005467D01*
X027427Y005480D01*
X027486Y005497D01*
X027543Y005518D01*
X027598Y005542D01*
X027652Y005569D01*
X027705Y005600D01*
X027755Y005634D01*
X027803Y005672D01*
X027848Y005712D01*
X027891Y005755D01*
X027931Y005800D01*
X027969Y005848D01*
X028003Y005898D01*
X028034Y005951D01*
X028061Y006005D01*
X028085Y006060D01*
X028106Y006117D01*
X028123Y006176D01*
X028136Y006235D01*
X028145Y006295D01*
X028151Y006355D01*
X028153Y006416D01*
X028153Y028906D01*
X028151Y028952D01*
X028146Y028998D01*
X028137Y029044D01*
X028124Y029088D01*
X028108Y029132D01*
X028089Y029174D01*
X028066Y029214D01*
X028040Y029253D01*
X028012Y029289D01*
X027980Y029323D01*
X027946Y029355D01*
X027910Y029383D01*
X027871Y029409D01*
X027831Y029432D01*
X027789Y029451D01*
X027745Y029467D01*
X027701Y029480D01*
X027655Y029489D01*
X027609Y029494D01*
X027563Y029496D01*
X006038Y029496D01*
X005988Y029494D01*
X005938Y029489D01*
X005888Y029480D01*
X005840Y029467D01*
X005792Y029452D01*
X005746Y029432D01*
X005701Y029410D01*
X005657Y029384D01*
X005616Y029356D01*
X005577Y029324D01*
X005540Y029290D01*
X005506Y029253D01*
X005474Y029214D01*
X005446Y029173D01*
X005420Y029129D01*
X005398Y029084D01*
X005378Y029038D01*
X005363Y028990D01*
X005350Y028942D01*
X005341Y028892D01*
X005336Y028842D01*
X005334Y028792D01*
X005333Y028792D02*
X005333Y007016D01*
X006333Y007250D02*
X006335Y007294D01*
X006341Y007338D01*
X006351Y007381D01*
X006364Y007423D01*
X006381Y007464D01*
X006402Y007503D01*
X006426Y007540D01*
X006453Y007575D01*
X006483Y007607D01*
X006516Y007637D01*
X006552Y007663D01*
X006589Y007687D01*
X006629Y007706D01*
X006670Y007723D01*
X006713Y007735D01*
X006756Y007744D01*
X006800Y007749D01*
X006844Y007750D01*
X006888Y007747D01*
X006932Y007740D01*
X006975Y007729D01*
X007017Y007715D01*
X007057Y007697D01*
X007096Y007675D01*
X007132Y007651D01*
X007166Y007623D01*
X007198Y007592D01*
X007227Y007558D01*
X007253Y007522D01*
X007275Y007484D01*
X007294Y007444D01*
X007309Y007402D01*
X007321Y007360D01*
X007329Y007316D01*
X007333Y007272D01*
X007333Y007228D01*
X007329Y007184D01*
X007321Y007140D01*
X007309Y007098D01*
X007294Y007056D01*
X007275Y007016D01*
X007253Y006978D01*
X007227Y006942D01*
X007198Y006908D01*
X007166Y006877D01*
X007132Y006849D01*
X007096Y006825D01*
X007057Y006803D01*
X007017Y006785D01*
X006975Y006771D01*
X006932Y006760D01*
X006888Y006753D01*
X006844Y006750D01*
X006800Y006751D01*
X006756Y006756D01*
X006713Y006765D01*
X006670Y006777D01*
X006629Y006794D01*
X006589Y006813D01*
X006552Y006837D01*
X006516Y006863D01*
X006483Y006893D01*
X006453Y006925D01*
X006426Y006960D01*
X006402Y006997D01*
X006381Y007036D01*
X006364Y007077D01*
X006351Y007119D01*
X006341Y007162D01*
X006335Y007206D01*
X006333Y007250D01*
X005334Y007016D02*
X005338Y006937D01*
X005346Y006858D01*
X005359Y006780D01*
X005375Y006702D01*
X005394Y006625D01*
X005418Y006549D01*
X005445Y006475D01*
X005476Y006402D01*
X005510Y006330D01*
X005548Y006261D01*
X005589Y006193D01*
X005634Y006127D01*
X005681Y006064D01*
X005732Y006003D01*
X005786Y005944D01*
X005842Y005889D01*
X005901Y005836D01*
X005963Y005786D01*
X006027Y005739D01*
X006093Y005695D01*
X006161Y005655D01*
X006232Y005618D01*
X006304Y005584D01*
X006377Y005555D01*
X006452Y005528D01*
X006528Y005506D01*
X006605Y005487D01*
X006683Y005472D01*
X006761Y005461D01*
X006840Y005454D01*
X006920Y005450D01*
X006999Y005451D01*
X026183Y007150D02*
X026185Y007194D01*
X026191Y007238D01*
X026201Y007281D01*
X026214Y007323D01*
X026231Y007364D01*
X026252Y007403D01*
X026276Y007440D01*
X026303Y007475D01*
X026333Y007507D01*
X026366Y007537D01*
X026402Y007563D01*
X026439Y007587D01*
X026479Y007606D01*
X026520Y007623D01*
X026563Y007635D01*
X026606Y007644D01*
X026650Y007649D01*
X026694Y007650D01*
X026738Y007647D01*
X026782Y007640D01*
X026825Y007629D01*
X026867Y007615D01*
X026907Y007597D01*
X026946Y007575D01*
X026982Y007551D01*
X027016Y007523D01*
X027048Y007492D01*
X027077Y007458D01*
X027103Y007422D01*
X027125Y007384D01*
X027144Y007344D01*
X027159Y007302D01*
X027171Y007260D01*
X027179Y007216D01*
X027183Y007172D01*
X027183Y007128D01*
X027179Y007084D01*
X027171Y007040D01*
X027159Y006998D01*
X027144Y006956D01*
X027125Y006916D01*
X027103Y006878D01*
X027077Y006842D01*
X027048Y006808D01*
X027016Y006777D01*
X026982Y006749D01*
X026946Y006725D01*
X026907Y006703D01*
X026867Y006685D01*
X026825Y006671D01*
X026782Y006660D01*
X026738Y006653D01*
X026694Y006650D01*
X026650Y006651D01*
X026606Y006656D01*
X026563Y006665D01*
X026520Y006677D01*
X026479Y006694D01*
X026439Y006713D01*
X026402Y006737D01*
X026366Y006763D01*
X026333Y006793D01*
X026303Y006825D01*
X026276Y006860D01*
X026252Y006897D01*
X026231Y006936D01*
X026214Y006977D01*
X026201Y007019D01*
X026191Y007062D01*
X026185Y007106D01*
X026183Y007150D01*
X006147Y028350D02*
X006149Y028394D01*
X006155Y028438D01*
X006165Y028481D01*
X006178Y028523D01*
X006195Y028564D01*
X006216Y028603D01*
X006240Y028640D01*
X006267Y028675D01*
X006297Y028707D01*
X006330Y028737D01*
X006366Y028763D01*
X006403Y028787D01*
X006443Y028806D01*
X006484Y028823D01*
X006527Y028835D01*
X006570Y028844D01*
X006614Y028849D01*
X006658Y028850D01*
X006702Y028847D01*
X006746Y028840D01*
X006789Y028829D01*
X006831Y028815D01*
X006871Y028797D01*
X006910Y028775D01*
X006946Y028751D01*
X006980Y028723D01*
X007012Y028692D01*
X007041Y028658D01*
X007067Y028622D01*
X007089Y028584D01*
X007108Y028544D01*
X007123Y028502D01*
X007135Y028460D01*
X007143Y028416D01*
X007147Y028372D01*
X007147Y028328D01*
X007143Y028284D01*
X007135Y028240D01*
X007123Y028198D01*
X007108Y028156D01*
X007089Y028116D01*
X007067Y028078D01*
X007041Y028042D01*
X007012Y028008D01*
X006980Y027977D01*
X006946Y027949D01*
X006910Y027925D01*
X006871Y027903D01*
X006831Y027885D01*
X006789Y027871D01*
X006746Y027860D01*
X006702Y027853D01*
X006658Y027850D01*
X006614Y027851D01*
X006570Y027856D01*
X006527Y027865D01*
X006484Y027877D01*
X006443Y027894D01*
X006403Y027913D01*
X006366Y027937D01*
X006330Y027963D01*
X006297Y027993D01*
X006267Y028025D01*
X006240Y028060D01*
X006216Y028097D01*
X006195Y028136D01*
X006178Y028177D01*
X006165Y028219D01*
X006155Y028262D01*
X006149Y028306D01*
X006147Y028350D01*
X019812Y028417D02*
X019814Y028461D01*
X019820Y028505D01*
X019830Y028548D01*
X019843Y028590D01*
X019860Y028631D01*
X019881Y028670D01*
X019905Y028707D01*
X019932Y028742D01*
X019962Y028774D01*
X019995Y028804D01*
X020031Y028830D01*
X020068Y028854D01*
X020108Y028873D01*
X020149Y028890D01*
X020192Y028902D01*
X020235Y028911D01*
X020279Y028916D01*
X020323Y028917D01*
X020367Y028914D01*
X020411Y028907D01*
X020454Y028896D01*
X020496Y028882D01*
X020536Y028864D01*
X020575Y028842D01*
X020611Y028818D01*
X020645Y028790D01*
X020677Y028759D01*
X020706Y028725D01*
X020732Y028689D01*
X020754Y028651D01*
X020773Y028611D01*
X020788Y028569D01*
X020800Y028527D01*
X020808Y028483D01*
X020812Y028439D01*
X020812Y028395D01*
X020808Y028351D01*
X020800Y028307D01*
X020788Y028265D01*
X020773Y028223D01*
X020754Y028183D01*
X020732Y028145D01*
X020706Y028109D01*
X020677Y028075D01*
X020645Y028044D01*
X020611Y028016D01*
X020575Y027992D01*
X020536Y027970D01*
X020496Y027952D01*
X020454Y027938D01*
X020411Y027927D01*
X020367Y027920D01*
X020323Y027917D01*
X020279Y027918D01*
X020235Y027923D01*
X020192Y027932D01*
X020149Y027944D01*
X020108Y027961D01*
X020068Y027980D01*
X020031Y028004D01*
X019995Y028030D01*
X019962Y028060D01*
X019932Y028092D01*
X019905Y028127D01*
X019881Y028164D01*
X019860Y028203D01*
X019843Y028244D01*
X019830Y028286D01*
X019820Y028329D01*
X019814Y028373D01*
X019812Y028417D01*
M02*
