G75*
%MOIN*%
%OFA0B0*%
%FSLAX24Y24*%
%IPPOS*%
%LPD*%
%AMOC8*
5,1,8,0,0,1.08239X$1,22.5*
%
%ADD10C,0.1040*%
%ADD11C,0.0100*%
%ADD12R,0.0906X0.0276*%
%ADD13OC8,0.0800*%
%ADD14OC8,0.0780*%
%ADD15OC8,0.0560*%
%ADD16C,0.0640*%
%ADD17C,0.3583*%
%ADD18C,0.0555*%
%ADD19C,0.1162*%
%ADD20R,0.0316X0.0394*%
%ADD21R,0.0552X0.0631*%
%ADD22R,0.0300X0.0840*%
%ADD23R,0.0257X0.0512*%
%ADD24R,0.0631X0.0808*%
%ADD25R,0.0473X0.0591*%
%ADD26R,0.0591X0.0473*%
D10*
X006833Y007250D03*
X026683Y007150D03*
X006647Y028350D03*
X020312Y028417D03*
D11*
X021283Y028451D02*
X027733Y028451D01*
X027733Y028549D02*
X021283Y028549D01*
X021283Y028648D02*
X027733Y028648D01*
X027733Y028746D02*
X021283Y028746D01*
X021283Y028845D02*
X027733Y028845D01*
X027733Y028943D02*
X021283Y028943D01*
X021283Y029042D02*
X027733Y029042D01*
X027733Y029140D02*
X021283Y029140D01*
X021283Y029200D02*
X027733Y029200D01*
X027733Y024450D01*
X021283Y024450D01*
X021283Y029200D01*
X021283Y028352D02*
X027733Y028352D01*
X027733Y028254D02*
X021283Y028254D01*
X021283Y028155D02*
X027733Y028155D01*
X027733Y028057D02*
X021283Y028057D01*
X021283Y027958D02*
X027733Y027958D01*
X027733Y027860D02*
X021283Y027860D01*
X021283Y027761D02*
X027733Y027761D01*
X027733Y027663D02*
X021283Y027663D01*
X021283Y027564D02*
X027733Y027564D01*
X027733Y027466D02*
X021283Y027466D01*
X021283Y027367D02*
X027733Y027367D01*
X027733Y027269D02*
X021283Y027269D01*
X021283Y027170D02*
X027733Y027170D01*
X027733Y027072D02*
X021283Y027072D01*
X021283Y026973D02*
X027733Y026973D01*
X027733Y026875D02*
X021283Y026875D01*
X021283Y026776D02*
X027733Y026776D01*
X027733Y026678D02*
X021283Y026678D01*
X021283Y026579D02*
X027733Y026579D01*
X027733Y026481D02*
X021283Y026481D01*
X021283Y026382D02*
X027733Y026382D01*
X027733Y026284D02*
X021283Y026284D01*
X021283Y026185D02*
X027733Y026185D01*
X027733Y026087D02*
X021283Y026087D01*
X021283Y025988D02*
X027733Y025988D01*
X027733Y025890D02*
X021283Y025890D01*
X021283Y025791D02*
X027733Y025791D01*
X027733Y025693D02*
X021283Y025693D01*
X021283Y025594D02*
X027733Y025594D01*
X027733Y025496D02*
X021283Y025496D01*
X021283Y025397D02*
X027733Y025397D01*
X027733Y025299D02*
X021283Y025299D01*
X021283Y025200D02*
X027733Y025200D01*
X027733Y025102D02*
X021283Y025102D01*
X021283Y025003D02*
X027733Y025003D01*
X027733Y024905D02*
X021283Y024905D01*
X021283Y024806D02*
X027733Y024806D01*
X027733Y024708D02*
X021283Y024708D01*
X021283Y024609D02*
X027733Y024609D01*
X027733Y024511D02*
X021283Y024511D01*
X021333Y024150D02*
X021333Y019500D01*
X027733Y019500D01*
X027733Y024150D01*
X021333Y024150D01*
X021333Y024117D02*
X027733Y024117D01*
X027733Y024018D02*
X021333Y024018D01*
X021333Y023920D02*
X027733Y023920D01*
X027733Y023821D02*
X021333Y023821D01*
X021333Y023723D02*
X027733Y023723D01*
X027733Y023624D02*
X021333Y023624D01*
X021333Y023526D02*
X027733Y023526D01*
X027733Y023427D02*
X021333Y023427D01*
X021333Y023329D02*
X027733Y023329D01*
X027733Y023230D02*
X021333Y023230D01*
X021333Y023132D02*
X027733Y023132D01*
X027733Y023033D02*
X021333Y023033D01*
X021333Y022935D02*
X027733Y022935D01*
X027733Y022836D02*
X021333Y022836D01*
X021333Y022738D02*
X027733Y022738D01*
X027733Y022639D02*
X021333Y022639D01*
X021333Y022541D02*
X027733Y022541D01*
X027733Y022442D02*
X021333Y022442D01*
X021333Y022344D02*
X027733Y022344D01*
X027733Y022245D02*
X021333Y022245D01*
X021333Y022147D02*
X027733Y022147D01*
X027733Y022048D02*
X021333Y022048D01*
X021333Y021950D02*
X027733Y021950D01*
X027733Y021851D02*
X021333Y021851D01*
X021333Y021753D02*
X027733Y021753D01*
X027733Y021654D02*
X021333Y021654D01*
X021333Y021556D02*
X027733Y021556D01*
X027733Y021457D02*
X021333Y021457D01*
X021333Y021359D02*
X027733Y021359D01*
X027733Y021260D02*
X021333Y021260D01*
X021333Y021162D02*
X027733Y021162D01*
X027733Y021063D02*
X021333Y021063D01*
X021333Y020965D02*
X027733Y020965D01*
X027733Y020866D02*
X021333Y020866D01*
X021333Y020768D02*
X027733Y020768D01*
X027733Y020669D02*
X021333Y020669D01*
X021333Y020571D02*
X027733Y020571D01*
X027733Y020472D02*
X021333Y020472D01*
X021333Y020374D02*
X027733Y020374D01*
X027733Y020275D02*
X021333Y020275D01*
X021333Y020177D02*
X027733Y020177D01*
X027733Y020078D02*
X021333Y020078D01*
X021333Y019980D02*
X027733Y019980D01*
X027733Y019881D02*
X021333Y019881D01*
X021333Y019783D02*
X027733Y019783D01*
X027733Y019684D02*
X021333Y019684D01*
X021333Y019586D02*
X027733Y019586D01*
D12*
X010644Y019750D03*
X010644Y019250D03*
X010644Y018750D03*
X010644Y018250D03*
X010644Y017750D03*
X010644Y017250D03*
X010644Y016750D03*
X010644Y016250D03*
X010644Y015750D03*
X010644Y015250D03*
X007022Y015250D03*
X007022Y015750D03*
X007022Y016250D03*
X007022Y016750D03*
X007022Y017250D03*
X007022Y017750D03*
X007022Y018250D03*
X007022Y018750D03*
X007022Y019250D03*
X007022Y019750D03*
D13*
X009133Y023223D03*
X009133Y027160D03*
D14*
X023283Y017850D03*
X024283Y017850D03*
X024283Y016850D03*
X023283Y016850D03*
X023283Y015850D03*
X024283Y015850D03*
D15*
X020883Y012900D03*
X020383Y012150D03*
X021383Y012150D03*
D16*
X026133Y015850D02*
X026733Y015850D01*
X026733Y016850D02*
X026133Y016850D01*
X026133Y017850D02*
X026733Y017850D01*
X019433Y025900D02*
X018833Y025900D01*
X018833Y026900D02*
X019433Y026900D01*
X019433Y027900D02*
X018833Y027900D01*
X018833Y028900D02*
X019433Y028900D01*
X015933Y028900D02*
X015333Y028900D01*
X015333Y027900D02*
X015933Y027900D01*
X015933Y026900D02*
X015333Y026900D01*
X015333Y025900D02*
X015933Y025900D01*
X011983Y026350D02*
X011383Y026350D01*
X011383Y025350D02*
X011983Y025350D01*
X011983Y024350D02*
X011383Y024350D01*
X011383Y023350D02*
X011983Y023350D01*
X010367Y011071D02*
X010367Y010471D01*
X009367Y010471D02*
X009367Y011071D01*
D17*
X024231Y021354D03*
X024231Y027260D03*
D18*
X013663Y009058D03*
X013348Y008585D03*
X013033Y009058D03*
X012718Y008585D03*
X012403Y009058D03*
D19*
X011596Y007050D03*
X014470Y007050D03*
D20*
X010439Y013050D03*
X009927Y013050D03*
D21*
X010059Y013900D03*
X010807Y013900D03*
D22*
X013083Y014710D03*
X013583Y014710D03*
X014083Y014710D03*
X014583Y014710D03*
X015083Y014710D03*
X015583Y014710D03*
X016083Y014710D03*
X016583Y014710D03*
X016583Y012290D03*
X016083Y012290D03*
X015583Y012290D03*
X015083Y012290D03*
X014583Y012290D03*
X014083Y012290D03*
X013583Y012290D03*
X013083Y012290D03*
D23*
X019859Y010362D03*
X020607Y010362D03*
X020607Y009338D03*
X020233Y009338D03*
X019859Y009338D03*
D24*
X018333Y007241D03*
X018333Y006159D03*
D25*
X019790Y008450D03*
X020577Y008450D03*
D26*
X016133Y007444D03*
X016133Y006656D03*
M02*
