G75*
%MOIN*%
%OFA0B0*%
%FSLAX24Y24*%
%IPPOS*%
%LPD*%
%AMOC8*
5,1,8,0,0,1.08239X$1,22.5*
%
%ADD10C,0.0100*%
%ADD11R,0.0866X0.0236*%
%ADD12OC8,0.0760*%
%ADD13OC8,0.0740*%
%ADD14OC8,0.0520*%
%ADD15C,0.0600*%
%ADD16C,0.3543*%
%ADD17C,0.0515*%
%ADD18C,0.1122*%
%ADD19R,0.0276X0.0354*%
%ADD20R,0.0512X0.0591*%
%ADD21R,0.0260X0.0800*%
%ADD22R,0.0217X0.0472*%
%ADD23R,0.0591X0.0768*%
%ADD24R,0.0433X0.0551*%
%ADD25R,0.0551X0.0433*%
%ADD26C,0.0160*%
%ADD27C,0.0356*%
%ADD28C,0.0120*%
%ADD29C,0.0320*%
%ADD30C,0.0277*%
%ADD31C,0.0317*%
D10*
X014533Y010800D02*
X014933Y010800D01*
X015583Y010150D01*
X015583Y007850D01*
X017583Y007900D02*
X017583Y009100D01*
X015583Y011100D01*
X012305Y015771D02*
X014433Y018050D01*
X014433Y021113D01*
X014797Y020982D02*
X014833Y020846D01*
X014833Y018000D01*
X012833Y015850D01*
X014797Y020982D02*
X014510Y021682D01*
X014901Y021980D02*
X014901Y023081D01*
X015051Y023530D01*
X021333Y023526D02*
X027733Y023526D01*
X027733Y023624D02*
X021333Y023624D01*
X021333Y023723D02*
X027733Y023723D01*
X027733Y023821D02*
X021333Y023821D01*
X021333Y023920D02*
X027733Y023920D01*
X027733Y024018D02*
X021333Y024018D01*
X021333Y024117D02*
X027733Y024117D01*
X027733Y024150D02*
X027733Y019500D01*
X021333Y019500D01*
X021333Y024150D01*
X027733Y024150D01*
X027733Y024450D02*
X021283Y024450D01*
X021283Y029200D01*
X027733Y029200D01*
X027733Y024450D01*
X027733Y024511D02*
X021283Y024511D01*
X021283Y024609D02*
X027733Y024609D01*
X027733Y024708D02*
X021283Y024708D01*
X021283Y024806D02*
X027733Y024806D01*
X027733Y024905D02*
X021283Y024905D01*
X021283Y025003D02*
X027733Y025003D01*
X027733Y025102D02*
X021283Y025102D01*
X021283Y025200D02*
X027733Y025200D01*
X027733Y025299D02*
X021283Y025299D01*
X021283Y025397D02*
X027733Y025397D01*
X027733Y025496D02*
X021283Y025496D01*
X021283Y025594D02*
X027733Y025594D01*
X027733Y025693D02*
X021283Y025693D01*
X021283Y025791D02*
X027733Y025791D01*
X027733Y025890D02*
X021283Y025890D01*
X021283Y025988D02*
X027733Y025988D01*
X027733Y026087D02*
X021283Y026087D01*
X021283Y026185D02*
X027733Y026185D01*
X027733Y026284D02*
X021283Y026284D01*
X021283Y026382D02*
X027733Y026382D01*
X027733Y026481D02*
X021283Y026481D01*
X021283Y026579D02*
X027733Y026579D01*
X027733Y026678D02*
X021283Y026678D01*
X021283Y026776D02*
X027733Y026776D01*
X027733Y026875D02*
X021283Y026875D01*
X021283Y026973D02*
X027733Y026973D01*
X027733Y027072D02*
X021283Y027072D01*
X021283Y027170D02*
X027733Y027170D01*
X027733Y027269D02*
X021283Y027269D01*
X021283Y027367D02*
X027733Y027367D01*
X027733Y027466D02*
X021283Y027466D01*
X021283Y027564D02*
X027733Y027564D01*
X027733Y027663D02*
X021283Y027663D01*
X021283Y027761D02*
X027733Y027761D01*
X027733Y027860D02*
X021283Y027860D01*
X021283Y027958D02*
X027733Y027958D01*
X027733Y028057D02*
X021283Y028057D01*
X021283Y028155D02*
X027733Y028155D01*
X027733Y028254D02*
X021283Y028254D01*
X021283Y028352D02*
X027733Y028352D01*
X027733Y028451D02*
X021283Y028451D01*
X021283Y028549D02*
X027733Y028549D01*
X027733Y028648D02*
X021283Y028648D01*
X021283Y028746D02*
X027733Y028746D01*
X027733Y028845D02*
X021283Y028845D01*
X021283Y028943D02*
X027733Y028943D01*
X027733Y029042D02*
X021283Y029042D01*
X021283Y029140D02*
X027733Y029140D01*
X027733Y023427D02*
X021333Y023427D01*
X021333Y023329D02*
X027733Y023329D01*
X027733Y023230D02*
X021333Y023230D01*
X021333Y023132D02*
X027733Y023132D01*
X027733Y023033D02*
X021333Y023033D01*
X021333Y022935D02*
X027733Y022935D01*
X027733Y022836D02*
X021333Y022836D01*
X021333Y022738D02*
X027733Y022738D01*
X027733Y022639D02*
X021333Y022639D01*
X021333Y022541D02*
X027733Y022541D01*
X027733Y022442D02*
X021333Y022442D01*
X021333Y022344D02*
X027733Y022344D01*
X027733Y022245D02*
X021333Y022245D01*
X021333Y022147D02*
X027733Y022147D01*
X027733Y022048D02*
X021333Y022048D01*
X021333Y021950D02*
X027733Y021950D01*
X027733Y021851D02*
X021333Y021851D01*
X021333Y021753D02*
X027733Y021753D01*
X027733Y021654D02*
X021333Y021654D01*
X021333Y021556D02*
X027733Y021556D01*
X027733Y021457D02*
X021333Y021457D01*
X021333Y021359D02*
X027733Y021359D01*
X027733Y021260D02*
X021333Y021260D01*
X021333Y021162D02*
X027733Y021162D01*
X027733Y021063D02*
X021333Y021063D01*
X021333Y020965D02*
X027733Y020965D01*
X027733Y020866D02*
X021333Y020866D01*
X021333Y020768D02*
X027733Y020768D01*
X027733Y020669D02*
X021333Y020669D01*
X021333Y020571D02*
X027733Y020571D01*
X027733Y020472D02*
X021333Y020472D01*
X021333Y020374D02*
X027733Y020374D01*
X027733Y020275D02*
X021333Y020275D01*
X021333Y020177D02*
X027733Y020177D01*
X027733Y020078D02*
X021333Y020078D01*
X021333Y019980D02*
X027733Y019980D01*
X027733Y019881D02*
X021333Y019881D01*
X021333Y019783D02*
X027733Y019783D01*
X027733Y019684D02*
X021333Y019684D01*
X021333Y019586D02*
X027733Y019586D01*
X023683Y014150D02*
X022033Y014150D01*
X023683Y014150D02*
X023833Y014000D01*
X023833Y010000D01*
D11*
X010644Y015250D03*
X010644Y015750D03*
X010644Y016250D03*
X010644Y016750D03*
X010644Y017250D03*
X010644Y017750D03*
X010644Y018250D03*
X010644Y018750D03*
X010644Y019250D03*
X010644Y019750D03*
X007022Y019750D03*
X007022Y019250D03*
X007022Y018750D03*
X007022Y018250D03*
X007022Y017750D03*
X007022Y017250D03*
X007022Y016750D03*
X007022Y016250D03*
X007022Y015750D03*
X007022Y015250D03*
D12*
X009133Y023223D03*
X009133Y027160D03*
D13*
X023283Y017850D03*
X024283Y017850D03*
X024283Y016850D03*
X023283Y016850D03*
X023283Y015850D03*
X024283Y015850D03*
D14*
X020883Y012900D03*
X020383Y012150D03*
X021383Y012150D03*
D15*
X026133Y015850D02*
X026733Y015850D01*
X026733Y016850D02*
X026133Y016850D01*
X026133Y017850D02*
X026733Y017850D01*
X019433Y025900D02*
X018833Y025900D01*
X018833Y026900D02*
X019433Y026900D01*
X019433Y027900D02*
X018833Y027900D01*
X018833Y028900D02*
X019433Y028900D01*
X015933Y028900D02*
X015333Y028900D01*
X015333Y027900D02*
X015933Y027900D01*
X015933Y026900D02*
X015333Y026900D01*
X015333Y025900D02*
X015933Y025900D01*
X011983Y026350D02*
X011383Y026350D01*
X011383Y025350D02*
X011983Y025350D01*
X011983Y024350D02*
X011383Y024350D01*
X011383Y023350D02*
X011983Y023350D01*
X010367Y011071D02*
X010367Y010471D01*
X009367Y010471D02*
X009367Y011071D01*
D16*
X024231Y021354D03*
X024231Y027260D03*
D17*
X013663Y009058D03*
X013348Y008585D03*
X013033Y009058D03*
X012718Y008585D03*
X012403Y009058D03*
D18*
X011596Y007050D03*
X014470Y007050D03*
D19*
X010439Y013050D03*
X009927Y013050D03*
D20*
X010059Y013900D03*
X010807Y013900D03*
D21*
X013083Y014710D03*
X013583Y014710D03*
X014083Y014710D03*
X014583Y014710D03*
X015083Y014710D03*
X015583Y014710D03*
X016083Y014710D03*
X016583Y014710D03*
X016583Y012290D03*
X016083Y012290D03*
X015583Y012290D03*
X015083Y012290D03*
X014583Y012290D03*
X014083Y012290D03*
X013583Y012290D03*
X013083Y012290D03*
D22*
X019859Y010362D03*
X020607Y010362D03*
X020607Y009338D03*
X020233Y009338D03*
X019859Y009338D03*
D23*
X018333Y007241D03*
X018333Y006159D03*
D24*
X019790Y008450D03*
X020577Y008450D03*
D25*
X016133Y007444D03*
X016133Y006656D03*
D26*
X006110Y005900D02*
X005837Y006156D01*
X005640Y006475D01*
X005531Y006834D01*
X005513Y007020D01*
X005513Y028792D01*
X005520Y028874D01*
X005570Y029030D01*
X005667Y029162D01*
X005800Y029259D01*
X005956Y029310D01*
X006038Y029316D01*
X015188Y029316D01*
X015084Y029273D01*
X014960Y029149D01*
X014893Y028988D01*
X014893Y028812D01*
X014960Y028651D01*
X015084Y028527D01*
X015246Y028460D01*
X016021Y028460D01*
X016183Y028527D01*
X016306Y028651D01*
X016327Y028700D01*
X016700Y028700D01*
X016883Y028517D01*
X016883Y025017D01*
X017000Y024900D01*
X017932Y023968D01*
X017887Y021054D01*
X017814Y020980D01*
X017781Y020902D01*
X017733Y020950D01*
X017733Y024033D01*
X016883Y024883D01*
X016883Y027733D01*
X016633Y027983D01*
X016516Y028100D01*
X016327Y028100D01*
X016306Y028149D01*
X016183Y028273D01*
X016021Y028340D01*
X015246Y028340D01*
X015084Y028273D01*
X014960Y028149D01*
X014893Y027988D01*
X014893Y027812D01*
X014960Y027651D01*
X015084Y027527D01*
X015246Y027460D01*
X016021Y027460D01*
X016183Y027527D01*
X016306Y027651D01*
X016327Y027700D01*
X016350Y027700D01*
X016483Y027567D01*
X016483Y024717D01*
X016600Y024600D01*
X017333Y023867D01*
X017333Y023307D01*
X017303Y023380D01*
X017214Y023470D01*
X017097Y023518D01*
X016998Y023518D01*
X016833Y023683D01*
X016833Y023850D01*
X016903Y023920D01*
X016951Y024037D01*
X016951Y024163D01*
X016903Y024280D01*
X016814Y024370D01*
X016697Y024418D01*
X016570Y024418D01*
X016453Y024370D01*
X016364Y024280D01*
X016315Y024163D01*
X016315Y024037D01*
X016364Y023920D01*
X016433Y023850D01*
X016433Y023517D01*
X016550Y023400D01*
X016715Y023235D01*
X016715Y023137D01*
X016764Y023020D01*
X016853Y022930D01*
X016970Y022882D01*
X017097Y022882D01*
X017214Y022930D01*
X017303Y023020D01*
X017333Y023093D01*
X017333Y020950D01*
X017264Y020880D01*
X017215Y020763D01*
X017215Y020651D01*
X016966Y020900D01*
X016283Y020900D01*
X016214Y020970D01*
X016097Y021018D01*
X015970Y021018D01*
X015853Y020970D01*
X015764Y020880D01*
X015733Y020807D01*
X015733Y021050D01*
X015803Y021120D01*
X015851Y021237D01*
X015851Y021363D01*
X015803Y021480D01*
X015714Y021570D01*
X015597Y021618D01*
X015470Y021618D01*
X015353Y021570D01*
X015264Y021480D01*
X015215Y021363D01*
X015215Y021237D01*
X015264Y021120D01*
X015333Y021050D01*
X015333Y019617D01*
X015983Y018967D01*
X016100Y018850D01*
X016950Y018850D01*
X017000Y018800D01*
X016550Y018800D01*
X016433Y018683D01*
X016300Y018550D01*
X015933Y018550D01*
X015864Y018620D01*
X015747Y018668D01*
X015620Y018668D01*
X015503Y018620D01*
X015414Y018530D01*
X015365Y018413D01*
X015365Y018287D01*
X015414Y018170D01*
X015503Y018080D01*
X015620Y018032D01*
X015747Y018032D01*
X015864Y018080D01*
X015933Y018150D01*
X016427Y018150D01*
X015468Y016770D01*
X013949Y016770D01*
X014970Y017868D01*
X015023Y017921D01*
X015023Y017925D01*
X015026Y017928D01*
X015023Y018003D01*
X015023Y020795D01*
X015037Y020818D01*
X015023Y020870D01*
X015023Y020924D01*
X015004Y020944D01*
X014997Y020968D01*
X015003Y020981D01*
X014978Y021043D01*
X014961Y021107D01*
X014948Y021114D01*
X014784Y021513D01*
X014828Y021619D01*
X014828Y021666D01*
X014838Y021662D01*
X014964Y021662D01*
X015081Y021711D01*
X015171Y021800D01*
X015219Y021917D01*
X015219Y022044D01*
X015171Y022161D01*
X015091Y022240D01*
X015091Y023050D01*
X015166Y023277D01*
X015209Y023294D01*
X015287Y023372D01*
X015329Y023475D01*
X015329Y023586D01*
X015287Y023688D01*
X015209Y023767D01*
X015106Y023809D01*
X014995Y023809D01*
X014893Y023767D01*
X014814Y023688D01*
X014772Y023586D01*
X014772Y023475D01*
X014805Y023394D01*
X014735Y023183D01*
X014711Y023159D01*
X014711Y023111D01*
X014696Y023066D01*
X014711Y023036D01*
X014711Y022240D01*
X014631Y022161D01*
X014583Y022044D01*
X014583Y021996D01*
X014573Y022000D01*
X014446Y022000D01*
X014330Y021952D01*
X014240Y021862D01*
X014192Y021745D01*
X014192Y021619D01*
X014240Y021502D01*
X014330Y021412D01*
X014351Y021403D01*
X014263Y021367D01*
X014179Y021283D01*
X014133Y021172D01*
X014133Y021053D01*
X014179Y020943D01*
X014243Y020878D01*
X014243Y018125D01*
X012325Y016071D01*
X012245Y016071D01*
X012135Y016026D01*
X012050Y015941D01*
X012036Y015907D01*
X012080Y016863D01*
X012083Y016867D01*
X012083Y016945D01*
X012087Y017024D01*
X012083Y017028D01*
X012083Y017033D01*
X012028Y017088D01*
X011975Y017146D01*
X011970Y017146D01*
X011884Y017232D01*
X011997Y017232D01*
X012114Y017280D01*
X012203Y017370D01*
X012251Y017487D01*
X012251Y017613D01*
X012203Y017730D01*
X012133Y017800D01*
X012133Y018300D01*
X012203Y018370D01*
X012251Y018487D01*
X012251Y018613D01*
X012203Y018730D01*
X012114Y018820D01*
X011997Y018868D01*
X011870Y018868D01*
X011801Y018840D01*
X011801Y018863D01*
X011753Y018980D01*
X011664Y019070D01*
X011547Y019118D01*
X011420Y019118D01*
X011303Y019070D01*
X011214Y018980D01*
X011199Y018945D01*
X011144Y019000D01*
X011217Y019074D01*
X011217Y019426D01*
X011144Y019500D01*
X011174Y019530D01*
X011492Y019530D01*
X011633Y019389D01*
X011633Y019267D01*
X011833Y019067D01*
X011950Y018950D01*
X013633Y018950D01*
X013703Y018880D01*
X013820Y018832D01*
X013947Y018832D01*
X014064Y018880D01*
X014153Y018970D01*
X014201Y019087D01*
X014201Y019213D01*
X014153Y019330D01*
X014064Y019420D01*
X013947Y019468D01*
X013820Y019468D01*
X013703Y019420D01*
X013633Y019350D01*
X012516Y019350D01*
X012551Y019437D01*
X012551Y019563D01*
X012503Y019680D01*
X012482Y019701D01*
X012542Y020147D01*
X012553Y020159D01*
X012553Y020235D01*
X012563Y020311D01*
X012553Y020324D01*
X012553Y020341D01*
X012499Y020395D01*
X012453Y020456D01*
X012436Y020458D01*
X012353Y020541D01*
X012224Y020670D01*
X010774Y020670D01*
X010503Y020941D01*
X010503Y026009D01*
X010624Y026130D01*
X010998Y026130D01*
X011010Y026101D01*
X011134Y025977D01*
X011296Y025910D01*
X012071Y025910D01*
X012233Y025977D01*
X012356Y026101D01*
X012423Y026262D01*
X012423Y026438D01*
X012356Y026599D01*
X012233Y026723D01*
X012071Y026790D01*
X011296Y026790D01*
X011134Y026723D01*
X011010Y026599D01*
X010998Y026570D01*
X010536Y026570D01*
X011016Y027050D01*
X011950Y027050D01*
X012483Y026517D01*
X012483Y025783D01*
X012328Y025628D01*
X012233Y025723D01*
X012071Y025790D01*
X011296Y025790D01*
X011134Y025723D01*
X011010Y025599D01*
X010943Y025438D01*
X010943Y025262D01*
X011010Y025101D01*
X011134Y024977D01*
X011296Y024910D01*
X012071Y024910D01*
X012233Y024977D01*
X012306Y025050D01*
X012316Y025050D01*
X012433Y025167D01*
X012883Y025617D01*
X012883Y026683D01*
X012766Y026800D01*
X012116Y027450D01*
X010850Y027450D01*
X010733Y027333D01*
X009633Y026233D01*
X009633Y023515D01*
X009365Y023783D01*
X009153Y023783D01*
X009153Y023243D01*
X009113Y023243D01*
X009113Y023203D01*
X008573Y023203D01*
X008573Y022991D01*
X008901Y022663D01*
X009113Y022663D01*
X009113Y023203D01*
X009153Y023203D01*
X009153Y022663D01*
X009365Y022663D01*
X009633Y022931D01*
X009633Y020000D01*
X009564Y019930D01*
X009515Y019813D01*
X009515Y019687D01*
X009564Y019570D01*
X009653Y019480D01*
X009661Y019477D01*
X009633Y019450D01*
X007571Y019450D01*
X007521Y019500D01*
X007595Y019574D01*
X007595Y019926D01*
X007513Y020008D01*
X006531Y020008D01*
X006493Y019970D01*
X006392Y019970D01*
X006242Y019820D01*
X006203Y019781D01*
X006203Y020427D01*
X009290Y024545D01*
X009343Y024598D01*
X009343Y024616D01*
X009354Y024631D01*
X009344Y024705D01*
X009351Y026642D01*
X009653Y026944D01*
X009653Y027375D01*
X009349Y027680D01*
X008918Y027680D01*
X008613Y027375D01*
X008613Y026944D01*
X008911Y026646D01*
X008904Y024764D01*
X005817Y020644D01*
X005763Y020591D01*
X005763Y020573D01*
X005753Y020559D01*
X005763Y020484D01*
X005763Y018059D01*
X006163Y017659D01*
X006292Y017530D01*
X006493Y017530D01*
X006499Y017524D01*
X006479Y017512D01*
X006445Y017479D01*
X006422Y017438D01*
X006409Y017392D01*
X006409Y017250D01*
X007022Y017250D01*
X006409Y017250D01*
X006409Y017108D01*
X006422Y017062D01*
X006445Y017021D01*
X006479Y016988D01*
X006499Y016976D01*
X006449Y016926D01*
X006449Y016574D01*
X006523Y016500D01*
X006449Y016426D01*
X006449Y016074D01*
X006523Y016000D01*
X006449Y015926D01*
X006449Y015574D01*
X006523Y015500D01*
X006449Y015426D01*
X006449Y015074D01*
X006531Y014992D01*
X007513Y014992D01*
X007595Y015074D01*
X007595Y015426D01*
X007521Y015500D01*
X007595Y015574D01*
X007595Y015926D01*
X007521Y016000D01*
X007595Y016074D01*
X007595Y016426D01*
X007521Y016500D01*
X007595Y016574D01*
X007595Y016926D01*
X007545Y016976D01*
X007566Y016988D01*
X007599Y017021D01*
X007623Y017062D01*
X007635Y017108D01*
X007635Y017250D01*
X007635Y017392D01*
X007623Y017438D01*
X007599Y017479D01*
X007566Y017512D01*
X007545Y017524D01*
X007595Y017574D01*
X007595Y017926D01*
X007521Y018000D01*
X007571Y018050D01*
X007851Y018050D01*
X007815Y017963D01*
X007815Y017837D01*
X007864Y017720D01*
X007953Y017630D01*
X008070Y017582D01*
X008197Y017582D01*
X008314Y017630D01*
X008403Y017720D01*
X008451Y017837D01*
X008451Y017963D01*
X008403Y018080D01*
X008314Y018170D01*
X008218Y018209D01*
X008183Y018291D01*
X008183Y018333D01*
X008152Y018364D01*
X008135Y018405D01*
X008096Y018420D01*
X008066Y018450D01*
X008022Y018450D01*
X007981Y018466D01*
X007942Y018450D01*
X007571Y018450D01*
X007521Y018500D01*
X007571Y018550D01*
X009476Y018550D01*
X009403Y018520D01*
X009314Y018430D01*
X009265Y018313D01*
X009265Y018187D01*
X009314Y018070D01*
X009403Y017980D01*
X009520Y017932D01*
X009647Y017932D01*
X009764Y017980D01*
X009833Y018050D01*
X010095Y018050D01*
X010145Y018000D01*
X010115Y017970D01*
X009992Y017970D01*
X009863Y017841D01*
X009713Y017691D01*
X009713Y014559D01*
X009839Y014433D01*
X009839Y014335D01*
X009745Y014335D01*
X009663Y014253D01*
X009663Y013547D01*
X009745Y013465D01*
X009948Y013465D01*
X009919Y013419D01*
X009877Y013377D01*
X009877Y013367D01*
X009732Y013367D01*
X009650Y013285D01*
X009650Y013226D01*
X009615Y013220D01*
X009542Y013220D01*
X009527Y013205D01*
X009507Y013202D01*
X009465Y013142D01*
X009369Y013047D01*
X009303Y013020D01*
X009214Y012930D01*
X009165Y012813D01*
X009165Y012687D01*
X009214Y012570D01*
X009303Y012480D01*
X009420Y012432D01*
X009547Y012432D01*
X009664Y012480D01*
X009753Y012570D01*
X009801Y012687D01*
X009801Y012733D01*
X010123Y012733D01*
X010156Y012765D01*
X010157Y012762D01*
X010191Y012729D01*
X010232Y012705D01*
X010278Y012693D01*
X010439Y012693D01*
X010439Y013050D01*
X010439Y013050D01*
X010833Y013000D01*
X010757Y013050D02*
X010757Y012849D01*
X010745Y012803D01*
X010721Y012762D01*
X010688Y012729D01*
X010647Y012705D01*
X010601Y012693D01*
X010439Y012693D01*
X010439Y013050D01*
X010757Y013050D01*
X010757Y013150D01*
X010816Y013150D01*
X010866Y013200D01*
X010983Y013317D01*
X010983Y013465D01*
X011083Y013465D01*
X011083Y013232D01*
X010959Y012858D01*
X010933Y012833D01*
X010933Y012782D01*
X010917Y012735D01*
X010933Y012703D01*
X010933Y012282D01*
X010917Y012235D01*
X010933Y012203D01*
X010933Y012167D01*
X010969Y012132D01*
X011083Y011903D01*
X011083Y011867D01*
X011119Y011832D01*
X011141Y011786D01*
X011175Y011775D01*
X011200Y011750D01*
X011251Y011750D01*
X011299Y011734D01*
X011331Y011750D01*
X011758Y011750D01*
X011764Y011745D01*
X011840Y011750D01*
X011916Y011750D01*
X011922Y011755D01*
X011929Y011756D01*
X011979Y011813D01*
X012033Y011867D01*
X012033Y011875D01*
X012329Y012213D01*
X012383Y012267D01*
X012383Y012275D01*
X012388Y012281D01*
X012383Y012357D01*
X012383Y014308D01*
X012609Y014501D01*
X012813Y014505D01*
X012813Y014252D01*
X012863Y014202D01*
X012863Y013309D01*
X012992Y013180D01*
X013003Y013180D01*
X013255Y012865D01*
X013237Y012870D01*
X013083Y012870D01*
X012930Y012870D01*
X012884Y012858D01*
X012843Y012834D01*
X012809Y012801D01*
X012786Y012759D01*
X012773Y012714D01*
X012773Y012290D01*
X012773Y011870D01*
X012542Y011870D01*
X011692Y011020D01*
X011574Y011020D01*
X011453Y011141D01*
X011453Y011391D01*
X011203Y011641D01*
X011074Y011770D01*
X009024Y011770D01*
X008903Y011891D01*
X008903Y016370D01*
X008953Y016420D01*
X009001Y016537D01*
X009001Y016663D01*
X008953Y016780D01*
X008864Y016870D01*
X008747Y016918D01*
X008620Y016918D01*
X008503Y016870D01*
X008414Y016780D01*
X008365Y016663D01*
X008365Y016537D01*
X008414Y016420D01*
X008463Y016370D01*
X008463Y011709D01*
X008592Y011580D01*
X008842Y011330D01*
X009004Y011330D01*
X008994Y011320D01*
X008927Y011159D01*
X008927Y010384D01*
X008994Y010222D01*
X009118Y010098D01*
X009280Y010031D01*
X009455Y010031D01*
X009616Y010098D01*
X009740Y010222D01*
X009807Y010384D01*
X009807Y011159D01*
X009740Y011320D01*
X009731Y011330D01*
X009962Y011330D01*
X009957Y011323D01*
X009922Y011256D01*
X009899Y011184D01*
X009887Y011109D01*
X009887Y010791D01*
X010347Y010791D01*
X010347Y010751D01*
X010387Y010751D01*
X010387Y009991D01*
X010405Y009991D01*
X010480Y010003D01*
X010551Y010026D01*
X010619Y010061D01*
X010680Y010105D01*
X010733Y010159D01*
X010778Y010220D01*
X010812Y010287D01*
X010835Y010359D01*
X010847Y010433D01*
X010847Y010751D01*
X010387Y010751D01*
X010387Y010791D01*
X010847Y010791D01*
X010847Y011109D01*
X010835Y011184D01*
X010812Y011256D01*
X010778Y011323D01*
X010773Y011330D01*
X010892Y011330D01*
X011013Y011209D01*
X011013Y010959D01*
X011142Y010830D01*
X011142Y010830D01*
X011263Y010709D01*
X011263Y010709D01*
X011392Y010580D01*
X011874Y010580D01*
X012003Y010709D01*
X012115Y010821D01*
X012115Y010787D01*
X012164Y010670D01*
X012213Y010620D01*
X012213Y010209D01*
X012463Y009959D01*
X012592Y009830D01*
X014642Y009830D01*
X014657Y009815D01*
X014615Y009713D01*
X014615Y009643D01*
X014340Y009368D01*
X014270Y009368D01*
X014153Y009320D01*
X014064Y009230D01*
X014043Y009180D01*
X014000Y009283D01*
X013888Y009395D01*
X013742Y009455D01*
X013584Y009455D01*
X013438Y009395D01*
X013348Y009305D01*
X013258Y009395D01*
X013112Y009455D01*
X012954Y009455D01*
X012808Y009395D01*
X012745Y009332D01*
X012737Y009343D01*
X012688Y009392D01*
X012633Y009432D01*
X012571Y009463D01*
X012506Y009485D01*
X012438Y009495D01*
X012403Y009495D01*
X012369Y009495D01*
X012301Y009485D01*
X012235Y009463D01*
X012174Y009432D01*
X012118Y009392D01*
X012070Y009343D01*
X012029Y009287D01*
X011998Y009226D01*
X011977Y009160D01*
X011966Y009092D01*
X011966Y009058D01*
X012403Y009058D01*
X012403Y009058D01*
X011966Y009058D01*
X011966Y009023D01*
X011977Y008955D01*
X011998Y008890D01*
X012029Y008829D01*
X012070Y008773D01*
X012118Y008724D01*
X012174Y008684D01*
X012235Y008652D01*
X012301Y008631D01*
X012321Y008628D01*
X012321Y008506D01*
X012381Y008360D01*
X012493Y008248D01*
X012639Y008188D01*
X012797Y008188D01*
X012944Y008248D01*
X013033Y008338D01*
X013123Y008248D01*
X013269Y008188D01*
X013427Y008188D01*
X013573Y008248D01*
X013685Y008360D01*
X013746Y008506D01*
X013746Y008662D01*
X013888Y008721D01*
X014000Y008833D01*
X014040Y008928D01*
X014064Y008870D01*
X014153Y008780D01*
X014270Y008732D01*
X014397Y008732D01*
X014514Y008780D01*
X014603Y008870D01*
X014651Y008987D01*
X015063Y008987D01*
X015063Y008829D02*
X014562Y008829D01*
X014651Y008987D02*
X014651Y009057D01*
X014926Y009332D01*
X014997Y009332D01*
X015063Y009360D01*
X015063Y007509D01*
X015192Y007380D01*
X015349Y007224D01*
X015718Y007224D01*
X015718Y007169D01*
X015800Y007087D01*
X016467Y007087D01*
X016549Y007169D01*
X016549Y007718D01*
X016487Y007780D01*
X016683Y007780D01*
X016683Y006400D01*
X016614Y006330D01*
X016565Y006213D01*
X016565Y006087D01*
X016614Y005970D01*
X016703Y005880D01*
X016776Y005850D01*
X016672Y005850D01*
X016333Y006227D01*
X016333Y006300D01*
X016467Y006300D01*
X016549Y006382D01*
X016549Y006931D01*
X016467Y007013D01*
X015800Y007013D01*
X015718Y006931D01*
X015718Y006382D01*
X015800Y006300D01*
X015933Y006300D01*
X015933Y006155D01*
X015929Y006078D01*
X015933Y006073D01*
X015933Y006067D01*
X015988Y006012D01*
X016332Y005630D01*
X007070Y005630D01*
X007068Y005632D01*
X006996Y005630D01*
X006991Y005630D01*
X006806Y005636D01*
X006441Y005722D01*
X006110Y005900D01*
X006029Y005976D02*
X016021Y005976D01*
X015932Y006134D02*
X005861Y006134D01*
X005753Y006293D02*
X006119Y006293D01*
X006080Y006331D02*
X006164Y006247D01*
X006274Y006202D01*
X006393Y006202D01*
X006502Y006247D01*
X006586Y006331D01*
X006632Y006441D01*
X006632Y006559D01*
X006613Y006605D01*
X006698Y006570D01*
X006969Y006570D01*
X007219Y006674D01*
X007410Y006865D01*
X007513Y007115D01*
X007513Y007385D01*
X007410Y007635D01*
X007265Y007780D01*
X007424Y007780D01*
X007553Y007909D01*
X007553Y008091D01*
X007424Y008220D01*
X007053Y008220D01*
X007053Y008591D01*
X006924Y008720D01*
X006242Y008720D01*
X006113Y008591D01*
X006113Y007909D01*
X006242Y007780D01*
X006402Y007780D01*
X006257Y007635D01*
X006153Y007385D01*
X006153Y007115D01*
X006257Y006865D01*
X006323Y006798D01*
X006318Y006798D01*
X006033Y007083D01*
X006033Y011409D01*
X006638Y011933D01*
X006680Y011831D01*
X006764Y011747D01*
X006874Y011702D01*
X006993Y011702D01*
X007102Y011747D01*
X007186Y011831D01*
X007232Y011941D01*
X007232Y012059D01*
X007186Y012169D01*
X007102Y012253D01*
X006993Y012298D01*
X006918Y012298D01*
X006866Y012350D01*
X006590Y012350D01*
X006515Y012355D01*
X006509Y012350D01*
X006500Y012350D01*
X006447Y012296D01*
X005759Y011700D01*
X005750Y011700D01*
X005697Y011646D01*
X005640Y011597D01*
X005639Y011589D01*
X005633Y011583D01*
X005633Y011507D01*
X005628Y011432D01*
X005633Y011425D01*
X005633Y006917D01*
X005750Y006800D01*
X005750Y006800D01*
X006035Y006516D01*
X006035Y006441D01*
X006080Y006331D01*
X006035Y006451D02*
X005654Y006451D01*
X005599Y006610D02*
X005941Y006610D01*
X005782Y006768D02*
X005551Y006768D01*
X005522Y006927D02*
X005633Y006927D01*
X005633Y007085D02*
X005513Y007085D01*
X005513Y007244D02*
X005633Y007244D01*
X005633Y007402D02*
X005513Y007402D01*
X005513Y007561D02*
X005633Y007561D01*
X005633Y007719D02*
X005513Y007719D01*
X005513Y007878D02*
X005633Y007878D01*
X005633Y008036D02*
X005513Y008036D01*
X005513Y008195D02*
X005633Y008195D01*
X005633Y008353D02*
X005513Y008353D01*
X005513Y008512D02*
X005633Y008512D01*
X005633Y008670D02*
X005513Y008670D01*
X005513Y008829D02*
X005633Y008829D01*
X005633Y008987D02*
X005513Y008987D01*
X005513Y009146D02*
X005633Y009146D01*
X005633Y009304D02*
X005513Y009304D01*
X005513Y009463D02*
X005633Y009463D01*
X005633Y009621D02*
X005513Y009621D01*
X005513Y009780D02*
X005633Y009780D01*
X005633Y009938D02*
X005513Y009938D01*
X005513Y010097D02*
X005633Y010097D01*
X005633Y010255D02*
X005513Y010255D01*
X005513Y010414D02*
X005633Y010414D01*
X005633Y010572D02*
X005513Y010572D01*
X005513Y010731D02*
X005633Y010731D01*
X005633Y010889D02*
X005513Y010889D01*
X005513Y011048D02*
X005633Y011048D01*
X005633Y011206D02*
X005513Y011206D01*
X005513Y011365D02*
X005633Y011365D01*
X005633Y011523D02*
X005513Y011523D01*
X005513Y011682D02*
X005732Y011682D01*
X005920Y011840D02*
X005513Y011840D01*
X005513Y011999D02*
X006103Y011999D01*
X006286Y012157D02*
X005513Y012157D01*
X005513Y012316D02*
X006466Y012316D01*
X006901Y012316D02*
X008463Y012316D01*
X008463Y012474D02*
X005513Y012474D01*
X005513Y012633D02*
X008463Y012633D01*
X008463Y012791D02*
X005513Y012791D01*
X005513Y012950D02*
X008463Y012950D01*
X008463Y013108D02*
X005513Y013108D01*
X005513Y013267D02*
X008463Y013267D01*
X008463Y013425D02*
X005513Y013425D01*
X005513Y013584D02*
X008463Y013584D01*
X008463Y013742D02*
X005513Y013742D01*
X005513Y013901D02*
X008463Y013901D01*
X008463Y014059D02*
X005513Y014059D01*
X005513Y014218D02*
X008463Y014218D01*
X008463Y014376D02*
X005513Y014376D01*
X005513Y014535D02*
X008463Y014535D01*
X008463Y014693D02*
X005513Y014693D01*
X005513Y014852D02*
X008463Y014852D01*
X008463Y015010D02*
X007531Y015010D01*
X007595Y015169D02*
X008463Y015169D01*
X008463Y015327D02*
X007595Y015327D01*
X007536Y015486D02*
X008463Y015486D01*
X008463Y015644D02*
X007595Y015644D01*
X007595Y015803D02*
X008463Y015803D01*
X008463Y015961D02*
X007560Y015961D01*
X007595Y016120D02*
X008463Y016120D01*
X008463Y016278D02*
X007595Y016278D01*
X007585Y016437D02*
X008407Y016437D01*
X008365Y016595D02*
X007595Y016595D01*
X007595Y016754D02*
X008403Y016754D01*
X008605Y016912D02*
X007595Y016912D01*
X007625Y017071D02*
X009713Y017071D01*
X009713Y017229D02*
X007635Y017229D01*
X007635Y017250D02*
X007022Y017250D01*
X007022Y017250D01*
X008533Y017250D01*
X009033Y016750D01*
X009033Y013700D01*
X009133Y013600D01*
X009083Y012050D01*
X008903Y011999D02*
X011035Y011999D01*
X011110Y011840D02*
X008954Y011840D01*
X008683Y011800D02*
X008933Y011550D01*
X010983Y011550D01*
X011233Y011300D01*
X011233Y011050D01*
X011483Y010800D01*
X011783Y010800D01*
X012633Y011650D01*
X013433Y011650D01*
X013583Y011800D01*
X013583Y012290D01*
X014033Y012240D02*
X014083Y012290D01*
X013483Y012900D02*
X015433Y012950D01*
X015583Y012800D01*
X015583Y012290D01*
X015083Y012290D02*
X015083Y011450D01*
X015183Y011350D01*
X015683Y011350D01*
X016183Y010850D01*
X016233Y010950D01*
X016104Y011241D02*
X015903Y011441D01*
X015774Y011570D01*
X015303Y011570D01*
X015303Y011782D01*
X015333Y011812D01*
X015395Y011750D01*
X015771Y011750D01*
X015833Y011812D01*
X015895Y011750D01*
X016077Y011750D01*
X016715Y011246D01*
X016715Y011187D01*
X016764Y011070D01*
X016853Y010980D01*
X016970Y010932D01*
X017097Y010932D01*
X017214Y010980D01*
X017303Y011070D01*
X017351Y011187D01*
X017351Y011199D01*
X018633Y009917D01*
X018633Y009433D01*
X018583Y009383D01*
X018133Y008933D01*
X018133Y007765D01*
X017980Y007765D01*
X017898Y007683D01*
X017898Y006799D01*
X017980Y006717D01*
X017996Y006717D01*
X017969Y006710D01*
X017928Y006687D01*
X017894Y006653D01*
X017870Y006612D01*
X017858Y006566D01*
X017858Y006226D01*
X018266Y006226D01*
X018266Y006091D01*
X017858Y006091D01*
X017858Y005850D01*
X016990Y005850D01*
X017064Y005880D01*
X017153Y005970D01*
X017201Y006087D01*
X017201Y006213D01*
X017153Y006330D01*
X017083Y006400D01*
X017083Y007889D01*
X017103Y007909D01*
X017103Y008091D01*
X016974Y008220D01*
X016224Y008220D01*
X016053Y008391D01*
X016053Y008809D01*
X016403Y009159D01*
X016403Y009820D01*
X016453Y009870D01*
X016480Y009935D01*
X017393Y009021D01*
X017393Y008134D01*
X017329Y008070D01*
X017283Y007960D01*
X017283Y007840D01*
X017329Y007730D01*
X017413Y007646D01*
X017524Y007600D01*
X017643Y007600D01*
X017753Y007646D01*
X017838Y007730D01*
X017883Y007840D01*
X017883Y007960D01*
X017838Y008070D01*
X017773Y008134D01*
X017773Y009179D01*
X017662Y009290D01*
X016313Y010639D01*
X016414Y010680D01*
X016503Y010770D01*
X016551Y010887D01*
X016551Y011013D01*
X016503Y011130D01*
X016414Y011220D01*
X016297Y011268D01*
X016170Y011268D01*
X016104Y011241D01*
X015980Y011365D02*
X016566Y011365D01*
X016427Y011206D02*
X016715Y011206D01*
X016786Y011048D02*
X016537Y011048D01*
X016551Y010889D02*
X017661Y010889D01*
X017503Y011048D02*
X017281Y011048D01*
X017820Y010731D02*
X016464Y010731D01*
X016380Y010572D02*
X017978Y010572D01*
X018137Y010414D02*
X016539Y010414D01*
X016697Y010255D02*
X018295Y010255D01*
X018454Y010097D02*
X016856Y010097D01*
X017014Y009938D02*
X018612Y009938D01*
X018633Y009780D02*
X017173Y009780D01*
X017331Y009621D02*
X018633Y009621D01*
X018633Y009463D02*
X017490Y009463D01*
X017648Y009304D02*
X018504Y009304D01*
X018346Y009146D02*
X017773Y009146D01*
X017773Y008987D02*
X018187Y008987D01*
X018133Y008829D02*
X017773Y008829D01*
X017773Y008670D02*
X018133Y008670D01*
X018133Y008512D02*
X017773Y008512D01*
X017773Y008353D02*
X018133Y008353D01*
X018133Y008195D02*
X017773Y008195D01*
X017852Y008036D02*
X018133Y008036D01*
X018133Y007878D02*
X017883Y007878D01*
X017934Y007719D02*
X017827Y007719D01*
X017898Y007561D02*
X017083Y007561D01*
X017083Y007719D02*
X017340Y007719D01*
X017283Y007878D02*
X017083Y007878D01*
X017103Y008036D02*
X017315Y008036D01*
X017393Y008195D02*
X017000Y008195D01*
X016883Y008000D02*
X016133Y008000D01*
X015833Y008300D01*
X015833Y008900D01*
X016183Y009250D01*
X016183Y010050D01*
X016403Y009780D02*
X016635Y009780D01*
X016794Y009621D02*
X016403Y009621D01*
X016403Y009463D02*
X016952Y009463D01*
X017111Y009304D02*
X016403Y009304D01*
X016390Y009146D02*
X017269Y009146D01*
X017393Y008987D02*
X016231Y008987D01*
X016073Y008829D02*
X017393Y008829D01*
X017393Y008670D02*
X016053Y008670D01*
X016053Y008512D02*
X017393Y008512D01*
X017393Y008353D02*
X016091Y008353D01*
X016548Y007719D02*
X016683Y007719D01*
X016683Y007561D02*
X016549Y007561D01*
X016549Y007402D02*
X016683Y007402D01*
X016683Y007244D02*
X016549Y007244D01*
X016683Y007085D02*
X015171Y007085D01*
X015171Y007189D02*
X015171Y006911D01*
X015065Y006653D01*
X014867Y006456D01*
X014610Y006349D01*
X014331Y006349D01*
X014073Y006456D01*
X013876Y006653D01*
X013769Y006911D01*
X013769Y007189D01*
X013876Y007447D01*
X014073Y007644D01*
X014331Y007751D01*
X014610Y007751D01*
X014867Y007644D01*
X015065Y007447D01*
X015171Y007189D01*
X015149Y007244D02*
X015329Y007244D01*
X015170Y007402D02*
X015083Y007402D01*
X015063Y007561D02*
X014951Y007561D01*
X015063Y007719D02*
X014687Y007719D01*
X015063Y007878D02*
X007522Y007878D01*
X007553Y008036D02*
X015063Y008036D01*
X015063Y008195D02*
X013443Y008195D01*
X013253Y008195D02*
X012813Y008195D01*
X012623Y008195D02*
X007450Y008195D01*
X007333Y008000D02*
X006833Y008000D01*
X006833Y008500D01*
X006333Y008500D01*
X006333Y008000D01*
X006113Y008036D02*
X006033Y008036D01*
X006033Y007878D02*
X006145Y007878D01*
X006033Y007719D02*
X006341Y007719D01*
X006226Y007561D02*
X006033Y007561D01*
X006033Y007402D02*
X006160Y007402D01*
X006153Y007244D02*
X006033Y007244D01*
X006033Y007085D02*
X006166Y007085D01*
X006190Y006927D02*
X006231Y006927D01*
X006632Y006451D02*
X011211Y006451D01*
X011199Y006456D02*
X011457Y006349D01*
X011736Y006349D01*
X011993Y006456D01*
X012191Y006653D01*
X012297Y006911D01*
X012297Y007189D01*
X012191Y007447D01*
X011993Y007644D01*
X011736Y007751D01*
X011457Y007751D01*
X011199Y007644D01*
X011002Y007447D01*
X010895Y007189D01*
X010895Y006911D01*
X011002Y006653D01*
X011199Y006456D01*
X011045Y006610D02*
X007064Y006610D01*
X007313Y006768D02*
X010954Y006768D01*
X010895Y006927D02*
X007435Y006927D01*
X007501Y007085D02*
X010895Y007085D01*
X010918Y007244D02*
X007513Y007244D01*
X007506Y007402D02*
X010983Y007402D01*
X011115Y007561D02*
X007441Y007561D01*
X007326Y007719D02*
X011380Y007719D01*
X011813Y007719D02*
X014254Y007719D01*
X013989Y007561D02*
X012077Y007561D01*
X012209Y007402D02*
X013857Y007402D01*
X013792Y007244D02*
X012275Y007244D01*
X012297Y007085D02*
X013769Y007085D01*
X013769Y006927D02*
X012297Y006927D01*
X012238Y006768D02*
X013828Y006768D01*
X013919Y006610D02*
X012147Y006610D01*
X011982Y006451D02*
X014085Y006451D01*
X014856Y006451D02*
X015718Y006451D01*
X015718Y006610D02*
X015021Y006610D01*
X015112Y006768D02*
X015718Y006768D01*
X015718Y006927D02*
X015171Y006927D01*
X015440Y007444D02*
X015283Y007600D01*
X015283Y010150D01*
X014933Y010500D01*
X013233Y010500D01*
X012933Y010800D01*
X012933Y011200D01*
X013183Y011400D01*
X012512Y011840D02*
X012006Y011840D01*
X012142Y011999D02*
X012773Y011999D01*
X012733Y012150D02*
X012833Y012150D01*
X012733Y012250D01*
X012583Y012550D01*
X012773Y012474D02*
X012383Y012474D01*
X012383Y012633D02*
X012773Y012633D01*
X012804Y012791D02*
X012383Y012791D01*
X012383Y012950D02*
X013188Y012950D01*
X013083Y012870D02*
X013083Y012290D01*
X012773Y012290D01*
X013083Y012290D01*
X013083Y012290D01*
X013083Y012870D01*
X013083Y012791D02*
X013083Y012791D01*
X013083Y012633D02*
X013083Y012633D01*
X013083Y012474D02*
X013083Y012474D01*
X013083Y012316D02*
X013083Y012316D01*
X013083Y012290D02*
X013083Y012290D01*
X012943Y012150D01*
X012833Y012150D01*
X012773Y012157D02*
X012280Y012157D01*
X012386Y012316D02*
X012773Y012316D01*
X012733Y012150D02*
X011783Y011200D01*
X011633Y011200D01*
X011547Y011048D02*
X011720Y011048D01*
X011878Y011206D02*
X011453Y011206D01*
X011453Y011365D02*
X012037Y011365D01*
X012195Y011523D02*
X011321Y011523D01*
X011163Y011682D02*
X012354Y011682D01*
X011533Y012250D02*
X011533Y014600D01*
X012333Y015400D01*
X017033Y015400D01*
X017252Y015169D02*
X017433Y015169D01*
X017303Y015220D02*
X017214Y015130D01*
X017097Y015082D01*
X016970Y015082D01*
X016853Y015130D01*
X016853Y014252D01*
X016771Y014170D01*
X016395Y014170D01*
X016333Y014232D01*
X016271Y014170D01*
X015895Y014170D01*
X015860Y014205D01*
X015857Y014199D01*
X015824Y014166D01*
X015783Y014142D01*
X015737Y014130D01*
X015583Y014130D01*
X015583Y014710D01*
X015583Y014710D01*
X015583Y014130D01*
X015430Y014130D01*
X015384Y014142D01*
X015343Y014166D01*
X015309Y014199D01*
X015306Y014205D01*
X015271Y014170D01*
X014895Y014170D01*
X014833Y014232D01*
X014771Y014170D01*
X014395Y014170D01*
X014360Y014205D01*
X014357Y014199D01*
X014324Y014166D01*
X014283Y014142D01*
X014237Y014130D01*
X014203Y014130D01*
X014246Y014026D01*
X014442Y013936D01*
X014520Y013968D01*
X014647Y013968D01*
X014764Y013920D01*
X014853Y013830D01*
X014901Y013713D01*
X014901Y013587D01*
X014853Y013470D01*
X016380Y013470D01*
X016468Y013473D01*
X016471Y013470D01*
X016474Y013470D01*
X016537Y013408D01*
X017371Y012620D01*
X017374Y012620D01*
X017437Y012558D01*
X017501Y012497D01*
X017501Y012494D01*
X017503Y012491D01*
X017503Y012403D01*
X017506Y012315D01*
X017503Y012313D01*
X017503Y012291D01*
X018484Y011310D01*
X017823Y012049D01*
X017763Y012109D01*
X017763Y012116D01*
X017759Y012121D01*
X017763Y012206D01*
X017763Y014310D01*
X017697Y014282D01*
X017570Y014282D01*
X017453Y014330D01*
X017364Y014420D01*
X017315Y014537D01*
X017315Y014663D01*
X017364Y014780D01*
X017433Y014850D01*
X017433Y015367D01*
X017351Y015449D01*
X017351Y015337D01*
X017303Y015220D01*
X017347Y015327D02*
X017433Y015327D01*
X017433Y015010D02*
X016853Y015010D01*
X016853Y014852D02*
X017433Y014852D01*
X017328Y014693D02*
X016853Y014693D01*
X016853Y014535D02*
X017316Y014535D01*
X017407Y014376D02*
X016853Y014376D01*
X016819Y014218D02*
X017763Y014218D01*
X017763Y014059D02*
X014232Y014059D01*
X014083Y014232D02*
X014083Y014232D01*
X014083Y014710D01*
X014083Y014710D01*
X014083Y014232D01*
X014083Y014376D02*
X014083Y014376D01*
X014083Y014535D02*
X014083Y014535D01*
X014083Y014693D02*
X014083Y014693D01*
X013583Y014710D02*
X013583Y013750D01*
X013783Y013250D01*
X016383Y013250D01*
X017283Y012400D01*
X017283Y012200D01*
X018833Y010650D01*
X018833Y011250D02*
X017983Y012200D01*
X017983Y015550D01*
X017633Y015900D01*
X017633Y016400D01*
X016983Y017250D01*
X017650Y016740D02*
X017670Y016732D01*
X017797Y016732D01*
X017914Y016780D01*
X018003Y016870D01*
X018051Y016987D01*
X018051Y017113D01*
X018003Y017230D01*
X017933Y017300D01*
X017933Y017750D01*
X018003Y017820D01*
X018051Y017937D01*
X018051Y018063D01*
X018024Y018130D01*
X018093Y018130D01*
X018065Y018063D01*
X018065Y017937D01*
X018114Y017820D01*
X018183Y017750D01*
X018183Y017300D01*
X018114Y017230D01*
X018065Y017113D01*
X018065Y016987D01*
X018114Y016870D01*
X018203Y016780D01*
X018320Y016732D01*
X018447Y016732D01*
X018564Y016780D01*
X018653Y016870D01*
X018701Y016987D01*
X018701Y017113D01*
X018653Y017230D01*
X018583Y017300D01*
X018583Y017750D01*
X018653Y017820D01*
X018701Y017937D01*
X018701Y018063D01*
X018674Y018130D01*
X018747Y018130D01*
X019363Y016898D01*
X019363Y016859D01*
X019403Y016820D01*
X019427Y016770D01*
X019464Y016758D01*
X020024Y016198D01*
X020081Y016135D01*
X020088Y016135D01*
X020092Y016130D01*
X020178Y016130D01*
X021069Y016085D01*
X021113Y016027D01*
X021113Y015655D01*
X021103Y015680D01*
X021014Y015770D01*
X020897Y015818D01*
X020770Y015818D01*
X020653Y015770D01*
X020564Y015680D01*
X020515Y015563D01*
X020515Y015437D01*
X020564Y015320D01*
X020618Y015266D01*
X020626Y014858D01*
X020614Y014870D01*
X020497Y014918D01*
X020370Y014918D01*
X020253Y014870D01*
X020164Y014780D01*
X020115Y014663D01*
X020115Y014593D01*
X019440Y013918D01*
X019370Y013918D01*
X019253Y013870D01*
X019164Y013780D01*
X019115Y013663D01*
X019115Y013537D01*
X019164Y013420D01*
X019253Y013330D01*
X019370Y013282D01*
X019497Y013282D01*
X019614Y013330D01*
X019703Y013420D01*
X019751Y013537D01*
X019751Y013607D01*
X020426Y014282D01*
X020497Y014282D01*
X020614Y014330D01*
X020635Y014352D01*
X020657Y013239D01*
X020483Y013066D01*
X020483Y012734D01*
X020718Y012500D01*
X021049Y012500D01*
X021283Y012734D01*
X021283Y013066D01*
X021097Y013252D01*
X021058Y015275D01*
X021103Y015320D01*
X021113Y015345D01*
X021113Y013827D01*
X021105Y013816D01*
X021113Y013738D01*
X021113Y013659D01*
X021123Y013649D01*
X021125Y013635D01*
X021186Y013586D01*
X021242Y013530D01*
X021256Y013530D01*
X021436Y013386D01*
X021492Y013330D01*
X021506Y013330D01*
X021517Y013321D01*
X021596Y013330D01*
X022242Y013330D01*
X022413Y013159D01*
X022413Y009580D01*
X022364Y009530D01*
X022315Y009413D01*
X022315Y009287D01*
X022364Y009170D01*
X022453Y009080D01*
X022570Y009032D01*
X022697Y009032D01*
X022814Y009080D01*
X022903Y009170D01*
X022951Y009287D01*
X022951Y009413D01*
X022903Y009530D01*
X022853Y009580D01*
X022853Y013341D01*
X022553Y013641D01*
X022424Y013770D01*
X021661Y013770D01*
X021553Y013856D01*
X021553Y015560D01*
X021620Y015532D01*
X021747Y015532D01*
X021864Y015580D01*
X021953Y015670D01*
X022001Y015787D01*
X022001Y015842D01*
X022823Y016589D01*
X023062Y016350D01*
X022773Y016061D01*
X022773Y015639D01*
X023072Y015340D01*
X023299Y015340D01*
X023383Y015231D01*
X023383Y015217D01*
X023433Y015167D01*
X023476Y015112D01*
X023490Y015110D01*
X023500Y015100D01*
X023571Y015100D01*
X023641Y015091D01*
X023652Y015100D01*
X024511Y015100D01*
X024571Y015087D01*
X024592Y015100D01*
X024616Y015100D01*
X024659Y015143D01*
X025137Y015447D01*
X025156Y015446D01*
X025205Y015490D01*
X025261Y015526D01*
X025265Y015544D01*
X025279Y015557D01*
X025282Y015623D01*
X025297Y015687D01*
X025286Y015703D01*
X025320Y016337D01*
X025331Y016348D01*
X025324Y016296D01*
X025333Y016283D01*
X025333Y016267D01*
X025382Y016219D01*
X025509Y016049D01*
X025532Y015995D01*
X025557Y015985D01*
X025573Y015964D01*
X025631Y015955D01*
X025693Y015931D01*
X025693Y015762D01*
X025760Y015601D01*
X025884Y015477D01*
X026046Y015410D01*
X026821Y015410D01*
X026983Y015477D01*
X027106Y015601D01*
X027173Y015762D01*
X027173Y015938D01*
X027106Y016099D01*
X026983Y016223D01*
X026821Y016290D01*
X026046Y016290D01*
X025960Y016255D01*
X025810Y016315D01*
X025733Y016417D01*
X025733Y016666D01*
X025760Y016601D01*
X025884Y016477D01*
X026046Y016410D01*
X026821Y016410D01*
X026983Y016477D01*
X027106Y016601D01*
X027173Y016762D01*
X027173Y016938D01*
X027168Y016951D01*
X027200Y016983D01*
X027242Y017003D01*
X027256Y017040D01*
X027383Y017167D01*
X027383Y018397D01*
X027386Y018476D01*
X027383Y018479D01*
X027383Y018483D01*
X027327Y018539D01*
X026683Y019229D01*
X026683Y019233D01*
X026627Y019289D01*
X026611Y019306D01*
X027973Y019301D01*
X027973Y006416D01*
X027964Y006293D01*
X027888Y006059D01*
X027743Y005860D01*
X027544Y005716D01*
X027310Y005640D01*
X027187Y005630D01*
X022655Y005630D01*
X023042Y006276D01*
X023083Y006317D01*
X023083Y006345D01*
X023097Y006368D01*
X023083Y006425D01*
X023083Y007268D01*
X023114Y007280D01*
X023203Y007370D01*
X023251Y007487D01*
X023251Y007613D01*
X023203Y007730D01*
X023114Y007820D01*
X022997Y007868D01*
X022901Y007868D01*
X022901Y007963D01*
X022853Y008080D01*
X022764Y008170D01*
X022647Y008218D01*
X022520Y008218D01*
X022403Y008170D01*
X022314Y008080D01*
X022265Y007963D01*
X022265Y007837D01*
X022313Y007721D01*
X022309Y007708D01*
X022283Y007683D01*
X022283Y007632D01*
X022267Y007585D01*
X022283Y007553D01*
X022283Y007511D01*
X022271Y007492D01*
X022283Y007430D01*
X022283Y007367D01*
X022299Y007351D01*
X022303Y007330D01*
X022356Y007295D01*
X022400Y007250D01*
X022423Y007250D01*
X022433Y007243D01*
X022433Y006519D01*
X022186Y006200D01*
X020433Y006200D01*
X020364Y006270D01*
X020247Y006318D01*
X020120Y006318D01*
X020003Y006270D01*
X019914Y006180D01*
X019865Y006063D01*
X019865Y005937D01*
X019901Y005850D01*
X018809Y005850D01*
X018809Y006091D01*
X018401Y006091D01*
X018401Y006226D01*
X018809Y006226D01*
X018809Y006566D01*
X018796Y006612D01*
X018773Y006653D01*
X018739Y006687D01*
X018698Y006710D01*
X018671Y006717D01*
X018687Y006717D01*
X018769Y006799D01*
X018769Y007683D01*
X018687Y007765D01*
X018533Y007765D01*
X018533Y008767D01*
X018866Y009100D01*
X019083Y009100D01*
X019064Y009080D01*
X019015Y008963D01*
X019015Y008837D01*
X019064Y008720D01*
X019153Y008630D01*
X019270Y008582D01*
X019393Y008582D01*
X019393Y008478D01*
X019761Y008478D01*
X019761Y008422D01*
X019393Y008422D01*
X019393Y008151D01*
X019405Y008105D01*
X019429Y008064D01*
X019463Y008030D01*
X019504Y008007D01*
X019549Y007994D01*
X019761Y007994D01*
X019761Y008422D01*
X019818Y008422D01*
X019818Y008478D01*
X020186Y008478D01*
X020186Y008749D01*
X020174Y008795D01*
X020150Y008836D01*
X020117Y008870D01*
X020076Y008893D01*
X020030Y008906D01*
X019818Y008906D01*
X019818Y008478D01*
X019761Y008478D01*
X019761Y008906D01*
X019651Y008906D01*
X019651Y008963D01*
X019624Y009030D01*
X019625Y009030D01*
X019693Y008962D01*
X020011Y008962D01*
X020015Y008958D01*
X020056Y008934D01*
X020101Y008922D01*
X020233Y008922D01*
X020233Y009338D01*
X020233Y009338D01*
X020233Y008922D01*
X020365Y008922D01*
X020411Y008934D01*
X020452Y008958D01*
X020456Y008962D01*
X020774Y008962D01*
X020825Y009013D01*
X020864Y008920D01*
X020872Y008912D01*
X020857Y008860D01*
X020852Y008866D01*
X020303Y008866D01*
X020220Y008784D01*
X020220Y008116D01*
X020303Y008034D01*
X020852Y008034D01*
X020934Y008116D01*
X020934Y008367D01*
X021155Y008589D01*
X021203Y008615D01*
X021211Y008645D01*
X021233Y008667D01*
X021233Y008722D01*
X021258Y008807D01*
X021314Y008830D01*
X021403Y008920D01*
X021451Y009037D01*
X021451Y009163D01*
X021403Y009280D01*
X021314Y009370D01*
X021197Y009418D01*
X021163Y009418D01*
X021174Y009430D01*
X021303Y009559D01*
X021303Y010641D01*
X020653Y011291D01*
X020653Y011833D01*
X020667Y011854D01*
X020665Y011866D01*
X020783Y011984D01*
X020783Y012316D01*
X020549Y012550D01*
X020218Y012550D01*
X019983Y012316D01*
X019983Y011984D01*
X020213Y011754D01*
X020213Y011253D01*
X020083Y011383D01*
X019966Y011500D01*
X019881Y011500D01*
X019551Y011665D01*
X019503Y011780D01*
X019414Y011870D01*
X019297Y011918D01*
X019170Y011918D01*
X019053Y011870D01*
X018964Y011780D01*
X018915Y011663D01*
X018915Y011537D01*
X018952Y011447D01*
X018203Y012284D01*
X018203Y015641D01*
X017853Y015991D01*
X017853Y016385D01*
X017863Y016461D01*
X017853Y016474D01*
X017853Y016491D01*
X017799Y016545D01*
X017650Y016740D01*
X017761Y016595D02*
X019627Y016595D01*
X019469Y016754D02*
X018499Y016754D01*
X018268Y016754D02*
X017849Y016754D01*
X018020Y016912D02*
X018096Y016912D01*
X018065Y017071D02*
X018051Y017071D01*
X018004Y017229D02*
X018113Y017229D01*
X018183Y017388D02*
X017933Y017388D01*
X017933Y017546D02*
X018183Y017546D01*
X018183Y017705D02*
X017933Y017705D01*
X018021Y017863D02*
X018096Y017863D01*
X018065Y018022D02*
X018051Y018022D01*
X018583Y017705D02*
X018960Y017705D01*
X018881Y017863D02*
X018671Y017863D01*
X018701Y018022D02*
X018802Y018022D01*
X018883Y018350D02*
X016833Y018350D01*
X015583Y016550D01*
X013883Y016550D01*
X014081Y016912D02*
X015567Y016912D01*
X015677Y017071D02*
X014228Y017071D01*
X014376Y017229D02*
X015787Y017229D01*
X015897Y017388D02*
X014523Y017388D01*
X014671Y017546D02*
X016007Y017546D01*
X016117Y017705D02*
X014818Y017705D01*
X014965Y017863D02*
X016227Y017863D01*
X016337Y018022D02*
X015023Y018022D01*
X015023Y018180D02*
X015409Y018180D01*
X015365Y018339D02*
X015023Y018339D01*
X015023Y018497D02*
X015400Y018497D01*
X015590Y018656D02*
X015023Y018656D01*
X015023Y018814D02*
X016986Y018814D01*
X017216Y019150D02*
X017116Y019250D01*
X016266Y019250D01*
X015733Y019783D01*
X015733Y020050D01*
X015803Y019980D01*
X015920Y019932D01*
X016047Y019932D01*
X016164Y019980D01*
X016233Y020050D01*
X016800Y020050D01*
X017233Y019617D01*
X017350Y019500D01*
X019050Y019500D01*
X019333Y019217D01*
X019333Y019047D01*
X019317Y019015D01*
X019326Y018990D01*
X019266Y019050D01*
X018466Y019050D01*
X018366Y019150D01*
X017216Y019150D01*
X017244Y019607D02*
X015910Y019607D01*
X015751Y019765D02*
X017085Y019765D01*
X016927Y019924D02*
X015733Y019924D01*
X015333Y019924D02*
X015023Y019924D01*
X015023Y020082D02*
X015333Y020082D01*
X015333Y020241D02*
X015023Y020241D01*
X015023Y020399D02*
X015333Y020399D01*
X015333Y020558D02*
X015023Y020558D01*
X015023Y020716D02*
X015333Y020716D01*
X015333Y020875D02*
X015023Y020875D01*
X014982Y021033D02*
X015333Y021033D01*
X015234Y021192D02*
X014916Y021192D01*
X014851Y021350D02*
X015215Y021350D01*
X015292Y021509D02*
X014786Y021509D01*
X014976Y021667D02*
X017333Y021667D01*
X017333Y021509D02*
X015775Y021509D01*
X015851Y021350D02*
X017333Y021350D01*
X017333Y021192D02*
X015833Y021192D01*
X015733Y021033D02*
X017333Y021033D01*
X017261Y020875D02*
X016992Y020875D01*
X017150Y020716D02*
X017215Y020716D01*
X017484Y020382D02*
X017597Y020382D01*
X017714Y020430D01*
X017803Y020520D01*
X017835Y020598D01*
X017903Y020530D01*
X018020Y020482D01*
X018147Y020482D01*
X018264Y020530D01*
X018353Y020620D01*
X018401Y020737D01*
X018401Y020863D01*
X018353Y020980D01*
X018287Y021046D01*
X018332Y023966D01*
X018333Y023967D01*
X018333Y024048D01*
X018335Y024130D01*
X018333Y024131D01*
X018333Y024133D01*
X018276Y024190D01*
X018219Y024249D01*
X018217Y024249D01*
X017283Y025183D01*
X017283Y025443D01*
X017314Y025370D01*
X017403Y025280D01*
X017520Y025232D01*
X017647Y025232D01*
X017764Y025280D01*
X017853Y025370D01*
X017901Y025487D01*
X017901Y025607D01*
X017974Y025680D01*
X018448Y025680D01*
X018460Y025651D01*
X018584Y025527D01*
X018746Y025460D01*
X019521Y025460D01*
X019683Y025527D01*
X019783Y025628D01*
X019783Y023097D01*
X019705Y022941D01*
X019653Y022920D01*
X019564Y022830D01*
X019515Y022713D01*
X019515Y022587D01*
X019564Y022470D01*
X019653Y022380D01*
X019770Y022332D01*
X019897Y022332D01*
X020014Y022380D01*
X020103Y022470D01*
X020107Y022479D01*
X020220Y022432D01*
X020347Y022432D01*
X020464Y022480D01*
X020553Y022570D01*
X020601Y022687D01*
X020601Y022813D01*
X020553Y022930D01*
X020483Y023000D01*
X020483Y027330D01*
X020491Y027340D01*
X020483Y027411D01*
X020483Y027483D01*
X020474Y027492D01*
X020473Y027504D01*
X020417Y027549D01*
X020366Y027600D01*
X020353Y027600D01*
X020186Y027734D01*
X020184Y027737D01*
X020447Y027737D01*
X020631Y027813D01*
X020673Y019350D01*
X019983Y019350D01*
X019983Y019583D01*
X019866Y019700D01*
X019366Y020200D01*
X017666Y020200D01*
X017484Y020382D01*
X017638Y020399D02*
X020668Y020399D01*
X020669Y020241D02*
X017626Y020241D01*
X017819Y020558D02*
X017876Y020558D01*
X018291Y020558D02*
X020667Y020558D01*
X020667Y020716D02*
X018393Y020716D01*
X018397Y020875D02*
X020666Y020875D01*
X020665Y021033D02*
X018300Y021033D01*
X018289Y021192D02*
X020664Y021192D01*
X020663Y021350D02*
X018292Y021350D01*
X018294Y021509D02*
X020663Y021509D01*
X020662Y021667D02*
X018297Y021667D01*
X018299Y021826D02*
X020661Y021826D01*
X020660Y021984D02*
X018302Y021984D01*
X018304Y022143D02*
X020660Y022143D01*
X020659Y022301D02*
X018306Y022301D01*
X018309Y022460D02*
X019574Y022460D01*
X019515Y022618D02*
X018311Y022618D01*
X018314Y022777D02*
X019541Y022777D01*
X019690Y022935D02*
X018316Y022935D01*
X018319Y023094D02*
X019781Y023094D01*
X019783Y023252D02*
X018321Y023252D01*
X018324Y023411D02*
X019783Y023411D01*
X019783Y023569D02*
X018326Y023569D01*
X018328Y023728D02*
X019783Y023728D01*
X019783Y023886D02*
X018331Y023886D01*
X018333Y024045D02*
X019783Y024045D01*
X019783Y024203D02*
X018264Y024203D01*
X018105Y024362D02*
X019783Y024362D01*
X019783Y024520D02*
X017946Y024520D01*
X017788Y024679D02*
X019783Y024679D01*
X019783Y024837D02*
X017629Y024837D01*
X017471Y024996D02*
X019783Y024996D01*
X019783Y025154D02*
X017312Y025154D01*
X017283Y025313D02*
X017371Y025313D01*
X017533Y025550D02*
X017583Y025550D01*
X017533Y025550D02*
X017883Y025900D01*
X019133Y025900D01*
X019113Y026420D02*
X018796Y026420D01*
X018721Y026432D01*
X018649Y026455D01*
X018582Y026489D01*
X018521Y026534D01*
X018467Y026587D01*
X018423Y026648D01*
X018388Y026716D01*
X018365Y026788D01*
X018353Y026862D01*
X018353Y026880D01*
X019113Y026880D01*
X019113Y026920D01*
X018353Y026920D01*
X018353Y026938D01*
X018365Y027012D01*
X018388Y027084D01*
X018423Y027152D01*
X018467Y027213D01*
X018478Y027223D01*
X018383Y027317D01*
X017983Y027717D01*
X017983Y028433D01*
X018100Y028550D01*
X018393Y028843D01*
X018393Y028988D01*
X018460Y029149D01*
X018584Y029273D01*
X018688Y029316D01*
X016079Y029316D01*
X016183Y029273D01*
X016306Y029149D01*
X016327Y029100D01*
X016866Y029100D01*
X016983Y028983D01*
X017283Y028683D01*
X017283Y028517D01*
X017283Y025657D01*
X017314Y025730D01*
X017403Y025820D01*
X017520Y025868D01*
X017540Y025868D01*
X017792Y026120D01*
X018448Y026120D01*
X018460Y026149D01*
X018584Y026273D01*
X018746Y026340D01*
X019521Y026340D01*
X019683Y026273D01*
X019783Y026172D01*
X019783Y026571D01*
X019746Y026534D01*
X019685Y026489D01*
X019618Y026455D01*
X019546Y026432D01*
X019471Y026420D01*
X019153Y026420D01*
X019153Y026880D01*
X019113Y026880D01*
X019113Y026420D01*
X019113Y026422D02*
X019153Y026422D01*
X019153Y026581D02*
X019113Y026581D01*
X019113Y026739D02*
X019153Y026739D01*
X019113Y026898D02*
X017283Y026898D01*
X017283Y027056D02*
X018379Y027056D01*
X018469Y027215D02*
X017283Y027215D01*
X017283Y027373D02*
X018327Y027373D01*
X018169Y027532D02*
X017283Y027532D01*
X017283Y027690D02*
X018010Y027690D01*
X017983Y027849D02*
X017283Y027849D01*
X017283Y028007D02*
X017983Y028007D01*
X017983Y028166D02*
X017283Y028166D01*
X017283Y028324D02*
X017983Y028324D01*
X018033Y028483D02*
X017283Y028483D01*
X017283Y028641D02*
X018192Y028641D01*
X018350Y028800D02*
X017167Y028800D01*
X017008Y028958D02*
X018393Y028958D01*
X018447Y029117D02*
X016320Y029117D01*
X016178Y029275D02*
X018589Y029275D01*
X016883Y028483D02*
X016075Y028483D01*
X016059Y028324D02*
X016883Y028324D01*
X016883Y028166D02*
X016290Y028166D01*
X016609Y028007D02*
X016883Y028007D01*
X016883Y027849D02*
X016768Y027849D01*
X016883Y027690D02*
X016883Y027690D01*
X016883Y027532D02*
X016883Y027532D01*
X016883Y027373D02*
X016883Y027373D01*
X016883Y027215D02*
X016883Y027215D01*
X016883Y027056D02*
X016883Y027056D01*
X016883Y026898D02*
X016883Y026898D01*
X016883Y026739D02*
X016883Y026739D01*
X016883Y026581D02*
X016883Y026581D01*
X016883Y026422D02*
X016883Y026422D01*
X016883Y026264D02*
X016883Y026264D01*
X016883Y026105D02*
X016883Y026105D01*
X016883Y025947D02*
X016883Y025947D01*
X016883Y025788D02*
X016883Y025788D01*
X016883Y025630D02*
X016883Y025630D01*
X016883Y025471D02*
X016883Y025471D01*
X016883Y025313D02*
X016883Y025313D01*
X016883Y025154D02*
X016883Y025154D01*
X016883Y024996D02*
X016905Y024996D01*
X016929Y024837D02*
X017063Y024837D01*
X017088Y024679D02*
X017222Y024679D01*
X017246Y024520D02*
X017380Y024520D01*
X017405Y024362D02*
X017539Y024362D01*
X017563Y024203D02*
X017697Y024203D01*
X017722Y024045D02*
X017856Y024045D01*
X017931Y023886D02*
X017733Y023886D01*
X017733Y023728D02*
X017928Y023728D01*
X017926Y023569D02*
X017733Y023569D01*
X017733Y023411D02*
X017923Y023411D01*
X017921Y023252D02*
X017733Y023252D01*
X017733Y023094D02*
X017919Y023094D01*
X017916Y022935D02*
X017733Y022935D01*
X017733Y022777D02*
X017914Y022777D01*
X017911Y022618D02*
X017733Y022618D01*
X017733Y022460D02*
X017909Y022460D01*
X017906Y022301D02*
X017733Y022301D01*
X017733Y022143D02*
X017904Y022143D01*
X017902Y021984D02*
X017733Y021984D01*
X017733Y021826D02*
X017899Y021826D01*
X017897Y021667D02*
X017733Y021667D01*
X017733Y021509D02*
X017894Y021509D01*
X017892Y021350D02*
X017733Y021350D01*
X017733Y021192D02*
X017889Y021192D01*
X017866Y021033D02*
X017733Y021033D01*
X017333Y021826D02*
X015181Y021826D01*
X015219Y021984D02*
X017333Y021984D01*
X017333Y022143D02*
X015178Y022143D01*
X015091Y022301D02*
X017333Y022301D01*
X017333Y022460D02*
X015091Y022460D01*
X015091Y022618D02*
X017333Y022618D01*
X017333Y022777D02*
X015091Y022777D01*
X015091Y022935D02*
X016848Y022935D01*
X016733Y023094D02*
X015106Y023094D01*
X015158Y023252D02*
X016698Y023252D01*
X016540Y023411D02*
X015303Y023411D01*
X015329Y023569D02*
X016433Y023569D01*
X016433Y023728D02*
X015248Y023728D01*
X014854Y023728D02*
X013183Y023728D01*
X013183Y023600D02*
X013183Y025300D01*
X014650Y025300D01*
X014833Y025117D01*
X014833Y024917D01*
X014950Y024800D01*
X015615Y024135D01*
X015615Y024037D01*
X015664Y023920D01*
X015753Y023830D01*
X015870Y023782D01*
X015997Y023782D01*
X016114Y023830D01*
X016203Y023920D01*
X016251Y024037D01*
X016251Y024163D01*
X016203Y024280D01*
X016114Y024370D01*
X015997Y024418D01*
X015898Y024418D01*
X015233Y025083D01*
X015233Y025283D01*
X014933Y025583D01*
X014816Y025700D01*
X013000Y025700D01*
X012883Y025583D01*
X012883Y025583D01*
X012783Y025483D01*
X012783Y023633D01*
X012720Y023570D01*
X012368Y023570D01*
X012356Y023599D01*
X012233Y023723D01*
X012071Y023790D01*
X011296Y023790D01*
X011134Y023723D01*
X011010Y023599D01*
X010943Y023438D01*
X010943Y023262D01*
X011010Y023101D01*
X011134Y022977D01*
X011296Y022910D01*
X012071Y022910D01*
X012233Y022977D01*
X012356Y023101D01*
X012368Y023130D01*
X012753Y023130D01*
X012803Y023080D01*
X012920Y023032D01*
X013047Y023032D01*
X013164Y023080D01*
X013253Y023170D01*
X013301Y023287D01*
X013301Y023413D01*
X013253Y023530D01*
X013183Y023600D01*
X013214Y023569D02*
X014772Y023569D01*
X014799Y023411D02*
X013301Y023411D01*
X013287Y023252D02*
X014758Y023252D01*
X014705Y023094D02*
X013177Y023094D01*
X012983Y023350D02*
X012783Y023350D01*
X011683Y023350D01*
X011663Y023870D02*
X011346Y023870D01*
X011271Y023882D01*
X011199Y023905D01*
X011132Y023939D01*
X011071Y023984D01*
X011017Y024037D01*
X010973Y024098D01*
X010938Y024166D01*
X010915Y024238D01*
X010903Y024312D01*
X010903Y024330D01*
X011663Y024330D01*
X011663Y024370D01*
X010903Y024370D01*
X010903Y024388D01*
X010915Y024462D01*
X010938Y024534D01*
X010973Y024602D01*
X011017Y024663D01*
X011071Y024716D01*
X011132Y024761D01*
X011199Y024795D01*
X011271Y024818D01*
X011346Y024830D01*
X011663Y024830D01*
X011663Y024370D01*
X011703Y024370D01*
X011703Y024830D01*
X012021Y024830D01*
X012096Y024818D01*
X012168Y024795D01*
X012235Y024761D01*
X012296Y024716D01*
X012349Y024663D01*
X012394Y024602D01*
X012428Y024534D01*
X012452Y024462D01*
X012463Y024388D01*
X012463Y024370D01*
X011703Y024370D01*
X011703Y024330D01*
X011703Y023870D01*
X012021Y023870D01*
X012096Y023882D01*
X012168Y023905D01*
X012235Y023939D01*
X012296Y023984D01*
X012349Y024037D01*
X012394Y024098D01*
X012428Y024166D01*
X012452Y024238D01*
X012463Y024312D01*
X012463Y024330D01*
X011703Y024330D01*
X011663Y024330D01*
X011663Y023870D01*
X011663Y023886D02*
X011703Y023886D01*
X011703Y024045D02*
X011663Y024045D01*
X011663Y024203D02*
X011703Y024203D01*
X011703Y024362D02*
X012783Y024362D01*
X012783Y024520D02*
X012433Y024520D01*
X012334Y024679D02*
X012783Y024679D01*
X012783Y024837D02*
X010503Y024837D01*
X010503Y024679D02*
X011033Y024679D01*
X010934Y024520D02*
X010503Y024520D01*
X010503Y024362D02*
X011663Y024362D01*
X011663Y024520D02*
X011703Y024520D01*
X011703Y024679D02*
X011663Y024679D01*
X011116Y024996D02*
X010503Y024996D01*
X010503Y025154D02*
X010988Y025154D01*
X010943Y025313D02*
X010503Y025313D01*
X010503Y025471D02*
X010957Y025471D01*
X011041Y025630D02*
X010503Y025630D01*
X010503Y025788D02*
X011291Y025788D01*
X011208Y025947D02*
X010503Y025947D01*
X010599Y026105D02*
X011009Y026105D01*
X010533Y026350D02*
X011683Y026350D01*
X011173Y026739D02*
X010705Y026739D01*
X010547Y026581D02*
X011003Y026581D01*
X010864Y026898D02*
X012103Y026898D01*
X012194Y026739D02*
X012261Y026739D01*
X012364Y026581D02*
X012420Y026581D01*
X012423Y026422D02*
X012483Y026422D01*
X012483Y026264D02*
X012423Y026264D01*
X012483Y026105D02*
X012358Y026105D01*
X012483Y025947D02*
X012159Y025947D01*
X012076Y025788D02*
X012483Y025788D01*
X012330Y025630D02*
X012326Y025630D01*
X012579Y025313D02*
X012783Y025313D01*
X012783Y025471D02*
X012737Y025471D01*
X012883Y025630D02*
X012930Y025630D01*
X012883Y025788D02*
X014903Y025788D01*
X014893Y025812D02*
X014960Y025651D01*
X015084Y025527D01*
X015246Y025460D01*
X016021Y025460D01*
X016183Y025527D01*
X016306Y025651D01*
X016373Y025812D01*
X016373Y025988D01*
X016306Y026149D01*
X016183Y026273D01*
X016021Y026340D01*
X015246Y026340D01*
X015084Y026273D01*
X014960Y026149D01*
X014893Y025988D01*
X014893Y025812D01*
X014893Y025947D02*
X012883Y025947D01*
X012883Y026105D02*
X014942Y026105D01*
X015075Y026264D02*
X012883Y026264D01*
X012883Y026422D02*
X015283Y026422D01*
X015296Y026420D02*
X015221Y026432D01*
X015149Y026455D01*
X015082Y026489D01*
X015021Y026534D01*
X014967Y026587D01*
X014923Y026648D01*
X014888Y026716D01*
X014865Y026788D01*
X014853Y026862D01*
X014853Y026880D01*
X015613Y026880D01*
X015613Y026920D01*
X014853Y026920D01*
X014853Y026938D01*
X014865Y027012D01*
X014888Y027084D01*
X014923Y027152D01*
X014967Y027213D01*
X015021Y027266D01*
X015082Y027311D01*
X015149Y027345D01*
X015221Y027368D01*
X015296Y027380D01*
X015613Y027380D01*
X015613Y026920D01*
X015653Y026920D01*
X015653Y027380D01*
X015971Y027380D01*
X016046Y027368D01*
X016118Y027345D01*
X016185Y027311D01*
X016246Y027266D01*
X016299Y027213D01*
X016344Y027152D01*
X016378Y027084D01*
X016402Y027012D01*
X016413Y026938D01*
X016413Y026920D01*
X015653Y026920D01*
X015653Y026880D01*
X015653Y026420D01*
X015971Y026420D01*
X016046Y026432D01*
X016118Y026455D01*
X016185Y026489D01*
X016246Y026534D01*
X016299Y026587D01*
X016344Y026648D01*
X016378Y026716D01*
X016402Y026788D01*
X016413Y026862D01*
X016413Y026880D01*
X015653Y026880D01*
X015613Y026880D01*
X015613Y026420D01*
X015296Y026420D01*
X015613Y026422D02*
X015653Y026422D01*
X015653Y026581D02*
X015613Y026581D01*
X015613Y026739D02*
X015653Y026739D01*
X015653Y026898D02*
X016483Y026898D01*
X016483Y027056D02*
X016387Y027056D01*
X016298Y027215D02*
X016483Y027215D01*
X016483Y027373D02*
X016015Y027373D01*
X016187Y027532D02*
X016483Y027532D01*
X016360Y027690D02*
X016323Y027690D01*
X015653Y027373D02*
X015613Y027373D01*
X015613Y027215D02*
X015653Y027215D01*
X015653Y027056D02*
X015613Y027056D01*
X015613Y026898D02*
X012669Y026898D01*
X012510Y027056D02*
X014879Y027056D01*
X014969Y027215D02*
X012352Y027215D01*
X012193Y027373D02*
X015252Y027373D01*
X015080Y027532D02*
X009497Y027532D01*
X009653Y027373D02*
X010774Y027373D01*
X010615Y027215D02*
X009653Y027215D01*
X009653Y027056D02*
X010457Y027056D01*
X010298Y026898D02*
X009606Y026898D01*
X009448Y026739D02*
X010140Y026739D01*
X009981Y026581D02*
X009351Y026581D01*
X009350Y026422D02*
X009823Y026422D01*
X009664Y026264D02*
X009350Y026264D01*
X009349Y026105D02*
X009633Y026105D01*
X009633Y025947D02*
X009348Y025947D01*
X009348Y025788D02*
X009633Y025788D01*
X009633Y025630D02*
X009347Y025630D01*
X009347Y025471D02*
X009633Y025471D01*
X009633Y025313D02*
X009346Y025313D01*
X009345Y025154D02*
X009633Y025154D01*
X009633Y024996D02*
X009345Y024996D01*
X009344Y024837D02*
X009633Y024837D01*
X009633Y024679D02*
X009347Y024679D01*
X009271Y024520D02*
X009633Y024520D01*
X009633Y024362D02*
X009152Y024362D01*
X009033Y024203D02*
X009633Y024203D01*
X009633Y024045D02*
X008915Y024045D01*
X008796Y023886D02*
X009633Y023886D01*
X009633Y023728D02*
X009421Y023728D01*
X009579Y023569D02*
X009633Y023569D01*
X009153Y023569D02*
X009113Y023569D01*
X009113Y023411D02*
X009153Y023411D01*
X009153Y023252D02*
X009113Y023252D01*
X009113Y023243D02*
X009113Y023783D01*
X008901Y023783D01*
X008573Y023455D01*
X008573Y023243D01*
X009113Y023243D01*
X009113Y023094D02*
X009153Y023094D01*
X009153Y022935D02*
X009113Y022935D01*
X009113Y022777D02*
X009153Y022777D01*
X009479Y022777D02*
X009633Y022777D01*
X009633Y022618D02*
X007846Y022618D01*
X007964Y022777D02*
X008788Y022777D01*
X008629Y022935D02*
X008083Y022935D01*
X008202Y023094D02*
X008573Y023094D01*
X008573Y023252D02*
X008321Y023252D01*
X008439Y023411D02*
X008573Y023411D01*
X008558Y023569D02*
X008688Y023569D01*
X008677Y023728D02*
X008846Y023728D01*
X009113Y023728D02*
X009153Y023728D01*
X008484Y024203D02*
X005513Y024203D01*
X005513Y024045D02*
X008365Y024045D01*
X008246Y023886D02*
X005513Y023886D01*
X005513Y023728D02*
X008127Y023728D01*
X008008Y023569D02*
X005513Y023569D01*
X005513Y023411D02*
X007890Y023411D01*
X007771Y023252D02*
X005513Y023252D01*
X005513Y023094D02*
X007652Y023094D01*
X007533Y022935D02*
X005513Y022935D01*
X005513Y022777D02*
X007414Y022777D01*
X007296Y022618D02*
X005513Y022618D01*
X005513Y022460D02*
X007177Y022460D01*
X007058Y022301D02*
X005513Y022301D01*
X005513Y022143D02*
X006939Y022143D01*
X006821Y021984D02*
X005513Y021984D01*
X005513Y021826D02*
X006702Y021826D01*
X006583Y021667D02*
X005513Y021667D01*
X005513Y021509D02*
X006464Y021509D01*
X006345Y021350D02*
X005513Y021350D01*
X005513Y021192D02*
X006227Y021192D01*
X006108Y021033D02*
X005513Y021033D01*
X005513Y020875D02*
X005989Y020875D01*
X005870Y020716D02*
X005513Y020716D01*
X005513Y020558D02*
X005753Y020558D01*
X005763Y020399D02*
X005513Y020399D01*
X005513Y020241D02*
X005763Y020241D01*
X005763Y020082D02*
X005513Y020082D01*
X005513Y019924D02*
X005763Y019924D01*
X005763Y019765D02*
X005513Y019765D01*
X005513Y019607D02*
X005763Y019607D01*
X005763Y019448D02*
X005513Y019448D01*
X005513Y019290D02*
X005763Y019290D01*
X005763Y019131D02*
X005513Y019131D01*
X005513Y018973D02*
X005763Y018973D01*
X005763Y018814D02*
X005513Y018814D01*
X005513Y018656D02*
X005763Y018656D01*
X005763Y018497D02*
X005513Y018497D01*
X005513Y018339D02*
X005763Y018339D01*
X005763Y018180D02*
X005513Y018180D01*
X005513Y018022D02*
X005801Y018022D01*
X005983Y018150D02*
X006383Y017750D01*
X007022Y017750D01*
X007595Y017705D02*
X007879Y017705D01*
X007815Y017863D02*
X007595Y017863D01*
X007543Y018022D02*
X007839Y018022D01*
X008178Y018339D02*
X009276Y018339D01*
X009268Y018180D02*
X008289Y018180D01*
X008427Y018022D02*
X009362Y018022D01*
X009713Y017546D02*
X007567Y017546D01*
X007635Y017388D02*
X009713Y017388D01*
X009933Y017600D02*
X010083Y017750D01*
X010644Y017750D01*
X010124Y018022D02*
X009805Y018022D01*
X009885Y017863D02*
X008451Y017863D01*
X008388Y017705D02*
X009727Y017705D01*
X009933Y017600D02*
X009933Y014650D01*
X010059Y014524D01*
X010059Y013900D01*
X009663Y013901D02*
X008903Y013901D01*
X008903Y014059D02*
X009663Y014059D01*
X009663Y014218D02*
X008903Y014218D01*
X008903Y014376D02*
X009839Y014376D01*
X009738Y014535D02*
X008903Y014535D01*
X008903Y014693D02*
X009713Y014693D01*
X009713Y014852D02*
X008903Y014852D01*
X008903Y015010D02*
X009713Y015010D01*
X009713Y015169D02*
X008903Y015169D01*
X008903Y015327D02*
X009713Y015327D01*
X009713Y015486D02*
X008903Y015486D01*
X008903Y015644D02*
X009713Y015644D01*
X009713Y015803D02*
X008903Y015803D01*
X008903Y015961D02*
X009713Y015961D01*
X009713Y016120D02*
X008903Y016120D01*
X008903Y016278D02*
X009713Y016278D01*
X009713Y016437D02*
X008960Y016437D01*
X009001Y016595D02*
X009713Y016595D01*
X009713Y016754D02*
X008964Y016754D01*
X008761Y016912D02*
X009713Y016912D01*
X008683Y016600D02*
X008683Y011800D01*
X008463Y011840D02*
X007190Y011840D01*
X007232Y011999D02*
X008463Y011999D01*
X008463Y012157D02*
X007191Y012157D01*
X006677Y011840D02*
X006531Y011840D01*
X006348Y011682D02*
X008491Y011682D01*
X008649Y011523D02*
X006165Y011523D01*
X006033Y011365D02*
X008808Y011365D01*
X008947Y011206D02*
X006033Y011206D01*
X006033Y011048D02*
X008927Y011048D01*
X008927Y010889D02*
X006033Y010889D01*
X006033Y010731D02*
X008927Y010731D01*
X008927Y010572D02*
X007553Y010572D01*
X007553Y010591D02*
X007424Y010720D01*
X006542Y010720D01*
X006292Y010470D01*
X006163Y010341D01*
X006163Y010159D01*
X006413Y009909D01*
X006542Y009780D01*
X007424Y009780D01*
X007553Y009909D01*
X007553Y010091D01*
X007424Y010220D01*
X006724Y010220D01*
X006694Y010250D01*
X006724Y010280D01*
X007424Y010280D01*
X007553Y010409D01*
X007553Y010591D01*
X007553Y010414D02*
X008927Y010414D01*
X008981Y010255D02*
X006699Y010255D01*
X006633Y010500D02*
X006383Y010250D01*
X006633Y010000D01*
X007333Y010000D01*
X007553Y009938D02*
X012484Y009938D01*
X012326Y010097D02*
X010668Y010097D01*
X010796Y010255D02*
X012213Y010255D01*
X012213Y010414D02*
X010844Y010414D01*
X010847Y010572D02*
X012213Y010572D01*
X012139Y010731D02*
X012025Y010731D01*
X012433Y010850D02*
X012433Y010300D01*
X012683Y010050D01*
X014733Y010050D01*
X014883Y009900D01*
X014883Y009700D01*
X014933Y009650D01*
X014333Y009050D01*
X014105Y008829D02*
X013996Y008829D01*
X013766Y008670D02*
X015063Y008670D01*
X015063Y008512D02*
X013746Y008512D01*
X013678Y008353D02*
X015063Y008353D01*
X015440Y007444D02*
X016133Y007444D01*
X016549Y006927D02*
X016683Y006927D01*
X016683Y006768D02*
X016549Y006768D01*
X016549Y006610D02*
X016683Y006610D01*
X016683Y006451D02*
X016549Y006451D01*
X016598Y006293D02*
X016333Y006293D01*
X016417Y006134D02*
X016565Y006134D01*
X016559Y005976D02*
X016611Y005976D01*
X016307Y005659D02*
X006712Y005659D01*
X006264Y005817D02*
X016164Y005817D01*
X015933Y006293D02*
X006548Y006293D01*
X007533Y006250D02*
X007733Y006450D01*
X007733Y007900D01*
X007733Y009400D01*
X007933Y009700D01*
X007553Y009591D02*
X007424Y009720D01*
X006742Y009720D01*
X006613Y009591D01*
X006613Y009220D01*
X006242Y009220D01*
X006113Y009091D01*
X006113Y008909D01*
X006242Y008780D01*
X006924Y008780D01*
X007053Y008909D01*
X007053Y009280D01*
X007113Y009280D01*
X007113Y008909D01*
X007242Y008780D01*
X007424Y008780D01*
X007553Y008909D01*
X007553Y009591D01*
X007523Y009621D02*
X014593Y009621D01*
X014643Y009780D02*
X006033Y009780D01*
X006033Y009938D02*
X006384Y009938D01*
X006226Y010097D02*
X006033Y010097D01*
X006033Y010255D02*
X006163Y010255D01*
X006236Y010414D02*
X006033Y010414D01*
X006033Y010572D02*
X006394Y010572D01*
X006633Y010500D02*
X007333Y010500D01*
X007548Y010097D02*
X009122Y010097D01*
X009612Y010097D02*
X010066Y010097D01*
X010054Y010105D02*
X010116Y010061D01*
X010183Y010026D01*
X010255Y010003D01*
X010329Y009991D01*
X010347Y009991D01*
X010347Y010751D01*
X009887Y010751D01*
X009887Y010433D01*
X009899Y010359D01*
X009922Y010287D01*
X009957Y010220D01*
X010001Y010159D01*
X010054Y010105D01*
X009939Y010255D02*
X009754Y010255D01*
X009807Y010414D02*
X009890Y010414D01*
X009887Y010572D02*
X009807Y010572D01*
X009807Y010731D02*
X009887Y010731D01*
X009887Y010889D02*
X009807Y010889D01*
X009807Y011048D02*
X009887Y011048D01*
X009906Y011206D02*
X009788Y011206D01*
X010347Y010731D02*
X010387Y010731D01*
X010387Y010572D02*
X010347Y010572D01*
X010347Y010414D02*
X010387Y010414D01*
X010387Y010255D02*
X010347Y010255D01*
X010347Y010097D02*
X010387Y010097D01*
X010847Y010731D02*
X011242Y010731D01*
X011083Y010889D02*
X010847Y010889D01*
X010847Y011048D02*
X011013Y011048D01*
X011013Y011206D02*
X010828Y011206D01*
X010943Y012157D02*
X008903Y012157D01*
X008903Y012316D02*
X010933Y012316D01*
X010933Y012474D02*
X009648Y012474D01*
X009779Y012633D02*
X010933Y012633D01*
X010933Y012791D02*
X010738Y012791D01*
X010757Y012950D02*
X010989Y012950D01*
X011042Y013108D02*
X010757Y013108D01*
X010757Y013050D02*
X010439Y013050D01*
X010439Y013050D01*
X010439Y012950D02*
X010439Y012950D01*
X010439Y012791D02*
X010439Y012791D01*
X009927Y013050D02*
X009633Y013000D01*
X009483Y012850D01*
X009483Y012750D01*
X009188Y012633D02*
X008903Y012633D01*
X008903Y012791D02*
X009165Y012791D01*
X009233Y012950D02*
X008903Y012950D01*
X008903Y013108D02*
X009430Y013108D01*
X009650Y013267D02*
X008903Y013267D01*
X008903Y013425D02*
X009923Y013425D01*
X009663Y013584D02*
X008903Y013584D01*
X008903Y013742D02*
X009663Y013742D01*
X010783Y013876D02*
X010807Y013900D01*
X010983Y013425D02*
X011083Y013425D01*
X011083Y013267D02*
X010933Y013267D01*
X012383Y013267D02*
X012906Y013267D01*
X012863Y013425D02*
X012383Y013425D01*
X012383Y013584D02*
X012863Y013584D01*
X012863Y013742D02*
X012383Y013742D01*
X012383Y013901D02*
X012863Y013901D01*
X012863Y014059D02*
X012383Y014059D01*
X012383Y014218D02*
X012848Y014218D01*
X012813Y014376D02*
X012463Y014376D01*
X013083Y014710D02*
X013083Y013400D01*
X013061Y013108D02*
X012383Y013108D01*
X014783Y013901D02*
X017763Y013901D01*
X017763Y013742D02*
X014890Y013742D01*
X014900Y013584D02*
X017763Y013584D01*
X017763Y013425D02*
X016519Y013425D01*
X016686Y013267D02*
X017763Y013267D01*
X017763Y013108D02*
X016854Y013108D01*
X017022Y012950D02*
X017763Y012950D01*
X017763Y012791D02*
X017190Y012791D01*
X017358Y012633D02*
X017763Y012633D01*
X017763Y012474D02*
X017503Y012474D01*
X017506Y012316D02*
X017763Y012316D01*
X017761Y012157D02*
X017637Y012157D01*
X017796Y011999D02*
X017868Y011999D01*
X017954Y011840D02*
X018010Y011840D01*
X018113Y011682D02*
X018152Y011682D01*
X018271Y011523D02*
X018294Y011523D01*
X018430Y011365D02*
X018436Y011365D01*
X018833Y011250D02*
X019533Y010900D01*
X019835Y011523D02*
X020213Y011523D01*
X020213Y011365D02*
X020102Y011365D01*
X020213Y011682D02*
X019544Y011682D01*
X019443Y011840D02*
X020128Y011840D01*
X019983Y011999D02*
X018459Y011999D01*
X018317Y012157D02*
X019983Y012157D01*
X019983Y012316D02*
X018203Y012316D01*
X018203Y012474D02*
X020142Y012474D01*
X020383Y012150D02*
X020433Y011900D01*
X020433Y011200D01*
X021083Y010550D01*
X021083Y009650D01*
X020772Y009338D01*
X020607Y009338D01*
X020233Y009338D02*
X020233Y009150D01*
X020033Y008950D01*
X019883Y008950D01*
X019783Y008850D01*
X019783Y008456D01*
X019790Y008450D01*
X019790Y008000D01*
X019990Y007800D01*
X021133Y007800D01*
X021533Y008150D01*
X021383Y012150D01*
X020943Y012150D01*
X021383Y012150D01*
X021383Y012150D01*
X021383Y012150D01*
X021383Y011710D01*
X021201Y011710D01*
X020943Y011968D01*
X020943Y012150D01*
X020943Y012332D01*
X021201Y012590D01*
X021383Y012590D01*
X021383Y012150D01*
X021383Y012150D01*
X021383Y011710D01*
X021566Y011710D01*
X021823Y011968D01*
X021823Y012150D01*
X021823Y012332D01*
X021566Y012590D01*
X021383Y012590D01*
X021383Y012150D01*
X021823Y012150D01*
X021383Y012150D01*
X021383Y012150D01*
X021383Y012157D02*
X021383Y012157D01*
X021383Y011999D02*
X021383Y011999D01*
X021383Y011840D02*
X021383Y011840D01*
X021071Y011840D02*
X020658Y011840D01*
X020653Y011682D02*
X022413Y011682D01*
X022413Y011840D02*
X021696Y011840D01*
X021823Y011999D02*
X022413Y011999D01*
X022413Y012157D02*
X021823Y012157D01*
X021823Y012316D02*
X022413Y012316D01*
X022413Y012474D02*
X021682Y012474D01*
X021383Y012474D02*
X021383Y012474D01*
X021383Y012316D02*
X021383Y012316D01*
X021085Y012474D02*
X020625Y012474D01*
X020585Y012633D02*
X018203Y012633D01*
X018203Y012791D02*
X020483Y012791D01*
X020483Y012950D02*
X018203Y012950D01*
X018203Y013108D02*
X020526Y013108D01*
X020656Y013267D02*
X018203Y013267D01*
X018203Y013425D02*
X019161Y013425D01*
X019115Y013584D02*
X018203Y013584D01*
X018203Y013742D02*
X019148Y013742D01*
X019328Y013901D02*
X018203Y013901D01*
X018203Y014059D02*
X019581Y014059D01*
X019740Y014218D02*
X018203Y014218D01*
X018203Y014376D02*
X019898Y014376D01*
X020057Y014535D02*
X018203Y014535D01*
X018203Y014693D02*
X020128Y014693D01*
X020235Y014852D02*
X018203Y014852D01*
X018203Y015010D02*
X020623Y015010D01*
X020620Y015169D02*
X018203Y015169D01*
X018203Y015327D02*
X020561Y015327D01*
X020515Y015486D02*
X018203Y015486D01*
X018200Y015644D02*
X020549Y015644D01*
X020732Y015803D02*
X018042Y015803D01*
X017883Y015961D02*
X021113Y015961D01*
X021113Y015803D02*
X020934Y015803D01*
X020833Y015500D02*
X020883Y012900D01*
X021182Y012633D02*
X022413Y012633D01*
X022413Y012791D02*
X021283Y012791D01*
X021283Y012950D02*
X022413Y012950D01*
X022413Y013108D02*
X021241Y013108D01*
X021096Y013267D02*
X022306Y013267D01*
X022333Y013550D02*
X021583Y013550D01*
X021333Y013750D01*
X021333Y016100D01*
X021183Y016300D01*
X020183Y016350D01*
X019583Y016950D01*
X018883Y018350D01*
X019039Y017546D02*
X018583Y017546D01*
X018583Y017388D02*
X019119Y017388D01*
X019198Y017229D02*
X018654Y017229D01*
X018701Y017071D02*
X019277Y017071D01*
X019356Y016912D02*
X018670Y016912D01*
X017860Y016437D02*
X019786Y016437D01*
X019944Y016278D02*
X017853Y016278D01*
X017853Y016120D02*
X020388Y016120D01*
X020233Y016750D02*
X021383Y016750D01*
X021633Y016500D01*
X021683Y015850D01*
X022783Y016850D01*
X023283Y016850D01*
X022976Y016437D02*
X022656Y016437D01*
X022481Y016278D02*
X022990Y016278D01*
X022832Y016120D02*
X022307Y016120D01*
X022133Y015961D02*
X022773Y015961D01*
X022773Y015803D02*
X022001Y015803D01*
X021927Y015644D02*
X022773Y015644D01*
X022927Y015486D02*
X021553Y015486D01*
X021553Y015327D02*
X023309Y015327D01*
X023432Y015169D02*
X021553Y015169D01*
X021553Y015010D02*
X027973Y015010D01*
X027973Y014852D02*
X021553Y014852D01*
X021553Y014693D02*
X027973Y014693D01*
X027973Y014535D02*
X021553Y014535D01*
X021553Y014376D02*
X021835Y014376D01*
X021863Y014404D02*
X021779Y014320D01*
X021733Y014210D01*
X021733Y014090D01*
X021779Y013980D01*
X021863Y013896D01*
X021974Y013850D01*
X022093Y013850D01*
X022203Y013896D01*
X022268Y013960D01*
X023605Y013960D01*
X023643Y013921D01*
X023643Y010234D01*
X023579Y010170D01*
X023533Y010060D01*
X023533Y009940D01*
X023579Y009830D01*
X023663Y009746D01*
X023774Y009700D01*
X023893Y009700D01*
X024003Y009746D01*
X024088Y009830D01*
X024133Y009940D01*
X024133Y010060D01*
X024088Y010170D01*
X024023Y010234D01*
X024023Y014079D01*
X023912Y014190D01*
X023873Y014229D01*
X023762Y014340D01*
X022268Y014340D01*
X022203Y014404D01*
X022093Y014450D01*
X021974Y014450D01*
X021863Y014404D01*
X021737Y014218D02*
X021553Y014218D01*
X021553Y014059D02*
X021746Y014059D01*
X021859Y013901D02*
X021553Y013901D01*
X021189Y013584D02*
X021090Y013584D01*
X021087Y013742D02*
X021113Y013742D01*
X021113Y013901D02*
X021084Y013901D01*
X021081Y014059D02*
X021113Y014059D01*
X021113Y014218D02*
X021078Y014218D01*
X021075Y014376D02*
X021113Y014376D01*
X021113Y014535D02*
X021072Y014535D01*
X021069Y014693D02*
X021113Y014693D01*
X021113Y014852D02*
X021066Y014852D01*
X021063Y015010D02*
X021113Y015010D01*
X021113Y015169D02*
X021060Y015169D01*
X021106Y015327D02*
X021113Y015327D01*
X020433Y014600D02*
X019433Y013600D01*
X019751Y013584D02*
X020650Y013584D01*
X020647Y013742D02*
X019886Y013742D01*
X020045Y013901D02*
X020644Y013901D01*
X020641Y014059D02*
X020203Y014059D01*
X020362Y014218D02*
X020638Y014218D01*
X020653Y013425D02*
X019705Y013425D01*
X020783Y012316D02*
X020943Y012316D01*
X020943Y012157D02*
X020783Y012157D01*
X020783Y011999D02*
X020943Y011999D01*
X020653Y011523D02*
X022413Y011523D01*
X022413Y011365D02*
X020653Y011365D01*
X020738Y011206D02*
X022413Y011206D01*
X022413Y011048D02*
X020897Y011048D01*
X021055Y010889D02*
X022413Y010889D01*
X022413Y010731D02*
X021214Y010731D01*
X021303Y010572D02*
X022413Y010572D01*
X022413Y010414D02*
X021303Y010414D01*
X021303Y010255D02*
X022413Y010255D01*
X022413Y010097D02*
X021303Y010097D01*
X021303Y009938D02*
X022413Y009938D01*
X022413Y009780D02*
X021303Y009780D01*
X021303Y009621D02*
X022413Y009621D01*
X022336Y009463D02*
X021207Y009463D01*
X021379Y009304D02*
X022315Y009304D01*
X022388Y009146D02*
X021451Y009146D01*
X021431Y008987D02*
X027973Y008987D01*
X027973Y008829D02*
X021309Y008829D01*
X021233Y008670D02*
X027973Y008670D01*
X027973Y008512D02*
X021078Y008512D01*
X020934Y008353D02*
X027973Y008353D01*
X027973Y008195D02*
X022704Y008195D01*
X022871Y008036D02*
X027973Y008036D01*
X027973Y007878D02*
X022901Y007878D01*
X023208Y007719D02*
X026291Y007719D01*
X026298Y007726D02*
X026107Y007535D01*
X026003Y007285D01*
X026003Y007015D01*
X026107Y006765D01*
X026298Y006574D01*
X026548Y006470D01*
X026819Y006470D01*
X027069Y006574D01*
X027260Y006765D01*
X027363Y007015D01*
X027363Y007285D01*
X027260Y007535D01*
X027069Y007726D01*
X026819Y007830D01*
X026548Y007830D01*
X026298Y007726D01*
X026132Y007561D02*
X023251Y007561D01*
X023216Y007402D02*
X026052Y007402D01*
X026003Y007244D02*
X023083Y007244D01*
X023083Y007085D02*
X026003Y007085D01*
X026040Y006927D02*
X023083Y006927D01*
X023083Y006768D02*
X026106Y006768D01*
X026262Y006610D02*
X023083Y006610D01*
X023083Y006451D02*
X027973Y006451D01*
X027973Y006610D02*
X027104Y006610D01*
X027261Y006768D02*
X027973Y006768D01*
X027973Y006927D02*
X027327Y006927D01*
X027363Y007085D02*
X027973Y007085D01*
X027973Y007244D02*
X027363Y007244D01*
X027315Y007402D02*
X027973Y007402D01*
X027973Y007561D02*
X027234Y007561D01*
X027076Y007719D02*
X027973Y007719D01*
X027964Y006293D02*
X023059Y006293D01*
X022957Y006134D02*
X027912Y006134D01*
X027827Y005976D02*
X022862Y005976D01*
X022767Y005817D02*
X027684Y005817D01*
X027368Y005659D02*
X022672Y005659D01*
X022257Y006293D02*
X020308Y006293D01*
X020058Y006293D02*
X018809Y006293D01*
X018809Y006451D02*
X022381Y006451D01*
X022433Y006610D02*
X018797Y006610D01*
X018737Y006768D02*
X022433Y006768D01*
X022433Y006927D02*
X018769Y006927D01*
X018769Y007085D02*
X022433Y007085D01*
X022433Y007244D02*
X018769Y007244D01*
X018769Y007402D02*
X022283Y007402D01*
X022279Y007561D02*
X018769Y007561D01*
X018733Y007719D02*
X022312Y007719D01*
X022265Y007878D02*
X018533Y007878D01*
X018533Y008036D02*
X019457Y008036D01*
X019393Y008195D02*
X018533Y008195D01*
X018533Y008353D02*
X019393Y008353D01*
X019393Y008512D02*
X018533Y008512D01*
X018533Y008670D02*
X019113Y008670D01*
X019019Y008829D02*
X018595Y008829D01*
X018753Y008987D02*
X019025Y008987D01*
X019333Y009050D02*
X019583Y009300D01*
X019821Y009300D01*
X019859Y009338D01*
X020233Y009304D02*
X020233Y009304D01*
X020233Y009146D02*
X020233Y009146D01*
X020233Y008987D02*
X020233Y008987D01*
X020265Y008829D02*
X020155Y008829D01*
X020186Y008670D02*
X020220Y008670D01*
X020220Y008512D02*
X020186Y008512D01*
X020186Y008422D02*
X019818Y008422D01*
X019818Y007994D01*
X020030Y007994D01*
X020076Y008007D01*
X020117Y008030D01*
X020150Y008064D01*
X020174Y008105D01*
X020186Y008151D01*
X020186Y008422D01*
X020186Y008353D02*
X020220Y008353D01*
X020220Y008195D02*
X020186Y008195D01*
X020122Y008036D02*
X020301Y008036D01*
X019818Y008036D02*
X019761Y008036D01*
X019790Y008000D02*
X019790Y007856D01*
X019433Y007500D01*
X019433Y006400D01*
X019865Y005976D02*
X018809Y005976D01*
X018401Y006134D02*
X019895Y006134D01*
X018342Y006150D02*
X018333Y006159D01*
X018266Y006134D02*
X017201Y006134D01*
X017169Y006293D02*
X017858Y006293D01*
X017858Y006451D02*
X017083Y006451D01*
X017083Y006610D02*
X017870Y006610D01*
X017930Y006768D02*
X017083Y006768D01*
X017083Y006927D02*
X017898Y006927D01*
X017898Y007085D02*
X017083Y007085D01*
X017083Y007244D02*
X017898Y007244D01*
X017898Y007402D02*
X017083Y007402D01*
X017155Y005976D02*
X017858Y005976D01*
X019761Y008195D02*
X019818Y008195D01*
X019818Y008353D02*
X019761Y008353D01*
X019761Y008512D02*
X019818Y008512D01*
X019818Y008670D02*
X019761Y008670D01*
X019761Y008829D02*
X019818Y008829D01*
X019668Y008987D02*
X019642Y008987D01*
X019333Y009050D02*
X019333Y008900D01*
X020799Y008987D02*
X020836Y008987D01*
X020934Y008195D02*
X022463Y008195D01*
X022295Y008036D02*
X020853Y008036D01*
X022633Y009350D02*
X022633Y013250D01*
X022333Y013550D01*
X022452Y013742D02*
X023643Y013742D01*
X023643Y013584D02*
X022611Y013584D01*
X022769Y013425D02*
X023643Y013425D01*
X023643Y013267D02*
X022853Y013267D01*
X022853Y013108D02*
X023643Y013108D01*
X023643Y012950D02*
X022853Y012950D01*
X022853Y012791D02*
X023643Y012791D01*
X023643Y012633D02*
X022853Y012633D01*
X022853Y012474D02*
X023643Y012474D01*
X023643Y012316D02*
X022853Y012316D01*
X022853Y012157D02*
X023643Y012157D01*
X023643Y011999D02*
X022853Y011999D01*
X022853Y011840D02*
X023643Y011840D01*
X023643Y011682D02*
X022853Y011682D01*
X022853Y011523D02*
X023643Y011523D01*
X023643Y011365D02*
X022853Y011365D01*
X022853Y011206D02*
X023643Y011206D01*
X023643Y011048D02*
X022853Y011048D01*
X022853Y010889D02*
X023643Y010889D01*
X023643Y010731D02*
X022853Y010731D01*
X022853Y010572D02*
X023643Y010572D01*
X023643Y010414D02*
X022853Y010414D01*
X022853Y010255D02*
X023643Y010255D01*
X023549Y010097D02*
X022853Y010097D01*
X022853Y009938D02*
X023534Y009938D01*
X023630Y009780D02*
X022853Y009780D01*
X022853Y009621D02*
X027973Y009621D01*
X027973Y009463D02*
X022931Y009463D01*
X022951Y009304D02*
X027973Y009304D01*
X027973Y009146D02*
X022879Y009146D01*
X024037Y009780D02*
X027973Y009780D01*
X027973Y009938D02*
X024132Y009938D01*
X024118Y010097D02*
X027973Y010097D01*
X027973Y010255D02*
X024023Y010255D01*
X024023Y010414D02*
X027973Y010414D01*
X027973Y010572D02*
X024023Y010572D01*
X024023Y010731D02*
X027973Y010731D01*
X027973Y010889D02*
X024023Y010889D01*
X024023Y011048D02*
X027973Y011048D01*
X027973Y011206D02*
X024023Y011206D01*
X024023Y011365D02*
X027973Y011365D01*
X027973Y011523D02*
X024023Y011523D01*
X024023Y011682D02*
X027973Y011682D01*
X027973Y011840D02*
X024023Y011840D01*
X024023Y011999D02*
X027973Y011999D01*
X027973Y012157D02*
X024023Y012157D01*
X024023Y012316D02*
X027973Y012316D01*
X027973Y012474D02*
X024023Y012474D01*
X024023Y012633D02*
X027973Y012633D01*
X027973Y012791D02*
X024023Y012791D01*
X024023Y012950D02*
X027973Y012950D01*
X027973Y013108D02*
X024023Y013108D01*
X024023Y013267D02*
X027973Y013267D01*
X027973Y013425D02*
X024023Y013425D01*
X024023Y013584D02*
X027973Y013584D01*
X027973Y013742D02*
X024023Y013742D01*
X024023Y013901D02*
X027973Y013901D01*
X027973Y014059D02*
X024023Y014059D01*
X023885Y014218D02*
X027973Y014218D01*
X027973Y014376D02*
X022232Y014376D01*
X022208Y013901D02*
X023643Y013901D01*
X022533Y015050D02*
X025983Y015050D01*
X025876Y015486D02*
X025200Y015486D01*
X025287Y015644D02*
X025742Y015644D01*
X025693Y015803D02*
X025292Y015803D01*
X025300Y015961D02*
X025592Y015961D01*
X025456Y016120D02*
X025308Y016120D01*
X025317Y016278D02*
X025333Y016278D01*
X025733Y016437D02*
X025982Y016437D01*
X026017Y016278D02*
X025902Y016278D01*
X025766Y016595D02*
X025733Y016595D01*
X026850Y016278D02*
X027973Y016278D01*
X027973Y016120D02*
X027086Y016120D01*
X027164Y015961D02*
X027973Y015961D01*
X027973Y015803D02*
X027173Y015803D01*
X027124Y015644D02*
X027973Y015644D01*
X027973Y015486D02*
X026991Y015486D01*
X026885Y016437D02*
X027973Y016437D01*
X027973Y016595D02*
X027101Y016595D01*
X027170Y016754D02*
X027973Y016754D01*
X027973Y016912D02*
X027173Y016912D01*
X027287Y017071D02*
X027973Y017071D01*
X027973Y017229D02*
X027383Y017229D01*
X027383Y017388D02*
X027973Y017388D01*
X027973Y017546D02*
X027383Y017546D01*
X027383Y017705D02*
X027973Y017705D01*
X027973Y017863D02*
X027383Y017863D01*
X027383Y018022D02*
X027973Y018022D01*
X027973Y018180D02*
X027383Y018180D01*
X027383Y018339D02*
X027973Y018339D01*
X027973Y018497D02*
X027369Y018497D01*
X027218Y018656D02*
X027973Y018656D01*
X027973Y018814D02*
X027070Y018814D01*
X026923Y018973D02*
X027973Y018973D01*
X027973Y019131D02*
X026775Y019131D01*
X026627Y019290D02*
X027973Y019290D01*
X027973Y015327D02*
X024948Y015327D01*
X024699Y015169D02*
X027973Y015169D01*
X027433Y014100D02*
X027433Y011450D01*
X027033Y011050D01*
X027733Y010350D01*
X027733Y009900D01*
X021387Y013425D02*
X021093Y013425D01*
X019023Y011840D02*
X018601Y011840D01*
X018742Y011682D02*
X018923Y011682D01*
X018921Y011523D02*
X018884Y011523D01*
X020607Y010576D02*
X020607Y010362D01*
X016365Y011523D02*
X015821Y011523D01*
X016164Y011682D02*
X015303Y011682D01*
X016083Y012000D02*
X016083Y012290D01*
X016319Y014218D02*
X016348Y014218D01*
X015583Y014218D02*
X015583Y014218D01*
X015583Y014376D02*
X015583Y014376D01*
X015583Y014535D02*
X015583Y014535D01*
X015583Y014693D02*
X015583Y014693D01*
X014848Y014218D02*
X014819Y014218D01*
X014033Y015750D02*
X016683Y015700D01*
X016733Y015750D01*
X014147Y018022D02*
X012133Y018022D01*
X012133Y018180D02*
X014243Y018180D01*
X014243Y018339D02*
X012172Y018339D01*
X012251Y018497D02*
X014243Y018497D01*
X014243Y018656D02*
X012234Y018656D01*
X012119Y018814D02*
X014243Y018814D01*
X014243Y018973D02*
X014154Y018973D01*
X014201Y019131D02*
X014243Y019131D01*
X014243Y019290D02*
X014170Y019290D01*
X014243Y019448D02*
X013995Y019448D01*
X013772Y019448D02*
X012551Y019448D01*
X012534Y019607D02*
X014243Y019607D01*
X014243Y019765D02*
X012491Y019765D01*
X012512Y019924D02*
X014243Y019924D01*
X014243Y020082D02*
X012533Y020082D01*
X012554Y020241D02*
X014243Y020241D01*
X014243Y020399D02*
X012496Y020399D01*
X012333Y020250D02*
X012133Y020450D01*
X010683Y020450D01*
X010283Y020850D01*
X010283Y026100D01*
X010533Y026350D01*
X009133Y027160D02*
X009123Y024690D01*
X005983Y020500D01*
X005983Y018150D01*
X005959Y017863D02*
X005513Y017863D01*
X005513Y017705D02*
X006118Y017705D01*
X006276Y017546D02*
X005513Y017546D01*
X005513Y017388D02*
X006409Y017388D01*
X006409Y017229D02*
X005513Y017229D01*
X005513Y017071D02*
X006419Y017071D01*
X006449Y016912D02*
X005513Y016912D01*
X005513Y016754D02*
X006449Y016754D01*
X006449Y016595D02*
X005513Y016595D01*
X005513Y016437D02*
X006460Y016437D01*
X006449Y016278D02*
X005513Y016278D01*
X005513Y016120D02*
X006449Y016120D01*
X006484Y015961D02*
X005513Y015961D01*
X005513Y015803D02*
X006449Y015803D01*
X006449Y015644D02*
X005513Y015644D01*
X005513Y015486D02*
X006509Y015486D01*
X006449Y015327D02*
X005513Y015327D01*
X005513Y015169D02*
X006449Y015169D01*
X006513Y015010D02*
X005513Y015010D01*
X007022Y017250D02*
X007022Y017250D01*
X007635Y017250D01*
X007524Y018497D02*
X009380Y018497D01*
X009548Y019607D02*
X007595Y019607D01*
X007595Y019765D02*
X009515Y019765D01*
X009561Y019924D02*
X007595Y019924D01*
X007022Y019750D02*
X006483Y019750D01*
X006333Y019600D01*
X006333Y018900D01*
X006483Y018750D01*
X007022Y018750D01*
X006346Y019924D02*
X006203Y019924D01*
X006203Y020082D02*
X009633Y020082D01*
X009633Y020241D02*
X006203Y020241D01*
X006203Y020399D02*
X009633Y020399D01*
X009633Y020558D02*
X006301Y020558D01*
X006420Y020716D02*
X009633Y020716D01*
X009633Y020875D02*
X006539Y020875D01*
X006658Y021033D02*
X009633Y021033D01*
X009633Y021192D02*
X006776Y021192D01*
X006895Y021350D02*
X009633Y021350D01*
X009633Y021509D02*
X007014Y021509D01*
X007133Y021667D02*
X009633Y021667D01*
X009633Y021826D02*
X007252Y021826D01*
X007370Y021984D02*
X009633Y021984D01*
X009633Y022143D02*
X007489Y022143D01*
X007608Y022301D02*
X009633Y022301D01*
X009633Y022460D02*
X007727Y022460D01*
X008602Y024362D02*
X005513Y024362D01*
X005513Y024520D02*
X008721Y024520D01*
X008840Y024679D02*
X005513Y024679D01*
X005513Y024837D02*
X008904Y024837D01*
X008905Y024996D02*
X005513Y024996D01*
X005513Y025154D02*
X008905Y025154D01*
X008906Y025313D02*
X005513Y025313D01*
X005513Y025471D02*
X008907Y025471D01*
X008907Y025630D02*
X005513Y025630D01*
X005513Y025788D02*
X008908Y025788D01*
X008908Y025947D02*
X005513Y025947D01*
X005513Y026105D02*
X008909Y026105D01*
X008910Y026264D02*
X005513Y026264D01*
X005513Y026422D02*
X008910Y026422D01*
X008911Y026581D02*
X005513Y026581D01*
X005513Y026739D02*
X008819Y026739D01*
X008660Y026898D02*
X005513Y026898D01*
X005513Y027056D02*
X008613Y027056D01*
X008613Y027215D02*
X005513Y027215D01*
X005513Y027373D02*
X008613Y027373D01*
X008770Y027532D02*
X005513Y027532D01*
X005513Y027690D02*
X006463Y027690D01*
X006512Y027670D02*
X006782Y027670D01*
X007032Y027774D01*
X007224Y027965D01*
X007327Y028215D01*
X007327Y028485D01*
X007224Y028735D01*
X007032Y028926D01*
X006782Y029030D01*
X006512Y029030D01*
X006262Y028926D01*
X006071Y028735D01*
X005967Y028485D01*
X005967Y028215D01*
X006071Y027965D01*
X006262Y027774D01*
X006512Y027670D01*
X006831Y027690D02*
X014944Y027690D01*
X014893Y027849D02*
X007107Y027849D01*
X007241Y028007D02*
X014901Y028007D01*
X014977Y028166D02*
X007307Y028166D01*
X007327Y028324D02*
X015207Y028324D01*
X015191Y028483D02*
X007327Y028483D01*
X007263Y028641D02*
X014970Y028641D01*
X014899Y028800D02*
X007159Y028800D01*
X006956Y028958D02*
X014893Y028958D01*
X014947Y029117D02*
X005634Y029117D01*
X005547Y028958D02*
X006338Y028958D01*
X006135Y028800D02*
X005514Y028800D01*
X005513Y028641D02*
X006032Y028641D01*
X005967Y028483D02*
X005513Y028483D01*
X005513Y028324D02*
X005967Y028324D01*
X005987Y028166D02*
X005513Y028166D01*
X005513Y028007D02*
X006053Y028007D01*
X006187Y027849D02*
X005513Y027849D01*
X005849Y029275D02*
X015089Y029275D01*
X016297Y028641D02*
X016759Y028641D01*
X016483Y026739D02*
X016386Y026739D01*
X016293Y026581D02*
X016483Y026581D01*
X016483Y026422D02*
X015984Y026422D01*
X016192Y026264D02*
X016483Y026264D01*
X016483Y026105D02*
X016325Y026105D01*
X016373Y025947D02*
X016483Y025947D01*
X016483Y025788D02*
X016363Y025788D01*
X016285Y025630D02*
X016483Y025630D01*
X016483Y025471D02*
X016047Y025471D01*
X016483Y025313D02*
X015204Y025313D01*
X015219Y025471D02*
X015045Y025471D01*
X014982Y025630D02*
X014887Y025630D01*
X014796Y025154D02*
X013183Y025154D01*
X013183Y024996D02*
X014833Y024996D01*
X014913Y024837D02*
X013183Y024837D01*
X013183Y024679D02*
X015072Y024679D01*
X015230Y024520D02*
X013183Y024520D01*
X013183Y024362D02*
X015389Y024362D01*
X015547Y024203D02*
X013183Y024203D01*
X013183Y024045D02*
X015615Y024045D01*
X015697Y023886D02*
X013183Y023886D01*
X012783Y023886D02*
X012109Y023886D01*
X012222Y023728D02*
X012783Y023728D01*
X012783Y024045D02*
X012355Y024045D01*
X012440Y024203D02*
X012783Y024203D01*
X012783Y024996D02*
X012251Y024996D01*
X012420Y025154D02*
X012783Y025154D01*
X011258Y023886D02*
X010503Y023886D01*
X010503Y023728D02*
X011145Y023728D01*
X010998Y023569D02*
X010503Y023569D01*
X010503Y023411D02*
X010943Y023411D01*
X010948Y023252D02*
X010503Y023252D01*
X010503Y023094D02*
X011018Y023094D01*
X011235Y022935D02*
X010503Y022935D01*
X010503Y022777D02*
X014711Y022777D01*
X014711Y022935D02*
X012131Y022935D01*
X012349Y023094D02*
X012790Y023094D01*
X014133Y023350D02*
X014933Y024150D01*
X015479Y024837D02*
X016483Y024837D01*
X016483Y024996D02*
X015321Y024996D01*
X015233Y025154D02*
X016483Y025154D01*
X016522Y024679D02*
X015638Y024679D01*
X015796Y024520D02*
X016680Y024520D01*
X016822Y024362D02*
X016839Y024362D01*
X016935Y024203D02*
X016997Y024203D01*
X016951Y024045D02*
X017156Y024045D01*
X017314Y023886D02*
X016869Y023886D01*
X016833Y023728D02*
X017333Y023728D01*
X017333Y023569D02*
X016947Y023569D01*
X017273Y023411D02*
X017333Y023411D01*
X017333Y022935D02*
X017218Y022935D01*
X016397Y023886D02*
X016169Y023886D01*
X016251Y024045D02*
X016315Y024045D01*
X016332Y024203D02*
X016235Y024203D01*
X016122Y024362D02*
X016445Y024362D01*
X017796Y025313D02*
X019783Y025313D01*
X019783Y025471D02*
X019547Y025471D01*
X019333Y025000D02*
X019333Y024550D01*
X018833Y024100D01*
X018719Y025471D02*
X017895Y025471D01*
X017924Y025630D02*
X018482Y025630D01*
X018575Y026264D02*
X017283Y026264D01*
X017283Y026422D02*
X018783Y026422D01*
X018474Y026581D02*
X017283Y026581D01*
X017283Y026739D02*
X018381Y026739D01*
X017777Y026105D02*
X017283Y026105D01*
X017283Y025947D02*
X017619Y025947D01*
X017371Y025788D02*
X017283Y025788D01*
X014974Y026581D02*
X012883Y026581D01*
X012827Y026739D02*
X014881Y026739D01*
X010926Y024203D02*
X010503Y024203D01*
X010503Y024045D02*
X011012Y024045D01*
X010503Y022618D02*
X014711Y022618D01*
X014711Y022460D02*
X010503Y022460D01*
X010503Y022301D02*
X014711Y022301D01*
X014624Y022143D02*
X010503Y022143D01*
X010503Y021984D02*
X014408Y021984D01*
X014225Y021826D02*
X010503Y021826D01*
X010503Y021667D02*
X014192Y021667D01*
X014237Y021509D02*
X010503Y021509D01*
X010503Y021350D02*
X014246Y021350D01*
X014141Y021192D02*
X010503Y021192D01*
X010503Y021033D02*
X014142Y021033D01*
X014243Y020875D02*
X010570Y020875D01*
X010728Y020716D02*
X014243Y020716D01*
X014243Y020558D02*
X012337Y020558D01*
X012333Y020250D02*
X012233Y019500D01*
X011833Y019500D02*
X011583Y019750D01*
X010644Y019750D01*
X011196Y019448D02*
X011574Y019448D01*
X011633Y019290D02*
X011217Y019290D01*
X011217Y019131D02*
X011769Y019131D01*
X011756Y018973D02*
X011928Y018973D01*
X011210Y018973D02*
X011171Y018973D01*
X012133Y017863D02*
X013999Y017863D01*
X013851Y017705D02*
X012214Y017705D01*
X012251Y017546D02*
X013703Y017546D01*
X013554Y017388D02*
X012210Y017388D01*
X012046Y017071D02*
X013258Y017071D01*
X013406Y017229D02*
X011887Y017229D01*
X012083Y016912D02*
X013110Y016912D01*
X012962Y016754D02*
X012075Y016754D01*
X012067Y016595D02*
X012814Y016595D01*
X012666Y016437D02*
X012060Y016437D01*
X012053Y016278D02*
X012518Y016278D01*
X012370Y016120D02*
X012046Y016120D01*
X012039Y015961D02*
X012070Y015961D01*
X015023Y018973D02*
X015978Y018973D01*
X015819Y019131D02*
X015023Y019131D01*
X015023Y019290D02*
X015661Y019290D01*
X015502Y019448D02*
X015023Y019448D01*
X015023Y019607D02*
X015344Y019607D01*
X015333Y019765D02*
X015023Y019765D01*
X016068Y019448D02*
X019102Y019448D01*
X019261Y019290D02*
X016227Y019290D01*
X016406Y018656D02*
X015777Y018656D01*
X015733Y020875D02*
X015761Y020875D01*
X018385Y019131D02*
X019333Y019131D01*
X019983Y019448D02*
X020673Y019448D01*
X020672Y019607D02*
X019960Y019607D01*
X019801Y019765D02*
X020671Y019765D01*
X020671Y019924D02*
X019643Y019924D01*
X019484Y020082D02*
X020670Y020082D01*
X020658Y022460D02*
X020413Y022460D01*
X020573Y022618D02*
X020657Y022618D01*
X020656Y022777D02*
X020601Y022777D01*
X020548Y022935D02*
X020656Y022935D01*
X020655Y023094D02*
X020483Y023094D01*
X020483Y023252D02*
X020654Y023252D01*
X020653Y023411D02*
X020483Y023411D01*
X020483Y023569D02*
X020652Y023569D01*
X020652Y023728D02*
X020483Y023728D01*
X020483Y023886D02*
X020651Y023886D01*
X020650Y024045D02*
X020483Y024045D01*
X020483Y024203D02*
X020649Y024203D01*
X020649Y024362D02*
X020483Y024362D01*
X020483Y024520D02*
X020648Y024520D01*
X020647Y024679D02*
X020483Y024679D01*
X020483Y024837D02*
X020646Y024837D01*
X020645Y024996D02*
X020483Y024996D01*
X020483Y025154D02*
X020645Y025154D01*
X020644Y025313D02*
X020483Y025313D01*
X020483Y025471D02*
X020643Y025471D01*
X020642Y025630D02*
X020483Y025630D01*
X020483Y025788D02*
X020642Y025788D01*
X020641Y025947D02*
X020483Y025947D01*
X020483Y026105D02*
X020640Y026105D01*
X020639Y026264D02*
X020483Y026264D01*
X020483Y026422D02*
X020638Y026422D01*
X020638Y026581D02*
X020483Y026581D01*
X020483Y026739D02*
X020637Y026739D01*
X020636Y026898D02*
X020483Y026898D01*
X020483Y027056D02*
X020635Y027056D01*
X020634Y027215D02*
X020483Y027215D01*
X020488Y027373D02*
X020634Y027373D01*
X020633Y027532D02*
X020439Y027532D01*
X020632Y027690D02*
X020241Y027690D01*
X019783Y026422D02*
X019484Y026422D01*
X019692Y026264D02*
X019783Y026264D01*
X020093Y022460D02*
X020153Y022460D01*
X009318Y012474D02*
X008903Y012474D01*
X007553Y009463D02*
X012234Y009463D01*
X012403Y009463D02*
X012403Y009463D01*
X012403Y009495D02*
X012403Y009058D01*
X012403Y009495D01*
X012573Y009463D02*
X014435Y009463D01*
X014137Y009304D02*
X013979Y009304D01*
X014740Y009146D02*
X015063Y009146D01*
X015063Y009304D02*
X014898Y009304D01*
X012403Y009304D02*
X012403Y009304D01*
X012403Y009146D02*
X012403Y009146D01*
X012403Y009058D02*
X012403Y009058D01*
X011972Y008987D02*
X007553Y008987D01*
X007553Y009146D02*
X011974Y009146D01*
X012041Y009304D02*
X007553Y009304D01*
X007333Y009500D02*
X007333Y009000D01*
X007113Y008987D02*
X007053Y008987D01*
X007053Y009146D02*
X007113Y009146D01*
X006833Y009000D02*
X006833Y009500D01*
X007333Y009500D01*
X007194Y008829D02*
X006973Y008829D01*
X006974Y008670D02*
X012201Y008670D01*
X012321Y008512D02*
X007053Y008512D01*
X007053Y008353D02*
X012389Y008353D01*
X012029Y008829D02*
X007473Y008829D01*
X006833Y009000D02*
X006333Y009000D01*
X006113Y008987D02*
X006033Y008987D01*
X006033Y008829D02*
X006194Y008829D01*
X006192Y008670D02*
X006033Y008670D01*
X006033Y008512D02*
X006113Y008512D01*
X006113Y008353D02*
X006033Y008353D01*
X006033Y008195D02*
X006113Y008195D01*
X006168Y009146D02*
X006033Y009146D01*
X006033Y009304D02*
X006613Y009304D01*
X006613Y009463D02*
X006033Y009463D01*
X006033Y009621D02*
X006643Y009621D01*
D27*
X007933Y009700D03*
X007733Y007900D03*
X007533Y006250D03*
X012433Y010850D03*
X011633Y011200D03*
X011533Y012250D03*
X010833Y013000D03*
X009483Y012750D03*
X009083Y012050D03*
X009033Y013700D03*
X010833Y014600D03*
X011433Y016200D03*
X011933Y017550D03*
X011933Y018550D03*
X011483Y018800D03*
X012233Y019500D03*
X013883Y019150D03*
X015183Y019550D03*
X015983Y020250D03*
X016033Y020700D03*
X015533Y021300D03*
X014901Y021980D03*
X014510Y021682D03*
X014133Y023350D03*
X014933Y024150D03*
X015933Y024100D03*
X016633Y024100D03*
X017033Y023200D03*
X016833Y021900D03*
X017533Y020700D03*
X018083Y020800D03*
X018483Y021650D03*
X019833Y022650D03*
X020283Y022750D03*
X018833Y024100D03*
X019333Y025000D03*
X017583Y025550D03*
X012983Y023350D03*
X009833Y019750D03*
X009883Y019250D03*
X009833Y018750D03*
X009583Y018250D03*
X008133Y017900D03*
X008683Y016600D03*
X012583Y012550D03*
X013933Y013950D03*
X014583Y013650D03*
X014733Y014050D03*
X014033Y015750D03*
X013683Y016300D03*
X015183Y017100D03*
X016483Y017200D03*
X015683Y018350D03*
X017233Y019400D03*
X017733Y018000D03*
X018383Y018000D03*
X018383Y017050D03*
X017733Y017050D03*
X016733Y015750D03*
X017033Y015400D03*
X017633Y014600D03*
X017083Y014450D03*
X019433Y013600D03*
X020433Y014600D03*
X020833Y015500D03*
X021683Y015850D03*
X022533Y015050D03*
X020233Y016750D03*
X018983Y019400D03*
X025033Y018550D03*
X025133Y016600D03*
X025983Y015050D03*
X027433Y014100D03*
X027033Y011050D03*
X027733Y009900D03*
X022933Y007550D03*
X022583Y007900D03*
X022633Y009350D03*
X021133Y009100D03*
X019333Y008900D03*
X018833Y010650D03*
X019233Y011600D03*
X017033Y011250D03*
X016233Y010950D03*
X016183Y010050D03*
X014933Y009650D03*
X014333Y009050D03*
X014333Y011400D03*
X014633Y011700D03*
X016883Y006150D03*
X019433Y006400D03*
X020183Y006000D03*
D28*
X022283Y006000D01*
X022633Y006450D01*
X022633Y007350D01*
X022483Y007450D01*
X022483Y007600D01*
X022583Y007900D01*
X022933Y007550D02*
X022883Y007450D01*
X022883Y006400D01*
X022433Y005650D01*
X016583Y005650D01*
X016133Y006150D01*
X016133Y006656D01*
X016883Y006150D02*
X016883Y008000D01*
X018333Y007241D02*
X018333Y008850D01*
X018783Y009300D01*
X018833Y009300D01*
X018833Y010000D01*
X016583Y012250D01*
X016583Y012290D01*
X016083Y012000D02*
X017033Y011250D01*
X015583Y011100D02*
X013383Y011100D01*
X013183Y011400D02*
X013933Y011400D01*
X014033Y011450D01*
X014233Y011450D01*
X014333Y011400D01*
X014033Y011450D02*
X014033Y012240D01*
X014583Y012290D02*
X014633Y011700D01*
X013483Y012900D02*
X013083Y013400D01*
X013933Y013950D02*
X014583Y013650D01*
X014733Y014050D02*
X015483Y014050D01*
X015583Y014200D01*
X015583Y014710D01*
X015583Y014200D02*
X015983Y013800D01*
X017033Y013800D01*
X017133Y013900D01*
X017133Y014400D01*
X017083Y014450D01*
X017633Y014600D02*
X017633Y015450D01*
X017333Y015750D01*
X017333Y016300D01*
X016583Y017000D01*
X016483Y017200D01*
X016383Y018350D02*
X015683Y018350D01*
X016383Y018350D02*
X016633Y018600D01*
X019033Y018600D01*
X019233Y018400D01*
X019233Y018350D01*
X019733Y017850D01*
X019733Y017400D01*
X019983Y017150D01*
X021733Y017150D01*
X021883Y017000D01*
X022483Y017000D01*
X022833Y017350D01*
X023783Y017350D01*
X024283Y016850D01*
X025133Y016600D02*
X025083Y015650D01*
X024533Y015300D01*
X023583Y015300D01*
X023233Y015750D01*
X023283Y015850D01*
X022333Y017650D02*
X021883Y017650D01*
X021683Y017450D01*
X020283Y017450D01*
X020033Y017700D01*
X020033Y018000D01*
X019183Y018850D01*
X018383Y018850D01*
X018283Y018950D01*
X017133Y018950D01*
X017033Y019050D01*
X016183Y019050D01*
X015533Y019700D01*
X015533Y021300D01*
X016033Y020700D02*
X016883Y020700D01*
X017583Y020000D01*
X019283Y020000D01*
X019783Y019500D01*
X019783Y019250D01*
X019883Y019150D01*
X026483Y019150D01*
X027183Y018400D01*
X027183Y017250D01*
X027083Y017150D01*
X026433Y016850D01*
X026433Y015850D02*
X025683Y016150D01*
X025533Y016350D01*
X025533Y018650D01*
X025283Y018950D01*
X019633Y018950D01*
X019533Y019000D01*
X019533Y019300D01*
X019133Y019700D01*
X017433Y019700D01*
X016883Y020250D01*
X015983Y020250D01*
X015183Y019550D02*
X015183Y017100D01*
X013883Y016550D02*
X013683Y016300D01*
X014083Y014710D02*
X014083Y014250D01*
X014283Y014150D01*
X014683Y014150D01*
X014733Y014050D01*
X013083Y014710D02*
X012533Y014700D01*
X012183Y014400D01*
X012183Y012350D01*
X011833Y011950D01*
X011283Y011950D01*
X011133Y012250D01*
X011133Y012750D01*
X011283Y013200D01*
X011283Y015250D01*
X011833Y015850D01*
X011883Y016950D01*
X011533Y017300D01*
X011483Y018350D01*
X011483Y018800D01*
X011933Y018550D02*
X011933Y017550D01*
X011283Y017000D02*
X011483Y016800D01*
X011483Y016300D01*
X011433Y016200D01*
X011283Y017000D02*
X011283Y018250D01*
X010644Y018250D01*
X009583Y018250D01*
X009833Y018750D02*
X007022Y018750D01*
X007022Y019250D02*
X009883Y019250D01*
X009833Y019750D02*
X009833Y026150D01*
X010933Y027250D01*
X012033Y027250D01*
X012683Y026600D01*
X012683Y025700D01*
X012233Y025250D01*
X011783Y025250D01*
X011683Y025350D01*
X012983Y025400D02*
X012983Y023550D01*
X012783Y023350D01*
X012983Y025400D02*
X013083Y025500D01*
X014733Y025500D01*
X015033Y025200D01*
X015033Y025000D01*
X015933Y024100D01*
X015583Y023900D02*
X014933Y024150D01*
X015583Y023900D02*
X016833Y022650D01*
X016833Y021900D01*
X017533Y020700D02*
X017533Y023950D01*
X016683Y024800D01*
X016683Y027650D01*
X016433Y027900D01*
X015633Y027900D01*
X015633Y028900D02*
X016783Y028900D01*
X017083Y028600D01*
X017083Y025100D01*
X018133Y024050D01*
X018083Y020800D01*
X018483Y021650D02*
X019583Y022900D01*
X019583Y023750D01*
X019333Y024000D01*
X018933Y024000D01*
X018833Y024100D01*
X019983Y023050D02*
X019783Y022650D01*
X019833Y022650D01*
X019983Y023050D02*
X019983Y027300D01*
X019833Y027400D01*
X018583Y027400D01*
X018183Y027800D01*
X018183Y028350D01*
X018733Y028900D01*
X019133Y028900D01*
X019133Y027900D02*
X019033Y027850D01*
X020033Y027600D01*
X020283Y027400D01*
X020283Y022750D01*
X017033Y023200D02*
X016633Y023600D01*
X016633Y024100D01*
X017233Y019400D02*
X018983Y019400D01*
X018383Y018000D02*
X018383Y017050D01*
X017733Y017050D02*
X017733Y018000D01*
X013883Y019150D02*
X012033Y019150D01*
X011833Y019350D01*
X011833Y019500D01*
X008133Y017900D02*
X007983Y018250D01*
X007022Y018250D01*
X010833Y014600D02*
X010807Y013900D01*
X010783Y013876D02*
X010783Y013400D01*
X010733Y013350D01*
X010133Y013350D01*
X010077Y013294D01*
X009927Y013050D01*
X006933Y012000D02*
X006783Y012150D01*
X006583Y012150D01*
X005833Y011500D01*
X005833Y007000D01*
X006333Y006500D01*
X018342Y006150D02*
X019433Y006400D01*
X020577Y008450D02*
X020733Y008450D01*
X021033Y008750D01*
X021133Y009100D01*
X021033Y009150D01*
X020883Y009300D01*
X020646Y009300D01*
X020607Y009338D01*
X020383Y009850D02*
X020383Y010138D01*
X020607Y010362D01*
X020607Y010576D02*
X019883Y011300D01*
X019833Y011300D01*
X019233Y011600D01*
X019783Y009850D02*
X020383Y009850D01*
X019783Y009850D02*
X019233Y009300D01*
X018833Y009300D01*
X022333Y017650D02*
X022583Y017900D01*
X022583Y018200D01*
X022933Y018550D01*
X025033Y018550D01*
D29*
X022033Y014150D03*
X019533Y010900D03*
X017583Y007900D03*
X015583Y007850D03*
X014533Y010800D03*
X013383Y011100D03*
X012305Y015771D03*
X012833Y015850D03*
X016983Y017250D03*
X014433Y021113D03*
X023833Y010000D03*
D30*
X021672Y019633D03*
X021672Y020370D03*
X021922Y021057D03*
X021822Y021645D03*
X022262Y022142D03*
X021672Y022732D03*
X022656Y022929D03*
X023247Y022339D03*
X024231Y022732D03*
X024378Y023663D03*
X023790Y023763D03*
X023050Y023717D03*
X023640Y024701D03*
X023050Y024898D03*
X023444Y025291D03*
X022656Y025685D03*
X023247Y026276D03*
X022262Y026472D03*
X021672Y026669D03*
X021672Y025882D03*
X021540Y024751D03*
X021522Y023882D03*
X022853Y021354D03*
X023247Y020370D03*
X022656Y019780D03*
X024231Y019976D03*
X025215Y020370D03*
X025609Y021354D03*
X026320Y021219D03*
X027003Y021913D03*
X026503Y022413D03*
X026794Y023023D03*
X027418Y022673D03*
X027153Y023663D03*
X026153Y023763D03*
X026056Y023029D03*
X025315Y023763D03*
X025215Y024701D03*
X025018Y025291D03*
X024428Y024701D03*
X024231Y025882D03*
X025215Y026276D03*
X025806Y025685D03*
X026553Y025481D03*
X027203Y024931D03*
X027253Y026031D03*
X026503Y026531D03*
X027303Y027131D03*
X026503Y027531D03*
X025609Y027260D03*
X025215Y028244D03*
X026003Y029031D03*
X027003Y028531D03*
X024231Y028638D03*
X023247Y028244D03*
X022306Y028985D03*
X022212Y028497D03*
X021672Y028244D03*
X022012Y027897D03*
X021672Y027457D03*
X022853Y027260D03*
X021672Y029031D03*
X026003Y024701D03*
X025215Y022339D03*
X027303Y021163D03*
X027303Y020313D03*
X026203Y019933D03*
X015051Y023530D03*
D31*
X006933Y012000D03*
X006333Y006500D03*
M02*
