%
M48
M72
T01C0.0157
T02C0.0197
T03C0.0200
T04C0.0236
T05C0.0315
T06C0.0320
T07C0.0400
T08C0.0748
T09C0.1000
T10C0.1772
%
T01
X15051Y23530
X26203Y19933
X26003Y24701
X25215Y24701
X24428Y24701
X25018Y25291
X25806Y25685
X23050Y23717
X23790Y23763
X24378Y23663
X25315Y23763
X26153Y23763
X27153Y23663
X26503Y22413
X26320Y21219
X27303Y20313
X27003Y21913
X27303Y21163
X26056Y23029
X26794Y23023
X27418Y22673
X22656Y22929
X21672Y22732
X21822Y21645
X22262Y22142
X21522Y23882
X21922Y21057
X21672Y20370
X21672Y19633
X22656Y19780
X23247Y20370
X22853Y21354
X23247Y22339
X24231Y22732
X25215Y22339
X25609Y21354
X25215Y20370
X24231Y19976
X21672Y29031
X22306Y28985
X21672Y28244
X22012Y27897
X22212Y28497
X21672Y27457
X22262Y26472
X21672Y26669
X21672Y25882
X21540Y24751
X22656Y25685
X23247Y26276
X23444Y25291
X23050Y24898
X23640Y24701
X24231Y25882
X22853Y27260
X23247Y28244
X24231Y28638
X25215Y28244
X25609Y27260
X25215Y26276
X26003Y29031
X27003Y28531
X26503Y27531
X26503Y26531
X26553Y25481
X27203Y24931
X27253Y26031
X27303Y27131
T02
X6333Y6500
X6933Y12000
T03
X16983Y17250
X19533Y10900
X22033Y14150
X23833Y10000
X13383Y11100
X17583Y7900
X14533Y10800
X15583Y7850
X12833Y15850
X12305Y15771
X14433Y21113
T04
X16833Y21900
X18833Y24100
X19333Y25000
X11633Y11200
X12583Y12550
X10833Y13000
X7733Y7900
X7933Y9700
X7533Y6250
X9083Y12050
X9033Y13700
X19433Y6400
X27433Y14100
X27033Y11050
X27733Y9900
X14133Y23350
X14933Y24150
X25983Y15050
X22533Y15050
X17083Y14450
X14733Y14050
X15183Y17100
X15183Y19550
X18983Y19400
X17233Y19400
X18483Y21650
X15683Y18350
X9833Y18750
X11483Y18800
X11933Y18550
X11933Y17550
X9883Y19250
X8133Y17900
X14633Y11700
X19433Y13600
X20433Y14600
X21683Y15850
X20233Y16750
X16483Y17200
X17633Y14600
X22633Y9350
X13683Y16300
X13933Y13950
X14583Y13650
X14510Y21682
X19833Y22650
X20283Y22750
X14901Y21980
X18383Y17050
X18383Y18000
X18083Y20800
X17733Y17050
X17733Y18000
X17533Y20700
X12233Y19500
X9833Y19750
X17033Y23200
X16633Y24100
X21133Y9100
X9483Y12750
X14333Y9050
X14933Y9650
X12433Y10850
X19333Y8900
X12983Y23350
X17583Y25550
X10833Y14600
X11433Y16200
X9583Y18250
X15933Y24100
X25133Y16600
X20833Y15500
X11533Y12250
X17033Y15400
X18833Y10650
X16183Y10050
X22583Y7900
X20183Y6000
X16883Y6150
X17033Y11250
X14333Y11400
X19233Y11600
X22933Y7550
X16233Y10950
X15533Y21300
X25033Y18550
X16033Y20700
X15983Y20250
X8683Y16600
X14033Y15750
X16733Y15750
X13883Y19150
T05
X13663Y9058
X13033Y9058
X12403Y9058
X13348Y8585
X12718Y8585
T06
X21383Y12150
X20883Y12900
X20383Y12150
T07
X9133Y27160
X9133Y23223
X24283Y15850
X23283Y15850
X24283Y16850
X23283Y16850
X24283Y17850
X23283Y17850
X11683Y26350
X11683Y25350
X11683Y24350
X11683Y23350
X15633Y28900
X15633Y27900
X15633Y26900
X15633Y25900
X19133Y28900
X19133Y27900
X19133Y26900
X19133Y25900
X10367Y10771
X9367Y10771
X26433Y17850
X26433Y16850
X26433Y15850
T08
X11596Y7050
X14470Y7050
T09
X6647Y28350
X26683Y7150
X20312Y28417
X6833Y7250
T10
X24231Y27260
X24231Y21354
M30
