G75*
%MOIN*%
%OFA0B0*%
%FSLAX24Y24*%
%IPPOS*%
%LPD*%
%AMOC8*
5,1,8,0,0,1.08239X$1,22.5*
%
%ADD10C,0.0050*%
%ADD11R,0.0630X0.0512*%
%ADD12R,0.0512X0.0591*%
%ADD13R,0.0512X0.0630*%
%ADD14C,0.0118*%
%ADD15R,0.0472X0.0472*%
%ADD16OC8,0.0760*%
%ADD17OC8,0.0740*%
%ADD18R,0.0137X0.0550*%
%ADD19R,0.0591X0.0512*%
%ADD20R,0.0480X0.0880*%
%ADD21R,0.1417X0.0866*%
%ADD22OC8,0.0520*%
%ADD23C,0.0600*%
%ADD24R,0.0276X0.0669*%
%ADD25C,0.3543*%
%ADD26R,0.0906X0.0630*%
%ADD27R,0.0870X0.0240*%
%ADD28R,0.0276X0.0354*%
%ADD29C,0.0515*%
%ADD30C,0.1122*%
%ADD31R,0.0748X0.0551*%
%ADD32R,0.0551X0.0709*%
%ADD33R,0.0591X0.0276*%
%ADD34R,0.0591X0.0768*%
%ADD35C,0.0100*%
%ADD36C,0.0356*%
%ADD37C,0.0160*%
%ADD38C,0.0120*%
%ADD39C,0.0320*%
%ADD40C,0.0591*%
%ADD41C,0.0277*%
%ADD42C,0.0317*%
D10*
X021275Y019386D02*
X021275Y024189D01*
X027749Y024189D01*
X027749Y019386D01*
X021275Y019386D01*
X021275Y019420D02*
X027749Y019420D01*
X027749Y019468D02*
X021275Y019468D01*
X021275Y019517D02*
X027749Y019517D01*
X027749Y019565D02*
X021275Y019565D01*
X021275Y019614D02*
X027749Y019614D01*
X027749Y019662D02*
X021275Y019662D01*
X021275Y019711D02*
X027749Y019711D01*
X027749Y019759D02*
X021275Y019759D01*
X021275Y019808D02*
X027749Y019808D01*
X027749Y019856D02*
X021275Y019856D01*
X021275Y019905D02*
X027749Y019905D01*
X027749Y019953D02*
X021275Y019953D01*
X021275Y020002D02*
X027749Y020002D01*
X027749Y020050D02*
X021275Y020050D01*
X021275Y020099D02*
X027749Y020099D01*
X027749Y020147D02*
X021275Y020147D01*
X021275Y020196D02*
X027749Y020196D01*
X027749Y020244D02*
X021275Y020244D01*
X021275Y020293D02*
X027749Y020293D01*
X027749Y020341D02*
X021275Y020341D01*
X021275Y020390D02*
X027749Y020390D01*
X027749Y020438D02*
X021275Y020438D01*
X021275Y020487D02*
X027749Y020487D01*
X027749Y020535D02*
X021275Y020535D01*
X021275Y020584D02*
X027749Y020584D01*
X027749Y020632D02*
X021275Y020632D01*
X021275Y020681D02*
X027749Y020681D01*
X027749Y020729D02*
X021275Y020729D01*
X021275Y020778D02*
X027749Y020778D01*
X027749Y020826D02*
X021275Y020826D01*
X021275Y020875D02*
X027749Y020875D01*
X027749Y020923D02*
X021275Y020923D01*
X021275Y020972D02*
X027749Y020972D01*
X027749Y021020D02*
X021275Y021020D01*
X021275Y021069D02*
X027749Y021069D01*
X027749Y021117D02*
X021275Y021117D01*
X021275Y021166D02*
X027749Y021166D01*
X027749Y021214D02*
X021275Y021214D01*
X021275Y021263D02*
X027749Y021263D01*
X027749Y021311D02*
X021275Y021311D01*
X021275Y021360D02*
X027749Y021360D01*
X027749Y021408D02*
X021275Y021408D01*
X021275Y021457D02*
X027749Y021457D01*
X027749Y021505D02*
X021275Y021505D01*
X021275Y021554D02*
X027749Y021554D01*
X027749Y021602D02*
X021275Y021602D01*
X021275Y021651D02*
X027749Y021651D01*
X027749Y021699D02*
X021275Y021699D01*
X021275Y021748D02*
X027749Y021748D01*
X027749Y021796D02*
X021275Y021796D01*
X021275Y021845D02*
X027749Y021845D01*
X027749Y021893D02*
X021275Y021893D01*
X021275Y021942D02*
X027749Y021942D01*
X027749Y021990D02*
X021275Y021990D01*
X021275Y022039D02*
X027749Y022039D01*
X027749Y022087D02*
X021275Y022087D01*
X021275Y022136D02*
X027749Y022136D01*
X027749Y022184D02*
X021275Y022184D01*
X021275Y022233D02*
X027749Y022233D01*
X027749Y022281D02*
X021275Y022281D01*
X021275Y022330D02*
X027749Y022330D01*
X027749Y022378D02*
X021275Y022378D01*
X021275Y022427D02*
X027749Y022427D01*
X027749Y022475D02*
X021275Y022475D01*
X021275Y022524D02*
X027749Y022524D01*
X027749Y022572D02*
X021275Y022572D01*
X021275Y022621D02*
X027749Y022621D01*
X027749Y022669D02*
X021275Y022669D01*
X021275Y022718D02*
X027749Y022718D01*
X027749Y022766D02*
X021275Y022766D01*
X021275Y022815D02*
X027749Y022815D01*
X027749Y022863D02*
X021275Y022863D01*
X021275Y022912D02*
X027749Y022912D01*
X027749Y022960D02*
X021275Y022960D01*
X021275Y023009D02*
X027749Y023009D01*
X027749Y023057D02*
X021275Y023057D01*
X021275Y023106D02*
X027749Y023106D01*
X027749Y023154D02*
X021275Y023154D01*
X021275Y023203D02*
X027749Y023203D01*
X027749Y023251D02*
X021275Y023251D01*
X021275Y023300D02*
X027749Y023300D01*
X027749Y023348D02*
X021275Y023348D01*
X021275Y023397D02*
X027749Y023397D01*
X027749Y023445D02*
X021275Y023445D01*
X021275Y023494D02*
X027749Y023494D01*
X027749Y023542D02*
X021275Y023542D01*
X021275Y023591D02*
X027749Y023591D01*
X027749Y023639D02*
X021275Y023639D01*
X021275Y023688D02*
X027749Y023688D01*
X027749Y023736D02*
X021275Y023736D01*
X021275Y023785D02*
X027749Y023785D01*
X027749Y023833D02*
X021275Y023833D01*
X021275Y023882D02*
X027749Y023882D01*
X027749Y023930D02*
X021275Y023930D01*
X021275Y023979D02*
X027749Y023979D01*
X027749Y024027D02*
X021275Y024027D01*
X021275Y024076D02*
X027749Y024076D01*
X027749Y024124D02*
X021275Y024124D01*
X021275Y024173D02*
X027749Y024173D01*
X027749Y024425D02*
X021275Y024425D01*
X021275Y029228D01*
X027749Y029228D01*
X027749Y024425D01*
X027749Y024464D02*
X021275Y024464D01*
X021275Y024512D02*
X027749Y024512D01*
X027749Y024561D02*
X021275Y024561D01*
X021275Y024609D02*
X027749Y024609D01*
X027749Y024658D02*
X021275Y024658D01*
X021275Y024706D02*
X027749Y024706D01*
X027749Y024755D02*
X021275Y024755D01*
X021275Y024803D02*
X027749Y024803D01*
X027749Y024852D02*
X021275Y024852D01*
X021275Y024900D02*
X027749Y024900D01*
X027749Y024949D02*
X021275Y024949D01*
X021275Y024997D02*
X027749Y024997D01*
X027749Y025046D02*
X021275Y025046D01*
X021275Y025094D02*
X027749Y025094D01*
X027749Y025143D02*
X021275Y025143D01*
X021275Y025191D02*
X027749Y025191D01*
X027749Y025240D02*
X021275Y025240D01*
X021275Y025288D02*
X027749Y025288D01*
X027749Y025337D02*
X021275Y025337D01*
X021275Y025385D02*
X027749Y025385D01*
X027749Y025434D02*
X021275Y025434D01*
X021275Y025482D02*
X027749Y025482D01*
X027749Y025531D02*
X021275Y025531D01*
X021275Y025579D02*
X027749Y025579D01*
X027749Y025628D02*
X021275Y025628D01*
X021275Y025676D02*
X027749Y025676D01*
X027749Y025725D02*
X021275Y025725D01*
X021275Y025773D02*
X027749Y025773D01*
X027749Y025822D02*
X021275Y025822D01*
X021275Y025870D02*
X027749Y025870D01*
X027749Y025919D02*
X021275Y025919D01*
X021275Y025967D02*
X027749Y025967D01*
X027749Y026016D02*
X021275Y026016D01*
X021275Y026064D02*
X027749Y026064D01*
X027749Y026113D02*
X021275Y026113D01*
X021275Y026161D02*
X027749Y026161D01*
X027749Y026210D02*
X021275Y026210D01*
X021275Y026258D02*
X027749Y026258D01*
X027749Y026307D02*
X021275Y026307D01*
X021275Y026355D02*
X027749Y026355D01*
X027749Y026404D02*
X021275Y026404D01*
X021275Y026452D02*
X027749Y026452D01*
X027749Y026501D02*
X021275Y026501D01*
X021275Y026549D02*
X027749Y026549D01*
X027749Y026598D02*
X021275Y026598D01*
X021275Y026646D02*
X027749Y026646D01*
X027749Y026695D02*
X021275Y026695D01*
X021275Y026743D02*
X027749Y026743D01*
X027749Y026792D02*
X021275Y026792D01*
X021275Y026840D02*
X027749Y026840D01*
X027749Y026889D02*
X021275Y026889D01*
X021275Y026937D02*
X027749Y026937D01*
X027749Y026986D02*
X021275Y026986D01*
X021275Y027034D02*
X027749Y027034D01*
X027749Y027083D02*
X021275Y027083D01*
X021275Y027131D02*
X027749Y027131D01*
X027749Y027180D02*
X021275Y027180D01*
X021275Y027228D02*
X027749Y027228D01*
X027749Y027277D02*
X021275Y027277D01*
X021275Y027325D02*
X027749Y027325D01*
X027749Y027374D02*
X021275Y027374D01*
X021275Y027422D02*
X027749Y027422D01*
X027749Y027471D02*
X021275Y027471D01*
X021275Y027519D02*
X027749Y027519D01*
X027749Y027568D02*
X021275Y027568D01*
X021275Y027616D02*
X027749Y027616D01*
X027749Y027665D02*
X021275Y027665D01*
X021275Y027713D02*
X027749Y027713D01*
X027749Y027762D02*
X021275Y027762D01*
X021275Y027810D02*
X027749Y027810D01*
X027749Y027859D02*
X021275Y027859D01*
X021275Y027907D02*
X027749Y027907D01*
X027749Y027956D02*
X021275Y027956D01*
X021275Y028004D02*
X027749Y028004D01*
X027749Y028053D02*
X021275Y028053D01*
X021275Y028101D02*
X027749Y028101D01*
X027749Y028150D02*
X021275Y028150D01*
X021275Y028198D02*
X027749Y028198D01*
X027749Y028247D02*
X021275Y028247D01*
X021275Y028295D02*
X027749Y028295D01*
X027749Y028344D02*
X021275Y028344D01*
X021275Y028392D02*
X027749Y028392D01*
X027749Y028441D02*
X021275Y028441D01*
X021275Y028489D02*
X027749Y028489D01*
X027749Y028538D02*
X021275Y028538D01*
X021275Y028586D02*
X027749Y028586D01*
X027749Y028635D02*
X021275Y028635D01*
X021275Y028683D02*
X027749Y028683D01*
X027749Y028732D02*
X021275Y028732D01*
X021275Y028780D02*
X027749Y028780D01*
X027749Y028829D02*
X021275Y028829D01*
X021275Y028877D02*
X027749Y028877D01*
X027749Y028926D02*
X021275Y028926D01*
X021275Y028974D02*
X027749Y028974D01*
X027749Y029023D02*
X021275Y029023D01*
X021275Y029071D02*
X027749Y029071D01*
X027749Y029120D02*
X021275Y029120D01*
X021275Y029168D02*
X027749Y029168D01*
X027749Y029217D02*
X021275Y029217D01*
D11*
X015333Y013894D03*
X015333Y013106D03*
X006081Y009315D03*
X006081Y008528D03*
D12*
X009659Y012150D03*
X010407Y012150D03*
X016459Y008500D03*
X017207Y008500D03*
X017959Y008500D03*
X018707Y008500D03*
X019959Y008500D03*
X020707Y008500D03*
X021459Y008500D03*
X022207Y008500D03*
X018294Y024870D03*
X017546Y024870D03*
D13*
X017550Y024083D03*
X018337Y024083D03*
X007723Y010287D03*
X006936Y010287D03*
D14*
X013999Y016114D02*
X013999Y016586D01*
X014196Y016586D02*
X014196Y016114D01*
X014392Y016114D02*
X014392Y016586D01*
X014589Y016586D02*
X014589Y016114D01*
X014786Y016114D02*
X014786Y016586D01*
X014983Y016586D02*
X014983Y016114D01*
X015180Y016114D02*
X015180Y016586D01*
X015377Y016586D02*
X015377Y016114D01*
X015573Y016114D02*
X015573Y016586D01*
X015770Y016586D02*
X015770Y016114D01*
X015967Y016114D02*
X015967Y016586D01*
X016164Y016586D02*
X016164Y016114D01*
X016361Y016114D02*
X016361Y016586D01*
X016558Y016586D02*
X016558Y016114D01*
X016755Y016114D02*
X016755Y016586D01*
X016951Y016586D02*
X016951Y016114D01*
X017148Y016114D02*
X017148Y016586D01*
X017345Y016586D02*
X017345Y016114D01*
X017542Y016114D02*
X017542Y016586D01*
X017739Y016586D02*
X017739Y016114D01*
X017936Y016114D02*
X017936Y016586D01*
X018133Y016586D02*
X018133Y016114D01*
X018329Y016114D02*
X018329Y016586D01*
X018526Y016586D02*
X018526Y016114D01*
X018723Y016114D02*
X018723Y016586D01*
X019274Y017138D02*
X019746Y017138D01*
X019746Y017335D02*
X019274Y017335D01*
X019274Y017531D02*
X019746Y017531D01*
X019746Y017728D02*
X019274Y017728D01*
X019274Y017925D02*
X019746Y017925D01*
X019746Y018122D02*
X019274Y018122D01*
X019274Y018319D02*
X019746Y018319D01*
X019746Y018516D02*
X019274Y018516D01*
X019274Y018713D02*
X019746Y018713D01*
X019746Y018909D02*
X019274Y018909D01*
X019274Y019106D02*
X019746Y019106D01*
X019746Y019303D02*
X019274Y019303D01*
X019274Y019500D02*
X019746Y019500D01*
X019746Y019697D02*
X019274Y019697D01*
X019274Y019894D02*
X019746Y019894D01*
X019746Y020091D02*
X019274Y020091D01*
X019274Y020287D02*
X019746Y020287D01*
X019746Y020484D02*
X019274Y020484D01*
X019274Y020681D02*
X019746Y020681D01*
X019746Y020878D02*
X019274Y020878D01*
X019274Y021075D02*
X019746Y021075D01*
X019746Y021272D02*
X019274Y021272D01*
X019274Y021469D02*
X019746Y021469D01*
X019746Y021665D02*
X019274Y021665D01*
X019274Y021862D02*
X019746Y021862D01*
X018723Y022414D02*
X018723Y022886D01*
X018526Y022886D02*
X018526Y022414D01*
X018329Y022414D02*
X018329Y022886D01*
X018133Y022886D02*
X018133Y022414D01*
X017936Y022414D02*
X017936Y022886D01*
X017739Y022886D02*
X017739Y022414D01*
X017542Y022414D02*
X017542Y022886D01*
X017345Y022886D02*
X017345Y022414D01*
X017148Y022414D02*
X017148Y022886D01*
X016951Y022886D02*
X016951Y022414D01*
X016755Y022414D02*
X016755Y022886D01*
X016558Y022886D02*
X016558Y022414D01*
X016361Y022414D02*
X016361Y022886D01*
X016164Y022886D02*
X016164Y022414D01*
X015967Y022414D02*
X015967Y022886D01*
X015770Y022886D02*
X015770Y022414D01*
X015573Y022414D02*
X015573Y022886D01*
X015377Y022886D02*
X015377Y022414D01*
X015180Y022414D02*
X015180Y022886D01*
X014983Y022886D02*
X014983Y022414D01*
X014786Y022414D02*
X014786Y022886D01*
X014589Y022886D02*
X014589Y022414D01*
X014392Y022414D02*
X014392Y022886D01*
X014196Y022886D02*
X014196Y022414D01*
X013999Y022414D02*
X013999Y022886D01*
X013447Y021862D02*
X012975Y021862D01*
X012975Y021665D02*
X013447Y021665D01*
X013447Y021469D02*
X012975Y021469D01*
X012975Y021272D02*
X013447Y021272D01*
X013447Y021075D02*
X012975Y021075D01*
X012975Y020878D02*
X013447Y020878D01*
X013447Y020681D02*
X012975Y020681D01*
X012975Y020484D02*
X013447Y020484D01*
X013447Y020287D02*
X012975Y020287D01*
X012975Y020091D02*
X013447Y020091D01*
X013447Y019894D02*
X012975Y019894D01*
X012975Y019697D02*
X013447Y019697D01*
X013447Y019500D02*
X012975Y019500D01*
X012975Y019303D02*
X013447Y019303D01*
X013447Y019106D02*
X012975Y019106D01*
X012975Y018909D02*
X013447Y018909D01*
X013447Y018713D02*
X012975Y018713D01*
X012975Y018516D02*
X013447Y018516D01*
X013447Y018319D02*
X012975Y018319D01*
X012975Y018122D02*
X013447Y018122D01*
X013447Y017925D02*
X012975Y017925D01*
X012975Y017728D02*
X013447Y017728D01*
X013447Y017531D02*
X012975Y017531D01*
X012975Y017335D02*
X013447Y017335D01*
X013447Y017138D02*
X012975Y017138D01*
D15*
X016420Y007000D03*
X017247Y007000D03*
X017920Y007000D03*
X018747Y007000D03*
X019770Y007000D03*
X020597Y007000D03*
X021420Y007000D03*
X022247Y007000D03*
X023220Y007000D03*
X024047Y007000D03*
D16*
X009133Y023223D03*
X009133Y027160D03*
D17*
X023283Y017850D03*
X024283Y017850D03*
X024283Y016850D03*
X023283Y016850D03*
X023283Y015850D03*
X024283Y015850D03*
D18*
X014497Y013139D03*
X014241Y013139D03*
X013985Y013139D03*
X013729Y013139D03*
X013473Y013139D03*
X013217Y013139D03*
X012961Y013139D03*
X012705Y013139D03*
X012449Y013139D03*
X012194Y013139D03*
X011938Y013139D03*
X011682Y013139D03*
X011426Y013139D03*
X011170Y013139D03*
X011170Y010261D03*
X011426Y010261D03*
X011682Y010261D03*
X011938Y010261D03*
X012194Y010261D03*
X012449Y010261D03*
X012705Y010261D03*
X012961Y010261D03*
X013217Y010261D03*
X013473Y010261D03*
X013729Y010261D03*
X013985Y010261D03*
X014241Y010261D03*
X014497Y010261D03*
D19*
X016333Y013126D03*
X016333Y013874D03*
X012833Y014126D03*
X011833Y014126D03*
X011833Y014874D03*
X012833Y014874D03*
X013552Y024126D03*
X014295Y024126D03*
X014295Y024874D03*
X013552Y024874D03*
D20*
X008243Y013720D03*
X007333Y013720D03*
X006423Y013720D03*
D21*
X007333Y011280D03*
D22*
X020383Y012150D03*
X020883Y012900D03*
X021383Y012150D03*
D23*
X026133Y015850D02*
X026733Y015850D01*
X026733Y016850D02*
X026133Y016850D01*
X026133Y017850D02*
X026733Y017850D01*
X019433Y025900D02*
X018833Y025900D01*
X018833Y026900D02*
X019433Y026900D01*
X019433Y027900D02*
X018833Y027900D01*
X018833Y028900D02*
X019433Y028900D01*
X015933Y028900D02*
X015333Y028900D01*
X015333Y027900D02*
X015933Y027900D01*
X015933Y026900D02*
X015333Y026900D01*
X015333Y025900D02*
X015933Y025900D01*
X011983Y026350D02*
X011383Y026350D01*
X011383Y025350D02*
X011983Y025350D01*
X011983Y024350D02*
X011383Y024350D01*
X011383Y023350D02*
X011983Y023350D01*
X010367Y011071D02*
X010367Y010471D01*
X009367Y010471D02*
X009367Y011071D01*
D24*
X015361Y014750D03*
X015833Y014750D03*
X016306Y014750D03*
D25*
X024231Y021354D03*
X024231Y027260D03*
D26*
X023593Y008500D03*
X026073Y008500D03*
D27*
X022257Y023553D03*
X022257Y024053D03*
X022257Y024553D03*
X022257Y025053D03*
X020197Y025053D03*
X020197Y024553D03*
X020197Y024053D03*
X020197Y023553D03*
D28*
X008289Y008500D03*
X007777Y008500D03*
X007389Y008500D03*
X006877Y008500D03*
D29*
X012403Y009058D03*
X012718Y008585D03*
X013033Y009058D03*
X013348Y008585D03*
X013663Y009058D03*
D30*
X014470Y007050D03*
X011596Y007050D03*
D31*
X027064Y009857D03*
X027418Y015054D03*
D32*
X021907Y012850D03*
X021907Y010487D03*
D33*
X025922Y010645D03*
X025922Y010212D03*
X026080Y011078D03*
X025922Y011511D03*
X026080Y011944D03*
X025922Y012377D03*
X025765Y012810D03*
X025922Y013243D03*
D34*
X008583Y007391D03*
X008583Y006309D03*
D35*
X008212Y005796D02*
X006241Y005796D01*
X006093Y005875D02*
X005814Y006137D01*
X005612Y006463D01*
X005502Y006829D01*
X005483Y007019D01*
X005483Y028792D01*
X005494Y028900D01*
X005577Y029100D01*
X005730Y029253D01*
X005930Y029335D01*
X006038Y029346D01*
X020823Y029346D01*
X020823Y028825D01*
X020680Y028968D01*
X020441Y029067D01*
X020183Y029067D01*
X019944Y028968D01*
X019862Y028886D01*
X019862Y028985D01*
X019797Y029143D01*
X019676Y029263D01*
X019519Y029329D01*
X018748Y029329D01*
X018590Y029263D01*
X018470Y029143D01*
X018405Y028985D01*
X018405Y028815D01*
X018470Y028657D01*
X018590Y028537D01*
X018748Y028471D01*
X019519Y028471D01*
X019662Y028531D01*
X019662Y028288D01*
X019671Y028266D01*
X019519Y028329D01*
X018748Y028329D01*
X018590Y028263D01*
X018470Y028143D01*
X018405Y027985D01*
X018405Y027815D01*
X018470Y027657D01*
X018590Y027537D01*
X018748Y027471D01*
X019519Y027471D01*
X019676Y027537D01*
X019797Y027657D01*
X019862Y027815D01*
X019862Y027948D01*
X019944Y027866D01*
X020183Y027767D01*
X020441Y027767D01*
X020680Y027866D01*
X020823Y028009D01*
X020823Y019250D01*
X028003Y019298D01*
X028003Y013083D01*
X027907Y013179D01*
X026407Y014679D01*
X025900Y014679D01*
X024782Y015653D01*
X024782Y016057D01*
X024490Y016349D01*
X024077Y016349D01*
X023785Y016057D01*
X023785Y015643D01*
X024077Y015351D01*
X024490Y015351D01*
X024534Y015395D01*
X025711Y014369D01*
X025759Y014321D01*
X025766Y014321D01*
X025772Y014317D01*
X025839Y014321D01*
X026259Y014321D01*
X027655Y012926D01*
X027655Y011370D01*
X027163Y010838D01*
X026832Y010834D01*
X026481Y010834D01*
X026495Y010848D01*
X026515Y010882D01*
X026525Y010920D01*
X026525Y011059D01*
X026099Y011059D01*
X026099Y011097D01*
X026525Y011097D01*
X026525Y011235D01*
X026515Y011274D01*
X026495Y011308D01*
X026467Y011336D01*
X026433Y011356D01*
X026395Y011366D01*
X026346Y011366D01*
X026346Y011678D01*
X026428Y011678D01*
X026504Y011753D01*
X026504Y012135D01*
X026428Y012211D01*
X026346Y012211D01*
X026346Y012568D01*
X026271Y012644D01*
X026189Y012644D01*
X026189Y012977D01*
X026271Y012977D01*
X026346Y013052D01*
X026346Y013434D01*
X026271Y013510D01*
X025574Y013510D01*
X025498Y013434D01*
X025498Y013077D01*
X025416Y013077D01*
X025358Y013019D01*
X025057Y013019D01*
X024297Y012259D01*
X023492Y012259D01*
X023492Y013344D01*
X023497Y013424D01*
X023492Y013429D01*
X023492Y013436D01*
X023435Y013493D01*
X023092Y013879D01*
X023092Y013886D01*
X023035Y013943D01*
X022982Y014003D01*
X022975Y014004D01*
X022970Y014009D01*
X022889Y014009D01*
X022809Y014013D01*
X022804Y014009D01*
X022287Y014009D01*
X022322Y014093D01*
X022322Y014207D01*
X022278Y014314D01*
X022212Y014380D01*
X022212Y018037D01*
X022519Y018421D01*
X023946Y018421D01*
X023989Y018261D01*
X023798Y018070D01*
X023499Y018370D01*
X023333Y018370D01*
X023333Y017900D01*
X023233Y017900D01*
X023233Y017800D01*
X022763Y017800D01*
X022763Y017635D01*
X023063Y017335D01*
X022785Y017057D01*
X022785Y016643D01*
X023077Y016351D01*
X023490Y016351D01*
X023782Y016643D01*
X023782Y017057D01*
X023504Y017335D01*
X023798Y017630D01*
X024077Y017351D01*
X024490Y017351D01*
X024782Y017643D01*
X024782Y018057D01*
X024490Y018349D01*
X024335Y018349D01*
X024265Y018611D01*
X024343Y018611D01*
X024847Y017981D01*
X024893Y016793D01*
X024873Y016774D01*
X024826Y016661D01*
X024826Y016539D01*
X024873Y016426D01*
X024960Y016340D01*
X025072Y016293D01*
X025194Y016293D01*
X025307Y016340D01*
X025393Y016426D01*
X025440Y016539D01*
X025440Y016661D01*
X025393Y016774D01*
X025307Y016860D01*
X025267Y016877D01*
X025222Y018043D01*
X025230Y018107D01*
X025220Y018119D01*
X025219Y018135D01*
X025172Y018179D01*
X025114Y018251D01*
X025207Y018290D01*
X025279Y018361D01*
X026155Y018361D01*
X026238Y018279D01*
X026048Y018279D01*
X025890Y018213D01*
X025770Y018093D01*
X025705Y017935D01*
X025705Y017765D01*
X025770Y017607D01*
X025890Y017487D01*
X026048Y017421D01*
X026819Y017421D01*
X026976Y017487D01*
X027097Y017607D01*
X027162Y017765D01*
X027162Y017935D01*
X027097Y018093D01*
X026976Y018213D01*
X026819Y018279D01*
X026622Y018279D01*
X026622Y018428D01*
X026512Y018539D01*
X026312Y018739D01*
X025279Y018739D01*
X025207Y018810D01*
X025094Y018857D01*
X024972Y018857D01*
X024860Y018810D01*
X024773Y018724D01*
X024761Y018693D01*
X024622Y018866D01*
X024622Y018878D01*
X024574Y018926D01*
X024532Y018979D01*
X024520Y018980D01*
X024512Y018989D01*
X024444Y018989D01*
X024376Y018996D01*
X024367Y018989D01*
X022301Y018989D01*
X022292Y018996D01*
X022224Y018989D01*
X022155Y018989D01*
X022148Y018981D01*
X022137Y018980D01*
X022093Y018927D01*
X022045Y018878D01*
X022045Y018867D01*
X021694Y018439D01*
X021212Y018439D01*
X020355Y019295D01*
X019956Y019295D01*
X019956Y019298D01*
X019959Y019297D01*
X019983Y019311D01*
X020012Y019311D01*
X020049Y019349D01*
X020333Y019511D01*
X020362Y019511D01*
X020399Y019549D01*
X020445Y019575D01*
X020452Y019602D01*
X020472Y019622D01*
X020472Y019675D01*
X020486Y019726D01*
X020472Y019750D01*
X020472Y022505D01*
X020543Y022576D01*
X020590Y022689D01*
X020590Y022811D01*
X020543Y022924D01*
X020457Y023010D01*
X020344Y023057D01*
X020222Y023057D01*
X020110Y023010D01*
X020023Y022924D01*
X020014Y022903D01*
X020007Y022910D01*
X019894Y022957D01*
X019772Y022957D01*
X019660Y022910D01*
X019573Y022824D01*
X019526Y022711D01*
X019526Y022589D01*
X019573Y022476D01*
X019660Y022390D01*
X019772Y022343D01*
X019823Y022343D01*
X019895Y022272D01*
X019895Y021980D01*
X019825Y022050D01*
X019196Y022050D01*
X019086Y021940D01*
X019086Y021784D01*
X019107Y021764D01*
X019086Y021743D01*
X019086Y021588D01*
X019107Y021567D01*
X019086Y021546D01*
X019086Y021391D01*
X019107Y021370D01*
X019086Y021349D01*
X019086Y021194D01*
X019107Y021173D01*
X019086Y021153D01*
X019086Y020997D01*
X019107Y020976D01*
X019086Y020956D01*
X019086Y020800D01*
X019107Y020780D01*
X019086Y020759D01*
X019086Y020603D01*
X019107Y020583D01*
X019086Y020562D01*
X019086Y020406D01*
X019107Y020386D01*
X019086Y020365D01*
X019086Y020210D01*
X019107Y020189D01*
X019086Y020168D01*
X019086Y020013D01*
X019107Y019992D01*
X019086Y019971D01*
X019086Y019816D01*
X019107Y019795D01*
X019086Y019775D01*
X019086Y019619D01*
X019107Y019598D01*
X019086Y019578D01*
X019086Y019422D01*
X019096Y019413D01*
X019079Y019384D01*
X019065Y019331D01*
X019065Y019303D01*
X019065Y019289D01*
X018832Y019289D01*
X018921Y021130D01*
X019060Y021960D01*
X019072Y021972D01*
X019072Y022035D01*
X019082Y022096D01*
X019072Y022111D01*
X019072Y022129D01*
X019028Y022173D01*
X018991Y022223D01*
X018974Y022226D01*
X018961Y022239D01*
X018899Y022239D01*
X018837Y022249D01*
X018823Y022239D01*
X018814Y022239D01*
X018911Y022336D01*
X018911Y022964D01*
X018863Y023011D01*
X019212Y023011D01*
X019322Y023122D01*
X019562Y023361D01*
X019652Y023361D01*
X019709Y023304D01*
X020685Y023304D01*
X020761Y023380D01*
X020761Y023726D01*
X020685Y023802D01*
X019709Y023802D01*
X019646Y023739D01*
X019405Y023739D01*
X019055Y023389D01*
X018859Y023389D01*
X018869Y023398D01*
X019436Y023874D01*
X019639Y023874D01*
X019709Y023804D01*
X020685Y023804D01*
X020761Y023880D01*
X020761Y024226D01*
X020685Y024302D01*
X019709Y024302D01*
X019639Y024232D01*
X019379Y024232D01*
X019313Y024238D01*
X019306Y024232D01*
X019297Y024232D01*
X019250Y024185D01*
X018743Y023760D01*
X018743Y024033D01*
X018387Y024033D01*
X018387Y024133D01*
X018743Y024133D01*
X018743Y024417D01*
X018733Y024456D01*
X018713Y024490D01*
X018685Y024518D01*
X018679Y024522D01*
X018679Y024719D01*
X018724Y024719D01*
X018964Y024479D01*
X019068Y024374D01*
X019639Y024374D01*
X019709Y024304D01*
X020685Y024304D01*
X020761Y024380D01*
X020761Y024726D01*
X020692Y024795D01*
X020724Y024813D01*
X020752Y024841D01*
X020772Y024875D01*
X020782Y024913D01*
X020782Y025043D01*
X020207Y025043D01*
X020207Y025063D01*
X020782Y025063D01*
X020782Y025193D01*
X020772Y025231D01*
X020752Y025265D01*
X020724Y025293D01*
X020690Y025313D01*
X020652Y025323D01*
X020207Y025323D01*
X020207Y025063D01*
X020187Y025063D01*
X020187Y025043D01*
X019612Y025043D01*
X019612Y024913D01*
X019622Y024875D01*
X019642Y024841D01*
X019670Y024813D01*
X019702Y024795D01*
X019639Y024732D01*
X019216Y024732D01*
X018977Y024972D01*
X018872Y025076D01*
X018679Y025076D01*
X018679Y025219D01*
X018603Y025294D01*
X017985Y025294D01*
X017920Y025229D01*
X017855Y025294D01*
X017792Y025294D01*
X017792Y025325D01*
X017843Y025376D01*
X017890Y025489D01*
X017890Y025611D01*
X017843Y025724D01*
X017757Y025810D01*
X017644Y025857D01*
X017522Y025857D01*
X017410Y025810D01*
X017323Y025724D01*
X017276Y025611D01*
X017276Y025489D01*
X017323Y025376D01*
X017375Y025325D01*
X017375Y025294D01*
X017237Y025294D01*
X017161Y025219D01*
X017161Y024521D01*
X017199Y024484D01*
X017165Y024451D01*
X017165Y024271D01*
X016894Y024271D01*
X016893Y024274D01*
X016807Y024360D01*
X016694Y024407D01*
X016572Y024407D01*
X016460Y024360D01*
X016408Y024309D01*
X016159Y024309D01*
X016107Y024360D01*
X015994Y024407D01*
X015922Y024407D01*
X015842Y024486D01*
X015842Y025471D01*
X016019Y025471D01*
X016176Y025537D01*
X016297Y025657D01*
X016362Y025815D01*
X016362Y025985D01*
X016297Y026143D01*
X016176Y026263D01*
X016019Y026329D01*
X015248Y026329D01*
X015090Y026263D01*
X014970Y026143D01*
X014905Y025985D01*
X014905Y025815D01*
X014970Y025657D01*
X015090Y025537D01*
X015248Y025471D01*
X015425Y025471D01*
X015425Y024314D01*
X014719Y024314D01*
X014719Y024412D02*
X015425Y024412D01*
X015425Y024314D02*
X015626Y024112D01*
X015626Y024039D01*
X015673Y023926D01*
X015760Y023840D01*
X015872Y023793D01*
X015994Y023793D01*
X016107Y023840D01*
X016159Y023891D01*
X016408Y023891D01*
X016460Y023840D01*
X016572Y023793D01*
X016694Y023793D01*
X016807Y023840D01*
X016861Y023894D01*
X017165Y023894D01*
X017165Y023714D01*
X017171Y023709D01*
X015250Y023709D01*
X015202Y023757D01*
X015104Y023798D01*
X014997Y023798D01*
X014899Y023757D01*
X014824Y023682D01*
X014804Y023633D01*
X014702Y023800D01*
X014719Y023817D01*
X014719Y024435D01*
X014665Y024488D01*
X014682Y024498D01*
X014710Y024526D01*
X014730Y024560D01*
X014740Y024598D01*
X014740Y024824D01*
X014345Y024824D01*
X014345Y024924D01*
X014740Y024924D01*
X014740Y025150D01*
X014730Y025188D01*
X014710Y025222D01*
X014682Y025250D01*
X014648Y025270D01*
X014610Y025280D01*
X014345Y025280D01*
X014345Y024924D01*
X014245Y024924D01*
X014245Y025280D01*
X013980Y025280D01*
X013942Y025270D01*
X013909Y025251D01*
X013901Y025259D01*
X013204Y025259D01*
X013128Y025183D01*
X013128Y025059D01*
X013088Y025059D01*
X013060Y025074D01*
X013005Y025059D01*
X012947Y025059D01*
X012924Y025036D01*
X012894Y025028D01*
X012865Y024977D01*
X012825Y024936D01*
X012825Y024905D01*
X012415Y024177D01*
X012385Y024147D01*
X012400Y024177D01*
X012422Y024245D01*
X012431Y024300D01*
X011733Y024300D01*
X011733Y023900D01*
X012019Y023900D01*
X012089Y023911D01*
X012156Y023933D01*
X012219Y023965D01*
X012276Y024007D01*
X012327Y024057D01*
X012368Y024114D01*
X012375Y024127D01*
X012375Y024105D01*
X012359Y024077D01*
X012375Y024021D01*
X012375Y023526D01*
X012347Y023593D01*
X012226Y023713D01*
X012069Y023779D01*
X011298Y023779D01*
X011140Y023713D01*
X011020Y023593D01*
X010955Y023435D01*
X010955Y023265D01*
X011020Y023107D01*
X011140Y022987D01*
X011298Y022921D01*
X012069Y022921D01*
X012226Y022987D01*
X012347Y023107D01*
X012375Y023174D01*
X012375Y022759D01*
X012047Y022759D01*
X011925Y022636D01*
X011575Y022286D01*
X011575Y021209D01*
X011247Y021209D01*
X011125Y021086D01*
X010747Y020709D01*
X006747Y020709D01*
X006625Y020586D01*
X006215Y020176D01*
X006215Y014289D01*
X006130Y014289D01*
X006055Y014213D01*
X006055Y013227D01*
X006099Y013182D01*
X005845Y012928D01*
X005845Y009743D01*
X005793Y009722D01*
X005771Y009700D01*
X005712Y009700D01*
X005637Y009624D01*
X005637Y009513D01*
X005609Y009447D01*
X005609Y009278D01*
X005637Y009211D01*
X005637Y009006D01*
X005712Y008930D01*
X005734Y008930D01*
X005708Y008923D01*
X005674Y008903D01*
X005646Y008876D01*
X005626Y008841D01*
X005616Y008803D01*
X005616Y008578D01*
X006031Y008578D01*
X006031Y008478D01*
X006131Y008478D01*
X006131Y008578D01*
X006546Y008578D01*
X006546Y008803D01*
X006535Y008841D01*
X006516Y008876D01*
X006488Y008903D01*
X006453Y008923D01*
X006427Y008930D01*
X006449Y008930D01*
X006524Y009006D01*
X006524Y009173D01*
X006912Y009173D01*
X006797Y009059D01*
X006675Y008936D01*
X006675Y008794D01*
X006611Y008730D01*
X006611Y008270D01*
X006686Y008194D01*
X007069Y008194D01*
X007122Y008247D01*
X007131Y008231D01*
X007159Y008203D01*
X007194Y008183D01*
X007232Y008173D01*
X007370Y008173D01*
X007370Y008481D01*
X007408Y008481D01*
X007408Y008173D01*
X007547Y008173D01*
X007583Y008183D01*
X007620Y008173D01*
X007759Y008173D01*
X007759Y008481D01*
X007796Y008481D01*
X007796Y008173D01*
X007935Y008173D01*
X007973Y008183D01*
X008007Y008203D01*
X008035Y008231D01*
X008045Y008247D01*
X008098Y008194D01*
X008195Y008194D01*
X008195Y007864D01*
X007050Y007864D01*
X006963Y007900D02*
X006704Y007900D01*
X006465Y007801D01*
X006282Y007618D01*
X006183Y007379D01*
X006183Y007121D01*
X006282Y006882D01*
X006377Y006787D01*
X006276Y006787D01*
X006171Y006743D01*
X006090Y006663D01*
X006046Y006557D01*
X006046Y006443D01*
X006090Y006337D01*
X006171Y006257D01*
X006276Y006213D01*
X006390Y006213D01*
X006496Y006257D01*
X006551Y006311D01*
X007276Y006311D01*
X007294Y006300D01*
X007352Y006311D01*
X007412Y006311D01*
X007426Y006326D01*
X007447Y006330D01*
X007480Y006380D01*
X007522Y006422D01*
X007522Y006443D01*
X007934Y007061D01*
X008159Y007061D01*
X008159Y006954D01*
X008235Y006879D01*
X008932Y006879D01*
X010921Y006879D01*
X010907Y006913D02*
X011012Y006659D01*
X011206Y006465D01*
X011459Y006360D01*
X011734Y006360D01*
X011987Y006465D01*
X012181Y006659D01*
X012286Y006913D01*
X012286Y007187D01*
X012181Y007441D01*
X011987Y007635D01*
X011971Y007641D01*
X014095Y007641D01*
X014080Y007635D01*
X013886Y007441D01*
X013781Y007187D01*
X013781Y006913D01*
X013886Y006659D01*
X014080Y006465D01*
X014333Y006360D01*
X014608Y006360D01*
X014861Y006465D01*
X015055Y006659D01*
X015160Y006913D01*
X015160Y007187D01*
X015055Y007441D01*
X014861Y007635D01*
X014726Y007691D01*
X014743Y007715D01*
X014792Y007764D01*
X014792Y007783D01*
X014993Y008065D01*
X015042Y008114D01*
X015042Y008133D01*
X015053Y008149D01*
X015042Y008217D01*
X015042Y009286D01*
X014985Y009343D01*
X014994Y009343D01*
X015107Y009390D01*
X015159Y009441D01*
X016697Y009441D01*
X017025Y009114D01*
X017025Y008924D01*
X016898Y008924D01*
X016833Y008859D01*
X016769Y008924D01*
X016150Y008924D01*
X016075Y008849D01*
X015042Y008849D01*
X015042Y008751D02*
X016075Y008751D01*
X016075Y008849D02*
X016075Y008151D01*
X016150Y008076D01*
X016281Y008076D01*
X016281Y007713D01*
X016385Y007609D01*
X016385Y007609D01*
X016629Y007365D01*
X016308Y007365D01*
X015872Y007801D01*
X015872Y007907D01*
X015828Y008014D01*
X015747Y008095D01*
X015641Y008139D01*
X015526Y008139D01*
X015420Y008095D01*
X015339Y008014D01*
X015295Y007907D01*
X015295Y007793D01*
X015339Y007686D01*
X015420Y007605D01*
X015526Y007561D01*
X015606Y007561D01*
X016055Y007112D01*
X016055Y006710D01*
X016130Y006635D01*
X016709Y006635D01*
X016785Y006710D01*
X016785Y007209D01*
X016882Y007112D01*
X016882Y006710D01*
X016957Y006635D01*
X017536Y006635D01*
X017583Y006682D01*
X017583Y006682D01*
X017630Y006635D01*
X018209Y006635D01*
X018285Y006710D01*
X018285Y007290D01*
X018209Y007365D01*
X017958Y007365D01*
X017762Y007561D01*
X017762Y007670D01*
X017828Y007736D01*
X017872Y007843D01*
X017872Y007957D01*
X017828Y008064D01*
X017816Y008076D01*
X018269Y008076D01*
X018333Y008141D01*
X018398Y008076D01*
X018568Y008076D01*
X018568Y007365D01*
X018457Y007365D01*
X018382Y007290D01*
X018382Y006710D01*
X018457Y006635D01*
X019036Y006635D01*
X019112Y006710D01*
X019112Y007290D01*
X019036Y007365D01*
X018925Y007365D01*
X018925Y008076D01*
X019017Y008076D01*
X019092Y008151D01*
X019092Y008707D01*
X019125Y008675D01*
X019125Y008564D01*
X019247Y008441D01*
X019397Y008291D01*
X019575Y008291D01*
X019575Y008151D01*
X019650Y008076D01*
X020269Y008076D01*
X020333Y008141D01*
X020398Y008076D01*
X020505Y008076D01*
X020505Y007929D01*
X020009Y007929D01*
X019905Y007824D01*
X019755Y007674D01*
X019755Y007365D01*
X019480Y007365D01*
X019405Y007290D01*
X019405Y006710D01*
X019480Y006635D01*
X020059Y006635D01*
X020135Y006710D01*
X020135Y007290D01*
X020112Y007312D01*
X020112Y007526D01*
X020157Y007571D01*
X020657Y007571D01*
X020757Y007671D01*
X020862Y007776D01*
X020862Y008076D01*
X021017Y008076D01*
X021083Y008143D01*
X021150Y008076D01*
X021769Y008076D01*
X021833Y008141D01*
X021898Y008076D01*
X022068Y008076D01*
X022068Y007365D01*
X021957Y007365D01*
X021882Y007290D01*
X021882Y006710D01*
X021957Y006635D01*
X022536Y006635D01*
X022612Y006710D01*
X022612Y007290D01*
X022536Y007365D01*
X022425Y007365D01*
X022425Y007633D01*
X022522Y007593D01*
X022626Y007593D01*
X022626Y007489D01*
X022673Y007376D01*
X022760Y007290D01*
X022855Y007250D01*
X022855Y006710D01*
X022930Y006635D01*
X023509Y006635D01*
X023585Y006710D01*
X023585Y007290D01*
X023562Y007312D01*
X023572Y007322D01*
X023572Y007363D01*
X023588Y007401D01*
X023585Y007407D01*
X023623Y007400D01*
X023640Y007411D01*
X023963Y007411D01*
X023951Y007365D01*
X023757Y007365D01*
X023682Y007290D01*
X023682Y006710D01*
X023757Y006635D01*
X024336Y006635D01*
X024412Y006710D01*
X024412Y007290D01*
X024341Y007360D01*
X024352Y007402D01*
X024372Y007422D01*
X024372Y007475D01*
X024386Y007526D01*
X024372Y007550D01*
X024372Y007578D01*
X024335Y007616D01*
X024308Y007661D01*
X024281Y007669D01*
X024272Y007678D01*
X024162Y007789D01*
X023684Y007789D01*
X023572Y007957D01*
X023572Y007978D01*
X023530Y008020D01*
X023506Y008056D01*
X024099Y008056D01*
X024175Y008132D01*
X024175Y008868D01*
X024099Y008944D01*
X024012Y008944D01*
X024012Y009770D01*
X024078Y009836D01*
X024122Y009943D01*
X024122Y010057D01*
X024078Y010164D01*
X024009Y010233D01*
X025083Y010233D01*
X025312Y010461D01*
X025498Y010461D01*
X025498Y010454D01*
X025524Y010428D01*
X025498Y010403D01*
X025498Y010021D01*
X025574Y009945D01*
X026271Y009945D01*
X026346Y010021D01*
X026346Y010403D01*
X026321Y010428D01*
X026346Y010454D01*
X026346Y010456D01*
X026757Y010456D01*
X026758Y010455D01*
X026834Y010456D01*
X026912Y010456D01*
X026913Y010457D01*
X027314Y010462D01*
X027423Y010574D01*
X027423Y010592D01*
X027962Y011176D01*
X028003Y011217D01*
X028003Y006416D01*
X027993Y006288D01*
X020290Y006288D01*
X020244Y006307D02*
X020122Y006307D01*
X020010Y006260D01*
X019938Y006189D01*
X017411Y006189D01*
X017169Y006261D01*
X017143Y006324D01*
X017057Y006410D01*
X016944Y006457D01*
X016822Y006457D01*
X016710Y006410D01*
X016623Y006324D01*
X016576Y006211D01*
X016576Y006089D01*
X016623Y005976D01*
X016710Y005890D01*
X016822Y005843D01*
X016944Y005843D01*
X017057Y005890D01*
X017066Y005898D01*
X017284Y005833D01*
X017305Y005811D01*
X017356Y005811D01*
X017404Y005797D01*
X017431Y005811D01*
X019938Y005811D01*
X020010Y005740D01*
X020122Y005693D01*
X020244Y005693D01*
X020357Y005740D01*
X020443Y005826D01*
X020490Y005939D01*
X020490Y006061D01*
X020443Y006174D01*
X020357Y006260D01*
X020244Y006307D01*
X020077Y006288D02*
X017158Y006288D01*
X017081Y006387D02*
X028001Y006387D01*
X028003Y006485D02*
X014881Y006485D01*
X014979Y006584D02*
X026352Y006584D01*
X026315Y006599D02*
X026554Y006500D01*
X026813Y006500D01*
X027052Y006599D01*
X027234Y006782D01*
X027333Y007021D01*
X027333Y007279D01*
X027234Y007518D01*
X027052Y007701D01*
X026813Y007800D01*
X026554Y007800D01*
X026315Y007701D01*
X026132Y007518D01*
X026033Y007279D01*
X026033Y007021D01*
X026132Y006782D01*
X026315Y006599D01*
X026232Y006682D02*
X024383Y006682D01*
X024412Y006781D02*
X026134Y006781D01*
X026092Y006879D02*
X024412Y006879D01*
X024412Y006978D02*
X026051Y006978D01*
X026033Y007076D02*
X024412Y007076D01*
X024412Y007175D02*
X026033Y007175D01*
X026033Y007273D02*
X024412Y007273D01*
X024344Y007372D02*
X026072Y007372D01*
X026112Y007470D02*
X024372Y007470D01*
X024372Y007569D02*
X026183Y007569D01*
X026281Y007667D02*
X024288Y007667D01*
X024185Y007766D02*
X026471Y007766D01*
X026546Y008035D02*
X026584Y008045D01*
X026618Y008065D01*
X026646Y008093D01*
X026666Y008127D01*
X026676Y008165D01*
X026676Y008450D01*
X026123Y008450D01*
X026123Y008035D01*
X026546Y008035D01*
X026611Y008061D02*
X028003Y008061D01*
X028003Y007963D02*
X023572Y007963D01*
X023634Y007864D02*
X028003Y007864D01*
X028003Y007766D02*
X026896Y007766D01*
X027086Y007667D02*
X028003Y007667D01*
X028003Y007569D02*
X027184Y007569D01*
X027254Y007470D02*
X028003Y007470D01*
X028003Y007372D02*
X027295Y007372D01*
X027333Y007273D02*
X028003Y007273D01*
X028003Y007175D02*
X027333Y007175D01*
X027333Y007076D02*
X028003Y007076D01*
X028003Y006978D02*
X027315Y006978D01*
X027275Y006879D02*
X028003Y006879D01*
X028003Y006781D02*
X027233Y006781D01*
X027135Y006682D02*
X028003Y006682D01*
X028003Y006584D02*
X027014Y006584D01*
X027558Y005689D02*
X027764Y005839D01*
X027914Y006046D01*
X027993Y006288D01*
X027961Y006190D02*
X020428Y006190D01*
X020478Y006091D02*
X027929Y006091D01*
X027876Y005993D02*
X020490Y005993D01*
X020472Y005894D02*
X027804Y005894D01*
X027704Y005796D02*
X020413Y005796D01*
X020254Y005697D02*
X027569Y005697D01*
X027558Y005689D02*
X027315Y005610D01*
X027187Y005600D01*
X007058Y005600D01*
X007056Y005602D01*
X006997Y005600D01*
X006992Y005600D01*
X006803Y005607D01*
X006430Y005694D01*
X006093Y005875D01*
X006073Y005894D02*
X008141Y005894D01*
X008138Y005905D02*
X008148Y005867D01*
X008168Y005833D01*
X008196Y005805D01*
X008230Y005785D01*
X008268Y005775D01*
X008533Y005775D01*
X008533Y006259D01*
X008138Y006259D01*
X008138Y005905D01*
X008138Y005993D02*
X005968Y005993D01*
X005863Y006091D02*
X008138Y006091D01*
X008138Y006190D02*
X005781Y006190D01*
X005720Y006288D02*
X006139Y006288D01*
X006070Y006387D02*
X005659Y006387D01*
X005605Y006485D02*
X006046Y006485D01*
X006057Y006584D02*
X005576Y006584D01*
X005546Y006682D02*
X006109Y006682D01*
X006260Y006781D02*
X005516Y006781D01*
X005497Y006879D02*
X006285Y006879D01*
X006243Y006978D02*
X005487Y006978D01*
X005483Y007076D02*
X006202Y007076D01*
X006183Y007175D02*
X005483Y007175D01*
X005483Y007273D02*
X006183Y007273D01*
X006183Y007372D02*
X005483Y007372D01*
X005483Y007470D02*
X006221Y007470D01*
X006262Y007569D02*
X005483Y007569D01*
X005483Y007667D02*
X006331Y007667D01*
X006430Y007766D02*
X005483Y007766D01*
X005483Y007864D02*
X006617Y007864D01*
X006453Y008132D02*
X006488Y008152D01*
X006516Y008180D01*
X006535Y008214D01*
X006546Y008252D01*
X006546Y008478D01*
X006131Y008478D01*
X006131Y008122D01*
X006415Y008122D01*
X006453Y008132D01*
X006496Y008160D02*
X008195Y008160D01*
X008195Y008061D02*
X005483Y008061D01*
X005483Y007963D02*
X008195Y007963D01*
X008195Y007864D02*
X008159Y007829D01*
X008159Y007513D01*
X008125Y007478D01*
X008125Y007439D01*
X007890Y007439D01*
X007873Y007450D01*
X007815Y007439D01*
X007755Y007439D01*
X007740Y007424D01*
X007720Y007420D01*
X007687Y007370D01*
X007645Y007328D01*
X007645Y007307D01*
X007423Y006974D01*
X007483Y007121D01*
X007483Y007379D01*
X007384Y007618D01*
X007202Y007801D01*
X006963Y007900D01*
X007237Y007766D02*
X008159Y007766D01*
X008159Y007667D02*
X007336Y007667D01*
X007405Y007569D02*
X008159Y007569D01*
X008125Y007470D02*
X007446Y007470D01*
X007483Y007372D02*
X007687Y007372D01*
X007622Y007273D02*
X007483Y007273D01*
X007483Y007175D02*
X007556Y007175D01*
X007490Y007076D02*
X007465Y007076D01*
X007425Y006978D02*
X007424Y006978D01*
X007747Y006781D02*
X008166Y006781D01*
X008168Y006785D02*
X008148Y006750D01*
X008138Y006712D01*
X008138Y006359D01*
X008533Y006359D01*
X008533Y006843D01*
X008268Y006843D01*
X008230Y006832D01*
X008196Y006813D01*
X008168Y006785D01*
X008138Y006682D02*
X007682Y006682D01*
X007616Y006584D02*
X008138Y006584D01*
X008138Y006485D02*
X007550Y006485D01*
X007487Y006387D02*
X008138Y006387D01*
X008533Y006387D02*
X008633Y006387D01*
X008633Y006359D02*
X008533Y006359D01*
X008533Y006259D01*
X008633Y006259D01*
X008633Y005775D01*
X008898Y005775D01*
X008937Y005785D01*
X008971Y005805D01*
X008999Y005833D01*
X009018Y005867D01*
X009029Y005905D01*
X009029Y006259D01*
X008633Y006259D01*
X008633Y006359D01*
X008633Y006843D01*
X008898Y006843D01*
X008937Y006832D01*
X008971Y006813D01*
X008999Y006785D01*
X009018Y006750D01*
X009029Y006712D01*
X009029Y006359D01*
X008633Y006359D01*
X008633Y006288D02*
X016608Y006288D01*
X016576Y006190D02*
X009029Y006190D01*
X009029Y006091D02*
X016576Y006091D01*
X016616Y005993D02*
X009029Y005993D01*
X009026Y005894D02*
X016705Y005894D01*
X017061Y005894D02*
X017080Y005894D01*
X017408Y006190D02*
X019939Y006190D01*
X020106Y006682D02*
X020235Y006682D01*
X020240Y006672D02*
X020268Y006644D01*
X020303Y006624D01*
X020341Y006614D01*
X020547Y006614D01*
X020547Y006950D01*
X020647Y006950D01*
X020647Y007050D01*
X020983Y007050D01*
X020983Y007256D01*
X020973Y007294D01*
X020953Y007328D01*
X020925Y007356D01*
X020891Y007376D01*
X020853Y007386D01*
X020647Y007386D01*
X020647Y007050D01*
X020547Y007050D01*
X020547Y007386D01*
X020341Y007386D01*
X020303Y007376D01*
X020268Y007356D01*
X020240Y007328D01*
X020221Y007294D01*
X020210Y007256D01*
X020210Y007050D01*
X020547Y007050D01*
X020547Y006950D01*
X020210Y006950D01*
X020210Y006744D01*
X020221Y006706D01*
X020240Y006672D01*
X020210Y006781D02*
X020135Y006781D01*
X020135Y006879D02*
X020210Y006879D01*
X020135Y006978D02*
X020547Y006978D01*
X020547Y007076D02*
X020647Y007076D01*
X020647Y006978D02*
X021370Y006978D01*
X021370Y006950D02*
X021034Y006950D01*
X021034Y006744D01*
X021044Y006706D01*
X021064Y006672D01*
X021092Y006644D01*
X021126Y006624D01*
X021164Y006614D01*
X021370Y006614D01*
X021370Y006950D01*
X021470Y006950D01*
X021470Y007050D01*
X021806Y007050D01*
X021806Y007256D01*
X021796Y007294D01*
X021776Y007328D01*
X021748Y007356D01*
X021714Y007376D01*
X021676Y007386D01*
X021470Y007386D01*
X021470Y007050D01*
X021370Y007050D01*
X021370Y007386D01*
X021164Y007386D01*
X021126Y007376D01*
X021092Y007356D01*
X021064Y007328D01*
X021044Y007294D01*
X021034Y007256D01*
X021034Y007050D01*
X021370Y007050D01*
X021370Y006950D01*
X021370Y006879D02*
X021470Y006879D01*
X021470Y006950D02*
X021470Y006614D01*
X021676Y006614D01*
X021714Y006624D01*
X021748Y006644D01*
X021776Y006672D01*
X021796Y006706D01*
X021806Y006744D01*
X021806Y006950D01*
X021470Y006950D01*
X021470Y006978D02*
X021882Y006978D01*
X021882Y007076D02*
X021806Y007076D01*
X021806Y007175D02*
X021882Y007175D01*
X021882Y007273D02*
X021802Y007273D01*
X021722Y007372D02*
X022068Y007372D01*
X022068Y007470D02*
X020112Y007470D01*
X020112Y007372D02*
X020295Y007372D01*
X020215Y007273D02*
X020135Y007273D01*
X020135Y007175D02*
X020210Y007175D01*
X020210Y007076D02*
X020135Y007076D01*
X019933Y007000D02*
X019933Y007600D01*
X020083Y007750D01*
X020583Y007750D01*
X020683Y007850D01*
X020683Y008476D01*
X020707Y008500D01*
X020862Y008061D02*
X022068Y008061D01*
X022068Y007963D02*
X020862Y007963D01*
X020862Y007864D02*
X022068Y007864D01*
X022068Y007766D02*
X020852Y007766D01*
X020753Y007667D02*
X022068Y007667D01*
X022068Y007569D02*
X020155Y007569D01*
X019945Y007864D02*
X018925Y007864D01*
X018925Y007766D02*
X019846Y007766D01*
X019755Y007667D02*
X018925Y007667D01*
X018925Y007569D02*
X019755Y007569D01*
X019755Y007470D02*
X018925Y007470D01*
X018925Y007372D02*
X019755Y007372D01*
X019405Y007273D02*
X019112Y007273D01*
X019112Y007175D02*
X019405Y007175D01*
X019405Y007076D02*
X019112Y007076D01*
X019112Y006978D02*
X019405Y006978D01*
X019405Y006879D02*
X019112Y006879D01*
X019112Y006781D02*
X019405Y006781D01*
X019433Y006682D02*
X019083Y006682D01*
X018747Y007000D02*
X018747Y008461D01*
X018707Y008500D01*
X019092Y008455D02*
X019233Y008455D01*
X019135Y008554D02*
X019092Y008554D01*
X019092Y008652D02*
X019125Y008652D01*
X019092Y008357D02*
X019332Y008357D01*
X019092Y008258D02*
X019575Y008258D01*
X019575Y008160D02*
X019092Y008160D01*
X018925Y008061D02*
X020505Y008061D01*
X020505Y007963D02*
X018925Y007963D01*
X018568Y007963D02*
X017870Y007963D01*
X017872Y007864D02*
X018568Y007864D01*
X018568Y007766D02*
X017840Y007766D01*
X017762Y007667D02*
X018568Y007667D01*
X018568Y007569D02*
X017762Y007569D01*
X017853Y007470D02*
X018568Y007470D01*
X018568Y007372D02*
X017951Y007372D01*
X017920Y007150D02*
X017920Y007000D01*
X017920Y007150D02*
X017583Y007487D01*
X017583Y007900D01*
X017829Y008061D02*
X018568Y008061D01*
X017959Y008500D02*
X017207Y008500D01*
X017025Y008948D02*
X015042Y008948D01*
X015042Y009046D02*
X017025Y009046D01*
X016994Y009145D02*
X015042Y009145D01*
X015042Y009243D02*
X016895Y009243D01*
X016797Y009342D02*
X014987Y009342D01*
X015157Y009440D02*
X016698Y009440D01*
X016993Y009736D02*
X017153Y009736D01*
X017097Y009791D02*
X017297Y009591D01*
X017970Y009591D01*
X018092Y009714D01*
X018737Y010358D01*
X018772Y010343D01*
X018894Y010343D01*
X019007Y010390D01*
X019093Y010476D01*
X019140Y010589D01*
X019140Y010711D01*
X019093Y010824D01*
X019007Y010910D01*
X018894Y010957D01*
X018772Y010957D01*
X018660Y010910D01*
X018573Y010824D01*
X018546Y010758D01*
X017797Y010009D01*
X017470Y010009D01*
X017270Y010209D01*
X016450Y010209D01*
X016443Y010224D01*
X016357Y010310D01*
X016244Y010357D01*
X016122Y010357D01*
X016010Y010310D01*
X015923Y010224D01*
X015876Y010111D01*
X015876Y009989D01*
X015923Y009876D01*
X015941Y009859D01*
X015159Y009859D01*
X015107Y009910D01*
X014994Y009957D01*
X014872Y009957D01*
X014760Y009910D01*
X014673Y009824D01*
X014626Y009711D01*
X014626Y009702D01*
X014620Y009709D01*
X013147Y009709D01*
X012830Y009392D01*
X012815Y009385D01*
X012730Y009301D01*
X012714Y009323D01*
X012669Y009369D01*
X012617Y009406D01*
X012560Y009435D01*
X012499Y009455D01*
X012435Y009465D01*
X012432Y009465D01*
X012432Y009087D01*
X012375Y009087D01*
X012375Y009465D01*
X012371Y009465D01*
X012308Y009455D01*
X012247Y009435D01*
X012190Y009406D01*
X012138Y009369D01*
X012093Y009323D01*
X012055Y009271D01*
X012026Y009214D01*
X012006Y009153D01*
X011996Y009090D01*
X011996Y009087D01*
X012375Y009087D01*
X012375Y009029D01*
X011996Y009029D01*
X011996Y009026D01*
X012006Y008962D01*
X012026Y008901D01*
X012055Y008844D01*
X012093Y008792D01*
X012138Y008747D01*
X012190Y008709D01*
X012247Y008680D01*
X012308Y008660D01*
X012332Y008657D01*
X012332Y008509D01*
X012391Y008367D01*
X012449Y008309D01*
X011754Y008309D01*
X011642Y008505D01*
X011642Y009857D01*
X011792Y009857D01*
X011811Y009846D01*
X011849Y009836D01*
X011938Y009836D01*
X012026Y009836D01*
X012064Y009846D01*
X012083Y009857D01*
X012315Y009857D01*
X012322Y009863D01*
X012328Y009857D01*
X012560Y009857D01*
X012579Y009846D01*
X012617Y009836D01*
X012705Y009836D01*
X012705Y010261D01*
X012705Y010686D01*
X012697Y010686D01*
X012740Y010789D01*
X012740Y010911D01*
X012693Y011024D01*
X012642Y011075D01*
X012642Y011114D01*
X012792Y011264D01*
X012792Y011541D01*
X013070Y011541D01*
X013192Y011664D01*
X013220Y011691D01*
X013520Y011691D01*
X013820Y011991D01*
X013858Y012030D01*
X013897Y011991D01*
X014535Y011991D01*
X014460Y011960D01*
X014373Y011874D01*
X014326Y011761D01*
X014326Y011707D01*
X014272Y011707D01*
X014160Y011660D01*
X014073Y011574D01*
X014026Y011461D01*
X014026Y011339D01*
X014073Y011226D01*
X014160Y011140D01*
X014272Y011093D01*
X014394Y011093D01*
X014507Y011140D01*
X014579Y011211D01*
X015880Y011211D01*
X015905Y011188D01*
X016043Y011193D01*
X015973Y011124D01*
X015926Y011011D01*
X015926Y010889D01*
X015973Y010776D01*
X016060Y010690D01*
X016172Y010643D01*
X016294Y010643D01*
X016407Y010690D01*
X016493Y010776D01*
X016540Y010889D01*
X016540Y010999D01*
X016726Y011232D01*
X016726Y011189D01*
X016773Y011076D01*
X016860Y010990D01*
X016972Y010943D01*
X017094Y010943D01*
X017207Y010990D01*
X017279Y011061D01*
X019288Y011061D01*
X019245Y010957D01*
X019245Y010843D01*
X019289Y010736D01*
X019370Y010655D01*
X019476Y010611D01*
X019591Y010611D01*
X019697Y010655D01*
X019771Y010729D01*
X021502Y010788D01*
X021502Y010080D01*
X021578Y010004D01*
X022235Y010004D01*
X022311Y010080D01*
X022311Y010815D01*
X022392Y010818D01*
X022655Y010444D01*
X022655Y010426D01*
X022696Y010385D01*
X022729Y010337D01*
X022747Y010334D01*
X022759Y010321D01*
X022818Y010321D01*
X022875Y010311D01*
X022890Y010321D01*
X023166Y010321D01*
X023255Y010233D01*
X023658Y010233D01*
X023589Y010164D01*
X023545Y010057D01*
X023545Y009943D01*
X023589Y009836D01*
X023655Y009770D01*
X023655Y008944D01*
X023087Y008944D01*
X023012Y008868D01*
X023012Y008132D01*
X023055Y008089D01*
X022829Y008089D01*
X022757Y008160D01*
X022644Y008207D01*
X022592Y008207D01*
X022592Y008849D01*
X022517Y008924D01*
X021898Y008924D01*
X021833Y008859D01*
X021811Y008882D01*
X021970Y009041D01*
X022620Y009041D01*
X022622Y009043D01*
X022694Y009043D01*
X022807Y009090D01*
X022893Y009176D01*
X022940Y009289D01*
X022940Y009411D01*
X022893Y009524D01*
X022807Y009610D01*
X022694Y009657D01*
X022572Y009657D01*
X022460Y009610D01*
X022373Y009524D01*
X022346Y009459D01*
X021797Y009459D01*
X021675Y009336D01*
X021440Y009102D01*
X021440Y009161D01*
X021393Y009274D01*
X021307Y009360D01*
X021194Y009407D01*
X021072Y009407D01*
X020960Y009360D01*
X020873Y009274D01*
X020838Y009189D01*
X020255Y009189D01*
X020145Y009078D01*
X019990Y008924D01*
X019650Y008924D01*
X019640Y008914D01*
X019640Y008961D01*
X019593Y009074D01*
X019507Y009160D01*
X019394Y009207D01*
X019322Y009207D01*
X019170Y009359D01*
X017997Y009359D01*
X017875Y009236D01*
X017751Y009112D01*
X017751Y008924D01*
X017650Y008924D01*
X017583Y008857D01*
X017517Y008924D01*
X017442Y008924D01*
X017442Y009286D01*
X017320Y009409D01*
X016937Y009791D01*
X017097Y009791D01*
X017092Y009637D02*
X017251Y009637D01*
X017190Y009539D02*
X022388Y009539D01*
X022524Y009637D02*
X018016Y009637D01*
X018114Y009736D02*
X023655Y009736D01*
X023655Y009637D02*
X022742Y009637D01*
X022879Y009539D02*
X023655Y009539D01*
X023655Y009440D02*
X022928Y009440D01*
X022940Y009342D02*
X023655Y009342D01*
X023655Y009243D02*
X022921Y009243D01*
X022862Y009145D02*
X023655Y009145D01*
X023655Y009046D02*
X022701Y009046D01*
X022592Y008849D02*
X023012Y008849D01*
X023012Y008751D02*
X022592Y008751D01*
X022592Y008652D02*
X023012Y008652D01*
X023012Y008554D02*
X022592Y008554D01*
X022592Y008455D02*
X023012Y008455D01*
X023012Y008357D02*
X022592Y008357D01*
X022592Y008258D02*
X023012Y008258D01*
X023012Y008160D02*
X022758Y008160D01*
X022247Y008461D02*
X022247Y007000D01*
X022612Y006978D02*
X022855Y006978D01*
X022855Y007076D02*
X022612Y007076D01*
X022612Y007175D02*
X022855Y007175D01*
X022800Y007273D02*
X022612Y007273D01*
X022678Y007372D02*
X022425Y007372D01*
X022425Y007470D02*
X022634Y007470D01*
X022626Y007569D02*
X022425Y007569D01*
X022612Y006879D02*
X022855Y006879D01*
X022855Y006781D02*
X022612Y006781D01*
X022583Y006682D02*
X022883Y006682D01*
X023556Y006682D02*
X023710Y006682D01*
X023682Y006781D02*
X023585Y006781D01*
X023585Y006879D02*
X023682Y006879D01*
X023682Y006978D02*
X023585Y006978D01*
X023585Y007076D02*
X023682Y007076D01*
X023682Y007175D02*
X023585Y007175D01*
X023585Y007273D02*
X023682Y007273D01*
X023576Y007372D02*
X023953Y007372D01*
X024104Y008061D02*
X025536Y008061D01*
X025529Y008065D02*
X025563Y008045D01*
X025601Y008035D01*
X026023Y008035D01*
X026023Y008450D01*
X025471Y008450D01*
X025471Y008165D01*
X025481Y008127D01*
X025501Y008093D01*
X025529Y008065D01*
X025472Y008160D02*
X024175Y008160D01*
X024175Y008258D02*
X025471Y008258D01*
X025471Y008357D02*
X024175Y008357D01*
X024175Y008455D02*
X026023Y008455D01*
X026023Y008450D02*
X026023Y008550D01*
X025471Y008550D01*
X025471Y008835D01*
X025481Y008873D01*
X025501Y008907D01*
X025529Y008935D01*
X025563Y008955D01*
X025601Y008965D01*
X026023Y008965D01*
X026023Y008550D01*
X026123Y008550D01*
X026123Y008965D01*
X026546Y008965D01*
X026584Y008955D01*
X026618Y008935D01*
X026646Y008907D01*
X026666Y008873D01*
X026676Y008835D01*
X026676Y008550D01*
X026123Y008550D01*
X026123Y008450D01*
X026023Y008450D01*
X026023Y008357D02*
X026123Y008357D01*
X026123Y008455D02*
X028003Y008455D01*
X028003Y008357D02*
X026676Y008357D01*
X026676Y008258D02*
X028003Y008258D01*
X028003Y008160D02*
X026675Y008160D01*
X026676Y008554D02*
X028003Y008554D01*
X028003Y008652D02*
X026676Y008652D01*
X026676Y008751D02*
X028003Y008751D01*
X028003Y008849D02*
X026672Y008849D01*
X026597Y008948D02*
X028003Y008948D01*
X028003Y009046D02*
X024012Y009046D01*
X024012Y008948D02*
X025550Y008948D01*
X025475Y008849D02*
X024175Y008849D01*
X024175Y008751D02*
X025471Y008751D01*
X025471Y008652D02*
X024175Y008652D01*
X024175Y008554D02*
X025471Y008554D01*
X026023Y008554D02*
X026123Y008554D01*
X026123Y008652D02*
X026023Y008652D01*
X026023Y008751D02*
X026123Y008751D01*
X026123Y008849D02*
X026023Y008849D01*
X026023Y008948D02*
X026123Y008948D01*
X026123Y008258D02*
X026023Y008258D01*
X026023Y008160D02*
X026123Y008160D01*
X026123Y008061D02*
X026023Y008061D01*
X026632Y009442D02*
X026670Y009432D01*
X027014Y009432D01*
X027014Y009807D01*
X027114Y009807D01*
X027114Y009432D01*
X027458Y009432D01*
X027496Y009442D01*
X027530Y009462D01*
X027558Y009490D01*
X027578Y009524D01*
X027588Y009562D01*
X027588Y009807D01*
X027114Y009807D01*
X027114Y009907D01*
X027588Y009907D01*
X027588Y010153D01*
X027578Y010191D01*
X027558Y010225D01*
X027530Y010253D01*
X027496Y010273D01*
X027458Y010283D01*
X027114Y010283D01*
X027114Y009907D01*
X027014Y009907D01*
X027014Y009807D01*
X026540Y009807D01*
X026540Y009562D01*
X026550Y009524D01*
X026570Y009490D01*
X026598Y009462D01*
X026632Y009442D01*
X026640Y009440D02*
X024012Y009440D01*
X024012Y009342D02*
X028003Y009342D01*
X028003Y009440D02*
X027488Y009440D01*
X027582Y009539D02*
X028003Y009539D01*
X028003Y009637D02*
X027588Y009637D01*
X027588Y009736D02*
X028003Y009736D01*
X028003Y009834D02*
X027114Y009834D01*
X027114Y009736D02*
X027014Y009736D01*
X027014Y009834D02*
X024076Y009834D01*
X024118Y009933D02*
X026540Y009933D01*
X026540Y009907D02*
X026540Y010153D01*
X026550Y010191D01*
X026570Y010225D01*
X026598Y010253D01*
X026632Y010273D01*
X026670Y010283D01*
X027014Y010283D01*
X027014Y009907D01*
X026540Y009907D01*
X026540Y010031D02*
X026346Y010031D01*
X026346Y010130D02*
X026540Y010130D01*
X026573Y010228D02*
X026346Y010228D01*
X026346Y010327D02*
X028003Y010327D01*
X028003Y010425D02*
X026324Y010425D01*
X026524Y010918D02*
X027237Y010918D01*
X027328Y011016D02*
X026525Y011016D01*
X026525Y011115D02*
X027419Y011115D01*
X027510Y011213D02*
X026525Y011213D01*
X026491Y011312D02*
X027601Y011312D01*
X027655Y011410D02*
X026346Y011410D01*
X026346Y011509D02*
X027655Y011509D01*
X027655Y011607D02*
X026346Y011607D01*
X026456Y011706D02*
X027655Y011706D01*
X027655Y011804D02*
X026504Y011804D01*
X026504Y011903D02*
X027655Y011903D01*
X027655Y012001D02*
X026504Y012001D01*
X026504Y012100D02*
X027655Y012100D01*
X027655Y012198D02*
X026441Y012198D01*
X026346Y012297D02*
X027655Y012297D01*
X027655Y012395D02*
X026346Y012395D01*
X026346Y012494D02*
X027655Y012494D01*
X027655Y012592D02*
X026323Y012592D01*
X026189Y012691D02*
X027655Y012691D01*
X027655Y012789D02*
X026189Y012789D01*
X026189Y012888D02*
X027655Y012888D01*
X027595Y012986D02*
X026280Y012986D01*
X026346Y013085D02*
X027496Y013085D01*
X027398Y013183D02*
X026346Y013183D01*
X026346Y013282D02*
X027299Y013282D01*
X027201Y013380D02*
X026346Y013380D01*
X026302Y013479D02*
X027102Y013479D01*
X027004Y013577D02*
X023361Y013577D01*
X023273Y013676D02*
X026905Y013676D01*
X026807Y013774D02*
X023186Y013774D01*
X023098Y013873D02*
X026708Y013873D01*
X026610Y013971D02*
X023011Y013971D01*
X023450Y013479D02*
X025542Y013479D01*
X025498Y013380D02*
X023494Y013380D01*
X023492Y013282D02*
X025498Y013282D01*
X025498Y013183D02*
X023492Y013183D01*
X023492Y013085D02*
X025498Y013085D01*
X025024Y012986D02*
X023492Y012986D01*
X023492Y012888D02*
X024926Y012888D01*
X024827Y012789D02*
X023492Y012789D01*
X023492Y012691D02*
X024729Y012691D01*
X024630Y012592D02*
X023492Y012592D01*
X023492Y012494D02*
X024532Y012494D01*
X024433Y012395D02*
X023492Y012395D01*
X023492Y012297D02*
X024335Y012297D01*
X023229Y011309D02*
X023177Y011309D01*
X022893Y011628D01*
X022893Y011633D01*
X022836Y011692D01*
X022782Y011753D01*
X022777Y011754D01*
X022773Y011757D01*
X022691Y011759D01*
X022609Y011763D01*
X022605Y011760D01*
X021588Y011775D01*
X021793Y011980D01*
X021793Y012120D01*
X021413Y012120D01*
X021413Y012180D01*
X021353Y012180D01*
X021353Y012120D01*
X020973Y012120D01*
X020973Y011980D01*
X021173Y011781D01*
X020572Y011789D01*
X020772Y011989D01*
X020772Y012311D01*
X020544Y012539D01*
X020222Y012539D01*
X019995Y012311D01*
X019995Y011989D01*
X020189Y011795D01*
X019462Y011805D01*
X019407Y011860D01*
X019294Y011907D01*
X019172Y011907D01*
X019060Y011860D01*
X018973Y011774D01*
X018926Y011661D01*
X018926Y011539D01*
X018968Y011439D01*
X017279Y011439D01*
X017226Y011491D01*
X018570Y011491D01*
X018692Y011614D01*
X020420Y013341D01*
X022147Y013341D01*
X022155Y013333D01*
X021578Y013333D01*
X021502Y013257D01*
X021502Y012560D01*
X021413Y012560D01*
X021413Y012180D01*
X021793Y012180D01*
X021793Y012320D01*
X021747Y012367D01*
X022235Y012367D01*
X022275Y012406D01*
X022275Y012264D01*
X022397Y012141D01*
X023229Y011309D01*
X023227Y011312D02*
X023175Y011312D01*
X023128Y011410D02*
X023087Y011410D01*
X023030Y011509D02*
X022999Y011509D01*
X022931Y011607D02*
X022912Y011607D01*
X022833Y011706D02*
X022824Y011706D01*
X022734Y011804D02*
X021617Y011804D01*
X021716Y011903D02*
X022636Y011903D01*
X022537Y012001D02*
X021793Y012001D01*
X021793Y012100D02*
X022439Y012100D01*
X022340Y012198D02*
X021793Y012198D01*
X021793Y012297D02*
X022275Y012297D01*
X022264Y012395D02*
X022275Y012395D01*
X021502Y012592D02*
X021125Y012592D01*
X021214Y012560D02*
X020973Y012320D01*
X020973Y012180D01*
X021353Y012180D01*
X021353Y012560D01*
X021214Y012560D01*
X021147Y012494D02*
X020590Y012494D01*
X020642Y012592D02*
X019671Y012592D01*
X019769Y012691D02*
X020543Y012691D01*
X020495Y012739D02*
X020722Y012511D01*
X021044Y012511D01*
X021272Y012739D01*
X021272Y013061D01*
X021044Y013289D01*
X020722Y013289D01*
X020495Y013061D01*
X020495Y012739D01*
X020495Y012789D02*
X019868Y012789D01*
X019966Y012888D02*
X020495Y012888D01*
X020495Y012986D02*
X020065Y012986D01*
X020163Y013085D02*
X020518Y013085D01*
X020617Y013183D02*
X020262Y013183D01*
X020360Y013282D02*
X020715Y013282D01*
X021052Y013282D02*
X021526Y013282D01*
X021502Y013183D02*
X021150Y013183D01*
X021249Y013085D02*
X021502Y013085D01*
X021502Y012986D02*
X021272Y012986D01*
X021272Y012888D02*
X021502Y012888D01*
X021502Y012789D02*
X021272Y012789D01*
X021224Y012691D02*
X021502Y012691D01*
X021413Y012494D02*
X021353Y012494D01*
X021353Y012395D02*
X021413Y012395D01*
X021413Y012297D02*
X021353Y012297D01*
X021353Y012198D02*
X021413Y012198D01*
X021049Y012395D02*
X020688Y012395D01*
X020772Y012297D02*
X020973Y012297D01*
X020973Y012198D02*
X020772Y012198D01*
X020772Y012100D02*
X020973Y012100D01*
X020973Y012001D02*
X020772Y012001D01*
X020686Y011903D02*
X021051Y011903D01*
X021149Y011804D02*
X020587Y011804D01*
X020180Y011804D02*
X019561Y011804D01*
X019305Y011903D02*
X020081Y011903D01*
X019995Y012001D02*
X019080Y012001D01*
X019162Y011903D02*
X018981Y011903D01*
X019003Y011804D02*
X018883Y011804D01*
X018945Y011706D02*
X018784Y011706D01*
X018686Y011607D02*
X018926Y011607D01*
X018939Y011509D02*
X018587Y011509D01*
X018677Y010918D02*
X016540Y010918D01*
X016553Y011016D02*
X016833Y011016D01*
X016757Y011115D02*
X016632Y011115D01*
X016711Y011213D02*
X016726Y011213D01*
X016511Y010819D02*
X018571Y010819D01*
X018509Y010721D02*
X016438Y010721D01*
X016029Y010721D02*
X014813Y010721D01*
X014822Y010743D02*
X014822Y010857D01*
X014778Y010964D01*
X014697Y011045D01*
X014591Y011089D01*
X014476Y011089D01*
X014370Y011045D01*
X014304Y010979D01*
X013646Y010979D01*
X013672Y011043D01*
X013672Y011157D01*
X013628Y011264D01*
X013547Y011345D01*
X013441Y011389D01*
X013326Y011389D01*
X013220Y011345D01*
X013139Y011264D01*
X013095Y011157D01*
X013095Y011127D01*
X012909Y011007D01*
X012887Y011007D01*
X012848Y010968D01*
X012802Y010938D01*
X012798Y010917D01*
X012783Y010902D01*
X012783Y010847D01*
X012771Y010793D01*
X012783Y010775D01*
X012783Y010686D01*
X012705Y010686D01*
X012705Y010261D01*
X012705Y010261D01*
X012705Y010261D01*
X012705Y009836D01*
X012794Y009836D01*
X012832Y009846D01*
X012851Y009857D01*
X013083Y009857D01*
X013089Y009863D01*
X013095Y009857D01*
X013339Y009857D01*
X013345Y009863D01*
X013351Y009857D01*
X013583Y009857D01*
X013603Y009846D01*
X013641Y009836D01*
X013729Y009836D01*
X013817Y009836D01*
X013855Y009846D01*
X013857Y009847D01*
X013859Y009846D01*
X013897Y009836D01*
X013985Y009836D01*
X014073Y009836D01*
X014111Y009846D01*
X014130Y009857D01*
X014363Y009857D01*
X014369Y009863D01*
X014375Y009857D01*
X014619Y009857D01*
X014694Y009932D01*
X014694Y010554D01*
X014697Y010555D01*
X014778Y010636D01*
X014822Y010743D01*
X014822Y010819D02*
X015955Y010819D01*
X015926Y010918D02*
X014797Y010918D01*
X014726Y011016D02*
X015929Y011016D01*
X015969Y011115D02*
X014446Y011115D01*
X014341Y011016D02*
X013661Y011016D01*
X013672Y011115D02*
X014221Y011115D01*
X014086Y011213D02*
X013649Y011213D01*
X013580Y011312D02*
X014038Y011312D01*
X014026Y011410D02*
X012792Y011410D01*
X012792Y011312D02*
X013187Y011312D01*
X013118Y011213D02*
X012742Y011213D01*
X012643Y011115D02*
X013076Y011115D01*
X012923Y011016D02*
X012697Y011016D01*
X012738Y010918D02*
X012798Y010918D01*
X012776Y010819D02*
X012740Y010819D01*
X012712Y010721D02*
X012783Y010721D01*
X012705Y010622D02*
X012705Y010622D01*
X012705Y010524D02*
X012705Y010524D01*
X012705Y010425D02*
X012705Y010425D01*
X012705Y010327D02*
X012705Y010327D01*
X012705Y010228D02*
X012705Y010228D01*
X012705Y010130D02*
X012705Y010130D01*
X012705Y010031D02*
X012705Y010031D01*
X012705Y009933D02*
X012705Y009933D01*
X012961Y010261D02*
X012961Y010828D01*
X013383Y011100D01*
X013372Y010800D02*
X013217Y010695D01*
X013217Y010261D01*
X013729Y010261D02*
X013729Y009836D01*
X013729Y010261D01*
X013948Y010261D01*
X013985Y010261D01*
X013985Y010261D01*
X013729Y010261D01*
X013729Y010261D01*
X013729Y010261D01*
X013729Y010228D02*
X013729Y010228D01*
X013729Y010130D02*
X013729Y010130D01*
X013729Y010031D02*
X013729Y010031D01*
X013729Y009933D02*
X013729Y009933D01*
X013985Y009933D02*
X013985Y009933D01*
X013985Y009836D02*
X013985Y010261D01*
X013985Y010261D01*
X013985Y009836D01*
X013985Y010031D02*
X013985Y010031D01*
X013985Y010130D02*
X013985Y010130D01*
X013985Y010228D02*
X013985Y010228D01*
X014694Y010228D02*
X015927Y010228D01*
X015884Y010130D02*
X014694Y010130D01*
X014694Y010031D02*
X015876Y010031D01*
X015900Y009933D02*
X015053Y009933D01*
X014814Y009933D02*
X014694Y009933D01*
X014683Y009834D02*
X011642Y009834D01*
X011642Y009736D02*
X014637Y009736D01*
X014694Y010327D02*
X016049Y010327D01*
X016318Y010327D02*
X018115Y010327D01*
X018213Y010425D02*
X014694Y010425D01*
X014694Y010524D02*
X018312Y010524D01*
X018410Y010622D02*
X014764Y010622D01*
X014533Y010800D02*
X013372Y010800D01*
X013136Y011607D02*
X014106Y011607D01*
X014046Y011509D02*
X012792Y011509D01*
X012375Y011509D02*
X011852Y011509D01*
X012225Y011286D02*
X012225Y011075D01*
X012173Y011024D01*
X012126Y010911D01*
X012126Y010789D01*
X012173Y010676D01*
X012185Y010664D01*
X012083Y010664D01*
X012064Y010675D01*
X012026Y010686D01*
X011938Y010686D01*
X011938Y010261D01*
X011938Y010261D01*
X011938Y010686D01*
X011865Y010686D01*
X011842Y010708D01*
X011828Y010745D01*
X011789Y010761D01*
X011760Y010790D01*
X011720Y010790D01*
X011416Y010920D01*
X011357Y010953D01*
X011346Y010950D01*
X011335Y010954D01*
X011272Y010929D01*
X010994Y010849D01*
X010981Y010854D01*
X010920Y010828D01*
X010856Y010810D01*
X010850Y010798D01*
X010837Y010793D01*
X010813Y010731D01*
X010807Y010721D01*
X010417Y010721D01*
X010417Y010024D01*
X010473Y010032D01*
X010540Y010054D01*
X010603Y010086D01*
X010637Y010111D01*
X010631Y010061D01*
X010604Y010009D01*
X009171Y010009D01*
X009206Y010074D01*
X009282Y010043D01*
X009452Y010043D01*
X009610Y010108D01*
X009731Y010228D01*
X009796Y010386D01*
X009796Y011157D01*
X009731Y011314D01*
X009610Y011435D01*
X009452Y011500D01*
X009282Y011500D01*
X009124Y011435D01*
X009004Y011314D01*
X008938Y011157D01*
X008938Y010386D01*
X008942Y010378D01*
X008814Y010141D01*
X008224Y009551D01*
X006524Y009551D01*
X006524Y009624D01*
X006449Y009700D01*
X006296Y009700D01*
X006274Y009722D01*
X006222Y009743D01*
X006222Y012772D01*
X006502Y013051D01*
X006602Y013151D01*
X006717Y013151D01*
X006792Y013227D01*
X006792Y014213D01*
X006717Y014289D01*
X006632Y014289D01*
X006632Y020004D01*
X006920Y020291D01*
X009429Y020291D01*
X009297Y020159D01*
X009175Y020036D01*
X009175Y018364D01*
X009276Y018262D01*
X009276Y018189D01*
X009318Y018089D01*
X008379Y018089D01*
X008307Y018160D01*
X008194Y018207D01*
X008072Y018207D01*
X007960Y018160D01*
X007873Y018074D01*
X007826Y017961D01*
X007826Y017839D01*
X007873Y017726D01*
X007960Y017640D01*
X008072Y017593D01*
X008194Y017593D01*
X008307Y017640D01*
X008379Y017711D01*
X011668Y017711D01*
X011626Y017611D01*
X011626Y017489D01*
X011673Y017376D01*
X011760Y017290D01*
X011872Y017243D01*
X011994Y017243D01*
X012107Y017290D01*
X012193Y017376D01*
X012240Y017489D01*
X012240Y017511D01*
X012262Y017511D01*
X012264Y017513D01*
X012787Y017528D01*
X012787Y017454D01*
X012808Y017433D01*
X012787Y017412D01*
X012787Y017257D01*
X012808Y017236D01*
X012787Y017216D01*
X012787Y017060D01*
X012897Y016950D01*
X013525Y016950D01*
X013635Y017060D01*
X013635Y017216D01*
X013615Y017236D01*
X013635Y017257D01*
X013635Y017412D01*
X013615Y017433D01*
X013635Y017454D01*
X013635Y017506D01*
X013690Y017491D01*
X013709Y017471D01*
X013759Y017471D01*
X013806Y017458D01*
X013830Y017471D01*
X014595Y017471D01*
X014595Y016774D01*
X014511Y016774D01*
X014491Y016754D01*
X014470Y016774D01*
X014315Y016774D01*
X014294Y016754D01*
X014273Y016774D01*
X014118Y016774D01*
X014097Y016754D01*
X014076Y016774D01*
X013921Y016774D01*
X013811Y016664D01*
X013811Y016579D01*
X013744Y016607D01*
X013622Y016607D01*
X013510Y016560D01*
X013423Y016474D01*
X013421Y016468D01*
X013342Y016644D01*
X013342Y016686D01*
X013308Y016720D01*
X013289Y016764D01*
X013250Y016779D01*
X013220Y016809D01*
X013172Y016809D01*
X013128Y016826D01*
X013089Y016809D01*
X008909Y016809D01*
X008857Y016860D01*
X008744Y016907D01*
X008622Y016907D01*
X008510Y016860D01*
X008423Y016774D01*
X008376Y016661D01*
X008376Y016539D01*
X008423Y016426D01*
X008510Y016340D01*
X008622Y016293D01*
X008744Y016293D01*
X008857Y016340D01*
X008909Y016391D01*
X011191Y016391D01*
X011173Y016374D01*
X011126Y016261D01*
X011126Y016139D01*
X011173Y016026D01*
X011260Y015940D01*
X011302Y015922D01*
X010756Y015389D01*
X010755Y015389D01*
X010701Y015334D01*
X010645Y015280D01*
X010645Y015279D01*
X010645Y015278D01*
X010645Y015201D01*
X010644Y015124D01*
X010645Y015123D01*
X010645Y014845D01*
X010573Y014774D01*
X010526Y014661D01*
X010526Y014539D01*
X010573Y014426D01*
X010660Y014340D01*
X010772Y014293D01*
X010894Y014293D01*
X011007Y014340D01*
X011093Y014426D01*
X011140Y014539D01*
X011140Y014661D01*
X011093Y014774D01*
X011022Y014845D01*
X011022Y015121D01*
X011606Y015692D01*
X011621Y015694D01*
X011630Y015705D01*
X011643Y015708D01*
X011669Y015754D01*
X011707Y015791D01*
X011707Y015806D01*
X011826Y015961D01*
X012086Y015961D01*
X012060Y015935D01*
X012016Y015829D01*
X012016Y015718D01*
X011704Y015373D01*
X011655Y015324D01*
X011655Y015319D01*
X011651Y015315D01*
X011654Y015259D01*
X011485Y015259D01*
X011409Y015183D01*
X011409Y014565D01*
X011474Y014500D01*
X011409Y014435D01*
X011409Y014239D01*
X011005Y014239D01*
X010378Y013612D01*
X010343Y013598D01*
X010325Y013559D01*
X010295Y013528D01*
X010295Y013490D01*
X010125Y013109D01*
X010095Y013078D01*
X010095Y013040D01*
X010079Y013005D01*
X010095Y012965D01*
X010095Y012922D01*
X010122Y012895D01*
X010135Y012859D01*
X010175Y012842D01*
X010395Y012622D01*
X010442Y012574D01*
X010098Y012574D01*
X010033Y012509D01*
X009969Y012574D01*
X009741Y012574D01*
X009743Y012576D01*
X009790Y012689D01*
X009790Y012811D01*
X009743Y012924D01*
X009657Y013010D01*
X009544Y013057D01*
X009422Y013057D01*
X009310Y013010D01*
X009252Y012953D01*
X007537Y012909D01*
X007522Y012909D01*
X007522Y013151D01*
X007627Y013151D01*
X007702Y013227D01*
X007702Y014213D01*
X007627Y014289D01*
X007040Y014289D01*
X006965Y014213D01*
X006965Y013227D01*
X007040Y013151D01*
X007145Y013151D01*
X007145Y012600D01*
X007100Y012556D01*
X007100Y012511D01*
X006921Y012287D01*
X006876Y012287D01*
X006771Y012243D01*
X006690Y012163D01*
X006646Y012057D01*
X006646Y011943D01*
X006688Y011842D01*
X006571Y011842D01*
X006496Y011766D01*
X006496Y010794D01*
X006571Y010718D01*
X006613Y010718D01*
X006551Y010656D01*
X006551Y009919D01*
X006626Y009844D01*
X007245Y009844D01*
X007320Y009919D01*
X007320Y009941D01*
X007327Y009915D01*
X007347Y009880D01*
X007375Y009852D01*
X007409Y009833D01*
X007447Y009822D01*
X007673Y009822D01*
X007673Y010237D01*
X007773Y010237D01*
X007773Y009822D01*
X007999Y009822D01*
X008037Y009833D01*
X008071Y009852D01*
X008099Y009880D01*
X008119Y009915D01*
X008129Y009953D01*
X008129Y010237D01*
X007773Y010237D01*
X007773Y010337D01*
X008129Y010337D01*
X008129Y010622D01*
X008938Y010622D01*
X008938Y010524D02*
X008129Y010524D01*
X008129Y010622D02*
X008119Y010660D01*
X008099Y010694D01*
X008075Y010718D01*
X008095Y010718D01*
X008171Y010794D01*
X008171Y011766D01*
X008095Y011842D01*
X007179Y011842D01*
X007220Y011943D01*
X007220Y012057D01*
X007384Y012261D01*
X007395Y012261D01*
X007628Y012493D01*
X009264Y012536D01*
X009275Y012525D01*
X009275Y012214D01*
X009275Y012213D01*
X009275Y011801D01*
X009350Y011726D01*
X009731Y011726D01*
X009762Y011686D01*
X009768Y011654D01*
X009814Y011621D01*
X009850Y011576D01*
X009882Y011573D01*
X010001Y011488D01*
X010055Y011438D01*
X010070Y011439D01*
X010083Y011430D01*
X010099Y011433D01*
X010074Y011414D01*
X010024Y011364D01*
X009982Y011307D01*
X009950Y011244D01*
X009928Y011177D01*
X009917Y011107D01*
X009917Y010821D01*
X010317Y010821D01*
X010317Y010721D01*
X010417Y010721D01*
X010417Y010821D01*
X010817Y010821D01*
X010817Y011107D01*
X010806Y011177D01*
X010784Y011244D01*
X010752Y011307D01*
X010710Y011364D01*
X010660Y011414D01*
X010603Y011456D01*
X010597Y011459D01*
X012375Y011529D01*
X012375Y011436D01*
X012347Y011409D01*
X012225Y011286D01*
X012250Y011312D02*
X010749Y011312D01*
X010794Y011213D02*
X012225Y011213D01*
X012225Y011115D02*
X010816Y011115D01*
X010817Y011016D02*
X012170Y011016D01*
X012129Y010918D02*
X011422Y010918D01*
X011233Y010918D02*
X010817Y010918D01*
X010888Y010819D02*
X010417Y010819D01*
X010417Y010821D02*
X010417Y011452D01*
X010317Y011448D01*
X010317Y010821D01*
X010417Y010821D01*
X010417Y010918D02*
X010317Y010918D01*
X010317Y011016D02*
X010417Y011016D01*
X010417Y011115D02*
X010317Y011115D01*
X010317Y011213D02*
X010417Y011213D01*
X010417Y011312D02*
X010317Y011312D01*
X010317Y011410D02*
X010417Y011410D01*
X010665Y011410D02*
X012348Y011410D01*
X012126Y010819D02*
X011653Y010819D01*
X011837Y010721D02*
X012155Y010721D01*
X011938Y010622D02*
X011938Y010622D01*
X011938Y010524D02*
X011938Y010524D01*
X011938Y010425D02*
X011938Y010425D01*
X011938Y010327D02*
X011938Y010327D01*
X011938Y010261D02*
X011938Y009836D01*
X011938Y010261D01*
X011938Y010261D01*
X011938Y010228D02*
X011938Y010228D01*
X011938Y010130D02*
X011938Y010130D01*
X011938Y010031D02*
X011938Y010031D01*
X011938Y009933D02*
X011938Y009933D01*
X011642Y009637D02*
X013075Y009637D01*
X012977Y009539D02*
X011642Y009539D01*
X011642Y009440D02*
X012261Y009440D01*
X012375Y009440D02*
X012432Y009440D01*
X012432Y009342D02*
X012375Y009342D01*
X012375Y009243D02*
X012432Y009243D01*
X012432Y009145D02*
X012375Y009145D01*
X012375Y009046D02*
X011642Y009046D01*
X011642Y008948D02*
X012011Y008948D01*
X012053Y008849D02*
X011642Y008849D01*
X011642Y008751D02*
X012135Y008751D01*
X012332Y008652D02*
X011642Y008652D01*
X011642Y008554D02*
X012332Y008554D01*
X012354Y008455D02*
X011671Y008455D01*
X011727Y008357D02*
X012401Y008357D01*
X012053Y007569D02*
X014013Y007569D01*
X013915Y007470D02*
X012152Y007470D01*
X012210Y007372D02*
X013857Y007372D01*
X013816Y007273D02*
X012251Y007273D01*
X012286Y007175D02*
X013781Y007175D01*
X013781Y007076D02*
X012286Y007076D01*
X012286Y006978D02*
X013781Y006978D01*
X013795Y006879D02*
X012272Y006879D01*
X012231Y006781D02*
X013835Y006781D01*
X013876Y006682D02*
X012190Y006682D01*
X012105Y006584D02*
X013961Y006584D01*
X014060Y006485D02*
X012007Y006485D01*
X011797Y006387D02*
X014270Y006387D01*
X014671Y006387D02*
X016686Y006387D01*
X016756Y006682D02*
X016910Y006682D01*
X016882Y006781D02*
X016785Y006781D01*
X016785Y006879D02*
X016882Y006879D01*
X016882Y006978D02*
X016785Y006978D01*
X016785Y007076D02*
X016882Y007076D01*
X016819Y007175D02*
X016785Y007175D01*
X016622Y007372D02*
X016301Y007372D01*
X016203Y007470D02*
X016524Y007470D01*
X016425Y007569D02*
X016104Y007569D01*
X016006Y007667D02*
X016327Y007667D01*
X016281Y007766D02*
X015907Y007766D01*
X015872Y007864D02*
X016281Y007864D01*
X016281Y007963D02*
X015849Y007963D01*
X015781Y008061D02*
X016281Y008061D01*
X016075Y008160D02*
X015052Y008160D01*
X015042Y008258D02*
X016075Y008258D01*
X016075Y008357D02*
X015042Y008357D01*
X015042Y008455D02*
X016075Y008455D01*
X016075Y008554D02*
X015042Y008554D01*
X015042Y008652D02*
X016075Y008652D01*
X016459Y008500D02*
X016459Y007787D01*
X017247Y007000D01*
X016420Y007000D02*
X016333Y007087D01*
X015583Y007837D01*
X015583Y007850D01*
X015317Y007963D02*
X014920Y007963D01*
X014991Y008061D02*
X015386Y008061D01*
X015295Y007864D02*
X014850Y007864D01*
X014792Y007766D02*
X015306Y007766D01*
X015358Y007667D02*
X014783Y007667D01*
X014927Y007569D02*
X015508Y007569D01*
X015697Y007470D02*
X015026Y007470D01*
X015084Y007372D02*
X015796Y007372D01*
X015894Y007273D02*
X015125Y007273D01*
X015160Y007175D02*
X015993Y007175D01*
X016055Y007076D02*
X015160Y007076D01*
X015160Y006978D02*
X016055Y006978D01*
X016055Y006879D02*
X015146Y006879D01*
X015105Y006781D02*
X016055Y006781D01*
X016083Y006682D02*
X015065Y006682D01*
X016333Y007087D02*
X016333Y007100D01*
X018285Y007076D02*
X018382Y007076D01*
X018382Y006978D02*
X018285Y006978D01*
X018285Y006879D02*
X018382Y006879D01*
X018382Y006781D02*
X018285Y006781D01*
X018256Y006682D02*
X018410Y006682D01*
X018382Y007175D02*
X018285Y007175D01*
X018285Y007273D02*
X018382Y007273D01*
X019770Y007000D02*
X019933Y007000D01*
X020547Y006879D02*
X020647Y006879D01*
X020647Y006950D02*
X020647Y006614D01*
X020853Y006614D01*
X020891Y006624D01*
X020925Y006644D01*
X020953Y006672D01*
X020973Y006706D01*
X020983Y006744D01*
X020983Y006950D01*
X020647Y006950D01*
X020647Y006781D02*
X020547Y006781D01*
X020547Y006682D02*
X020647Y006682D01*
X020959Y006682D02*
X021058Y006682D01*
X021034Y006781D02*
X020983Y006781D01*
X020983Y006879D02*
X021034Y006879D01*
X021034Y007076D02*
X020983Y007076D01*
X020983Y007175D02*
X021034Y007175D01*
X021038Y007273D02*
X020978Y007273D01*
X020899Y007372D02*
X021118Y007372D01*
X021370Y007372D02*
X021470Y007372D01*
X021470Y007273D02*
X021370Y007273D01*
X021370Y007175D02*
X021470Y007175D01*
X021470Y007076D02*
X021370Y007076D01*
X021370Y006781D02*
X021470Y006781D01*
X021470Y006682D02*
X021370Y006682D01*
X021782Y006682D02*
X021910Y006682D01*
X021882Y006781D02*
X021806Y006781D01*
X021806Y006879D02*
X021882Y006879D01*
X020647Y007175D02*
X020547Y007175D01*
X020547Y007273D02*
X020647Y007273D01*
X020647Y007372D02*
X020547Y007372D01*
X022207Y008500D02*
X022247Y008461D01*
X021876Y008948D02*
X023655Y008948D01*
X023833Y008640D02*
X023593Y008500D01*
X023833Y008640D02*
X023833Y010000D01*
X023574Y010130D02*
X022311Y010130D01*
X022311Y010228D02*
X023653Y010228D01*
X023545Y010031D02*
X022262Y010031D01*
X022311Y010327D02*
X022754Y010327D01*
X022656Y010425D02*
X022311Y010425D01*
X022311Y010524D02*
X022599Y010524D01*
X022530Y010622D02*
X022311Y010622D01*
X022311Y010721D02*
X022461Y010721D01*
X022483Y011000D02*
X022833Y010500D01*
X023255Y010500D01*
X023333Y010421D01*
X023549Y009933D02*
X018311Y009933D01*
X018410Y010031D02*
X021551Y010031D01*
X021502Y010130D02*
X018508Y010130D01*
X018607Y010228D02*
X021502Y010228D01*
X021502Y010327D02*
X018705Y010327D01*
X019042Y010425D02*
X021502Y010425D01*
X021502Y010524D02*
X019113Y010524D01*
X019140Y010622D02*
X019450Y010622D01*
X019617Y010622D02*
X021502Y010622D01*
X021502Y010721D02*
X019762Y010721D01*
X019533Y010900D02*
X022483Y011000D01*
X023591Y009834D02*
X018213Y009834D01*
X017918Y010130D02*
X017349Y010130D01*
X017448Y010031D02*
X017819Y010031D01*
X018016Y010228D02*
X016439Y010228D01*
X017289Y009440D02*
X021778Y009440D01*
X021680Y009342D02*
X021326Y009342D01*
X021406Y009243D02*
X021581Y009243D01*
X021483Y009145D02*
X021440Y009145D01*
X020941Y009342D02*
X019187Y009342D01*
X019286Y009243D02*
X020860Y009243D01*
X020211Y009145D02*
X019523Y009145D01*
X019605Y009046D02*
X020112Y009046D01*
X020014Y008948D02*
X019640Y008948D01*
X017980Y009342D02*
X017387Y009342D01*
X017442Y009243D02*
X017881Y009243D01*
X017783Y009145D02*
X017442Y009145D01*
X017442Y009046D02*
X017751Y009046D01*
X017751Y008948D02*
X017442Y008948D01*
X019136Y010721D02*
X019304Y010721D01*
X019254Y010819D02*
X019095Y010819D01*
X018989Y010918D02*
X019245Y010918D01*
X019269Y011016D02*
X017233Y011016D01*
X019178Y012100D02*
X019995Y012100D01*
X019995Y012198D02*
X019277Y012198D01*
X019375Y012297D02*
X019995Y012297D01*
X020079Y012395D02*
X019474Y012395D01*
X019572Y012494D02*
X020177Y012494D01*
X021833Y014000D02*
X021983Y014150D01*
X022033Y014150D01*
X022033Y018100D01*
X022433Y018600D01*
X024083Y018600D01*
X024283Y017850D01*
X023935Y018207D02*
X023662Y018207D01*
X023564Y018305D02*
X023977Y018305D01*
X023951Y018404D02*
X022505Y018404D01*
X022426Y018305D02*
X023003Y018305D01*
X023068Y018370D02*
X022763Y018065D01*
X022763Y017900D01*
X023233Y017900D01*
X023233Y018370D01*
X023068Y018370D01*
X023233Y018305D02*
X023333Y018305D01*
X023333Y018207D02*
X023233Y018207D01*
X023233Y018108D02*
X023333Y018108D01*
X023333Y018010D02*
X023233Y018010D01*
X023233Y017911D02*
X023333Y017911D01*
X023233Y017813D02*
X022212Y017813D01*
X022212Y017911D02*
X022763Y017911D01*
X022763Y018010D02*
X022212Y018010D01*
X022269Y018108D02*
X022806Y018108D01*
X022904Y018207D02*
X022347Y018207D01*
X021907Y018699D02*
X020951Y018699D01*
X020853Y018798D02*
X021987Y018798D01*
X022062Y018896D02*
X020754Y018896D01*
X020656Y018995D02*
X022282Y018995D01*
X022294Y018995D02*
X024374Y018995D01*
X024392Y018995D02*
X028003Y018995D01*
X028003Y019093D02*
X020557Y019093D01*
X020459Y019192D02*
X028003Y019192D01*
X028003Y019290D02*
X026797Y019290D01*
X026351Y018699D02*
X028003Y018699D01*
X028003Y018601D02*
X026450Y018601D01*
X026548Y018502D02*
X028003Y018502D01*
X028003Y018404D02*
X026622Y018404D01*
X026622Y018305D02*
X028003Y018305D01*
X028003Y018207D02*
X026983Y018207D01*
X027082Y018108D02*
X028003Y018108D01*
X028003Y018010D02*
X027131Y018010D01*
X027162Y017911D02*
X028003Y017911D01*
X028003Y017813D02*
X027162Y017813D01*
X027141Y017714D02*
X028003Y017714D01*
X028003Y017616D02*
X027100Y017616D01*
X027007Y017517D02*
X028003Y017517D01*
X028003Y017419D02*
X025246Y017419D01*
X025243Y017517D02*
X025860Y017517D01*
X025766Y017616D02*
X025239Y017616D01*
X025235Y017714D02*
X025726Y017714D01*
X025705Y017813D02*
X025231Y017813D01*
X025228Y017911D02*
X025705Y017911D01*
X025735Y018010D02*
X025224Y018010D01*
X025229Y018108D02*
X025785Y018108D01*
X025884Y018207D02*
X025150Y018207D01*
X025222Y018305D02*
X026211Y018305D01*
X026048Y017279D02*
X025890Y017213D01*
X025770Y017093D01*
X025705Y016935D01*
X025705Y016765D01*
X025770Y016607D01*
X025890Y016487D01*
X026048Y016421D01*
X026819Y016421D01*
X026976Y016487D01*
X027097Y016607D01*
X027162Y016765D01*
X027162Y016935D01*
X027097Y017093D01*
X026976Y017213D01*
X026819Y017279D01*
X026048Y017279D01*
X025910Y017222D02*
X025254Y017222D01*
X025250Y017320D02*
X028003Y017320D01*
X028003Y017222D02*
X026957Y017222D01*
X027067Y017123D02*
X028003Y017123D01*
X028003Y017025D02*
X027125Y017025D01*
X027162Y016926D02*
X028003Y016926D01*
X028003Y016828D02*
X027162Y016828D01*
X027147Y016729D02*
X028003Y016729D01*
X028003Y016631D02*
X027106Y016631D01*
X027022Y016532D02*
X028003Y016532D01*
X028003Y016434D02*
X026848Y016434D01*
X026819Y016279D02*
X026976Y016213D01*
X027097Y016093D01*
X027162Y015935D01*
X027162Y015765D01*
X027097Y015607D01*
X026976Y015487D01*
X026819Y015421D01*
X026048Y015421D01*
X025890Y015487D01*
X025770Y015607D01*
X025705Y015765D01*
X025705Y015935D01*
X025770Y016093D01*
X025890Y016213D01*
X026048Y016279D01*
X026819Y016279D01*
X026921Y016237D02*
X028003Y016237D01*
X028003Y016335D02*
X025295Y016335D01*
X025397Y016434D02*
X026018Y016434D01*
X025845Y016532D02*
X025437Y016532D01*
X025440Y016631D02*
X025760Y016631D01*
X025719Y016729D02*
X025412Y016729D01*
X025340Y016828D02*
X025705Y016828D01*
X025705Y016926D02*
X025265Y016926D01*
X025262Y017025D02*
X025742Y017025D01*
X025800Y017123D02*
X025258Y017123D01*
X024880Y017123D02*
X024716Y017123D01*
X024782Y017057D02*
X024490Y017349D01*
X024077Y017349D01*
X023785Y017057D01*
X023785Y016643D01*
X024077Y016351D01*
X024490Y016351D01*
X024782Y016643D01*
X024782Y017057D01*
X024782Y017025D02*
X024884Y017025D01*
X024888Y016926D02*
X024782Y016926D01*
X024782Y016828D02*
X024891Y016828D01*
X024855Y016729D02*
X024782Y016729D01*
X024769Y016631D02*
X024826Y016631D01*
X024829Y016532D02*
X024671Y016532D01*
X024572Y016434D02*
X024870Y016434D01*
X024971Y016335D02*
X024504Y016335D01*
X024602Y016237D02*
X025946Y016237D01*
X025815Y016138D02*
X024701Y016138D01*
X024782Y016040D02*
X025748Y016040D01*
X025707Y015941D02*
X024782Y015941D01*
X024782Y015843D02*
X025705Y015843D01*
X025713Y015744D02*
X024782Y015744D01*
X024790Y015646D02*
X025754Y015646D01*
X025830Y015547D02*
X024903Y015547D01*
X025016Y015449D02*
X025982Y015449D01*
X025582Y014956D02*
X026894Y014956D01*
X026894Y015004D02*
X026894Y014759D01*
X025808Y014759D01*
X025695Y014858D02*
X026894Y014858D01*
X026894Y014759D02*
X026905Y014721D01*
X026924Y014687D01*
X026952Y014659D01*
X026986Y014639D01*
X027025Y014629D01*
X027368Y014629D01*
X027368Y015004D01*
X026894Y015004D01*
X026894Y015104D02*
X026894Y015350D01*
X025130Y015350D01*
X025243Y015252D02*
X026894Y015252D01*
X026894Y015350D02*
X026905Y015388D01*
X026924Y015422D01*
X026952Y015450D01*
X026986Y015470D01*
X027025Y015480D01*
X027368Y015480D01*
X027368Y015104D01*
X027368Y015004D01*
X027468Y015004D01*
X027468Y014629D01*
X027812Y014629D01*
X027850Y014639D01*
X027884Y014659D01*
X027912Y014687D01*
X027932Y014721D01*
X027942Y014759D01*
X028003Y014759D01*
X027942Y014759D02*
X027942Y015004D01*
X027468Y015004D01*
X027468Y015104D01*
X027368Y015104D01*
X026894Y015104D01*
X026894Y015153D02*
X025356Y015153D01*
X025469Y015055D02*
X027368Y015055D01*
X027368Y015153D02*
X027468Y015153D01*
X027468Y015104D02*
X027468Y015480D01*
X027812Y015480D01*
X027850Y015470D01*
X027884Y015450D01*
X027912Y015422D01*
X027932Y015388D01*
X027942Y015350D01*
X028003Y015350D01*
X027942Y015350D02*
X027942Y015104D01*
X027468Y015104D01*
X027468Y015055D02*
X028003Y015055D01*
X028003Y015153D02*
X027942Y015153D01*
X027942Y015252D02*
X028003Y015252D01*
X028003Y015449D02*
X027886Y015449D01*
X028003Y015547D02*
X027037Y015547D01*
X027113Y015646D02*
X028003Y015646D01*
X028003Y015744D02*
X027154Y015744D01*
X027162Y015843D02*
X028003Y015843D01*
X028003Y015941D02*
X027160Y015941D01*
X027119Y016040D02*
X028003Y016040D01*
X028003Y016138D02*
X027052Y016138D01*
X026951Y015449D02*
X026884Y015449D01*
X027368Y015449D02*
X027468Y015449D01*
X027468Y015350D02*
X027368Y015350D01*
X027368Y015252D02*
X027468Y015252D01*
X027468Y014956D02*
X027368Y014956D01*
X027368Y014858D02*
X027468Y014858D01*
X027468Y014759D02*
X027368Y014759D01*
X027368Y014661D02*
X027468Y014661D01*
X027886Y014661D02*
X028003Y014661D01*
X028003Y014562D02*
X026524Y014562D01*
X026426Y014661D02*
X026950Y014661D01*
X026721Y014365D02*
X028003Y014365D01*
X028003Y014267D02*
X026820Y014267D01*
X026918Y014168D02*
X028003Y014168D01*
X028003Y014070D02*
X027017Y014070D01*
X027115Y013971D02*
X028003Y013971D01*
X028003Y013873D02*
X027214Y013873D01*
X027312Y013774D02*
X028003Y013774D01*
X028003Y013676D02*
X027411Y013676D01*
X027509Y013577D02*
X028003Y013577D01*
X028003Y013479D02*
X027608Y013479D01*
X027706Y013380D02*
X028003Y013380D01*
X028003Y013282D02*
X027805Y013282D01*
X027903Y013183D02*
X028003Y013183D01*
X028002Y013085D02*
X028003Y013085D01*
X027833Y013000D02*
X027833Y011300D01*
X027233Y010650D01*
X027374Y010524D02*
X028003Y010524D01*
X028003Y010622D02*
X027451Y010622D01*
X027542Y010721D02*
X028003Y010721D01*
X028003Y010819D02*
X027633Y010819D01*
X027724Y010918D02*
X028003Y010918D01*
X028003Y011016D02*
X027814Y011016D01*
X027905Y011115D02*
X028003Y011115D01*
X027999Y011213D02*
X028003Y011213D01*
X028003Y010228D02*
X027555Y010228D01*
X027588Y010130D02*
X028003Y010130D01*
X028003Y010031D02*
X027588Y010031D01*
X027588Y009933D02*
X028003Y009933D01*
X028003Y009243D02*
X024012Y009243D01*
X024012Y009145D02*
X028003Y009145D01*
X027114Y009440D02*
X027014Y009440D01*
X027014Y009539D02*
X027114Y009539D01*
X027114Y009637D02*
X027014Y009637D01*
X027014Y009933D02*
X027114Y009933D01*
X027114Y010031D02*
X027014Y010031D01*
X027014Y010130D02*
X027114Y010130D01*
X027114Y010228D02*
X027014Y010228D01*
X026540Y009736D02*
X024012Y009736D01*
X024012Y009637D02*
X026540Y009637D01*
X026546Y009539D02*
X024012Y009539D01*
X024122Y010031D02*
X025498Y010031D01*
X025498Y010130D02*
X024092Y010130D01*
X024014Y010228D02*
X025498Y010228D01*
X025498Y010327D02*
X025177Y010327D01*
X025275Y010425D02*
X025520Y010425D01*
X025501Y010839D02*
X025242Y010839D01*
X025242Y010914D01*
X025573Y011245D01*
X025574Y011244D01*
X025637Y011244D01*
X025635Y011235D01*
X025635Y011097D01*
X026061Y011097D01*
X026061Y011059D01*
X025635Y011059D01*
X025635Y010920D01*
X025637Y010911D01*
X025574Y010911D01*
X025501Y010839D01*
X025635Y010918D02*
X025246Y010918D01*
X025345Y011016D02*
X025635Y011016D01*
X025635Y011115D02*
X025443Y011115D01*
X025542Y011213D02*
X025635Y011213D01*
X027833Y013000D02*
X026333Y014500D01*
X025833Y014500D01*
X024283Y015850D01*
X023785Y015843D02*
X023782Y015843D01*
X023782Y015941D02*
X023785Y015941D01*
X023782Y016040D02*
X023785Y016040D01*
X023782Y016057D02*
X023490Y016349D01*
X023077Y016349D01*
X022785Y016057D01*
X022785Y015643D01*
X023077Y015351D01*
X023490Y015351D01*
X023782Y015643D01*
X023782Y016057D01*
X023701Y016138D02*
X023866Y016138D01*
X023965Y016237D02*
X023602Y016237D01*
X023504Y016335D02*
X024063Y016335D01*
X023994Y016434D02*
X023572Y016434D01*
X023671Y016532D02*
X023896Y016532D01*
X023797Y016631D02*
X023769Y016631D01*
X023782Y016729D02*
X023785Y016729D01*
X023782Y016828D02*
X023785Y016828D01*
X023782Y016926D02*
X023785Y016926D01*
X023782Y017025D02*
X023785Y017025D01*
X023851Y017123D02*
X023716Y017123D01*
X023617Y017222D02*
X023950Y017222D01*
X024048Y017320D02*
X023519Y017320D01*
X023587Y017419D02*
X024009Y017419D01*
X023911Y017517D02*
X023686Y017517D01*
X023784Y017616D02*
X023812Y017616D01*
X023836Y018108D02*
X023761Y018108D01*
X024294Y018502D02*
X024430Y018502D01*
X024509Y018404D02*
X024321Y018404D01*
X024351Y018601D02*
X024268Y018601D01*
X024534Y018305D02*
X024588Y018305D01*
X024632Y018207D02*
X024666Y018207D01*
X024731Y018108D02*
X024745Y018108D01*
X024782Y018010D02*
X024824Y018010D01*
X024850Y017911D02*
X024782Y017911D01*
X024782Y017813D02*
X024854Y017813D01*
X024857Y017714D02*
X024782Y017714D01*
X024754Y017616D02*
X024861Y017616D01*
X024865Y017517D02*
X024656Y017517D01*
X024557Y017419D02*
X024869Y017419D01*
X024873Y017320D02*
X024519Y017320D01*
X024617Y017222D02*
X024876Y017222D01*
X024756Y018699D02*
X024763Y018699D01*
X024847Y018798D02*
X024677Y018798D01*
X024604Y018896D02*
X028003Y018896D01*
X028003Y018798D02*
X025220Y018798D01*
X023048Y017320D02*
X022212Y017320D01*
X022212Y017222D02*
X022950Y017222D01*
X022851Y017123D02*
X022212Y017123D01*
X022212Y017025D02*
X022785Y017025D01*
X022785Y016926D02*
X022212Y016926D01*
X022212Y016828D02*
X022785Y016828D01*
X022785Y016729D02*
X022212Y016729D01*
X022212Y016631D02*
X022797Y016631D01*
X022896Y016532D02*
X022212Y016532D01*
X022212Y016434D02*
X022994Y016434D01*
X023063Y016335D02*
X022212Y016335D01*
X022212Y016237D02*
X022965Y016237D01*
X022866Y016138D02*
X022212Y016138D01*
X022212Y016040D02*
X022785Y016040D01*
X022785Y015941D02*
X022212Y015941D01*
X022212Y015843D02*
X022785Y015843D01*
X022785Y015744D02*
X022212Y015744D01*
X022212Y015646D02*
X022785Y015646D01*
X022881Y015547D02*
X022212Y015547D01*
X022212Y015449D02*
X022979Y015449D01*
X023587Y015449D02*
X023979Y015449D01*
X023881Y015547D02*
X023686Y015547D01*
X023782Y015646D02*
X023785Y015646D01*
X023782Y015744D02*
X023785Y015744D01*
X024585Y015350D02*
X022212Y015350D01*
X022212Y015252D02*
X024698Y015252D01*
X024811Y015153D02*
X022212Y015153D01*
X022212Y015055D02*
X024925Y015055D01*
X025038Y014956D02*
X022212Y014956D01*
X022212Y014858D02*
X025151Y014858D01*
X025264Y014759D02*
X022212Y014759D01*
X022212Y014661D02*
X025377Y014661D01*
X025490Y014562D02*
X022212Y014562D01*
X022212Y014464D02*
X025603Y014464D01*
X025716Y014365D02*
X022227Y014365D01*
X022298Y014267D02*
X026314Y014267D01*
X026413Y014168D02*
X022322Y014168D01*
X022313Y014070D02*
X026511Y014070D01*
X026623Y014464D02*
X028003Y014464D01*
X028003Y014858D02*
X027942Y014858D01*
X027942Y014956D02*
X028003Y014956D01*
X022979Y017419D02*
X022212Y017419D01*
X022212Y017517D02*
X022881Y017517D01*
X022782Y017616D02*
X022212Y017616D01*
X022212Y017714D02*
X022763Y017714D01*
X021746Y018502D02*
X021148Y018502D01*
X021050Y018601D02*
X021826Y018601D01*
X020823Y019290D02*
X020360Y019290D01*
X020291Y019487D02*
X020823Y019487D01*
X020823Y019389D02*
X020119Y019389D01*
X020448Y019586D02*
X020823Y019586D01*
X020823Y019684D02*
X020475Y019684D01*
X020472Y019783D02*
X020823Y019783D01*
X020823Y019881D02*
X020472Y019881D01*
X020472Y019980D02*
X020823Y019980D01*
X020823Y020078D02*
X020472Y020078D01*
X020472Y020177D02*
X020823Y020177D01*
X020823Y020275D02*
X020472Y020275D01*
X020472Y020374D02*
X020823Y020374D01*
X020823Y020472D02*
X020472Y020472D01*
X020472Y020571D02*
X020823Y020571D01*
X020823Y020669D02*
X020472Y020669D01*
X020472Y020768D02*
X020823Y020768D01*
X020823Y020866D02*
X020472Y020866D01*
X020472Y020965D02*
X020823Y020965D01*
X020823Y021063D02*
X020472Y021063D01*
X020472Y021162D02*
X020823Y021162D01*
X020823Y021260D02*
X020472Y021260D01*
X020472Y021359D02*
X020823Y021359D01*
X020823Y021457D02*
X020472Y021457D01*
X020472Y021556D02*
X020823Y021556D01*
X020823Y021654D02*
X020472Y021654D01*
X020472Y021753D02*
X020823Y021753D01*
X020823Y021851D02*
X020472Y021851D01*
X020472Y021950D02*
X020823Y021950D01*
X020823Y022048D02*
X020472Y022048D01*
X020472Y022147D02*
X020823Y022147D01*
X020823Y022245D02*
X020472Y022245D01*
X020472Y022344D02*
X020823Y022344D01*
X020823Y022442D02*
X020472Y022442D01*
X020508Y022541D02*
X020823Y022541D01*
X020823Y022639D02*
X020570Y022639D01*
X020590Y022738D02*
X020823Y022738D01*
X020823Y022836D02*
X020580Y022836D01*
X020533Y022935D02*
X020823Y022935D01*
X020823Y023033D02*
X020402Y023033D01*
X020165Y023033D02*
X019233Y023033D01*
X019332Y023132D02*
X020823Y023132D01*
X020823Y023230D02*
X019430Y023230D01*
X019529Y023329D02*
X019685Y023329D01*
X019718Y022935D02*
X018911Y022935D01*
X018911Y022836D02*
X019585Y022836D01*
X019537Y022738D02*
X018911Y022738D01*
X018911Y022639D02*
X019526Y022639D01*
X019547Y022541D02*
X018911Y022541D01*
X018911Y022442D02*
X019607Y022442D01*
X019771Y022344D02*
X018911Y022344D01*
X018861Y022245D02*
X019895Y022245D01*
X019895Y022147D02*
X019054Y022147D01*
X019074Y022048D02*
X019195Y022048D01*
X019096Y021950D02*
X019058Y021950D01*
X019042Y021851D02*
X019086Y021851D01*
X019096Y021753D02*
X019025Y021753D01*
X019009Y021654D02*
X019086Y021654D01*
X019096Y021556D02*
X018992Y021556D01*
X018976Y021457D02*
X019086Y021457D01*
X019096Y021359D02*
X018959Y021359D01*
X018943Y021260D02*
X019086Y021260D01*
X019095Y021162D02*
X018927Y021162D01*
X018918Y021063D02*
X019086Y021063D01*
X019095Y020965D02*
X018913Y020965D01*
X018908Y020866D02*
X019086Y020866D01*
X019095Y020768D02*
X018904Y020768D01*
X018899Y020669D02*
X019086Y020669D01*
X019095Y020571D02*
X018894Y020571D01*
X018889Y020472D02*
X019086Y020472D01*
X019095Y020374D02*
X018884Y020374D01*
X018880Y020275D02*
X019086Y020275D01*
X019095Y020177D02*
X018875Y020177D01*
X018870Y020078D02*
X019086Y020078D01*
X019095Y019980D02*
X018865Y019980D01*
X018860Y019881D02*
X019086Y019881D01*
X019094Y019783D02*
X018856Y019783D01*
X018851Y019684D02*
X019086Y019684D01*
X019094Y019586D02*
X018846Y019586D01*
X018841Y019487D02*
X019086Y019487D01*
X019082Y019389D02*
X018836Y019389D01*
X018832Y019290D02*
X019065Y019290D01*
X019065Y019303D02*
X019510Y019303D01*
X019510Y019303D01*
X019065Y019303D01*
X018519Y020631D02*
X018390Y020760D01*
X018390Y020861D01*
X018343Y020974D01*
X018257Y021060D01*
X018144Y021107D01*
X018022Y021107D01*
X017910Y021060D01*
X017823Y020974D01*
X017785Y020882D01*
X017707Y020960D01*
X017594Y021007D01*
X017472Y021007D01*
X017360Y020960D01*
X017273Y020874D01*
X017226Y020761D01*
X017226Y020639D01*
X017273Y020526D01*
X017360Y020440D01*
X017472Y020393D01*
X017545Y020393D01*
X017545Y018245D01*
X017473Y018174D01*
X017426Y018061D01*
X017426Y017996D01*
X017247Y018195D01*
X017247Y018236D01*
X017125Y018359D01*
X016650Y018359D01*
X015319Y019310D01*
X015270Y019359D01*
X015250Y019359D01*
X015234Y019370D01*
X015166Y019359D01*
X014109Y019359D01*
X014057Y019410D01*
X013944Y019457D01*
X013822Y019457D01*
X013710Y019410D01*
X013635Y019336D01*
X013635Y019381D01*
X013615Y019402D01*
X013635Y019422D01*
X013635Y019578D01*
X013615Y019598D01*
X013635Y019619D01*
X013635Y019775D01*
X013626Y019784D01*
X013642Y019813D01*
X013657Y019866D01*
X013657Y019894D01*
X013657Y019921D01*
X013642Y019974D01*
X013626Y020003D01*
X013635Y020013D01*
X013635Y020168D01*
X013615Y020189D01*
X013635Y020210D01*
X013635Y020365D01*
X013615Y020386D01*
X013635Y020406D01*
X013635Y020492D01*
X013874Y020492D01*
X014055Y020311D01*
X015655Y020311D01*
X015676Y020290D01*
X015676Y020189D01*
X015723Y020076D01*
X015810Y019990D01*
X015922Y019943D01*
X016044Y019943D01*
X016157Y019990D01*
X016243Y020076D01*
X016290Y020189D01*
X016290Y020311D01*
X016243Y020424D01*
X016217Y020450D01*
X016293Y020526D01*
X016340Y020639D01*
X016340Y020761D01*
X016293Y020874D01*
X016207Y020960D01*
X016094Y021007D01*
X015972Y021007D01*
X015860Y020960D01*
X015788Y020889D01*
X014618Y020889D01*
X014678Y020949D01*
X014722Y021055D01*
X014722Y021170D01*
X014678Y021276D01*
X014597Y021357D01*
X014554Y021375D01*
X014571Y021375D01*
X014684Y021422D01*
X014770Y021508D01*
X014817Y021621D01*
X014817Y021683D01*
X014840Y021673D01*
X014962Y021673D01*
X015075Y021720D01*
X015161Y021806D01*
X015208Y021919D01*
X015208Y022041D01*
X015161Y022154D01*
X015075Y022240D01*
X015081Y022246D01*
X015102Y022226D01*
X015258Y022226D01*
X015278Y022246D01*
X015299Y022226D01*
X015454Y022226D01*
X015475Y022246D01*
X015496Y022226D01*
X015651Y022226D01*
X015672Y022246D01*
X015693Y022226D01*
X015848Y022226D01*
X015869Y022246D01*
X015889Y022226D01*
X015975Y022226D01*
X015975Y021759D01*
X015742Y021525D01*
X015707Y021560D01*
X015594Y021607D01*
X015472Y021607D01*
X015360Y021560D01*
X015273Y021474D01*
X015226Y021361D01*
X015226Y021239D01*
X015273Y021126D01*
X015360Y021040D01*
X015472Y020993D01*
X015594Y020993D01*
X015707Y021040D01*
X015779Y021111D01*
X015862Y021111D01*
X015972Y021222D01*
X016353Y021603D01*
X016353Y022226D01*
X016439Y022226D01*
X016459Y022246D01*
X016480Y022226D01*
X016636Y022226D01*
X016656Y022246D01*
X016677Y022226D01*
X016832Y022226D01*
X016853Y022246D01*
X016874Y022226D01*
X017029Y022226D01*
X017050Y022246D01*
X017071Y022226D01*
X017226Y022226D01*
X017247Y022246D01*
X017267Y022226D01*
X017423Y022226D01*
X017444Y022246D01*
X017464Y022226D01*
X017620Y022226D01*
X017629Y022235D01*
X017658Y022219D01*
X017711Y022204D01*
X017739Y022204D01*
X017747Y022204D01*
X017747Y022126D01*
X017747Y022125D01*
X017747Y022047D01*
X017747Y021969D01*
X017802Y021914D01*
X017858Y021859D01*
X017858Y021859D01*
X017858Y021859D01*
X017936Y021859D01*
X018014Y021859D01*
X018660Y021861D01*
X018558Y021246D01*
X018549Y021237D01*
X018545Y021170D01*
X018534Y021104D01*
X018542Y021094D01*
X018519Y020631D01*
X018521Y020669D02*
X018481Y020669D01*
X018526Y020768D02*
X018390Y020768D01*
X018388Y020866D02*
X018531Y020866D01*
X018535Y020965D02*
X018347Y020965D01*
X018250Y021063D02*
X018540Y021063D01*
X018544Y021162D02*
X015912Y021162D01*
X016010Y021260D02*
X018560Y021260D01*
X018577Y021359D02*
X016109Y021359D01*
X016207Y021457D02*
X018593Y021457D01*
X018610Y021556D02*
X016306Y021556D01*
X016353Y021654D02*
X018626Y021654D01*
X018642Y021753D02*
X016353Y021753D01*
X016353Y021851D02*
X018659Y021851D01*
X018820Y022245D02*
X018832Y022245D01*
X018014Y021859D02*
X018014Y021859D01*
X017767Y021950D02*
X016353Y021950D01*
X016353Y022048D02*
X017747Y022048D01*
X017747Y021969D02*
X017747Y021969D01*
X017747Y021969D01*
X017747Y022147D02*
X016353Y022147D01*
X016458Y022245D02*
X016461Y022245D01*
X016655Y022245D02*
X016657Y022245D01*
X016852Y022245D02*
X016854Y022245D01*
X017049Y022245D02*
X017051Y022245D01*
X017246Y022245D02*
X017248Y022245D01*
X017442Y022245D02*
X017445Y022245D01*
X017739Y022245D02*
X017739Y022245D01*
X017739Y022256D02*
X017483Y021900D01*
X016833Y021900D01*
X015975Y021851D02*
X015180Y021851D01*
X015208Y021950D02*
X015975Y021950D01*
X015975Y022048D02*
X015205Y022048D01*
X015164Y022147D02*
X015975Y022147D01*
X015870Y022245D02*
X015868Y022245D01*
X015673Y022245D02*
X015671Y022245D01*
X015476Y022245D02*
X015474Y022245D01*
X015279Y022245D02*
X015277Y022245D01*
X015083Y022245D02*
X015080Y022245D01*
X014901Y021980D02*
X014881Y021900D01*
X014783Y021950D01*
X014589Y022244D01*
X014589Y022650D01*
X014786Y022650D02*
X014786Y023317D01*
X014295Y024126D01*
X013552Y024126D01*
X013923Y023764D02*
X013946Y023741D01*
X014319Y023741D01*
X014607Y023267D01*
X014607Y023074D01*
X014511Y023074D01*
X014491Y023053D01*
X014470Y023074D01*
X014315Y023074D01*
X014305Y023064D01*
X014276Y023081D01*
X014223Y023095D01*
X014196Y023095D01*
X014196Y022650D01*
X014196Y022650D01*
X014196Y023095D01*
X014168Y023095D01*
X014115Y023081D01*
X014086Y023064D01*
X014076Y023074D01*
X013979Y023074D01*
X013842Y023353D01*
X013842Y023436D01*
X013720Y023559D01*
X013209Y023559D01*
X013157Y023610D01*
X013044Y023657D01*
X012922Y023657D01*
X012810Y023610D01*
X012792Y023593D01*
X012792Y023995D01*
X013128Y024593D01*
X013128Y024565D01*
X013193Y024500D01*
X013128Y024435D01*
X013128Y023817D01*
X013204Y023741D01*
X013901Y023741D01*
X013923Y023764D01*
X013753Y023526D02*
X014450Y023526D01*
X014391Y023624D02*
X013124Y023624D01*
X013128Y023821D02*
X012792Y023821D01*
X012792Y023723D02*
X014331Y023723D01*
X014510Y023427D02*
X013842Y023427D01*
X013854Y023329D02*
X014570Y023329D01*
X014607Y023230D02*
X013902Y023230D01*
X013950Y023132D02*
X014607Y023132D01*
X015051Y023530D02*
X018748Y023530D01*
X019371Y024053D01*
X020197Y024053D01*
X020702Y023821D02*
X020823Y023821D01*
X020823Y023723D02*
X020761Y023723D01*
X020761Y023624D02*
X020823Y023624D01*
X020823Y023526D02*
X020761Y023526D01*
X020761Y023427D02*
X020823Y023427D01*
X020823Y023329D02*
X020709Y023329D01*
X020761Y023920D02*
X020823Y023920D01*
X020823Y024018D02*
X020761Y024018D01*
X020761Y024117D02*
X020823Y024117D01*
X020823Y024215D02*
X020761Y024215D01*
X020823Y024314D02*
X020694Y024314D01*
X020761Y024412D02*
X020823Y024412D01*
X020823Y024511D02*
X020761Y024511D01*
X020761Y024609D02*
X020823Y024609D01*
X020823Y024708D02*
X020761Y024708D01*
X020712Y024806D02*
X020823Y024806D01*
X020823Y024905D02*
X020780Y024905D01*
X020782Y025003D02*
X020823Y025003D01*
X020823Y025102D02*
X020782Y025102D01*
X020780Y025200D02*
X020823Y025200D01*
X020823Y025299D02*
X020715Y025299D01*
X020823Y025397D02*
X017852Y025397D01*
X017890Y025496D02*
X018689Y025496D01*
X018748Y025471D02*
X018590Y025537D01*
X018470Y025657D01*
X018405Y025815D01*
X018405Y025985D01*
X018470Y026143D01*
X018590Y026263D01*
X018748Y026329D01*
X019519Y026329D01*
X019676Y026263D01*
X019797Y026143D01*
X019862Y025985D01*
X019862Y025815D01*
X019797Y025657D01*
X019676Y025537D01*
X019519Y025471D01*
X018748Y025471D01*
X018533Y025594D02*
X017890Y025594D01*
X017856Y025693D02*
X018455Y025693D01*
X018414Y025791D02*
X017776Y025791D01*
X017390Y025791D02*
X016352Y025791D01*
X016362Y025890D02*
X018405Y025890D01*
X018406Y025988D02*
X016361Y025988D01*
X016320Y026087D02*
X018447Y026087D01*
X018512Y026185D02*
X016255Y026185D01*
X016128Y026284D02*
X018639Y026284D01*
X018728Y026461D02*
X018798Y026450D01*
X019083Y026450D01*
X019083Y026850D01*
X018386Y026850D01*
X018394Y026795D01*
X018416Y026727D01*
X018448Y026664D01*
X018490Y026607D01*
X018540Y026557D01*
X018597Y026515D01*
X018661Y026483D01*
X018728Y026461D01*
X018668Y026481D02*
X016099Y026481D01*
X016106Y026483D02*
X016169Y026515D01*
X016226Y026557D01*
X016277Y026607D01*
X016318Y026664D01*
X016350Y026727D01*
X016372Y026795D01*
X016381Y026850D01*
X015683Y026850D01*
X015683Y026450D01*
X015969Y026450D01*
X016039Y026461D01*
X016106Y026483D01*
X016249Y026579D02*
X018518Y026579D01*
X018442Y026678D02*
X016325Y026678D01*
X016366Y026776D02*
X018400Y026776D01*
X018386Y026950D02*
X019083Y026950D01*
X019083Y026850D01*
X019183Y026850D01*
X019183Y026450D01*
X019469Y026450D01*
X019539Y026461D01*
X019606Y026483D01*
X019669Y026515D01*
X019726Y026557D01*
X019777Y026607D01*
X019818Y026664D01*
X019850Y026727D01*
X019872Y026795D01*
X019881Y026850D01*
X019183Y026850D01*
X019183Y026950D01*
X019083Y026950D01*
X019083Y027350D01*
X018798Y027350D01*
X018728Y027339D01*
X018661Y027317D01*
X018597Y027285D01*
X018540Y027243D01*
X018490Y027193D01*
X018448Y027136D01*
X018416Y027073D01*
X018394Y027005D01*
X018386Y026950D01*
X018389Y026973D02*
X016377Y026973D01*
X016381Y026950D02*
X016372Y027005D01*
X016350Y027073D01*
X016318Y027136D01*
X016277Y027193D01*
X016226Y027243D01*
X016169Y027285D01*
X016106Y027317D01*
X016039Y027339D01*
X015969Y027350D01*
X015683Y027350D01*
X015683Y026950D01*
X015583Y026950D01*
X015583Y026850D01*
X014886Y026850D01*
X014894Y026795D01*
X014916Y026727D01*
X014948Y026664D01*
X014990Y026607D01*
X015040Y026557D01*
X015097Y026515D01*
X015161Y026483D01*
X015228Y026461D01*
X015298Y026450D01*
X015583Y026450D01*
X015583Y026850D01*
X015683Y026850D01*
X015683Y026950D01*
X016381Y026950D01*
X016351Y027072D02*
X018416Y027072D01*
X018473Y027170D02*
X016293Y027170D01*
X016192Y027269D02*
X018575Y027269D01*
X018563Y027564D02*
X016204Y027564D01*
X016176Y027537D02*
X016297Y027657D01*
X016362Y027815D01*
X016362Y027985D01*
X016297Y028143D01*
X016176Y028263D01*
X016019Y028329D01*
X015248Y028329D01*
X015090Y028263D01*
X014970Y028143D01*
X014905Y027985D01*
X014905Y027815D01*
X014970Y027657D01*
X015090Y027537D01*
X015248Y027471D01*
X016019Y027471D01*
X016176Y027537D01*
X016299Y027663D02*
X018468Y027663D01*
X018427Y027761D02*
X016340Y027761D01*
X016362Y027860D02*
X018405Y027860D01*
X018405Y027958D02*
X016362Y027958D01*
X016333Y028057D02*
X018434Y028057D01*
X018482Y028155D02*
X016285Y028155D01*
X016186Y028254D02*
X018581Y028254D01*
X018578Y028549D02*
X016189Y028549D01*
X016176Y028537D02*
X016297Y028657D01*
X016362Y028815D01*
X016362Y028985D01*
X016297Y029143D01*
X016176Y029263D01*
X016019Y029329D01*
X015248Y029329D01*
X015090Y029263D01*
X014970Y029143D01*
X014905Y028985D01*
X014905Y028815D01*
X014970Y028657D01*
X015090Y028537D01*
X015248Y028471D01*
X016019Y028471D01*
X016176Y028537D01*
X016287Y028648D02*
X018479Y028648D01*
X018433Y028746D02*
X016334Y028746D01*
X016362Y028845D02*
X018405Y028845D01*
X018405Y028943D02*
X016362Y028943D01*
X016339Y029042D02*
X018428Y029042D01*
X018469Y029140D02*
X016298Y029140D01*
X016201Y029239D02*
X018566Y029239D01*
X019701Y029239D02*
X020823Y029239D01*
X020823Y029337D02*
X005946Y029337D01*
X005716Y029239D02*
X015066Y029239D01*
X014969Y029140D02*
X005617Y029140D01*
X005553Y029042D02*
X014928Y029042D01*
X014905Y028943D02*
X006914Y028943D01*
X007015Y028901D02*
X006776Y029000D01*
X006518Y029000D01*
X006279Y028901D01*
X006096Y028718D01*
X005997Y028479D01*
X005997Y028221D01*
X006096Y027982D01*
X006279Y027799D01*
X006518Y027700D01*
X006776Y027700D01*
X007015Y027799D01*
X007198Y027982D01*
X007297Y028221D01*
X007297Y028479D01*
X007198Y028718D01*
X007015Y028901D01*
X007072Y028845D02*
X014905Y028845D01*
X014933Y028746D02*
X007170Y028746D01*
X007227Y028648D02*
X014979Y028648D01*
X015078Y028549D02*
X007268Y028549D01*
X007297Y028451D02*
X019662Y028451D01*
X019662Y028352D02*
X007297Y028352D01*
X007297Y028254D02*
X015081Y028254D01*
X014982Y028155D02*
X007270Y028155D01*
X007229Y028057D02*
X014934Y028057D01*
X014905Y027958D02*
X007174Y027958D01*
X007076Y027860D02*
X014905Y027860D01*
X014927Y027761D02*
X006924Y027761D01*
X006370Y027761D02*
X005483Y027761D01*
X005483Y027663D02*
X008917Y027663D01*
X008923Y027669D02*
X008625Y027371D01*
X008625Y026949D01*
X008923Y026651D01*
X009344Y026651D01*
X009642Y026949D01*
X009642Y027371D01*
X009344Y027669D01*
X008923Y027669D01*
X008818Y027564D02*
X005483Y027564D01*
X005483Y027466D02*
X008720Y027466D01*
X008625Y027367D02*
X005483Y027367D01*
X005483Y027269D02*
X008625Y027269D01*
X008625Y027170D02*
X005483Y027170D01*
X005483Y027072D02*
X008625Y027072D01*
X008625Y026973D02*
X005483Y026973D01*
X005483Y026875D02*
X008699Y026875D01*
X008798Y026776D02*
X005483Y026776D01*
X005483Y026678D02*
X008896Y026678D01*
X009371Y026678D02*
X011105Y026678D01*
X011140Y026713D02*
X011020Y026593D01*
X010955Y026435D01*
X010955Y026265D01*
X011020Y026107D01*
X011140Y025987D01*
X011298Y025921D01*
X012069Y025921D01*
X012226Y025987D01*
X012347Y026107D01*
X012412Y026265D01*
X012412Y026435D01*
X012347Y026593D01*
X012226Y026713D01*
X012069Y026779D01*
X011298Y026779D01*
X011140Y026713D01*
X011292Y026776D02*
X009469Y026776D01*
X009568Y026875D02*
X015583Y026875D01*
X015583Y026950D02*
X014886Y026950D01*
X014894Y027005D01*
X014916Y027073D01*
X014948Y027136D01*
X014990Y027193D01*
X015040Y027243D01*
X015097Y027285D01*
X015161Y027317D01*
X015228Y027339D01*
X015298Y027350D01*
X015583Y027350D01*
X015583Y026950D01*
X015583Y026973D02*
X015683Y026973D01*
X015683Y026875D02*
X019083Y026875D01*
X019083Y026973D02*
X019183Y026973D01*
X019183Y026950D02*
X019183Y027350D01*
X019469Y027350D01*
X019539Y027339D01*
X019606Y027317D01*
X019669Y027285D01*
X019726Y027243D01*
X019777Y027193D01*
X019818Y027136D01*
X019850Y027073D01*
X019872Y027005D01*
X019881Y026950D01*
X019183Y026950D01*
X019183Y026875D02*
X020823Y026875D01*
X020823Y026973D02*
X019877Y026973D01*
X019851Y027072D02*
X020823Y027072D01*
X020823Y027170D02*
X019793Y027170D01*
X019692Y027269D02*
X020823Y027269D01*
X020823Y027367D02*
X009642Y027367D01*
X009642Y027269D02*
X015075Y027269D01*
X014973Y027170D02*
X009642Y027170D01*
X009642Y027072D02*
X014916Y027072D01*
X014889Y026973D02*
X009642Y026973D01*
X009547Y027466D02*
X020823Y027466D01*
X020823Y027564D02*
X019704Y027564D01*
X019799Y027663D02*
X020823Y027663D01*
X020823Y027761D02*
X019840Y027761D01*
X019862Y027860D02*
X019959Y027860D01*
X020665Y027860D02*
X020823Y027860D01*
X020823Y027958D02*
X020772Y027958D01*
X020804Y028845D02*
X020823Y028845D01*
X020823Y028943D02*
X020705Y028943D01*
X020823Y029042D02*
X020503Y029042D01*
X020823Y029140D02*
X019798Y029140D01*
X019839Y029042D02*
X020122Y029042D01*
X019919Y028943D02*
X019862Y028943D01*
X019183Y027269D02*
X019083Y027269D01*
X019083Y027170D02*
X019183Y027170D01*
X019183Y027072D02*
X019083Y027072D01*
X019083Y026776D02*
X019183Y026776D01*
X019183Y026678D02*
X019083Y026678D01*
X019083Y026579D02*
X019183Y026579D01*
X019183Y026481D02*
X019083Y026481D01*
X019599Y026481D02*
X020823Y026481D01*
X020823Y026579D02*
X019749Y026579D01*
X019825Y026678D02*
X020823Y026678D01*
X020823Y026776D02*
X019866Y026776D01*
X019628Y026284D02*
X020823Y026284D01*
X020823Y026382D02*
X012412Y026382D01*
X012412Y026284D02*
X015139Y026284D01*
X015012Y026185D02*
X012379Y026185D01*
X012326Y026087D02*
X014947Y026087D01*
X014906Y025988D02*
X012228Y025988D01*
X012069Y025779D02*
X012226Y025713D01*
X012347Y025593D01*
X012412Y025435D01*
X012412Y025265D01*
X012347Y025107D01*
X012226Y024987D01*
X012069Y024921D01*
X011298Y024921D01*
X011140Y024987D01*
X011020Y025107D01*
X010955Y025265D01*
X010955Y025435D01*
X011020Y025593D01*
X011140Y025713D01*
X011298Y025779D01*
X012069Y025779D01*
X012247Y025693D02*
X014955Y025693D01*
X014914Y025791D02*
X005483Y025791D01*
X005483Y025693D02*
X011120Y025693D01*
X011021Y025594D02*
X005483Y025594D01*
X005483Y025496D02*
X010980Y025496D01*
X010955Y025397D02*
X005483Y025397D01*
X005483Y025299D02*
X010955Y025299D01*
X010981Y025200D02*
X005483Y025200D01*
X005483Y025102D02*
X011025Y025102D01*
X011124Y025003D02*
X005483Y025003D01*
X005483Y024905D02*
X012825Y024905D01*
X012880Y025003D02*
X012243Y025003D01*
X012341Y025102D02*
X013128Y025102D01*
X013145Y025200D02*
X012385Y025200D01*
X012412Y025299D02*
X015425Y025299D01*
X015425Y025397D02*
X012412Y025397D01*
X012387Y025496D02*
X015189Y025496D01*
X015033Y025594D02*
X012346Y025594D01*
X012089Y024789D02*
X012019Y024800D01*
X011733Y024800D01*
X011733Y024400D01*
X011633Y024400D01*
X011633Y024300D01*
X010936Y024300D01*
X010944Y024245D01*
X010966Y024177D01*
X010998Y024114D01*
X011040Y024057D01*
X011090Y024007D01*
X011147Y023965D01*
X011211Y023933D01*
X011278Y023911D01*
X011348Y023900D01*
X011633Y023900D01*
X011633Y024300D01*
X011733Y024300D01*
X011733Y024400D01*
X012431Y024400D01*
X012422Y024455D01*
X012400Y024523D01*
X012368Y024586D01*
X012327Y024643D01*
X012276Y024693D01*
X012219Y024735D01*
X012156Y024767D01*
X012089Y024789D01*
X012257Y024708D02*
X012714Y024708D01*
X012769Y024806D02*
X005483Y024806D01*
X005483Y024708D02*
X011110Y024708D01*
X011090Y024693D02*
X011040Y024643D01*
X010998Y024586D01*
X010966Y024523D01*
X010944Y024455D01*
X010936Y024400D01*
X011633Y024400D01*
X011633Y024800D01*
X011348Y024800D01*
X011278Y024789D01*
X011211Y024767D01*
X011147Y024735D01*
X011090Y024693D01*
X011015Y024609D02*
X005483Y024609D01*
X005483Y024511D02*
X010962Y024511D01*
X010938Y024412D02*
X005483Y024412D01*
X005483Y024314D02*
X011633Y024314D01*
X011633Y024412D02*
X011733Y024412D01*
X011733Y024314D02*
X012492Y024314D01*
X012547Y024412D02*
X012429Y024412D01*
X012404Y024511D02*
X012603Y024511D01*
X012658Y024609D02*
X012351Y024609D01*
X012413Y024215D02*
X012437Y024215D01*
X012375Y024117D02*
X012369Y024117D01*
X012375Y024018D02*
X012288Y024018D01*
X012375Y023920D02*
X012115Y023920D01*
X012204Y023723D02*
X012375Y023723D01*
X012375Y023821D02*
X005483Y023821D01*
X005483Y023723D02*
X008884Y023723D01*
X008914Y023753D02*
X008603Y023442D01*
X008603Y023273D01*
X009083Y023273D01*
X009083Y023173D01*
X008603Y023173D01*
X008603Y023003D01*
X008914Y022693D01*
X009083Y022693D01*
X009083Y023173D01*
X009183Y023173D01*
X009183Y022693D01*
X009353Y022693D01*
X009663Y023003D01*
X009663Y023173D01*
X009183Y023173D01*
X009183Y023273D01*
X009083Y023273D01*
X009083Y023753D01*
X008914Y023753D01*
X009083Y023723D02*
X009183Y023723D01*
X009183Y023753D02*
X009183Y023273D01*
X009663Y023273D01*
X009663Y023442D01*
X009353Y023753D01*
X009183Y023753D01*
X009183Y023624D02*
X009083Y023624D01*
X009083Y023526D02*
X009183Y023526D01*
X009183Y023427D02*
X009083Y023427D01*
X009083Y023329D02*
X009183Y023329D01*
X009183Y023230D02*
X010969Y023230D01*
X010955Y023329D02*
X009663Y023329D01*
X009663Y023427D02*
X010955Y023427D01*
X010992Y023526D02*
X009580Y023526D01*
X009482Y023624D02*
X011051Y023624D01*
X011162Y023723D02*
X009383Y023723D01*
X009083Y023230D02*
X005483Y023230D01*
X005483Y023132D02*
X008603Y023132D01*
X008603Y023033D02*
X005483Y023033D01*
X005483Y022935D02*
X008672Y022935D01*
X008771Y022836D02*
X005483Y022836D01*
X005483Y022738D02*
X008869Y022738D01*
X009083Y022738D02*
X009183Y022738D01*
X009183Y022836D02*
X009083Y022836D01*
X009083Y022935D02*
X009183Y022935D01*
X009183Y023033D02*
X009083Y023033D01*
X009083Y023132D02*
X009183Y023132D01*
X009496Y022836D02*
X012375Y022836D01*
X012375Y022935D02*
X012101Y022935D01*
X012273Y023033D02*
X012375Y023033D01*
X012375Y023132D02*
X012357Y023132D01*
X012026Y022738D02*
X009398Y022738D01*
X009595Y022935D02*
X011266Y022935D01*
X011094Y023033D02*
X009663Y023033D01*
X009663Y023132D02*
X011010Y023132D01*
X011730Y022442D02*
X005483Y022442D01*
X005483Y022344D02*
X011632Y022344D01*
X011575Y022245D02*
X005483Y022245D01*
X005483Y022147D02*
X011575Y022147D01*
X011575Y022048D02*
X005483Y022048D01*
X005483Y021950D02*
X011575Y021950D01*
X011575Y021851D02*
X005483Y021851D01*
X005483Y021753D02*
X011575Y021753D01*
X011575Y021654D02*
X005483Y021654D01*
X005483Y021556D02*
X011575Y021556D01*
X011575Y021457D02*
X005483Y021457D01*
X005483Y021359D02*
X011575Y021359D01*
X011575Y021260D02*
X005483Y021260D01*
X005483Y021162D02*
X011200Y021162D01*
X011101Y021063D02*
X005483Y021063D01*
X005483Y020965D02*
X011003Y020965D01*
X010904Y020866D02*
X005483Y020866D01*
X005483Y020768D02*
X010806Y020768D01*
X009413Y020275D02*
X006904Y020275D01*
X006805Y020177D02*
X009315Y020177D01*
X009297Y020159D02*
X009297Y020159D01*
X009216Y020078D02*
X006707Y020078D01*
X006632Y019980D02*
X009175Y019980D01*
X009175Y019881D02*
X006632Y019881D01*
X006632Y019783D02*
X009175Y019783D01*
X009175Y019684D02*
X006632Y019684D01*
X006632Y019586D02*
X009175Y019586D01*
X009175Y019487D02*
X006632Y019487D01*
X006632Y019389D02*
X009175Y019389D01*
X009175Y019290D02*
X006632Y019290D01*
X006632Y019192D02*
X009175Y019192D01*
X009175Y019093D02*
X006632Y019093D01*
X006632Y018995D02*
X009175Y018995D01*
X009175Y018896D02*
X006632Y018896D01*
X006632Y018798D02*
X009175Y018798D01*
X009175Y018699D02*
X006632Y018699D01*
X006632Y018601D02*
X009175Y018601D01*
X009175Y018502D02*
X006632Y018502D01*
X006632Y018404D02*
X009175Y018404D01*
X009233Y018305D02*
X006632Y018305D01*
X006632Y018207D02*
X008072Y018207D01*
X008195Y018207D02*
X009276Y018207D01*
X009310Y018108D02*
X008359Y018108D01*
X007907Y018108D02*
X006632Y018108D01*
X006632Y018010D02*
X007847Y018010D01*
X007826Y017911D02*
X006632Y017911D01*
X006632Y017813D02*
X007837Y017813D01*
X007885Y017714D02*
X006632Y017714D01*
X006632Y017616D02*
X008018Y017616D01*
X008248Y017616D02*
X011628Y017616D01*
X011626Y017517D02*
X006632Y017517D01*
X006632Y017419D02*
X011656Y017419D01*
X011729Y017320D02*
X006632Y017320D01*
X006632Y017222D02*
X012793Y017222D01*
X012787Y017320D02*
X012137Y017320D01*
X012211Y017419D02*
X012793Y017419D01*
X012787Y017517D02*
X012395Y017517D01*
X012708Y017925D02*
X013211Y017925D01*
X012833Y017925D01*
X013211Y017728D02*
X013505Y017728D01*
X013783Y017650D01*
X016533Y017650D01*
X016983Y017250D01*
X017243Y017123D02*
X017431Y017123D01*
X017426Y017111D02*
X017426Y016989D01*
X017473Y016876D01*
X017550Y016799D01*
X017550Y016774D01*
X017464Y016774D01*
X017444Y016754D01*
X017423Y016774D01*
X017267Y016774D01*
X017247Y016754D01*
X017226Y016774D01*
X017071Y016774D01*
X017050Y016754D01*
X017029Y016774D01*
X016874Y016774D01*
X016853Y016754D01*
X016832Y016774D01*
X016677Y016774D01*
X016656Y016754D01*
X016636Y016774D01*
X016480Y016774D01*
X016459Y016754D01*
X016439Y016774D01*
X016283Y016774D01*
X016262Y016754D01*
X016242Y016774D01*
X016086Y016774D01*
X016066Y016754D01*
X016045Y016774D01*
X015889Y016774D01*
X015869Y016754D01*
X015848Y016774D01*
X015693Y016774D01*
X015672Y016754D01*
X015651Y016774D01*
X015496Y016774D01*
X015475Y016754D01*
X015454Y016774D01*
X015299Y016774D01*
X015289Y016765D01*
X015260Y016781D01*
X015207Y016796D01*
X015180Y016796D01*
X015180Y016350D01*
X015180Y015905D01*
X015198Y015905D01*
X015198Y015664D01*
X015188Y015553D01*
X015182Y015546D01*
X015182Y015480D01*
X015179Y015446D01*
X015172Y015511D01*
X015172Y015905D01*
X015180Y015905D01*
X015180Y016350D01*
X015180Y016350D01*
X015180Y016350D01*
X015180Y016796D01*
X015152Y016796D01*
X015099Y016781D01*
X015070Y016765D01*
X015061Y016774D01*
X014972Y016774D01*
X014972Y017261D01*
X016177Y017261D01*
X016176Y017261D01*
X016176Y017139D01*
X016223Y017026D01*
X016310Y016940D01*
X016422Y016893D01*
X016544Y016893D01*
X016657Y016940D01*
X016743Y017026D01*
X016760Y017065D01*
X016820Y017005D01*
X016926Y016961D01*
X017041Y016961D01*
X017147Y017005D01*
X017228Y017086D01*
X017272Y017193D01*
X017272Y017212D01*
X017287Y017196D01*
X017293Y017196D01*
X017297Y017191D01*
X017378Y017191D01*
X017458Y017187D01*
X017426Y017111D01*
X017426Y017025D02*
X017166Y017025D01*
X017453Y016926D02*
X016624Y016926D01*
X016742Y017025D02*
X016800Y017025D01*
X016343Y016926D02*
X014972Y016926D01*
X014972Y016828D02*
X017522Y016828D01*
X017426Y018010D02*
X017414Y018010D01*
X017446Y018108D02*
X017325Y018108D01*
X017247Y018207D02*
X017506Y018207D01*
X017545Y018305D02*
X017179Y018305D01*
X017545Y018404D02*
X016588Y018404D01*
X016450Y018502D02*
X017545Y018502D01*
X017545Y018601D02*
X016312Y018601D01*
X016174Y018699D02*
X017545Y018699D01*
X017545Y018798D02*
X016036Y018798D01*
X015898Y018896D02*
X017545Y018896D01*
X017545Y018995D02*
X015760Y018995D01*
X015622Y019093D02*
X017545Y019093D01*
X017545Y019192D02*
X015484Y019192D01*
X015346Y019290D02*
X017545Y019290D01*
X017545Y019389D02*
X014079Y019389D01*
X013688Y019389D02*
X013628Y019389D01*
X013635Y019487D02*
X017545Y019487D01*
X017545Y019586D02*
X013628Y019586D01*
X013635Y019684D02*
X017545Y019684D01*
X017545Y019783D02*
X013627Y019783D01*
X013657Y019881D02*
X017545Y019881D01*
X017545Y019980D02*
X016132Y019980D01*
X016244Y020078D02*
X017545Y020078D01*
X017545Y020177D02*
X016285Y020177D01*
X016290Y020275D02*
X017545Y020275D01*
X017545Y020374D02*
X016264Y020374D01*
X016239Y020472D02*
X017327Y020472D01*
X017255Y020571D02*
X016312Y020571D01*
X016340Y020669D02*
X017226Y020669D01*
X017229Y020768D02*
X016337Y020768D01*
X016297Y020866D02*
X017270Y020866D01*
X017370Y020965D02*
X016197Y020965D01*
X015870Y020965D02*
X014685Y020965D01*
X014722Y021063D02*
X015336Y021063D01*
X015259Y021162D02*
X014722Y021162D01*
X014685Y021260D02*
X015226Y021260D01*
X015226Y021359D02*
X014594Y021359D01*
X014719Y021457D02*
X015266Y021457D01*
X015355Y021556D02*
X014790Y021556D01*
X014817Y021654D02*
X015870Y021654D01*
X015772Y021556D02*
X015712Y021556D01*
X015969Y021753D02*
X015107Y021753D01*
X014510Y021682D02*
X013526Y021665D01*
X013211Y021665D01*
X013211Y021469D02*
X013392Y021469D01*
X014172Y021489D01*
X014272Y021489D01*
X014433Y021128D01*
X014433Y021113D01*
X013894Y020472D02*
X013635Y020472D01*
X013627Y020374D02*
X013993Y020374D01*
X013635Y020275D02*
X015676Y020275D01*
X015682Y020177D02*
X013627Y020177D01*
X013635Y020078D02*
X015722Y020078D01*
X015834Y019980D02*
X013639Y019980D01*
X013657Y019894D02*
X013211Y019894D01*
X013211Y019894D01*
X012766Y019894D01*
X012766Y019902D01*
X012698Y019902D01*
X012715Y019886D01*
X012766Y019886D01*
X012766Y019894D01*
X013211Y019894D01*
X013211Y019894D01*
X013657Y019894D01*
X013211Y019500D02*
X012583Y019500D01*
X013629Y017419D02*
X014595Y017419D01*
X014595Y017320D02*
X013635Y017320D01*
X013629Y017222D02*
X014595Y017222D01*
X014595Y017123D02*
X013635Y017123D01*
X013600Y017025D02*
X014595Y017025D01*
X014595Y016926D02*
X006632Y016926D01*
X006632Y016828D02*
X008477Y016828D01*
X008405Y016729D02*
X006632Y016729D01*
X006632Y016631D02*
X008376Y016631D01*
X008379Y016532D02*
X006632Y016532D01*
X006632Y016434D02*
X008420Y016434D01*
X008521Y016335D02*
X006632Y016335D01*
X006632Y016237D02*
X011126Y016237D01*
X011127Y016138D02*
X006632Y016138D01*
X006632Y016040D02*
X011168Y016040D01*
X011258Y015941D02*
X006632Y015941D01*
X006632Y015843D02*
X011220Y015843D01*
X011119Y015744D02*
X006632Y015744D01*
X006632Y015646D02*
X011019Y015646D01*
X010918Y015547D02*
X006632Y015547D01*
X006632Y015449D02*
X010817Y015449D01*
X010716Y015350D02*
X006632Y015350D01*
X006632Y015252D02*
X010645Y015252D01*
X010644Y015153D02*
X006632Y015153D01*
X006632Y015055D02*
X010645Y015055D01*
X010645Y014956D02*
X006632Y014956D01*
X006632Y014858D02*
X010645Y014858D01*
X010567Y014759D02*
X006632Y014759D01*
X006632Y014661D02*
X010526Y014661D01*
X010526Y014562D02*
X006632Y014562D01*
X006632Y014464D02*
X010558Y014464D01*
X010634Y014365D02*
X006632Y014365D01*
X006739Y014267D02*
X007018Y014267D01*
X006965Y014168D02*
X006792Y014168D01*
X006792Y014070D02*
X006965Y014070D01*
X006965Y013971D02*
X006792Y013971D01*
X006792Y013873D02*
X006965Y013873D01*
X006965Y013774D02*
X006792Y013774D01*
X006792Y013676D02*
X006965Y013676D01*
X006965Y013577D02*
X006792Y013577D01*
X006792Y013479D02*
X006965Y013479D01*
X006965Y013380D02*
X006792Y013380D01*
X006792Y013282D02*
X006965Y013282D01*
X007008Y013183D02*
X006748Y013183D01*
X006535Y013085D02*
X007145Y013085D01*
X007145Y012986D02*
X006436Y012986D01*
X006338Y012888D02*
X007145Y012888D01*
X007145Y012789D02*
X006239Y012789D01*
X006222Y012691D02*
X007145Y012691D01*
X007136Y012592D02*
X006222Y012592D01*
X006222Y012494D02*
X007086Y012494D01*
X007008Y012395D02*
X006222Y012395D01*
X006222Y012297D02*
X006929Y012297D01*
X006725Y012198D02*
X006222Y012198D01*
X006222Y012100D02*
X006664Y012100D01*
X006646Y012001D02*
X006222Y012001D01*
X006222Y011903D02*
X006663Y011903D01*
X006534Y011804D02*
X006222Y011804D01*
X006222Y011706D02*
X006496Y011706D01*
X006496Y011607D02*
X006222Y011607D01*
X006222Y011509D02*
X006496Y011509D01*
X006496Y011410D02*
X006222Y011410D01*
X006222Y011312D02*
X006496Y011312D01*
X006496Y011213D02*
X006222Y011213D01*
X006222Y011115D02*
X006496Y011115D01*
X006496Y011016D02*
X006222Y011016D01*
X006222Y010918D02*
X006496Y010918D01*
X006496Y010819D02*
X006222Y010819D01*
X006222Y010721D02*
X006569Y010721D01*
X006551Y010622D02*
X006222Y010622D01*
X006222Y010524D02*
X006551Y010524D01*
X006551Y010425D02*
X006222Y010425D01*
X006222Y010327D02*
X006551Y010327D01*
X006551Y010228D02*
X006222Y010228D01*
X006222Y010130D02*
X006551Y010130D01*
X006551Y010031D02*
X006222Y010031D01*
X006222Y009933D02*
X006551Y009933D01*
X006511Y009637D02*
X008310Y009637D01*
X008408Y009736D02*
X006240Y009736D01*
X006222Y009834D02*
X007407Y009834D01*
X007323Y009933D02*
X007320Y009933D01*
X007673Y009933D02*
X007773Y009933D01*
X007773Y010031D02*
X007673Y010031D01*
X007673Y010130D02*
X007773Y010130D01*
X007773Y010228D02*
X007673Y010228D01*
X007773Y010327D02*
X008914Y010327D01*
X008938Y010425D02*
X008129Y010425D01*
X008129Y010228D02*
X008861Y010228D01*
X008802Y010130D02*
X008129Y010130D01*
X008129Y010031D02*
X008704Y010031D01*
X008605Y009933D02*
X008124Y009933D01*
X008039Y009834D02*
X008507Y009834D01*
X009183Y010031D02*
X010270Y010031D01*
X010262Y010032D02*
X010317Y010024D01*
X010317Y010721D01*
X009917Y010721D01*
X009917Y010436D01*
X009928Y010366D01*
X009950Y010299D01*
X009982Y010235D01*
X010024Y010178D01*
X010074Y010128D01*
X010131Y010086D01*
X010194Y010054D01*
X010262Y010032D01*
X010317Y010031D02*
X010417Y010031D01*
X010464Y010031D02*
X010615Y010031D01*
X010417Y010130D02*
X010317Y010130D01*
X010317Y010228D02*
X010417Y010228D01*
X010417Y010327D02*
X010317Y010327D01*
X010317Y010425D02*
X010417Y010425D01*
X010417Y010524D02*
X010317Y010524D01*
X010317Y010622D02*
X010417Y010622D01*
X010417Y010721D02*
X010317Y010721D01*
X010317Y010819D02*
X009796Y010819D01*
X009796Y010721D02*
X009917Y010721D01*
X009917Y010622D02*
X009796Y010622D01*
X009796Y010524D02*
X009917Y010524D01*
X009919Y010425D02*
X009796Y010425D01*
X009771Y010327D02*
X009941Y010327D01*
X009988Y010228D02*
X009730Y010228D01*
X009632Y010130D02*
X010073Y010130D01*
X009917Y010918D02*
X009796Y010918D01*
X009796Y011016D02*
X009917Y011016D01*
X009918Y011115D02*
X009796Y011115D01*
X009773Y011213D02*
X009940Y011213D01*
X009986Y011312D02*
X009732Y011312D01*
X009635Y011410D02*
X010070Y011410D01*
X009972Y011509D02*
X008171Y011509D01*
X008171Y011607D02*
X009826Y011607D01*
X009747Y011706D02*
X008171Y011706D01*
X008133Y011804D02*
X009275Y011804D01*
X009275Y011903D02*
X007204Y011903D01*
X007220Y012001D02*
X009275Y012001D01*
X009275Y012100D02*
X007255Y012100D01*
X007333Y012198D02*
X009275Y012198D01*
X009275Y012297D02*
X007431Y012297D01*
X007530Y012395D02*
X009275Y012395D01*
X009275Y012494D02*
X007630Y012494D01*
X007522Y012986D02*
X009285Y012986D01*
X009681Y012986D02*
X010086Y012986D01*
X010101Y013085D02*
X007522Y013085D01*
X007658Y013183D02*
X007888Y013183D01*
X007883Y013188D02*
X007911Y013160D01*
X007945Y013140D01*
X007984Y013130D01*
X008193Y013130D01*
X008193Y013670D01*
X007853Y013670D01*
X007853Y013260D01*
X007864Y013222D01*
X007883Y013188D01*
X007853Y013282D02*
X007702Y013282D01*
X007702Y013380D02*
X007853Y013380D01*
X007853Y013479D02*
X007702Y013479D01*
X007702Y013577D02*
X007853Y013577D01*
X007702Y013676D02*
X008193Y013676D01*
X008193Y013670D02*
X008193Y013770D01*
X007853Y013770D01*
X007853Y014180D01*
X007864Y014218D01*
X007883Y014252D01*
X007911Y014280D01*
X007945Y014300D01*
X007984Y014310D01*
X008193Y014310D01*
X008193Y013770D01*
X008293Y013770D01*
X008293Y014310D01*
X008503Y014310D01*
X008541Y014300D01*
X008575Y014280D01*
X008603Y014252D01*
X008623Y014218D01*
X008633Y014180D01*
X008633Y013770D01*
X008293Y013770D01*
X008293Y013670D01*
X008293Y013130D01*
X008503Y013130D01*
X008541Y013140D01*
X008575Y013160D01*
X008603Y013188D01*
X008623Y013222D01*
X008633Y013260D01*
X008633Y013670D01*
X008293Y013670D01*
X008193Y013670D01*
X008193Y013577D02*
X008293Y013577D01*
X008293Y013479D02*
X008193Y013479D01*
X008193Y013380D02*
X008293Y013380D01*
X008293Y013282D02*
X008193Y013282D01*
X008193Y013183D02*
X008293Y013183D01*
X008598Y013183D02*
X010158Y013183D01*
X010202Y013282D02*
X008633Y013282D01*
X008633Y013380D02*
X010246Y013380D01*
X010289Y013479D02*
X008633Y013479D01*
X008633Y013577D02*
X010333Y013577D01*
X010442Y013676D02*
X008293Y013676D01*
X008293Y013774D02*
X008193Y013774D01*
X008193Y013873D02*
X008293Y013873D01*
X008293Y013971D02*
X008193Y013971D01*
X008193Y014070D02*
X008293Y014070D01*
X008293Y014168D02*
X008193Y014168D01*
X008193Y014267D02*
X008293Y014267D01*
X008589Y014267D02*
X011409Y014267D01*
X011409Y014365D02*
X011032Y014365D01*
X011109Y014464D02*
X011438Y014464D01*
X011412Y014562D02*
X011140Y014562D01*
X011140Y014661D02*
X011409Y014661D01*
X011409Y014759D02*
X011100Y014759D01*
X011022Y014858D02*
X011409Y014858D01*
X011409Y014956D02*
X011022Y014956D01*
X011022Y015055D02*
X011409Y015055D01*
X011409Y015153D02*
X011055Y015153D01*
X011156Y015252D02*
X011478Y015252D01*
X011681Y015350D02*
X011256Y015350D01*
X011357Y015449D02*
X011772Y015449D01*
X011861Y015547D02*
X011458Y015547D01*
X011558Y015646D02*
X011950Y015646D01*
X012016Y015744D02*
X011663Y015744D01*
X011735Y015843D02*
X012022Y015843D01*
X012066Y015941D02*
X011811Y015941D01*
X012305Y015771D02*
X011833Y015250D01*
X011833Y014874D01*
X012257Y014858D02*
X012409Y014858D01*
X012409Y014956D02*
X012257Y014956D01*
X012257Y015055D02*
X012409Y015055D01*
X012409Y015153D02*
X012257Y015153D01*
X012257Y015183D02*
X012257Y014565D01*
X012193Y014500D01*
X012257Y014435D01*
X012257Y013817D01*
X012182Y013741D01*
X011485Y013741D01*
X011409Y013817D01*
X011409Y013861D01*
X011162Y013861D01*
X010642Y013341D01*
X010508Y013042D01*
X010662Y012889D01*
X010973Y012889D01*
X010973Y013468D01*
X011048Y013543D01*
X011292Y013543D01*
X011298Y013537D01*
X011304Y013543D01*
X011548Y013543D01*
X011554Y013537D01*
X011560Y013543D01*
X011792Y013543D01*
X011811Y013554D01*
X011849Y013564D01*
X011938Y013564D01*
X011938Y013139D01*
X011938Y012714D01*
X012026Y012714D01*
X012064Y012725D01*
X012083Y012736D01*
X012315Y012736D01*
X012322Y012742D01*
X012328Y012736D01*
X012571Y012736D01*
X012577Y012742D01*
X012584Y012736D01*
X012816Y012736D01*
X012835Y012725D01*
X012873Y012714D01*
X012961Y012714D01*
X012961Y013139D01*
X012961Y013139D01*
X012961Y012714D01*
X013050Y012714D01*
X013088Y012725D01*
X013107Y012736D01*
X013284Y012736D01*
X013284Y012368D01*
X013205Y012289D01*
X012805Y012289D01*
X012755Y012239D01*
X012312Y012239D01*
X011922Y012628D01*
X011922Y012678D01*
X011886Y012714D01*
X011938Y012714D01*
X011938Y013139D01*
X011938Y013139D01*
X011938Y013139D01*
X011938Y013564D01*
X012026Y013564D01*
X012064Y013554D01*
X012083Y013543D01*
X012315Y013543D01*
X012322Y013537D01*
X012328Y013543D01*
X012571Y013543D01*
X012577Y013537D01*
X012584Y013543D01*
X012816Y013543D01*
X012835Y013554D01*
X012873Y013564D01*
X012961Y013564D01*
X012961Y013139D01*
X012961Y013139D01*
X012961Y013564D01*
X013050Y013564D01*
X013088Y013554D01*
X013107Y013543D01*
X013339Y013543D01*
X013345Y013537D01*
X013351Y013543D01*
X013595Y013543D01*
X013601Y013537D01*
X013607Y013543D01*
X013851Y013543D01*
X013857Y013537D01*
X013863Y013543D01*
X014107Y013543D01*
X014113Y013537D01*
X014119Y013543D01*
X014295Y013543D01*
X014276Y013589D01*
X014276Y013711D01*
X014323Y013824D01*
X014410Y013910D01*
X014522Y013957D01*
X014644Y013957D01*
X014757Y013910D01*
X014843Y013824D01*
X014890Y013712D01*
X014890Y014203D01*
X014965Y014278D01*
X015633Y014278D01*
X015603Y014295D01*
X015582Y014317D01*
X015552Y014287D01*
X015170Y014287D01*
X015094Y014362D01*
X015094Y015138D01*
X015170Y015213D01*
X015182Y015213D01*
X015182Y015407D01*
X015176Y015414D01*
X015179Y015442D01*
X015172Y015434D01*
X015172Y015422D01*
X015124Y015374D01*
X014972Y015184D01*
X014972Y015172D01*
X014924Y015124D01*
X014882Y015071D01*
X014870Y015070D01*
X014862Y015061D01*
X014794Y015061D01*
X014726Y015054D01*
X014717Y015061D01*
X013662Y015061D01*
X013505Y015061D01*
X013055Y015511D01*
X013012Y015554D01*
X013012Y015259D01*
X013182Y015259D01*
X013257Y015183D01*
X013257Y014565D01*
X013193Y014500D01*
X013257Y014435D01*
X013257Y014315D01*
X013747Y014315D01*
X013761Y014325D01*
X013823Y014315D01*
X013886Y014315D01*
X013898Y014302D01*
X013915Y014299D01*
X013946Y014257D01*
X013994Y014257D01*
X014107Y014210D01*
X014193Y014124D01*
X014240Y014011D01*
X014240Y013889D01*
X014193Y013776D01*
X014107Y013690D01*
X013994Y013643D01*
X013872Y013643D01*
X013760Y013690D01*
X013673Y013776D01*
X013626Y013889D01*
X013626Y013937D01*
X013257Y013937D01*
X013257Y013817D01*
X013182Y013741D01*
X012485Y013741D01*
X012409Y013817D01*
X012409Y014435D01*
X012474Y014500D01*
X012409Y014565D01*
X012409Y015183D01*
X012485Y015259D01*
X012655Y015259D01*
X012655Y015620D01*
X012589Y015686D01*
X012585Y015694D01*
X012549Y015608D01*
X012468Y015526D01*
X012362Y015483D01*
X012285Y015483D01*
X012082Y015259D01*
X012182Y015259D01*
X012257Y015183D01*
X012189Y015252D02*
X012478Y015252D01*
X012655Y015350D02*
X012165Y015350D01*
X012254Y015449D02*
X012655Y015449D01*
X012655Y015547D02*
X012489Y015547D01*
X012565Y015646D02*
X012629Y015646D01*
X012833Y015850D02*
X012833Y014874D01*
X012409Y014759D02*
X012257Y014759D01*
X012257Y014661D02*
X012409Y014661D01*
X012412Y014562D02*
X012255Y014562D01*
X012229Y014464D02*
X012438Y014464D01*
X012409Y014365D02*
X012257Y014365D01*
X012257Y014267D02*
X012409Y014267D01*
X012409Y014168D02*
X012257Y014168D01*
X012257Y014070D02*
X012409Y014070D01*
X012409Y013971D02*
X012257Y013971D01*
X012257Y013873D02*
X012409Y013873D01*
X012452Y013774D02*
X012215Y013774D01*
X011938Y013479D02*
X011938Y013479D01*
X011938Y013380D02*
X011938Y013380D01*
X011938Y013282D02*
X011938Y013282D01*
X011938Y013183D02*
X011938Y013183D01*
X011938Y013085D02*
X011938Y013085D01*
X011938Y012986D02*
X011938Y012986D01*
X011938Y012888D02*
X011938Y012888D01*
X011938Y012789D02*
X011938Y012789D01*
X011910Y012691D02*
X013284Y012691D01*
X013284Y012592D02*
X011958Y012592D01*
X012057Y012494D02*
X013284Y012494D01*
X013284Y012395D02*
X012155Y012395D01*
X012254Y012297D02*
X013213Y012297D01*
X012961Y012789D02*
X012961Y012789D01*
X012961Y012888D02*
X012961Y012888D01*
X012961Y012986D02*
X012961Y012986D01*
X012961Y013085D02*
X012961Y013085D01*
X012961Y013183D02*
X012961Y013183D01*
X012961Y013282D02*
X012961Y013282D01*
X012961Y013380D02*
X012961Y013380D01*
X012961Y013479D02*
X012961Y013479D01*
X013215Y013774D02*
X013675Y013774D01*
X013633Y013873D02*
X013257Y013873D01*
X013794Y013676D02*
X010976Y013676D01*
X011074Y013774D02*
X011452Y013774D01*
X010984Y013479D02*
X010779Y013479D01*
X010877Y013577D02*
X014281Y013577D01*
X014276Y013676D02*
X014073Y013676D01*
X014191Y013774D02*
X014303Y013774D01*
X014372Y013873D02*
X014233Y013873D01*
X014240Y013971D02*
X014890Y013971D01*
X014890Y013873D02*
X014795Y013873D01*
X014864Y013774D02*
X014890Y013774D01*
X014890Y014070D02*
X014216Y014070D01*
X014149Y014168D02*
X014890Y014168D01*
X014953Y014267D02*
X013939Y014267D01*
X013257Y014365D02*
X015094Y014365D01*
X015094Y014464D02*
X013229Y014464D01*
X013255Y014562D02*
X015094Y014562D01*
X015094Y014661D02*
X013257Y014661D01*
X013257Y014759D02*
X015094Y014759D01*
X015094Y014858D02*
X013257Y014858D01*
X013257Y014956D02*
X015094Y014956D01*
X015094Y015055D02*
X014733Y015055D01*
X014726Y015055D02*
X013257Y015055D01*
X013257Y015153D02*
X013413Y015153D01*
X013315Y015252D02*
X013189Y015252D01*
X013216Y015350D02*
X013012Y015350D01*
X013012Y015449D02*
X013118Y015449D01*
X013019Y015547D02*
X013012Y015547D01*
X013392Y016532D02*
X013481Y016532D01*
X013348Y016631D02*
X013811Y016631D01*
X013876Y016729D02*
X013304Y016729D01*
X012823Y017025D02*
X006632Y017025D01*
X006632Y017123D02*
X012787Y017123D01*
X011157Y016335D02*
X008845Y016335D01*
X008890Y016828D02*
X014595Y016828D01*
X014972Y017025D02*
X016225Y017025D01*
X016183Y017123D02*
X014972Y017123D01*
X014972Y017222D02*
X016176Y017222D01*
X015573Y016350D02*
X015573Y015974D01*
X015797Y015750D01*
X016133Y015750D01*
X016306Y015578D01*
X016306Y014750D01*
X016572Y014759D02*
X017367Y014759D01*
X017373Y014774D02*
X017326Y014661D01*
X017326Y014539D01*
X017373Y014426D01*
X017445Y014355D01*
X017445Y014179D01*
X016757Y014179D01*
X016757Y014183D01*
X016682Y014259D01*
X015985Y014259D01*
X015909Y014183D01*
X015909Y014053D01*
X015777Y014053D01*
X015777Y014203D01*
X015715Y014265D01*
X015814Y014265D01*
X015814Y014731D01*
X015852Y014731D01*
X015852Y014265D01*
X015991Y014265D01*
X016029Y014276D01*
X016063Y014295D01*
X016085Y014317D01*
X016115Y014287D01*
X016497Y014287D01*
X016572Y014362D01*
X016572Y015138D01*
X016497Y015213D01*
X016485Y015213D01*
X016485Y015565D01*
X016560Y015490D01*
X016672Y015443D01*
X016726Y015443D01*
X016726Y015339D01*
X016773Y015226D01*
X016860Y015140D01*
X016972Y015093D01*
X017094Y015093D01*
X017207Y015140D01*
X017259Y015191D01*
X020729Y015191D01*
X020445Y014907D01*
X020372Y014907D01*
X020260Y014860D01*
X020173Y014774D01*
X020126Y014661D01*
X020126Y014539D01*
X020173Y014426D01*
X020260Y014340D01*
X020372Y014293D01*
X020494Y014293D01*
X020607Y014340D01*
X020693Y014426D01*
X020740Y014539D01*
X020740Y014612D01*
X021672Y015543D01*
X021744Y015543D01*
X021855Y015589D01*
X021855Y014380D01*
X021789Y014314D01*
X021745Y014207D01*
X021745Y014179D01*
X017822Y014179D01*
X017822Y014355D01*
X017893Y014426D01*
X017940Y014539D01*
X017940Y014661D01*
X017893Y014774D01*
X017807Y014860D01*
X017694Y014907D01*
X017572Y014907D01*
X017460Y014860D01*
X017373Y014774D01*
X017457Y014858D02*
X016572Y014858D01*
X016572Y014956D02*
X020494Y014956D01*
X020593Y015055D02*
X016572Y015055D01*
X016557Y015153D02*
X016846Y015153D01*
X016763Y015252D02*
X016485Y015252D01*
X016485Y015350D02*
X016726Y015350D01*
X016659Y015449D02*
X016485Y015449D01*
X016485Y015547D02*
X016502Y015547D01*
X016127Y015504D02*
X016127Y015213D01*
X016115Y015213D01*
X016085Y015183D01*
X016063Y015205D01*
X016029Y015224D01*
X015991Y015235D01*
X015852Y015235D01*
X015852Y014769D01*
X015814Y014769D01*
X015814Y015235D01*
X015676Y015235D01*
X015638Y015224D01*
X015603Y015205D01*
X015582Y015183D01*
X015552Y015213D01*
X015540Y015213D01*
X015540Y015465D01*
X015549Y015576D01*
X015555Y015583D01*
X015555Y015649D01*
X015561Y015715D01*
X015555Y015722D01*
X015555Y015739D01*
X015618Y015676D01*
X015723Y015571D01*
X016059Y015571D01*
X016127Y015504D01*
X016127Y015449D02*
X015540Y015449D01*
X015547Y015547D02*
X016084Y015547D01*
X016127Y015350D02*
X015540Y015350D01*
X015540Y015252D02*
X016127Y015252D01*
X015852Y015153D02*
X015814Y015153D01*
X015814Y015055D02*
X015852Y015055D01*
X015852Y014956D02*
X015814Y014956D01*
X015814Y014858D02*
X015852Y014858D01*
X015852Y014661D02*
X015814Y014661D01*
X015814Y014562D02*
X015852Y014562D01*
X015852Y014464D02*
X015814Y014464D01*
X015814Y014365D02*
X015852Y014365D01*
X015852Y014267D02*
X015814Y014267D01*
X015777Y014168D02*
X015909Y014168D01*
X015909Y014070D02*
X015777Y014070D01*
X015995Y014267D02*
X017445Y014267D01*
X017434Y014365D02*
X016572Y014365D01*
X016572Y014464D02*
X017358Y014464D01*
X017326Y014562D02*
X016572Y014562D01*
X016572Y014661D02*
X017326Y014661D01*
X017220Y015153D02*
X020691Y015153D01*
X020986Y014858D02*
X021855Y014858D01*
X021855Y014956D02*
X021085Y014956D01*
X021183Y015055D02*
X021855Y015055D01*
X021855Y015153D02*
X021282Y015153D01*
X021380Y015252D02*
X021855Y015252D01*
X021855Y015350D02*
X021479Y015350D01*
X021577Y015449D02*
X021855Y015449D01*
X021855Y015547D02*
X021754Y015547D01*
X021855Y014759D02*
X020888Y014759D01*
X020789Y014661D02*
X021855Y014661D01*
X021855Y014562D02*
X020740Y014562D01*
X020709Y014464D02*
X021855Y014464D01*
X021840Y014365D02*
X020632Y014365D01*
X020234Y014365D02*
X017832Y014365D01*
X017822Y014267D02*
X021769Y014267D01*
X021833Y014000D02*
X017633Y014000D01*
X016459Y014000D01*
X016333Y013874D01*
X015353Y013874D01*
X015333Y013894D01*
X015361Y014750D02*
X015361Y015472D01*
X015377Y015657D01*
X015377Y016350D01*
X015180Y016335D02*
X015180Y016335D01*
X015180Y016237D02*
X015180Y016237D01*
X015180Y016138D02*
X015180Y016138D01*
X015180Y016040D02*
X015180Y016040D01*
X015180Y015941D02*
X015180Y015941D01*
X015172Y015843D02*
X015198Y015843D01*
X015198Y015744D02*
X015172Y015744D01*
X015172Y015646D02*
X015196Y015646D01*
X015183Y015547D02*
X015172Y015547D01*
X015179Y015449D02*
X015179Y015449D01*
X015182Y015350D02*
X015105Y015350D01*
X015182Y015252D02*
X015026Y015252D01*
X014953Y015153D02*
X015109Y015153D01*
X015555Y015646D02*
X015649Y015646D01*
X015180Y016434D02*
X015180Y016434D01*
X015180Y016532D02*
X015180Y016532D01*
X015180Y016631D02*
X015180Y016631D01*
X015180Y016729D02*
X015180Y016729D01*
X017810Y014858D02*
X020257Y014858D01*
X020167Y014759D02*
X017900Y014759D01*
X017940Y014661D02*
X020126Y014661D01*
X020126Y014562D02*
X017940Y014562D01*
X017909Y014464D02*
X020158Y014464D01*
X015333Y013106D02*
X014777Y012400D01*
X014383Y012400D01*
X014241Y012593D01*
X014241Y013139D01*
X013887Y012001D02*
X013830Y012001D01*
X013731Y011903D02*
X014402Y011903D01*
X014344Y011804D02*
X013633Y011804D01*
X013534Y011706D02*
X014269Y011706D01*
X012878Y009440D02*
X012546Y009440D01*
X012696Y009342D02*
X012771Y009342D01*
X012111Y009342D02*
X011642Y009342D01*
X011642Y009243D02*
X012040Y009243D01*
X012005Y009145D02*
X011642Y009145D01*
X010975Y009145D02*
X008823Y009145D01*
X008922Y009243D02*
X010975Y009243D01*
X010975Y009342D02*
X009020Y009342D01*
X009119Y009440D02*
X010975Y009440D01*
X010975Y009539D02*
X009217Y009539D01*
X009270Y009591D02*
X010684Y009591D01*
X010717Y009575D01*
X010767Y009591D01*
X010820Y009591D01*
X010846Y009618D01*
X010881Y009629D01*
X010905Y009676D01*
X010942Y009714D01*
X010942Y009751D01*
X010975Y009816D01*
X010975Y008217D01*
X010963Y008149D01*
X010975Y008133D01*
X010975Y008114D01*
X011024Y008065D01*
X011225Y007783D01*
X011225Y007764D01*
X011274Y007715D01*
X011302Y007675D01*
X011206Y007635D01*
X011012Y007441D01*
X010907Y007187D01*
X010907Y006913D01*
X010907Y006978D02*
X009007Y006978D01*
X009007Y006954D02*
X009007Y007829D01*
X008932Y007904D01*
X008572Y007904D01*
X008572Y008578D01*
X008556Y008594D01*
X008556Y008730D01*
X008480Y008806D01*
X008098Y008806D01*
X008045Y008753D01*
X008035Y008769D01*
X008007Y008797D01*
X007973Y008817D01*
X007935Y008827D01*
X007796Y008827D01*
X007796Y008519D01*
X007759Y008519D01*
X007759Y008827D01*
X007620Y008827D01*
X007583Y008817D01*
X007547Y008827D01*
X007408Y008827D01*
X007408Y008519D01*
X007370Y008519D01*
X007370Y008827D01*
X007232Y008827D01*
X007194Y008817D01*
X007159Y008797D01*
X007131Y008769D01*
X007122Y008753D01*
X007101Y008773D01*
X007170Y008841D01*
X008520Y008841D01*
X008642Y008964D01*
X009270Y009591D01*
X008725Y009046D02*
X010975Y009046D01*
X010975Y008948D02*
X008626Y008948D01*
X008528Y008849D02*
X010975Y008849D01*
X010975Y008751D02*
X008536Y008751D01*
X008556Y008652D02*
X010975Y008652D01*
X010975Y008554D02*
X008572Y008554D01*
X008572Y008455D02*
X010975Y008455D01*
X010975Y008357D02*
X008572Y008357D01*
X008572Y008258D02*
X010975Y008258D01*
X010965Y008160D02*
X008572Y008160D01*
X008572Y008061D02*
X011026Y008061D01*
X011096Y007963D02*
X008572Y007963D01*
X008972Y007864D02*
X011167Y007864D01*
X011225Y007766D02*
X009007Y007766D01*
X009007Y007667D02*
X011283Y007667D01*
X011139Y007569D02*
X009007Y007569D01*
X009007Y007470D02*
X011041Y007470D01*
X010983Y007372D02*
X009007Y007372D01*
X009007Y007273D02*
X010942Y007273D01*
X010907Y007175D02*
X009007Y007175D01*
X009007Y007076D02*
X010907Y007076D01*
X010961Y006781D02*
X009001Y006781D01*
X009029Y006682D02*
X011002Y006682D01*
X011087Y006584D02*
X009029Y006584D01*
X009029Y006485D02*
X011186Y006485D01*
X011396Y006387D02*
X009029Y006387D01*
X008633Y006485D02*
X008533Y006485D01*
X008533Y006584D02*
X008633Y006584D01*
X008633Y006682D02*
X008533Y006682D01*
X008533Y006781D02*
X008633Y006781D01*
X008932Y006879D02*
X009007Y006954D01*
X008234Y006879D02*
X007813Y006879D01*
X007879Y006978D02*
X008159Y006978D01*
X008533Y006288D02*
X006527Y006288D01*
X006425Y005697D02*
X020113Y005697D01*
X019954Y005796D02*
X008955Y005796D01*
X008633Y005796D02*
X008533Y005796D01*
X008533Y005894D02*
X008633Y005894D01*
X008633Y005993D02*
X008533Y005993D01*
X008533Y006091D02*
X008633Y006091D01*
X008633Y006190D02*
X008533Y006190D01*
X007796Y008258D02*
X007759Y008258D01*
X007759Y008357D02*
X007796Y008357D01*
X007796Y008455D02*
X007759Y008455D01*
X007759Y008481D02*
X007408Y008481D01*
X007408Y008519D01*
X007677Y008519D01*
X007759Y008519D01*
X007759Y008481D01*
X007759Y008554D02*
X007796Y008554D01*
X007796Y008652D02*
X007759Y008652D01*
X007759Y008751D02*
X007796Y008751D01*
X007408Y008751D02*
X007370Y008751D01*
X007370Y008652D02*
X007408Y008652D01*
X007408Y008554D02*
X007370Y008554D01*
X007370Y008455D02*
X007408Y008455D01*
X007408Y008357D02*
X007370Y008357D01*
X007370Y008258D02*
X007408Y008258D01*
X006622Y008258D02*
X006546Y008258D01*
X006546Y008357D02*
X006611Y008357D01*
X006611Y008455D02*
X006546Y008455D01*
X006611Y008554D02*
X006131Y008554D01*
X006131Y008455D02*
X006031Y008455D01*
X006031Y008478D02*
X006031Y008122D01*
X005746Y008122D01*
X005708Y008132D01*
X005674Y008152D01*
X005646Y008180D01*
X005626Y008214D01*
X005616Y008252D01*
X005616Y008478D01*
X006031Y008478D01*
X006031Y008554D02*
X005483Y008554D01*
X005483Y008652D02*
X005616Y008652D01*
X005616Y008751D02*
X005483Y008751D01*
X005483Y008849D02*
X005630Y008849D01*
X005695Y008948D02*
X005483Y008948D01*
X005483Y009046D02*
X005637Y009046D01*
X005637Y009145D02*
X005483Y009145D01*
X005483Y009243D02*
X005624Y009243D01*
X005609Y009342D02*
X005483Y009342D01*
X005483Y009440D02*
X005609Y009440D01*
X005637Y009539D02*
X005483Y009539D01*
X005483Y009637D02*
X005650Y009637D01*
X005483Y009736D02*
X005827Y009736D01*
X005845Y009834D02*
X005483Y009834D01*
X005483Y009933D02*
X005845Y009933D01*
X005845Y010031D02*
X005483Y010031D01*
X005483Y010130D02*
X005845Y010130D01*
X005845Y010228D02*
X005483Y010228D01*
X005483Y010327D02*
X005845Y010327D01*
X005845Y010425D02*
X005483Y010425D01*
X005483Y010524D02*
X005845Y010524D01*
X005845Y010622D02*
X005483Y010622D01*
X005483Y010721D02*
X005845Y010721D01*
X005845Y010819D02*
X005483Y010819D01*
X005483Y010918D02*
X005845Y010918D01*
X005845Y011016D02*
X005483Y011016D01*
X005483Y011115D02*
X005845Y011115D01*
X005845Y011213D02*
X005483Y011213D01*
X005483Y011312D02*
X005845Y011312D01*
X005845Y011410D02*
X005483Y011410D01*
X005483Y011509D02*
X005845Y011509D01*
X005845Y011607D02*
X005483Y011607D01*
X005483Y011706D02*
X005845Y011706D01*
X005845Y011804D02*
X005483Y011804D01*
X005483Y011903D02*
X005845Y011903D01*
X005845Y012001D02*
X005483Y012001D01*
X005483Y012100D02*
X005845Y012100D01*
X005845Y012198D02*
X005483Y012198D01*
X005483Y012297D02*
X005845Y012297D01*
X005845Y012395D02*
X005483Y012395D01*
X005483Y012494D02*
X005845Y012494D01*
X005845Y012592D02*
X005483Y012592D01*
X005483Y012691D02*
X005845Y012691D01*
X005845Y012789D02*
X005483Y012789D01*
X005483Y012888D02*
X005845Y012888D01*
X005902Y012986D02*
X005483Y012986D01*
X005483Y013085D02*
X006001Y013085D01*
X006098Y013183D02*
X005483Y013183D01*
X005483Y013282D02*
X006055Y013282D01*
X006055Y013380D02*
X005483Y013380D01*
X005483Y013479D02*
X006055Y013479D01*
X006055Y013577D02*
X005483Y013577D01*
X005483Y013676D02*
X006055Y013676D01*
X006055Y013774D02*
X005483Y013774D01*
X005483Y013873D02*
X006055Y013873D01*
X006055Y013971D02*
X005483Y013971D01*
X005483Y014070D02*
X006055Y014070D01*
X006055Y014168D02*
X005483Y014168D01*
X005483Y014267D02*
X006108Y014267D01*
X006215Y014365D02*
X005483Y014365D01*
X005483Y014464D02*
X006215Y014464D01*
X006215Y014562D02*
X005483Y014562D01*
X005483Y014661D02*
X006215Y014661D01*
X006215Y014759D02*
X005483Y014759D01*
X005483Y014858D02*
X006215Y014858D01*
X006215Y014956D02*
X005483Y014956D01*
X005483Y015055D02*
X006215Y015055D01*
X006215Y015153D02*
X005483Y015153D01*
X005483Y015252D02*
X006215Y015252D01*
X006215Y015350D02*
X005483Y015350D01*
X005483Y015449D02*
X006215Y015449D01*
X006215Y015547D02*
X005483Y015547D01*
X005483Y015646D02*
X006215Y015646D01*
X006215Y015744D02*
X005483Y015744D01*
X005483Y015843D02*
X006215Y015843D01*
X006215Y015941D02*
X005483Y015941D01*
X005483Y016040D02*
X006215Y016040D01*
X006215Y016138D02*
X005483Y016138D01*
X005483Y016237D02*
X006215Y016237D01*
X006215Y016335D02*
X005483Y016335D01*
X005483Y016434D02*
X006215Y016434D01*
X006215Y016532D02*
X005483Y016532D01*
X005483Y016631D02*
X006215Y016631D01*
X006215Y016729D02*
X005483Y016729D01*
X005483Y016828D02*
X006215Y016828D01*
X006215Y016926D02*
X005483Y016926D01*
X005483Y017025D02*
X006215Y017025D01*
X006215Y017123D02*
X005483Y017123D01*
X005483Y017222D02*
X006215Y017222D01*
X006215Y017320D02*
X005483Y017320D01*
X005483Y017419D02*
X006215Y017419D01*
X006215Y017517D02*
X005483Y017517D01*
X005483Y017616D02*
X006215Y017616D01*
X006215Y017714D02*
X005483Y017714D01*
X005483Y017813D02*
X006215Y017813D01*
X006215Y017911D02*
X005483Y017911D01*
X005483Y018010D02*
X006215Y018010D01*
X006215Y018108D02*
X005483Y018108D01*
X005483Y018207D02*
X006215Y018207D01*
X006215Y018305D02*
X005483Y018305D01*
X005483Y018404D02*
X006215Y018404D01*
X006215Y018502D02*
X005483Y018502D01*
X005483Y018601D02*
X006215Y018601D01*
X006215Y018699D02*
X005483Y018699D01*
X005483Y018798D02*
X006215Y018798D01*
X006215Y018896D02*
X005483Y018896D01*
X005483Y018995D02*
X006215Y018995D01*
X006215Y019093D02*
X005483Y019093D01*
X005483Y019192D02*
X006215Y019192D01*
X006215Y019290D02*
X005483Y019290D01*
X005483Y019389D02*
X006215Y019389D01*
X006215Y019487D02*
X005483Y019487D01*
X005483Y019586D02*
X006215Y019586D01*
X006215Y019684D02*
X005483Y019684D01*
X005483Y019783D02*
X006215Y019783D01*
X006215Y019881D02*
X005483Y019881D01*
X005483Y019980D02*
X006215Y019980D01*
X006215Y020078D02*
X005483Y020078D01*
X005483Y020177D02*
X006215Y020177D01*
X006313Y020275D02*
X005483Y020275D01*
X005483Y020374D02*
X006412Y020374D01*
X006510Y020472D02*
X005483Y020472D01*
X005483Y020571D02*
X006609Y020571D01*
X006707Y020669D02*
X005483Y020669D01*
X005483Y022541D02*
X011829Y022541D01*
X011927Y022639D02*
X005483Y022639D01*
X005483Y023329D02*
X008603Y023329D01*
X008603Y023427D02*
X005483Y023427D01*
X005483Y023526D02*
X008687Y023526D01*
X008785Y023624D02*
X005483Y023624D01*
X005483Y023920D02*
X011252Y023920D01*
X011079Y024018D02*
X005483Y024018D01*
X005483Y024117D02*
X010997Y024117D01*
X010954Y024215D02*
X005483Y024215D01*
X005483Y025890D02*
X014905Y025890D01*
X015168Y026481D02*
X012393Y026481D01*
X012353Y026579D02*
X015018Y026579D01*
X014942Y026678D02*
X012262Y026678D01*
X012075Y026776D02*
X014900Y026776D01*
X015583Y026776D02*
X015683Y026776D01*
X015683Y026678D02*
X015583Y026678D01*
X015583Y026579D02*
X015683Y026579D01*
X015683Y026481D02*
X015583Y026481D01*
X015583Y027072D02*
X015683Y027072D01*
X015683Y027170D02*
X015583Y027170D01*
X015583Y027269D02*
X015683Y027269D01*
X015063Y027564D02*
X009449Y027564D01*
X009350Y027663D02*
X014968Y027663D01*
X016311Y025693D02*
X017310Y025693D01*
X017276Y025594D02*
X016234Y025594D01*
X016077Y025496D02*
X017276Y025496D01*
X017315Y025397D02*
X015842Y025397D01*
X015842Y025299D02*
X017375Y025299D01*
X017161Y025200D02*
X015842Y025200D01*
X015842Y025102D02*
X017161Y025102D01*
X017161Y025003D02*
X015842Y025003D01*
X015842Y024905D02*
X017161Y024905D01*
X017161Y024806D02*
X015842Y024806D01*
X015842Y024708D02*
X017161Y024708D01*
X017161Y024609D02*
X015842Y024609D01*
X015842Y024511D02*
X017172Y024511D01*
X017165Y024412D02*
X015916Y024412D01*
X016154Y024314D02*
X016413Y024314D01*
X016854Y024314D02*
X017165Y024314D01*
X017550Y024083D02*
X017550Y024866D01*
X017546Y024870D01*
X017792Y025299D02*
X019679Y025299D01*
X019670Y025293D02*
X019642Y025265D01*
X019622Y025231D01*
X019612Y025193D01*
X019612Y025063D01*
X020187Y025063D01*
X020187Y025323D01*
X019742Y025323D01*
X019704Y025313D01*
X019670Y025293D01*
X019614Y025200D02*
X018679Y025200D01*
X018679Y025102D02*
X019612Y025102D01*
X019612Y025003D02*
X018945Y025003D01*
X018977Y024972D02*
X018977Y024972D01*
X019044Y024905D02*
X019614Y024905D01*
X019682Y024806D02*
X019142Y024806D01*
X019142Y024553D02*
X020197Y024553D01*
X020187Y025102D02*
X020207Y025102D01*
X020207Y025200D02*
X020187Y025200D01*
X020187Y025299D02*
X020207Y025299D01*
X019734Y025594D02*
X020823Y025594D01*
X020823Y025496D02*
X019577Y025496D01*
X019811Y025693D02*
X020823Y025693D01*
X020823Y025791D02*
X019852Y025791D01*
X019862Y025890D02*
X020823Y025890D01*
X020823Y025988D02*
X019861Y025988D01*
X019820Y026087D02*
X020823Y026087D01*
X020823Y026185D02*
X019755Y026185D01*
X018798Y024898D02*
X018322Y024898D01*
X018294Y024870D01*
X018679Y024708D02*
X018735Y024708D01*
X018679Y024609D02*
X018834Y024609D01*
X018932Y024511D02*
X018692Y024511D01*
X018743Y024412D02*
X019031Y024412D01*
X018964Y024479D02*
X018964Y024479D01*
X019142Y024553D02*
X018798Y024898D01*
X018743Y024314D02*
X019700Y024314D01*
X019280Y024215D02*
X018743Y024215D01*
X018743Y024018D02*
X019051Y024018D01*
X019168Y024117D02*
X018387Y024117D01*
X018743Y023920D02*
X018934Y023920D01*
X018816Y023821D02*
X018743Y023821D01*
X019020Y023526D02*
X019192Y023526D01*
X019138Y023624D02*
X019290Y023624D01*
X019255Y023723D02*
X019389Y023723D01*
X019372Y023821D02*
X019692Y023821D01*
X019093Y023427D02*
X018903Y023427D01*
X019948Y022935D02*
X020034Y022935D01*
X019895Y022048D02*
X019826Y022048D01*
X017739Y022204D02*
X017739Y022650D01*
X017739Y022256D01*
X017739Y022204D02*
X017739Y022650D01*
X017739Y022650D01*
X017739Y022639D02*
X017739Y022639D01*
X017739Y022541D02*
X017739Y022541D01*
X017739Y022442D02*
X017739Y022442D01*
X017739Y022344D02*
X017739Y022344D01*
X017917Y021063D02*
X015730Y021063D01*
X017697Y020965D02*
X017819Y020965D01*
X017165Y023723D02*
X015237Y023723D01*
X014865Y023723D02*
X014749Y023723D01*
X014719Y023821D02*
X015805Y023821D01*
X015680Y023920D02*
X014719Y023920D01*
X014719Y024018D02*
X015635Y024018D01*
X015622Y024117D02*
X014719Y024117D01*
X014719Y024215D02*
X015523Y024215D01*
X015425Y024511D02*
X014695Y024511D01*
X014740Y024609D02*
X015425Y024609D01*
X015425Y024708D02*
X014740Y024708D01*
X014740Y024806D02*
X015425Y024806D01*
X015425Y024905D02*
X014345Y024905D01*
X014345Y025003D02*
X014245Y025003D01*
X014245Y025102D02*
X014345Y025102D01*
X014345Y025200D02*
X014245Y025200D01*
X014723Y025200D02*
X015425Y025200D01*
X015425Y025102D02*
X014740Y025102D01*
X014740Y025003D02*
X015425Y025003D01*
X016062Y023821D02*
X016505Y023821D01*
X016762Y023821D02*
X017165Y023821D01*
X014196Y023033D02*
X014196Y023033D01*
X014196Y022935D02*
X014196Y022935D01*
X014196Y022836D02*
X014196Y022836D01*
X014196Y022738D02*
X014196Y022738D01*
X013128Y023920D02*
X012792Y023920D01*
X012805Y024018D02*
X013128Y024018D01*
X013128Y024117D02*
X012860Y024117D01*
X012916Y024215D02*
X013128Y024215D01*
X013128Y024314D02*
X012971Y024314D01*
X013026Y024412D02*
X013128Y024412D01*
X013082Y024511D02*
X013182Y024511D01*
X012843Y023624D02*
X012792Y023624D01*
X012375Y023624D02*
X012316Y023624D01*
X011733Y023920D02*
X011633Y023920D01*
X011633Y024018D02*
X011733Y024018D01*
X011733Y024117D02*
X011633Y024117D01*
X011633Y024215D02*
X011733Y024215D01*
X011733Y024511D02*
X011633Y024511D01*
X011633Y024609D02*
X011733Y024609D01*
X011733Y024708D02*
X011633Y024708D01*
X011139Y025988D02*
X005483Y025988D01*
X005483Y026087D02*
X011040Y026087D01*
X010988Y026185D02*
X005483Y026185D01*
X005483Y026284D02*
X010955Y026284D01*
X010955Y026382D02*
X005483Y026382D01*
X005483Y026481D02*
X010973Y026481D01*
X011014Y026579D02*
X005483Y026579D01*
X005483Y027860D02*
X006218Y027860D01*
X006120Y027958D02*
X005483Y027958D01*
X005483Y028057D02*
X006065Y028057D01*
X006024Y028155D02*
X005483Y028155D01*
X005483Y028254D02*
X005997Y028254D01*
X005997Y028352D02*
X005483Y028352D01*
X005483Y028451D02*
X005997Y028451D01*
X006026Y028549D02*
X005483Y028549D01*
X005483Y028648D02*
X006067Y028648D01*
X006124Y028746D02*
X005483Y028746D01*
X005489Y028845D02*
X006222Y028845D01*
X006380Y028943D02*
X005512Y028943D01*
X007649Y014267D02*
X007898Y014267D01*
X007853Y014168D02*
X007702Y014168D01*
X007702Y014070D02*
X007853Y014070D01*
X007853Y013971D02*
X007702Y013971D01*
X007702Y013873D02*
X007853Y013873D01*
X007853Y013774D02*
X007702Y013774D01*
X008633Y013774D02*
X010540Y013774D01*
X010639Y013873D02*
X008633Y013873D01*
X008633Y013971D02*
X010737Y013971D01*
X010836Y014070D02*
X008633Y014070D01*
X008633Y014168D02*
X010934Y014168D01*
X010973Y013380D02*
X010680Y013380D01*
X010615Y013282D02*
X010973Y013282D01*
X010973Y013183D02*
X010571Y013183D01*
X010527Y013085D02*
X010973Y013085D01*
X010973Y012986D02*
X010564Y012986D01*
X010326Y012691D02*
X009790Y012691D01*
X009790Y012789D02*
X010227Y012789D01*
X010124Y012888D02*
X009759Y012888D01*
X009750Y012592D02*
X010424Y012592D01*
X009100Y011410D02*
X008171Y011410D01*
X008171Y011312D02*
X009003Y011312D01*
X008962Y011213D02*
X008171Y011213D01*
X008171Y011115D02*
X008938Y011115D01*
X008938Y011016D02*
X008171Y011016D01*
X008171Y010918D02*
X008938Y010918D01*
X008938Y010819D02*
X008171Y010819D01*
X008098Y010721D02*
X008938Y010721D01*
X007773Y009834D02*
X007673Y009834D01*
X006883Y009145D02*
X006524Y009145D01*
X006524Y009046D02*
X006784Y009046D01*
X006686Y008948D02*
X006466Y008948D01*
X006531Y008849D02*
X006675Y008849D01*
X006631Y008751D02*
X006546Y008751D01*
X006546Y008652D02*
X006611Y008652D01*
X006131Y008357D02*
X006031Y008357D01*
X006031Y008258D02*
X006131Y008258D01*
X006131Y008160D02*
X006031Y008160D01*
X005666Y008160D02*
X005483Y008160D01*
X005483Y008258D02*
X005616Y008258D01*
X005616Y008357D02*
X005483Y008357D01*
X005483Y008455D02*
X005616Y008455D01*
X010885Y009637D02*
X010975Y009637D01*
X010975Y009736D02*
X010942Y009736D01*
X006423Y013720D02*
X006333Y013630D01*
D36*
X009033Y013700D03*
X009483Y012750D03*
X009083Y012050D03*
X010833Y013000D03*
X011533Y012250D03*
X011633Y011200D03*
X012433Y010850D03*
X012583Y012550D03*
X013933Y013950D03*
X014583Y013650D03*
X014733Y014050D03*
X014033Y015750D03*
X013683Y016300D03*
X015183Y017100D03*
X016483Y017200D03*
X015683Y018350D03*
X015183Y019550D03*
X015983Y020250D03*
X016033Y020700D03*
X015533Y021300D03*
X014901Y021980D03*
X014510Y021682D03*
X014133Y023350D03*
X014933Y024150D03*
X015933Y024100D03*
X016633Y024100D03*
X017033Y023200D03*
X016833Y021900D03*
X017533Y020700D03*
X018083Y020800D03*
X018483Y021650D03*
X019833Y022650D03*
X020283Y022750D03*
X018833Y024100D03*
X019333Y025000D03*
X017583Y025550D03*
X012983Y023350D03*
X009833Y019750D03*
X009883Y019250D03*
X009833Y018750D03*
X009583Y018250D03*
X008133Y017900D03*
X008683Y016600D03*
X010833Y014600D03*
X011433Y016200D03*
X011933Y017550D03*
X011933Y018550D03*
X011483Y018800D03*
X012233Y019500D03*
X013883Y019150D03*
X017233Y019400D03*
X017733Y018000D03*
X018383Y018000D03*
X018383Y017050D03*
X017733Y017050D03*
X016733Y015750D03*
X017033Y015400D03*
X017633Y014600D03*
X017083Y014450D03*
X019433Y013600D03*
X020433Y014600D03*
X020833Y015500D03*
X021683Y015850D03*
X022533Y015050D03*
X020233Y016750D03*
X018983Y019400D03*
X025033Y018550D03*
X025133Y016600D03*
X025983Y015050D03*
X027433Y014100D03*
X027033Y011050D03*
X027733Y009900D03*
X022933Y007550D03*
X022583Y007900D03*
X022633Y009350D03*
X021133Y009100D03*
X019333Y008900D03*
X018833Y010650D03*
X019233Y011600D03*
X017033Y011250D03*
X016233Y010950D03*
X016183Y010050D03*
X014933Y009650D03*
X014333Y009050D03*
X014333Y011400D03*
X014633Y011700D03*
X016883Y006150D03*
X019433Y006400D03*
X020183Y006000D03*
X007733Y007900D03*
X007533Y006250D03*
X007933Y009700D03*
D37*
X007933Y009650D01*
X007733Y009850D01*
X007733Y010277D01*
X007723Y010287D01*
X007736Y010300D01*
X008333Y010300D01*
X008683Y010650D01*
X008683Y011150D01*
X008933Y011400D01*
X008933Y011500D01*
X009083Y011600D01*
X009083Y012050D01*
X009483Y012300D02*
X009483Y012750D01*
X007539Y012700D01*
X007309Y012470D01*
X006423Y013720D02*
X006423Y020090D01*
X006833Y020500D01*
X010833Y020500D01*
X011333Y021000D01*
X011683Y021000D01*
X011783Y021100D01*
X011783Y022200D01*
X012133Y022550D01*
X012583Y022550D01*
X012583Y024050D01*
X013033Y024850D01*
X013528Y024850D01*
X013552Y024874D01*
X014295Y024874D02*
X014319Y024850D01*
X014833Y024850D01*
X014933Y024750D01*
X014933Y024150D01*
X014133Y023350D02*
X014196Y023288D01*
X013633Y023350D02*
X012983Y023350D01*
X012333Y024350D02*
X011683Y024350D01*
X010883Y024350D01*
X010733Y024200D01*
X010733Y023227D01*
X009133Y023223D01*
X009524Y020091D02*
X009383Y019950D01*
X009383Y018450D01*
X009583Y018250D01*
X008683Y016600D02*
X013133Y016600D01*
X013333Y016150D01*
X013333Y015900D01*
X013933Y015750D01*
X014033Y015750D01*
X011883Y013600D02*
X010983Y013600D01*
X010933Y013550D01*
X010833Y013000D01*
X010407Y012150D02*
X011533Y012250D01*
X011938Y013139D02*
X011938Y013546D01*
X011883Y013600D01*
X012961Y013139D02*
X012961Y012678D01*
X012583Y012550D01*
X012683Y011750D02*
X012583Y011650D01*
X012583Y011350D01*
X012433Y011200D01*
X012433Y010850D01*
X012449Y010716D01*
X012449Y010261D01*
X012683Y010239D02*
X012683Y009900D01*
X012583Y009800D01*
X012583Y009238D01*
X012403Y009058D01*
X013033Y009058D02*
X013033Y009300D01*
X013233Y009500D01*
X014533Y009500D01*
X014833Y009200D01*
X014833Y008200D01*
X014583Y007850D01*
X011433Y007850D01*
X011183Y008200D01*
X011183Y010047D01*
X011170Y010261D01*
X011426Y010261D02*
X011433Y010053D01*
X011433Y008450D01*
X011633Y008100D01*
X013733Y008100D01*
X013783Y008350D01*
X013548Y008585D01*
X013348Y008585D01*
X013663Y009058D02*
X014325Y009058D01*
X014333Y009050D01*
X014933Y009650D02*
X016783Y009650D01*
X017233Y009200D01*
X017233Y008526D01*
X017207Y008500D01*
X017959Y008500D02*
X017959Y009026D01*
X018083Y009150D01*
X019083Y009150D01*
X019333Y008900D01*
X019333Y008650D01*
X019483Y008500D01*
X019959Y008500D01*
X021459Y008500D02*
X021459Y008826D01*
X021883Y009250D01*
X022533Y009250D01*
X022633Y009350D01*
X022933Y010800D02*
X023433Y010800D01*
X023483Y010750D01*
X024933Y010750D01*
X025033Y010850D01*
X025033Y011000D01*
X025533Y011500D01*
X025911Y011500D01*
X025922Y011511D01*
X026080Y011078D02*
X026108Y011050D01*
X027033Y011050D01*
X026086Y011950D02*
X026080Y011944D01*
X026086Y011950D02*
X025383Y011900D01*
X024583Y011100D01*
X023083Y011100D01*
X022683Y011550D01*
X019233Y011600D01*
X018483Y011700D02*
X016833Y011700D01*
X016233Y010950D01*
X015983Y011400D02*
X016583Y012050D01*
X018383Y012050D01*
X020133Y013800D01*
X022883Y013800D01*
X023283Y013350D01*
X023283Y012150D01*
X023383Y012050D01*
X024383Y012050D01*
X025144Y012810D01*
X025765Y012810D01*
X025922Y012377D02*
X025310Y012377D01*
X024433Y011500D01*
X023333Y011500D01*
X022483Y012350D01*
X022483Y013300D01*
X022233Y013550D01*
X020333Y013550D01*
X018483Y011700D01*
X018183Y012350D02*
X019433Y013600D01*
X020433Y014600D02*
X021683Y015850D01*
X022333Y015350D02*
X022333Y017550D01*
X022533Y017850D01*
X023283Y017850D01*
X020833Y018200D02*
X020833Y015500D01*
X020733Y015400D01*
X017033Y015400D01*
X016733Y015750D02*
X018533Y015750D01*
X019633Y016450D02*
X019933Y016450D01*
X020233Y016750D01*
X019633Y016450D02*
X018633Y017400D01*
X017383Y017400D01*
X016908Y017925D01*
X017038Y018150D02*
X016583Y018150D01*
X015183Y019150D01*
X013883Y019150D01*
X015933Y024100D02*
X016633Y024100D01*
X015933Y024100D02*
X015633Y024400D01*
X015633Y025900D01*
X015633Y026900D02*
X014683Y026900D01*
X014295Y026511D01*
X014295Y024874D01*
X014295Y025389D01*
X014133Y025550D01*
X012983Y025550D01*
X012383Y024950D01*
X012383Y024400D01*
X012333Y024350D01*
X017546Y024870D02*
X017583Y024907D01*
X017583Y025550D01*
X018337Y024083D02*
X018783Y024083D01*
X018833Y024100D01*
X019333Y025000D02*
X019386Y025053D01*
X020197Y025053D01*
X020533Y018500D02*
X020833Y018200D01*
X022333Y015350D02*
X022533Y015050D01*
X025983Y015050D02*
X027418Y015054D01*
X027418Y014115D01*
X027433Y014100D01*
X022933Y010800D02*
X022583Y011250D01*
X026073Y008500D02*
X026533Y008500D01*
X027083Y009050D01*
X027083Y009838D01*
X027064Y009857D01*
X027691Y009857D01*
X027733Y009900D01*
X026073Y008500D02*
X026073Y007740D01*
X025833Y007500D01*
X025783Y006400D01*
X020783Y006400D01*
X019433Y006400D01*
X020597Y007000D02*
X020747Y006363D01*
X020783Y006400D01*
X020597Y007000D02*
X021420Y007000D01*
X017883Y009800D02*
X017383Y009800D01*
X017183Y010000D01*
X016233Y010000D01*
X016183Y010050D01*
X015833Y011700D02*
X016433Y012350D01*
X018183Y012350D01*
X018733Y010650D02*
X017883Y009800D01*
X018733Y010650D02*
X018833Y010650D01*
X016333Y012700D02*
X016333Y013126D01*
X016333Y012700D02*
X016233Y012600D01*
X015283Y012600D01*
X014883Y012200D01*
X013983Y012200D01*
X013733Y012450D01*
X013733Y012935D01*
X013729Y013139D01*
X013733Y012450D02*
X013733Y012200D01*
X013433Y011900D01*
X013133Y011900D01*
X012983Y011750D01*
X012683Y011750D01*
X010133Y011650D01*
X009959Y011774D01*
X009659Y012150D01*
X009533Y012250D01*
X009483Y012300D01*
X009583Y011600D02*
X009083Y011600D01*
X009583Y011600D02*
X009683Y011500D01*
X009683Y011550D01*
X009933Y011300D01*
X010233Y011300D01*
X010367Y011166D01*
X010367Y010771D01*
X010755Y010771D01*
X010933Y010950D01*
X011633Y010950D01*
X011633Y011200D01*
X011633Y010950D02*
X011933Y010650D01*
X011933Y010265D01*
X011938Y010261D01*
X011938Y009896D01*
X012033Y009800D01*
X012583Y009800D01*
X012705Y009878D02*
X012783Y009800D01*
X013633Y009800D01*
X013733Y009900D01*
X013833Y009800D01*
X013933Y009800D01*
X013985Y009852D01*
X013985Y010261D01*
X013733Y010256D02*
X013733Y009900D01*
X013733Y010256D02*
X013729Y010261D01*
X012705Y010261D02*
X012705Y009878D01*
X012683Y010239D02*
X012705Y010261D01*
X010883Y010400D02*
X010833Y010000D01*
X010733Y009800D01*
X009183Y009800D01*
X008433Y009050D01*
X007083Y009050D01*
X006883Y008850D01*
X006883Y008506D01*
X006877Y008500D01*
X007183Y008150D02*
X006333Y008150D01*
X006156Y008528D01*
X006081Y008528D01*
X007183Y008150D02*
X007439Y008206D01*
X007389Y008500D01*
X007483Y008150D02*
X007183Y008150D01*
X007483Y008150D02*
X007733Y007900D01*
X007777Y007944D01*
X007777Y008500D01*
X008333Y007391D02*
X008333Y007250D01*
X008333Y007391D02*
X008583Y007391D01*
X008583Y006309D02*
X007533Y006309D01*
X007533Y006250D01*
X008382Y006250D01*
X008263Y013700D02*
X008243Y013720D01*
X008263Y013700D02*
X009033Y013700D01*
D38*
X010283Y013000D02*
X010583Y012700D01*
X011633Y012700D01*
X011733Y012600D01*
X011733Y012550D01*
X012233Y012050D01*
X012833Y012050D01*
X012883Y012100D01*
X013283Y012100D01*
X013473Y012290D01*
X013473Y013139D01*
X012983Y013161D02*
X012983Y013550D01*
X013083Y013650D01*
X014133Y013650D01*
X014333Y013850D01*
X014333Y014050D01*
X014383Y014100D01*
X014733Y014050D01*
X014333Y014050D02*
X014333Y014650D01*
X014583Y014900D01*
X014733Y014900D01*
X015183Y015350D01*
X015183Y016347D01*
X015180Y016350D01*
X015180Y017096D01*
X015183Y017100D01*
X014783Y017450D02*
X014783Y016650D01*
X014786Y016350D01*
X014983Y016350D02*
X014983Y015500D01*
X014783Y015250D01*
X013583Y015250D01*
X013133Y015700D01*
X013133Y016000D01*
X012983Y016150D01*
X011733Y016150D01*
X011519Y015871D01*
X011433Y016200D01*
X011519Y015871D02*
X010833Y015200D01*
X010833Y014600D01*
X011083Y014050D02*
X010483Y013450D01*
X010283Y013000D01*
X011083Y014050D02*
X011757Y014050D01*
X011833Y014126D01*
X012833Y014126D02*
X013807Y014126D01*
X013933Y013950D01*
X014533Y013600D02*
X014533Y013176D01*
X014497Y013139D01*
X014533Y013600D02*
X014633Y013600D01*
X014583Y013650D01*
X015833Y014500D02*
X016083Y014250D01*
X016733Y014250D01*
X016933Y014450D01*
X017083Y014450D01*
X017633Y014600D02*
X017633Y014000D01*
X015833Y014500D02*
X015833Y014750D01*
X013983Y016100D02*
X013999Y016350D01*
X013983Y016100D02*
X013683Y016300D01*
X013211Y017728D02*
X012183Y017700D01*
X012183Y017700D01*
X011933Y017550D01*
X011733Y018100D02*
X013211Y018122D01*
X013683Y018150D01*
X014083Y018350D01*
X015683Y018350D01*
X016283Y017450D02*
X016483Y017200D01*
X016283Y017450D02*
X014783Y017450D01*
X013211Y017925D02*
X016908Y017925D01*
X017038Y018145D02*
X017483Y017650D01*
X018883Y017650D01*
X018983Y017950D01*
X018988Y018100D01*
X019510Y018122D01*
X019510Y018516D02*
X020026Y018500D01*
X020533Y018500D01*
X020733Y019000D02*
X026883Y019000D01*
X027383Y018450D01*
X027383Y015089D01*
X027418Y015054D01*
X025133Y016600D02*
X025083Y016750D01*
X025033Y018050D01*
X024433Y018800D01*
X022233Y018800D01*
X021783Y018250D01*
X021133Y018250D01*
X020277Y019106D01*
X019510Y019106D01*
X019504Y019100D01*
X018633Y019100D01*
X018733Y021150D01*
X018883Y022050D01*
X017936Y022048D01*
X017936Y022650D01*
X017936Y023198D01*
X017833Y023200D01*
X017033Y023200D01*
X017833Y023200D02*
X019133Y023200D01*
X019483Y023550D01*
X020194Y023550D01*
X020197Y023553D01*
X020283Y022750D02*
X020283Y019700D01*
X019933Y019500D01*
X019510Y019500D01*
X019510Y019303D02*
X020380Y019303D01*
X020733Y019000D01*
X020083Y019850D02*
X019783Y019700D01*
X019514Y019700D01*
X019510Y019697D01*
X020083Y019850D02*
X020083Y022350D01*
X019833Y022600D01*
X019833Y022650D01*
X018483Y021650D02*
X018333Y021700D01*
X017833Y021550D01*
X017739Y021644D01*
X017739Y022650D01*
X016833Y021900D02*
X016833Y020150D01*
X016658Y019975D01*
X017233Y019400D01*
X016658Y019975D02*
X016577Y019894D01*
X015233Y019894D01*
X015183Y019844D01*
X015183Y019550D01*
X015233Y019894D02*
X013211Y019894D01*
X013211Y020091D02*
X012843Y020091D01*
X012583Y020350D01*
X012583Y021850D01*
X013083Y022350D01*
X013983Y022350D01*
X013983Y022634D01*
X013633Y023350D01*
X014196Y023288D02*
X014196Y022650D01*
X014392Y022650D02*
X014392Y022209D01*
X014333Y022150D01*
X014083Y022150D01*
X014033Y022200D01*
X014033Y022250D01*
X013983Y022300D01*
X013983Y022350D01*
X013983Y022634D02*
X013999Y022650D01*
X015533Y021300D02*
X015783Y021300D01*
X016164Y021681D01*
X016164Y022650D01*
X016651Y024083D02*
X017550Y024083D01*
X016651Y024083D02*
X016633Y024100D01*
X015633Y026900D02*
X019133Y026900D01*
X018083Y020800D02*
X018383Y020500D01*
X018383Y018000D01*
X017733Y018000D02*
X017733Y020500D01*
X017533Y020700D01*
X016033Y020700D02*
X014283Y020700D01*
X014105Y020878D01*
X013211Y020878D01*
X013211Y020681D02*
X013952Y020681D01*
X014133Y020500D01*
X015733Y020500D01*
X015983Y020250D01*
X017038Y018150D02*
X017038Y018145D01*
X017733Y017050D02*
X017739Y017044D01*
X017739Y016350D01*
X017936Y016350D02*
X017936Y016752D01*
X018183Y017000D01*
X018333Y017000D01*
X018383Y017050D01*
X018723Y016350D02*
X018743Y015950D01*
X018733Y015950D01*
X018533Y015750D01*
X019080Y019303D02*
X018983Y019400D01*
X019080Y019303D02*
X019510Y019303D01*
X025033Y018550D02*
X026233Y018550D01*
X026433Y018350D01*
X026433Y017850D01*
X022583Y011250D02*
X017033Y011250D01*
X015983Y011400D02*
X014333Y011400D01*
X014633Y011700D02*
X015833Y011700D01*
X012983Y013161D02*
X012961Y013139D01*
X012583Y012550D02*
X012133Y012550D01*
X011933Y012750D01*
X011938Y012754D01*
X011938Y013139D01*
X011333Y010750D02*
X010983Y010650D01*
X010883Y010400D01*
X011333Y010750D02*
X011682Y010602D01*
X011682Y010261D01*
X009367Y010771D02*
X008967Y010028D01*
X008302Y009362D01*
X006033Y009362D01*
X006033Y012850D01*
X006423Y013240D01*
X006423Y013720D01*
X007333Y013720D02*
X007333Y012500D01*
X007309Y012470D01*
X006933Y012000D01*
X006933Y011200D01*
X006983Y011150D01*
X007333Y011280D01*
X006983Y011150D02*
X006936Y010287D01*
X008289Y008500D02*
X008333Y008450D01*
X008383Y008450D01*
X008383Y007550D01*
X008333Y007250D01*
X007833Y007250D01*
X007333Y006500D01*
X006333Y006500D01*
X008289Y008500D02*
X008383Y008500D01*
X008383Y008450D01*
X016883Y006150D02*
X017383Y006000D01*
X020183Y006000D01*
X022583Y007900D02*
X023383Y007900D01*
X023583Y007600D01*
X024083Y007600D01*
X024183Y007500D01*
X024047Y007000D01*
X023383Y007400D02*
X023220Y007000D01*
X023383Y007400D02*
X023233Y007550D01*
X022933Y007550D01*
X021133Y009100D02*
X020983Y009000D01*
X020333Y009000D01*
X019959Y008626D01*
X019959Y008500D01*
X023333Y010421D02*
X025005Y010421D01*
X025233Y010650D01*
X025917Y010650D01*
X025922Y010645D01*
X026833Y010645D01*
X027233Y010650D01*
X013211Y017925D02*
X012686Y017900D01*
X008133Y017900D01*
X009833Y018750D02*
X010183Y018500D01*
X011333Y018500D01*
X011483Y018800D01*
X011333Y018500D02*
X011733Y018100D01*
X011933Y018550D02*
X011933Y018850D01*
X011583Y019250D01*
X009883Y019250D01*
X009833Y019750D02*
X009883Y019800D01*
X012533Y019800D01*
X012636Y019697D01*
X013211Y019697D01*
X013211Y019500D02*
X012233Y019500D01*
X012583Y019500D02*
X013333Y019500D01*
X013211Y020091D02*
X009524Y020091D01*
D39*
X012833Y015850D03*
X012305Y015771D03*
X016983Y017250D03*
X014433Y021113D03*
X022033Y014150D03*
X019533Y010900D03*
X017583Y007900D03*
X015583Y007850D03*
X014533Y010800D03*
X013383Y011100D03*
X023833Y010000D03*
D40*
X006081Y009315D02*
X006033Y009362D01*
D41*
X015051Y023530D03*
X021522Y023882D03*
X021540Y024751D03*
X022656Y025685D03*
X023247Y026276D03*
X022262Y026472D03*
X021672Y026669D03*
X021672Y025882D03*
X023050Y024898D03*
X023444Y025291D03*
X023640Y024701D03*
X024428Y024701D03*
X025215Y024701D03*
X025018Y025291D03*
X025806Y025685D03*
X026553Y025481D03*
X027203Y024931D03*
X027253Y026031D03*
X026503Y026531D03*
X027303Y027131D03*
X026503Y027531D03*
X025609Y027260D03*
X025215Y028244D03*
X026003Y029031D03*
X027003Y028531D03*
X025215Y026276D03*
X024231Y025882D03*
X022853Y027260D03*
X022012Y027897D03*
X021672Y028244D03*
X022212Y028497D03*
X022306Y028985D03*
X021672Y029031D03*
X021672Y027457D03*
X023247Y028244D03*
X024231Y028638D03*
X026003Y024701D03*
X026153Y023763D03*
X026056Y023029D03*
X026794Y023023D03*
X027418Y022673D03*
X026503Y022413D03*
X027003Y021913D03*
X027303Y021163D03*
X027303Y020313D03*
X026203Y019933D03*
X025215Y020370D03*
X024231Y019976D03*
X023247Y020370D03*
X022656Y019780D03*
X021672Y019633D03*
X021672Y020370D03*
X021922Y021057D03*
X021822Y021645D03*
X022262Y022142D03*
X021672Y022732D03*
X022656Y022929D03*
X023247Y022339D03*
X024231Y022732D03*
X024378Y023663D03*
X023790Y023763D03*
X023050Y023717D03*
X025315Y023763D03*
X025215Y022339D03*
X025609Y021354D03*
X026320Y021219D03*
X027153Y023663D03*
X022853Y021354D03*
D42*
X006933Y012000D03*
X006333Y006500D03*
M02*
