G75*
%MOIN*%
%OFA0B0*%
%FSLAX24Y24*%
%IPPOS*%
%LPD*%
%AMOC8*
5,1,8,0,0,1.08239X$1,22.5*
%
%ADD10C,0.0160*%
%ADD11C,0.0120*%
%ADD12R,0.0100X0.4250*%
%ADD13R,0.3100X0.0100*%
%ADD14R,0.3250X0.0100*%
%ADD15R,0.0400X0.4200*%
%ADD16R,0.3500X0.0100*%
%ADD17R,0.0400X0.4250*%
%ADD18R,0.3350X0.0100*%
%ADD19R,0.0100X1.4300*%
%ADD20R,0.0400X1.4350*%
%ADD21R,0.6800X0.0100*%
%ADD22R,0.7000X0.0100*%
%ADD23C,0.0070*%
%ADD24R,0.0200X0.4100*%
%ADD25R,0.0200X1.4200*%
%ADD26R,0.2550X0.0150*%
%ADD27R,0.2650X0.0150*%
%ADD28R,0.0500X0.4050*%
%ADD29R,0.0350X0.4050*%
%ADD30R,0.3300X0.0150*%
%ADD31R,0.0150X0.4100*%
%ADD32R,0.3450X0.0150*%
%ADD33C,0.0010*%
%ADD34C,0.0080*%
%ADD35C,0.0401*%
%ADD36R,0.0079X0.0079*%
%ADD37C,0.0030*%
%ADD38C,0.0040*%
%ADD39C,0.0060*%
%ADD40C,0.0050*%
%ADD41C,0.0020*%
%ADD42C,0.0100*%
%ADD43R,0.0003X0.0003*%
%ADD44R,0.0005X0.0003*%
%ADD45R,0.0008X0.0003*%
%ADD46R,0.0010X0.0003*%
%ADD47R,0.0013X0.0003*%
%ADD48R,0.0015X0.0003*%
%ADD49R,0.0018X0.0003*%
%ADD50R,0.0020X0.0003*%
%ADD51R,0.0022X0.0003*%
%ADD52R,0.0025X0.0003*%
%ADD53R,0.0027X0.0003*%
%ADD54R,0.0030X0.0003*%
%ADD55R,0.0035X0.0003*%
%ADD56R,0.0037X0.0003*%
%ADD57R,0.0040X0.0003*%
%ADD58R,0.0043X0.0003*%
%ADD59R,0.0045X0.0003*%
%ADD60R,0.0047X0.0003*%
%ADD61R,0.0053X0.0003*%
%ADD62R,0.0055X0.0003*%
%ADD63R,0.0057X0.0003*%
%ADD64R,0.0060X0.0003*%
%ADD65R,0.0063X0.0003*%
%ADD66R,0.0065X0.0003*%
%ADD67R,0.0070X0.0003*%
%ADD68R,0.0073X0.0003*%
%ADD69R,0.0075X0.0003*%
%ADD70R,0.0077X0.0003*%
%ADD71R,0.0080X0.0003*%
%ADD72R,0.0083X0.0003*%
%ADD73R,0.0088X0.0003*%
%ADD74R,0.0090X0.0003*%
%ADD75R,0.0092X0.0003*%
%ADD76R,0.0095X0.0003*%
%ADD77R,0.0098X0.0003*%
%ADD78R,0.0100X0.0003*%
%ADD79R,0.0103X0.0003*%
%ADD80R,0.0105X0.0003*%
%ADD81R,0.0107X0.0003*%
%ADD82R,0.0110X0.0003*%
%ADD83R,0.0113X0.0003*%
%ADD84R,0.0115X0.0003*%
%ADD85R,0.0118X0.0003*%
%ADD86R,0.0120X0.0003*%
%ADD87R,0.0123X0.0003*%
%ADD88R,0.0125X0.0003*%
%ADD89R,0.0127X0.0003*%
%ADD90R,0.0130X0.0003*%
%ADD91R,0.0133X0.0003*%
%ADD92R,0.0135X0.0003*%
%ADD93R,0.0140X0.0003*%
%ADD94R,0.0143X0.0003*%
%ADD95R,0.0145X0.0003*%
%ADD96R,0.0147X0.0003*%
%ADD97R,0.0150X0.0003*%
%ADD98R,0.0153X0.0003*%
%ADD99R,0.0155X0.0003*%
%ADD100R,0.0158X0.0003*%
%ADD101R,0.0160X0.0003*%
%ADD102R,0.0163X0.0003*%
%ADD103R,0.0165X0.0003*%
%ADD104R,0.0168X0.0003*%
%ADD105R,0.0170X0.0003*%
%ADD106R,0.0175X0.0003*%
%ADD107R,0.0177X0.0003*%
%ADD108R,0.0180X0.0003*%
%ADD109R,0.0182X0.0003*%
%ADD110R,0.0185X0.0003*%
%ADD111R,0.0187X0.0003*%
%ADD112R,0.0190X0.0003*%
%ADD113R,0.0193X0.0003*%
%ADD114R,0.0195X0.0003*%
%ADD115R,0.0198X0.0003*%
%ADD116R,0.0200X0.0003*%
%ADD117R,0.0203X0.0003*%
%ADD118R,0.0205X0.0003*%
%ADD119R,0.0208X0.0003*%
%ADD120R,0.0210X0.0003*%
%ADD121R,0.0213X0.0003*%
%ADD122R,0.0215X0.0003*%
%ADD123R,0.0217X0.0003*%
%ADD124R,0.0220X0.0003*%
%ADD125R,0.0222X0.0003*%
%ADD126R,0.0225X0.0003*%
%ADD127R,0.0230X0.0003*%
%ADD128R,0.0233X0.0003*%
%ADD129R,0.0235X0.0003*%
%ADD130R,0.0238X0.0003*%
%ADD131R,0.0240X0.0003*%
%ADD132R,0.0243X0.0003*%
%ADD133R,0.0245X0.0003*%
%ADD134R,0.0248X0.0003*%
%ADD135R,0.0250X0.0003*%
%ADD136R,0.0253X0.0003*%
%ADD137R,0.0255X0.0003*%
%ADD138R,0.0257X0.0003*%
%ADD139R,0.0260X0.0003*%
%ADD140R,0.0265X0.0003*%
%ADD141R,0.0267X0.0003*%
%ADD142R,0.0270X0.0003*%
%ADD143R,0.0273X0.0003*%
%ADD144R,0.0275X0.0003*%
%ADD145R,0.0278X0.0003*%
%ADD146R,0.0283X0.0003*%
%ADD147R,0.0285X0.0003*%
%ADD148R,0.0288X0.0003*%
%ADD149R,0.0290X0.0003*%
%ADD150R,0.0293X0.0003*%
%ADD151R,0.0295X0.0003*%
%ADD152R,0.0297X0.0003*%
%ADD153R,0.0300X0.0003*%
%ADD154R,0.0302X0.0003*%
%ADD155R,0.0305X0.0003*%
%ADD156R,0.0308X0.0003*%
%ADD157R,0.0310X0.0003*%
%ADD158R,0.0313X0.0003*%
%ADD159R,0.0318X0.0003*%
%ADD160R,0.0320X0.0003*%
%ADD161R,0.0323X0.0003*%
%ADD162R,0.0325X0.0003*%
%ADD163R,0.0328X0.0003*%
%ADD164R,0.0330X0.0003*%
%ADD165R,0.0335X0.0003*%
%ADD166R,0.0338X0.0003*%
%ADD167R,0.0340X0.0003*%
%ADD168R,0.0343X0.0003*%
%ADD169R,0.0345X0.0003*%
%ADD170R,0.0348X0.0003*%
%ADD171R,0.0352X0.0003*%
%ADD172R,0.0355X0.0003*%
%ADD173R,0.0357X0.0003*%
%ADD174R,0.0360X0.0003*%
%ADD175R,0.0362X0.0003*%
%ADD176R,0.0365X0.0003*%
%ADD177R,0.0370X0.0003*%
%ADD178R,0.0372X0.0003*%
%ADD179R,0.0375X0.0003*%
%ADD180R,0.0377X0.0003*%
%ADD181R,0.0380X0.0003*%
%ADD182R,0.0382X0.0003*%
%ADD183R,0.0385X0.0003*%
%ADD184R,0.0388X0.0003*%
%ADD185R,0.0390X0.0003*%
%ADD186R,0.0393X0.0003*%
%ADD187R,0.0395X0.0003*%
%ADD188R,0.0398X0.0003*%
%ADD189R,0.0400X0.0003*%
%ADD190R,0.0405X0.0003*%
%ADD191R,0.0408X0.0003*%
%ADD192R,0.0410X0.0003*%
%ADD193R,0.0413X0.0003*%
%ADD194R,0.0415X0.0003*%
%ADD195R,0.0418X0.0003*%
%ADD196R,0.0420X0.0003*%
%ADD197R,0.0423X0.0003*%
%ADD198R,0.0425X0.0003*%
%ADD199R,0.0428X0.0003*%
%ADD200R,0.0430X0.0003*%
%ADD201R,0.0432X0.0003*%
%ADD202R,0.0435X0.0003*%
%ADD203R,0.0437X0.0003*%
%ADD204R,0.0440X0.0003*%
%ADD205R,0.0442X0.0003*%
%ADD206R,0.0445X0.0003*%
%ADD207R,0.0447X0.0003*%
%ADD208R,0.0450X0.0003*%
%ADD209R,0.0452X0.0003*%
%ADD210R,0.0455X0.0003*%
%ADD211R,0.0457X0.0003*%
%ADD212R,0.0460X0.0003*%
%ADD213R,0.0462X0.0003*%
%ADD214R,0.0465X0.0003*%
%ADD215R,0.0468X0.0003*%
%ADD216R,0.0470X0.0003*%
%ADD217R,0.0473X0.0003*%
%ADD218R,0.0475X0.0003*%
%ADD219R,0.0478X0.0003*%
%ADD220R,0.0480X0.0003*%
%ADD221R,0.0483X0.0003*%
%ADD222R,0.0485X0.0003*%
%ADD223R,0.0488X0.0003*%
%ADD224R,0.0490X0.0003*%
%ADD225R,0.0493X0.0003*%
%ADD226R,0.0495X0.0003*%
%ADD227R,0.0498X0.0003*%
%ADD228R,0.0500X0.0003*%
%ADD229R,0.0503X0.0003*%
%ADD230R,0.0505X0.0003*%
%ADD231R,0.0508X0.0003*%
%ADD232R,0.0512X0.0003*%
%ADD233R,0.0515X0.0003*%
%ADD234R,0.0517X0.0003*%
%ADD235R,0.0520X0.0003*%
%ADD236R,0.0522X0.0003*%
%ADD237R,0.0525X0.0003*%
%ADD238R,0.0527X0.0003*%
%ADD239R,0.0530X0.0003*%
%ADD240R,0.0532X0.0003*%
%ADD241R,0.0535X0.0003*%
%ADD242R,0.0537X0.0003*%
%ADD243R,0.0540X0.0003*%
%ADD244R,0.0543X0.0003*%
%ADD245R,0.0548X0.0003*%
%ADD246R,0.0550X0.0003*%
%ADD247R,0.0553X0.0003*%
%ADD248R,0.0555X0.0003*%
%ADD249R,0.0558X0.0003*%
%ADD250R,0.0560X0.0003*%
%ADD251R,0.0565X0.0003*%
%ADD252R,0.0568X0.0003*%
%ADD253R,0.0563X0.0003*%
%ADD254R,0.0050X0.0003*%
%ADD255R,0.0067X0.0003*%
%ADD256R,0.0085X0.0003*%
%ADD257R,0.0350X0.0003*%
%ADD258R,0.0280X0.0003*%
%ADD259R,0.0227X0.0003*%
%ADD260R,0.0173X0.0003*%
%ADD261R,0.0315X0.0003*%
%ADD262R,0.0333X0.0003*%
%ADD263R,0.0032X0.0003*%
%ADD264R,0.0403X0.0003*%
%ADD265R,0.0138X0.0003*%
%ADD266R,0.0367X0.0003*%
%ADD267R,0.0262X0.0003*%
%ADD268R,0.0510X0.0003*%
%ADD269R,0.0545X0.0003*%
%ADD270R,0.0570X0.0003*%
%ADD271R,0.0573X0.0003*%
%ADD272R,0.0575X0.0003*%
%ADD273R,0.0578X0.0003*%
%ADD274R,0.0580X0.0003*%
%ADD275R,0.0583X0.0003*%
%ADD276R,0.0585X0.0003*%
%ADD277R,0.0587X0.0003*%
%ADD278R,0.0590X0.0003*%
%ADD279R,0.0592X0.0003*%
%ADD280R,0.0595X0.0003*%
%ADD281R,0.0597X0.0003*%
%ADD282R,0.0600X0.0003*%
%ADD283R,0.0602X0.0003*%
%ADD284R,0.0605X0.0003*%
%ADD285R,0.0607X0.0003*%
%ADD286R,0.0610X0.0003*%
%ADD287R,0.0612X0.0003*%
%ADD288R,0.0615X0.0003*%
%ADD289R,0.0617X0.0003*%
%ADD290R,0.0620X0.0003*%
%ADD291R,0.0623X0.0003*%
%ADD292R,0.0625X0.0003*%
%ADD293R,0.0628X0.0003*%
%ADD294R,0.0630X0.0003*%
%ADD295R,0.0633X0.0003*%
%ADD296R,0.0635X0.0003*%
%ADD297R,0.0638X0.0003*%
%ADD298R,0.0640X0.0003*%
%ADD299R,0.0643X0.0003*%
%ADD300R,0.0645X0.0003*%
%ADD301R,0.0648X0.0003*%
%ADD302R,0.0650X0.0003*%
%ADD303R,0.0653X0.0003*%
%ADD304R,0.0655X0.0003*%
%ADD305R,0.0663X0.0003*%
%ADD306R,0.0675X0.0003*%
%ADD307R,0.0683X0.0003*%
%ADD308R,0.0693X0.0003*%
%ADD309R,0.0705X0.0003*%
%ADD310R,0.0712X0.0003*%
%ADD311R,0.0725X0.0003*%
%ADD312R,0.0732X0.0003*%
%ADD313R,0.0742X0.0003*%
%ADD314R,0.0755X0.0003*%
%ADD315R,0.0762X0.0003*%
%ADD316R,0.0772X0.0003*%
%ADD317R,0.0785X0.0003*%
%ADD318R,0.0793X0.0003*%
%ADD319R,0.0803X0.0003*%
%ADD320R,0.0813X0.0003*%
%ADD321R,0.0823X0.0003*%
%ADD322R,0.0833X0.0003*%
%ADD323R,0.0843X0.0003*%
%ADD324R,0.0853X0.0003*%
%ADD325R,0.0862X0.0003*%
%ADD326R,0.0872X0.0003*%
%ADD327R,0.0882X0.0003*%
%ADD328R,0.0892X0.0003*%
%ADD329R,0.0902X0.0003*%
%ADD330R,0.0912X0.0003*%
%ADD331R,0.0922X0.0003*%
%ADD332R,0.0930X0.0003*%
%ADD333R,0.0943X0.0003*%
%ADD334R,0.0953X0.0003*%
%ADD335R,0.0963X0.0003*%
%ADD336R,0.0973X0.0003*%
%ADD337R,0.0980X0.0003*%
%ADD338R,0.0993X0.0003*%
%ADD339R,0.1000X0.0003*%
%ADD340R,0.1010X0.0003*%
%ADD341R,0.1022X0.0003*%
%ADD342R,0.1030X0.0003*%
%ADD343R,0.1043X0.0003*%
%ADD344R,0.1050X0.0003*%
%ADD345R,0.1060X0.0003*%
%ADD346R,0.1073X0.0003*%
%ADD347R,0.1080X0.0003*%
%ADD348R,0.1090X0.0003*%
%ADD349R,0.1100X0.0003*%
%ADD350R,0.1110X0.0003*%
%ADD351R,0.1123X0.0003*%
%ADD352R,0.1130X0.0003*%
%ADD353R,0.1140X0.0003*%
%ADD354R,0.1145X0.0003*%
%ADD355R,0.1103X0.0003*%
%ADD356R,0.1078X0.0003*%
%ADD357R,0.1058X0.0003*%
%ADD358R,0.1032X0.0003*%
%ADD359R,0.1013X0.0003*%
%ADD360R,0.0968X0.0003*%
%ADD361R,0.0948X0.0003*%
%ADD362R,0.0925X0.0003*%
%ADD363R,0.0860X0.0003*%
%ADD364R,0.0838X0.0003*%
%ADD365R,0.0815X0.0003*%
%ADD366R,0.0747X0.0003*%
%ADD367R,0.0727X0.0003*%
%ADD368R,0.0660X0.0003*%
%ADD369R,0.0658X0.0003*%
%ADD370R,0.0668X0.0003*%
%ADD371R,0.0680X0.0003*%
%ADD372R,0.0703X0.0003*%
%ADD373R,0.0685X0.0003*%
%ADD374R,0.0750X0.0003*%
%ADD375R,0.0690X0.0003*%
%ADD376R,0.0770X0.0003*%
%ADD377R,0.0695X0.0003*%
%ADD378R,0.0795X0.0003*%
%ADD379R,0.0700X0.0003*%
%ADD380R,0.0818X0.0003*%
%ADD381R,0.0840X0.0003*%
%ADD382R,0.0710X0.0003*%
%ADD383R,0.0715X0.0003*%
%ADD384R,0.0885X0.0003*%
%ADD385R,0.0720X0.0003*%
%ADD386R,0.0907X0.0003*%
%ADD387R,0.0730X0.0003*%
%ADD388R,0.0735X0.0003*%
%ADD389R,0.0978X0.0003*%
%ADD390R,0.0740X0.0003*%
%ADD391R,0.0998X0.0003*%
%ADD392R,0.0745X0.0003*%
%ADD393R,0.1045X0.0003*%
%ADD394R,0.1065X0.0003*%
%ADD395R,0.0765X0.0003*%
%ADD396R,0.1113X0.0003*%
%ADD397R,0.1135X0.0003*%
%ADD398R,0.0775X0.0003*%
%ADD399R,0.1158X0.0003*%
%ADD400R,0.0780X0.0003*%
%ADD401R,0.1177X0.0003*%
%ADD402R,0.1168X0.0003*%
%ADD403R,0.0790X0.0003*%
%ADD404R,0.1153X0.0003*%
%ADD405R,0.0800X0.0003*%
%ADD406R,0.1128X0.0003*%
%ADD407R,0.0808X0.0003*%
%ADD408R,0.1115X0.0003*%
%ADD409R,0.0788X0.0003*%
%ADD410R,0.1063X0.0003*%
%ADD411R,0.0757X0.0003*%
%ADD412R,0.1038X0.0003*%
%ADD413R,0.1025X0.0003*%
%ADD414R,0.0698X0.0003*%
%ADD415R,0.0985X0.0003*%
%ADD416R,0.0960X0.0003*%
%ADD417R,0.0933X0.0003*%
%ADD418R,0.0920X0.0003*%
%ADD419R,0.0910X0.0003*%
%ADD420R,0.0895X0.0003*%
%ADD421R,0.0870X0.0003*%
%ADD422R,0.0855X0.0003*%
%ADD423R,0.0820X0.0003*%
%ADD424R,0.0805X0.0003*%
%ADD425R,0.0752X0.0003*%
%ADD426R,0.0670X0.0003*%
%ADD427R,0.0767X0.0003*%
%ADD428R,0.0760X0.0003*%
%ADD429R,0.0722X0.0003*%
%ADD430R,0.0707X0.0003*%
%ADD431R,0.0688X0.0003*%
%ADD432R,0.0678X0.0003*%
%ADD433R,0.0673X0.0003*%
%ADD434R,0.0665X0.0003*%
%ADD435R,0.0118X0.0059*%
%ADD436R,0.0118X0.0118*%
D10*
X007133Y008488D02*
X007133Y008512D01*
X008033Y008488D02*
X008033Y008512D01*
X013533Y023750D02*
X013565Y023721D01*
X013600Y023694D01*
X013637Y023670D01*
X013675Y023649D01*
X013715Y023631D01*
X013757Y023617D01*
X013799Y023606D01*
X013842Y023599D01*
X013886Y023595D01*
X013930Y023595D01*
X013974Y023599D01*
X014017Y023606D01*
X014059Y023617D01*
X014101Y023631D01*
X014141Y023649D01*
X014179Y023670D01*
X014216Y023694D01*
X014251Y023721D01*
X014283Y023750D01*
X020163Y027651D02*
X021391Y027651D01*
D11*
X020354Y021711D02*
X020354Y020790D01*
X019893Y021251D02*
X020814Y021251D01*
D12*
X019783Y027375D03*
X016633Y027375D03*
X016283Y027375D03*
D13*
X018283Y029450D03*
D14*
X018208Y025300D03*
D15*
X016783Y027400D03*
D16*
X014583Y025300D03*
D17*
X013033Y027375D03*
D18*
X014658Y029450D03*
D19*
X012283Y022350D03*
D20*
X005533Y022325D03*
D21*
X008933Y029450D03*
D22*
X008833Y015200D03*
D23*
X009258Y016085D02*
X009653Y016085D01*
X009785Y016217D01*
X009785Y016349D01*
X009653Y016480D01*
X009258Y016480D01*
X009308Y016530D02*
X009703Y016530D01*
X009835Y016399D01*
X009835Y016267D01*
X009703Y016135D01*
X009308Y016135D01*
X009308Y016926D01*
X009703Y016926D01*
X009835Y016794D01*
X009835Y016662D01*
X009703Y016530D01*
X009653Y016480D02*
X009785Y016612D01*
X009785Y016744D01*
X009653Y016876D01*
X009258Y016876D01*
X009258Y016085D01*
X008993Y016480D02*
X008466Y016480D01*
X008516Y016530D02*
X009043Y016530D01*
X010050Y016217D02*
X010182Y016349D01*
X010577Y016349D01*
X010627Y016399D02*
X010232Y016399D01*
X010100Y016267D01*
X010232Y016135D01*
X010627Y016135D01*
X010627Y016530D01*
X010495Y016662D01*
X010232Y016662D01*
X010182Y016612D02*
X010445Y016612D01*
X010577Y016480D01*
X010577Y016085D01*
X010182Y016085D01*
X010050Y016217D01*
X010842Y016612D02*
X011105Y016612D01*
X011155Y016662D02*
X010892Y016662D01*
X010973Y016744D02*
X010973Y016217D01*
X011105Y016085D01*
X011155Y016135D02*
X011023Y016267D01*
X011023Y016794D01*
X011370Y016612D02*
X011633Y016612D01*
X011683Y016662D02*
X011420Y016662D01*
X011501Y016744D02*
X011501Y016217D01*
X011633Y016085D01*
X011683Y016135D02*
X011551Y016267D01*
X011551Y016794D01*
X008252Y016135D02*
X007988Y016135D01*
X007938Y016085D02*
X008202Y016085D01*
X008120Y016135D02*
X008120Y016662D01*
X007988Y016662D01*
X007938Y016612D02*
X008070Y016612D01*
X008070Y016085D01*
X007724Y016135D02*
X007460Y016135D01*
X007410Y016085D02*
X007674Y016085D01*
X007592Y016135D02*
X007592Y016926D01*
X007460Y016926D01*
X007410Y016876D02*
X007542Y016876D01*
X007542Y016085D01*
X007195Y016135D02*
X006668Y016135D01*
X006668Y016926D01*
X007195Y016926D01*
X007145Y016876D02*
X006618Y016876D01*
X006618Y016085D01*
X007145Y016085D01*
X006882Y016480D02*
X006618Y016480D01*
X006668Y016530D02*
X006932Y016530D01*
X008070Y016876D02*
X008070Y017007D01*
X008120Y017057D02*
X008120Y016926D01*
X008122Y012680D02*
X007906Y012680D01*
X008122Y012680D02*
X008122Y012626D01*
X007906Y012410D01*
X007906Y012356D01*
X007759Y012356D02*
X007543Y012356D01*
X007651Y012356D02*
X007651Y012680D01*
X007543Y012572D01*
X007397Y012356D02*
X007181Y012356D01*
X007289Y012356D02*
X007289Y012680D01*
X007181Y012572D01*
X007034Y012356D02*
X006818Y012356D01*
X006926Y012356D02*
X006926Y012680D01*
X006818Y012572D01*
X006672Y012518D02*
X006618Y012464D01*
X006456Y012464D01*
X006456Y012356D02*
X006456Y012680D01*
X006618Y012680D01*
X006672Y012626D01*
X006672Y012518D01*
X006309Y012518D02*
X006093Y012518D01*
X006093Y012572D02*
X006201Y012680D01*
X006309Y012572D01*
X006309Y012356D01*
X006093Y012356D02*
X006093Y012572D01*
X009303Y009343D02*
X009231Y009272D01*
X009231Y009128D01*
X009303Y009056D01*
X009303Y009343D02*
X009375Y009343D01*
X009662Y009056D01*
X009662Y009343D01*
X010211Y009150D02*
X010355Y009006D01*
X010211Y009150D02*
X010642Y009150D01*
X010642Y009293D02*
X010642Y009006D01*
X014959Y021602D02*
X014959Y021818D01*
X015067Y021926D01*
X015175Y021818D01*
X015175Y021602D01*
X015175Y021764D02*
X014959Y021764D01*
X015321Y021926D02*
X015537Y021926D01*
X015429Y021926D02*
X015429Y021602D01*
X015684Y021602D02*
X015684Y021926D01*
X015792Y021818D01*
X015900Y021926D01*
X015900Y021602D01*
X016046Y021602D02*
X016046Y021926D01*
X016262Y021926D01*
X016409Y021872D02*
X016409Y021656D01*
X016463Y021602D01*
X016571Y021602D01*
X016625Y021656D01*
X016625Y021764D01*
X016517Y021764D01*
X016625Y021872D02*
X016571Y021926D01*
X016463Y021926D01*
X016409Y021872D01*
X016154Y021764D02*
X016046Y021764D01*
X016046Y021602D02*
X016262Y021602D01*
X016771Y021602D02*
X016771Y021818D01*
X016879Y021926D01*
X016987Y021818D01*
X016987Y021602D01*
X017134Y021602D02*
X017350Y021818D01*
X017350Y021872D01*
X017296Y021926D01*
X017188Y021926D01*
X017134Y021872D01*
X016987Y021764D02*
X016771Y021764D01*
X017134Y021602D02*
X017350Y021602D01*
X017496Y021656D02*
X017550Y021602D01*
X017658Y021602D01*
X017712Y021656D01*
X017712Y021764D01*
X017658Y021818D01*
X017604Y021818D01*
X017496Y021764D01*
X017496Y021926D01*
X017712Y021926D01*
X017859Y021764D02*
X018021Y021764D01*
X018075Y021710D01*
X018075Y021656D01*
X018021Y021602D01*
X017913Y021602D01*
X017859Y021656D01*
X017859Y021764D01*
X017967Y021872D01*
X018075Y021926D01*
X018222Y021872D02*
X018276Y021926D01*
X018383Y021926D01*
X018437Y021872D01*
X018222Y021656D01*
X018276Y021602D01*
X018383Y021602D01*
X018437Y021656D01*
X018437Y021872D01*
X018222Y021872D02*
X018222Y021656D01*
X014909Y026312D02*
X014382Y026839D01*
X014514Y026708D02*
X014118Y026312D01*
X014118Y026839D02*
X014909Y026839D01*
X014909Y027104D02*
X014118Y027104D01*
X014909Y027631D01*
X014118Y027631D01*
X014118Y027896D02*
X014645Y027896D01*
X014909Y028160D01*
X014645Y028423D01*
X014118Y028423D01*
X014250Y028688D02*
X014118Y028820D01*
X014118Y029215D01*
X014909Y029215D01*
X014909Y028820D01*
X014777Y028688D01*
X014645Y028688D01*
X014514Y028820D01*
X014514Y029215D01*
X014514Y028820D02*
X014382Y028688D01*
X014250Y028688D01*
X014514Y028423D02*
X014514Y027896D01*
X012059Y027631D02*
X012059Y027104D01*
X011664Y027368D02*
X011664Y027631D01*
X012059Y027631D02*
X011268Y027631D01*
X011268Y027104D01*
X011268Y027896D02*
X011268Y028423D01*
X012059Y028423D01*
X011927Y028688D02*
X011795Y028688D01*
X011664Y028820D01*
X011664Y029215D01*
X012059Y029215D02*
X012059Y028820D01*
X011927Y028688D01*
X011664Y028820D02*
X011532Y028688D01*
X011400Y028688D01*
X011268Y028820D01*
X011268Y029215D01*
X012059Y029215D01*
X017618Y029033D02*
X017618Y028770D01*
X017750Y028638D01*
X018014Y028638D01*
X018014Y028901D01*
X018277Y028638D02*
X018409Y028770D01*
X018409Y029033D01*
X018277Y029165D01*
X017750Y029165D01*
X017618Y029033D01*
X017618Y028373D02*
X018409Y028373D01*
X018409Y027978D01*
X018277Y027846D01*
X018014Y027846D01*
X017882Y027978D01*
X017882Y028373D01*
X017750Y027581D02*
X017618Y027449D01*
X017618Y027186D01*
X017750Y027054D01*
X017882Y027054D01*
X018014Y027186D01*
X018014Y027449D01*
X018145Y027581D01*
X018277Y027581D01*
X018409Y027449D01*
X018409Y027186D01*
X018277Y027054D01*
D24*
X017183Y027350D03*
X013433Y027350D03*
X025733Y017150D03*
D25*
X005933Y022300D03*
D26*
X027008Y015175D03*
D27*
X026958Y019125D03*
D28*
X028033Y017175D03*
D29*
X025158Y017125D03*
D30*
X023683Y019125D03*
D31*
X025358Y017150D03*
X021958Y017150D03*
D32*
X023608Y015175D03*
D33*
X008060Y006587D02*
X008035Y006612D01*
X008035Y006662D01*
X008060Y006687D01*
X008085Y006735D02*
X008035Y006785D01*
X008185Y006785D01*
X008185Y006735D02*
X008185Y006835D01*
X008160Y006882D02*
X008060Y006982D01*
X008160Y006982D01*
X008185Y006957D01*
X008185Y006907D01*
X008160Y006882D01*
X008060Y006882D01*
X008035Y006907D01*
X008035Y006957D01*
X008060Y006982D01*
X008160Y006687D02*
X008185Y006662D01*
X008185Y006612D01*
X008160Y006587D01*
X008060Y006587D01*
X008066Y008770D02*
X008041Y008795D01*
X008066Y008770D02*
X008116Y008770D01*
X008141Y008795D01*
X008141Y008820D01*
X008116Y008845D01*
X008091Y008845D01*
X008116Y008845D02*
X008141Y008870D01*
X008141Y008895D01*
X008116Y008920D01*
X008066Y008920D01*
X008041Y008895D01*
X007994Y008895D02*
X007969Y008920D01*
X007919Y008920D01*
X007894Y008895D01*
X007894Y008795D01*
X007919Y008770D01*
X007969Y008770D01*
X007994Y008795D01*
X007383Y008780D02*
X007283Y008780D01*
X007236Y008780D02*
X007136Y008780D01*
X007186Y008780D02*
X007186Y008930D01*
X007136Y008880D01*
X007088Y008905D02*
X007063Y008930D01*
X007013Y008930D01*
X006988Y008905D01*
X006988Y008805D01*
X007013Y008780D01*
X007063Y008780D01*
X007088Y008805D01*
X007283Y008880D02*
X007333Y008930D01*
X007333Y008780D01*
X007367Y009694D02*
X007467Y009694D01*
X007417Y009694D02*
X007417Y009844D01*
X007367Y009794D01*
X007320Y009819D02*
X007294Y009844D01*
X007244Y009844D01*
X007219Y009819D01*
X007219Y009719D01*
X007244Y009694D01*
X007294Y009694D01*
X007320Y009719D01*
X005688Y008969D02*
X005537Y008969D01*
X005612Y008894D01*
X005612Y008994D01*
X005562Y008847D02*
X005537Y008822D01*
X005537Y008772D01*
X005562Y008747D01*
X005663Y008747D01*
X005688Y008772D01*
X005688Y008822D01*
X005663Y008847D01*
X009894Y011645D02*
X009894Y011795D01*
X009969Y011795D01*
X009994Y011770D01*
X009994Y011720D01*
X009969Y011695D01*
X009894Y011695D01*
X009944Y011695D02*
X009994Y011645D01*
X010041Y011670D02*
X010066Y011645D01*
X010116Y011645D01*
X010141Y011670D01*
X010141Y011770D01*
X010116Y011795D01*
X010066Y011795D01*
X010041Y011770D01*
X010041Y011745D01*
X010066Y011720D01*
X010141Y011720D01*
X011228Y014398D02*
X011228Y014473D01*
X011253Y014498D01*
X011303Y014498D01*
X011328Y014473D01*
X011328Y014398D01*
X011328Y014448D02*
X011378Y014498D01*
X011353Y014545D02*
X011378Y014570D01*
X011378Y014620D01*
X011353Y014645D01*
X011303Y014645D01*
X011278Y014620D01*
X011278Y014595D01*
X011303Y014545D01*
X011228Y014545D01*
X011228Y014645D01*
X011228Y014398D02*
X011378Y014398D01*
X013246Y014426D02*
X013246Y014501D01*
X013271Y014526D01*
X013321Y014526D01*
X013346Y014501D01*
X013346Y014426D01*
X013396Y014426D02*
X013246Y014426D01*
X013346Y014476D02*
X013396Y014526D01*
X013396Y014574D02*
X013296Y014674D01*
X013271Y014674D01*
X013246Y014649D01*
X013246Y014599D01*
X013271Y014574D01*
X013396Y014574D02*
X013396Y014674D01*
X014833Y013576D02*
X014833Y013526D01*
X014858Y013501D01*
X014858Y013454D02*
X014833Y013429D01*
X014833Y013379D01*
X014858Y013354D01*
X014958Y013354D01*
X014983Y013379D01*
X014983Y013429D01*
X014958Y013454D01*
X014983Y013501D02*
X014883Y013601D01*
X014858Y013601D01*
X014833Y013576D01*
X014983Y013601D02*
X014983Y013501D01*
X016788Y013505D02*
X016788Y013655D01*
X016863Y013655D01*
X016888Y013630D01*
X016888Y013580D01*
X016863Y013555D01*
X016788Y013555D01*
X016838Y013555D02*
X016888Y013505D01*
X016936Y013530D02*
X016936Y013555D01*
X016961Y013580D01*
X017011Y013580D01*
X017036Y013555D01*
X017036Y013530D01*
X017011Y013505D01*
X016961Y013505D01*
X016936Y013530D01*
X016961Y013580D02*
X016936Y013605D01*
X016936Y013630D01*
X016961Y013655D01*
X017011Y013655D01*
X017036Y013630D01*
X017036Y013605D01*
X017011Y013580D01*
X016957Y009126D02*
X016907Y009101D01*
X016857Y009051D01*
X016932Y009051D01*
X016957Y009026D01*
X016957Y009001D01*
X016932Y008976D01*
X016882Y008976D01*
X016857Y009001D01*
X016857Y009051D01*
X016810Y009051D02*
X016785Y009026D01*
X016710Y009026D01*
X016760Y009026D02*
X016810Y008976D01*
X016810Y009051D02*
X016810Y009101D01*
X016785Y009126D01*
X016710Y009126D01*
X016710Y008976D01*
X018151Y008955D02*
X018151Y009105D01*
X018226Y009105D01*
X018251Y009080D01*
X018251Y009030D01*
X018226Y009005D01*
X018151Y009005D01*
X018201Y009005D02*
X018251Y008955D01*
X018298Y008955D02*
X018298Y008980D01*
X018399Y009080D01*
X018399Y009105D01*
X018298Y009105D01*
X020172Y009134D02*
X020172Y008984D01*
X020172Y009034D02*
X020247Y009034D01*
X020273Y009059D01*
X020273Y009109D01*
X020247Y009134D01*
X020172Y009134D01*
X020222Y009034D02*
X020273Y008984D01*
X020320Y009009D02*
X020345Y008984D01*
X020395Y008984D01*
X020420Y009009D01*
X020420Y009034D01*
X020395Y009059D01*
X020370Y009059D01*
X020395Y009059D02*
X020420Y009084D01*
X020420Y009109D01*
X020395Y009134D01*
X020345Y009134D01*
X020320Y009109D01*
X021788Y009126D02*
X021788Y008976D01*
X021788Y009026D02*
X021863Y009026D01*
X021888Y009051D01*
X021888Y009101D01*
X021863Y009126D01*
X021788Y009126D01*
X021838Y009026D02*
X021888Y008976D01*
X021936Y008976D02*
X022036Y008976D01*
X021986Y008976D02*
X021986Y009126D01*
X021936Y009076D01*
X022353Y006955D02*
X022353Y006855D01*
X022303Y006905D02*
X022403Y006905D01*
X024103Y006905D02*
X024203Y006905D01*
X024153Y006855D02*
X024153Y006955D01*
X019703Y006905D02*
X019603Y006905D01*
X019653Y006855D02*
X019653Y006955D01*
X018903Y006855D02*
X018803Y006855D01*
X018853Y006805D02*
X018853Y006905D01*
X018053Y006855D02*
X017953Y006855D01*
X018003Y006805D02*
X018003Y006905D01*
X018679Y023721D02*
X018729Y023721D01*
X018754Y023746D01*
X018801Y023746D02*
X018801Y023721D01*
X018801Y023746D02*
X018901Y023846D01*
X018901Y023871D01*
X018801Y023871D01*
X018754Y023846D02*
X018729Y023871D01*
X018679Y023871D01*
X018654Y023846D01*
X018654Y023746D01*
X018679Y023721D01*
X018639Y024565D02*
X018639Y024715D01*
X018714Y024715D01*
X018739Y024690D01*
X018739Y024640D01*
X018714Y024615D01*
X018639Y024615D01*
X018689Y024615D02*
X018739Y024565D01*
X018786Y024565D02*
X018886Y024565D01*
X018836Y024565D02*
X018836Y024715D01*
X018786Y024665D01*
X018933Y024690D02*
X018958Y024715D01*
X019008Y024715D01*
X019033Y024690D01*
X019033Y024665D01*
X019008Y024640D01*
X019033Y024615D01*
X019033Y024590D01*
X019008Y024565D01*
X018958Y024565D01*
X018933Y024590D01*
X018983Y024640D02*
X019008Y024640D01*
X020872Y024695D02*
X021022Y024695D01*
X021022Y024645D02*
X021022Y024745D01*
X020922Y024645D02*
X020872Y024695D01*
X020872Y024547D02*
X021022Y024547D01*
X021022Y024497D02*
X021022Y024598D01*
X020922Y024497D02*
X020872Y024547D01*
X020872Y024450D02*
X020897Y024450D01*
X020997Y024350D01*
X021022Y024350D01*
X020997Y024303D02*
X021022Y024278D01*
X021022Y024228D01*
X020997Y024203D01*
X020997Y024156D02*
X021022Y024131D01*
X021022Y024080D01*
X020997Y024055D01*
X020897Y024055D01*
X020872Y024080D01*
X020872Y024131D01*
X020897Y024156D01*
X020897Y024203D02*
X020922Y024203D01*
X020947Y024228D01*
X020947Y024278D01*
X020972Y024303D01*
X020997Y024303D01*
X020897Y024303D02*
X020872Y024278D01*
X020872Y024228D01*
X020897Y024203D01*
X020872Y024350D02*
X020872Y024450D01*
X020922Y024008D02*
X021022Y024008D01*
X020947Y024008D02*
X020947Y023908D01*
X020922Y023908D02*
X020872Y023958D01*
X020922Y024008D01*
X020922Y023908D02*
X021022Y023908D01*
D34*
X021560Y023593D02*
X021562Y023608D01*
X021568Y023621D01*
X021577Y023633D01*
X021588Y023642D01*
X021602Y023648D01*
X021617Y023650D01*
X021632Y023648D01*
X021645Y023642D01*
X021657Y023633D01*
X021666Y023622D01*
X021672Y023608D01*
X021674Y023593D01*
X021672Y023578D01*
X021666Y023565D01*
X021657Y023553D01*
X021646Y023544D01*
X021632Y023538D01*
X021617Y023536D01*
X021602Y023538D01*
X021589Y023544D01*
X021577Y023553D01*
X021568Y023564D01*
X021562Y023578D01*
X021560Y023593D01*
X019117Y022157D02*
X019117Y016843D01*
X019018Y016744D01*
X013703Y016744D01*
X013605Y016843D01*
X013605Y021961D01*
X013900Y022256D01*
X019018Y022256D01*
X019117Y022157D01*
X023033Y018350D02*
X022783Y018100D01*
X022783Y017600D01*
X023033Y017350D01*
X024533Y017350D01*
X024783Y017600D01*
X024783Y018100D01*
X024533Y018350D01*
X023033Y018350D01*
X023033Y017350D02*
X022783Y017100D01*
X022783Y016600D01*
X023033Y016350D01*
X024533Y016350D01*
X024783Y016600D01*
X024783Y017100D01*
X024533Y017350D01*
X024533Y016350D02*
X024783Y016100D01*
X024783Y015600D01*
X024533Y015350D01*
X023033Y015350D01*
X022783Y015600D01*
X022783Y016100D01*
X023033Y016350D01*
X024915Y016100D02*
X024915Y015600D01*
X016562Y015006D02*
X016562Y014494D01*
X016503Y014494D01*
X016503Y015006D02*
X016562Y015006D01*
X015164Y015006D02*
X015125Y015006D01*
X015125Y014494D01*
X015164Y014494D01*
X008623Y013161D02*
X008623Y011839D01*
X006043Y011839D01*
X006043Y013161D01*
X008623Y013161D01*
D35*
X014097Y021764D03*
D36*
X016794Y007000D03*
X018294Y007000D03*
X020223Y007000D03*
X021794Y007000D03*
D37*
X021896Y006694D02*
X021835Y006632D01*
X021835Y006385D01*
X021896Y006324D01*
X022020Y006324D01*
X022081Y006385D01*
X022081Y006509D01*
X021958Y006509D01*
X022081Y006632D02*
X022020Y006694D01*
X021896Y006694D01*
X021713Y006632D02*
X021713Y006571D01*
X021651Y006509D01*
X021466Y006509D01*
X021345Y006632D02*
X021283Y006694D01*
X021098Y006694D01*
X021098Y006324D01*
X021283Y006324D01*
X021345Y006385D01*
X021345Y006632D01*
X021466Y006694D02*
X021651Y006694D01*
X021713Y006632D01*
X021651Y006509D02*
X021713Y006447D01*
X021713Y006385D01*
X021651Y006324D01*
X021466Y006324D01*
X021466Y006694D01*
X020682Y006614D02*
X020682Y006490D01*
X020620Y006429D01*
X020435Y006429D01*
X020558Y006429D02*
X020682Y006305D01*
X020435Y006305D02*
X020435Y006675D01*
X020620Y006675D01*
X020682Y006614D01*
X020314Y006675D02*
X020314Y006305D01*
X020190Y006429D01*
X020067Y006305D01*
X020067Y006675D01*
X019945Y006614D02*
X019945Y006490D01*
X019883Y006429D01*
X019698Y006429D01*
X019698Y006305D02*
X019698Y006675D01*
X019883Y006675D01*
X019945Y006614D01*
X018777Y006635D02*
X018530Y006265D01*
X018409Y006265D02*
X018285Y006388D01*
X018347Y006388D02*
X018162Y006388D01*
X018162Y006265D02*
X018162Y006635D01*
X018347Y006635D01*
X018409Y006574D01*
X018409Y006450D01*
X018347Y006388D01*
X018530Y006635D02*
X018777Y006265D01*
X017127Y006265D02*
X016880Y006635D01*
X016759Y006635D02*
X016512Y006635D01*
X016635Y006635D02*
X016635Y006265D01*
X016880Y006265D02*
X017127Y006635D01*
X022203Y006262D02*
X022450Y006262D01*
X022571Y006324D02*
X022818Y006324D01*
X022571Y006324D02*
X022571Y006694D01*
X023362Y006574D02*
X023362Y006512D01*
X023423Y006450D01*
X023547Y006450D01*
X023609Y006388D01*
X023609Y006327D01*
X023547Y006265D01*
X023423Y006265D01*
X023362Y006327D01*
X023362Y006574D02*
X023423Y006635D01*
X023547Y006635D01*
X023609Y006574D01*
X023730Y006635D02*
X023730Y006265D01*
X023915Y006265D01*
X023977Y006327D01*
X023977Y006574D01*
X023915Y006635D01*
X023730Y006635D01*
X024310Y006638D02*
X024557Y006638D01*
X024433Y006515D02*
X024433Y006762D01*
X013992Y011766D02*
X013750Y011766D01*
X013750Y012130D01*
X013630Y012070D02*
X013630Y011948D01*
X013569Y011888D01*
X013387Y011888D01*
X013508Y011888D02*
X013630Y011766D01*
X013387Y011766D02*
X013387Y012130D01*
X013569Y012130D01*
X013630Y012070D01*
X013267Y012070D02*
X013207Y012130D01*
X013085Y012130D01*
X013025Y012070D01*
X012905Y012070D02*
X012905Y012009D01*
X012844Y011948D01*
X012905Y011888D01*
X012905Y011827D01*
X012844Y011766D01*
X012723Y011766D01*
X012662Y011827D01*
X012542Y011766D02*
X012300Y011766D01*
X012542Y012009D01*
X012542Y012070D01*
X012482Y012130D01*
X012360Y012130D01*
X012300Y012070D01*
X012180Y012130D02*
X011937Y012130D01*
X011817Y012130D02*
X011575Y012130D01*
X011575Y011766D01*
X011575Y011948D02*
X011696Y011948D01*
X012058Y011766D02*
X012058Y012130D01*
X012662Y012070D02*
X012723Y012130D01*
X012844Y012130D01*
X012905Y012070D01*
X012844Y011948D02*
X012783Y011948D01*
X013025Y011766D02*
X013267Y012009D01*
X013267Y012070D01*
X013267Y011766D02*
X013025Y011766D01*
X008507Y007988D02*
X008260Y007988D01*
X008383Y007865D02*
X008383Y008112D01*
X012433Y024667D02*
X012433Y024957D01*
X012578Y024957D01*
X012627Y024908D01*
X012627Y024812D01*
X012578Y024763D01*
X012433Y024763D01*
X012530Y024763D02*
X012627Y024667D01*
X012728Y024667D02*
X012922Y024667D01*
X012825Y024667D02*
X012825Y024957D01*
X012728Y024860D01*
X013023Y024812D02*
X013216Y024812D01*
X013168Y024957D02*
X013023Y024812D01*
X013168Y024667D02*
X013168Y024957D01*
X014742Y025012D02*
X014742Y024722D01*
X014742Y024818D02*
X014888Y024818D01*
X014936Y024867D01*
X014936Y024964D01*
X014888Y025012D01*
X014742Y025012D01*
X014839Y024818D02*
X014936Y024722D01*
X015037Y024722D02*
X015231Y024722D01*
X015134Y024722D02*
X015134Y025012D01*
X015037Y024915D01*
X015332Y024867D02*
X015428Y024915D01*
X015477Y024915D01*
X015525Y024867D01*
X015525Y024770D01*
X015477Y024722D01*
X015380Y024722D01*
X015332Y024770D01*
X015332Y024867D02*
X015332Y025012D01*
X015525Y025012D01*
D38*
X022182Y018977D02*
X022182Y018857D01*
X022182Y018917D02*
X022542Y018917D01*
X022542Y018977D02*
X022542Y018857D01*
X022482Y018732D02*
X022422Y018732D01*
X022362Y018672D01*
X022362Y018552D01*
X022302Y018491D01*
X022242Y018491D01*
X022182Y018552D01*
X022182Y018672D01*
X022242Y018732D01*
X022482Y018732D02*
X022542Y018672D01*
X022542Y018552D01*
X022482Y018491D01*
X022542Y018363D02*
X022182Y018363D01*
X022302Y018363D02*
X022302Y018183D01*
X022362Y018123D01*
X022482Y018123D01*
X022542Y018183D01*
X022542Y018363D01*
X027233Y018412D02*
X027293Y018351D01*
X027594Y018351D01*
X027594Y018223D02*
X027233Y017983D01*
X027233Y018223D02*
X027594Y017983D01*
X027233Y018412D02*
X027233Y018532D01*
X027293Y018592D01*
X027594Y018592D01*
X027474Y018720D02*
X027233Y018720D01*
X027413Y018720D02*
X027413Y018960D01*
X027474Y018960D02*
X027233Y018960D01*
X027474Y018960D02*
X027594Y018840D01*
X027474Y018720D01*
X023265Y011944D02*
X023265Y011637D01*
X022958Y011944D01*
X022881Y011944D01*
X022804Y011867D01*
X022804Y011714D01*
X022881Y011637D01*
X022804Y011484D02*
X023265Y011177D01*
X023265Y011484D02*
X022804Y011177D01*
X010048Y007902D02*
X009808Y007902D01*
X009928Y007902D02*
X009928Y008262D01*
X009808Y008142D01*
X009680Y008262D02*
X009560Y008262D01*
X009620Y008262D02*
X009620Y007962D01*
X009560Y007902D01*
X009500Y007902D01*
X009440Y007962D01*
D39*
X010786Y010548D02*
X010786Y012852D01*
X014881Y012852D01*
X014881Y010548D01*
X010786Y010548D01*
X014316Y012468D02*
X014318Y012494D01*
X014324Y012520D01*
X014333Y012545D01*
X014346Y012568D01*
X014362Y012589D01*
X014381Y012607D01*
X014403Y012623D01*
X014426Y012635D01*
X014451Y012643D01*
X014477Y012648D01*
X014504Y012649D01*
X014530Y012646D01*
X014555Y012639D01*
X014580Y012629D01*
X014602Y012615D01*
X014623Y012598D01*
X014640Y012579D01*
X014655Y012557D01*
X014666Y012533D01*
X014674Y012507D01*
X014678Y012481D01*
X014678Y012455D01*
X014674Y012429D01*
X014666Y012403D01*
X014655Y012379D01*
X014640Y012357D01*
X014623Y012338D01*
X014602Y012321D01*
X014580Y012307D01*
X014555Y012297D01*
X014530Y012290D01*
X014504Y012287D01*
X014477Y012288D01*
X014451Y012293D01*
X014426Y012301D01*
X014403Y012313D01*
X014381Y012329D01*
X014362Y012347D01*
X014346Y012368D01*
X014333Y012391D01*
X014324Y012416D01*
X014318Y012442D01*
X014316Y012468D01*
X023306Y021354D02*
X023308Y021414D01*
X023314Y021475D01*
X023324Y021534D01*
X023338Y021593D01*
X023355Y021651D01*
X023376Y021708D01*
X023401Y021763D01*
X023430Y021816D01*
X023462Y021868D01*
X023497Y021917D01*
X023536Y021964D01*
X023577Y022008D01*
X023621Y022049D01*
X023668Y022088D01*
X023717Y022123D01*
X023768Y022155D01*
X023822Y022184D01*
X023877Y022209D01*
X023934Y022230D01*
X023992Y022247D01*
X024051Y022261D01*
X024110Y022271D01*
X024171Y022277D01*
X024231Y022279D01*
X024291Y022277D01*
X024352Y022271D01*
X024411Y022261D01*
X024470Y022247D01*
X024528Y022230D01*
X024585Y022209D01*
X024640Y022184D01*
X024693Y022155D01*
X024745Y022123D01*
X024794Y022088D01*
X024841Y022049D01*
X024885Y022008D01*
X024926Y021964D01*
X024965Y021917D01*
X025000Y021868D01*
X025032Y021817D01*
X025061Y021763D01*
X025086Y021708D01*
X025107Y021651D01*
X025124Y021593D01*
X025138Y021534D01*
X025148Y021475D01*
X025154Y021414D01*
X025156Y021354D01*
X025154Y021294D01*
X025148Y021233D01*
X025138Y021174D01*
X025124Y021115D01*
X025107Y021057D01*
X025086Y021000D01*
X025061Y020945D01*
X025032Y020892D01*
X025000Y020840D01*
X024965Y020791D01*
X024926Y020744D01*
X024885Y020700D01*
X024841Y020659D01*
X024794Y020620D01*
X024745Y020585D01*
X024694Y020553D01*
X024640Y020524D01*
X024585Y020499D01*
X024528Y020478D01*
X024470Y020461D01*
X024411Y020447D01*
X024352Y020437D01*
X024291Y020431D01*
X024231Y020429D01*
X024171Y020431D01*
X024110Y020437D01*
X024051Y020447D01*
X023992Y020461D01*
X023934Y020478D01*
X023877Y020499D01*
X023822Y020524D01*
X023769Y020553D01*
X023717Y020585D01*
X023668Y020620D01*
X023621Y020659D01*
X023577Y020700D01*
X023536Y020744D01*
X023497Y020791D01*
X023462Y020840D01*
X023430Y020891D01*
X023401Y020945D01*
X023376Y021000D01*
X023355Y021057D01*
X023338Y021115D01*
X023324Y021174D01*
X023314Y021233D01*
X023308Y021294D01*
X023306Y021354D01*
X021937Y023373D02*
X020517Y023373D01*
X020517Y025233D02*
X021937Y025233D01*
X023306Y027260D02*
X023308Y027320D01*
X023314Y027381D01*
X023324Y027440D01*
X023338Y027499D01*
X023355Y027557D01*
X023376Y027614D01*
X023401Y027669D01*
X023430Y027722D01*
X023462Y027774D01*
X023497Y027823D01*
X023536Y027870D01*
X023577Y027914D01*
X023621Y027955D01*
X023668Y027994D01*
X023717Y028029D01*
X023768Y028061D01*
X023822Y028090D01*
X023877Y028115D01*
X023934Y028136D01*
X023992Y028153D01*
X024051Y028167D01*
X024110Y028177D01*
X024171Y028183D01*
X024231Y028185D01*
X024291Y028183D01*
X024352Y028177D01*
X024411Y028167D01*
X024470Y028153D01*
X024528Y028136D01*
X024585Y028115D01*
X024640Y028090D01*
X024693Y028061D01*
X024745Y028029D01*
X024794Y027994D01*
X024841Y027955D01*
X024885Y027914D01*
X024926Y027870D01*
X024965Y027823D01*
X025000Y027774D01*
X025032Y027723D01*
X025061Y027669D01*
X025086Y027614D01*
X025107Y027557D01*
X025124Y027499D01*
X025138Y027440D01*
X025148Y027381D01*
X025154Y027320D01*
X025156Y027260D01*
X025154Y027200D01*
X025148Y027139D01*
X025138Y027080D01*
X025124Y027021D01*
X025107Y026963D01*
X025086Y026906D01*
X025061Y026851D01*
X025032Y026798D01*
X025000Y026746D01*
X024965Y026697D01*
X024926Y026650D01*
X024885Y026606D01*
X024841Y026565D01*
X024794Y026526D01*
X024745Y026491D01*
X024694Y026459D01*
X024640Y026430D01*
X024585Y026405D01*
X024528Y026384D01*
X024470Y026367D01*
X024411Y026353D01*
X024352Y026343D01*
X024291Y026337D01*
X024231Y026335D01*
X024171Y026337D01*
X024110Y026343D01*
X024051Y026353D01*
X023992Y026367D01*
X023934Y026384D01*
X023877Y026405D01*
X023822Y026430D01*
X023769Y026459D01*
X023717Y026491D01*
X023668Y026526D01*
X023621Y026565D01*
X023577Y026606D01*
X023536Y026650D01*
X023497Y026697D01*
X023462Y026746D01*
X023430Y026797D01*
X023401Y026851D01*
X023376Y026906D01*
X023355Y026963D01*
X023338Y027021D01*
X023324Y027080D01*
X023314Y027139D01*
X023308Y027200D01*
X023306Y027260D01*
X019633Y027150D02*
X019633Y026650D01*
X019383Y026400D01*
X019633Y026150D01*
X019633Y025650D01*
X019383Y025400D01*
X018883Y025400D01*
X018633Y025650D01*
X018633Y026150D01*
X018883Y026400D01*
X018633Y026650D01*
X018633Y027150D01*
X018883Y027400D01*
X018633Y027650D01*
X018633Y028150D01*
X018883Y028400D01*
X018633Y028650D01*
X018633Y029150D01*
X018883Y029400D01*
X019383Y029400D01*
X019633Y029150D01*
X019633Y028650D01*
X019383Y028400D01*
X019633Y028150D01*
X019633Y027650D01*
X019383Y027400D01*
X018883Y027400D01*
X019383Y027400D02*
X019633Y027150D01*
X019383Y026400D02*
X018883Y026400D01*
X018883Y028400D02*
X019383Y028400D01*
X016133Y028150D02*
X016133Y027650D01*
X015883Y027400D01*
X015383Y027400D01*
X015133Y027650D01*
X015133Y028150D01*
X015383Y028400D01*
X015133Y028650D01*
X015133Y029150D01*
X015383Y029400D01*
X015883Y029400D01*
X016133Y029150D01*
X016133Y028650D01*
X015883Y028400D01*
X016133Y028150D01*
X015883Y028400D02*
X015383Y028400D01*
X015383Y027400D02*
X015133Y027150D01*
X015133Y026650D01*
X015383Y026400D01*
X015133Y026150D01*
X015133Y025650D01*
X015383Y025400D01*
X015883Y025400D01*
X016133Y025650D01*
X016133Y026150D01*
X015883Y026400D01*
X015383Y026400D01*
X015883Y026400D02*
X016133Y026650D01*
X016133Y027150D01*
X015883Y027400D01*
X012183Y026600D02*
X012183Y026100D01*
X011933Y025850D01*
X012183Y025600D01*
X012183Y025100D01*
X011933Y024850D01*
X011433Y024850D01*
X011183Y025100D01*
X011183Y025600D01*
X011433Y025850D01*
X011183Y026100D01*
X011183Y026600D01*
X011433Y026850D01*
X011933Y026850D01*
X012183Y026600D01*
X011933Y025850D02*
X011433Y025850D01*
X011433Y024850D02*
X011183Y024600D01*
X011183Y024100D01*
X011433Y023850D01*
X011183Y023600D01*
X011183Y023100D01*
X011433Y022850D01*
X011933Y022850D01*
X012183Y023100D01*
X012183Y023600D01*
X011933Y023850D01*
X011433Y023850D01*
X011933Y023850D02*
X012183Y024100D01*
X012183Y024600D01*
X011933Y024850D01*
X025933Y018100D02*
X025933Y017600D01*
X026183Y017350D01*
X025933Y017100D01*
X025933Y016600D01*
X026183Y016350D01*
X025933Y016100D01*
X025933Y015600D01*
X026183Y015350D01*
X026683Y015350D01*
X026933Y015600D01*
X026933Y016100D01*
X026683Y016350D01*
X026183Y016350D01*
X026683Y016350D02*
X026933Y016600D01*
X026933Y017100D01*
X026683Y017350D01*
X026183Y017350D01*
X026683Y017350D02*
X026933Y017600D01*
X026933Y018100D01*
X026683Y018350D01*
X026183Y018350D01*
X025933Y018100D01*
D40*
X027694Y015212D02*
X021749Y015212D01*
X021749Y009700D01*
X027418Y009700D01*
X027418Y010094D01*
X027521Y009858D02*
X027562Y009860D01*
X027603Y009865D01*
X027643Y009874D01*
X027682Y009886D01*
X027720Y009902D01*
X027757Y009921D01*
X027792Y009943D01*
X027824Y009968D01*
X027855Y009996D01*
X027883Y010027D01*
X027908Y010059D01*
X027930Y010094D01*
X027949Y010131D01*
X027965Y010169D01*
X027977Y010208D01*
X027986Y010248D01*
X027991Y010289D01*
X027993Y010330D01*
X027993Y013952D01*
X028347Y013952D02*
X028349Y013993D01*
X028347Y014034D01*
X028341Y014075D01*
X028332Y014116D01*
X028320Y014155D01*
X028304Y014193D01*
X028285Y014230D01*
X028262Y014264D01*
X028237Y014297D01*
X028209Y014328D01*
X028178Y014355D01*
X028145Y014380D01*
X028110Y014402D01*
X028074Y014421D01*
X028035Y014437D01*
X027996Y014449D01*
X027955Y014458D01*
X027914Y014463D01*
X027694Y014818D02*
X027645Y014816D01*
X027595Y014810D01*
X027547Y014801D01*
X027499Y014787D01*
X027453Y014770D01*
X027408Y014749D01*
X027365Y014725D01*
X027324Y014698D01*
X027285Y014667D01*
X027249Y014633D01*
X027215Y014597D01*
X027184Y014558D01*
X027157Y014517D01*
X027133Y014474D01*
X027112Y014429D01*
X027095Y014383D01*
X027081Y014335D01*
X027072Y014287D01*
X027066Y014237D01*
X027064Y014188D01*
X027064Y010369D01*
X027064Y010370D02*
X027070Y010337D01*
X027079Y010305D01*
X027092Y010274D01*
X027108Y010245D01*
X027126Y010218D01*
X027148Y010192D01*
X027172Y010169D01*
X027198Y010149D01*
X027226Y010131D01*
X027256Y010117D01*
X027287Y010106D01*
X027319Y010098D01*
X027352Y010093D01*
X027385Y010092D01*
X027418Y010094D01*
X027875Y009858D02*
X027916Y009860D01*
X027957Y009865D01*
X027997Y009874D01*
X028036Y009886D01*
X028074Y009902D01*
X028111Y009921D01*
X028146Y009943D01*
X028178Y009968D01*
X028209Y009996D01*
X028237Y010027D01*
X028262Y010059D01*
X028284Y010094D01*
X028303Y010131D01*
X028319Y010169D01*
X028331Y010208D01*
X028340Y010248D01*
X028345Y010289D01*
X028347Y010330D01*
X028348Y010330D02*
X028348Y013952D01*
X027993Y013952D02*
X027995Y013993D01*
X027993Y014034D01*
X027987Y014075D01*
X027978Y014116D01*
X027966Y014155D01*
X027950Y014193D01*
X027931Y014230D01*
X027908Y014264D01*
X027883Y014297D01*
X027855Y014328D01*
X027824Y014355D01*
X027791Y014380D01*
X027756Y014402D01*
X027720Y014421D01*
X027681Y014437D01*
X027642Y014449D01*
X027601Y014458D01*
X027560Y014463D01*
X027694Y014818D02*
X027694Y015212D01*
X029410Y014463D02*
X029451Y014458D01*
X029492Y014449D01*
X029531Y014437D01*
X029570Y014421D01*
X029606Y014402D01*
X029641Y014380D01*
X029674Y014355D01*
X029705Y014328D01*
X029733Y014297D01*
X029758Y014264D01*
X029781Y014230D01*
X029800Y014193D01*
X029816Y014155D01*
X029828Y014116D01*
X029837Y014075D01*
X029843Y014034D01*
X029845Y013993D01*
X029843Y013952D01*
X029844Y013952D02*
X029844Y010330D01*
X029843Y010330D02*
X029841Y010289D01*
X029836Y010248D01*
X029827Y010208D01*
X029815Y010169D01*
X029799Y010131D01*
X029780Y010094D01*
X029758Y010059D01*
X029733Y010027D01*
X029705Y009996D01*
X029674Y009968D01*
X029642Y009943D01*
X029607Y009921D01*
X029570Y009902D01*
X029532Y009886D01*
X029493Y009874D01*
X029453Y009865D01*
X029412Y009860D01*
X029371Y009858D01*
X026014Y009091D02*
X026014Y008933D01*
X026014Y009091D02*
X026013Y009108D01*
X026008Y009125D01*
X026001Y009140D01*
X025991Y009154D01*
X025979Y009166D01*
X025965Y009176D01*
X025950Y009183D01*
X025933Y009188D01*
X025916Y009189D01*
X023790Y009189D01*
X023769Y009191D01*
X023748Y009189D01*
X023728Y009183D01*
X023709Y009174D01*
X023692Y009162D01*
X023677Y009147D01*
X023666Y009130D01*
X023657Y009111D01*
X023652Y009091D01*
X023652Y008933D01*
X024243Y008795D02*
X024243Y008205D01*
X025424Y008205D01*
X025424Y008795D01*
X024243Y008795D01*
X023652Y008067D02*
X023652Y007909D01*
X023653Y007909D02*
X023654Y007892D01*
X023659Y007875D01*
X023666Y007860D01*
X023676Y007846D01*
X023688Y007834D01*
X023702Y007824D01*
X023717Y007817D01*
X023734Y007812D01*
X023751Y007811D01*
X025916Y007811D01*
X025933Y007812D01*
X025950Y007817D01*
X025965Y007824D01*
X025979Y007834D01*
X025991Y007846D01*
X026001Y007860D01*
X026008Y007875D01*
X026013Y007892D01*
X026014Y007909D01*
X026014Y008067D01*
X014569Y009117D02*
X014569Y005574D01*
X011498Y005574D01*
X011498Y009117D01*
X014569Y009117D01*
X013329Y007739D02*
X012738Y007739D01*
X012541Y005770D01*
X012246Y005770D02*
X012443Y007542D01*
X011655Y007542D02*
X011852Y005770D01*
X012246Y005770D01*
X013525Y005770D02*
X013329Y007739D01*
X013624Y007345D02*
X013821Y005770D01*
X014214Y005770D01*
X014411Y007345D01*
D41*
X024572Y008419D02*
X024619Y008373D01*
X024712Y008373D01*
X024759Y008419D01*
X024759Y008466D01*
X024712Y008513D01*
X024619Y008513D01*
X024572Y008559D01*
X024572Y008606D01*
X024619Y008653D01*
X024712Y008653D01*
X024759Y008606D01*
X024848Y008559D02*
X024942Y008653D01*
X024942Y008373D01*
X025035Y008373D02*
X024848Y008373D01*
D42*
X010867Y008771D02*
X010367Y008771D01*
X010367Y005621D01*
X010267Y005421D01*
X009847Y005421D01*
X009887Y005421D01*
X009847Y005421D02*
X009467Y005421D01*
X009367Y005621D01*
X009367Y008771D01*
X009217Y008771D02*
X009217Y006321D01*
X009347Y006181D01*
X010387Y006181D02*
X010517Y006321D01*
X010517Y008771D01*
X010367Y008771D02*
X009217Y008771D01*
X008867Y008771D01*
X008867Y010021D01*
X009117Y010021D01*
X009117Y009771D01*
X009617Y009771D01*
X009617Y010021D01*
X010117Y010021D01*
X010117Y009771D01*
X010617Y009771D01*
X010617Y010021D01*
X010867Y010021D01*
X010867Y008771D01*
D43*
X008518Y018235D03*
X008016Y019413D03*
X007993Y019415D03*
X007993Y019418D03*
X007531Y020530D03*
X007531Y020533D03*
X007531Y020535D03*
X008236Y020883D03*
X008248Y020918D03*
X008363Y021080D03*
X007763Y021308D03*
X007781Y021820D03*
X008081Y021800D03*
X008381Y021780D03*
X008418Y021763D03*
X008443Y021765D03*
X009371Y020673D03*
X009371Y020670D03*
X009968Y020518D03*
X009978Y020475D03*
X010016Y020535D03*
X009678Y020108D03*
X010081Y019925D03*
X010101Y019945D03*
X011081Y020403D03*
X011106Y020410D03*
X011108Y020413D03*
X011143Y020740D03*
X010838Y021205D03*
X010513Y020845D03*
X010486Y020795D03*
X010321Y021115D03*
X009793Y021473D03*
X009793Y021475D03*
X009773Y021485D03*
X006853Y021025D03*
D44*
X007532Y020528D03*
X007532Y020525D03*
X007750Y021273D03*
X007817Y021250D03*
X008260Y020878D03*
X008417Y021760D03*
X008445Y021763D03*
X009347Y020660D03*
X009977Y020473D03*
X009977Y020470D03*
X010102Y019953D03*
X010102Y019950D03*
X010102Y019948D03*
X010482Y020793D03*
X010515Y020848D03*
X010555Y020808D03*
X010320Y021113D03*
X009795Y021470D03*
X010810Y021208D03*
X008020Y019418D03*
X008017Y019415D03*
X007992Y019420D03*
X007992Y019423D03*
X007992Y019425D03*
X007517Y019173D03*
X008515Y018240D03*
X008517Y018238D03*
D45*
X008513Y018243D03*
X008511Y018245D03*
X008021Y019420D03*
X007533Y020518D03*
X007533Y020520D03*
X007533Y020523D03*
X007521Y020608D03*
X007823Y021248D03*
X007766Y021310D03*
X008248Y020920D03*
X008261Y020875D03*
X008416Y021758D03*
X009371Y020675D03*
X009976Y020468D03*
X010018Y020538D03*
X010021Y020540D03*
X009678Y020110D03*
X010321Y021110D03*
X009793Y021465D03*
X009793Y021468D03*
X009768Y021483D03*
X010838Y021203D03*
X010838Y021200D03*
X011078Y020405D03*
X011111Y020415D03*
X011658Y020828D03*
D46*
X011112Y020418D03*
X011077Y020408D03*
X010480Y020790D03*
X010515Y020850D03*
X009975Y020465D03*
X009677Y020113D03*
X009395Y020620D03*
X009372Y020678D03*
X009372Y020680D03*
X009345Y020663D03*
X009792Y021460D03*
X009792Y021463D03*
X008447Y021760D03*
X008360Y021083D03*
X008262Y020873D03*
X008232Y020880D03*
X007535Y020515D03*
X007535Y020513D03*
X007992Y019430D03*
X007992Y019428D03*
X008022Y019423D03*
X007990Y019355D03*
X007520Y019175D03*
X008507Y018250D03*
X008510Y018248D03*
X010077Y019928D03*
X010102Y019955D03*
X010102Y019958D03*
D47*
X010103Y019960D03*
X010103Y019963D03*
X009678Y020115D03*
X010023Y020543D03*
X010026Y020545D03*
X010478Y020788D03*
X010513Y020853D03*
X010321Y021105D03*
X010321Y021108D03*
X009791Y021458D03*
X009766Y021480D03*
X009181Y021195D03*
X009371Y020683D03*
X008263Y020870D03*
X007828Y021245D03*
X007766Y021313D03*
X008413Y021755D03*
X008448Y021758D03*
X007536Y020510D03*
X007536Y020508D03*
X007536Y020505D03*
X007991Y019438D03*
X007991Y019435D03*
X007991Y019433D03*
X008023Y019428D03*
X008023Y019425D03*
X008506Y018253D03*
X011113Y020420D03*
X011651Y020825D03*
X010838Y021198D03*
D48*
X010515Y020855D03*
X010475Y020785D03*
X011077Y020410D03*
X011117Y020423D03*
X011135Y020743D03*
X010105Y019965D03*
X010075Y019930D03*
X009975Y020460D03*
X009975Y020463D03*
X009962Y020520D03*
X009372Y020685D03*
X009372Y020688D03*
X009792Y021455D03*
X008450Y021755D03*
X008412Y021753D03*
X008395Y021080D03*
X008247Y020923D03*
X008230Y020878D03*
X008265Y020868D03*
X007832Y021243D03*
X007767Y021315D03*
X007537Y020503D03*
X007537Y020500D03*
X007990Y019440D03*
X008025Y019430D03*
X008027Y019433D03*
X007987Y019353D03*
X008502Y018255D03*
D49*
X008501Y018258D03*
X008498Y018260D03*
X007523Y019178D03*
X007991Y019443D03*
X007991Y019445D03*
X008028Y019435D03*
X007538Y020493D03*
X007538Y020495D03*
X007538Y020498D03*
X007523Y020610D03*
X007746Y021270D03*
X007838Y021240D03*
X008246Y020925D03*
X008266Y020865D03*
X008356Y021085D03*
X009341Y020665D03*
X009373Y020690D03*
X009973Y020458D03*
X010028Y020548D03*
X009678Y020118D03*
X010071Y019933D03*
X010103Y019968D03*
X011076Y020413D03*
X011118Y020425D03*
X010563Y020805D03*
X010321Y021100D03*
X010321Y021103D03*
X009791Y021453D03*
X009763Y021478D03*
X010838Y021195D03*
D50*
X010837Y021193D03*
X010800Y021205D03*
X010515Y020858D03*
X010472Y020783D03*
X010470Y020780D03*
X010032Y020550D03*
X009972Y020455D03*
X009680Y020120D03*
X009402Y020618D03*
X009372Y020693D03*
X009337Y020668D03*
X009790Y021445D03*
X009790Y021448D03*
X009790Y021450D03*
X009760Y021475D03*
X008450Y021753D03*
X008410Y021750D03*
X007770Y021318D03*
X008202Y020918D03*
X008227Y020875D03*
X007540Y020490D03*
X007540Y020488D03*
X007540Y020485D03*
X007990Y019450D03*
X007990Y019448D03*
X008030Y019438D03*
X008495Y018265D03*
X008497Y018263D03*
X010105Y019970D03*
X010105Y019973D03*
X011120Y020428D03*
D51*
X011073Y020415D03*
X011643Y020823D03*
X010321Y021098D03*
X010033Y020553D03*
X009971Y020453D03*
X009678Y020123D03*
X010106Y019980D03*
X010106Y019978D03*
X010106Y019975D03*
X009373Y020695D03*
X009373Y020698D03*
X008353Y021088D03*
X008246Y020928D03*
X008266Y020863D03*
X007843Y021238D03*
X007771Y021320D03*
X008408Y021748D03*
X007541Y020483D03*
X007541Y020480D03*
X007988Y019455D03*
X007988Y019453D03*
X008031Y019443D03*
X008031Y019440D03*
X007986Y019350D03*
X007526Y019180D03*
X008493Y018268D03*
D52*
X008492Y018270D03*
X008490Y018273D03*
X008032Y019445D03*
X008035Y019448D03*
X007990Y019458D03*
X007542Y020473D03*
X007542Y020475D03*
X007542Y020478D03*
X008222Y020873D03*
X008267Y020860D03*
X007772Y021323D03*
X008407Y021745D03*
X008452Y021750D03*
X009175Y021193D03*
X009757Y021473D03*
X009790Y021443D03*
X009790Y021440D03*
X010322Y021095D03*
X010515Y020860D03*
X010467Y020778D03*
X010465Y020775D03*
X010837Y021190D03*
X011072Y020418D03*
X011122Y020430D03*
X010037Y020555D03*
X009957Y020523D03*
X009972Y020450D03*
X009680Y020125D03*
X010067Y019935D03*
X006867Y021023D03*
D53*
X007523Y020613D03*
X007543Y020470D03*
X007543Y020468D03*
X007848Y021235D03*
X008246Y020930D03*
X008453Y021748D03*
X009333Y020670D03*
X009373Y020700D03*
X009373Y020703D03*
X009971Y020448D03*
X010106Y019985D03*
X010106Y019983D03*
X010516Y020863D03*
X010321Y021093D03*
X009788Y021435D03*
X009788Y021438D03*
X009753Y021470D03*
X011123Y020433D03*
X011126Y020435D03*
X008488Y018275D03*
X008486Y018278D03*
X007528Y019183D03*
X007988Y019460D03*
X007988Y019463D03*
X008036Y019450D03*
D54*
X008037Y019453D03*
X007987Y019465D03*
X007987Y019468D03*
X007987Y019470D03*
X007982Y019348D03*
X008482Y018283D03*
X008485Y018280D03*
X010065Y019938D03*
X010107Y019988D03*
X010107Y019990D03*
X009680Y020128D03*
X009970Y020443D03*
X009970Y020445D03*
X010040Y020558D03*
X010042Y020560D03*
X009410Y020615D03*
X009375Y020705D03*
X009787Y021430D03*
X009787Y021433D03*
X009750Y021468D03*
X010322Y021090D03*
X010462Y020773D03*
X010575Y020803D03*
X010837Y021185D03*
X010837Y021188D03*
X011072Y020420D03*
X011637Y020820D03*
X008402Y021083D03*
X008350Y021090D03*
X008270Y020858D03*
X008220Y020870D03*
X007742Y021268D03*
X007775Y021325D03*
X008405Y021743D03*
X008455Y021745D03*
X007545Y020465D03*
X007545Y020463D03*
X007545Y020460D03*
D55*
X007547Y020453D03*
X007547Y020450D03*
X007547Y020448D03*
X008217Y020868D03*
X008272Y020853D03*
X008245Y020933D03*
X007860Y021230D03*
X008457Y021743D03*
X009327Y020675D03*
X009375Y020710D03*
X009375Y020713D03*
X009967Y020438D03*
X009680Y020133D03*
X010062Y019940D03*
X010107Y019995D03*
X011070Y020423D03*
X011130Y020440D03*
X011630Y020818D03*
X010837Y021183D03*
X010457Y020768D03*
X010322Y021085D03*
X010322Y021088D03*
X009787Y021425D03*
X009787Y021428D03*
X009747Y021465D03*
X008040Y019460D03*
X008040Y019458D03*
X007987Y019473D03*
X007987Y019475D03*
X007532Y019185D03*
X008477Y018288D03*
X008480Y018285D03*
D56*
X008476Y018290D03*
X008473Y018293D03*
X007981Y019345D03*
X008041Y019463D03*
X008043Y019465D03*
X007986Y019478D03*
X007986Y019480D03*
X007986Y019483D03*
X007548Y020443D03*
X007548Y020445D03*
X008273Y020850D03*
X008243Y020935D03*
X007863Y021228D03*
X007778Y021330D03*
X008398Y021735D03*
X008458Y021740D03*
X009743Y021463D03*
X009786Y021423D03*
X009786Y021420D03*
X010516Y020870D03*
X010453Y020765D03*
X011068Y020425D03*
X011131Y020443D03*
X010108Y020000D03*
X010108Y019998D03*
X009681Y020135D03*
X009951Y020525D03*
X010048Y020565D03*
X010051Y020568D03*
D57*
X009967Y020435D03*
X009967Y020433D03*
X009415Y020613D03*
X009375Y020715D03*
X009375Y020718D03*
X009167Y021190D03*
X009785Y021418D03*
X010322Y021083D03*
X010322Y021080D03*
X010837Y021180D03*
X011067Y020428D03*
X011135Y020445D03*
X010110Y020005D03*
X010110Y020003D03*
X008347Y021093D03*
X007780Y021333D03*
X008397Y021733D03*
X008460Y021738D03*
X007525Y020615D03*
X007550Y020440D03*
X007550Y020438D03*
X007550Y020435D03*
X007985Y019488D03*
X007985Y019485D03*
X008045Y019468D03*
X007535Y019188D03*
X008470Y018298D03*
X008472Y018295D03*
D58*
X008468Y018300D03*
X008466Y018303D03*
X007978Y019343D03*
X008046Y019470D03*
X007551Y020430D03*
X007551Y020433D03*
X008213Y020865D03*
X008188Y020920D03*
X008243Y020938D03*
X008273Y020848D03*
X008408Y021085D03*
X007868Y021225D03*
X007781Y021335D03*
X008396Y021730D03*
X009323Y020678D03*
X009376Y020720D03*
X009376Y020723D03*
X009966Y020430D03*
X010053Y020570D03*
X010056Y020573D03*
X010108Y020008D03*
X010058Y019943D03*
X009681Y020138D03*
X010451Y020763D03*
X010516Y020873D03*
X010583Y020800D03*
X010836Y021178D03*
X011136Y020448D03*
X009786Y021415D03*
X009741Y021460D03*
D59*
X009737Y021458D03*
X009785Y021413D03*
X009785Y021410D03*
X010322Y021078D03*
X010517Y020875D03*
X010450Y020760D03*
X011065Y020430D03*
X011137Y020450D03*
X011622Y020815D03*
X010110Y020013D03*
X010110Y020010D03*
X010055Y019945D03*
X009965Y020428D03*
X008462Y021735D03*
X007875Y021223D03*
X007740Y021265D03*
X008275Y020845D03*
X007552Y020428D03*
X007552Y020425D03*
X007552Y020423D03*
X007985Y019495D03*
X007985Y019493D03*
X007985Y019490D03*
X008047Y019473D03*
X007537Y019190D03*
X008465Y018305D03*
D60*
X008463Y018308D03*
X008461Y018310D03*
X008048Y019475D03*
X008048Y019478D03*
X008051Y019480D03*
X007983Y019498D03*
X007983Y019500D03*
X007553Y020415D03*
X007553Y020418D03*
X007553Y020420D03*
X007526Y020618D03*
X008211Y020863D03*
X008276Y020843D03*
X008343Y021095D03*
X008393Y021728D03*
X008463Y021733D03*
X009376Y020728D03*
X009376Y020725D03*
X009321Y020680D03*
X009946Y020528D03*
X009963Y020425D03*
X010058Y020575D03*
X010111Y020018D03*
X010111Y020015D03*
X009681Y020140D03*
X009681Y020143D03*
X010446Y020758D03*
X010323Y021075D03*
X009783Y021405D03*
X009783Y021408D03*
X010783Y021200D03*
X010836Y021175D03*
X011116Y020748D03*
X006883Y021020D03*
D61*
X007556Y020408D03*
X007556Y020405D03*
X007556Y020403D03*
X008278Y020838D03*
X007783Y021340D03*
X008391Y021723D03*
X009318Y020683D03*
X009376Y020733D03*
X009681Y020145D03*
X009963Y020420D03*
X010063Y020580D03*
X010111Y020023D03*
X010441Y020753D03*
X010443Y020755D03*
X010518Y020880D03*
X010323Y021070D03*
X009783Y021400D03*
X009731Y021453D03*
X010836Y021170D03*
X011063Y020435D03*
X011141Y020455D03*
X011143Y020458D03*
X011616Y020813D03*
X008458Y018313D03*
X008456Y018315D03*
X008053Y019485D03*
X007983Y019503D03*
X007983Y019505D03*
X007983Y019508D03*
D62*
X007982Y019510D03*
X007982Y019513D03*
X007982Y019515D03*
X008055Y019488D03*
X007557Y020398D03*
X007557Y020400D03*
X008207Y020860D03*
X008242Y020943D03*
X008340Y021098D03*
X007890Y021215D03*
X007885Y021218D03*
X007737Y021263D03*
X007785Y021343D03*
X008467Y021728D03*
X009377Y020738D03*
X009377Y020735D03*
X009682Y020148D03*
X009962Y020418D03*
X010067Y020583D03*
X010112Y020028D03*
X010112Y020025D03*
X010517Y020883D03*
X011062Y020438D03*
X009782Y021395D03*
X009782Y021398D03*
X008452Y018320D03*
X008455Y018318D03*
D63*
X008451Y018323D03*
X008448Y018325D03*
X007973Y019338D03*
X008056Y019490D03*
X008058Y019495D03*
X007543Y019195D03*
X007558Y020390D03*
X007558Y020393D03*
X007558Y020395D03*
X007526Y020620D03*
X008203Y020858D03*
X008241Y020945D03*
X008416Y021088D03*
X008388Y021720D03*
X008468Y021725D03*
X009161Y021188D03*
X009313Y020685D03*
X009961Y020415D03*
X009961Y020413D03*
X010113Y020033D03*
X010113Y020030D03*
X010048Y019950D03*
X010436Y020748D03*
X010438Y020750D03*
X010593Y020798D03*
X010323Y021068D03*
X009781Y021390D03*
X009781Y021393D03*
X009728Y021450D03*
X010836Y021168D03*
X011146Y020460D03*
X011608Y020810D03*
D64*
X011147Y020463D03*
X011060Y020440D03*
X010517Y020885D03*
X010322Y021065D03*
X010775Y021198D03*
X010835Y021165D03*
X010072Y020588D03*
X010070Y020585D03*
X009940Y020530D03*
X009682Y020153D03*
X009682Y020150D03*
X009427Y020608D03*
X009377Y020740D03*
X009377Y020743D03*
X008337Y021100D03*
X008280Y020835D03*
X007895Y021213D03*
X007787Y021345D03*
X008387Y021718D03*
X007560Y020385D03*
X007982Y019520D03*
X007982Y019518D03*
X008057Y019493D03*
X008060Y019498D03*
X008445Y018330D03*
X008447Y018328D03*
X010112Y020035D03*
D65*
X010113Y020038D03*
X010113Y020040D03*
X010046Y019953D03*
X009961Y020410D03*
X010433Y020745D03*
X010518Y020888D03*
X010323Y021063D03*
X009781Y021385D03*
X009781Y021388D03*
X009726Y021448D03*
X009378Y020745D03*
X009311Y020688D03*
X008281Y020833D03*
X008201Y020855D03*
X007788Y021348D03*
X008386Y021715D03*
X008468Y021723D03*
X007558Y020388D03*
X007561Y020383D03*
X007561Y020380D03*
X007981Y019528D03*
X007981Y019525D03*
X007981Y019523D03*
X008061Y019500D03*
X007971Y019335D03*
X007546Y019198D03*
X008441Y018335D03*
X008443Y018333D03*
X011148Y020465D03*
X011108Y020750D03*
D66*
X011152Y020468D03*
X011060Y020443D03*
X010430Y020743D03*
X010322Y021060D03*
X009780Y021380D03*
X009780Y021383D03*
X009722Y021445D03*
X009377Y020748D03*
X009682Y020155D03*
X009960Y020408D03*
X010075Y020590D03*
X010115Y020045D03*
X010115Y020043D03*
X010835Y021163D03*
X011602Y020808D03*
X008440Y018338D03*
X008437Y018340D03*
X008062Y019503D03*
X007980Y019530D03*
X007980Y019533D03*
X007560Y020378D03*
X008172Y020923D03*
X008240Y020948D03*
X008282Y020830D03*
X007900Y021210D03*
X007790Y021350D03*
D67*
X007792Y021353D03*
X007905Y021208D03*
X008240Y020950D03*
X008197Y020853D03*
X008285Y020825D03*
X008422Y021090D03*
X008382Y021710D03*
X008472Y021718D03*
X009720Y021443D03*
X010322Y021055D03*
X010080Y020595D03*
X009932Y020533D03*
X009957Y020400D03*
X010115Y020050D03*
X010042Y019955D03*
X009435Y020605D03*
X009305Y020693D03*
X009380Y020755D03*
X010835Y021158D03*
X010835Y021160D03*
X011155Y020473D03*
X008435Y018343D03*
X008432Y018345D03*
X007970Y019333D03*
X008065Y019508D03*
X008067Y019513D03*
X007980Y019535D03*
X007980Y019538D03*
X007980Y019540D03*
X007562Y020365D03*
X007562Y020368D03*
X006897Y021018D03*
D68*
X007563Y020363D03*
X007563Y020360D03*
X007563Y020358D03*
X008286Y020823D03*
X007911Y021205D03*
X007793Y021355D03*
X008378Y021708D03*
X008473Y021715D03*
X009153Y021185D03*
X009378Y020758D03*
X009683Y020160D03*
X009956Y020398D03*
X010083Y020598D03*
X010426Y020738D03*
X010518Y020893D03*
X010518Y020895D03*
X010323Y021053D03*
X010766Y021195D03*
X011056Y020448D03*
X010116Y020055D03*
X010116Y020053D03*
X009778Y021370D03*
X009778Y021373D03*
X009716Y021440D03*
X008068Y019515D03*
X007978Y019543D03*
X007978Y019545D03*
X007551Y019203D03*
X008428Y018350D03*
X008431Y018348D03*
D69*
X008427Y018353D03*
X007967Y019330D03*
X008070Y019518D03*
X007977Y019548D03*
X007565Y020353D03*
X007565Y020355D03*
X008195Y020850D03*
X008240Y020953D03*
X008330Y021105D03*
X008377Y021705D03*
X009380Y020763D03*
X009380Y020760D03*
X009957Y020395D03*
X010085Y020600D03*
X010422Y020735D03*
X010835Y021155D03*
X011100Y020753D03*
X011160Y020478D03*
X011157Y020475D03*
X011055Y020450D03*
X011595Y020805D03*
X010117Y020060D03*
X010117Y020058D03*
X010040Y019958D03*
X009682Y020163D03*
X009777Y021365D03*
X009777Y021368D03*
D70*
X009776Y021363D03*
X009713Y021438D03*
X010323Y021050D03*
X010323Y021048D03*
X010518Y020898D03*
X010421Y020733D03*
X010088Y020603D03*
X009956Y020393D03*
X009683Y020165D03*
X010036Y019960D03*
X010116Y020063D03*
X011053Y020453D03*
X011161Y020480D03*
X009301Y020695D03*
X008286Y020820D03*
X007916Y021203D03*
X007796Y021358D03*
X008376Y021703D03*
X008476Y021713D03*
X007528Y020625D03*
X007566Y020350D03*
X007566Y020348D03*
X007566Y020345D03*
X007978Y019553D03*
X007978Y019550D03*
X008071Y019520D03*
X008423Y018358D03*
X008426Y018355D03*
D71*
X008422Y018360D03*
X008420Y018363D03*
X007555Y019205D03*
X007977Y019555D03*
X007977Y019558D03*
X008072Y019523D03*
X008075Y019525D03*
X008075Y019528D03*
X007567Y020340D03*
X007567Y020343D03*
X008192Y020848D03*
X008287Y020818D03*
X008240Y020955D03*
X007920Y021200D03*
X007797Y021360D03*
X008477Y021710D03*
X009710Y021435D03*
X009777Y021360D03*
X009380Y020768D03*
X009380Y020765D03*
X009927Y020535D03*
X009955Y020390D03*
X010117Y020068D03*
X010117Y020065D03*
X010417Y020730D03*
X010520Y020900D03*
X010835Y021153D03*
X011587Y020803D03*
D72*
X011163Y020483D03*
X010613Y020793D03*
X010323Y021045D03*
X009776Y021355D03*
X009776Y021358D03*
X009381Y020770D03*
X009298Y020698D03*
X009441Y020603D03*
X009683Y020170D03*
X009683Y020168D03*
X009953Y020385D03*
X009953Y020388D03*
X010091Y020605D03*
X010093Y020608D03*
X010118Y020073D03*
X010118Y020070D03*
X010833Y021150D03*
X008478Y021708D03*
X008373Y021700D03*
X008326Y021108D03*
X008288Y020815D03*
X007926Y021198D03*
X007731Y021258D03*
X007568Y020338D03*
X007568Y020335D03*
X007568Y020333D03*
X007976Y019560D03*
X008076Y019530D03*
X008416Y018368D03*
X008418Y018365D03*
D73*
X008413Y018370D03*
X008411Y018373D03*
X008078Y019535D03*
X007976Y019568D03*
X007976Y019570D03*
X007976Y019573D03*
X007571Y020320D03*
X007571Y020323D03*
X007571Y020325D03*
X008188Y020845D03*
X008158Y020925D03*
X008291Y020813D03*
X007931Y021195D03*
X007798Y021365D03*
X008371Y021695D03*
X009146Y021183D03*
X009381Y020778D03*
X009381Y020775D03*
X009293Y020700D03*
X009683Y020173D03*
X009953Y020383D03*
X010118Y020078D03*
X010118Y020075D03*
X011051Y020458D03*
X011166Y020488D03*
X010833Y021148D03*
X010323Y021040D03*
X009703Y021430D03*
D74*
X009775Y021348D03*
X009775Y021345D03*
X010325Y021038D03*
X010520Y020905D03*
X010410Y020723D03*
X010102Y020615D03*
X010100Y020613D03*
X009952Y020380D03*
X009685Y020175D03*
X010030Y019965D03*
X010120Y020080D03*
X010120Y020083D03*
X010120Y020085D03*
X009447Y020600D03*
X008292Y020810D03*
X008185Y020843D03*
X008237Y020960D03*
X008322Y021110D03*
X008482Y021703D03*
X007530Y020628D03*
X007572Y020318D03*
X007572Y020315D03*
X007975Y019575D03*
X008080Y019538D03*
X008082Y019540D03*
X008082Y019543D03*
X007962Y019325D03*
X007560Y019210D03*
X008407Y018378D03*
X008410Y018375D03*
X011050Y020460D03*
X011170Y020490D03*
X011580Y020800D03*
X010835Y021145D03*
X006912Y021015D03*
D75*
X007801Y021368D03*
X007936Y021193D03*
X008293Y020808D03*
X007573Y020313D03*
X007573Y020310D03*
X007573Y020308D03*
X007976Y019578D03*
X008083Y019545D03*
X008403Y018383D03*
X008406Y018380D03*
X010121Y020088D03*
X009951Y020375D03*
X009951Y020378D03*
X009921Y020538D03*
X010406Y020720D03*
X010521Y020908D03*
X010323Y021035D03*
X009773Y021340D03*
X009773Y021343D03*
X009701Y021428D03*
X009381Y020783D03*
X009381Y020780D03*
X009291Y020703D03*
X008483Y021700D03*
X008368Y021693D03*
X010833Y021143D03*
X011088Y020755D03*
X011171Y020493D03*
X011048Y020463D03*
D76*
X011172Y020495D03*
X010520Y020910D03*
X010405Y020718D03*
X010105Y020618D03*
X009950Y020373D03*
X009685Y020178D03*
X010027Y019968D03*
X010120Y020090D03*
X009382Y020785D03*
X009382Y020788D03*
X009772Y021335D03*
X009772Y021338D03*
X009697Y021425D03*
X010325Y021033D03*
X008485Y021698D03*
X008367Y021690D03*
X007802Y021370D03*
X007727Y021255D03*
X007942Y021190D03*
X008237Y020963D03*
X008182Y020840D03*
X007575Y020305D03*
X007575Y020303D03*
X007575Y020300D03*
X007975Y019585D03*
X007975Y019583D03*
X007975Y019580D03*
X008085Y019548D03*
X007562Y019213D03*
X008402Y018385D03*
D77*
X008401Y018388D03*
X008398Y018390D03*
X007961Y019323D03*
X008086Y019550D03*
X007973Y019588D03*
X007973Y019590D03*
X007576Y020295D03*
X007576Y020298D03*
X007531Y020630D03*
X007946Y021188D03*
X008318Y021113D03*
X008293Y020805D03*
X008366Y021688D03*
X009288Y020705D03*
X009683Y020180D03*
X010121Y020095D03*
X010121Y020093D03*
X010108Y020620D03*
X010401Y020715D03*
X010623Y020790D03*
X010833Y021140D03*
X010748Y021190D03*
X011573Y020798D03*
D78*
X011177Y020500D03*
X011175Y020498D03*
X011047Y020465D03*
X010520Y020913D03*
X010325Y021028D03*
X010325Y021030D03*
X010400Y020713D03*
X010110Y020623D03*
X009950Y020370D03*
X010122Y020100D03*
X010122Y020098D03*
X009685Y020183D03*
X009452Y020598D03*
X009285Y020708D03*
X009382Y020790D03*
X009382Y020793D03*
X009772Y021330D03*
X009772Y021333D03*
X009695Y021423D03*
X008487Y021695D03*
X008437Y021095D03*
X008295Y020803D03*
X007805Y021373D03*
X007577Y020293D03*
X007577Y020290D03*
X007577Y020288D03*
X007972Y019593D03*
X008087Y019553D03*
X008090Y019555D03*
X008395Y018395D03*
X008397Y018393D03*
D79*
X008393Y018398D03*
X007566Y019215D03*
X007973Y019595D03*
X007973Y019598D03*
X008091Y019560D03*
X008091Y019558D03*
X007578Y020283D03*
X007578Y020285D03*
X008178Y020838D03*
X008296Y020800D03*
X008236Y020965D03*
X008316Y021115D03*
X007951Y021185D03*
X007806Y021375D03*
X008363Y021685D03*
X008488Y021693D03*
X009141Y021180D03*
X009383Y020795D03*
X009916Y020540D03*
X009948Y020368D03*
X009948Y020365D03*
X010113Y020625D03*
X010521Y020915D03*
X010833Y021138D03*
X011046Y020468D03*
X011178Y020503D03*
X011566Y020795D03*
X010023Y019970D03*
X009771Y021325D03*
X009771Y021328D03*
X009691Y021420D03*
D80*
X009770Y021323D03*
X010325Y021025D03*
X010325Y021023D03*
X010397Y020710D03*
X010115Y020628D03*
X009947Y020363D03*
X010122Y020108D03*
X010122Y020105D03*
X010122Y020103D03*
X010020Y019973D03*
X009685Y020185D03*
X009382Y020798D03*
X008490Y021690D03*
X008362Y021683D03*
X007762Y021818D03*
X007807Y021378D03*
X008235Y020968D03*
X008297Y020798D03*
X007580Y020280D03*
X007580Y020278D03*
X007580Y020275D03*
X007972Y019603D03*
X007972Y019600D03*
X008092Y019563D03*
X007957Y019320D03*
X008390Y018400D03*
X011045Y020470D03*
X010832Y021135D03*
D81*
X010521Y020918D03*
X010633Y020788D03*
X010393Y020708D03*
X010118Y020630D03*
X009946Y020360D03*
X010123Y020113D03*
X010123Y020110D03*
X009686Y020188D03*
X009281Y020710D03*
X009383Y020800D03*
X009383Y020803D03*
X009771Y021320D03*
X009688Y021418D03*
X008361Y021680D03*
X007956Y021183D03*
X007723Y021253D03*
X008176Y020835D03*
X008298Y020795D03*
X007531Y020633D03*
X007581Y020273D03*
X007581Y020270D03*
X007971Y019608D03*
X007971Y019605D03*
X008093Y019565D03*
X007568Y019218D03*
X008386Y018405D03*
X008388Y018403D03*
X011081Y020758D03*
X011181Y020505D03*
D82*
X011182Y020508D03*
X011185Y020510D03*
X011042Y020473D03*
X010522Y020920D03*
X010325Y021020D03*
X010392Y020705D03*
X010832Y021133D03*
X011560Y020793D03*
X010017Y019975D03*
X009685Y020190D03*
X009460Y020595D03*
X009770Y021315D03*
X009770Y021318D03*
X009685Y021415D03*
X008312Y021118D03*
X008235Y020970D03*
X008300Y020793D03*
X007962Y021180D03*
X007810Y021380D03*
X007582Y020268D03*
X007582Y020265D03*
X007582Y020263D03*
X007972Y019610D03*
X008095Y019568D03*
X008097Y019570D03*
X008382Y018410D03*
X008385Y018408D03*
D83*
X008381Y018413D03*
X008378Y018415D03*
X007956Y019318D03*
X008098Y019573D03*
X007971Y019613D03*
X007971Y019615D03*
X007571Y019220D03*
X007583Y020258D03*
X007583Y020260D03*
X008143Y020928D03*
X007811Y021383D03*
X008356Y021675D03*
X008358Y021678D03*
X008491Y021688D03*
X009278Y020713D03*
X009383Y020805D03*
X009383Y020808D03*
X009946Y020358D03*
X009946Y020355D03*
X010123Y020118D03*
X010123Y020115D03*
X010121Y020633D03*
X010388Y020703D03*
X010833Y021130D03*
X009768Y021310D03*
X009768Y021313D03*
X009686Y020193D03*
X006928Y021013D03*
D84*
X007585Y020255D03*
X007585Y020253D03*
X007585Y020250D03*
X007970Y019623D03*
X007970Y019620D03*
X007970Y019618D03*
X008100Y019578D03*
X008100Y019575D03*
X008375Y018420D03*
X008377Y018418D03*
X010125Y020120D03*
X010125Y020123D03*
X009945Y020353D03*
X009910Y020543D03*
X010125Y020635D03*
X010522Y020923D03*
X010325Y021015D03*
X010325Y021018D03*
X010740Y021188D03*
X010832Y021128D03*
X011042Y020475D03*
X011187Y020513D03*
X009767Y021308D03*
X009682Y021413D03*
X009385Y020813D03*
X009385Y020810D03*
X008445Y021098D03*
X008302Y020790D03*
X008172Y020833D03*
X007967Y021178D03*
X008492Y021685D03*
D85*
X008493Y021683D03*
X008353Y021673D03*
X007811Y021385D03*
X008233Y020973D03*
X007533Y020635D03*
X007586Y020248D03*
X007586Y020245D03*
X007586Y020243D03*
X008101Y019580D03*
X007953Y019315D03*
X007573Y019223D03*
X008373Y018423D03*
X010013Y019978D03*
X010126Y020125D03*
X010126Y020128D03*
X009943Y020350D03*
X009686Y020195D03*
X010126Y020638D03*
X010383Y020698D03*
X010386Y020700D03*
X010521Y020925D03*
X011041Y020478D03*
X011188Y020515D03*
X009768Y021305D03*
X009678Y021410D03*
X009133Y021178D03*
X009276Y020715D03*
D86*
X009385Y020815D03*
X009385Y020818D03*
X009467Y020593D03*
X009687Y020198D03*
X009942Y020345D03*
X009942Y020348D03*
X010130Y020640D03*
X010522Y020928D03*
X010325Y021013D03*
X009767Y021300D03*
X009767Y021303D03*
X010832Y021125D03*
X011072Y020760D03*
X011190Y020518D03*
X011552Y020790D03*
X008352Y021670D03*
X008310Y021120D03*
X008170Y020830D03*
X008302Y020788D03*
X007977Y021173D03*
X007972Y021175D03*
X007587Y020240D03*
X007587Y020238D03*
X007970Y019630D03*
X007970Y019628D03*
X007970Y019625D03*
X008102Y019583D03*
X008105Y019585D03*
X008372Y018425D03*
D87*
X008368Y018428D03*
X008366Y018430D03*
X008106Y019588D03*
X007968Y019633D03*
X007968Y019635D03*
X007588Y020230D03*
X007588Y020233D03*
X007588Y020235D03*
X008166Y020828D03*
X008303Y020785D03*
X008233Y020975D03*
X007721Y021250D03*
X007813Y021388D03*
X008351Y021668D03*
X008496Y021680D03*
X009676Y021408D03*
X009766Y021298D03*
X009766Y021295D03*
X009386Y020820D03*
X009271Y020718D03*
X009903Y020545D03*
X010131Y020643D03*
X010378Y020693D03*
X010381Y020695D03*
X010643Y020785D03*
X010326Y021010D03*
X011038Y020480D03*
X010126Y020133D03*
X010126Y020130D03*
X010011Y019980D03*
X009686Y020200D03*
D88*
X009942Y020343D03*
X010127Y020140D03*
X010127Y020138D03*
X010127Y020135D03*
X010135Y020645D03*
X010522Y020930D03*
X010325Y021008D03*
X010732Y021185D03*
X010832Y021123D03*
X011037Y020483D03*
X011192Y020520D03*
X011195Y020523D03*
X009672Y021405D03*
X009385Y020823D03*
X008497Y021678D03*
X007982Y021170D03*
X007815Y021390D03*
X008232Y020978D03*
X008305Y020783D03*
X007590Y020228D03*
X007590Y020225D03*
X007967Y019638D03*
X008107Y019593D03*
X008107Y019590D03*
X007952Y019313D03*
X007577Y019225D03*
X008365Y018433D03*
D89*
X008363Y018435D03*
X008361Y018438D03*
X008108Y019595D03*
X007968Y019640D03*
X007968Y019643D03*
X007591Y020218D03*
X007591Y020220D03*
X007591Y020223D03*
X007533Y020638D03*
X008306Y020780D03*
X008306Y021123D03*
X008451Y021100D03*
X008348Y021665D03*
X008498Y021675D03*
X007816Y021393D03*
X009268Y020720D03*
X009386Y020825D03*
X009386Y020828D03*
X009766Y021290D03*
X009766Y021293D03*
X010326Y021005D03*
X010523Y020933D03*
X010376Y020690D03*
X009941Y020340D03*
X009941Y020338D03*
X009686Y020203D03*
X010008Y019983D03*
X011196Y020525D03*
X011546Y020788D03*
X010831Y021120D03*
D90*
X010325Y021003D03*
X010372Y020688D03*
X010140Y020650D03*
X010137Y020648D03*
X009940Y020335D03*
X010127Y020145D03*
X010127Y020143D03*
X009687Y020205D03*
X009472Y020590D03*
X009127Y021175D03*
X009670Y021403D03*
X009765Y021288D03*
X009765Y021285D03*
X009765Y021283D03*
X011037Y020485D03*
X011197Y020528D03*
X008347Y021663D03*
X007987Y021168D03*
X008232Y020980D03*
X008162Y020825D03*
X008307Y020778D03*
X007592Y020215D03*
X007592Y020213D03*
X007967Y019648D03*
X007967Y019645D03*
X008110Y019598D03*
X008112Y019600D03*
X007580Y019228D03*
X008357Y018443D03*
X008360Y018440D03*
D91*
X008356Y018445D03*
X008353Y018448D03*
X007948Y019310D03*
X008113Y019603D03*
X007966Y019650D03*
X007966Y019653D03*
X008308Y020775D03*
X007993Y021165D03*
X007818Y021395D03*
X008346Y021660D03*
X008501Y021673D03*
X009666Y021400D03*
X009763Y021280D03*
X009386Y020833D03*
X009386Y020830D03*
X009266Y020723D03*
X009938Y020333D03*
X010128Y020150D03*
X010128Y020148D03*
X010003Y019985D03*
X010523Y020935D03*
X010326Y021000D03*
X010831Y021118D03*
X011036Y020488D03*
X011538Y020785D03*
D92*
X011202Y020533D03*
X011200Y020530D03*
X011062Y020763D03*
X010832Y021115D03*
X010522Y020938D03*
X010370Y020685D03*
X010145Y020655D03*
X010142Y020653D03*
X009897Y020548D03*
X009687Y020210D03*
X009687Y020208D03*
X010130Y020153D03*
X009387Y020835D03*
X008502Y021670D03*
X008302Y021125D03*
X008130Y020930D03*
X008160Y020823D03*
X007717Y021248D03*
X007820Y021398D03*
X006942Y021010D03*
X007592Y020210D03*
X007592Y020208D03*
X007592Y020205D03*
X007967Y019655D03*
X008115Y019605D03*
X007582Y019230D03*
X008350Y018453D03*
X008352Y018450D03*
D93*
X008347Y018455D03*
X008345Y018458D03*
X007947Y019308D03*
X008117Y019613D03*
X008120Y019615D03*
X007965Y019663D03*
X007965Y019665D03*
X007965Y019668D03*
X007585Y019233D03*
X007595Y020193D03*
X007595Y020195D03*
X007595Y020198D03*
X008310Y020770D03*
X008300Y021128D03*
X008002Y021160D03*
X008342Y021655D03*
X009387Y020845D03*
X009387Y020843D03*
X009387Y020840D03*
X009480Y020588D03*
X009687Y020213D03*
X009937Y020325D03*
X010130Y020163D03*
X010130Y020160D03*
X010130Y020158D03*
X010365Y020680D03*
X009762Y021270D03*
X009660Y021395D03*
X011032Y020493D03*
X011205Y020535D03*
X011532Y020783D03*
D94*
X011206Y020538D03*
X011031Y020495D03*
X010523Y020943D03*
X010326Y020990D03*
X010326Y020993D03*
X010363Y020678D03*
X010151Y020660D03*
X009761Y021268D03*
X009258Y020728D03*
X009688Y020215D03*
X009936Y020323D03*
X010131Y020168D03*
X010131Y020165D03*
X009998Y019990D03*
X010831Y021110D03*
X008458Y021103D03*
X008231Y020985D03*
X008156Y020820D03*
X008311Y020768D03*
X007823Y021403D03*
X007781Y021815D03*
X008341Y021653D03*
X008506Y021665D03*
X007596Y020190D03*
X007596Y020188D03*
X007596Y020185D03*
X008121Y019618D03*
X008341Y018463D03*
X008343Y018460D03*
D95*
X008340Y018465D03*
X007945Y019305D03*
X008122Y019620D03*
X007965Y019670D03*
X007965Y019673D03*
X007597Y020180D03*
X007597Y020183D03*
X008230Y020988D03*
X008007Y021158D03*
X007715Y021245D03*
X007825Y021405D03*
X008507Y021663D03*
X009120Y021173D03*
X009387Y020848D03*
X009762Y021263D03*
X009762Y021265D03*
X009657Y021393D03*
X010155Y020663D03*
X010360Y020675D03*
X009935Y020320D03*
X009935Y020318D03*
X009687Y020218D03*
X011207Y020540D03*
X011210Y020543D03*
D96*
X010831Y021108D03*
X010523Y020945D03*
X010326Y020988D03*
X010156Y020665D03*
X009891Y020550D03*
X009688Y020220D03*
X010131Y020173D03*
X010131Y020170D03*
X009388Y020850D03*
X009388Y020853D03*
X009761Y021258D03*
X009761Y021260D03*
X009653Y021390D03*
X008508Y021660D03*
X008338Y021650D03*
X008296Y021130D03*
X008013Y021155D03*
X008153Y020818D03*
X008313Y020765D03*
X007536Y020643D03*
X007598Y020178D03*
X007598Y020175D03*
X007598Y020173D03*
X007963Y019680D03*
X007963Y019678D03*
X007963Y019675D03*
X008123Y019625D03*
X008123Y019623D03*
X007588Y019235D03*
X008336Y018470D03*
X008338Y018468D03*
D97*
X008335Y018473D03*
X008332Y018475D03*
X008125Y019628D03*
X008127Y019630D03*
X007962Y019683D03*
X007602Y020163D03*
X007602Y020165D03*
X007600Y020168D03*
X007600Y020170D03*
X008315Y020763D03*
X008230Y020990D03*
X007827Y021408D03*
X008337Y021648D03*
X009255Y020730D03*
X009387Y020855D03*
X009760Y021255D03*
X010327Y020985D03*
X010525Y020948D03*
X010662Y020780D03*
X010357Y020673D03*
X010355Y020670D03*
X010160Y020668D03*
X010715Y021180D03*
X010830Y021105D03*
X011030Y020498D03*
X011212Y020545D03*
X011525Y020780D03*
X010132Y020178D03*
X010132Y020175D03*
X009995Y019993D03*
X009935Y020315D03*
D98*
X009933Y020313D03*
X010133Y020180D03*
X009688Y020223D03*
X009486Y020585D03*
X009251Y020733D03*
X009388Y020858D03*
X009388Y020860D03*
X009761Y021253D03*
X009651Y021388D03*
X010326Y020983D03*
X010161Y020670D03*
X010831Y021103D03*
X011053Y020765D03*
X011028Y020500D03*
X011213Y020548D03*
X008466Y021105D03*
X008316Y020760D03*
X008151Y020815D03*
X008018Y021153D03*
X008336Y021645D03*
X007601Y020160D03*
X007963Y019688D03*
X007963Y019685D03*
X008128Y019633D03*
X007943Y019303D03*
X007591Y019238D03*
X008328Y018480D03*
X008331Y018478D03*
D99*
X008327Y018483D03*
X008130Y019635D03*
X007962Y019690D03*
X007962Y019693D03*
X007602Y020155D03*
X007602Y020158D03*
X008115Y020933D03*
X008292Y021133D03*
X007827Y021410D03*
X008332Y021643D03*
X008510Y021658D03*
X009647Y021385D03*
X009760Y021250D03*
X010327Y020980D03*
X010525Y020953D03*
X010525Y020950D03*
X010352Y020668D03*
X010350Y020665D03*
X010165Y020673D03*
X009932Y020310D03*
X009932Y020308D03*
X010132Y020183D03*
X009992Y019995D03*
X011027Y020503D03*
X011215Y020550D03*
X011517Y020778D03*
D100*
X010831Y021100D03*
X009758Y021243D03*
X009758Y021245D03*
X009758Y021248D03*
X009388Y020865D03*
X009388Y020863D03*
X009248Y020735D03*
X009886Y020553D03*
X009931Y020305D03*
X010133Y020190D03*
X010133Y020188D03*
X010133Y020185D03*
X009688Y020225D03*
X009688Y020228D03*
X008316Y020758D03*
X008146Y020813D03*
X008228Y020993D03*
X008023Y021150D03*
X007711Y021243D03*
X007828Y021413D03*
X008331Y021640D03*
X008511Y021655D03*
X007536Y020645D03*
X007603Y020153D03*
X007603Y020150D03*
X007603Y020148D03*
X007961Y019698D03*
X007961Y019695D03*
X008131Y019638D03*
X007593Y019240D03*
X008323Y018485D03*
X006958Y021008D03*
D101*
X007605Y020145D03*
X007605Y020143D03*
X007962Y019700D03*
X008132Y019643D03*
X008132Y019640D03*
X008135Y019645D03*
X007940Y019300D03*
X008320Y018490D03*
X008322Y018488D03*
X009990Y019998D03*
X010135Y020193D03*
X010167Y020675D03*
X010170Y020678D03*
X010347Y020663D03*
X010327Y020978D03*
X010525Y020955D03*
X010830Y021098D03*
X011025Y020505D03*
X011217Y020553D03*
X011220Y020555D03*
X009757Y021240D03*
X009645Y021383D03*
X009115Y021170D03*
X009390Y020868D03*
X009492Y020583D03*
X008317Y020755D03*
X008030Y021148D03*
X008330Y021638D03*
X008512Y021653D03*
D102*
X008513Y021650D03*
X008288Y021135D03*
X008228Y020995D03*
X008143Y020810D03*
X008318Y020753D03*
X008033Y021145D03*
X007831Y021415D03*
X007606Y020140D03*
X007606Y020138D03*
X007606Y020135D03*
X007961Y019705D03*
X007961Y019703D03*
X008136Y019648D03*
X007596Y019243D03*
X008316Y018495D03*
X008318Y018493D03*
X009688Y020230D03*
X009931Y020303D03*
X010133Y020195D03*
X010343Y020660D03*
X010326Y020975D03*
X010526Y020958D03*
X010673Y020778D03*
X011221Y020558D03*
X009758Y021238D03*
X009641Y021380D03*
D103*
X009757Y021235D03*
X009757Y021233D03*
X009390Y020875D03*
X009390Y020873D03*
X009390Y020870D03*
X009245Y020738D03*
X009690Y020233D03*
X009930Y020298D03*
X009930Y020300D03*
X010135Y020200D03*
X010135Y020198D03*
X009985Y020000D03*
X010172Y020680D03*
X010342Y020658D03*
X010327Y020973D03*
X010705Y021178D03*
X010830Y021095D03*
X011045Y020768D03*
X011025Y020508D03*
X011510Y020775D03*
X008320Y020750D03*
X007832Y021418D03*
X008327Y021635D03*
X007607Y020133D03*
X007607Y020130D03*
X007607Y020128D03*
X007960Y019713D03*
X007960Y019710D03*
X007960Y019708D03*
X008137Y019650D03*
X007937Y019298D03*
X008312Y018500D03*
X008315Y018498D03*
D104*
X008311Y018503D03*
X008308Y018505D03*
X008138Y019653D03*
X007608Y020123D03*
X007608Y020125D03*
X007538Y020648D03*
X008141Y020808D03*
X008321Y020748D03*
X008226Y020998D03*
X008038Y021143D03*
X007833Y021420D03*
X008326Y021633D03*
X008516Y021648D03*
X008473Y021108D03*
X009241Y020740D03*
X009391Y020878D03*
X009756Y021228D03*
X009756Y021230D03*
X009638Y021378D03*
X010326Y020970D03*
X010526Y020960D03*
X010176Y020683D03*
X009928Y020295D03*
X010136Y020205D03*
X010136Y020203D03*
X011023Y020510D03*
X011223Y020560D03*
D105*
X011225Y020563D03*
X011227Y020565D03*
X011022Y020513D03*
X010830Y021090D03*
X010830Y021093D03*
X010327Y020968D03*
X010340Y020655D03*
X010177Y020685D03*
X009880Y020555D03*
X009927Y020293D03*
X009690Y020238D03*
X009690Y020235D03*
X009982Y020003D03*
X009497Y020580D03*
X009755Y021225D03*
X009635Y021375D03*
X008517Y021645D03*
X008285Y021138D03*
X008045Y021140D03*
X008322Y020745D03*
X007610Y020120D03*
X007610Y020118D03*
X007610Y020115D03*
X007960Y019718D03*
X007960Y019715D03*
X008140Y019655D03*
X008142Y019660D03*
X007600Y019245D03*
X008305Y018510D03*
X008307Y018508D03*
D106*
X008302Y018513D03*
X007602Y019248D03*
X007957Y019728D03*
X008145Y019665D03*
X007612Y020103D03*
X007612Y020105D03*
X007612Y020108D03*
X008137Y020805D03*
X008050Y021138D03*
X007837Y021425D03*
X008322Y021628D03*
X009107Y021168D03*
X009632Y021373D03*
X009755Y021220D03*
X009755Y021218D03*
X010327Y020965D03*
X010327Y020963D03*
X010182Y020690D03*
X010335Y020650D03*
X010682Y020775D03*
X010830Y021088D03*
X011020Y020515D03*
X011230Y020568D03*
X010137Y020218D03*
X010137Y020215D03*
X010137Y020213D03*
X009927Y020288D03*
X009690Y020240D03*
X009980Y020005D03*
D107*
X010138Y020220D03*
X009926Y020285D03*
X009691Y020243D03*
X009873Y020558D03*
X010186Y020693D03*
X010331Y020648D03*
X010526Y020968D03*
X010696Y021175D03*
X011231Y020570D03*
X011496Y020770D03*
X009753Y021213D03*
X009753Y021215D03*
X009628Y021370D03*
X009391Y020890D03*
X009391Y020888D03*
X008521Y021640D03*
X008321Y021625D03*
X007838Y021428D03*
X008281Y021140D03*
X008226Y021003D03*
X008323Y020743D03*
X007538Y020650D03*
X007613Y020100D03*
X007613Y020098D03*
X007958Y019730D03*
X008146Y019668D03*
X007933Y019293D03*
X008298Y018518D03*
X008301Y018515D03*
D108*
X008297Y018520D03*
X008295Y018523D03*
X007605Y019250D03*
X007957Y019733D03*
X007957Y019735D03*
X007957Y019738D03*
X008147Y019670D03*
X008150Y019675D03*
X007615Y020090D03*
X007615Y020093D03*
X007615Y020095D03*
X008135Y020803D03*
X008100Y020935D03*
X008055Y021135D03*
X008325Y020740D03*
X009235Y020745D03*
X009392Y020893D03*
X009505Y020578D03*
X009925Y020283D03*
X009925Y020280D03*
X010137Y020223D03*
X010327Y020958D03*
X010327Y020960D03*
X010830Y021085D03*
X011035Y020770D03*
X011020Y020518D03*
X011232Y020573D03*
X008522Y021638D03*
X006972Y021005D03*
D109*
X007841Y021430D03*
X007801Y021813D03*
X008318Y021623D03*
X008523Y021635D03*
X008481Y021110D03*
X008278Y021143D03*
X008226Y021005D03*
X008326Y020738D03*
X007616Y020088D03*
X007616Y020085D03*
X007956Y019743D03*
X007956Y019740D03*
X008148Y019673D03*
X008151Y019678D03*
X008291Y018528D03*
X008293Y018525D03*
X009691Y020245D03*
X009976Y020008D03*
X010138Y020225D03*
X010138Y020228D03*
X010326Y020643D03*
X010328Y020645D03*
X010191Y020698D03*
X010188Y020695D03*
X010526Y020970D03*
X010828Y021083D03*
X011018Y020520D03*
X011236Y020575D03*
X009753Y021208D03*
X009753Y021210D03*
X009626Y021368D03*
X009391Y020895D03*
D110*
X009392Y020898D03*
X009392Y020900D03*
X009232Y020748D03*
X009690Y020248D03*
X009925Y020278D03*
X010140Y020233D03*
X010140Y020230D03*
X010195Y020700D03*
X010327Y020955D03*
X010527Y020973D03*
X009752Y021203D03*
X009752Y021205D03*
X009622Y021365D03*
X008317Y021620D03*
X007842Y021433D03*
X007705Y021238D03*
X008060Y021133D03*
X008065Y021130D03*
X008132Y020800D03*
X008327Y020735D03*
X007617Y020083D03*
X007617Y020080D03*
X007617Y020078D03*
X008152Y019680D03*
X007932Y019290D03*
X008287Y018533D03*
X008290Y018530D03*
X011237Y020578D03*
D111*
X011238Y020580D03*
X011016Y020523D03*
X011488Y020768D03*
X010828Y021080D03*
X010328Y020953D03*
X010323Y020640D03*
X010321Y020638D03*
X009923Y020275D03*
X009691Y020250D03*
X009973Y020010D03*
X009228Y020750D03*
X009751Y021198D03*
X009751Y021200D03*
X008526Y021633D03*
X008316Y021618D03*
X008223Y021008D03*
X008328Y020733D03*
X007538Y020653D03*
X007618Y020075D03*
X007618Y020073D03*
X007618Y020070D03*
X007956Y019750D03*
X007956Y019748D03*
X007956Y019745D03*
X008153Y019683D03*
X007608Y019253D03*
X008283Y018538D03*
X008286Y018535D03*
D112*
X008282Y018540D03*
X008155Y019685D03*
X007955Y019753D03*
X007955Y019755D03*
X007955Y019758D03*
X007620Y020065D03*
X007620Y020068D03*
X008127Y020798D03*
X008330Y020730D03*
X008275Y021145D03*
X008070Y021128D03*
X007842Y021435D03*
X008527Y021630D03*
X009100Y021165D03*
X009392Y020905D03*
X009392Y020903D03*
X009867Y020560D03*
X009922Y020273D03*
X009922Y020270D03*
X010140Y020238D03*
X010140Y020235D03*
X009970Y020013D03*
X010197Y020703D03*
X010200Y020705D03*
X010327Y020950D03*
X010527Y020975D03*
X010690Y021173D03*
X010827Y021078D03*
X010692Y020773D03*
X011015Y020525D03*
X009620Y021363D03*
D113*
X009616Y021360D03*
X009751Y021195D03*
X009751Y021193D03*
X009393Y020910D03*
X009393Y020908D03*
X009226Y020753D03*
X009511Y020575D03*
X009691Y020253D03*
X009921Y020268D03*
X010141Y020245D03*
X010141Y020243D03*
X010141Y020240D03*
X010318Y020635D03*
X010328Y020948D03*
X010528Y020978D03*
X010828Y021075D03*
X011013Y020528D03*
X011241Y020583D03*
X011243Y020585D03*
X008223Y021010D03*
X008311Y021613D03*
X008313Y021615D03*
X007621Y020063D03*
X007621Y020060D03*
X007621Y020058D03*
X008158Y019693D03*
X008158Y019690D03*
X008156Y019688D03*
X007928Y019288D03*
X007611Y019255D03*
X008278Y018543D03*
D114*
X008277Y018545D03*
X008275Y018548D03*
X008160Y019695D03*
X007955Y019760D03*
X007955Y019763D03*
X007622Y020053D03*
X007622Y020055D03*
X008125Y020795D03*
X008330Y020728D03*
X008487Y021113D03*
X008075Y021125D03*
X007845Y021438D03*
X008310Y021610D03*
X008527Y021628D03*
X009750Y021190D03*
X009750Y021188D03*
X010327Y020945D03*
X010527Y020980D03*
X010202Y020708D03*
X010315Y020633D03*
X009920Y020265D03*
X009692Y020255D03*
X011245Y020588D03*
X011482Y020765D03*
D115*
X011026Y020773D03*
X011013Y020530D03*
X010828Y021073D03*
X010328Y020943D03*
X010203Y020710D03*
X010313Y020630D03*
X010141Y020250D03*
X010141Y020248D03*
X009966Y020015D03*
X009691Y020258D03*
X009393Y020913D03*
X009393Y020915D03*
X009748Y021185D03*
X009613Y021358D03*
X008271Y021148D03*
X008223Y021013D03*
X008081Y021123D03*
X007846Y021440D03*
X007701Y021235D03*
X007541Y020655D03*
X007623Y020050D03*
X007623Y020048D03*
X007623Y020045D03*
X007953Y019770D03*
X007953Y019768D03*
X007953Y019765D03*
X008161Y019698D03*
X007613Y019258D03*
X008271Y018553D03*
X008273Y018550D03*
X008331Y020725D03*
D116*
X008332Y020723D03*
X008307Y021608D03*
X008530Y021625D03*
X009222Y020755D03*
X009395Y020918D03*
X009517Y020573D03*
X009862Y020563D03*
X009920Y020263D03*
X009920Y020260D03*
X010142Y020255D03*
X010142Y020253D03*
X009692Y020260D03*
X010207Y020713D03*
X010527Y020983D03*
X010702Y020770D03*
X010827Y021070D03*
X011247Y020590D03*
X011475Y020763D03*
X009750Y021183D03*
X009610Y021355D03*
X008162Y019700D03*
X007952Y019773D03*
X007625Y020040D03*
X007625Y020043D03*
X007927Y019285D03*
X008270Y018555D03*
D117*
X008268Y018558D03*
X008266Y018560D03*
X007616Y019260D03*
X007953Y019775D03*
X008163Y019703D03*
X008166Y019705D03*
X007626Y020033D03*
X007626Y020035D03*
X007626Y020038D03*
X008121Y020793D03*
X008086Y020938D03*
X008086Y021120D03*
X007848Y021443D03*
X008306Y021605D03*
X008531Y021623D03*
X009218Y020758D03*
X009393Y020920D03*
X009748Y021178D03*
X009748Y021180D03*
X010328Y020940D03*
X010328Y020938D03*
X010528Y020985D03*
X010211Y020715D03*
X010311Y020628D03*
X010143Y020260D03*
X010143Y020258D03*
X009918Y020258D03*
X009963Y020018D03*
X011011Y020533D03*
X011248Y020593D03*
X006988Y021003D03*
D118*
X007850Y021445D03*
X008090Y021118D03*
X008222Y021015D03*
X008267Y021150D03*
X008335Y020720D03*
X007627Y020030D03*
X007627Y020028D03*
X007627Y020025D03*
X007952Y019783D03*
X007952Y019780D03*
X007952Y019778D03*
X008167Y019710D03*
X008167Y019708D03*
X007925Y019283D03*
X008262Y018565D03*
X008265Y018563D03*
X009692Y020263D03*
X009917Y020255D03*
X010307Y020625D03*
X010212Y020718D03*
X009747Y021173D03*
X009747Y021175D03*
X009607Y021353D03*
X009395Y020925D03*
X009395Y020923D03*
X008532Y021620D03*
X010680Y021170D03*
X010827Y021068D03*
X011010Y020535D03*
X011250Y020595D03*
D119*
X011253Y020598D03*
X010528Y020988D03*
X010328Y020935D03*
X010216Y020720D03*
X010306Y020623D03*
X010143Y020268D03*
X010143Y020265D03*
X010143Y020263D03*
X009916Y020253D03*
X009693Y020265D03*
X009746Y021170D03*
X009603Y021350D03*
X009093Y021163D03*
X008336Y020718D03*
X008118Y020790D03*
X007541Y020658D03*
X007628Y020023D03*
X007628Y020020D03*
X007951Y019788D03*
X007951Y019785D03*
X008168Y019713D03*
X007618Y019263D03*
X008261Y018568D03*
X007851Y021448D03*
X008303Y021603D03*
D120*
X008302Y021600D03*
X008535Y021618D03*
X008495Y021115D03*
X008222Y021018D03*
X008095Y021115D03*
X008337Y020715D03*
X009215Y020760D03*
X009395Y020928D03*
X009395Y020930D03*
X009525Y020570D03*
X009692Y020268D03*
X009917Y020250D03*
X010145Y020270D03*
X010145Y020273D03*
X009960Y020020D03*
X010302Y020620D03*
X010330Y020933D03*
X009747Y021168D03*
X010827Y021065D03*
X011017Y020775D03*
X011007Y020538D03*
X011255Y020600D03*
X011467Y020760D03*
X008170Y019715D03*
X007630Y020013D03*
X007630Y020015D03*
X007630Y020018D03*
X008257Y018570D03*
D121*
X008256Y018573D03*
X008253Y018575D03*
X008171Y019718D03*
X008173Y019720D03*
X007951Y019790D03*
X007951Y019793D03*
X007951Y019795D03*
X007631Y020008D03*
X007631Y020010D03*
X008116Y020788D03*
X008221Y021020D03*
X008101Y021113D03*
X007853Y021450D03*
X007698Y021233D03*
X008301Y021598D03*
X008536Y021615D03*
X009396Y020935D03*
X009396Y020933D03*
X009746Y021163D03*
X009746Y021165D03*
X009601Y021348D03*
X010328Y020930D03*
X010528Y020990D03*
X010528Y020993D03*
X010826Y021063D03*
X011256Y020603D03*
X010221Y020725D03*
X010218Y020723D03*
X009856Y020565D03*
X009916Y020248D03*
D122*
X009915Y020245D03*
X009915Y020243D03*
X009957Y020023D03*
X010145Y020275D03*
X010145Y020278D03*
X010297Y020615D03*
X010300Y020618D03*
X010712Y020768D03*
X010827Y021060D03*
X011007Y020540D03*
X009745Y021158D03*
X009745Y021160D03*
X009597Y021345D03*
X009212Y020763D03*
X009692Y020270D03*
X008337Y020713D03*
X008265Y021153D03*
X008300Y021595D03*
X008537Y021613D03*
X007855Y021453D03*
X007542Y020660D03*
X007632Y020005D03*
X007632Y020003D03*
X007632Y020000D03*
X007950Y019800D03*
X007950Y019798D03*
X008175Y019725D03*
X008175Y019723D03*
X007922Y019280D03*
X007622Y019265D03*
X008250Y018580D03*
X008252Y018578D03*
D123*
X008248Y018583D03*
X008246Y018585D03*
X008176Y019728D03*
X007948Y019803D03*
X007633Y019995D03*
X007633Y019998D03*
X008338Y020710D03*
X008221Y021023D03*
X008106Y021110D03*
X007856Y021455D03*
X008538Y021610D03*
X009208Y020765D03*
X009396Y020938D03*
X009396Y020940D03*
X009693Y020273D03*
X009913Y020240D03*
X009953Y020025D03*
X010146Y020280D03*
X010146Y020283D03*
X010223Y020728D03*
X010328Y020925D03*
X010328Y020928D03*
X010528Y020995D03*
X010671Y021168D03*
X011006Y020543D03*
X011258Y020605D03*
X011261Y020608D03*
X011461Y020758D03*
D124*
X011262Y020610D03*
X011005Y020545D03*
X010827Y021058D03*
X010530Y020998D03*
X010227Y020730D03*
X010295Y020613D03*
X010147Y020288D03*
X010147Y020285D03*
X009912Y020238D03*
X009692Y020275D03*
X009530Y020568D03*
X009397Y020943D03*
X009087Y021160D03*
X009595Y021343D03*
X009745Y021155D03*
X009745Y021153D03*
X008340Y020708D03*
X008112Y020785D03*
X008262Y021155D03*
X008297Y021593D03*
X007820Y021810D03*
X007635Y019990D03*
X007635Y019988D03*
X007950Y019808D03*
X007950Y019805D03*
X008177Y019730D03*
X007920Y019278D03*
X007625Y019268D03*
X008242Y018590D03*
X008245Y018588D03*
D125*
X008241Y018593D03*
X008238Y018595D03*
X008178Y019733D03*
X008181Y019735D03*
X007948Y019810D03*
X007948Y019813D03*
X007948Y019815D03*
X007636Y019983D03*
X007636Y019985D03*
X007633Y019993D03*
X008108Y020783D03*
X008341Y020705D03*
X008116Y021105D03*
X008111Y021108D03*
X007858Y021458D03*
X008296Y021590D03*
X008541Y021608D03*
X009206Y020768D03*
X009396Y020945D03*
X009743Y021148D03*
X009743Y021150D03*
X009591Y021340D03*
X010328Y020923D03*
X010228Y020733D03*
X010291Y020610D03*
X009851Y020568D03*
X009693Y020278D03*
X009951Y020028D03*
X010826Y021055D03*
X011453Y020755D03*
X007001Y021000D03*
D126*
X007695Y021230D03*
X008070Y020940D03*
X008220Y021025D03*
X008502Y021118D03*
X008342Y020703D03*
X008542Y021605D03*
X009397Y020950D03*
X009397Y020948D03*
X009742Y021145D03*
X010330Y020920D03*
X010232Y020735D03*
X010290Y020608D03*
X010147Y020295D03*
X010147Y020293D03*
X010147Y020290D03*
X009912Y020235D03*
X009912Y020233D03*
X010530Y021000D03*
X011007Y020778D03*
X011002Y020548D03*
X011265Y020613D03*
X008182Y019738D03*
X007947Y019818D03*
X007637Y019975D03*
X007637Y019978D03*
X007637Y019980D03*
X007627Y019270D03*
X008237Y018598D03*
D127*
X008235Y018600D03*
X008232Y018603D03*
X007630Y019273D03*
X007947Y019823D03*
X007947Y019825D03*
X007947Y019828D03*
X008185Y019745D03*
X007640Y019963D03*
X007640Y019965D03*
X007640Y019968D03*
X008105Y020780D03*
X007860Y021463D03*
X008290Y021583D03*
X008292Y021585D03*
X009202Y020770D03*
X009397Y020953D03*
X009397Y020955D03*
X009742Y021138D03*
X009742Y021140D03*
X009585Y021335D03*
X010330Y020915D03*
X010237Y020740D03*
X010285Y020603D03*
X010722Y020765D03*
X010530Y021003D03*
X010662Y021165D03*
X011002Y020550D03*
X011267Y020618D03*
X009910Y020228D03*
X009947Y020030D03*
X009695Y020283D03*
X009537Y020565D03*
D128*
X009693Y020285D03*
X009908Y020225D03*
X010148Y020303D03*
X010148Y020305D03*
X010328Y020913D03*
X010531Y021005D03*
X010826Y021048D03*
X010826Y021050D03*
X011446Y020753D03*
X011271Y020620D03*
X011001Y020553D03*
X009741Y021133D03*
X009741Y021135D03*
X009398Y020958D03*
X008546Y021600D03*
X008126Y021100D03*
X008218Y021030D03*
X008343Y020698D03*
X007946Y019833D03*
X007946Y019830D03*
X008186Y019748D03*
X008188Y019750D03*
X007916Y019273D03*
X008228Y018608D03*
X008231Y018605D03*
X007641Y019955D03*
X007641Y019958D03*
X007641Y019960D03*
D129*
X007642Y019953D03*
X007642Y019950D03*
X008190Y019753D03*
X008102Y020778D03*
X008132Y021098D03*
X008255Y021160D03*
X008287Y021580D03*
X007862Y021465D03*
X009080Y021158D03*
X009397Y020960D03*
X009200Y020773D03*
X009740Y021130D03*
X009582Y021333D03*
X010330Y020910D03*
X010242Y020745D03*
X010240Y020743D03*
X010282Y020600D03*
X010150Y020310D03*
X010150Y020308D03*
X009910Y020223D03*
X009945Y020033D03*
X009695Y020288D03*
X009845Y020570D03*
X010530Y021008D03*
X011272Y020623D03*
X008227Y018610D03*
X008225Y018613D03*
D130*
X008223Y018615D03*
X008221Y018618D03*
X007633Y019275D03*
X007946Y019835D03*
X007946Y019838D03*
X007946Y019840D03*
X008191Y019755D03*
X008346Y020695D03*
X008508Y021120D03*
X008546Y021598D03*
X008286Y021578D03*
X007863Y021468D03*
X007691Y021228D03*
X007543Y020665D03*
X009196Y020775D03*
X009398Y020963D03*
X009398Y020965D03*
X009741Y021128D03*
X009578Y021330D03*
X010531Y021010D03*
X010826Y021045D03*
X010998Y020555D03*
X011273Y020625D03*
X010278Y020598D03*
X010151Y020313D03*
X009908Y020220D03*
D131*
X009907Y020218D03*
X009942Y020035D03*
X010150Y020315D03*
X010277Y020595D03*
X010245Y020748D03*
X010330Y020905D03*
X010330Y020908D03*
X010732Y020763D03*
X011000Y020780D03*
X010997Y020558D03*
X011440Y020750D03*
X009740Y021123D03*
X009740Y021125D03*
X009400Y020968D03*
X009542Y020563D03*
X009695Y020290D03*
X008347Y020693D03*
X008100Y020775D03*
X008217Y021033D03*
X008137Y021095D03*
X007865Y021470D03*
X008285Y021575D03*
X008547Y021595D03*
X007945Y019845D03*
X007945Y019843D03*
X008192Y019760D03*
X008192Y019758D03*
X007642Y019943D03*
X007642Y019945D03*
X007642Y019948D03*
X008217Y018623D03*
X008220Y018620D03*
D132*
X008216Y018625D03*
X007913Y019270D03*
X007636Y019278D03*
X007943Y019848D03*
X008193Y019763D03*
X008196Y019765D03*
X007643Y019938D03*
X007643Y019940D03*
X008348Y020690D03*
X008251Y021163D03*
X009398Y020970D03*
X009738Y021118D03*
X009738Y021120D03*
X009576Y021328D03*
X010248Y020750D03*
X010273Y020593D03*
X010151Y020323D03*
X010151Y020320D03*
X010151Y020318D03*
X009906Y020215D03*
X009906Y020213D03*
X010531Y021013D03*
X010653Y021163D03*
X010826Y021043D03*
X010996Y020560D03*
X011276Y020628D03*
X011278Y020630D03*
D133*
X011280Y020633D03*
X011432Y020748D03*
X010825Y021040D03*
X010330Y020903D03*
X010250Y020753D03*
X009837Y020573D03*
X009695Y020295D03*
X009695Y020293D03*
X010152Y020325D03*
X010152Y020328D03*
X009400Y020973D03*
X009400Y020975D03*
X009192Y020778D03*
X009572Y021325D03*
X008550Y021593D03*
X008282Y021573D03*
X007867Y021473D03*
X008142Y021093D03*
X008217Y021035D03*
X008350Y020688D03*
X007945Y019853D03*
X007945Y019850D03*
X008197Y019768D03*
X007645Y019930D03*
X007645Y019933D03*
X007645Y019935D03*
X007017Y020998D03*
X008212Y018628D03*
D134*
X008211Y018630D03*
X008208Y018633D03*
X007911Y019268D03*
X007638Y019280D03*
X007646Y019925D03*
X007646Y019928D03*
X007943Y019858D03*
X007943Y019855D03*
X008198Y019770D03*
X008351Y020685D03*
X008096Y020773D03*
X008056Y020943D03*
X008146Y021090D03*
X007868Y021475D03*
X008281Y021570D03*
X008551Y021590D03*
X007546Y020668D03*
X009738Y021113D03*
X009738Y021115D03*
X010253Y020755D03*
X010331Y020900D03*
X010531Y021015D03*
X010271Y020590D03*
X010268Y020588D03*
X009906Y020210D03*
X009938Y020038D03*
X010996Y020563D03*
D135*
X011282Y020635D03*
X010825Y021038D03*
X010532Y021018D03*
X010330Y020898D03*
X010257Y020758D03*
X010152Y020333D03*
X010152Y020330D03*
X009905Y020208D03*
X009935Y020040D03*
X009695Y020298D03*
X009550Y020560D03*
X009190Y020780D03*
X009400Y020978D03*
X009400Y020980D03*
X009737Y021108D03*
X009737Y021110D03*
X009570Y021323D03*
X008552Y021588D03*
X008280Y021568D03*
X008247Y021165D03*
X008152Y021088D03*
X008217Y021038D03*
X007690Y021225D03*
X007647Y019923D03*
X007647Y019920D03*
X007647Y019918D03*
X007942Y019863D03*
X007942Y019860D03*
X008200Y019775D03*
X008200Y019773D03*
X008205Y018638D03*
X008207Y018635D03*
D136*
X008203Y018640D03*
X008201Y019778D03*
X008203Y019780D03*
X007943Y019865D03*
X007648Y019910D03*
X007648Y019913D03*
X007648Y019915D03*
X008093Y020770D03*
X008351Y020683D03*
X008516Y021123D03*
X009073Y021155D03*
X009401Y020983D03*
X009186Y020783D03*
X009736Y021103D03*
X009736Y021105D03*
X009566Y021320D03*
X010331Y020895D03*
X010258Y020760D03*
X010266Y020585D03*
X010263Y020583D03*
X010153Y020338D03*
X010153Y020335D03*
X009903Y020205D03*
X009903Y020203D03*
X009696Y020300D03*
X010993Y020565D03*
X011283Y020638D03*
X007871Y021478D03*
D137*
X007872Y021480D03*
X007837Y021808D03*
X008277Y021565D03*
X008555Y021585D03*
X008157Y021085D03*
X008215Y021040D03*
X008352Y020680D03*
X007942Y019873D03*
X007942Y019870D03*
X007942Y019868D03*
X008205Y019783D03*
X007650Y019905D03*
X007650Y019908D03*
X007642Y019283D03*
X007910Y019265D03*
X008200Y018645D03*
X008202Y018643D03*
X009902Y020200D03*
X010155Y020340D03*
X009832Y020575D03*
X010262Y020763D03*
X010330Y020893D03*
X010532Y021020D03*
X010532Y021023D03*
X010645Y021160D03*
X010825Y021035D03*
X010825Y021033D03*
X010742Y020760D03*
X010990Y020783D03*
X010992Y020568D03*
X011285Y020640D03*
X011425Y020745D03*
X009400Y020985D03*
D138*
X009401Y020988D03*
X009401Y020990D03*
X009736Y021098D03*
X009736Y021100D03*
X009563Y021318D03*
X010331Y020890D03*
X010263Y020765D03*
X010261Y020580D03*
X010153Y020345D03*
X010153Y020343D03*
X009901Y020198D03*
X009931Y020043D03*
X009696Y020303D03*
X009696Y020305D03*
X008353Y020678D03*
X008088Y020768D03*
X008243Y021168D03*
X008276Y021563D03*
X008556Y021583D03*
X007873Y021483D03*
X007546Y020670D03*
X007651Y019903D03*
X007651Y019900D03*
X007651Y019898D03*
X007941Y019878D03*
X007941Y019875D03*
X008206Y019785D03*
X008196Y018650D03*
X008198Y018648D03*
X010991Y020570D03*
X011288Y020643D03*
D139*
X011290Y020645D03*
X010825Y021030D03*
X010532Y021025D03*
X010267Y020768D03*
X010155Y020350D03*
X010155Y020348D03*
X009902Y020195D03*
X009182Y020785D03*
X009735Y021093D03*
X009735Y021095D03*
X009560Y021315D03*
X008557Y021580D03*
X008162Y021083D03*
X008215Y021043D03*
X008355Y020675D03*
X008207Y019788D03*
X007652Y019893D03*
X007652Y019895D03*
X007645Y019285D03*
X007907Y019263D03*
X008192Y018655D03*
X008195Y018653D03*
D140*
X008190Y018658D03*
X008187Y018660D03*
X007647Y019288D03*
X007655Y019880D03*
X007655Y019883D03*
X007940Y019888D03*
X007940Y019890D03*
X008212Y019798D03*
X008357Y020673D03*
X008215Y021045D03*
X008272Y021558D03*
X008560Y021578D03*
X009067Y021153D03*
X009402Y021000D03*
X009402Y020998D03*
X009180Y020788D03*
X009735Y021085D03*
X009735Y021088D03*
X009557Y021313D03*
X010330Y020885D03*
X010272Y020773D03*
X010270Y020770D03*
X010255Y020575D03*
X010155Y020355D03*
X009900Y020190D03*
X010532Y021028D03*
X010825Y021028D03*
X010990Y020573D03*
X007875Y021485D03*
X007547Y020673D03*
X007032Y020995D03*
D141*
X007876Y021488D03*
X008271Y021555D03*
X008561Y021575D03*
X008523Y021125D03*
X008173Y021078D03*
X008083Y020763D03*
X008358Y020670D03*
X009176Y020790D03*
X009733Y021080D03*
X009733Y021083D03*
X009553Y021310D03*
X010331Y020883D03*
X010533Y021030D03*
X010823Y021025D03*
X010751Y020758D03*
X010981Y020785D03*
X010988Y020575D03*
X011293Y020650D03*
X011296Y020653D03*
X011411Y020740D03*
X010253Y020573D03*
X010156Y020360D03*
X010156Y020358D03*
X009898Y020188D03*
X009898Y020185D03*
X009926Y020048D03*
X009696Y020310D03*
X009826Y020578D03*
X008213Y019800D03*
X007938Y019893D03*
X007656Y019878D03*
X007656Y019875D03*
X007656Y019873D03*
X008183Y018665D03*
X008186Y018663D03*
D142*
X008182Y018668D03*
X008180Y018670D03*
X007905Y019260D03*
X007650Y019290D03*
X007657Y019868D03*
X007657Y019870D03*
X007940Y019895D03*
X007940Y019898D03*
X008215Y019803D03*
X008042Y020945D03*
X008177Y021075D03*
X008215Y021048D03*
X008237Y021173D03*
X008267Y021553D03*
X008562Y021573D03*
X007877Y021490D03*
X009402Y021005D03*
X009402Y021003D03*
X009732Y021075D03*
X009732Y021078D03*
X010275Y020775D03*
X010330Y020880D03*
X010250Y020570D03*
X010157Y020365D03*
X010157Y020363D03*
X009697Y020313D03*
X009562Y020555D03*
X010637Y021158D03*
X010987Y020578D03*
X011297Y020655D03*
D143*
X010823Y021023D03*
X010533Y021033D03*
X010331Y020878D03*
X010278Y020778D03*
X010248Y020568D03*
X010158Y020368D03*
X009898Y020183D03*
X009696Y020315D03*
X009403Y021008D03*
X009551Y021308D03*
X008358Y020668D03*
X008183Y021073D03*
X008266Y021550D03*
X007938Y019903D03*
X007938Y019900D03*
X007658Y019865D03*
X007658Y019863D03*
X007658Y019860D03*
X008216Y019808D03*
X008216Y019805D03*
X008218Y019810D03*
X008176Y018675D03*
X008178Y018673D03*
D144*
X008175Y018678D03*
X007902Y019258D03*
X007652Y019293D03*
X007660Y019855D03*
X007660Y019858D03*
X007937Y019905D03*
X007937Y019908D03*
X008220Y019813D03*
X008360Y020665D03*
X008080Y020760D03*
X008212Y021050D03*
X008265Y021548D03*
X008565Y021570D03*
X007880Y021493D03*
X007682Y021220D03*
X009172Y020793D03*
X009402Y021010D03*
X009547Y021305D03*
X009732Y021073D03*
X009732Y021070D03*
X010280Y020780D03*
X010245Y020565D03*
X010157Y020373D03*
X010157Y020370D03*
X009897Y020180D03*
X009922Y020050D03*
X009697Y020318D03*
X010532Y021035D03*
X010825Y021020D03*
X011300Y020658D03*
X011405Y020738D03*
X010985Y020580D03*
D145*
X011301Y020660D03*
X011303Y020663D03*
X010823Y021018D03*
X010533Y021038D03*
X010331Y020875D03*
X010331Y020873D03*
X010283Y020783D03*
X010158Y020378D03*
X010158Y020375D03*
X009896Y020178D03*
X009896Y020175D03*
X009918Y020053D03*
X009821Y020580D03*
X009731Y021065D03*
X009731Y021068D03*
X009403Y021015D03*
X009403Y021013D03*
X009061Y021150D03*
X008566Y021568D03*
X008233Y021175D03*
X008188Y021070D03*
X008361Y020663D03*
X007881Y021495D03*
X007548Y020675D03*
X007661Y019853D03*
X007661Y019850D03*
X007661Y019848D03*
X007938Y019910D03*
X008221Y019815D03*
X008171Y018683D03*
X008173Y018680D03*
D146*
X008168Y018685D03*
X008166Y018688D03*
X007656Y019295D03*
X007663Y019835D03*
X007663Y019838D03*
X007936Y019918D03*
X007936Y019920D03*
X007936Y019923D03*
X008223Y019820D03*
X008226Y019825D03*
X008363Y020658D03*
X008193Y021068D03*
X008261Y021543D03*
X008566Y021565D03*
X009166Y020798D03*
X009403Y021018D03*
X009403Y021020D03*
X009541Y021300D03*
X009731Y021060D03*
X010286Y020785D03*
X010288Y020788D03*
X010331Y020870D03*
X010533Y021040D03*
X010628Y021155D03*
X010823Y021015D03*
X010761Y020755D03*
X010983Y020585D03*
X010158Y020383D03*
X009916Y020055D03*
X009698Y020323D03*
X009568Y020553D03*
D147*
X009697Y020325D03*
X009895Y020170D03*
X010160Y020385D03*
X010160Y020388D03*
X010235Y020555D03*
X010237Y020558D03*
X010332Y020868D03*
X010535Y021043D03*
X010972Y020788D03*
X010982Y020588D03*
X011307Y020668D03*
X011397Y020735D03*
X009730Y021055D03*
X009730Y021058D03*
X009405Y021023D03*
X008567Y021563D03*
X008260Y021540D03*
X008230Y021178D03*
X008212Y021055D03*
X008075Y020755D03*
X008365Y020655D03*
X007885Y021500D03*
X007665Y019833D03*
X007665Y019830D03*
X007665Y019828D03*
X008225Y019823D03*
X008227Y019828D03*
X008162Y018693D03*
X008165Y018690D03*
D148*
X008161Y018695D03*
X008158Y018698D03*
X007898Y019253D03*
X007658Y019298D03*
X007666Y019823D03*
X007666Y019825D03*
X007936Y019925D03*
X007936Y019928D03*
X007936Y019930D03*
X008228Y019830D03*
X007548Y020678D03*
X007678Y021218D03*
X007886Y021503D03*
X008198Y021065D03*
X008203Y021063D03*
X009403Y021025D03*
X009538Y021298D03*
X009728Y021053D03*
X009728Y021050D03*
X010291Y020790D03*
X010293Y020793D03*
X010331Y020865D03*
X010161Y020393D03*
X010161Y020390D03*
X009893Y020168D03*
X009893Y020165D03*
X009698Y020328D03*
X010823Y021013D03*
X011308Y020670D03*
D149*
X011310Y020673D03*
X011390Y020733D03*
X010980Y020590D03*
X010822Y021010D03*
X010535Y021045D03*
X010332Y020863D03*
X010232Y020553D03*
X009815Y020583D03*
X009575Y020550D03*
X009162Y020800D03*
X009405Y021028D03*
X009405Y021030D03*
X009535Y021295D03*
X008570Y021560D03*
X008257Y021538D03*
X007887Y021505D03*
X008070Y020753D03*
X008365Y020653D03*
X008230Y019833D03*
X007935Y019933D03*
X007935Y019935D03*
X007667Y019820D03*
X007667Y019818D03*
X007667Y019815D03*
X007662Y019300D03*
X008155Y018703D03*
X008157Y018700D03*
X009912Y020058D03*
X009892Y020163D03*
X007047Y020993D03*
D150*
X008026Y020948D03*
X008208Y021060D03*
X008211Y021058D03*
X008256Y021535D03*
X008571Y021558D03*
X009406Y021033D03*
X009728Y021045D03*
X009728Y021048D03*
X010296Y020795D03*
X010331Y020860D03*
X010161Y020400D03*
X010161Y020398D03*
X010161Y020395D03*
X009891Y020160D03*
X009698Y020330D03*
X009698Y020333D03*
X010771Y020753D03*
X010978Y020593D03*
X011313Y020675D03*
X008231Y019835D03*
X007933Y019938D03*
X007668Y019813D03*
X007668Y019810D03*
X008151Y018708D03*
X008153Y018705D03*
D151*
X008150Y018710D03*
X007895Y019250D03*
X007670Y019803D03*
X007670Y019805D03*
X007670Y019808D03*
X007935Y019940D03*
X007935Y019943D03*
X008232Y019838D03*
X008235Y019840D03*
X008235Y019843D03*
X008367Y020650D03*
X008067Y020750D03*
X008227Y021180D03*
X008537Y021130D03*
X008572Y021555D03*
X008255Y021533D03*
X007857Y021805D03*
X007550Y020680D03*
X009055Y021148D03*
X009160Y020803D03*
X009405Y021035D03*
X009532Y021293D03*
X009727Y021043D03*
X009727Y021040D03*
X010300Y020798D03*
X010302Y020800D03*
X010332Y020858D03*
X010535Y021048D03*
X010535Y021050D03*
X010620Y021153D03*
X010822Y021008D03*
X011315Y020678D03*
X010230Y020550D03*
X010227Y020548D03*
X010162Y020405D03*
X010162Y020403D03*
X009890Y020158D03*
X009910Y020060D03*
D152*
X009891Y020155D03*
X009698Y020335D03*
X009808Y020585D03*
X009726Y021035D03*
X009726Y021038D03*
X009406Y021038D03*
X009406Y021040D03*
X009528Y021290D03*
X008368Y020648D03*
X008236Y019845D03*
X007933Y019945D03*
X007933Y019948D03*
X007671Y019800D03*
X007671Y019798D03*
X007666Y019303D03*
X008146Y018713D03*
X010978Y020595D03*
X010963Y020790D03*
X010823Y021005D03*
X011316Y020680D03*
X007888Y021508D03*
D153*
X007890Y021510D03*
X008252Y021530D03*
X008575Y021553D03*
X008225Y021183D03*
X008065Y020748D03*
X008370Y020645D03*
X009157Y020805D03*
X009405Y021043D03*
X009582Y020548D03*
X009890Y020153D03*
X009907Y020063D03*
X010162Y020408D03*
X010162Y020410D03*
X010225Y020545D03*
X010305Y020803D03*
X010332Y020853D03*
X010332Y020855D03*
X010535Y021053D03*
X010822Y021003D03*
X011382Y020730D03*
X008237Y019848D03*
X007932Y019950D03*
X007932Y019953D03*
X007672Y019795D03*
X007672Y019793D03*
X007672Y019790D03*
X008145Y018715D03*
D154*
X008143Y018718D03*
X008141Y018720D03*
X007893Y019248D03*
X007668Y019305D03*
X007673Y019783D03*
X007673Y019785D03*
X007673Y019788D03*
X007933Y019955D03*
X008238Y019850D03*
X008371Y020643D03*
X007676Y021215D03*
X008251Y021528D03*
X008576Y021550D03*
X009406Y021048D03*
X009406Y021045D03*
X009526Y021288D03*
X009726Y021033D03*
X009726Y021030D03*
X010308Y020805D03*
X010221Y020543D03*
X010163Y020415D03*
X010163Y020413D03*
X009888Y020150D03*
X009698Y020338D03*
X010536Y021055D03*
X010976Y020598D03*
X011318Y020683D03*
X011321Y020685D03*
D155*
X011322Y020688D03*
X010975Y020600D03*
X010822Y021000D03*
X010332Y020850D03*
X010332Y020848D03*
X010310Y020808D03*
X010220Y020540D03*
X010165Y020420D03*
X010165Y020418D03*
X009887Y020148D03*
X009887Y020145D03*
X009902Y020065D03*
X009700Y020340D03*
X009152Y020808D03*
X009522Y021285D03*
X009725Y021028D03*
X009725Y021025D03*
X008577Y021548D03*
X008250Y021525D03*
X007892Y021513D03*
X008372Y020640D03*
X008242Y019858D03*
X008242Y019855D03*
X008240Y019853D03*
X007932Y019958D03*
X007932Y019960D03*
X007675Y019780D03*
X007675Y019778D03*
X008137Y018725D03*
X008140Y018723D03*
D156*
X008136Y018728D03*
X008133Y018730D03*
X007891Y019245D03*
X007671Y019308D03*
X007676Y019773D03*
X007676Y019775D03*
X007931Y019963D03*
X007931Y019965D03*
X007931Y019968D03*
X008243Y019860D03*
X008061Y020745D03*
X008221Y021185D03*
X008246Y021523D03*
X007893Y021515D03*
X007551Y020683D03*
X009406Y021050D03*
X009406Y021053D03*
X009723Y021023D03*
X010313Y020810D03*
X010216Y020538D03*
X009698Y020343D03*
X010536Y021058D03*
X010611Y021150D03*
X010821Y020998D03*
X010781Y020750D03*
X010973Y020603D03*
X011376Y020728D03*
D157*
X011325Y020690D03*
X010332Y020845D03*
X010165Y020428D03*
X010165Y020425D03*
X010165Y020423D03*
X009887Y020143D03*
X009900Y020068D03*
X009700Y020345D03*
X009587Y020545D03*
X009802Y020588D03*
X009725Y021020D03*
X009407Y021055D03*
X009407Y021058D03*
X009520Y021283D03*
X009047Y021145D03*
X009150Y020810D03*
X008545Y021133D03*
X008580Y021545D03*
X008245Y021520D03*
X007895Y021518D03*
X007062Y020990D03*
X008372Y020638D03*
X008245Y019863D03*
X007677Y019768D03*
X007677Y019765D03*
X007675Y019770D03*
X008130Y018735D03*
X008132Y018733D03*
D158*
X008128Y018738D03*
X008126Y018740D03*
X007678Y019758D03*
X007678Y019760D03*
X007678Y019763D03*
X007931Y019970D03*
X007931Y019973D03*
X008246Y019865D03*
X008373Y020635D03*
X008058Y020743D03*
X008243Y021518D03*
X008581Y021543D03*
X009723Y021018D03*
X009723Y021015D03*
X010316Y020813D03*
X010318Y020815D03*
X010333Y020843D03*
X010536Y021060D03*
X010536Y021063D03*
X010821Y020995D03*
X010953Y020793D03*
X011326Y020693D03*
X011328Y020695D03*
X011368Y020725D03*
X010213Y020535D03*
X010211Y020533D03*
X010166Y020433D03*
X010166Y020430D03*
X009886Y020140D03*
X009886Y020138D03*
D159*
X009883Y020133D03*
X009701Y020350D03*
X010166Y020435D03*
X010166Y020438D03*
X010206Y020528D03*
X010208Y020530D03*
X010321Y020818D03*
X010323Y020820D03*
X010333Y020838D03*
X010536Y021065D03*
X010821Y020993D03*
X010821Y020990D03*
X011331Y020698D03*
X010971Y020608D03*
X009721Y021008D03*
X009408Y021065D03*
X009513Y021278D03*
X008376Y020630D03*
X008251Y019875D03*
X008251Y019873D03*
X007928Y019983D03*
X007928Y019985D03*
X007681Y019750D03*
X007681Y019748D03*
X007681Y019745D03*
X007888Y019243D03*
X008121Y018745D03*
X008123Y018743D03*
X008241Y021515D03*
X007898Y021523D03*
D160*
X007900Y021525D03*
X008240Y021513D03*
X008585Y021538D03*
X008552Y021135D03*
X008055Y020740D03*
X007930Y019988D03*
X008252Y019878D03*
X007682Y019743D03*
X007682Y019740D03*
X008117Y018750D03*
X008120Y018748D03*
X009700Y020353D03*
X009595Y020543D03*
X009797Y020590D03*
X010167Y020443D03*
X010167Y020440D03*
X009722Y021005D03*
X009407Y021068D03*
X009510Y021275D03*
X009142Y020815D03*
X010537Y021068D03*
X010602Y021148D03*
X010970Y020610D03*
X011332Y020700D03*
X011362Y020723D03*
D161*
X011333Y020703D03*
X010968Y020613D03*
X010791Y020748D03*
X010821Y020988D03*
X010333Y020835D03*
X010326Y020823D03*
X010203Y020525D03*
X010168Y020448D03*
X010168Y020445D03*
X009883Y020130D03*
X009883Y020128D03*
X009893Y020073D03*
X009721Y021000D03*
X009721Y021003D03*
X009408Y021070D03*
X009408Y021073D03*
X008378Y020628D03*
X008051Y020738D03*
X008213Y021190D03*
X007928Y019993D03*
X007928Y019990D03*
X008253Y019880D03*
X007683Y019738D03*
X007683Y019735D03*
X007683Y019733D03*
X007676Y019313D03*
X007886Y019240D03*
X008113Y018755D03*
X008116Y018753D03*
D162*
X008112Y018758D03*
X008110Y018760D03*
X007685Y019730D03*
X007927Y019995D03*
X007927Y019998D03*
X007927Y020000D03*
X008255Y019883D03*
X008257Y019885D03*
X008380Y020625D03*
X009140Y020818D03*
X009040Y021143D03*
X009507Y021273D03*
X009720Y020998D03*
X009720Y020995D03*
X010330Y020825D03*
X010332Y020833D03*
X010537Y021070D03*
X011337Y020705D03*
X009882Y020125D03*
X009700Y020355D03*
X008585Y021535D03*
X008237Y021510D03*
X007902Y021528D03*
D163*
X007903Y021530D03*
X008236Y021508D03*
X008586Y021533D03*
X008048Y020735D03*
X007668Y021210D03*
X007553Y020688D03*
X007683Y019728D03*
X007683Y019725D03*
X008258Y019888D03*
X007678Y019315D03*
X008108Y018763D03*
X009891Y020075D03*
X009881Y020123D03*
X009701Y020358D03*
X010168Y020450D03*
X010168Y020453D03*
X010168Y020455D03*
X010198Y020520D03*
X010201Y020523D03*
X010331Y020828D03*
X010333Y020830D03*
X010821Y020985D03*
X011338Y020708D03*
X010966Y020615D03*
X009408Y021075D03*
D164*
X009410Y021078D03*
X009410Y021080D03*
X009505Y021270D03*
X009720Y020993D03*
X009720Y020990D03*
X009137Y020820D03*
X009700Y020360D03*
X009880Y020120D03*
X009880Y020118D03*
X010170Y020458D03*
X010170Y020460D03*
X010537Y021073D03*
X010820Y020983D03*
X010945Y020795D03*
X011340Y020710D03*
X011355Y020720D03*
X008380Y020623D03*
X008210Y021193D03*
X008235Y021505D03*
X007875Y021803D03*
X007927Y020005D03*
X007927Y020003D03*
X008260Y019893D03*
X008260Y019890D03*
X007685Y019723D03*
X007685Y019720D03*
X007885Y019238D03*
X008105Y018768D03*
X008107Y018765D03*
D165*
X008102Y018770D03*
X008100Y018773D03*
X007882Y019235D03*
X007687Y019708D03*
X007687Y019710D03*
X008262Y019898D03*
X008382Y020618D03*
X008045Y020733D03*
X008207Y021195D03*
X008232Y021503D03*
X008590Y021528D03*
X008560Y021138D03*
X009132Y020823D03*
X009410Y021085D03*
X009497Y021265D03*
X009717Y020983D03*
X009717Y020980D03*
X010192Y020515D03*
X010170Y020465D03*
X010170Y020463D03*
X009880Y020115D03*
X010802Y020745D03*
X010965Y020620D03*
X011342Y020713D03*
X011347Y020718D03*
X010820Y020980D03*
X010595Y021145D03*
X010537Y021078D03*
X007555Y020690D03*
D166*
X007926Y020018D03*
X007926Y020015D03*
X008263Y019900D03*
X008266Y019903D03*
X007688Y019705D03*
X007688Y019703D03*
X007688Y019700D03*
X007683Y019320D03*
X008096Y018778D03*
X008098Y018775D03*
X008383Y020615D03*
X008231Y021500D03*
X007906Y021535D03*
X008591Y021525D03*
X009411Y021090D03*
X009411Y021088D03*
X009701Y020365D03*
X009878Y020113D03*
X009883Y020080D03*
X010171Y020468D03*
X010171Y020470D03*
X010191Y020513D03*
X010821Y020978D03*
X011343Y020715D03*
D167*
X010962Y020623D03*
X010820Y020975D03*
X010537Y021080D03*
X010187Y020510D03*
X010172Y020473D03*
X009877Y020110D03*
X009877Y020108D03*
X009702Y020368D03*
X009607Y020538D03*
X009130Y020825D03*
X009032Y021140D03*
X009410Y021093D03*
X009495Y021263D03*
X009717Y020978D03*
X009717Y020975D03*
X008592Y021523D03*
X008230Y021498D03*
X007907Y021538D03*
X007997Y020953D03*
X008042Y020730D03*
X008385Y020613D03*
X008267Y019905D03*
X007925Y020020D03*
X007925Y020023D03*
X007925Y020025D03*
X007690Y019698D03*
X007690Y019695D03*
X008092Y018783D03*
X008095Y018780D03*
D168*
X008091Y018785D03*
X008088Y018788D03*
X007881Y019233D03*
X007691Y019688D03*
X007691Y019690D03*
X007691Y019693D03*
X007923Y020028D03*
X008268Y019910D03*
X008268Y019908D03*
X008386Y020610D03*
X008203Y021198D03*
X007908Y021540D03*
X007666Y021208D03*
X009411Y021098D03*
X009411Y021095D03*
X009716Y020973D03*
X009716Y020970D03*
X010171Y020475D03*
X009876Y020105D03*
X009881Y020083D03*
X010538Y021083D03*
X010961Y020625D03*
D169*
X010935Y020798D03*
X010810Y020743D03*
X010820Y020973D03*
X010185Y020508D03*
X010182Y020505D03*
X010172Y020483D03*
X010172Y020480D03*
X010172Y020478D03*
X009785Y020595D03*
X009702Y020373D03*
X009702Y020370D03*
X009715Y020965D03*
X009715Y020968D03*
X009492Y021260D03*
X009127Y020828D03*
X008595Y021520D03*
X008227Y021495D03*
X008040Y020728D03*
X007555Y020693D03*
X007925Y020033D03*
X007925Y020030D03*
X008270Y019913D03*
X007692Y019685D03*
X007692Y019683D03*
X007687Y019323D03*
X008085Y018793D03*
X008087Y018790D03*
D170*
X008083Y018795D03*
X008081Y018798D03*
X007693Y019675D03*
X007693Y019678D03*
X007693Y019680D03*
X008271Y019915D03*
X008273Y019918D03*
X007923Y020035D03*
X007923Y020038D03*
X008386Y020608D03*
X008223Y021490D03*
X008226Y021493D03*
X007911Y021543D03*
X008596Y021518D03*
X009411Y021103D03*
X009411Y021100D03*
X009488Y021258D03*
X010173Y020488D03*
X010173Y020485D03*
X009876Y020103D03*
X010538Y021085D03*
X010586Y021143D03*
X010961Y020628D03*
D171*
X010958Y020630D03*
X010818Y020968D03*
X010538Y021090D03*
X010173Y020493D03*
X010173Y020490D03*
X009873Y020095D03*
X009613Y020535D03*
X009713Y020955D03*
X009713Y020958D03*
X009411Y021108D03*
X008598Y021515D03*
X008221Y021488D03*
X007913Y021548D03*
X007663Y021205D03*
X008036Y020725D03*
X007923Y020045D03*
X008276Y019925D03*
X008276Y019923D03*
X007696Y019665D03*
X007696Y019663D03*
X008078Y018800D03*
D172*
X008077Y018803D03*
X008075Y018805D03*
X007692Y019328D03*
X007697Y019655D03*
X007697Y019658D03*
X007697Y019660D03*
X008277Y019928D03*
X008280Y019930D03*
X007922Y020048D03*
X007922Y020050D03*
X008032Y020723D03*
X008390Y020603D03*
X009120Y020833D03*
X009027Y021138D03*
X008600Y021513D03*
X008220Y021485D03*
X007092Y020985D03*
X009412Y021110D03*
X009412Y021113D03*
X009482Y021253D03*
X009712Y020953D03*
X009780Y020598D03*
X009702Y020380D03*
X009702Y020378D03*
X009872Y020093D03*
X009875Y020088D03*
X010175Y020495D03*
X010175Y020498D03*
X010957Y020633D03*
D173*
X010956Y020635D03*
X010926Y020800D03*
X010818Y020965D03*
X010538Y021093D03*
X009713Y020950D03*
X009873Y020090D03*
X008391Y020600D03*
X008196Y021203D03*
X008218Y021483D03*
X007916Y021550D03*
X008601Y021510D03*
X007556Y020695D03*
X007921Y020058D03*
X007921Y020055D03*
X007921Y020053D03*
X008281Y019933D03*
X007698Y019653D03*
X007698Y019650D03*
X007696Y019330D03*
X007876Y019228D03*
X008071Y018810D03*
X008073Y018808D03*
D174*
X008070Y018813D03*
X008067Y018815D03*
X007700Y019643D03*
X007700Y019645D03*
X007700Y019648D03*
X008282Y019935D03*
X007920Y020060D03*
X008392Y020598D03*
X009117Y020835D03*
X009412Y021115D03*
X009412Y021118D03*
X009480Y021250D03*
X009712Y020948D03*
X009712Y020945D03*
X009620Y020533D03*
X009702Y020383D03*
X010540Y021095D03*
X010820Y020963D03*
X007917Y021553D03*
D175*
X007918Y021555D03*
X008216Y021480D03*
X008601Y021508D03*
X008573Y021143D03*
X008028Y020720D03*
X007983Y020955D03*
X008393Y020595D03*
X008283Y019938D03*
X007921Y020063D03*
X007701Y019640D03*
X007701Y019638D03*
X007873Y019225D03*
X008063Y018820D03*
X008066Y018818D03*
X009703Y020385D03*
X009711Y020940D03*
X009711Y020943D03*
X009413Y021120D03*
X009413Y021123D03*
X009476Y021248D03*
X010576Y021140D03*
X010818Y020960D03*
X010821Y020740D03*
X010956Y020638D03*
D176*
X010540Y021098D03*
X009772Y020600D03*
X009472Y021245D03*
X008605Y021505D03*
X008215Y021478D03*
X008192Y021205D03*
X007660Y021203D03*
X007557Y020698D03*
X007920Y020070D03*
X007920Y020068D03*
X007920Y020065D03*
X008285Y019943D03*
X008287Y019945D03*
X008285Y019940D03*
X007702Y019635D03*
X007702Y019633D03*
X007702Y019630D03*
X007700Y019333D03*
X008060Y018825D03*
X008062Y018823D03*
D177*
X008057Y018828D03*
X008055Y018830D03*
X007705Y019618D03*
X007705Y019620D03*
X007705Y019623D03*
X008290Y019950D03*
X007920Y020075D03*
X008395Y020590D03*
X009110Y020840D03*
X009020Y021135D03*
X008605Y021503D03*
X008212Y021475D03*
X007920Y021558D03*
X009415Y021130D03*
X009470Y021243D03*
X009710Y020933D03*
X009710Y020930D03*
X010952Y020643D03*
D178*
X010951Y020645D03*
X010818Y020955D03*
X010568Y021138D03*
X010541Y021103D03*
X009708Y020928D03*
X009708Y020925D03*
X009413Y021133D03*
X009626Y020530D03*
X009703Y020393D03*
X008396Y020588D03*
X008023Y020715D03*
X008188Y021208D03*
X008211Y021473D03*
X007921Y021560D03*
X008606Y021500D03*
X007918Y020083D03*
X007918Y020080D03*
X007918Y020078D03*
X008291Y019953D03*
X007706Y019615D03*
X007706Y019613D03*
X007706Y019610D03*
X007701Y019335D03*
X007871Y019223D03*
X008051Y018835D03*
X008053Y018833D03*
D179*
X008050Y018838D03*
X007707Y019605D03*
X007707Y019608D03*
X008292Y019955D03*
X008292Y019958D03*
X007917Y020085D03*
X007917Y020088D03*
X008397Y020585D03*
X009107Y020843D03*
X009415Y021135D03*
X009415Y021138D03*
X009467Y021240D03*
X009767Y020603D03*
X009705Y020395D03*
X010540Y021105D03*
X010817Y020953D03*
X010917Y020803D03*
X010830Y020738D03*
X008210Y021470D03*
X007557Y020700D03*
X007107Y020983D03*
D180*
X007656Y021200D03*
X007923Y021563D03*
X008186Y021210D03*
X008581Y021145D03*
X008608Y021498D03*
X009463Y021238D03*
X009708Y020923D03*
X009708Y020920D03*
X010541Y021108D03*
X010818Y020950D03*
X010948Y020648D03*
X008398Y020583D03*
X008296Y019963D03*
X008293Y019960D03*
X007708Y019603D03*
X007708Y019600D03*
X007708Y019598D03*
X007703Y019338D03*
X007868Y019220D03*
X008046Y018843D03*
X008048Y018840D03*
D181*
X008045Y018845D03*
X008042Y018848D03*
X007710Y019593D03*
X007710Y019595D03*
X008297Y019965D03*
X007917Y020090D03*
X007917Y020093D03*
X007917Y020095D03*
X008020Y020713D03*
X008207Y021468D03*
X007925Y021565D03*
X008610Y021495D03*
X009415Y021143D03*
X009415Y021140D03*
X009707Y020918D03*
X009707Y020915D03*
X009632Y020528D03*
X009705Y020398D03*
D182*
X009703Y020400D03*
X009706Y020910D03*
X009706Y020913D03*
X009416Y021145D03*
X009461Y021235D03*
X009103Y020845D03*
X009013Y021133D03*
X008611Y021493D03*
X008206Y021465D03*
X007926Y021568D03*
X007968Y020958D03*
X008401Y020580D03*
X008298Y019968D03*
X007916Y020098D03*
X007916Y020100D03*
X007916Y020103D03*
X007711Y019590D03*
X007711Y019588D03*
X007711Y019585D03*
X007708Y019340D03*
X008038Y018853D03*
X008041Y018850D03*
X010541Y021110D03*
X010818Y020948D03*
X010948Y020650D03*
D183*
X010947Y020653D03*
X010817Y020945D03*
X010560Y021135D03*
X009457Y021233D03*
X009415Y021148D03*
X009100Y020848D03*
X009705Y020403D03*
X008612Y021490D03*
X008205Y021463D03*
X008182Y021213D03*
X008017Y020710D03*
X007915Y020105D03*
X008300Y019970D03*
X008302Y019975D03*
X007712Y019583D03*
X007712Y019580D03*
X007867Y019218D03*
X008037Y018855D03*
D184*
X008033Y018858D03*
X007711Y019343D03*
X007713Y019573D03*
X007713Y019575D03*
X007713Y019578D03*
X008301Y019973D03*
X008303Y019978D03*
X007916Y020108D03*
X008401Y020578D03*
X007558Y020703D03*
X007928Y021570D03*
X009416Y021153D03*
X009416Y021150D03*
X009706Y020908D03*
X009706Y020905D03*
X009761Y020605D03*
X010541Y021113D03*
X010908Y020805D03*
X010841Y020735D03*
D185*
X010945Y020655D03*
X010817Y020943D03*
X010542Y021115D03*
X009705Y020903D03*
X009705Y020900D03*
X009640Y020525D03*
X009705Y020405D03*
X009097Y020850D03*
X009417Y021155D03*
X009455Y021230D03*
X008587Y021148D03*
X008615Y021488D03*
X008202Y021460D03*
X008200Y021458D03*
X007930Y021573D03*
X008012Y020708D03*
X008402Y020575D03*
X008305Y019980D03*
X007915Y020110D03*
X007915Y020113D03*
X007915Y020115D03*
X007715Y019570D03*
X007715Y019568D03*
X007715Y019565D03*
X007865Y019215D03*
X008030Y018863D03*
X008032Y018860D03*
D186*
X008028Y018865D03*
X008026Y018868D03*
X007713Y019345D03*
X007716Y019563D03*
X008306Y019983D03*
X007913Y020118D03*
X007913Y020120D03*
X008403Y020573D03*
X007653Y021198D03*
X007931Y021575D03*
X008198Y021455D03*
X008616Y021485D03*
X009416Y021158D03*
X009451Y021228D03*
X009703Y020898D03*
X009706Y020408D03*
X010943Y020658D03*
D187*
X010817Y020940D03*
X010542Y021118D03*
X010542Y021120D03*
X009705Y020895D03*
X009705Y020893D03*
X009417Y021160D03*
X009417Y021163D03*
X009705Y020410D03*
X008405Y020570D03*
X008010Y020705D03*
X008180Y021215D03*
X007560Y020705D03*
X008310Y019990D03*
X008307Y019985D03*
X007715Y019560D03*
X007717Y019555D03*
X007717Y019553D03*
X008022Y018873D03*
X008025Y018870D03*
D188*
X008021Y018875D03*
X008018Y018878D03*
X007861Y019213D03*
X007716Y019348D03*
X007716Y019558D03*
X008308Y019988D03*
X008311Y019993D03*
X007913Y020123D03*
X007913Y020125D03*
X007913Y020128D03*
X008406Y020568D03*
X009093Y020853D03*
X009448Y021225D03*
X009703Y020890D03*
X009756Y020608D03*
X009706Y020413D03*
X008618Y021483D03*
X008196Y021453D03*
X007933Y021578D03*
X010816Y020938D03*
X010943Y020660D03*
D189*
X010942Y020663D03*
X010850Y020733D03*
X010817Y020935D03*
X010550Y021133D03*
X010542Y021123D03*
X009702Y020888D03*
X009702Y020885D03*
X009417Y021165D03*
X009417Y021168D03*
X009445Y021223D03*
X009090Y020855D03*
X009007Y021130D03*
X008620Y021480D03*
X008195Y021450D03*
X008007Y020703D03*
X008407Y020565D03*
X008312Y019995D03*
X007912Y020130D03*
X007912Y020133D03*
X007717Y019550D03*
X007717Y019548D03*
X008015Y018883D03*
X008017Y018880D03*
X007122Y020980D03*
D190*
X007650Y021195D03*
X007935Y021583D03*
X008622Y021475D03*
X008595Y021150D03*
X009087Y020858D03*
X009417Y021173D03*
X009442Y021220D03*
X009702Y020880D03*
X009702Y020878D03*
X009707Y020418D03*
X010542Y021125D03*
X010817Y020933D03*
X010940Y020665D03*
X008407Y020563D03*
X008315Y020000D03*
X007912Y020138D03*
X007912Y020140D03*
X007720Y019538D03*
X007720Y019535D03*
X007720Y019350D03*
X007860Y019210D03*
X008012Y018885D03*
D191*
X008011Y018888D03*
X008008Y018890D03*
X007723Y019523D03*
X007721Y019528D03*
X007721Y019530D03*
X007721Y019533D03*
X008316Y020003D03*
X008318Y020005D03*
X008318Y020008D03*
X007911Y020143D03*
X007911Y020145D03*
X008003Y020700D03*
X007953Y020960D03*
X007561Y020708D03*
X008191Y021445D03*
X008408Y020560D03*
X009418Y021175D03*
X009418Y021178D03*
X009438Y021218D03*
X009701Y020875D03*
X009701Y020873D03*
X009706Y020420D03*
X010543Y021128D03*
X010816Y020930D03*
X010938Y020668D03*
D192*
X009750Y020610D03*
X009652Y020520D03*
X009700Y020870D03*
X009420Y021180D03*
X008172Y021220D03*
X008190Y021443D03*
X007937Y021585D03*
X007910Y020148D03*
X008320Y020010D03*
X007722Y019525D03*
X007725Y019520D03*
X007725Y019518D03*
X007722Y019353D03*
X007857Y019208D03*
X008005Y018895D03*
X008007Y018893D03*
D193*
X008003Y018898D03*
X008001Y018900D03*
X007723Y019515D03*
X007911Y020150D03*
X007911Y020153D03*
X008321Y020013D03*
X008411Y020558D03*
X008001Y020698D03*
X007938Y021588D03*
X008623Y021473D03*
X009083Y020860D03*
X009418Y021183D03*
X009436Y021215D03*
X009706Y020423D03*
X010543Y021130D03*
X010816Y020928D03*
X010861Y020730D03*
X010938Y020670D03*
D194*
X009700Y020863D03*
X009700Y020865D03*
X009700Y020868D03*
X009420Y021185D03*
X009420Y021188D03*
X009432Y021213D03*
X009080Y020863D03*
X009000Y021128D03*
X008625Y021470D03*
X008187Y021440D03*
X008170Y021223D03*
X007940Y021590D03*
X007562Y020710D03*
X007910Y020160D03*
X007910Y020158D03*
X007910Y020155D03*
X008322Y020015D03*
X008412Y020555D03*
X007725Y019513D03*
X007725Y019510D03*
X007725Y019355D03*
X007997Y018905D03*
X008000Y018903D03*
X009707Y020425D03*
D195*
X009743Y020613D03*
X009698Y020860D03*
X008626Y021468D03*
X008186Y021438D03*
X007646Y021193D03*
X007998Y020695D03*
X008413Y020553D03*
X008323Y020018D03*
X007908Y020163D03*
X007908Y020165D03*
X007726Y019508D03*
X007726Y019505D03*
X007726Y019503D03*
X007856Y019205D03*
X007993Y018910D03*
X007996Y018908D03*
X010936Y020673D03*
X010891Y020810D03*
X010816Y020923D03*
X010816Y020925D03*
D196*
X010935Y020675D03*
X009697Y020858D03*
X009707Y020430D03*
X009707Y020428D03*
X009077Y020865D03*
X009420Y021190D03*
X009420Y021193D03*
X009430Y021210D03*
X008602Y021153D03*
X008185Y021435D03*
X007942Y021593D03*
X008415Y020550D03*
X008327Y020025D03*
X008327Y020023D03*
X008325Y020020D03*
X007727Y019500D03*
X007727Y019498D03*
X007727Y019495D03*
X007727Y019358D03*
X007992Y018913D03*
D197*
X007988Y018915D03*
X007853Y019203D03*
X007728Y019490D03*
X007728Y019493D03*
X007908Y020168D03*
X007908Y020170D03*
X007908Y020173D03*
X008328Y020028D03*
X007993Y020693D03*
X008166Y021225D03*
X007943Y021595D03*
X008628Y021465D03*
X009421Y021195D03*
X009426Y021208D03*
X009698Y020855D03*
X009698Y020853D03*
X009658Y020518D03*
X010816Y020920D03*
X010933Y020678D03*
X007138Y020978D03*
D198*
X007562Y020713D03*
X007907Y020178D03*
X007907Y020175D03*
X008330Y020030D03*
X008415Y020548D03*
X008180Y021430D03*
X008182Y021433D03*
X007945Y021598D03*
X008630Y021463D03*
X009420Y021198D03*
X009697Y020850D03*
X009697Y020848D03*
X009707Y020433D03*
X010870Y020728D03*
X007730Y019488D03*
X007730Y019485D03*
X007730Y019483D03*
X007987Y018918D03*
D199*
X007986Y018920D03*
X007983Y018923D03*
X007981Y018925D03*
X007731Y019360D03*
X007731Y019478D03*
X007731Y019480D03*
X007906Y020180D03*
X008331Y020033D03*
X008416Y020545D03*
X007991Y020690D03*
X008178Y021428D03*
X008631Y021460D03*
X008993Y021125D03*
X009073Y020868D03*
X009421Y021200D03*
X009421Y021203D03*
X009423Y021205D03*
X009696Y020845D03*
X009696Y020843D03*
X009708Y020435D03*
X010816Y020918D03*
D200*
X010815Y020915D03*
X010932Y020680D03*
X009737Y020615D03*
X009665Y020515D03*
X009707Y020438D03*
X008417Y020543D03*
X008335Y020040D03*
X008335Y020038D03*
X008332Y020035D03*
X007907Y020183D03*
X007907Y020185D03*
X007732Y019475D03*
X007732Y019473D03*
X007732Y019470D03*
X007980Y018928D03*
X007940Y020963D03*
X008162Y021228D03*
X007947Y021600D03*
D201*
X007948Y021603D03*
X008176Y021425D03*
X008633Y021458D03*
X009071Y020870D03*
X009696Y020840D03*
X009696Y020838D03*
X009708Y020440D03*
X008418Y020540D03*
X008336Y020043D03*
X007906Y020188D03*
X007906Y020190D03*
X007988Y020688D03*
X007643Y021190D03*
X007733Y019468D03*
X007733Y019465D03*
X007733Y019363D03*
X007851Y019200D03*
X007976Y018933D03*
X007978Y018930D03*
X010931Y020683D03*
X010881Y020813D03*
D202*
X010815Y020913D03*
X010930Y020685D03*
X009695Y020833D03*
X009695Y020835D03*
X009067Y020873D03*
X008610Y021155D03*
X008635Y021455D03*
X008175Y021423D03*
X007565Y020715D03*
X007905Y020195D03*
X007905Y020193D03*
X008337Y020045D03*
X008420Y020538D03*
X007735Y019463D03*
X007735Y019460D03*
X007735Y019458D03*
X007972Y018938D03*
X007975Y018935D03*
D203*
X007971Y018940D03*
X007848Y019198D03*
X007736Y019365D03*
X007736Y019453D03*
X007736Y019455D03*
X007906Y020198D03*
X008338Y020048D03*
X008158Y021230D03*
X008173Y021420D03*
X008636Y021453D03*
X009693Y020830D03*
X009708Y020443D03*
X010928Y020688D03*
D204*
X010880Y020725D03*
X010815Y020908D03*
X010815Y020910D03*
X009695Y020828D03*
X008422Y020535D03*
X008342Y020053D03*
X008340Y020050D03*
X007905Y020200D03*
X007905Y020203D03*
X007985Y020685D03*
X007152Y020975D03*
X007950Y021605D03*
X007932Y021795D03*
X007737Y019450D03*
X007737Y019448D03*
X007737Y019445D03*
X007967Y018943D03*
D205*
X007966Y018945D03*
X007963Y018948D03*
X007738Y019368D03*
X007738Y019438D03*
X007738Y019440D03*
X007738Y019443D03*
X007903Y020205D03*
X007903Y020208D03*
X007903Y020210D03*
X008343Y020058D03*
X008343Y020055D03*
X009063Y020875D03*
X009693Y020825D03*
X009693Y020823D03*
X009731Y020618D03*
X009671Y020513D03*
X009708Y020448D03*
X009708Y020445D03*
X008638Y021450D03*
X008171Y021418D03*
X007951Y021608D03*
X007641Y021188D03*
X010926Y020690D03*
D206*
X010815Y020905D03*
X009692Y020820D03*
X009692Y020818D03*
X008987Y021123D03*
X008640Y021448D03*
X008170Y021415D03*
X008155Y021233D03*
X007952Y021610D03*
X007982Y020683D03*
X007565Y020718D03*
X008422Y020533D03*
X008345Y020060D03*
X007740Y019435D03*
X007740Y019433D03*
X007847Y019195D03*
X007960Y018953D03*
X007962Y018950D03*
D207*
X007958Y018955D03*
X007956Y018958D03*
X007741Y019425D03*
X007741Y019428D03*
X007741Y019430D03*
X007903Y020213D03*
X007903Y020215D03*
X007903Y020218D03*
X008346Y020063D03*
X008423Y020530D03*
X009061Y020878D03*
X009691Y020815D03*
X009708Y020450D03*
X008641Y021445D03*
X008168Y021413D03*
X010813Y020903D03*
X010871Y020815D03*
X010926Y020693D03*
D208*
X010925Y020695D03*
X009692Y020813D03*
X009677Y020510D03*
X009710Y020453D03*
X009057Y020880D03*
X008617Y021158D03*
X008425Y020528D03*
X008350Y020068D03*
X008347Y020065D03*
X007902Y020220D03*
X007902Y020223D03*
X007742Y019423D03*
X007742Y019420D03*
X007742Y019370D03*
X007845Y019193D03*
X007952Y018963D03*
X007955Y018960D03*
X007955Y021613D03*
D209*
X007956Y021615D03*
X008166Y021410D03*
X008151Y021235D03*
X007923Y020965D03*
X007978Y020680D03*
X007901Y020225D03*
X008351Y020070D03*
X008426Y020525D03*
X009691Y020808D03*
X009691Y020810D03*
X009726Y020620D03*
X010813Y020900D03*
X007743Y019418D03*
X007743Y019415D03*
X007743Y019413D03*
X007951Y018965D03*
D210*
X007950Y018968D03*
X007745Y019373D03*
X007745Y019408D03*
X007745Y019410D03*
X007902Y020228D03*
X007902Y020230D03*
X007975Y020678D03*
X007565Y020720D03*
X007637Y021185D03*
X007957Y021618D03*
X008165Y021408D03*
X008642Y021443D03*
X008427Y020523D03*
X008352Y020075D03*
X008352Y020073D03*
X009710Y020455D03*
X009710Y020458D03*
X009690Y020803D03*
X009690Y020805D03*
X010890Y020723D03*
X010922Y020698D03*
D211*
X010921Y020700D03*
X010813Y020898D03*
X009053Y020883D03*
X008643Y021440D03*
X008148Y021238D03*
X008428Y020520D03*
X008353Y020078D03*
X007901Y020233D03*
X007901Y020235D03*
X007746Y019405D03*
X007746Y019403D03*
X007746Y019400D03*
X007946Y018970D03*
D212*
X007945Y018973D03*
X007942Y018975D03*
X007842Y019190D03*
X007747Y019375D03*
X007747Y019395D03*
X007747Y019398D03*
X007900Y020238D03*
X007900Y020240D03*
X007972Y020675D03*
X008357Y020083D03*
X008355Y020080D03*
X008980Y021120D03*
X008645Y021438D03*
X008162Y021405D03*
X007960Y021620D03*
X009690Y020800D03*
X009690Y020798D03*
X009710Y020460D03*
X010812Y020895D03*
D213*
X010813Y020893D03*
X010863Y020818D03*
X010921Y020703D03*
X009711Y020463D03*
X009683Y020508D03*
X009688Y020793D03*
X009688Y020795D03*
X009051Y020885D03*
X008623Y021160D03*
X008161Y021403D03*
X007961Y021623D03*
X008428Y020518D03*
X008358Y020085D03*
X007901Y020243D03*
X007748Y019393D03*
X007748Y019390D03*
X007748Y019388D03*
X007938Y018980D03*
X007941Y018978D03*
D214*
X007937Y018983D03*
X007935Y018985D03*
X007840Y019188D03*
X007750Y019378D03*
X007750Y019380D03*
X007750Y019383D03*
X007750Y019385D03*
X007900Y020245D03*
X007900Y020248D03*
X008360Y020090D03*
X008360Y020088D03*
X008430Y020515D03*
X009047Y020888D03*
X009687Y020790D03*
X009720Y020623D03*
X008647Y021435D03*
X008160Y021400D03*
X008157Y021398D03*
X008145Y021240D03*
X007962Y021625D03*
X007567Y020723D03*
X007167Y020973D03*
X010900Y020720D03*
D215*
X010918Y020705D03*
X010813Y020890D03*
X009688Y020788D03*
X009711Y020465D03*
X008431Y020513D03*
X008361Y020093D03*
X007898Y020250D03*
X007898Y020253D03*
X007898Y020255D03*
X007968Y020673D03*
X008648Y021433D03*
X007931Y018990D03*
X007933Y018988D03*
D216*
X007930Y018993D03*
X007927Y018995D03*
X008362Y020095D03*
X008365Y020098D03*
X007635Y021183D03*
X007965Y021628D03*
X008155Y021395D03*
X008650Y021430D03*
X009687Y020785D03*
X009687Y020783D03*
X009690Y020505D03*
X009710Y020468D03*
X010812Y020888D03*
X010917Y020708D03*
D217*
X010916Y020710D03*
X009713Y020625D03*
X009686Y020778D03*
X009686Y020780D03*
X009711Y020470D03*
X009043Y020890D03*
X008973Y021118D03*
X008651Y021428D03*
X008153Y021393D03*
X008141Y021243D03*
X007966Y020670D03*
X007898Y020260D03*
X007898Y020258D03*
X008366Y020100D03*
X008433Y020510D03*
X007838Y019185D03*
X007926Y018998D03*
D218*
X007922Y019000D03*
X008367Y020103D03*
X008435Y020508D03*
X007897Y020268D03*
X007897Y020265D03*
X007897Y020263D03*
X007567Y020725D03*
X007910Y020968D03*
X007965Y021630D03*
X009685Y020775D03*
X010812Y020885D03*
D219*
X010853Y020820D03*
X010916Y020713D03*
X009711Y020473D03*
X009686Y020773D03*
X009041Y020893D03*
X008631Y021163D03*
X008653Y021425D03*
X008151Y021390D03*
X007966Y021633D03*
X008436Y020505D03*
X008368Y020108D03*
X008368Y020105D03*
X007896Y020270D03*
X007918Y019005D03*
X007921Y019003D03*
D220*
X007917Y019008D03*
X007915Y019010D03*
X007835Y019183D03*
X008370Y020110D03*
X008372Y020113D03*
X007897Y020273D03*
X007897Y020275D03*
X007962Y020668D03*
X008150Y021388D03*
X007952Y021793D03*
X008655Y021423D03*
X009037Y020895D03*
X009685Y020770D03*
X009685Y020768D03*
X009697Y020503D03*
X009712Y020475D03*
X010812Y020880D03*
X010812Y020883D03*
X010910Y020718D03*
D221*
X010913Y020715D03*
X009711Y020478D03*
X009683Y020763D03*
X009683Y020765D03*
X008656Y021420D03*
X008148Y021385D03*
X008138Y021245D03*
X007968Y021635D03*
X007631Y021180D03*
X007181Y020970D03*
X007896Y020280D03*
X007896Y020278D03*
X008373Y020115D03*
X008436Y020503D03*
X007913Y019013D03*
D222*
X007912Y019015D03*
X007910Y019018D03*
X008375Y020118D03*
X008437Y020500D03*
X007960Y020665D03*
X007570Y020728D03*
X007895Y020285D03*
X007895Y020283D03*
X007970Y021638D03*
X009707Y020628D03*
X009712Y020480D03*
X010812Y020878D03*
D223*
X009683Y020760D03*
X009683Y020758D03*
X009033Y020898D03*
X008966Y021115D03*
X008638Y021165D03*
X008658Y021418D03*
X008146Y021383D03*
X007956Y020663D03*
X007896Y020288D03*
X008376Y020120D03*
X008438Y020498D03*
X007833Y019180D03*
X007906Y019023D03*
X007908Y019020D03*
D224*
X007905Y019025D03*
X008377Y020123D03*
X008377Y020125D03*
X008380Y020128D03*
X008440Y020495D03*
X007895Y020293D03*
X007895Y020290D03*
X008135Y021248D03*
X008145Y021380D03*
X007972Y021640D03*
X008660Y021415D03*
X009682Y020755D03*
X009682Y020753D03*
X009702Y020500D03*
X009712Y020483D03*
X010812Y020875D03*
X010845Y020823D03*
D225*
X010811Y020873D03*
X009681Y020750D03*
X009711Y020485D03*
X009031Y020900D03*
X008441Y020493D03*
X008381Y020130D03*
X007893Y020295D03*
X007893Y020298D03*
X007893Y020300D03*
X007831Y019178D03*
X007901Y019028D03*
X008143Y021378D03*
X007973Y021643D03*
X008661Y021413D03*
D226*
X007975Y021645D03*
X007627Y021178D03*
X007570Y020730D03*
X007952Y020660D03*
X008442Y020490D03*
X008382Y020133D03*
X009712Y020488D03*
X009702Y020630D03*
X009682Y020748D03*
X007900Y019030D03*
X007897Y019033D03*
D227*
X007896Y019035D03*
X007893Y019038D03*
X008383Y020135D03*
X007893Y020303D03*
X007893Y020305D03*
X007896Y020970D03*
X008131Y021250D03*
X008141Y021375D03*
X009028Y020903D03*
X009681Y020745D03*
X009681Y020743D03*
X010811Y020870D03*
D228*
X009680Y020740D03*
X009680Y020738D03*
X009710Y020498D03*
X009712Y020490D03*
X008387Y020143D03*
X008385Y020140D03*
X008385Y020138D03*
X007892Y020308D03*
X007892Y020310D03*
X007892Y020313D03*
X007950Y020658D03*
X008140Y021373D03*
X007977Y021648D03*
X008662Y021410D03*
X007830Y019175D03*
X007890Y019043D03*
X007892Y019040D03*
D229*
X007888Y019045D03*
X008388Y020145D03*
X008443Y020488D03*
X009023Y020905D03*
X008646Y021168D03*
X008663Y021408D03*
X008138Y021370D03*
X008128Y021253D03*
X007978Y021650D03*
X007891Y020315D03*
X009713Y020493D03*
X009678Y020735D03*
X010811Y020865D03*
X010811Y020868D03*
D230*
X009680Y020733D03*
X009712Y020495D03*
X008960Y021113D03*
X008665Y021405D03*
X008135Y021368D03*
X007980Y021653D03*
X007947Y020655D03*
X007570Y020733D03*
X007892Y020318D03*
X008390Y020148D03*
X008445Y020485D03*
X007885Y019050D03*
X007887Y019048D03*
D231*
X007883Y019053D03*
X007881Y019055D03*
X007826Y019173D03*
X008391Y020150D03*
X008446Y020483D03*
X009021Y020908D03*
X009678Y020730D03*
X009678Y020728D03*
X009696Y020633D03*
X010811Y020863D03*
X010836Y020825D03*
X008133Y021365D03*
X007623Y021175D03*
X007891Y020325D03*
X007891Y020323D03*
X007891Y020320D03*
D232*
X007891Y020333D03*
X007943Y020653D03*
X008448Y020478D03*
X008396Y020160D03*
X008393Y020155D03*
X009018Y020910D03*
X008668Y021400D03*
X008131Y021363D03*
X007981Y021655D03*
X009676Y020720D03*
X010811Y020860D03*
X007823Y019170D03*
X007876Y019060D03*
X007878Y019058D03*
D233*
X007875Y019063D03*
X007872Y019065D03*
X008397Y020163D03*
X008450Y020475D03*
X007890Y020338D03*
X007890Y020335D03*
X007572Y020735D03*
X008130Y021360D03*
X007982Y021658D03*
X008670Y021398D03*
X009677Y020718D03*
X010810Y020858D03*
D234*
X009691Y020635D03*
X009676Y020713D03*
X009676Y020715D03*
X009013Y020913D03*
X008953Y021110D03*
X008653Y021170D03*
X008121Y021258D03*
X008128Y021358D03*
X007983Y021660D03*
X007971Y021790D03*
X007941Y020650D03*
X007888Y020345D03*
X007888Y020343D03*
X007888Y020340D03*
X008398Y020165D03*
X007868Y019070D03*
X007871Y019068D03*
D235*
X007867Y019073D03*
X007865Y019075D03*
X007822Y019168D03*
X008400Y020168D03*
X008450Y020473D03*
X008672Y021395D03*
X007622Y021173D03*
X009675Y020710D03*
X009675Y020708D03*
X010810Y020855D03*
X010827Y020828D03*
D236*
X010811Y020853D03*
X009011Y020915D03*
X008451Y020470D03*
X008403Y020175D03*
X008403Y020173D03*
X008401Y020170D03*
X007888Y020348D03*
X007888Y020350D03*
X007936Y020648D03*
X007881Y020973D03*
X008126Y021355D03*
X007986Y021663D03*
X008673Y021393D03*
X007861Y019080D03*
X007863Y019078D03*
D237*
X007860Y019083D03*
X007820Y019165D03*
X008405Y020178D03*
X008452Y020468D03*
X007887Y020358D03*
X007887Y020355D03*
X007887Y020353D03*
X007572Y020738D03*
X008117Y021260D03*
X008125Y021353D03*
X007987Y021665D03*
X008675Y021390D03*
X009675Y020705D03*
X009675Y020703D03*
X010810Y020850D03*
D238*
X009673Y020700D03*
X009673Y020698D03*
X009008Y020918D03*
X008406Y020180D03*
X007886Y020360D03*
X007933Y020645D03*
X008123Y021350D03*
X007988Y021668D03*
X007856Y019085D03*
D239*
X007855Y019088D03*
X008407Y020183D03*
X008455Y020465D03*
X007887Y020363D03*
X007212Y020965D03*
X008660Y021173D03*
X008677Y021388D03*
X009672Y020695D03*
X009685Y020638D03*
X010810Y020848D03*
D240*
X009673Y020693D03*
X009673Y020690D03*
X009003Y020920D03*
X008946Y021108D03*
X008678Y021385D03*
X008121Y021348D03*
X008113Y021263D03*
X007991Y021670D03*
X007931Y020643D03*
X007886Y020370D03*
X007886Y020368D03*
X007886Y020365D03*
X008408Y020185D03*
X008411Y020188D03*
X008411Y020190D03*
X008456Y020463D03*
X007851Y019093D03*
X007853Y019090D03*
D241*
X007850Y019095D03*
X007847Y019098D03*
X007817Y019163D03*
X008412Y020193D03*
X008457Y020460D03*
X007885Y020375D03*
X007885Y020373D03*
X007572Y020740D03*
X007617Y021170D03*
X008120Y021345D03*
X007992Y021673D03*
X008680Y021383D03*
X009672Y020688D03*
X009672Y020685D03*
X010810Y020845D03*
X010817Y020830D03*
D242*
X010808Y020843D03*
X009678Y020640D03*
X009671Y020680D03*
X009671Y020683D03*
X009001Y020923D03*
X008413Y020195D03*
X008111Y021265D03*
X008118Y021343D03*
X007843Y019103D03*
X007846Y019100D03*
D243*
X007842Y019105D03*
X007840Y019108D03*
X007815Y019160D03*
X008415Y020198D03*
X008457Y020458D03*
X007927Y020640D03*
X007885Y020383D03*
X007885Y020380D03*
X007885Y020378D03*
X007995Y021675D03*
D244*
X008116Y021340D03*
X007866Y020975D03*
X007883Y020390D03*
X007883Y020388D03*
X007883Y020385D03*
X008416Y020200D03*
X008418Y020203D03*
X008418Y020205D03*
X008458Y020455D03*
X008998Y020925D03*
X008681Y021380D03*
X009671Y020678D03*
X009671Y020675D03*
X010808Y020840D03*
X007838Y019110D03*
X007836Y019113D03*
D245*
X007833Y019115D03*
X007831Y019118D03*
X007813Y019158D03*
X008421Y020210D03*
X008461Y020450D03*
X008993Y020928D03*
X008683Y021375D03*
X007996Y021680D03*
X007883Y020395D03*
X007883Y020393D03*
X009668Y020665D03*
X009668Y020668D03*
X010808Y020835D03*
D246*
X010810Y020833D03*
X009672Y020643D03*
X008940Y021105D03*
X008685Y021373D03*
X008110Y021333D03*
X007922Y020635D03*
X007882Y020403D03*
X007882Y020400D03*
X007882Y020398D03*
X008422Y020213D03*
X008462Y020448D03*
X007827Y019123D03*
X007830Y019120D03*
D247*
X007826Y019125D03*
X007811Y019155D03*
X008423Y020215D03*
X008426Y020218D03*
X008463Y020445D03*
X008991Y020930D03*
X009668Y020663D03*
X009668Y020660D03*
X008103Y021270D03*
X008108Y021330D03*
X007998Y021683D03*
X007988Y021788D03*
X007226Y020963D03*
X007881Y020405D03*
D248*
X007882Y020408D03*
X007917Y020633D03*
X007575Y020745D03*
X008107Y021328D03*
X008000Y021685D03*
X008687Y021370D03*
X009667Y020658D03*
X009667Y020655D03*
X008427Y020223D03*
X008427Y020220D03*
X007820Y019133D03*
X007822Y019130D03*
X007825Y019128D03*
D249*
X007818Y019135D03*
X008428Y020225D03*
X007881Y020410D03*
X007881Y020413D03*
X007881Y020415D03*
X008988Y020933D03*
X008688Y021368D03*
X008001Y021688D03*
X009666Y020653D03*
D250*
X009667Y020650D03*
X008675Y021178D03*
X008690Y021365D03*
X008105Y021325D03*
X008100Y021273D03*
X007612Y021165D03*
X007915Y020630D03*
X007880Y020420D03*
X007880Y020418D03*
X008430Y020228D03*
X008465Y020443D03*
X007815Y019140D03*
X007817Y019138D03*
D251*
X007812Y019143D03*
X007810Y019145D03*
X008435Y020235D03*
X008467Y020438D03*
X008985Y020935D03*
X008692Y021363D03*
X008102Y021320D03*
X008005Y021693D03*
X007577Y020748D03*
X007880Y020428D03*
X007880Y020425D03*
X007880Y020423D03*
D252*
X007878Y020430D03*
X007878Y020433D03*
X007911Y020628D03*
X007851Y020978D03*
X008096Y021275D03*
X008006Y021695D03*
X008693Y021360D03*
X008981Y020938D03*
X008468Y020435D03*
X008436Y020240D03*
X008436Y020238D03*
X007806Y019150D03*
X007808Y019148D03*
D253*
X007808Y019153D03*
X008431Y020230D03*
X008433Y020233D03*
X008466Y020440D03*
X008933Y021103D03*
X008103Y021323D03*
X008003Y021690D03*
X009666Y020648D03*
X009666Y020645D03*
D254*
X009422Y020610D03*
X009377Y020730D03*
X009965Y020423D03*
X010062Y020578D03*
X010112Y020020D03*
X010052Y019948D03*
X010517Y020878D03*
X010322Y021073D03*
X009782Y021403D03*
X009735Y021455D03*
X010837Y021173D03*
X011065Y020433D03*
X011140Y020453D03*
X008465Y021730D03*
X008392Y021725D03*
X007880Y021220D03*
X007782Y021338D03*
X008242Y020940D03*
X008277Y020840D03*
X007555Y020413D03*
X007555Y020410D03*
X008052Y019483D03*
X007977Y019340D03*
X007540Y019193D03*
D255*
X007548Y019200D03*
X008063Y019505D03*
X008066Y019510D03*
X007561Y020370D03*
X007561Y020373D03*
X007561Y020375D03*
X007528Y020623D03*
X007733Y021260D03*
X008333Y021103D03*
X008283Y020828D03*
X008383Y021713D03*
X008471Y021720D03*
X007743Y021820D03*
X009308Y020690D03*
X009378Y020750D03*
X009378Y020753D03*
X009683Y020158D03*
X009958Y020403D03*
X009958Y020405D03*
X010078Y020593D03*
X010428Y020740D03*
X010518Y020890D03*
X010603Y020795D03*
X010323Y021058D03*
X009778Y021375D03*
X009778Y021378D03*
X011058Y020445D03*
X011153Y020470D03*
X010116Y020048D03*
D256*
X010032Y019963D03*
X010097Y020610D03*
X010412Y020725D03*
X010415Y020728D03*
X010520Y020903D03*
X010325Y021043D03*
X010757Y021193D03*
X011052Y020455D03*
X011165Y020485D03*
X009775Y021350D03*
X009775Y021353D03*
X009707Y021433D03*
X009380Y020773D03*
X008430Y021093D03*
X008237Y020958D03*
X007797Y021363D03*
X008372Y021698D03*
X008480Y021705D03*
X007570Y020330D03*
X007570Y020328D03*
X007977Y019565D03*
X007977Y019563D03*
X008077Y019533D03*
X007965Y019328D03*
X007557Y019208D03*
D257*
X007690Y019325D03*
X007877Y019230D03*
X007695Y019668D03*
X007695Y019670D03*
X007695Y019673D03*
X008275Y019920D03*
X007922Y020040D03*
X007922Y020043D03*
X008387Y020605D03*
X008567Y021140D03*
X008200Y021200D03*
X007912Y021545D03*
X009122Y020830D03*
X009412Y021105D03*
X009485Y021255D03*
X009715Y020963D03*
X009715Y020960D03*
X009702Y020375D03*
X009875Y020100D03*
X009875Y020098D03*
X009877Y020085D03*
X010177Y020500D03*
X010180Y020503D03*
X010540Y021088D03*
X010820Y020970D03*
D258*
X010985Y020583D03*
X011305Y020665D03*
X010242Y020563D03*
X010240Y020560D03*
X010160Y020380D03*
X009895Y020173D03*
X009697Y020320D03*
X009170Y020795D03*
X009730Y021063D03*
X009545Y021303D03*
X008530Y021128D03*
X008212Y021053D03*
X008077Y020758D03*
X008362Y020660D03*
X008262Y021545D03*
X007882Y021498D03*
X007937Y019915D03*
X007937Y019913D03*
X007662Y019845D03*
X007662Y019843D03*
X007662Y019840D03*
X008222Y019818D03*
X007900Y019255D03*
D259*
X007918Y019275D03*
X008183Y019740D03*
X008183Y019743D03*
X007948Y019820D03*
X007638Y019970D03*
X007638Y019973D03*
X007543Y020663D03*
X008121Y021103D03*
X008218Y021028D03*
X008258Y021158D03*
X008293Y021588D03*
X008543Y021603D03*
X007858Y021460D03*
X008343Y020700D03*
X009588Y021338D03*
X009743Y021143D03*
X010328Y020918D03*
X010233Y020738D03*
X010286Y020605D03*
X010148Y020300D03*
X010148Y020298D03*
X009911Y020230D03*
X009693Y020280D03*
X010826Y021053D03*
X011266Y020615D03*
D260*
X011503Y020773D03*
X010526Y020963D03*
X010526Y020965D03*
X010336Y020653D03*
X010181Y020688D03*
X009756Y021223D03*
X009391Y020885D03*
X009391Y020883D03*
X009391Y020880D03*
X009238Y020743D03*
X009928Y020290D03*
X010136Y020210D03*
X010136Y020208D03*
X008518Y021643D03*
X008323Y021630D03*
X007836Y021423D03*
X007708Y021240D03*
X008226Y021000D03*
X007611Y020113D03*
X007611Y020110D03*
X007958Y019725D03*
X007958Y019723D03*
X007958Y019720D03*
X008141Y019658D03*
X008143Y019663D03*
X007936Y019295D03*
D261*
X007672Y019310D03*
X007680Y019753D03*
X007680Y019755D03*
X007930Y019975D03*
X007930Y019978D03*
X007930Y019980D03*
X008247Y019868D03*
X008250Y019870D03*
X008375Y020633D03*
X008012Y020950D03*
X008217Y021188D03*
X007897Y021520D03*
X007672Y021213D03*
X007552Y020685D03*
X008582Y021540D03*
X009147Y020813D03*
X009407Y021060D03*
X009407Y021063D03*
X009517Y021280D03*
X009722Y021013D03*
X009722Y021010D03*
X010332Y020840D03*
X010972Y020605D03*
X009885Y020135D03*
X009897Y020070D03*
X009700Y020348D03*
D262*
X009701Y020363D03*
X009601Y020540D03*
X009791Y020593D03*
X010196Y020518D03*
X009888Y020078D03*
X009718Y020985D03*
X009718Y020988D03*
X009408Y021083D03*
X009501Y021268D03*
X008588Y021530D03*
X007903Y021533D03*
X007076Y020988D03*
X007926Y020013D03*
X007926Y020010D03*
X007926Y020008D03*
X008261Y019895D03*
X007686Y019718D03*
X007686Y019715D03*
X007686Y019713D03*
X007681Y019318D03*
X008381Y020620D03*
X010538Y021075D03*
X010966Y020618D03*
D263*
X011126Y020745D03*
X011128Y020438D03*
X010516Y020865D03*
X010516Y020868D03*
X010458Y020770D03*
X010791Y021203D03*
X010046Y020563D03*
X009968Y020440D03*
X009681Y020130D03*
X010108Y019993D03*
X009373Y020708D03*
X009331Y020673D03*
X008271Y020855D03*
X007853Y021233D03*
X007776Y021328D03*
X007723Y021823D03*
X008401Y021738D03*
X008403Y021740D03*
X007546Y020458D03*
X007546Y020455D03*
X008038Y019455D03*
D264*
X007718Y019540D03*
X007718Y019543D03*
X007718Y019545D03*
X008313Y019998D03*
X007911Y020135D03*
X008176Y021218D03*
X008193Y021448D03*
X007933Y021580D03*
X007913Y021798D03*
X008621Y021478D03*
X009418Y021170D03*
X009703Y020883D03*
X009646Y020523D03*
X009706Y020415D03*
X010898Y020808D03*
D265*
X010653Y020783D03*
X010523Y020940D03*
X010326Y020995D03*
X010326Y020998D03*
X010368Y020683D03*
X010148Y020658D03*
X009938Y020330D03*
X009938Y020328D03*
X010128Y020155D03*
X010001Y019988D03*
X009261Y020725D03*
X009386Y020838D03*
X009763Y021273D03*
X009763Y021275D03*
X009763Y021278D03*
X009663Y021398D03*
X010723Y021183D03*
X010831Y021113D03*
X011033Y020490D03*
X008503Y021668D03*
X008343Y021658D03*
X007821Y021400D03*
X007998Y021163D03*
X008231Y020983D03*
X008308Y020773D03*
X007533Y020640D03*
X007593Y020203D03*
X007593Y020200D03*
X007966Y019660D03*
X007966Y019658D03*
X008116Y019610D03*
X008116Y019608D03*
D266*
X008288Y019948D03*
X007918Y020073D03*
X007703Y019628D03*
X007703Y019625D03*
X008393Y020593D03*
X008026Y020718D03*
X007893Y021800D03*
X009113Y020838D03*
X009413Y021125D03*
X009413Y021128D03*
X009711Y020938D03*
X009711Y020935D03*
X009703Y020390D03*
X009703Y020388D03*
X010541Y021100D03*
X010818Y020958D03*
X010953Y020640D03*
D267*
X011291Y020648D03*
X011418Y020743D03*
X010331Y020888D03*
X010258Y020578D03*
X010156Y020353D03*
X009901Y020193D03*
X009928Y020045D03*
X009696Y020308D03*
X009556Y020558D03*
X009401Y020993D03*
X009401Y020995D03*
X009733Y021090D03*
X008241Y021170D03*
X008168Y021080D03*
X008086Y020765D03*
X007686Y021223D03*
X008273Y021560D03*
X007941Y019885D03*
X007941Y019883D03*
X007941Y019880D03*
X008208Y019793D03*
X008208Y019790D03*
X008211Y019795D03*
X007653Y019885D03*
X007653Y019888D03*
X007653Y019890D03*
D268*
X007890Y020328D03*
X007890Y020330D03*
X008392Y020153D03*
X008395Y020158D03*
X008447Y020480D03*
X008125Y021255D03*
X008667Y021403D03*
X009677Y020725D03*
X009677Y020723D03*
X007197Y020968D03*
D269*
X007575Y020743D03*
X007925Y020638D03*
X008460Y020453D03*
X008420Y020208D03*
X008667Y021175D03*
X008682Y021378D03*
X008115Y021338D03*
X008112Y021335D03*
X008107Y021268D03*
X007995Y021678D03*
X007615Y021168D03*
X009670Y020673D03*
X009670Y020670D03*
X010810Y020838D03*
D270*
X008695Y021358D03*
X008100Y021318D03*
X007877Y020435D03*
X008437Y020243D03*
X008470Y020433D03*
D271*
X008471Y020430D03*
X008438Y020245D03*
X007878Y020438D03*
X007878Y020440D03*
X007908Y020625D03*
X007608Y021163D03*
X008098Y021315D03*
X008008Y021698D03*
X008681Y021180D03*
X008978Y020940D03*
D272*
X008697Y021355D03*
X008095Y021278D03*
X008010Y021700D03*
X007577Y020750D03*
X007242Y020960D03*
X007877Y020448D03*
X007877Y020445D03*
X007877Y020443D03*
X008440Y020248D03*
X008442Y020250D03*
D273*
X008443Y020253D03*
X008471Y020428D03*
X007876Y020450D03*
X007876Y020453D03*
X007906Y020623D03*
X008096Y021313D03*
X008698Y021353D03*
X008926Y021100D03*
D274*
X008975Y020943D03*
X008472Y020425D03*
X008445Y020258D03*
X008445Y020255D03*
X008095Y021310D03*
X008010Y021703D03*
X008700Y021350D03*
D275*
X008971Y020945D03*
X008473Y020423D03*
X008448Y020263D03*
X008446Y020260D03*
X007876Y020455D03*
X007876Y020458D03*
X007876Y020460D03*
X007578Y020753D03*
X008091Y021280D03*
X008093Y021308D03*
D276*
X008012Y021705D03*
X007605Y021160D03*
X007902Y020620D03*
X007875Y020465D03*
X007875Y020463D03*
X008450Y020265D03*
D277*
X008451Y020268D03*
X008476Y020420D03*
X008968Y020948D03*
X008688Y021183D03*
X008701Y021348D03*
X008091Y021305D03*
X008088Y021303D03*
X008013Y021708D03*
X007898Y020618D03*
X007873Y020468D03*
D278*
X007875Y020470D03*
X007875Y020473D03*
X007837Y020980D03*
X008087Y021283D03*
X008087Y021300D03*
X008015Y021710D03*
X008702Y021345D03*
X008477Y020418D03*
X008452Y020270D03*
D279*
X008453Y020273D03*
X008453Y020275D03*
X008456Y020278D03*
X008478Y020415D03*
X007873Y020475D03*
X007873Y020478D03*
X007896Y020615D03*
X008703Y021343D03*
X008008Y021785D03*
D280*
X008017Y021713D03*
X008085Y021298D03*
X007580Y020755D03*
X007257Y020958D03*
X007872Y020480D03*
X008457Y020280D03*
X008965Y020950D03*
X008920Y021098D03*
D281*
X008961Y020953D03*
X008478Y020413D03*
X008458Y020283D03*
X007873Y020483D03*
X007873Y020485D03*
X007601Y021158D03*
X008083Y021285D03*
X008083Y021295D03*
X008018Y021715D03*
X008706Y021340D03*
D282*
X008707Y021338D03*
X008082Y021293D03*
X007892Y020613D03*
X007872Y020493D03*
X007872Y020490D03*
X007872Y020488D03*
X008480Y020410D03*
X008460Y020285D03*
D283*
X008461Y020288D03*
X008461Y020290D03*
X008463Y020293D03*
X008481Y020408D03*
X008958Y020955D03*
X008696Y021185D03*
X008708Y021335D03*
X008021Y021718D03*
X007871Y020495D03*
D284*
X007872Y020498D03*
X007890Y020610D03*
X007580Y020758D03*
X008080Y021288D03*
X008080Y021290D03*
X008022Y021720D03*
X008710Y021333D03*
X008482Y020405D03*
X008465Y020295D03*
D285*
X008466Y020298D03*
X008483Y020403D03*
X007871Y020500D03*
X007871Y020503D03*
X007871Y020505D03*
X008913Y021095D03*
X008023Y021723D03*
D286*
X007822Y020983D03*
X007870Y020510D03*
X007870Y020508D03*
X008485Y020400D03*
X008467Y020300D03*
X008955Y020958D03*
X008712Y021330D03*
D287*
X008713Y021328D03*
X008026Y021725D03*
X007598Y021155D03*
X007581Y020760D03*
X007886Y020608D03*
X007868Y020513D03*
X008486Y020398D03*
X008468Y020303D03*
D288*
X008470Y020305D03*
X008470Y020308D03*
X008472Y020310D03*
X007870Y020515D03*
X007870Y020518D03*
X008702Y021188D03*
X008715Y021325D03*
X008952Y020960D03*
D289*
X008948Y020963D03*
X008473Y020313D03*
X007868Y020520D03*
X007868Y020523D03*
X007883Y020605D03*
X007271Y020955D03*
X008026Y021728D03*
D290*
X008027Y021730D03*
X008717Y021323D03*
X008487Y020395D03*
X008475Y020315D03*
X007867Y020525D03*
X007867Y020528D03*
X007880Y020603D03*
D291*
X007868Y020530D03*
X008488Y020393D03*
X008478Y020323D03*
X008476Y020318D03*
X008906Y021093D03*
X008718Y021320D03*
D292*
X008945Y020965D03*
X008490Y020390D03*
X008480Y020325D03*
X008477Y020320D03*
X007867Y020533D03*
X007867Y020535D03*
X007582Y020763D03*
X007595Y021153D03*
X008030Y021733D03*
D293*
X008031Y021735D03*
X008026Y021783D03*
X008718Y021318D03*
X008708Y021190D03*
X008491Y020388D03*
X008481Y020328D03*
X007866Y020538D03*
X007866Y020540D03*
X007876Y020600D03*
D294*
X007867Y020543D03*
X008492Y020385D03*
X008482Y020330D03*
X008942Y020968D03*
X008032Y021738D03*
D295*
X008721Y021315D03*
X008938Y020970D03*
X008483Y020333D03*
X007866Y020545D03*
X007866Y020548D03*
X007873Y020598D03*
X007583Y020765D03*
D296*
X007807Y020985D03*
X007865Y020555D03*
X007865Y020553D03*
X007865Y020550D03*
X008492Y020383D03*
X008487Y020340D03*
X008487Y020338D03*
X008485Y020335D03*
X008722Y021313D03*
X008035Y021740D03*
D297*
X008036Y021743D03*
X007591Y021150D03*
X008493Y020380D03*
X008488Y020343D03*
X008901Y021090D03*
X008723Y021310D03*
D298*
X008935Y020973D03*
X008495Y020378D03*
X008490Y020345D03*
X007865Y020558D03*
X007865Y020560D03*
X007865Y020563D03*
X007870Y020595D03*
X007287Y020953D03*
X008037Y021745D03*
D299*
X008726Y021308D03*
X008716Y021193D03*
X008496Y020375D03*
X008491Y020348D03*
X007863Y020565D03*
X007863Y020568D03*
X007583Y020768D03*
D300*
X007867Y020593D03*
X007862Y020573D03*
X007862Y020570D03*
X008492Y020350D03*
X008932Y020975D03*
X008727Y021305D03*
X008040Y021748D03*
D301*
X008041Y021750D03*
X008728Y021303D03*
X008928Y020978D03*
X008498Y020373D03*
X008496Y020358D03*
X008496Y020355D03*
X008493Y020353D03*
X007863Y020575D03*
D302*
X007862Y020578D03*
X007862Y020580D03*
X007865Y020590D03*
X007590Y021148D03*
X008500Y020370D03*
X008497Y020360D03*
D303*
X008498Y020363D03*
X007861Y020583D03*
X007861Y020585D03*
X007861Y020588D03*
X008731Y021300D03*
X008893Y021088D03*
X008041Y021753D03*
D304*
X008732Y021298D03*
X008925Y020980D03*
X008500Y020368D03*
X008500Y020365D03*
X007585Y020770D03*
D305*
X007586Y020773D03*
X007301Y020950D03*
X007586Y021145D03*
X008736Y021293D03*
X008918Y020985D03*
D306*
X008912Y020990D03*
X008052Y021768D03*
X007582Y021143D03*
X007587Y020775D03*
D307*
X007588Y020778D03*
X007316Y020948D03*
X008743Y021278D03*
X008878Y021083D03*
D308*
X008748Y021270D03*
X007588Y020780D03*
D309*
X007590Y020783D03*
X007332Y020945D03*
X008892Y021005D03*
D310*
X008866Y021078D03*
X008753Y021205D03*
X008756Y021258D03*
X007591Y020785D03*
D311*
X007592Y020788D03*
X007750Y020995D03*
X008760Y021208D03*
X008762Y021248D03*
X008880Y021015D03*
D312*
X008766Y021243D03*
X007593Y020790D03*
D313*
X007593Y020793D03*
X008771Y021235D03*
X008853Y021073D03*
D314*
X008860Y021030D03*
X008775Y021213D03*
X007595Y020795D03*
D315*
X007596Y020798D03*
X008856Y021033D03*
D316*
X008838Y021068D03*
X007596Y020800D03*
X007376Y020938D03*
D317*
X007597Y020803D03*
X008840Y021045D03*
D318*
X007598Y020805D03*
X007391Y020935D03*
X007553Y021120D03*
D319*
X007601Y020808D03*
X008826Y021063D03*
D320*
X008823Y021058D03*
X007601Y020810D03*
D321*
X007601Y020813D03*
D322*
X007603Y020815D03*
X007543Y021113D03*
D323*
X007541Y021110D03*
X007603Y020818D03*
D324*
X007603Y020820D03*
D325*
X007606Y020823D03*
X007661Y021010D03*
D326*
X007606Y020825D03*
D327*
X007608Y020828D03*
X007451Y020925D03*
X007531Y021103D03*
D328*
X007608Y020830D03*
D329*
X007608Y020833D03*
X007466Y020923D03*
D330*
X007611Y020835D03*
D331*
X007611Y020838D03*
D332*
X007612Y020840D03*
X007617Y021018D03*
D333*
X007613Y020843D03*
D334*
X007613Y020845D03*
X007603Y021020D03*
D335*
X007616Y020848D03*
D336*
X007616Y020850D03*
X007508Y021085D03*
D337*
X007617Y020853D03*
D338*
X007618Y020855D03*
X007526Y020913D03*
D339*
X007620Y020858D03*
X007502Y021080D03*
D340*
X007620Y020860D03*
D341*
X007621Y020863D03*
X007558Y021028D03*
D342*
X007622Y020865D03*
D343*
X007623Y020868D03*
D344*
X007625Y020870D03*
X007490Y021070D03*
D345*
X007625Y020873D03*
D346*
X007626Y020875D03*
D347*
X007627Y020878D03*
D348*
X007627Y020880D03*
X007515Y021035D03*
X007480Y021063D03*
D349*
X007630Y020883D03*
D350*
X007630Y020885D03*
D351*
X007631Y020888D03*
X007616Y020898D03*
D352*
X007632Y020890D03*
D353*
X007632Y020893D03*
X007467Y021053D03*
D354*
X007632Y020895D03*
D355*
X007601Y020900D03*
X007476Y021060D03*
D356*
X007483Y021065D03*
X007586Y020903D03*
D357*
X007571Y020905D03*
D358*
X007556Y020908D03*
D359*
X007541Y020910D03*
X007498Y021078D03*
D360*
X007511Y020915D03*
D361*
X007496Y020918D03*
X007516Y021090D03*
D362*
X007482Y020920D03*
D363*
X007437Y020928D03*
D364*
X007421Y020930D03*
D365*
X007407Y020933D03*
X008820Y021060D03*
D366*
X008773Y021230D03*
X007361Y020940D03*
D367*
X007346Y020943D03*
X007568Y021133D03*
X008858Y021075D03*
D368*
X008922Y020983D03*
X008045Y021758D03*
D369*
X008043Y021755D03*
X007793Y020988D03*
X008723Y021195D03*
X008733Y021295D03*
D370*
X008886Y021085D03*
X008916Y020988D03*
X008048Y021763D03*
D371*
X008055Y021773D03*
X007777Y020990D03*
X008742Y021280D03*
X008910Y020993D03*
D372*
X008753Y021263D03*
X007763Y020993D03*
X007576Y021138D03*
D373*
X008740Y021200D03*
X008905Y020995D03*
D374*
X008862Y021028D03*
X007735Y020998D03*
D375*
X007580Y021140D03*
X008057Y021778D03*
X008747Y021273D03*
X008902Y020998D03*
D376*
X008850Y021038D03*
X007720Y021000D03*
D377*
X008900Y021000D03*
D378*
X008832Y021050D03*
X007705Y021003D03*
D379*
X008752Y021265D03*
X008895Y021003D03*
D380*
X007691Y021005D03*
D381*
X007675Y021008D03*
D382*
X008890Y021008D03*
D383*
X008885Y021010D03*
X008757Y021255D03*
X007572Y021135D03*
D384*
X007647Y021013D03*
D385*
X008760Y021253D03*
X008882Y021013D03*
D386*
X007631Y021015D03*
D387*
X008765Y021245D03*
X008875Y021018D03*
D388*
X008872Y021020D03*
X008767Y021240D03*
D389*
X007588Y021023D03*
D390*
X007567Y021130D03*
X008767Y021210D03*
X008770Y021238D03*
X008870Y021023D03*
D391*
X007573Y021025D03*
D392*
X008772Y021233D03*
X008867Y021025D03*
D393*
X007545Y021030D03*
D394*
X007530Y021033D03*
D395*
X007560Y021125D03*
X008780Y021220D03*
X008852Y021035D03*
D396*
X007501Y021038D03*
D397*
X007485Y021040D03*
D398*
X008847Y021040D03*
D399*
X007471Y021043D03*
D400*
X007557Y021123D03*
X008842Y021043D03*
D401*
X007458Y021045D03*
D402*
X007461Y021048D03*
D403*
X008837Y021048D03*
D404*
X007463Y021050D03*
D405*
X008830Y021053D03*
D406*
X007471Y021055D03*
D407*
X008826Y021055D03*
D408*
X007472Y021058D03*
D409*
X008833Y021065D03*
D410*
X007486Y021068D03*
D411*
X008776Y021225D03*
X008846Y021070D03*
D412*
X007493Y021073D03*
D413*
X007495Y021075D03*
D414*
X008746Y021203D03*
X008751Y021268D03*
X008873Y021080D03*
D415*
X007505Y021083D03*
D416*
X007512Y021088D03*
D417*
X007518Y021093D03*
D418*
X007522Y021095D03*
D419*
X007525Y021098D03*
D420*
X007527Y021100D03*
D421*
X007535Y021105D03*
D422*
X007537Y021108D03*
D423*
X007547Y021115D03*
D424*
X007550Y021118D03*
D425*
X007563Y021128D03*
X008776Y021228D03*
D426*
X008732Y021198D03*
X008737Y021288D03*
X008050Y021765D03*
D427*
X008781Y021218D03*
X008781Y021215D03*
D428*
X008777Y021223D03*
D429*
X008761Y021250D03*
D430*
X008756Y021260D03*
D431*
X008746Y021275D03*
X008056Y021775D03*
D432*
X008053Y021770D03*
X008741Y021283D03*
D433*
X008738Y021285D03*
D434*
X008737Y021290D03*
X008047Y021760D03*
X008045Y021780D03*
D435*
X023574Y007236D03*
X023574Y006764D03*
D436*
X023574Y007000D03*
M02*
