G75*
%MOIN*%
%OFA0B0*%
%FSLAX24Y24*%
%IPPOS*%
%LPD*%
%AMOC8*
5,1,8,0,0,1.08239X$1,22.5*
%
%ADD10C,0.0000*%
D10*
X006333Y005500D02*
X024217Y005500D01*
X024283Y005502D01*
X024349Y005508D01*
X024414Y005517D01*
X024479Y005531D01*
X024543Y005548D01*
X024606Y005569D01*
X024667Y005593D01*
X024727Y005621D01*
X024785Y005652D01*
X024841Y005687D01*
X024895Y005725D01*
X024947Y005766D01*
X024997Y005810D01*
X025043Y005856D01*
X025087Y005906D01*
X025128Y005958D01*
X025166Y006012D01*
X025201Y006068D01*
X025232Y006126D01*
X025260Y006186D01*
X025284Y006247D01*
X025305Y006310D01*
X025322Y006374D01*
X025336Y006439D01*
X025345Y006504D01*
X025351Y006570D01*
X025353Y006636D01*
X025353Y028277D01*
X025354Y028277D02*
X025352Y028328D01*
X025347Y028379D01*
X025338Y028430D01*
X025325Y028480D01*
X025309Y028528D01*
X025289Y028576D01*
X025266Y028622D01*
X025240Y028666D01*
X025211Y028708D01*
X025178Y028748D01*
X025143Y028785D01*
X025106Y028820D01*
X025066Y028853D01*
X025024Y028882D01*
X024980Y028908D01*
X024934Y028931D01*
X024886Y028951D01*
X024838Y028967D01*
X024788Y028980D01*
X024737Y028989D01*
X024686Y028994D01*
X024635Y028996D01*
X006038Y028996D01*
X005988Y028994D01*
X005938Y028989D01*
X005888Y028980D01*
X005840Y028967D01*
X005792Y028952D01*
X005746Y028932D01*
X005701Y028910D01*
X005657Y028884D01*
X005616Y028856D01*
X005577Y028824D01*
X005540Y028790D01*
X005506Y028753D01*
X005474Y028714D01*
X005446Y028673D01*
X005420Y028629D01*
X005398Y028584D01*
X005378Y028538D01*
X005363Y028490D01*
X005350Y028442D01*
X005341Y028392D01*
X005336Y028342D01*
X005334Y028292D01*
X005333Y028292D02*
X005333Y006500D01*
X005335Y006440D01*
X005340Y006379D01*
X005349Y006320D01*
X005362Y006261D01*
X005378Y006202D01*
X005398Y006145D01*
X005421Y006090D01*
X005448Y006035D01*
X005477Y005983D01*
X005510Y005932D01*
X005546Y005883D01*
X005584Y005837D01*
X005626Y005793D01*
X005670Y005751D01*
X005716Y005713D01*
X005765Y005677D01*
X005816Y005644D01*
X005868Y005615D01*
X005923Y005588D01*
X005978Y005565D01*
X006035Y005545D01*
X006094Y005529D01*
X006153Y005516D01*
X006212Y005507D01*
X006273Y005502D01*
X006333Y005500D01*
X006333Y007000D02*
X006335Y007044D01*
X006341Y007088D01*
X006351Y007131D01*
X006364Y007173D01*
X006381Y007214D01*
X006402Y007253D01*
X006426Y007290D01*
X006453Y007325D01*
X006483Y007357D01*
X006516Y007387D01*
X006552Y007413D01*
X006589Y007437D01*
X006629Y007456D01*
X006670Y007473D01*
X006713Y007485D01*
X006756Y007494D01*
X006800Y007499D01*
X006844Y007500D01*
X006888Y007497D01*
X006932Y007490D01*
X006975Y007479D01*
X007017Y007465D01*
X007057Y007447D01*
X007096Y007425D01*
X007132Y007401D01*
X007166Y007373D01*
X007198Y007342D01*
X007227Y007308D01*
X007253Y007272D01*
X007275Y007234D01*
X007294Y007194D01*
X007309Y007152D01*
X007321Y007110D01*
X007329Y007066D01*
X007333Y007022D01*
X007333Y006978D01*
X007329Y006934D01*
X007321Y006890D01*
X007309Y006848D01*
X007294Y006806D01*
X007275Y006766D01*
X007253Y006728D01*
X007227Y006692D01*
X007198Y006658D01*
X007166Y006627D01*
X007132Y006599D01*
X007096Y006575D01*
X007057Y006553D01*
X007017Y006535D01*
X006975Y006521D01*
X006932Y006510D01*
X006888Y006503D01*
X006844Y006500D01*
X006800Y006501D01*
X006756Y006506D01*
X006713Y006515D01*
X006670Y006527D01*
X006629Y006544D01*
X006589Y006563D01*
X006552Y006587D01*
X006516Y006613D01*
X006483Y006643D01*
X006453Y006675D01*
X006426Y006710D01*
X006402Y006747D01*
X006381Y006786D01*
X006364Y006827D01*
X006351Y006869D01*
X006341Y006912D01*
X006335Y006956D01*
X006333Y007000D01*
X023333Y007000D02*
X023335Y007044D01*
X023341Y007088D01*
X023351Y007131D01*
X023364Y007173D01*
X023381Y007214D01*
X023402Y007253D01*
X023426Y007290D01*
X023453Y007325D01*
X023483Y007357D01*
X023516Y007387D01*
X023552Y007413D01*
X023589Y007437D01*
X023629Y007456D01*
X023670Y007473D01*
X023713Y007485D01*
X023756Y007494D01*
X023800Y007499D01*
X023844Y007500D01*
X023888Y007497D01*
X023932Y007490D01*
X023975Y007479D01*
X024017Y007465D01*
X024057Y007447D01*
X024096Y007425D01*
X024132Y007401D01*
X024166Y007373D01*
X024198Y007342D01*
X024227Y007308D01*
X024253Y007272D01*
X024275Y007234D01*
X024294Y007194D01*
X024309Y007152D01*
X024321Y007110D01*
X024329Y007066D01*
X024333Y007022D01*
X024333Y006978D01*
X024329Y006934D01*
X024321Y006890D01*
X024309Y006848D01*
X024294Y006806D01*
X024275Y006766D01*
X024253Y006728D01*
X024227Y006692D01*
X024198Y006658D01*
X024166Y006627D01*
X024132Y006599D01*
X024096Y006575D01*
X024057Y006553D01*
X024017Y006535D01*
X023975Y006521D01*
X023932Y006510D01*
X023888Y006503D01*
X023844Y006500D01*
X023800Y006501D01*
X023756Y006506D01*
X023713Y006515D01*
X023670Y006527D01*
X023629Y006544D01*
X023589Y006563D01*
X023552Y006587D01*
X023516Y006613D01*
X023483Y006643D01*
X023453Y006675D01*
X023426Y006710D01*
X023402Y006747D01*
X023381Y006786D01*
X023364Y006827D01*
X023351Y006869D01*
X023341Y006912D01*
X023335Y006956D01*
X023333Y007000D01*
X006333Y023736D02*
X006335Y023780D01*
X006341Y023824D01*
X006351Y023867D01*
X006364Y023909D01*
X006381Y023950D01*
X006402Y023989D01*
X006426Y024026D01*
X006453Y024061D01*
X006483Y024093D01*
X006516Y024123D01*
X006552Y024149D01*
X006589Y024173D01*
X006629Y024192D01*
X006670Y024209D01*
X006713Y024221D01*
X006756Y024230D01*
X006800Y024235D01*
X006844Y024236D01*
X006888Y024233D01*
X006932Y024226D01*
X006975Y024215D01*
X007017Y024201D01*
X007057Y024183D01*
X007096Y024161D01*
X007132Y024137D01*
X007166Y024109D01*
X007198Y024078D01*
X007227Y024044D01*
X007253Y024008D01*
X007275Y023970D01*
X007294Y023930D01*
X007309Y023888D01*
X007321Y023846D01*
X007329Y023802D01*
X007333Y023758D01*
X007333Y023714D01*
X007329Y023670D01*
X007321Y023626D01*
X007309Y023584D01*
X007294Y023542D01*
X007275Y023502D01*
X007253Y023464D01*
X007227Y023428D01*
X007198Y023394D01*
X007166Y023363D01*
X007132Y023335D01*
X007096Y023311D01*
X007057Y023289D01*
X007017Y023271D01*
X006975Y023257D01*
X006932Y023246D01*
X006888Y023239D01*
X006844Y023236D01*
X006800Y023237D01*
X006756Y023242D01*
X006713Y023251D01*
X006670Y023263D01*
X006629Y023280D01*
X006589Y023299D01*
X006552Y023323D01*
X006516Y023349D01*
X006483Y023379D01*
X006453Y023411D01*
X006426Y023446D01*
X006402Y023483D01*
X006381Y023522D01*
X006364Y023563D01*
X006351Y023605D01*
X006341Y023648D01*
X006335Y023692D01*
X006333Y023736D01*
X019412Y028067D02*
X019414Y028111D01*
X019420Y028155D01*
X019430Y028198D01*
X019443Y028240D01*
X019460Y028281D01*
X019481Y028320D01*
X019505Y028357D01*
X019532Y028392D01*
X019562Y028424D01*
X019595Y028454D01*
X019631Y028480D01*
X019668Y028504D01*
X019708Y028523D01*
X019749Y028540D01*
X019792Y028552D01*
X019835Y028561D01*
X019879Y028566D01*
X019923Y028567D01*
X019967Y028564D01*
X020011Y028557D01*
X020054Y028546D01*
X020096Y028532D01*
X020136Y028514D01*
X020175Y028492D01*
X020211Y028468D01*
X020245Y028440D01*
X020277Y028409D01*
X020306Y028375D01*
X020332Y028339D01*
X020354Y028301D01*
X020373Y028261D01*
X020388Y028219D01*
X020400Y028177D01*
X020408Y028133D01*
X020412Y028089D01*
X020412Y028045D01*
X020408Y028001D01*
X020400Y027957D01*
X020388Y027915D01*
X020373Y027873D01*
X020354Y027833D01*
X020332Y027795D01*
X020306Y027759D01*
X020277Y027725D01*
X020245Y027694D01*
X020211Y027666D01*
X020175Y027642D01*
X020136Y027620D01*
X020096Y027602D01*
X020054Y027588D01*
X020011Y027577D01*
X019967Y027570D01*
X019923Y027567D01*
X019879Y027568D01*
X019835Y027573D01*
X019792Y027582D01*
X019749Y027594D01*
X019708Y027611D01*
X019668Y027630D01*
X019631Y027654D01*
X019595Y027680D01*
X019562Y027710D01*
X019532Y027742D01*
X019505Y027777D01*
X019481Y027814D01*
X019460Y027853D01*
X019443Y027894D01*
X019430Y027936D01*
X019420Y027979D01*
X019414Y028023D01*
X019412Y028067D01*
M02*
