G75*
%MOIN*%
%OFA0B0*%
%FSLAX24Y24*%
%IPPOS*%
%LPD*%
%AMOC8*
5,1,8,0,0,1.08239X$1,22.5*
%
%ADD10C,0.1040*%
%ADD11OC8,0.0800*%
%ADD12OC8,0.0780*%
%ADD13C,0.0555*%
%ADD14C,0.1162*%
%ADD15R,0.0217X0.0552*%
%ADD16R,0.0555X0.0555*%
%ADD17C,0.0610*%
%ADD18C,0.2340*%
D10*
X006833Y007000D03*
X023833Y007000D03*
X006833Y023736D03*
X019912Y028067D03*
D11*
X011093Y021500D03*
X007156Y021500D03*
D12*
X023233Y017600D03*
X023233Y016600D03*
X023233Y015600D03*
X024233Y015600D03*
X024233Y016600D03*
X024233Y017600D03*
D13*
X018014Y025500D03*
X017227Y025500D03*
X016440Y025500D03*
X013514Y025500D03*
X012727Y025500D03*
X011940Y025500D03*
X009014Y025500D03*
X008227Y025500D03*
X007440Y025500D03*
X012688Y008508D03*
X013003Y008035D03*
X013318Y008508D03*
X013633Y008035D03*
X013948Y008508D03*
D14*
X014755Y006500D03*
X011881Y006500D03*
D15*
X020449Y010693D03*
X020705Y010693D03*
X020961Y010693D03*
X021217Y010693D03*
X021217Y012307D03*
X020961Y012307D03*
X020705Y012307D03*
X020449Y012307D03*
D16*
X015652Y025500D03*
X011152Y025500D03*
X006652Y025500D03*
D17*
X008940Y008000D03*
X009727Y008000D03*
D18*
X023333Y021000D03*
X023333Y027000D03*
M02*
