G75*
%MOIN*%
%OFA0B0*%
%FSLAX24Y24*%
%IPPOS*%
%LPD*%
%AMOC8*
5,1,8,0,0,1.08239X$1,22.5*
%
%ADD10C,0.0040*%
%ADD11C,0.0080*%
%ADD12C,0.0157*%
%ADD13C,0.0070*%
D10*
X014042Y008874D02*
X014349Y008874D01*
X014195Y008874D02*
X014195Y009335D01*
X014349Y009181D01*
X014502Y009105D02*
X014502Y009258D01*
X014579Y009335D01*
X014809Y009335D01*
X014809Y008874D01*
X014809Y009028D02*
X014579Y009028D01*
X014502Y009105D01*
X014962Y009335D02*
X015116Y009335D01*
X015039Y009335D02*
X015039Y008951D01*
X015116Y008874D01*
X015193Y008874D01*
X015269Y008951D01*
D11*
X020262Y010949D02*
X020262Y012051D01*
X021404Y012051D02*
X021404Y010949D01*
D12*
X021227Y011106D03*
D13*
X021618Y011020D02*
X021949Y011020D01*
X021949Y010910D02*
X021949Y011130D01*
X021949Y011278D02*
X021618Y011278D01*
X021618Y011499D01*
X021618Y011647D02*
X021949Y011647D01*
X021839Y011757D01*
X021949Y011867D01*
X021618Y011867D01*
X021618Y012015D02*
X021949Y012015D01*
X021949Y012180D01*
X021894Y012235D01*
X021783Y012235D01*
X021728Y012180D01*
X021728Y012015D01*
X021949Y011499D02*
X021949Y011278D01*
X021783Y011278D02*
X021783Y011388D01*
M02*
