%
M48
M72
T01C0.0157
T02C0.0197
T03C0.0200
T04C0.0236
T05C0.0315
T06C0.0400
T07C0.0748
T08C0.1000
T09C0.1772
%
T01
X15001Y23380
X26203Y19933
X26003Y24701
X25215Y24701
X24428Y24701
X25018Y25291
X25806Y25685
X23050Y23717
X23790Y23763
X24378Y23663
X25315Y23763
X26153Y23763
X27153Y23663
X26503Y22413
X26503Y20913
X27303Y20313
X27003Y21913
X27303Y21163
X26056Y23029
X26794Y23023
X27418Y22673
X22656Y22929
X21672Y22732
X21672Y21945
X22262Y22142
X21522Y23882
X21672Y21157
X21672Y20370
X21672Y19633
X22656Y19780
X23247Y20370
X22853Y21354
X23247Y22339
X24231Y22732
X25215Y22339
X25609Y21354
X25215Y20370
X24231Y19976
X21672Y29031
X22306Y28985
X21672Y28244
X22262Y28047
X22262Y28047
X21672Y27457
X22262Y26472
X21672Y26669
X21672Y25882
X21540Y24751
X22656Y25685
X23247Y26276
X23444Y25291
X23050Y24898
X23640Y24701
X24231Y25882
X22853Y27260
X23247Y28244
X24231Y28638
X25215Y28244
X25609Y27260
X25215Y26276
X26003Y29031
X27003Y28531
X26503Y27531
X26503Y26531
X26553Y25481
X27203Y24931
X27253Y26031
X27303Y27131
T02
X9218Y16868
X6533Y15000
X11063Y14257
X20383Y14950
X10833Y8500
T03
X24833Y6800
X24733Y10900
X23183Y10900
X15833Y15450
X19333Y26500
X19833Y16400
X19833Y11800
X16933Y17100
X19633Y11000
X22333Y17000
X16333Y18500
X13783Y18500
X13783Y17850
X22033Y14150
X23833Y10000
X19333Y10000
X13782Y15551
X20833Y12150
X13333Y11200
X17583Y7900
X14333Y10850
X15583Y7850
X12833Y15700
X12155Y15621
X14333Y20163
X19283Y13700
X18583Y15671
X16333Y21500
X17783Y9800
X13983Y19406
T04
X21383Y17150
X19333Y12500
X20333Y13400
X14683Y15450
X27333Y16000
X16514Y17969
X9743Y18520
X19073Y23165
X7633Y8000
X8533Y10850
X14310Y20882
X17774Y20331
X17774Y19701
X18333Y27000
X14751Y21930
X17538Y17181
X17066Y18835
X13033Y25450
X17333Y15500
X17333Y13500
X16833Y12000
X16833Y10500
X11833Y17000
X19133Y11850
X18383Y15000
X11833Y19000
X13833Y19000
X15183Y19000
X15333Y17000
X20333Y10500
X11183Y8000
X11869Y22772
T05
X6652Y26000
X7440Y26000
X8227Y26000
X9014Y26000
X11152Y26000
X11940Y26000
X12727Y26000
X13514Y26000
X15652Y26000
X16440Y26000
X17227Y26000
X18014Y26000
X12403Y9058
X13033Y9058
X13663Y9058
X12718Y8585
X13348Y8585
T06
X11093Y22000
X7156Y22000
X24233Y16100
X23233Y16100
X24233Y17100
X23233Y17100
X24233Y18100
X23233Y18100
X10367Y10771
X9367Y10771
T07
X14470Y7050
X11596Y7050
T08
X6833Y24736
X26683Y7150
X20312Y28417
X6833Y7500
T09
X24231Y27260
X24231Y21354
M30
