G75*
%MOIN*%
%OFA0B0*%
%FSLAX24Y24*%
%IPPOS*%
%LPD*%
%AMOC8*
5,1,8,0,0,1.08239X$1,22.5*
%
%ADD10C,0.1040*%
%ADD11C,0.0100*%
%ADD12OC8,0.0800*%
%ADD13OC8,0.0780*%
%ADD14C,0.0555*%
%ADD15C,0.1162*%
%ADD16R,0.0217X0.0552*%
%ADD17R,0.0555X0.0555*%
%ADD18C,0.3583*%
%ADD19C,0.0780*%
%ADD20C,0.0640*%
D10*
X006833Y007500D03*
X006833Y024236D03*
X026683Y007150D03*
X027312Y028417D03*
D11*
X026233Y028451D02*
X021283Y028451D01*
X021283Y028549D02*
X026233Y028549D01*
X026233Y028648D02*
X021283Y028648D01*
X021283Y028746D02*
X026233Y028746D01*
X026233Y028845D02*
X021283Y028845D01*
X021283Y028943D02*
X026233Y028943D01*
X026233Y029042D02*
X021283Y029042D01*
X021283Y029140D02*
X026233Y029140D01*
X026233Y029200D02*
X026233Y024450D01*
X021283Y024450D01*
X021283Y029200D01*
X026233Y029200D01*
X026233Y028352D02*
X021283Y028352D01*
X021283Y028254D02*
X026233Y028254D01*
X026233Y028155D02*
X021283Y028155D01*
X021283Y028057D02*
X026233Y028057D01*
X026233Y027958D02*
X021283Y027958D01*
X021283Y027860D02*
X026233Y027860D01*
X026233Y027761D02*
X021283Y027761D01*
X021283Y027663D02*
X026233Y027663D01*
X026233Y027564D02*
X021283Y027564D01*
X021283Y027466D02*
X026233Y027466D01*
X026233Y027367D02*
X021283Y027367D01*
X021283Y027269D02*
X026233Y027269D01*
X026233Y027170D02*
X021283Y027170D01*
X021283Y027072D02*
X026233Y027072D01*
X026233Y026973D02*
X021283Y026973D01*
X021283Y026875D02*
X026233Y026875D01*
X026233Y026776D02*
X021283Y026776D01*
X021283Y026678D02*
X026233Y026678D01*
X026233Y026579D02*
X021283Y026579D01*
X021283Y026481D02*
X026233Y026481D01*
X026233Y026382D02*
X021283Y026382D01*
X021283Y026284D02*
X026233Y026284D01*
X026233Y026185D02*
X021283Y026185D01*
X021283Y026087D02*
X026233Y026087D01*
X026233Y025988D02*
X021283Y025988D01*
X021283Y025890D02*
X026233Y025890D01*
X026233Y025791D02*
X021283Y025791D01*
X021283Y025693D02*
X026233Y025693D01*
X026233Y025594D02*
X021283Y025594D01*
X021283Y025496D02*
X026233Y025496D01*
X026233Y025397D02*
X021283Y025397D01*
X021283Y025299D02*
X026233Y025299D01*
X026233Y025200D02*
X021283Y025200D01*
X021283Y025102D02*
X026233Y025102D01*
X026233Y025003D02*
X021283Y025003D01*
X021283Y024905D02*
X026233Y024905D01*
X026233Y024806D02*
X021283Y024806D01*
X021283Y024708D02*
X026233Y024708D01*
X026233Y024609D02*
X021283Y024609D01*
X021283Y024511D02*
X026233Y024511D01*
X026233Y024150D02*
X026233Y019500D01*
X021333Y019500D01*
X021333Y024150D01*
X026233Y024150D01*
X026233Y024117D02*
X021333Y024117D01*
X021333Y024018D02*
X026233Y024018D01*
X026233Y023920D02*
X021333Y023920D01*
X021333Y023821D02*
X026233Y023821D01*
X026233Y023723D02*
X021333Y023723D01*
X021333Y023624D02*
X026233Y023624D01*
X026233Y023526D02*
X021333Y023526D01*
X021333Y023427D02*
X026233Y023427D01*
X026233Y023329D02*
X021333Y023329D01*
X021333Y023230D02*
X026233Y023230D01*
X026233Y023132D02*
X021333Y023132D01*
X021333Y023033D02*
X026233Y023033D01*
X026233Y022935D02*
X021333Y022935D01*
X021333Y022836D02*
X026233Y022836D01*
X026233Y022738D02*
X021333Y022738D01*
X021333Y022639D02*
X026233Y022639D01*
X026233Y022541D02*
X021333Y022541D01*
X021333Y022442D02*
X026233Y022442D01*
X026233Y022344D02*
X021333Y022344D01*
X021333Y022245D02*
X026233Y022245D01*
X026233Y022147D02*
X021333Y022147D01*
X021333Y022048D02*
X026233Y022048D01*
X026233Y021950D02*
X021333Y021950D01*
X021333Y021851D02*
X026233Y021851D01*
X026233Y021753D02*
X021333Y021753D01*
X021333Y021654D02*
X026233Y021654D01*
X026233Y021556D02*
X021333Y021556D01*
X021333Y021457D02*
X026233Y021457D01*
X026233Y021359D02*
X021333Y021359D01*
X021333Y021260D02*
X026233Y021260D01*
X026233Y021162D02*
X021333Y021162D01*
X021333Y021063D02*
X026233Y021063D01*
X026233Y020965D02*
X021333Y020965D01*
X021333Y020866D02*
X026233Y020866D01*
X026233Y020768D02*
X021333Y020768D01*
X021333Y020669D02*
X026233Y020669D01*
X026233Y020571D02*
X021333Y020571D01*
X021333Y020472D02*
X026233Y020472D01*
X026233Y020374D02*
X021333Y020374D01*
X021333Y020275D02*
X026233Y020275D01*
X026233Y020177D02*
X021333Y020177D01*
X021333Y020078D02*
X026233Y020078D01*
X026233Y019980D02*
X021333Y019980D01*
X021333Y019881D02*
X026233Y019881D01*
X026233Y019783D02*
X021333Y019783D01*
X021333Y019684D02*
X026233Y019684D01*
X026233Y019586D02*
X021333Y019586D01*
D12*
X011093Y022000D03*
X007156Y022000D03*
D13*
X023233Y018100D03*
X024233Y018100D03*
X024233Y017100D03*
X023233Y017100D03*
X023233Y016100D03*
X024233Y016100D03*
D14*
X013948Y009008D03*
X013633Y008535D03*
X013318Y009008D03*
X013003Y008535D03*
X012688Y009008D03*
X012727Y026000D03*
X011940Y026000D03*
X013514Y026000D03*
X016440Y026000D03*
X017227Y026000D03*
X018014Y026000D03*
X009014Y026000D03*
X008227Y026000D03*
X007440Y026000D03*
D15*
X011881Y007000D03*
X014755Y007000D03*
D16*
X020449Y011193D03*
X020705Y011193D03*
X020961Y011193D03*
X021217Y011193D03*
X021217Y012807D03*
X020961Y012807D03*
X020705Y012807D03*
X020449Y012807D03*
D17*
X015652Y026000D03*
X011152Y026000D03*
X006652Y026000D03*
D18*
X024231Y027260D03*
X024231Y021354D03*
D19*
X027183Y021500D03*
X027183Y022500D03*
X027183Y023500D03*
X027183Y024500D03*
X027183Y025500D03*
D20*
X009967Y011221D02*
X009967Y010621D01*
X008967Y010621D02*
X008967Y011221D01*
M02*
