G75*
%MOIN*%
%OFA0B0*%
%FSLAX24Y24*%
%IPPOS*%
%LPD*%
%AMOC8*
5,1,8,0,0,1.08239X$1,22.5*
%
%ADD10C,0.0100*%
%ADD11OC8,0.0760*%
%ADD12OC8,0.0740*%
%ADD13R,0.0177X0.0512*%
%ADD14R,0.0515X0.0515*%
%ADD15C,0.0515*%
%ADD16C,0.3543*%
%ADD17C,0.0600*%
%ADD18C,0.1122*%
%ADD19C,0.0160*%
%ADD20C,0.0317*%
%ADD21C,0.0320*%
%ADD22R,0.0356X0.0356*%
%ADD23C,0.0120*%
%ADD24C,0.0356*%
%ADD25C,0.0277*%
D10*
X013333Y011200D02*
X015783Y011200D01*
X017583Y009250D01*
X017583Y007900D01*
X018083Y009500D02*
X017783Y009800D01*
X018083Y009500D02*
X020483Y009500D01*
X021217Y010384D01*
X021217Y011193D01*
X020983Y011550D02*
X020833Y011800D01*
X019833Y011800D01*
X019833Y016400D01*
X018933Y016400D01*
X017365Y017969D01*
X016514Y017969D01*
X016333Y018500D02*
X020833Y018500D01*
X022333Y017000D01*
X021333Y019500D02*
X021333Y024150D01*
X027733Y024150D01*
X027733Y019500D01*
X021333Y019500D01*
X021333Y019586D02*
X027733Y019586D01*
X027733Y019684D02*
X021333Y019684D01*
X021333Y019783D02*
X027733Y019783D01*
X027733Y019881D02*
X021333Y019881D01*
X021333Y019980D02*
X027733Y019980D01*
X027733Y020078D02*
X021333Y020078D01*
X021333Y020177D02*
X027733Y020177D01*
X027733Y020275D02*
X021333Y020275D01*
X021333Y020374D02*
X027733Y020374D01*
X027733Y020472D02*
X021333Y020472D01*
X021333Y020571D02*
X027733Y020571D01*
X027733Y020669D02*
X021333Y020669D01*
X021333Y020768D02*
X027733Y020768D01*
X027733Y020866D02*
X021333Y020866D01*
X021333Y020965D02*
X027733Y020965D01*
X027733Y021063D02*
X021333Y021063D01*
X021333Y021162D02*
X027733Y021162D01*
X027733Y021260D02*
X021333Y021260D01*
X021333Y021359D02*
X027733Y021359D01*
X027733Y021457D02*
X021333Y021457D01*
X021333Y021556D02*
X027733Y021556D01*
X027733Y021654D02*
X021333Y021654D01*
X021333Y021753D02*
X027733Y021753D01*
X027733Y021851D02*
X021333Y021851D01*
X021333Y021950D02*
X027733Y021950D01*
X027733Y022048D02*
X021333Y022048D01*
X021333Y022147D02*
X027733Y022147D01*
X027733Y022245D02*
X021333Y022245D01*
X021333Y022344D02*
X027733Y022344D01*
X027733Y022442D02*
X021333Y022442D01*
X021333Y022541D02*
X027733Y022541D01*
X027733Y022639D02*
X021333Y022639D01*
X021333Y022738D02*
X027733Y022738D01*
X027733Y022836D02*
X021333Y022836D01*
X021333Y022935D02*
X027733Y022935D01*
X027733Y023033D02*
X021333Y023033D01*
X021333Y023132D02*
X027733Y023132D01*
X027733Y023230D02*
X021333Y023230D01*
X021333Y023329D02*
X027733Y023329D01*
X027733Y023427D02*
X021333Y023427D01*
X021333Y023526D02*
X027733Y023526D01*
X027733Y023624D02*
X021333Y023624D01*
X021333Y023723D02*
X027733Y023723D01*
X027733Y023821D02*
X021333Y023821D01*
X021333Y023920D02*
X027733Y023920D01*
X027733Y024018D02*
X021333Y024018D01*
X021333Y024117D02*
X027733Y024117D01*
X027733Y024450D02*
X021283Y024450D01*
X021283Y029200D01*
X027733Y029200D01*
X027733Y024450D01*
X027733Y024511D02*
X021283Y024511D01*
X021283Y024609D02*
X027733Y024609D01*
X027733Y024708D02*
X021283Y024708D01*
X021283Y024806D02*
X027733Y024806D01*
X027733Y024905D02*
X021283Y024905D01*
X021283Y025003D02*
X027733Y025003D01*
X027733Y025102D02*
X021283Y025102D01*
X021283Y025200D02*
X027733Y025200D01*
X027733Y025299D02*
X021283Y025299D01*
X021283Y025397D02*
X027733Y025397D01*
X027733Y025496D02*
X021283Y025496D01*
X021283Y025594D02*
X027733Y025594D01*
X027733Y025693D02*
X021283Y025693D01*
X021283Y025791D02*
X027733Y025791D01*
X027733Y025890D02*
X021283Y025890D01*
X021283Y025988D02*
X027733Y025988D01*
X027733Y026087D02*
X021283Y026087D01*
X021283Y026185D02*
X027733Y026185D01*
X027733Y026284D02*
X021283Y026284D01*
X021283Y026382D02*
X027733Y026382D01*
X027733Y026481D02*
X021283Y026481D01*
X021283Y026579D02*
X027733Y026579D01*
X027733Y026678D02*
X021283Y026678D01*
X021283Y026776D02*
X027733Y026776D01*
X027733Y026875D02*
X021283Y026875D01*
X021283Y026973D02*
X027733Y026973D01*
X027733Y027072D02*
X021283Y027072D01*
X021283Y027170D02*
X027733Y027170D01*
X027733Y027269D02*
X021283Y027269D01*
X021283Y027367D02*
X027733Y027367D01*
X027733Y027466D02*
X021283Y027466D01*
X021283Y027564D02*
X027733Y027564D01*
X027733Y027663D02*
X021283Y027663D01*
X021283Y027761D02*
X027733Y027761D01*
X027733Y027860D02*
X021283Y027860D01*
X021283Y027958D02*
X027733Y027958D01*
X027733Y028057D02*
X021283Y028057D01*
X021283Y028155D02*
X027733Y028155D01*
X027733Y028254D02*
X021283Y028254D01*
X021283Y028352D02*
X027733Y028352D01*
X027733Y028451D02*
X021283Y028451D01*
X021283Y028549D02*
X027733Y028549D01*
X027733Y028648D02*
X021283Y028648D01*
X021283Y028746D02*
X027733Y028746D01*
X027733Y028845D02*
X021283Y028845D01*
X021283Y028943D02*
X027733Y028943D01*
X027733Y029042D02*
X021283Y029042D01*
X021283Y029140D02*
X027733Y029140D01*
X019073Y024941D02*
X019073Y023165D01*
X018333Y023000D02*
X018247Y022913D01*
X018247Y020016D01*
X017932Y019701D01*
X017774Y019701D01*
X017774Y020331D02*
X017774Y022809D01*
X017583Y023000D01*
X017583Y024850D01*
X016440Y025994D01*
X014983Y025000D02*
X015533Y024450D01*
X015533Y017690D01*
X015727Y017496D01*
X017223Y017496D01*
X017538Y017181D01*
X017533Y018850D02*
X016333Y020050D01*
X016333Y021500D01*
X015833Y020000D02*
X016999Y018835D01*
X017066Y018835D01*
X015833Y020000D02*
X015833Y024500D01*
X014833Y025450D01*
X013177Y025450D01*
X012940Y025000D02*
X014983Y025000D01*
X015001Y023380D02*
X014751Y023131D01*
X014751Y021930D01*
X013983Y021700D02*
X013983Y019406D01*
X014333Y020163D02*
X014333Y018050D01*
X012155Y015621D01*
X012833Y015700D02*
X014833Y018000D01*
X014833Y020646D01*
X014597Y020882D01*
X014310Y020882D01*
X013983Y021700D02*
X013833Y022000D01*
X011283Y024400D01*
X010783Y024400D01*
X010515Y024125D02*
X009758Y024125D01*
X008740Y025144D01*
X008233Y025600D01*
X007833Y025606D01*
X010515Y024125D02*
X011869Y022772D01*
X011093Y022000D02*
X010231Y022000D01*
X009743Y021512D01*
X009743Y018520D01*
X013783Y018500D02*
X013783Y017850D01*
X013782Y015551D02*
X019333Y010000D01*
X020833Y012150D02*
X021083Y012250D01*
X021217Y012384D01*
X021217Y012807D01*
X022033Y014150D02*
X023683Y014150D01*
X023833Y014000D01*
X023833Y010000D01*
X019283Y013700D02*
X019283Y014971D01*
X018583Y015671D01*
X015133Y010850D02*
X014333Y010850D01*
X015133Y010850D02*
X015583Y010150D01*
X015583Y007850D01*
X018333Y023000D02*
X018333Y024894D01*
X012940Y025000D02*
X011940Y026000D01*
D11*
X011093Y022000D03*
X007156Y022000D03*
D12*
X023233Y018100D03*
X024233Y018100D03*
X024233Y017100D03*
X023233Y017100D03*
X023233Y016100D03*
X024233Y016100D03*
D13*
X021217Y012807D03*
X020961Y012807D03*
X020705Y012807D03*
X020449Y012807D03*
X020449Y011193D03*
X020705Y011193D03*
X020961Y011193D03*
X021217Y011193D03*
D14*
X015652Y026000D03*
X011152Y026000D03*
X006652Y026000D03*
D15*
X007440Y026000D03*
X008227Y026000D03*
X009014Y026000D03*
X011940Y026000D03*
X012727Y026000D03*
X013514Y026000D03*
X016440Y026000D03*
X017227Y026000D03*
X018014Y026000D03*
X013663Y009058D03*
X013348Y008585D03*
X013033Y009058D03*
X012718Y008585D03*
X012403Y009058D03*
D16*
X024231Y021354D03*
X024231Y027260D03*
D17*
X010367Y011071D02*
X010367Y010471D01*
X009367Y010471D02*
X009367Y011071D01*
D18*
X011596Y007050D03*
X014470Y007050D03*
D19*
X005976Y005976D02*
X027838Y005976D01*
X027882Y006037D02*
X027729Y005825D01*
X027517Y005671D01*
X027378Y005626D01*
X022128Y005580D01*
X006949Y005580D01*
X006762Y005592D01*
X006400Y005689D01*
X006075Y005877D01*
X005810Y006142D01*
X005623Y006466D01*
X005526Y006828D01*
X005513Y007016D01*
X005513Y028792D01*
X005520Y028874D01*
X005570Y029030D01*
X005667Y029162D01*
X005800Y029259D01*
X005956Y029310D01*
X006038Y029316D01*
X020124Y029316D01*
X020125Y029076D01*
X019927Y028993D01*
X019736Y028802D01*
X019632Y028552D01*
X019632Y028282D01*
X019736Y028032D01*
X019927Y027840D01*
X020131Y027756D01*
X020173Y018879D01*
X023257Y018868D01*
X023283Y018854D01*
X023909Y018700D01*
X024553Y018700D01*
X025179Y018854D01*
X025192Y018861D01*
X027973Y018851D01*
X027973Y006416D01*
X027963Y006285D01*
X027882Y006037D01*
X027914Y006134D02*
X005818Y006134D01*
X005723Y006293D02*
X027964Y006293D01*
X027973Y006451D02*
X014856Y006451D01*
X014867Y006456D02*
X014610Y006349D01*
X014331Y006349D01*
X014073Y006456D01*
X013876Y006653D01*
X013769Y006911D01*
X013769Y007189D01*
X013876Y007447D01*
X014073Y007644D01*
X014331Y007751D01*
X014610Y007751D01*
X014867Y007644D01*
X015065Y007447D01*
X015171Y007189D01*
X015171Y006911D01*
X015065Y006653D01*
X014867Y006456D01*
X015021Y006610D02*
X026262Y006610D01*
X026298Y006574D02*
X026548Y006470D01*
X026819Y006470D01*
X027069Y006574D01*
X027260Y006765D01*
X027363Y007015D01*
X027363Y007285D01*
X027260Y007535D01*
X027069Y007726D01*
X026819Y007830D01*
X026548Y007830D01*
X026298Y007726D01*
X026107Y007535D01*
X026003Y007285D01*
X026003Y007015D01*
X026107Y006765D01*
X026298Y006574D01*
X026106Y006768D02*
X015112Y006768D01*
X015171Y006927D02*
X026040Y006927D01*
X026003Y007085D02*
X015171Y007085D01*
X015149Y007244D02*
X026003Y007244D01*
X026052Y007402D02*
X015083Y007402D01*
X014951Y007561D02*
X015498Y007561D01*
X015524Y007550D02*
X015643Y007550D01*
X015753Y007596D01*
X015838Y007680D01*
X015883Y007790D01*
X015883Y007910D01*
X015838Y008020D01*
X015773Y008084D01*
X015773Y010130D01*
X015786Y010187D01*
X015773Y010206D01*
X015773Y010229D01*
X015732Y010270D01*
X015323Y010906D01*
X015323Y010929D01*
X015282Y010970D01*
X015256Y011010D01*
X015700Y011010D01*
X017393Y009176D01*
X017393Y008134D01*
X017329Y008070D01*
X017283Y007960D01*
X017283Y007840D01*
X017329Y007730D01*
X017413Y007646D01*
X017524Y007600D01*
X017643Y007600D01*
X017753Y007646D01*
X017838Y007730D01*
X017883Y007840D01*
X017883Y007960D01*
X017838Y008070D01*
X017773Y008134D01*
X017773Y009246D01*
X017776Y009321D01*
X017773Y009324D01*
X017773Y009329D01*
X017720Y009382D01*
X016958Y010207D01*
X017014Y010230D01*
X017103Y010320D01*
X017151Y010437D01*
X017151Y010563D01*
X017103Y010680D01*
X017053Y010730D01*
X017053Y011770D01*
X017103Y011820D01*
X017145Y011920D01*
X019033Y010031D01*
X019033Y009940D01*
X019079Y009830D01*
X019163Y009746D01*
X019274Y009700D01*
X019393Y009700D01*
X019503Y009746D01*
X019588Y009830D01*
X019633Y009940D01*
X019633Y010060D01*
X019588Y010170D01*
X019503Y010254D01*
X019393Y010300D01*
X019302Y010300D01*
X014082Y015520D01*
X014082Y015611D01*
X014036Y015721D01*
X013978Y015780D01*
X016242Y015780D01*
X016263Y015759D01*
X016263Y015209D01*
X017063Y014409D01*
X017113Y014359D01*
X017113Y013730D01*
X017064Y013680D01*
X017015Y013563D01*
X017015Y013437D01*
X017064Y013320D01*
X017153Y013230D01*
X017270Y013182D01*
X017397Y013182D01*
X017514Y013230D01*
X017603Y013320D01*
X017651Y013437D01*
X017651Y013563D01*
X017603Y013680D01*
X017553Y013730D01*
X017553Y015270D01*
X017603Y015320D01*
X017651Y015437D01*
X017651Y015563D01*
X017646Y015576D01*
X017713Y015509D01*
X017713Y012509D01*
X017842Y012380D01*
X018670Y011552D01*
X018670Y011543D01*
X018733Y011489D01*
X018792Y011430D01*
X018801Y011430D01*
X019333Y010969D01*
X019333Y010940D01*
X019379Y010830D01*
X019463Y010746D01*
X019574Y010700D01*
X019693Y010700D01*
X019803Y010746D01*
X019888Y010830D01*
X019933Y010940D01*
X019933Y011060D01*
X019888Y011170D01*
X019803Y011254D01*
X019693Y011300D01*
X019623Y011300D01*
X019304Y011576D01*
X019314Y011580D01*
X019403Y011670D01*
X019451Y011787D01*
X019451Y011913D01*
X019403Y012030D01*
X019314Y012120D01*
X019197Y012168D01*
X019126Y012168D01*
X018808Y012487D01*
X018910Y012665D01*
X018953Y012709D01*
X018953Y012742D01*
X018970Y012770D01*
X018953Y012829D01*
X018953Y014741D01*
X018701Y014993D01*
X018701Y015063D01*
X018653Y015180D01*
X018564Y015270D01*
X018447Y015318D01*
X018320Y015318D01*
X018203Y015270D01*
X018153Y015220D01*
X018153Y015691D01*
X017853Y015991D01*
X017853Y016491D01*
X017481Y016863D01*
X017601Y016863D01*
X017718Y016911D01*
X017808Y017001D01*
X017856Y017118D01*
X017856Y017208D01*
X018743Y016321D01*
X018855Y016210D01*
X019599Y016210D01*
X019643Y016166D01*
X019643Y012034D01*
X019579Y011970D01*
X019533Y011860D01*
X019533Y011740D01*
X019579Y011630D01*
X019663Y011546D01*
X019774Y011500D01*
X019893Y011500D01*
X020003Y011546D01*
X020068Y011610D01*
X020280Y011610D01*
X020250Y011593D01*
X020217Y011559D01*
X020193Y011518D01*
X020181Y011473D01*
X020181Y011193D01*
X020449Y011193D01*
X020449Y011193D01*
X020181Y011193D01*
X020181Y010913D01*
X020193Y010868D01*
X020217Y010826D01*
X020238Y010805D01*
X020153Y010770D01*
X020064Y010680D01*
X020015Y010563D01*
X020015Y010437D01*
X020064Y010320D01*
X020153Y010230D01*
X020270Y010182D01*
X020397Y010182D01*
X020514Y010230D01*
X020583Y010300D01*
X020866Y010300D01*
X020966Y010400D01*
X021027Y010461D01*
X021027Y010452D01*
X020394Y009690D01*
X018162Y009690D01*
X018083Y009769D01*
X018083Y009860D01*
X018038Y009970D01*
X017953Y010054D01*
X017843Y010100D01*
X017724Y010100D01*
X017613Y010054D01*
X017529Y009970D01*
X017483Y009860D01*
X017483Y009740D01*
X017529Y009630D01*
X017613Y009546D01*
X017724Y009500D01*
X017815Y009500D01*
X018005Y009310D01*
X020415Y009310D01*
X020423Y009304D01*
X020492Y009310D01*
X020562Y009310D01*
X020569Y009317D01*
X020579Y009318D01*
X020624Y009372D01*
X020673Y009421D01*
X020673Y009431D01*
X021358Y010256D01*
X021407Y010305D01*
X021407Y010315D01*
X021414Y010323D01*
X021407Y010393D01*
X021407Y010840D01*
X021446Y010879D01*
X021446Y011507D01*
X021364Y011589D01*
X021203Y011589D01*
X021203Y011641D01*
X021074Y011770D01*
X021073Y011770D01*
X021023Y011853D01*
X021023Y011879D01*
X021005Y011897D01*
X021088Y011980D01*
X021121Y012060D01*
X021162Y012060D01*
X021190Y012088D01*
X021227Y012103D01*
X021244Y012142D01*
X021407Y012305D01*
X021407Y012455D01*
X021446Y012493D01*
X021446Y013121D01*
X021364Y013203D01*
X021164Y013203D01*
X021160Y013207D01*
X021119Y013231D01*
X021074Y013243D01*
X020961Y013243D01*
X020849Y013243D01*
X020833Y013239D01*
X020818Y013243D01*
X020705Y013243D01*
X020593Y013243D01*
X020577Y013239D01*
X020562Y013243D01*
X020449Y013243D01*
X020337Y013243D01*
X020291Y013231D01*
X020250Y013207D01*
X020217Y013174D01*
X020193Y013132D01*
X020181Y013087D01*
X020181Y012807D01*
X020181Y012527D01*
X020193Y012482D01*
X020217Y012441D01*
X020250Y012407D01*
X020291Y012383D01*
X020337Y012371D01*
X020449Y012371D01*
X020449Y012481D01*
X020449Y012481D01*
X020449Y012371D01*
X020562Y012371D01*
X020577Y012375D01*
X020593Y012371D01*
X020630Y012371D01*
X020579Y012320D01*
X020533Y012210D01*
X020533Y012090D01*
X020575Y011990D01*
X020068Y011990D01*
X020023Y012034D01*
X020023Y016166D01*
X020088Y016230D01*
X020133Y016340D01*
X020133Y016460D01*
X020088Y016570D01*
X020003Y016654D01*
X019893Y016700D01*
X019774Y016700D01*
X019663Y016654D01*
X019599Y016590D01*
X019012Y016590D01*
X017555Y018047D01*
X017555Y018047D01*
X017444Y018159D01*
X016774Y018159D01*
X016695Y018238D01*
X016578Y018287D01*
X016544Y018287D01*
X016568Y018310D01*
X020755Y018310D01*
X022033Y017031D01*
X022033Y016940D01*
X022079Y016830D01*
X022163Y016746D01*
X022274Y016700D01*
X022393Y016700D01*
X022503Y016746D01*
X022588Y016830D01*
X022633Y016940D01*
X022633Y017060D01*
X022588Y017170D01*
X022503Y017254D01*
X022393Y017300D01*
X022302Y017300D01*
X021023Y018579D01*
X020912Y018690D01*
X017642Y018690D01*
X017723Y018771D01*
X017723Y018929D01*
X016523Y020129D01*
X016523Y021266D01*
X016588Y021330D01*
X016633Y021440D01*
X016633Y021560D01*
X016588Y021670D01*
X016503Y021754D01*
X016393Y021800D01*
X016274Y021800D01*
X016163Y021754D01*
X016079Y021670D01*
X016033Y021560D01*
X016033Y021440D01*
X016079Y021330D01*
X016143Y021266D01*
X016143Y019971D01*
X016255Y019860D01*
X016974Y019141D01*
X016965Y019137D01*
X016023Y020079D01*
X016023Y024424D01*
X016025Y024426D01*
X016023Y024502D01*
X016023Y024579D01*
X016021Y024581D01*
X016021Y024584D01*
X015966Y024636D01*
X015912Y024690D01*
X015909Y024690D01*
X014966Y025586D01*
X014912Y025640D01*
X014909Y025640D01*
X014907Y025642D01*
X014831Y025640D01*
X013763Y025640D01*
X013799Y025666D01*
X013848Y025715D01*
X013889Y025771D01*
X013920Y025832D01*
X013941Y025898D01*
X013952Y025966D01*
X013952Y026000D01*
X013952Y026034D01*
X013941Y026102D01*
X013920Y026168D01*
X013889Y026229D01*
X013848Y026285D01*
X013799Y026334D01*
X013744Y026374D01*
X013682Y026405D01*
X013617Y026427D01*
X013549Y026437D01*
X013514Y026437D01*
X013480Y026437D01*
X013412Y026427D01*
X013347Y026405D01*
X013285Y026374D01*
X013229Y026334D01*
X013181Y026285D01*
X013140Y026229D01*
X013109Y026168D01*
X013100Y026139D01*
X013064Y026225D01*
X012952Y026337D01*
X012806Y026397D01*
X012648Y026397D01*
X012502Y026337D01*
X012390Y026225D01*
X012333Y026088D01*
X012277Y026225D01*
X012165Y026337D01*
X012019Y026397D01*
X011861Y026397D01*
X011714Y026337D01*
X011603Y026225D01*
X011550Y026097D01*
X011550Y026315D01*
X011468Y026397D01*
X010837Y026397D01*
X010755Y026315D01*
X010755Y025685D01*
X010837Y025603D01*
X011468Y025603D01*
X011550Y025685D01*
X011550Y025903D01*
X011603Y025775D01*
X011714Y025663D01*
X011861Y025603D01*
X012019Y025603D01*
X012054Y025617D01*
X012750Y024921D01*
X012861Y024810D01*
X014905Y024810D01*
X015343Y024371D01*
X015343Y019278D01*
X015247Y019318D01*
X015120Y019318D01*
X015023Y019278D01*
X015023Y020724D01*
X014676Y021072D01*
X014570Y021072D01*
X014490Y021152D01*
X014373Y021200D01*
X014246Y021200D01*
X014173Y021170D01*
X014173Y021669D01*
X014188Y021715D01*
X014173Y021745D01*
X014173Y021779D01*
X014139Y021813D01*
X014022Y022048D01*
X014021Y022084D01*
X013988Y022115D01*
X013968Y022155D01*
X013933Y022167D01*
X011416Y024536D01*
X011362Y024590D01*
X011359Y024590D01*
X011356Y024592D01*
X011280Y024590D01*
X010876Y024590D01*
X010033Y025433D01*
X010033Y026283D01*
X009916Y026400D01*
X009666Y026650D01*
X009285Y026650D01*
X006918Y026698D01*
X006916Y026700D01*
X006835Y026700D01*
X006755Y026702D01*
X006753Y026700D01*
X006750Y026700D01*
X006693Y026643D01*
X006635Y026587D01*
X006635Y026585D01*
X006452Y026402D01*
X006452Y026397D01*
X006337Y026397D01*
X006255Y026315D01*
X006255Y025685D01*
X006337Y025603D01*
X006968Y025603D01*
X007050Y025685D01*
X007050Y025903D01*
X007103Y025775D01*
X007214Y025663D01*
X007361Y025603D01*
X007519Y025603D01*
X007544Y025613D01*
X007750Y025406D01*
X007916Y025406D01*
X007925Y025415D01*
X008159Y025411D01*
X008609Y025006D01*
X009568Y024047D01*
X009679Y023935D01*
X010436Y023935D01*
X011551Y022821D01*
X011551Y022708D01*
X011599Y022591D01*
X011689Y022502D01*
X011805Y022454D01*
X011932Y022454D01*
X012049Y022502D01*
X012138Y022591D01*
X012187Y022708D01*
X012187Y022835D01*
X012138Y022952D01*
X012049Y023041D01*
X011932Y023090D01*
X011819Y023090D01*
X010709Y024200D01*
X010866Y024200D01*
X010876Y024210D01*
X011208Y024210D01*
X013679Y021885D01*
X013793Y021655D01*
X013793Y019641D01*
X013729Y019576D01*
X013683Y019466D01*
X013683Y019347D01*
X013706Y019292D01*
X013653Y019270D01*
X013603Y019220D01*
X012063Y019220D01*
X012014Y019270D01*
X011897Y019318D01*
X011770Y019318D01*
X011653Y019270D01*
X011564Y019180D01*
X011515Y019063D01*
X011515Y018937D01*
X011564Y018820D01*
X011653Y018730D01*
X011770Y018682D01*
X011897Y018682D01*
X012014Y018730D01*
X012063Y018780D01*
X013603Y018780D01*
X013625Y018759D01*
X013613Y018754D01*
X013529Y018670D01*
X013483Y018560D01*
X013483Y018440D01*
X013529Y018330D01*
X013593Y018266D01*
X013593Y018084D01*
X013529Y018020D01*
X013483Y017910D01*
X013483Y017790D01*
X013529Y017680D01*
X013613Y017596D01*
X013655Y017578D01*
X012168Y015921D01*
X012095Y015921D01*
X012053Y015904D01*
X012053Y016770D01*
X012103Y016820D01*
X012151Y016937D01*
X012151Y017063D01*
X012103Y017180D01*
X012014Y017270D01*
X011897Y017318D01*
X011770Y017318D01*
X011653Y017270D01*
X011564Y017180D01*
X011515Y017063D01*
X011515Y016937D01*
X011564Y016820D01*
X011613Y016770D01*
X011613Y014909D01*
X011813Y014709D01*
X011942Y014580D01*
X013324Y014580D01*
X013424Y014680D01*
X013553Y014809D01*
X013553Y015356D01*
X013612Y015297D01*
X013722Y015251D01*
X013813Y015251D01*
X016753Y012311D01*
X016653Y012270D01*
X016564Y012180D01*
X016515Y012063D01*
X016515Y011937D01*
X016564Y011820D01*
X016613Y011770D01*
X016613Y010730D01*
X016564Y010680D01*
X016551Y010649D01*
X015973Y011274D01*
X015973Y011279D01*
X015920Y011332D01*
X015870Y011387D01*
X015865Y011387D01*
X015862Y011390D01*
X015787Y011390D01*
X015712Y011393D01*
X015709Y011390D01*
X013568Y011390D01*
X013503Y011454D01*
X013393Y011500D01*
X013274Y011500D01*
X013163Y011454D01*
X013079Y011370D01*
X013033Y011260D01*
X013033Y011140D01*
X013079Y011030D01*
X013163Y010946D01*
X013274Y010900D01*
X013393Y010900D01*
X013503Y010946D01*
X013568Y011010D01*
X014075Y011010D01*
X014033Y010910D01*
X014033Y010790D01*
X014079Y010680D01*
X014163Y010596D01*
X014274Y010550D01*
X014393Y010550D01*
X014503Y010596D01*
X014568Y010660D01*
X015030Y010660D01*
X015393Y010094D01*
X015393Y008084D01*
X015329Y008020D01*
X015283Y007910D01*
X015283Y007790D01*
X015329Y007680D01*
X015413Y007596D01*
X015524Y007550D01*
X015668Y007561D02*
X026132Y007561D01*
X026291Y007719D02*
X017827Y007719D01*
X017883Y007878D02*
X027973Y007878D01*
X027973Y008036D02*
X017852Y008036D01*
X017773Y008195D02*
X027973Y008195D01*
X027973Y008353D02*
X017773Y008353D01*
X017773Y008512D02*
X027973Y008512D01*
X027973Y008670D02*
X017773Y008670D01*
X017773Y008829D02*
X027973Y008829D01*
X027973Y008987D02*
X017773Y008987D01*
X017773Y009146D02*
X027973Y009146D01*
X027973Y009304D02*
X020427Y009304D01*
X020422Y009304D02*
X017776Y009304D01*
X017852Y009463D02*
X017646Y009463D01*
X017538Y009621D02*
X017499Y009621D01*
X017483Y009780D02*
X017353Y009780D01*
X017207Y009938D02*
X017516Y009938D01*
X017715Y010097D02*
X017061Y010097D01*
X017038Y010255D02*
X018810Y010255D01*
X018968Y010097D02*
X017851Y010097D01*
X018051Y009938D02*
X019034Y009938D01*
X019130Y009780D02*
X018083Y009780D01*
X018651Y010414D02*
X017142Y010414D01*
X017148Y010572D02*
X018493Y010572D01*
X018334Y010731D02*
X017053Y010731D01*
X017053Y010889D02*
X018176Y010889D01*
X018017Y011048D02*
X017053Y011048D01*
X017053Y011206D02*
X017859Y011206D01*
X017700Y011365D02*
X017053Y011365D01*
X017053Y011523D02*
X017542Y011523D01*
X017383Y011682D02*
X017053Y011682D01*
X017111Y011840D02*
X017225Y011840D01*
X017445Y012157D02*
X018065Y012157D01*
X017907Y012316D02*
X017287Y012316D01*
X017128Y012474D02*
X017748Y012474D01*
X017713Y012633D02*
X016970Y012633D01*
X016811Y012791D02*
X017713Y012791D01*
X017713Y012950D02*
X016653Y012950D01*
X016494Y013108D02*
X017713Y013108D01*
X017713Y013267D02*
X017550Y013267D01*
X017647Y013425D02*
X017713Y013425D01*
X017713Y013584D02*
X017643Y013584D01*
X017713Y013742D02*
X017553Y013742D01*
X017553Y013901D02*
X017713Y013901D01*
X017713Y014059D02*
X017553Y014059D01*
X017553Y014218D02*
X017713Y014218D01*
X017713Y014376D02*
X017553Y014376D01*
X017553Y014535D02*
X017713Y014535D01*
X017713Y014693D02*
X017553Y014693D01*
X017553Y014852D02*
X017713Y014852D01*
X017713Y015010D02*
X017553Y015010D01*
X017553Y015169D02*
X017713Y015169D01*
X017713Y015327D02*
X017606Y015327D01*
X017651Y015486D02*
X017713Y015486D01*
X017933Y015600D02*
X017633Y015900D01*
X017633Y016400D01*
X016933Y017100D01*
X017591Y016754D02*
X018311Y016754D01*
X018153Y016912D02*
X017719Y016912D01*
X017837Y017071D02*
X017994Y017071D01*
X018215Y017388D02*
X021677Y017388D01*
X021519Y017546D02*
X018056Y017546D01*
X017898Y017705D02*
X021360Y017705D01*
X021202Y017863D02*
X017739Y017863D01*
X017581Y018022D02*
X021043Y018022D01*
X020885Y018180D02*
X016753Y018180D01*
X017680Y018973D02*
X020173Y018973D01*
X020172Y019131D02*
X017521Y019131D01*
X017363Y019290D02*
X020172Y019290D01*
X020171Y019448D02*
X017971Y019448D01*
X017954Y019431D02*
X018044Y019521D01*
X018061Y019561D01*
X018122Y019622D01*
X018437Y019937D01*
X018437Y022835D01*
X018523Y022921D01*
X018523Y024801D01*
X018833Y025111D01*
X018833Y026833D01*
X018716Y026950D01*
X018651Y027015D01*
X018651Y027063D01*
X018603Y027180D01*
X018514Y027270D01*
X018397Y027318D01*
X018270Y027318D01*
X018153Y027270D01*
X018064Y027180D01*
X018015Y027063D01*
X018015Y026937D01*
X018064Y026820D01*
X018153Y026730D01*
X018270Y026682D01*
X018397Y026682D01*
X018412Y026688D01*
X018433Y026667D01*
X018433Y026126D01*
X018420Y026168D01*
X018389Y026229D01*
X018348Y026285D01*
X018299Y026334D01*
X018244Y026374D01*
X018182Y026405D01*
X018117Y026427D01*
X018049Y026437D01*
X018014Y026437D01*
X017980Y026437D01*
X017912Y026427D01*
X017847Y026405D01*
X017785Y026374D01*
X017729Y026334D01*
X017681Y026285D01*
X017640Y026229D01*
X017609Y026168D01*
X017600Y026139D01*
X017564Y026225D01*
X017452Y026337D01*
X017306Y026397D01*
X017148Y026397D01*
X017002Y026337D01*
X016890Y026225D01*
X016833Y026088D01*
X016777Y026225D01*
X016665Y026337D01*
X016519Y026397D01*
X016361Y026397D01*
X016214Y026337D01*
X016103Y026225D01*
X016050Y026097D01*
X016050Y026315D01*
X015968Y026397D01*
X015337Y026397D01*
X015255Y026315D01*
X015255Y025685D01*
X015337Y025603D01*
X015968Y025603D01*
X016050Y025685D01*
X016050Y025903D01*
X016103Y025775D01*
X016214Y025663D01*
X016361Y025603D01*
X016519Y025603D01*
X016549Y025615D01*
X017393Y024771D01*
X017393Y022921D01*
X017584Y022730D01*
X017584Y020591D01*
X017505Y020511D01*
X017456Y020394D01*
X017456Y020267D01*
X017505Y020151D01*
X017594Y020061D01*
X017703Y020016D01*
X017594Y019970D01*
X017505Y019881D01*
X017456Y019764D01*
X017456Y019638D01*
X017505Y019521D01*
X017594Y019431D01*
X017711Y019383D01*
X017838Y019383D01*
X017954Y019431D01*
X018106Y019607D02*
X020170Y019607D01*
X020169Y019765D02*
X018265Y019765D01*
X018423Y019924D02*
X020169Y019924D01*
X020168Y020082D02*
X018437Y020082D01*
X018437Y020241D02*
X020167Y020241D01*
X020166Y020399D02*
X018437Y020399D01*
X018437Y020558D02*
X020166Y020558D01*
X020165Y020716D02*
X018437Y020716D01*
X018437Y020875D02*
X020164Y020875D01*
X020163Y021033D02*
X018437Y021033D01*
X018437Y021192D02*
X020163Y021192D01*
X020162Y021350D02*
X018437Y021350D01*
X018437Y021509D02*
X020161Y021509D01*
X020160Y021667D02*
X018437Y021667D01*
X018437Y021826D02*
X020160Y021826D01*
X020159Y021984D02*
X018437Y021984D01*
X018437Y022143D02*
X020158Y022143D01*
X020157Y022301D02*
X018437Y022301D01*
X018437Y022460D02*
X020157Y022460D01*
X020156Y022618D02*
X018437Y022618D01*
X018437Y022777D02*
X020155Y022777D01*
X020154Y022935D02*
X019293Y022935D01*
X019254Y022896D02*
X019343Y022985D01*
X019392Y023102D01*
X019392Y023229D01*
X019343Y023346D01*
X019263Y023425D01*
X019263Y025020D01*
X019152Y025131D01*
X018995Y025131D01*
X018883Y025020D01*
X018883Y023425D01*
X018804Y023346D01*
X018755Y023229D01*
X018755Y023102D01*
X018804Y022985D01*
X018893Y022896D01*
X019010Y022847D01*
X019137Y022847D01*
X019254Y022896D01*
X019388Y023094D02*
X020154Y023094D01*
X020153Y023252D02*
X019382Y023252D01*
X019278Y023411D02*
X020152Y023411D01*
X020151Y023569D02*
X019263Y023569D01*
X019263Y023728D02*
X020151Y023728D01*
X020150Y023886D02*
X019263Y023886D01*
X019263Y024045D02*
X020149Y024045D01*
X020148Y024203D02*
X019263Y024203D01*
X019263Y024362D02*
X020148Y024362D01*
X020147Y024520D02*
X019263Y024520D01*
X019263Y024679D02*
X020146Y024679D01*
X020145Y024837D02*
X019263Y024837D01*
X019263Y024996D02*
X020144Y024996D01*
X020144Y025154D02*
X018833Y025154D01*
X018833Y025313D02*
X020143Y025313D01*
X020142Y025471D02*
X018833Y025471D01*
X018833Y025630D02*
X020141Y025630D01*
X020141Y025788D02*
X018833Y025788D01*
X018833Y025947D02*
X020140Y025947D01*
X020139Y026105D02*
X018833Y026105D01*
X018833Y026264D02*
X020138Y026264D01*
X020138Y026422D02*
X018833Y026422D01*
X018833Y026581D02*
X020137Y026581D01*
X020136Y026739D02*
X018833Y026739D01*
X018769Y026898D02*
X020135Y026898D01*
X020135Y027056D02*
X018651Y027056D01*
X018569Y027215D02*
X020134Y027215D01*
X020133Y027373D02*
X005513Y027373D01*
X005513Y027215D02*
X018098Y027215D01*
X018015Y027056D02*
X005513Y027056D01*
X005513Y026898D02*
X018031Y026898D01*
X018144Y026739D02*
X005513Y026739D01*
X005513Y026581D02*
X006631Y026581D01*
X006473Y026422D02*
X005513Y026422D01*
X005513Y026264D02*
X006255Y026264D01*
X006255Y026105D02*
X005513Y026105D01*
X005513Y025947D02*
X006255Y025947D01*
X006255Y025788D02*
X005513Y025788D01*
X005513Y025630D02*
X006310Y025630D01*
X006448Y025313D02*
X006257Y025121D01*
X006153Y024871D01*
X006153Y024601D01*
X006257Y024351D01*
X006448Y024160D01*
X006698Y024056D01*
X006969Y024056D01*
X007219Y024160D01*
X007410Y024351D01*
X007513Y024601D01*
X007513Y024871D01*
X007410Y025121D01*
X007219Y025313D01*
X008268Y025313D01*
X008444Y025154D02*
X007377Y025154D01*
X007462Y024996D02*
X008619Y024996D01*
X008778Y024837D02*
X007513Y024837D01*
X007513Y024679D02*
X008936Y024679D01*
X009095Y024520D02*
X007480Y024520D01*
X007414Y024362D02*
X009253Y024362D01*
X009412Y024203D02*
X007262Y024203D01*
X006405Y024203D02*
X005513Y024203D01*
X005513Y024045D02*
X009570Y024045D01*
X009837Y024315D02*
X010585Y024315D01*
X009633Y025267D01*
X009633Y026117D01*
X009500Y026250D01*
X009374Y026250D01*
X009389Y026229D01*
X009420Y026168D01*
X009441Y026102D01*
X009452Y026034D01*
X009452Y026000D01*
X009014Y026000D01*
X009014Y026000D01*
X009014Y025563D01*
X008980Y025563D01*
X008912Y025573D01*
X008847Y025595D01*
X008785Y025626D01*
X008729Y025666D01*
X008681Y025715D01*
X008640Y025771D01*
X008609Y025832D01*
X008600Y025861D01*
X008564Y025775D01*
X008452Y025663D01*
X008449Y025662D01*
X008813Y025334D01*
X008818Y025334D01*
X008870Y025282D01*
X008925Y025232D01*
X008926Y025226D01*
X009837Y024315D01*
X009791Y024362D02*
X010539Y024362D01*
X010380Y024520D02*
X009632Y024520D01*
X009474Y024679D02*
X010222Y024679D01*
X010063Y024837D02*
X009315Y024837D01*
X009157Y024996D02*
X009905Y024996D01*
X009746Y025154D02*
X008998Y025154D01*
X008840Y025313D02*
X009633Y025313D01*
X009633Y025471D02*
X008660Y025471D01*
X008780Y025630D02*
X008484Y025630D01*
X008569Y025788D02*
X008631Y025788D01*
X009014Y025788D02*
X009014Y025788D01*
X009014Y025630D02*
X009014Y025630D01*
X009014Y025563D02*
X009049Y025563D01*
X009117Y025573D01*
X009182Y025595D01*
X009244Y025626D01*
X009299Y025666D01*
X009348Y025715D01*
X009389Y025771D01*
X009420Y025832D01*
X009441Y025898D01*
X009452Y025966D01*
X009452Y026000D01*
X009014Y026000D01*
X009014Y025563D01*
X009249Y025630D02*
X009633Y025630D01*
X009633Y025788D02*
X009397Y025788D01*
X009449Y025947D02*
X009633Y025947D01*
X009633Y026105D02*
X009440Y026105D01*
X009894Y026422D02*
X013398Y026422D01*
X013514Y026422D02*
X013514Y026422D01*
X013514Y026437D02*
X013514Y026000D01*
X013514Y026000D01*
X013514Y026437D01*
X013631Y026422D02*
X017898Y026422D01*
X018014Y026422D02*
X018014Y026422D01*
X018014Y026437D02*
X018014Y026000D01*
X018014Y026000D01*
X018014Y026000D01*
X018014Y025563D01*
X017980Y025563D01*
X017912Y025573D01*
X017847Y025595D01*
X017785Y025626D01*
X017729Y025666D01*
X017681Y025715D01*
X017640Y025771D01*
X017609Y025832D01*
X017600Y025861D01*
X017564Y025775D01*
X017452Y025663D01*
X017306Y025603D01*
X017148Y025603D01*
X017065Y025637D01*
X017662Y025040D01*
X017773Y024929D01*
X017773Y023079D01*
X017853Y022999D01*
X017964Y022888D01*
X017964Y020591D01*
X018044Y020511D01*
X018057Y020480D01*
X018057Y022992D01*
X018143Y023079D01*
X018143Y024801D01*
X018133Y024811D01*
X018133Y024977D01*
X018433Y025277D01*
X018433Y025874D01*
X018420Y025832D01*
X018389Y025771D01*
X018348Y025715D01*
X018299Y025666D01*
X018244Y025626D01*
X018182Y025595D01*
X018117Y025573D01*
X018049Y025563D01*
X018014Y025563D01*
X018014Y026000D01*
X018014Y026437D01*
X018131Y026422D02*
X018433Y026422D01*
X018433Y026264D02*
X018364Y026264D01*
X018433Y026581D02*
X009736Y026581D01*
X010033Y026264D02*
X010755Y026264D01*
X010755Y026105D02*
X010033Y026105D01*
X010033Y025947D02*
X010755Y025947D01*
X010755Y025788D02*
X010033Y025788D01*
X010033Y025630D02*
X010810Y025630D01*
X011495Y025630D02*
X011795Y025630D01*
X011597Y025788D02*
X011550Y025788D01*
X011550Y026105D02*
X011553Y026105D01*
X011550Y026264D02*
X011641Y026264D01*
X012238Y026264D02*
X012428Y026264D01*
X012340Y026105D02*
X012326Y026105D01*
X012200Y025471D02*
X010033Y025471D01*
X010154Y025313D02*
X012358Y025313D01*
X012517Y025154D02*
X010312Y025154D01*
X010471Y024996D02*
X012675Y024996D01*
X012834Y024837D02*
X010629Y024837D01*
X010788Y024679D02*
X015036Y024679D01*
X015195Y024520D02*
X011433Y024520D01*
X011601Y024362D02*
X015343Y024362D01*
X015343Y024203D02*
X011770Y024203D01*
X011938Y024045D02*
X015343Y024045D01*
X015343Y023886D02*
X012107Y023886D01*
X012275Y023728D02*
X015343Y023728D01*
X015343Y023569D02*
X015206Y023569D01*
X015237Y023538D02*
X015159Y023617D01*
X015056Y023659D01*
X014945Y023659D01*
X014843Y023617D01*
X014764Y023538D01*
X014722Y023436D01*
X014722Y023370D01*
X014561Y023209D01*
X014561Y022190D01*
X014481Y022111D01*
X014433Y021994D01*
X014433Y021867D01*
X014481Y021750D01*
X014571Y021661D01*
X014688Y021612D01*
X014814Y021612D01*
X014931Y021661D01*
X015021Y021750D01*
X015069Y021867D01*
X015069Y021994D01*
X015021Y022111D01*
X014941Y022190D01*
X014941Y023052D01*
X014991Y023102D01*
X015056Y023102D01*
X015159Y023144D01*
X015237Y023222D01*
X015279Y023325D01*
X015279Y023436D01*
X015237Y023538D01*
X015279Y023411D02*
X015343Y023411D01*
X015343Y023252D02*
X015249Y023252D01*
X015343Y023094D02*
X014983Y023094D01*
X014941Y022935D02*
X015343Y022935D01*
X015343Y022777D02*
X014941Y022777D01*
X014941Y022618D02*
X015343Y022618D01*
X015343Y022460D02*
X014941Y022460D01*
X014941Y022301D02*
X015343Y022301D01*
X015343Y022143D02*
X014989Y022143D01*
X015069Y021984D02*
X015343Y021984D01*
X015343Y021826D02*
X015052Y021826D01*
X014938Y021667D02*
X015343Y021667D01*
X015343Y021509D02*
X014173Y021509D01*
X014173Y021667D02*
X014564Y021667D01*
X014450Y021826D02*
X014133Y021826D01*
X014054Y021984D02*
X014433Y021984D01*
X014513Y022143D02*
X013974Y022143D01*
X013791Y022301D02*
X014561Y022301D01*
X014561Y022460D02*
X013622Y022460D01*
X013454Y022618D02*
X014561Y022618D01*
X014561Y022777D02*
X013285Y022777D01*
X013117Y022935D02*
X014561Y022935D01*
X014561Y023094D02*
X012949Y023094D01*
X012780Y023252D02*
X014604Y023252D01*
X014722Y023411D02*
X012612Y023411D01*
X012443Y023569D02*
X014795Y023569D01*
X015924Y024679D02*
X017393Y024679D01*
X017393Y024520D02*
X016023Y024520D01*
X016023Y024362D02*
X017393Y024362D01*
X017393Y024203D02*
X016023Y024203D01*
X016023Y024045D02*
X017393Y024045D01*
X017393Y023886D02*
X016023Y023886D01*
X016023Y023728D02*
X017393Y023728D01*
X017393Y023569D02*
X016023Y023569D01*
X016023Y023411D02*
X017393Y023411D01*
X017393Y023252D02*
X016023Y023252D01*
X016023Y023094D02*
X017393Y023094D01*
X017393Y022935D02*
X016023Y022935D01*
X016023Y022777D02*
X017538Y022777D01*
X017584Y022618D02*
X016023Y022618D01*
X016023Y022460D02*
X017584Y022460D01*
X017584Y022301D02*
X016023Y022301D01*
X016023Y022143D02*
X017584Y022143D01*
X017584Y021984D02*
X016023Y021984D01*
X016023Y021826D02*
X017584Y021826D01*
X017584Y021667D02*
X016589Y021667D01*
X016633Y021509D02*
X017584Y021509D01*
X017584Y021350D02*
X016596Y021350D01*
X016523Y021192D02*
X017584Y021192D01*
X017584Y021033D02*
X016523Y021033D01*
X016523Y020875D02*
X017584Y020875D01*
X017584Y020716D02*
X016523Y020716D01*
X016523Y020558D02*
X017551Y020558D01*
X017458Y020399D02*
X016523Y020399D01*
X016523Y020241D02*
X017467Y020241D01*
X017573Y020082D02*
X016570Y020082D01*
X016729Y019924D02*
X017547Y019924D01*
X017457Y019765D02*
X016887Y019765D01*
X017046Y019607D02*
X017469Y019607D01*
X017577Y019448D02*
X017204Y019448D01*
X016825Y019290D02*
X016813Y019290D01*
X016667Y019448D02*
X016654Y019448D01*
X016508Y019607D02*
X016496Y019607D01*
X016350Y019765D02*
X016337Y019765D01*
X016191Y019924D02*
X016179Y019924D01*
X016143Y020082D02*
X016023Y020082D01*
X016023Y020241D02*
X016143Y020241D01*
X016143Y020399D02*
X016023Y020399D01*
X016023Y020558D02*
X016143Y020558D01*
X016143Y020716D02*
X016023Y020716D01*
X016023Y020875D02*
X016143Y020875D01*
X016143Y021033D02*
X016023Y021033D01*
X016023Y021192D02*
X016143Y021192D01*
X016071Y021350D02*
X016023Y021350D01*
X016023Y021509D02*
X016033Y021509D01*
X016023Y021667D02*
X016078Y021667D01*
X015343Y021350D02*
X014173Y021350D01*
X014173Y021192D02*
X014226Y021192D01*
X014393Y021192D02*
X015343Y021192D01*
X015343Y021033D02*
X014715Y021033D01*
X014873Y020875D02*
X015343Y020875D01*
X015343Y020716D02*
X015023Y020716D01*
X015023Y020558D02*
X015343Y020558D01*
X015343Y020399D02*
X015023Y020399D01*
X015023Y020241D02*
X015343Y020241D01*
X015343Y020082D02*
X015023Y020082D01*
X015023Y019924D02*
X015343Y019924D01*
X015343Y019765D02*
X015023Y019765D01*
X015023Y019607D02*
X015343Y019607D01*
X015343Y019448D02*
X015023Y019448D01*
X015023Y019290D02*
X015051Y019290D01*
X015316Y019290D02*
X015343Y019290D01*
X013833Y019000D02*
X011833Y019000D01*
X011543Y019131D02*
X009933Y019131D01*
X009933Y018973D02*
X011515Y018973D01*
X011569Y018814D02*
X009933Y018814D01*
X009933Y018780D02*
X009933Y021433D01*
X010310Y021810D01*
X010573Y021810D01*
X010573Y021785D01*
X010878Y021480D01*
X011309Y021480D01*
X011613Y021785D01*
X011613Y022215D01*
X011309Y022520D01*
X010878Y022520D01*
X010573Y022215D01*
X010573Y022190D01*
X010152Y022190D01*
X009664Y021702D01*
X009553Y021591D01*
X009553Y018780D01*
X009473Y018700D01*
X009425Y018583D01*
X009425Y018456D01*
X009473Y018339D01*
X009563Y018250D01*
X009680Y018202D01*
X009806Y018202D01*
X009923Y018250D01*
X010012Y018339D01*
X010061Y018456D01*
X010061Y018583D01*
X010012Y018700D01*
X009933Y018780D01*
X010031Y018656D02*
X013523Y018656D01*
X013483Y018497D02*
X010061Y018497D01*
X010011Y018339D02*
X013526Y018339D01*
X013593Y018180D02*
X005513Y018180D01*
X005513Y018022D02*
X013531Y018022D01*
X013483Y017863D02*
X005513Y017863D01*
X005513Y017705D02*
X013519Y017705D01*
X013626Y017546D02*
X005513Y017546D01*
X005513Y017388D02*
X013484Y017388D01*
X013342Y017229D02*
X012054Y017229D01*
X012148Y017071D02*
X013199Y017071D01*
X013057Y016912D02*
X012141Y016912D01*
X012053Y016754D02*
X012915Y016754D01*
X012773Y016595D02*
X012053Y016595D01*
X012053Y016437D02*
X012631Y016437D01*
X012489Y016278D02*
X012053Y016278D01*
X012053Y016120D02*
X012346Y016120D01*
X012204Y015961D02*
X012053Y015961D01*
X011613Y015961D02*
X005513Y015961D01*
X005513Y015803D02*
X011613Y015803D01*
X011613Y015644D02*
X005513Y015644D01*
X005513Y015486D02*
X011613Y015486D01*
X011613Y015327D02*
X005513Y015327D01*
X005513Y015169D02*
X011613Y015169D01*
X011613Y015010D02*
X005513Y015010D01*
X005513Y014852D02*
X011671Y014852D01*
X011833Y015000D02*
X012033Y014800D01*
X013233Y014800D01*
X013333Y014900D01*
X013333Y015700D01*
X013633Y016000D01*
X016333Y016000D01*
X016483Y015850D01*
X016483Y015300D01*
X017283Y014500D01*
X017333Y014500D01*
X017333Y013500D01*
X017117Y013267D02*
X016336Y013267D01*
X016177Y013425D02*
X017020Y013425D01*
X017024Y013584D02*
X016019Y013584D01*
X015860Y013742D02*
X017113Y013742D01*
X017113Y013901D02*
X015702Y013901D01*
X015543Y014059D02*
X017113Y014059D01*
X017113Y014218D02*
X015385Y014218D01*
X015226Y014376D02*
X017096Y014376D01*
X016938Y014535D02*
X015068Y014535D01*
X014909Y014693D02*
X016779Y014693D01*
X016621Y014852D02*
X014751Y014852D01*
X014592Y015010D02*
X016462Y015010D01*
X016304Y015169D02*
X014434Y015169D01*
X014275Y015327D02*
X016263Y015327D01*
X016263Y015486D02*
X014117Y015486D01*
X014068Y015644D02*
X016263Y015644D01*
X017333Y015500D02*
X017333Y014500D01*
X018383Y015000D02*
X018733Y014650D01*
X018733Y012800D01*
X018533Y012450D01*
X019133Y011850D01*
X019451Y011840D02*
X019533Y011840D01*
X019558Y011682D02*
X019408Y011682D01*
X019366Y011523D02*
X019718Y011523D01*
X019949Y011523D02*
X020196Y011523D01*
X020181Y011365D02*
X019549Y011365D01*
X019852Y011206D02*
X020181Y011206D01*
X020181Y011048D02*
X019933Y011048D01*
X019912Y010889D02*
X020187Y010889D01*
X020114Y010731D02*
X019767Y010731D01*
X019500Y010731D02*
X018872Y010731D01*
X018713Y010889D02*
X019355Y010889D01*
X019243Y011048D02*
X018555Y011048D01*
X018396Y011206D02*
X019060Y011206D01*
X018877Y011365D02*
X018238Y011365D01*
X018079Y011523D02*
X018694Y011523D01*
X018541Y011682D02*
X017921Y011682D01*
X017762Y011840D02*
X018382Y011840D01*
X018224Y011999D02*
X017604Y011999D01*
X017933Y012600D02*
X017933Y015600D01*
X018153Y015644D02*
X018283Y015644D01*
X018283Y015612D02*
X018329Y015501D01*
X018413Y015417D01*
X018524Y015371D01*
X018615Y015371D01*
X019093Y014893D01*
X019093Y013934D01*
X019029Y013870D01*
X018983Y013760D01*
X018983Y013640D01*
X019029Y013530D01*
X019113Y013446D01*
X019224Y013400D01*
X019343Y013400D01*
X019453Y013446D01*
X019538Y013530D01*
X019583Y013640D01*
X019583Y013760D01*
X019538Y013870D01*
X019473Y013934D01*
X019473Y015050D01*
X019362Y015161D01*
X018883Y015640D01*
X018883Y015731D01*
X018838Y015841D01*
X018753Y015926D01*
X018643Y015971D01*
X018524Y015971D01*
X018413Y015926D01*
X018329Y015841D01*
X018283Y015731D01*
X018283Y015612D01*
X018345Y015486D02*
X018153Y015486D01*
X018153Y015327D02*
X018659Y015327D01*
X018658Y015169D02*
X018817Y015169D01*
X018701Y015010D02*
X018976Y015010D01*
X019093Y014852D02*
X018843Y014852D01*
X018953Y014693D02*
X019093Y014693D01*
X019093Y014535D02*
X018953Y014535D01*
X018953Y014376D02*
X019093Y014376D01*
X019093Y014218D02*
X018953Y014218D01*
X018953Y014059D02*
X019093Y014059D01*
X019060Y013901D02*
X018953Y013901D01*
X018953Y013742D02*
X018983Y013742D01*
X019007Y013584D02*
X018953Y013584D01*
X018953Y013425D02*
X019163Y013425D01*
X019403Y013425D02*
X019643Y013425D01*
X019643Y013267D02*
X018953Y013267D01*
X018953Y013108D02*
X019643Y013108D01*
X019643Y012950D02*
X018953Y012950D01*
X018964Y012791D02*
X019643Y012791D01*
X019643Y012633D02*
X018891Y012633D01*
X018820Y012474D02*
X019643Y012474D01*
X019643Y012316D02*
X018979Y012316D01*
X019223Y012157D02*
X019643Y012157D01*
X019608Y011999D02*
X019416Y011999D01*
X018883Y011650D02*
X017933Y012600D01*
X016749Y012316D02*
X005513Y012316D01*
X005513Y012474D02*
X016591Y012474D01*
X016432Y012633D02*
X005513Y012633D01*
X005513Y012791D02*
X016274Y012791D01*
X016115Y012950D02*
X005513Y012950D01*
X005513Y013108D02*
X015957Y013108D01*
X015798Y013267D02*
X005513Y013267D01*
X005513Y013425D02*
X015640Y013425D01*
X015481Y013584D02*
X005513Y013584D01*
X005513Y013742D02*
X015323Y013742D01*
X015164Y013901D02*
X005513Y013901D01*
X005513Y014059D02*
X015006Y014059D01*
X014847Y014218D02*
X005513Y014218D01*
X005513Y014376D02*
X014689Y014376D01*
X014530Y014535D02*
X005513Y014535D01*
X005513Y014693D02*
X011829Y014693D01*
X011833Y015000D02*
X011833Y017000D01*
X011612Y017229D02*
X005513Y017229D01*
X005513Y017071D02*
X011518Y017071D01*
X011525Y016912D02*
X005513Y016912D01*
X005513Y016754D02*
X011613Y016754D01*
X011613Y016595D02*
X005513Y016595D01*
X005513Y016437D02*
X011613Y016437D01*
X011613Y016278D02*
X005513Y016278D01*
X005513Y016120D02*
X011613Y016120D01*
X013437Y014693D02*
X014372Y014693D01*
X014213Y014852D02*
X013553Y014852D01*
X013553Y015010D02*
X014055Y015010D01*
X013896Y015169D02*
X013553Y015169D01*
X013553Y015327D02*
X013582Y015327D01*
X015333Y017000D02*
X015183Y017150D01*
X013701Y019290D02*
X011966Y019290D01*
X011701Y019290D02*
X009933Y019290D01*
X009933Y019448D02*
X013683Y019448D01*
X013759Y019607D02*
X009933Y019607D01*
X009933Y019765D02*
X013793Y019765D01*
X013793Y019924D02*
X009933Y019924D01*
X009933Y020082D02*
X013793Y020082D01*
X013793Y020241D02*
X009933Y020241D01*
X009933Y020399D02*
X013793Y020399D01*
X013793Y020558D02*
X009933Y020558D01*
X009933Y020716D02*
X013793Y020716D01*
X013793Y020875D02*
X009933Y020875D01*
X009933Y021033D02*
X013793Y021033D01*
X013793Y021192D02*
X009933Y021192D01*
X009933Y021350D02*
X013793Y021350D01*
X013793Y021509D02*
X011337Y021509D01*
X011496Y021667D02*
X013787Y021667D01*
X013708Y021826D02*
X011613Y021826D01*
X011613Y021984D02*
X013573Y021984D01*
X013405Y022143D02*
X011613Y022143D01*
X011528Y022301D02*
X013236Y022301D01*
X013068Y022460D02*
X011946Y022460D01*
X011791Y022460D02*
X011369Y022460D01*
X011588Y022618D02*
X005513Y022618D01*
X005513Y022460D02*
X006824Y022460D01*
X006924Y022560D02*
X006596Y022232D01*
X006596Y022020D01*
X007136Y022020D01*
X007136Y021980D01*
X006596Y021980D01*
X006596Y021768D01*
X006924Y021440D01*
X007136Y021440D01*
X007136Y021980D01*
X007176Y021980D01*
X007176Y021440D01*
X007388Y021440D01*
X007716Y021768D01*
X007716Y021980D01*
X007176Y021980D01*
X007176Y022020D01*
X007136Y022020D01*
X007136Y022560D01*
X006924Y022560D01*
X007136Y022460D02*
X007176Y022460D01*
X007176Y022560D02*
X007388Y022560D01*
X007716Y022232D01*
X007716Y022020D01*
X007176Y022020D01*
X007176Y022560D01*
X007176Y022301D02*
X007136Y022301D01*
X007136Y022143D02*
X007176Y022143D01*
X007176Y021984D02*
X009946Y021984D01*
X009788Y021826D02*
X007716Y021826D01*
X007615Y021667D02*
X009629Y021667D01*
X009553Y021509D02*
X007457Y021509D01*
X007176Y021509D02*
X007136Y021509D01*
X007136Y021667D02*
X007176Y021667D01*
X007176Y021826D02*
X007136Y021826D01*
X007136Y021984D02*
X005513Y021984D01*
X005513Y021826D02*
X006596Y021826D01*
X006697Y021667D02*
X005513Y021667D01*
X005513Y021509D02*
X006856Y021509D01*
X006596Y022143D02*
X005513Y022143D01*
X005513Y022301D02*
X006665Y022301D01*
X007489Y022460D02*
X010817Y022460D01*
X010659Y022301D02*
X007647Y022301D01*
X007716Y022143D02*
X010105Y022143D01*
X010167Y021667D02*
X010691Y021667D01*
X010849Y021509D02*
X010008Y021509D01*
X009553Y021350D02*
X005513Y021350D01*
X005513Y021192D02*
X009553Y021192D01*
X009553Y021033D02*
X005513Y021033D01*
X005513Y020875D02*
X009553Y020875D01*
X009553Y020716D02*
X005513Y020716D01*
X005513Y020558D02*
X009553Y020558D01*
X009553Y020399D02*
X005513Y020399D01*
X005513Y020241D02*
X009553Y020241D01*
X009553Y020082D02*
X005513Y020082D01*
X005513Y019924D02*
X009553Y019924D01*
X009553Y019765D02*
X005513Y019765D01*
X005513Y019607D02*
X009553Y019607D01*
X009553Y019448D02*
X005513Y019448D01*
X005513Y019290D02*
X009553Y019290D01*
X009553Y019131D02*
X005513Y019131D01*
X005513Y018973D02*
X009553Y018973D01*
X009553Y018814D02*
X005513Y018814D01*
X005513Y018656D02*
X009455Y018656D01*
X009425Y018497D02*
X005513Y018497D01*
X005513Y018339D02*
X009474Y018339D01*
X011551Y022777D02*
X005513Y022777D01*
X005513Y022935D02*
X011437Y022935D01*
X011278Y023094D02*
X005513Y023094D01*
X005513Y023252D02*
X011120Y023252D01*
X010961Y023411D02*
X005513Y023411D01*
X005513Y023569D02*
X010803Y023569D01*
X010644Y023728D02*
X005513Y023728D01*
X005513Y023886D02*
X010486Y023886D01*
X010865Y024045D02*
X011384Y024045D01*
X011215Y024203D02*
X010869Y024203D01*
X011023Y023886D02*
X011552Y023886D01*
X011721Y023728D02*
X011182Y023728D01*
X011340Y023569D02*
X011889Y023569D01*
X012057Y023411D02*
X011499Y023411D01*
X011657Y023252D02*
X012226Y023252D01*
X012394Y023094D02*
X011816Y023094D01*
X012145Y022935D02*
X012563Y022935D01*
X012731Y022777D02*
X012187Y022777D01*
X012149Y022618D02*
X012899Y022618D01*
X015421Y025154D02*
X017011Y025154D01*
X017169Y024996D02*
X015588Y024996D01*
X015754Y024837D02*
X017328Y024837D01*
X017548Y025154D02*
X018311Y025154D01*
X018433Y025313D02*
X017390Y025313D01*
X017231Y025471D02*
X018433Y025471D01*
X018433Y025630D02*
X018249Y025630D01*
X018397Y025788D02*
X018433Y025788D01*
X018014Y025788D02*
X018014Y025788D01*
X018014Y025630D02*
X018014Y025630D01*
X017780Y025630D02*
X017371Y025630D01*
X017569Y025788D02*
X017631Y025788D01*
X018014Y025947D02*
X018014Y025947D01*
X018014Y026105D02*
X018014Y026105D01*
X018014Y026264D02*
X018014Y026264D01*
X017665Y026264D02*
X017526Y026264D01*
X016928Y026264D02*
X016738Y026264D01*
X016826Y026105D02*
X016840Y026105D01*
X017073Y025630D02*
X017083Y025630D01*
X016852Y025313D02*
X015254Y025313D01*
X015087Y025471D02*
X016694Y025471D01*
X016295Y025630D02*
X015995Y025630D01*
X016050Y025788D02*
X016097Y025788D01*
X016050Y026105D02*
X016053Y026105D01*
X016050Y026264D02*
X016141Y026264D01*
X015310Y025630D02*
X014923Y025630D01*
X015255Y025788D02*
X013897Y025788D01*
X013949Y025947D02*
X015255Y025947D01*
X015255Y026105D02*
X013940Y026105D01*
X013952Y026000D02*
X013514Y026000D01*
X013514Y026000D01*
X013952Y026000D01*
X013864Y026264D02*
X015255Y026264D01*
X013514Y026264D02*
X013514Y026264D01*
X013514Y026105D02*
X013514Y026105D01*
X013165Y026264D02*
X013026Y026264D01*
X009014Y026000D02*
X009014Y026000D01*
X009014Y025947D02*
X009014Y025947D01*
X007686Y025471D02*
X005513Y025471D01*
X005513Y025313D02*
X006448Y025313D01*
X006698Y025416D01*
X006969Y025416D01*
X007219Y025313D01*
X007295Y025630D02*
X006995Y025630D01*
X007050Y025788D02*
X007097Y025788D01*
X006289Y025154D02*
X005513Y025154D01*
X005513Y024996D02*
X006205Y024996D01*
X006153Y024837D02*
X005513Y024837D01*
X005513Y024679D02*
X006153Y024679D01*
X006187Y024520D02*
X005513Y024520D01*
X005513Y024362D02*
X006253Y024362D01*
X005513Y027532D02*
X020132Y027532D01*
X020132Y027690D02*
X005513Y027690D01*
X005513Y027849D02*
X019919Y027849D01*
X019760Y028007D02*
X005513Y028007D01*
X005513Y028166D02*
X019680Y028166D01*
X019632Y028324D02*
X005513Y028324D01*
X005513Y028483D02*
X019632Y028483D01*
X019669Y028641D02*
X005513Y028641D01*
X005514Y028800D02*
X019735Y028800D01*
X019892Y028958D02*
X005547Y028958D01*
X005634Y029117D02*
X020125Y029117D01*
X020124Y029275D02*
X005849Y029275D01*
X017707Y024996D02*
X018152Y024996D01*
X018133Y024837D02*
X017773Y024837D01*
X017773Y024679D02*
X018143Y024679D01*
X018143Y024520D02*
X017773Y024520D01*
X017773Y024362D02*
X018143Y024362D01*
X018143Y024203D02*
X017773Y024203D01*
X017773Y024045D02*
X018143Y024045D01*
X018143Y023886D02*
X017773Y023886D01*
X017773Y023728D02*
X018143Y023728D01*
X018143Y023569D02*
X017773Y023569D01*
X017773Y023411D02*
X018143Y023411D01*
X018143Y023252D02*
X017773Y023252D01*
X017773Y023094D02*
X018143Y023094D01*
X018057Y022935D02*
X017917Y022935D01*
X017964Y022777D02*
X018057Y022777D01*
X018057Y022618D02*
X017964Y022618D01*
X017964Y022460D02*
X018057Y022460D01*
X018057Y022301D02*
X017964Y022301D01*
X017964Y022143D02*
X018057Y022143D01*
X018057Y021984D02*
X017964Y021984D01*
X017964Y021826D02*
X018057Y021826D01*
X018057Y021667D02*
X017964Y021667D01*
X017964Y021509D02*
X018057Y021509D01*
X018057Y021350D02*
X017964Y021350D01*
X017964Y021192D02*
X018057Y021192D01*
X018057Y021033D02*
X017964Y021033D01*
X017964Y020875D02*
X018057Y020875D01*
X018057Y020716D02*
X017964Y020716D01*
X017997Y020558D02*
X018057Y020558D01*
X017723Y018814D02*
X023447Y018814D01*
X023461Y018650D02*
X023253Y018650D01*
X023253Y018120D01*
X023213Y018120D01*
X023213Y018080D01*
X022683Y018080D01*
X022683Y017872D01*
X022984Y017572D01*
X022723Y017311D01*
X022723Y016889D01*
X023012Y016600D01*
X022723Y016311D01*
X022723Y015889D01*
X023022Y015590D01*
X023445Y015590D01*
X023733Y015879D01*
X024022Y015590D01*
X024445Y015590D01*
X024743Y015889D01*
X024743Y016311D01*
X024455Y016600D01*
X024743Y016889D01*
X024743Y017311D01*
X024455Y017600D01*
X024743Y017889D01*
X024743Y018311D01*
X024445Y018610D01*
X024022Y018610D01*
X023762Y018350D01*
X023461Y018650D01*
X023614Y018497D02*
X023909Y018497D01*
X023283Y018854D02*
X023283Y018854D01*
X023213Y018650D02*
X023006Y018650D01*
X022683Y018328D01*
X022683Y018120D01*
X023213Y018120D01*
X023213Y018650D01*
X023213Y018497D02*
X023253Y018497D01*
X023253Y018339D02*
X023213Y018339D01*
X023213Y018180D02*
X023253Y018180D01*
X022853Y018497D02*
X021105Y018497D01*
X021264Y018339D02*
X022694Y018339D01*
X022683Y018180D02*
X021422Y018180D01*
X021581Y018022D02*
X022683Y018022D01*
X022692Y017863D02*
X021739Y017863D01*
X021898Y017705D02*
X022851Y017705D01*
X022958Y017546D02*
X022056Y017546D01*
X022215Y017388D02*
X022800Y017388D01*
X022723Y017229D02*
X022529Y017229D01*
X022629Y017071D02*
X022723Y017071D01*
X022723Y016912D02*
X022622Y016912D01*
X022511Y016754D02*
X022859Y016754D01*
X023007Y016595D02*
X020063Y016595D01*
X020133Y016437D02*
X022849Y016437D01*
X022723Y016278D02*
X020108Y016278D01*
X020023Y016120D02*
X022723Y016120D01*
X022723Y015961D02*
X020023Y015961D01*
X020023Y015803D02*
X022810Y015803D01*
X022968Y015644D02*
X020023Y015644D01*
X020023Y015486D02*
X027973Y015486D01*
X027973Y015644D02*
X024499Y015644D01*
X024657Y015803D02*
X027973Y015803D01*
X027973Y015961D02*
X024743Y015961D01*
X024743Y016120D02*
X027973Y016120D01*
X027973Y016278D02*
X024743Y016278D01*
X024618Y016437D02*
X027973Y016437D01*
X027973Y016595D02*
X024460Y016595D01*
X024608Y016754D02*
X027973Y016754D01*
X027973Y016912D02*
X024743Y016912D01*
X024743Y017071D02*
X027973Y017071D01*
X027973Y017229D02*
X024743Y017229D01*
X024667Y017388D02*
X027973Y017388D01*
X027973Y017546D02*
X024509Y017546D01*
X024559Y017705D02*
X027973Y017705D01*
X027973Y017863D02*
X024718Y017863D01*
X024743Y018022D02*
X027973Y018022D01*
X027973Y018180D02*
X024743Y018180D01*
X024716Y018339D02*
X027973Y018339D01*
X027973Y018497D02*
X024558Y018497D01*
X025015Y018814D02*
X027973Y018814D01*
X027973Y018656D02*
X020947Y018656D01*
X021836Y017229D02*
X018373Y017229D01*
X018532Y017071D02*
X021994Y017071D01*
X022045Y016912D02*
X018690Y016912D01*
X018849Y016754D02*
X022156Y016754D01*
X023499Y015644D02*
X023968Y015644D01*
X023810Y015803D02*
X023657Y015803D01*
X023762Y014340D02*
X022268Y014340D01*
X022203Y014404D01*
X022093Y014450D01*
X021974Y014450D01*
X021863Y014404D01*
X021779Y014320D01*
X021733Y014210D01*
X021733Y014090D01*
X021779Y013980D01*
X021863Y013896D01*
X021974Y013850D01*
X022093Y013850D01*
X022203Y013896D01*
X022268Y013960D01*
X023605Y013960D01*
X023643Y013921D01*
X023643Y010234D01*
X023579Y010170D01*
X023533Y010060D01*
X023533Y009940D01*
X023579Y009830D01*
X023663Y009746D01*
X023774Y009700D01*
X023893Y009700D01*
X024003Y009746D01*
X024088Y009830D01*
X024133Y009940D01*
X024133Y010060D01*
X024088Y010170D01*
X024023Y010234D01*
X024023Y014079D01*
X023912Y014190D01*
X023873Y014229D01*
X023762Y014340D01*
X023885Y014218D02*
X027973Y014218D01*
X027973Y014376D02*
X022232Y014376D01*
X022208Y013901D02*
X023643Y013901D01*
X023643Y013742D02*
X020023Y013742D01*
X020023Y013584D02*
X023643Y013584D01*
X023643Y013425D02*
X020023Y013425D01*
X020023Y013267D02*
X023643Y013267D01*
X023643Y013108D02*
X021446Y013108D01*
X021446Y012950D02*
X023643Y012950D01*
X023643Y012791D02*
X021446Y012791D01*
X021446Y012633D02*
X023643Y012633D01*
X023643Y012474D02*
X021427Y012474D01*
X021407Y012316D02*
X023643Y012316D01*
X023643Y012157D02*
X021259Y012157D01*
X021095Y011999D02*
X023643Y011999D01*
X023643Y011840D02*
X021031Y011840D01*
X021163Y011682D02*
X023643Y011682D01*
X023643Y011523D02*
X021430Y011523D01*
X021446Y011365D02*
X023643Y011365D01*
X023643Y011206D02*
X021446Y011206D01*
X021446Y011048D02*
X023643Y011048D01*
X023643Y010889D02*
X021446Y010889D01*
X021407Y010731D02*
X023643Y010731D01*
X023643Y010572D02*
X021407Y010572D01*
X021407Y010414D02*
X023643Y010414D01*
X023643Y010255D02*
X021357Y010255D01*
X021226Y010097D02*
X023549Y010097D01*
X023534Y009938D02*
X021094Y009938D01*
X020962Y009780D02*
X023630Y009780D01*
X024037Y009780D02*
X027973Y009780D01*
X027973Y009938D02*
X024132Y009938D01*
X024118Y010097D02*
X027973Y010097D01*
X027973Y010255D02*
X024023Y010255D01*
X024023Y010414D02*
X027973Y010414D01*
X027973Y010572D02*
X024023Y010572D01*
X024023Y010731D02*
X027973Y010731D01*
X027973Y010889D02*
X024023Y010889D01*
X024023Y011048D02*
X027973Y011048D01*
X027973Y011206D02*
X024023Y011206D01*
X024023Y011365D02*
X027973Y011365D01*
X027973Y011523D02*
X024023Y011523D01*
X024023Y011682D02*
X027973Y011682D01*
X027973Y011840D02*
X024023Y011840D01*
X024023Y011999D02*
X027973Y011999D01*
X027973Y012157D02*
X024023Y012157D01*
X024023Y012316D02*
X027973Y012316D01*
X027973Y012474D02*
X024023Y012474D01*
X024023Y012633D02*
X027973Y012633D01*
X027973Y012791D02*
X024023Y012791D01*
X024023Y012950D02*
X027973Y012950D01*
X027973Y013108D02*
X024023Y013108D01*
X024023Y013267D02*
X027973Y013267D01*
X027973Y013425D02*
X024023Y013425D01*
X024023Y013584D02*
X027973Y013584D01*
X027973Y013742D02*
X024023Y013742D01*
X024023Y013901D02*
X027973Y013901D01*
X027973Y014059D02*
X024023Y014059D01*
X021859Y013901D02*
X020023Y013901D01*
X020023Y014059D02*
X021746Y014059D01*
X021737Y014218D02*
X020023Y014218D01*
X020023Y014376D02*
X021835Y014376D01*
X020961Y013243D02*
X020961Y013133D01*
X020961Y013133D01*
X020961Y013243D01*
X020705Y013243D02*
X020705Y013133D01*
X020705Y013243D01*
X020705Y013133D02*
X020705Y013133D01*
X020705Y013133D01*
X020449Y013133D02*
X020449Y013243D01*
X020449Y013133D01*
X020449Y013133D01*
X020187Y013108D02*
X020023Y013108D01*
X020023Y012950D02*
X020181Y012950D01*
X020181Y012807D02*
X020449Y012807D01*
X020181Y012807D01*
X020181Y012791D02*
X020023Y012791D01*
X020023Y012633D02*
X020181Y012633D01*
X020198Y012474D02*
X020023Y012474D01*
X020023Y012316D02*
X020577Y012316D01*
X020533Y012157D02*
X020023Y012157D01*
X020059Y011999D02*
X020571Y011999D01*
X020449Y012474D02*
X020449Y012474D01*
X020449Y012807D02*
X020449Y012807D01*
X020705Y012807D01*
X020705Y012807D01*
X020449Y012807D01*
X020449Y012807D01*
X020705Y012807D02*
X020961Y012807D01*
X020961Y012807D01*
X020705Y012807D01*
X020705Y012807D01*
X019643Y013584D02*
X019560Y013584D01*
X019583Y013742D02*
X019643Y013742D01*
X019643Y013901D02*
X019507Y013901D01*
X019473Y014059D02*
X019643Y014059D01*
X019643Y014218D02*
X019473Y014218D01*
X019473Y014376D02*
X019643Y014376D01*
X019643Y014535D02*
X019473Y014535D01*
X019473Y014693D02*
X019643Y014693D01*
X019643Y014852D02*
X019473Y014852D01*
X019473Y015010D02*
X019643Y015010D01*
X019643Y015169D02*
X019355Y015169D01*
X019196Y015327D02*
X019643Y015327D01*
X019643Y015486D02*
X019038Y015486D01*
X018883Y015644D02*
X019643Y015644D01*
X019643Y015803D02*
X018854Y015803D01*
X018668Y015961D02*
X019643Y015961D01*
X019643Y016120D02*
X017853Y016120D01*
X017853Y016278D02*
X018787Y016278D01*
X018743Y016321D02*
X018743Y016321D01*
X018628Y016437D02*
X017853Y016437D01*
X017749Y016595D02*
X018470Y016595D01*
X019007Y016595D02*
X019604Y016595D01*
X018499Y015961D02*
X017883Y015961D01*
X018042Y015803D02*
X018313Y015803D01*
X020023Y015327D02*
X027973Y015327D01*
X027973Y015169D02*
X020023Y015169D01*
X020023Y015010D02*
X027973Y015010D01*
X027973Y014852D02*
X020023Y014852D01*
X020023Y014693D02*
X027973Y014693D01*
X027973Y014535D02*
X020023Y014535D01*
X018883Y011650D02*
X019633Y011000D01*
X020019Y010572D02*
X019030Y010572D01*
X019189Y010414D02*
X020025Y010414D01*
X020128Y010255D02*
X019502Y010255D01*
X019618Y010097D02*
X020732Y010097D01*
X020863Y010255D02*
X020538Y010255D01*
X020600Y009938D02*
X019632Y009938D01*
X019537Y009780D02*
X020468Y009780D01*
X020699Y009463D02*
X027973Y009463D01*
X027973Y009621D02*
X020831Y009621D01*
X020980Y010414D02*
X020995Y010414D01*
X020449Y010796D02*
X020449Y011193D01*
X020449Y011610D01*
X020449Y011610D01*
X020449Y011193D01*
X020449Y011193D01*
X020449Y010796D01*
X020449Y010796D01*
X020449Y010889D02*
X020449Y010889D01*
X020449Y011048D02*
X020449Y011048D01*
X020449Y011193D02*
X020449Y011193D01*
X020477Y011193D01*
X020477Y011193D01*
X020449Y011193D01*
X020449Y011193D01*
X020449Y011206D02*
X020449Y011206D01*
X020449Y011365D02*
X020449Y011365D01*
X020449Y011523D02*
X020449Y011523D01*
X020983Y011550D02*
X020983Y011193D01*
X017393Y009146D02*
X015773Y009146D01*
X015773Y009304D02*
X017275Y009304D01*
X017129Y009463D02*
X015773Y009463D01*
X015773Y009621D02*
X016982Y009621D01*
X016836Y009780D02*
X015773Y009780D01*
X015773Y009938D02*
X016690Y009938D01*
X016543Y010097D02*
X015773Y010097D01*
X015747Y010255D02*
X016397Y010255D01*
X016251Y010414D02*
X015640Y010414D01*
X015538Y010572D02*
X016104Y010572D01*
X015958Y010731D02*
X015436Y010731D01*
X015334Y010889D02*
X015812Y010889D01*
X016036Y011206D02*
X016613Y011206D01*
X016613Y011048D02*
X016183Y011048D01*
X016329Y010889D02*
X016613Y010889D01*
X016613Y010731D02*
X016475Y010731D01*
X016833Y010500D02*
X016833Y012000D01*
X016515Y011999D02*
X005513Y011999D01*
X005513Y012157D02*
X016554Y012157D01*
X016555Y011840D02*
X005513Y011840D01*
X005513Y011682D02*
X016613Y011682D01*
X016613Y011523D02*
X010530Y011523D01*
X010551Y011516D02*
X010480Y011539D01*
X010405Y011551D01*
X010387Y011551D01*
X010387Y010791D01*
X010847Y010791D01*
X010847Y011109D01*
X010835Y011184D01*
X010812Y011256D01*
X010778Y011323D01*
X010733Y011384D01*
X010680Y011437D01*
X010619Y011482D01*
X010551Y011516D01*
X010387Y011523D02*
X010347Y011523D01*
X010347Y011551D02*
X010329Y011551D01*
X010255Y011539D01*
X010183Y011516D01*
X010116Y011482D01*
X010054Y011437D01*
X010001Y011384D01*
X009957Y011323D01*
X009922Y011256D01*
X009899Y011184D01*
X009887Y011109D01*
X009887Y010791D01*
X010347Y010791D01*
X010347Y010751D01*
X010387Y010751D01*
X010387Y009991D01*
X010405Y009991D01*
X010480Y010003D01*
X010551Y010026D01*
X010619Y010061D01*
X010680Y010105D01*
X010733Y010159D01*
X010778Y010220D01*
X010812Y010287D01*
X010835Y010359D01*
X010847Y010433D01*
X010847Y010751D01*
X010387Y010751D01*
X010387Y010791D01*
X010347Y010791D01*
X010347Y011551D01*
X010204Y011523D02*
X005513Y011523D01*
X005513Y011365D02*
X009038Y011365D01*
X008994Y011320D02*
X009118Y011444D01*
X009280Y011511D01*
X009455Y011511D01*
X009616Y011444D01*
X009740Y011320D01*
X009807Y011159D01*
X009807Y010384D01*
X009740Y010222D01*
X009616Y010098D01*
X009455Y010031D01*
X009280Y010031D01*
X009118Y010098D01*
X008994Y010222D01*
X008927Y010384D01*
X008927Y011159D01*
X008994Y011320D01*
X008947Y011206D02*
X005513Y011206D01*
X005513Y011048D02*
X008281Y011048D01*
X008264Y011030D02*
X008215Y010913D01*
X008215Y010787D01*
X008264Y010670D01*
X008313Y010620D01*
X008313Y009991D01*
X007363Y009041D01*
X007363Y008859D01*
X007492Y008730D01*
X007674Y008730D01*
X008624Y009680D01*
X008753Y009809D01*
X008753Y010620D01*
X008803Y010670D01*
X008851Y010787D01*
X008851Y010913D01*
X008803Y011030D01*
X008714Y011120D01*
X008597Y011168D01*
X008470Y011168D01*
X008353Y011120D01*
X008264Y011030D01*
X008215Y010889D02*
X005513Y010889D01*
X005513Y010731D02*
X008239Y010731D01*
X008313Y010572D02*
X005513Y010572D01*
X005513Y010414D02*
X008313Y010414D01*
X008313Y010255D02*
X005513Y010255D01*
X005513Y010097D02*
X008313Y010097D01*
X008260Y009938D02*
X005513Y009938D01*
X005513Y009780D02*
X008102Y009780D01*
X007943Y009621D02*
X005513Y009621D01*
X005513Y009463D02*
X007785Y009463D01*
X007626Y009304D02*
X005513Y009304D01*
X005513Y009146D02*
X007468Y009146D01*
X007363Y008987D02*
X005513Y008987D01*
X005513Y008829D02*
X007394Y008829D01*
X007583Y008950D02*
X008533Y009900D01*
X008533Y010850D01*
X008828Y010731D02*
X008927Y010731D01*
X008927Y010889D02*
X008851Y010889D01*
X008786Y011048D02*
X008927Y011048D01*
X008927Y010572D02*
X008753Y010572D01*
X008753Y010414D02*
X008927Y010414D01*
X008981Y010255D02*
X008753Y010255D01*
X008753Y010097D02*
X009122Y010097D01*
X008753Y009938D02*
X015393Y009938D01*
X015393Y009780D02*
X008724Y009780D01*
X008565Y009621D02*
X012833Y009621D01*
X012833Y009633D02*
X012833Y009405D01*
X012808Y009395D01*
X012718Y009305D01*
X012629Y009395D01*
X012482Y009455D01*
X012324Y009455D01*
X012178Y009395D01*
X012066Y009283D01*
X012006Y009137D01*
X012006Y008979D01*
X012016Y008954D01*
X011763Y008700D01*
X011055Y008700D01*
X011002Y008753D01*
X010893Y008798D01*
X010774Y008798D01*
X010664Y008753D01*
X010580Y008669D01*
X010535Y008559D01*
X010535Y008441D01*
X010580Y008331D01*
X010664Y008247D01*
X010774Y008202D01*
X010893Y008202D01*
X010965Y008232D01*
X010914Y008180D01*
X010865Y008063D01*
X010865Y007937D01*
X010914Y007820D01*
X011003Y007730D01*
X011120Y007682D01*
X011247Y007682D01*
X011315Y007710D01*
X011335Y007701D01*
X011199Y007644D01*
X011002Y007447D01*
X010895Y007189D01*
X010895Y006911D01*
X011002Y006653D01*
X011199Y006456D01*
X011457Y006349D01*
X011736Y006349D01*
X011993Y006456D01*
X012191Y006653D01*
X012297Y006911D01*
X012297Y007189D01*
X012191Y007447D01*
X011993Y007644D01*
X011980Y007650D01*
X013016Y007650D01*
X013116Y007750D01*
X013866Y007750D01*
X014416Y008300D01*
X014533Y008417D01*
X014533Y009383D01*
X014283Y009633D01*
X014166Y009750D01*
X012950Y009750D01*
X012833Y009633D01*
X012833Y009463D02*
X008407Y009463D01*
X008248Y009304D02*
X012087Y009304D01*
X012009Y009146D02*
X008090Y009146D01*
X007931Y008987D02*
X012006Y008987D01*
X011891Y008829D02*
X007773Y008829D01*
X007697Y008318D02*
X007570Y008318D01*
X007453Y008270D01*
X007364Y008180D01*
X007315Y008063D01*
X007315Y007980D01*
X007219Y008076D01*
X006969Y008180D01*
X006698Y008180D01*
X006448Y008076D01*
X006257Y007885D01*
X006153Y007635D01*
X006153Y007365D01*
X006257Y007115D01*
X006448Y006924D01*
X006698Y006820D01*
X006969Y006820D01*
X007219Y006924D01*
X007410Y007115D01*
X007513Y007365D01*
X007513Y007635D01*
X007478Y007720D01*
X007570Y007682D01*
X007697Y007682D01*
X007814Y007730D01*
X007903Y007820D01*
X007951Y007937D01*
X007951Y008063D01*
X007903Y008180D01*
X007814Y008270D01*
X007697Y008318D01*
X007889Y008195D02*
X010928Y008195D01*
X010865Y008036D02*
X007951Y008036D01*
X007927Y007878D02*
X010890Y007878D01*
X011030Y007719D02*
X007786Y007719D01*
X007480Y007719D02*
X007479Y007719D01*
X007513Y007561D02*
X011115Y007561D01*
X010983Y007402D02*
X007513Y007402D01*
X007463Y007244D02*
X010918Y007244D01*
X010895Y007085D02*
X007380Y007085D01*
X007221Y006927D02*
X010895Y006927D01*
X010954Y006768D02*
X005542Y006768D01*
X005519Y006927D02*
X006445Y006927D01*
X006287Y007085D02*
X005513Y007085D01*
X005513Y007244D02*
X006204Y007244D01*
X006153Y007402D02*
X005513Y007402D01*
X005513Y007561D02*
X006153Y007561D01*
X006188Y007719D02*
X005513Y007719D01*
X005513Y007878D02*
X006254Y007878D01*
X006408Y008036D02*
X005513Y008036D01*
X005513Y008195D02*
X007378Y008195D01*
X007315Y008036D02*
X007259Y008036D01*
X005584Y006610D02*
X011045Y006610D01*
X011211Y006451D02*
X005631Y006451D01*
X006178Y005817D02*
X027718Y005817D01*
X027478Y005659D02*
X006514Y005659D01*
X005513Y008353D02*
X010571Y008353D01*
X010535Y008512D02*
X005513Y008512D01*
X005513Y008670D02*
X010581Y008670D01*
X011290Y008300D02*
X011928Y008300D01*
X012299Y008671D01*
X012321Y008662D01*
X012321Y008506D01*
X012381Y008360D01*
X012493Y008248D01*
X012639Y008188D01*
X012797Y008188D01*
X012944Y008248D01*
X013033Y008338D01*
X013123Y008248D01*
X013269Y008188D01*
X013427Y008188D01*
X013573Y008248D01*
X013685Y008360D01*
X013746Y008506D01*
X013746Y008628D01*
X013766Y008631D01*
X013831Y008652D01*
X013893Y008684D01*
X013948Y008724D01*
X013997Y008773D01*
X014037Y008829D01*
X014069Y008890D01*
X014090Y008955D01*
X014101Y009023D01*
X014101Y009058D01*
X014101Y009092D01*
X014090Y009160D01*
X014069Y009226D01*
X014037Y009287D01*
X013997Y009343D01*
X013990Y009350D01*
X014000Y009350D01*
X014133Y009217D01*
X014133Y008583D01*
X013700Y008150D01*
X012950Y008150D01*
X012850Y008050D01*
X011531Y008050D01*
X011501Y008065D01*
X011453Y008180D01*
X011364Y008270D01*
X011290Y008300D01*
X011439Y008195D02*
X012623Y008195D01*
X012813Y008195D02*
X013253Y008195D01*
X013443Y008195D02*
X013745Y008195D01*
X013678Y008353D02*
X013903Y008353D01*
X013746Y008512D02*
X014062Y008512D01*
X014133Y008670D02*
X013866Y008670D01*
X014037Y008829D02*
X014133Y008829D01*
X014133Y008987D02*
X014095Y008987D01*
X014101Y009058D02*
X013663Y009058D01*
X014101Y009058D01*
X014092Y009146D02*
X014133Y009146D01*
X014046Y009304D02*
X014025Y009304D01*
X014295Y009621D02*
X015393Y009621D01*
X015393Y009463D02*
X014454Y009463D01*
X014533Y009304D02*
X015393Y009304D01*
X015393Y009146D02*
X014533Y009146D01*
X014533Y008987D02*
X015393Y008987D01*
X015393Y008829D02*
X014533Y008829D01*
X014533Y008670D02*
X015393Y008670D01*
X015393Y008512D02*
X014533Y008512D01*
X014469Y008353D02*
X015393Y008353D01*
X015393Y008195D02*
X014311Y008195D01*
X014152Y008036D02*
X015345Y008036D01*
X015283Y007878D02*
X013994Y007878D01*
X014254Y007719D02*
X013085Y007719D01*
X013857Y007402D02*
X012209Y007402D01*
X012275Y007244D02*
X013792Y007244D01*
X013769Y007085D02*
X012297Y007085D01*
X012297Y006927D02*
X013769Y006927D01*
X013828Y006768D02*
X012238Y006768D01*
X012147Y006610D02*
X013919Y006610D01*
X014085Y006451D02*
X011982Y006451D01*
X012077Y007561D02*
X013989Y007561D01*
X014687Y007719D02*
X015313Y007719D01*
X015854Y007719D02*
X017340Y007719D01*
X017283Y007878D02*
X015883Y007878D01*
X015822Y008036D02*
X017315Y008036D01*
X017393Y008195D02*
X015773Y008195D01*
X015773Y008353D02*
X017393Y008353D01*
X017393Y008512D02*
X015773Y008512D01*
X015773Y008670D02*
X017393Y008670D01*
X017393Y008829D02*
X015773Y008829D01*
X015773Y008987D02*
X017393Y008987D01*
X015392Y010097D02*
X010668Y010097D01*
X010796Y010255D02*
X015290Y010255D01*
X015188Y010414D02*
X010844Y010414D01*
X010847Y010572D02*
X014221Y010572D01*
X014446Y010572D02*
X015086Y010572D01*
X014058Y010731D02*
X010847Y010731D01*
X010847Y010889D02*
X014033Y010889D01*
X013072Y011048D02*
X010847Y011048D01*
X010828Y011206D02*
X013033Y011206D01*
X013077Y011365D02*
X010747Y011365D01*
X010387Y011365D02*
X010347Y011365D01*
X010347Y011206D02*
X010387Y011206D01*
X010387Y011048D02*
X010347Y011048D01*
X010347Y010889D02*
X010387Y010889D01*
X010347Y010751D02*
X009887Y010751D01*
X009887Y010433D01*
X009899Y010359D01*
X009922Y010287D01*
X009957Y010220D01*
X010001Y010159D01*
X010054Y010105D01*
X010116Y010061D01*
X010183Y010026D01*
X010255Y010003D01*
X010329Y009991D01*
X010347Y009991D01*
X010347Y010751D01*
X010347Y010731D02*
X010387Y010731D01*
X010387Y010572D02*
X010347Y010572D01*
X010347Y010414D02*
X010387Y010414D01*
X010387Y010255D02*
X010347Y010255D01*
X010347Y010097D02*
X010387Y010097D01*
X010066Y010097D02*
X009612Y010097D01*
X009754Y010255D02*
X009939Y010255D01*
X009890Y010414D02*
X009807Y010414D01*
X009807Y010572D02*
X009887Y010572D01*
X009887Y010731D02*
X009807Y010731D01*
X009807Y010889D02*
X009887Y010889D01*
X009887Y011048D02*
X009807Y011048D01*
X009788Y011206D02*
X009906Y011206D01*
X009987Y011365D02*
X009696Y011365D01*
X012298Y008670D02*
X012301Y008670D01*
X012321Y008512D02*
X012140Y008512D01*
X011981Y008353D02*
X012389Y008353D01*
X013663Y009058D02*
X013663Y009058D01*
X015890Y011365D02*
X016613Y011365D01*
X025179Y018854D02*
X025179Y018854D01*
X018854Y022935D02*
X018523Y022935D01*
X018523Y023094D02*
X018759Y023094D01*
X018765Y023252D02*
X018523Y023252D01*
X018523Y023411D02*
X018869Y023411D01*
X018883Y023569D02*
X018523Y023569D01*
X018523Y023728D02*
X018883Y023728D01*
X018883Y023886D02*
X018523Y023886D01*
X018523Y024045D02*
X018883Y024045D01*
X018883Y024203D02*
X018523Y024203D01*
X018523Y024362D02*
X018883Y024362D01*
X018883Y024520D02*
X018523Y024520D01*
X018523Y024679D02*
X018883Y024679D01*
X018883Y024837D02*
X018560Y024837D01*
X018718Y024996D02*
X018883Y024996D01*
X027076Y007719D02*
X027973Y007719D01*
X027973Y007561D02*
X027234Y007561D01*
X027315Y007402D02*
X027973Y007402D01*
X027973Y007244D02*
X027363Y007244D01*
X027363Y007085D02*
X027973Y007085D01*
X027973Y006927D02*
X027327Y006927D01*
X027261Y006768D02*
X027973Y006768D01*
X027973Y006610D02*
X027104Y006610D01*
D20*
X020383Y014950D03*
X011063Y014257D03*
X009218Y016868D03*
X006533Y015000D03*
X010833Y008500D03*
D21*
X013333Y011200D03*
X014333Y010850D03*
X015583Y007850D03*
X017583Y007900D03*
X017783Y009800D03*
X019333Y010000D03*
X019633Y011000D03*
X019833Y011800D03*
X020833Y012150D03*
X019283Y013700D03*
X018583Y015671D03*
X019833Y016400D03*
X022333Y017000D03*
X022033Y014150D03*
X023183Y010900D03*
X023833Y010000D03*
X024733Y010900D03*
X024833Y006800D03*
X015833Y015450D03*
X016933Y017100D03*
X016333Y018500D03*
X014333Y020163D03*
X013983Y019406D03*
X013783Y018500D03*
X013783Y017850D03*
X013782Y015551D03*
X012833Y015700D03*
X012155Y015621D03*
X016333Y021500D03*
X019333Y026500D03*
D22*
X021383Y017150D03*
D23*
X020333Y013400D02*
X020333Y013350D01*
X020433Y013250D01*
X020433Y012823D01*
X020449Y012807D01*
X019433Y012600D02*
X019433Y012500D01*
X019333Y012500D01*
X019433Y012500D02*
X019483Y011400D01*
X019633Y011200D01*
X020442Y011200D01*
X020449Y011193D01*
X020961Y011193D02*
X020961Y010878D01*
X020883Y010800D01*
X020883Y010600D01*
X020783Y010500D01*
X020333Y010500D01*
X014333Y009300D02*
X014333Y008500D01*
X013783Y007950D01*
X013033Y007950D01*
X012933Y007850D01*
X011483Y007850D01*
X011183Y008000D01*
X010833Y008500D02*
X011846Y008500D01*
X012403Y009058D01*
X013033Y009058D02*
X013033Y009550D01*
X014083Y009550D01*
X014333Y009300D01*
X015183Y017150D02*
X015183Y019000D01*
X010783Y024400D02*
X009833Y025350D01*
X009833Y026200D01*
X009583Y026450D01*
X009283Y026450D01*
X006833Y026500D01*
X006652Y026319D01*
X006652Y026000D01*
X007440Y026000D02*
X007833Y025606D01*
X013033Y025450D02*
X013177Y025450D01*
X018333Y024894D02*
X018633Y025194D01*
X018633Y026750D01*
X018383Y027000D01*
X018333Y027000D01*
D24*
X018333Y027000D03*
X019073Y023165D03*
X017774Y020331D03*
X017774Y019701D03*
X017066Y018835D03*
X016514Y017969D03*
X017538Y017181D03*
X017333Y015500D03*
X018383Y015000D03*
X017333Y013500D03*
X016833Y012000D03*
X016833Y010500D03*
X019133Y011850D03*
X019333Y012500D03*
X020333Y013400D03*
X020333Y010500D03*
X014683Y015450D03*
X015333Y017000D03*
X015183Y019000D03*
X013833Y019000D03*
X011833Y019000D03*
X011833Y017000D03*
X009743Y018520D03*
X011869Y022772D03*
X014310Y020882D03*
X014751Y021930D03*
X013033Y025450D03*
X027333Y016000D03*
X011183Y008000D03*
X008533Y010850D03*
X007633Y008000D03*
D25*
X021672Y019633D03*
X021672Y020370D03*
X021672Y021157D03*
X021672Y021945D03*
X022262Y022142D03*
X021672Y022732D03*
X022656Y022929D03*
X023247Y022339D03*
X024231Y022732D03*
X024378Y023663D03*
X023790Y023763D03*
X023050Y023717D03*
X023640Y024701D03*
X023050Y024898D03*
X023444Y025291D03*
X022656Y025685D03*
X023247Y026276D03*
X022262Y026472D03*
X021672Y026669D03*
X021672Y025882D03*
X021540Y024751D03*
X021522Y023882D03*
X022853Y021354D03*
X023247Y020370D03*
X022656Y019780D03*
X024231Y019976D03*
X025215Y020370D03*
X025609Y021354D03*
X026503Y020913D03*
X027303Y021163D03*
X027003Y021913D03*
X026503Y022413D03*
X026794Y023023D03*
X027418Y022673D03*
X027153Y023663D03*
X026153Y023763D03*
X026056Y023029D03*
X025315Y023763D03*
X025215Y024701D03*
X025018Y025291D03*
X024428Y024701D03*
X024231Y025882D03*
X025215Y026276D03*
X025806Y025685D03*
X026553Y025481D03*
X027203Y024931D03*
X027253Y026031D03*
X026503Y026531D03*
X027303Y027131D03*
X026503Y027531D03*
X025609Y027260D03*
X025215Y028244D03*
X026003Y029031D03*
X027003Y028531D03*
X024231Y028638D03*
X023247Y028244D03*
X022262Y028047D03*
X022262Y028047D03*
X021672Y028244D03*
X021672Y027457D03*
X022853Y027260D03*
X022306Y028985D03*
X021672Y029031D03*
X026003Y024701D03*
X025215Y022339D03*
X027303Y020313D03*
X026203Y019933D03*
X015001Y023380D03*
M02*
