G75*
%MOIN*%
%OFA0B0*%
%FSLAX24Y24*%
%IPPOS*%
%LPD*%
%AMOC8*
5,1,8,0,0,1.08239X$1,22.5*
%
%ADD10C,0.0050*%
%ADD11C,0.1040*%
%ADD12R,0.0670X0.0552*%
%ADD13R,0.0552X0.0631*%
%ADD14R,0.0552X0.0670*%
%ADD15R,0.0906X0.0276*%
%ADD16C,0.0158*%
%ADD17R,0.0512X0.0512*%
%ADD18OC8,0.0800*%
%ADD19OC8,0.0780*%
%ADD20R,0.0177X0.0590*%
%ADD21R,0.0631X0.0552*%
%ADD22C,0.0555*%
%ADD23C,0.1162*%
%ADD24R,0.0520X0.0920*%
%ADD25R,0.1457X0.0906*%
%ADD26R,0.0591X0.0749*%
%ADD27R,0.0788X0.0591*%
%ADD28R,0.0631X0.0355*%
%ADD29R,0.0555X0.0555*%
%ADD30R,0.0316X0.0709*%
%ADD31C,0.3583*%
%ADD32R,0.0946X0.0670*%
%ADD33C,0.0780*%
%ADD34R,0.0910X0.0280*%
%ADD35C,0.0640*%
D10*
X021275Y019386D02*
X021275Y024189D01*
X026249Y024189D01*
X026249Y019386D01*
X021275Y019386D01*
X021275Y019420D02*
X026249Y019420D01*
X026249Y019468D02*
X021275Y019468D01*
X021275Y019517D02*
X026249Y019517D01*
X026249Y019565D02*
X021275Y019565D01*
X021275Y019614D02*
X026249Y019614D01*
X026249Y019662D02*
X021275Y019662D01*
X021275Y019711D02*
X026249Y019711D01*
X026249Y019759D02*
X021275Y019759D01*
X021275Y019808D02*
X026249Y019808D01*
X026249Y019856D02*
X021275Y019856D01*
X021275Y019905D02*
X026249Y019905D01*
X026249Y019953D02*
X021275Y019953D01*
X021275Y020002D02*
X026249Y020002D01*
X026249Y020050D02*
X021275Y020050D01*
X021275Y020099D02*
X026249Y020099D01*
X026249Y020147D02*
X021275Y020147D01*
X021275Y020196D02*
X026249Y020196D01*
X026249Y020244D02*
X021275Y020244D01*
X021275Y020293D02*
X026249Y020293D01*
X026249Y020341D02*
X021275Y020341D01*
X021275Y020390D02*
X026249Y020390D01*
X026249Y020438D02*
X021275Y020438D01*
X021275Y020487D02*
X026249Y020487D01*
X026249Y020535D02*
X021275Y020535D01*
X021275Y020584D02*
X026249Y020584D01*
X026249Y020632D02*
X021275Y020632D01*
X021275Y020681D02*
X026249Y020681D01*
X026249Y020729D02*
X021275Y020729D01*
X021275Y020778D02*
X026249Y020778D01*
X026249Y020826D02*
X021275Y020826D01*
X021275Y020875D02*
X026249Y020875D01*
X026249Y020923D02*
X021275Y020923D01*
X021275Y020972D02*
X026249Y020972D01*
X026249Y021020D02*
X021275Y021020D01*
X021275Y021069D02*
X026249Y021069D01*
X026249Y021117D02*
X021275Y021117D01*
X021275Y021166D02*
X026249Y021166D01*
X026249Y021214D02*
X021275Y021214D01*
X021275Y021263D02*
X026249Y021263D01*
X026249Y021311D02*
X021275Y021311D01*
X021275Y021360D02*
X026249Y021360D01*
X026249Y021408D02*
X021275Y021408D01*
X021275Y021457D02*
X026249Y021457D01*
X026249Y021505D02*
X021275Y021505D01*
X021275Y021554D02*
X026249Y021554D01*
X026249Y021602D02*
X021275Y021602D01*
X021275Y021651D02*
X026249Y021651D01*
X026249Y021699D02*
X021275Y021699D01*
X021275Y021748D02*
X026249Y021748D01*
X026249Y021796D02*
X021275Y021796D01*
X021275Y021845D02*
X026249Y021845D01*
X026249Y021893D02*
X021275Y021893D01*
X021275Y021942D02*
X026249Y021942D01*
X026249Y021990D02*
X021275Y021990D01*
X021275Y022039D02*
X026249Y022039D01*
X026249Y022087D02*
X021275Y022087D01*
X021275Y022136D02*
X026249Y022136D01*
X026249Y022184D02*
X021275Y022184D01*
X021275Y022233D02*
X026249Y022233D01*
X026249Y022281D02*
X021275Y022281D01*
X021275Y022330D02*
X026249Y022330D01*
X026249Y022378D02*
X021275Y022378D01*
X021275Y022427D02*
X026249Y022427D01*
X026249Y022475D02*
X021275Y022475D01*
X021275Y022524D02*
X026249Y022524D01*
X026249Y022572D02*
X021275Y022572D01*
X021275Y022621D02*
X026249Y022621D01*
X026249Y022669D02*
X021275Y022669D01*
X021275Y022718D02*
X026249Y022718D01*
X026249Y022766D02*
X021275Y022766D01*
X021275Y022815D02*
X026249Y022815D01*
X026249Y022863D02*
X021275Y022863D01*
X021275Y022912D02*
X026249Y022912D01*
X026249Y022960D02*
X021275Y022960D01*
X021275Y023009D02*
X026249Y023009D01*
X026249Y023057D02*
X021275Y023057D01*
X021275Y023106D02*
X026249Y023106D01*
X026249Y023154D02*
X021275Y023154D01*
X021275Y023203D02*
X026249Y023203D01*
X026249Y023251D02*
X021275Y023251D01*
X021275Y023300D02*
X026249Y023300D01*
X026249Y023348D02*
X021275Y023348D01*
X021275Y023397D02*
X026249Y023397D01*
X026249Y023445D02*
X021275Y023445D01*
X021275Y023494D02*
X026249Y023494D01*
X026249Y023542D02*
X021275Y023542D01*
X021275Y023591D02*
X026249Y023591D01*
X026249Y023639D02*
X021275Y023639D01*
X021275Y023688D02*
X026249Y023688D01*
X026249Y023736D02*
X021275Y023736D01*
X021275Y023785D02*
X026249Y023785D01*
X026249Y023833D02*
X021275Y023833D01*
X021275Y023882D02*
X026249Y023882D01*
X026249Y023930D02*
X021275Y023930D01*
X021275Y023979D02*
X026249Y023979D01*
X026249Y024027D02*
X021275Y024027D01*
X021275Y024076D02*
X026249Y024076D01*
X026249Y024124D02*
X021275Y024124D01*
X021275Y024173D02*
X026249Y024173D01*
X026249Y024425D02*
X021275Y024425D01*
X021275Y029228D01*
X026249Y029228D01*
X026249Y024425D01*
X026249Y024464D02*
X021275Y024464D01*
X021275Y024512D02*
X026249Y024512D01*
X026249Y024561D02*
X021275Y024561D01*
X021275Y024609D02*
X026249Y024609D01*
X026249Y024658D02*
X021275Y024658D01*
X021275Y024706D02*
X026249Y024706D01*
X026249Y024755D02*
X021275Y024755D01*
X021275Y024803D02*
X026249Y024803D01*
X026249Y024852D02*
X021275Y024852D01*
X021275Y024900D02*
X026249Y024900D01*
X026249Y024949D02*
X021275Y024949D01*
X021275Y024997D02*
X026249Y024997D01*
X026249Y025046D02*
X021275Y025046D01*
X021275Y025094D02*
X026249Y025094D01*
X026249Y025143D02*
X021275Y025143D01*
X021275Y025191D02*
X026249Y025191D01*
X026249Y025240D02*
X021275Y025240D01*
X021275Y025288D02*
X026249Y025288D01*
X026249Y025337D02*
X021275Y025337D01*
X021275Y025385D02*
X026249Y025385D01*
X026249Y025434D02*
X021275Y025434D01*
X021275Y025482D02*
X026249Y025482D01*
X026249Y025531D02*
X021275Y025531D01*
X021275Y025579D02*
X026249Y025579D01*
X026249Y025628D02*
X021275Y025628D01*
X021275Y025676D02*
X026249Y025676D01*
X026249Y025725D02*
X021275Y025725D01*
X021275Y025773D02*
X026249Y025773D01*
X026249Y025822D02*
X021275Y025822D01*
X021275Y025870D02*
X026249Y025870D01*
X026249Y025919D02*
X021275Y025919D01*
X021275Y025967D02*
X026249Y025967D01*
X026249Y026016D02*
X021275Y026016D01*
X021275Y026064D02*
X026249Y026064D01*
X026249Y026113D02*
X021275Y026113D01*
X021275Y026161D02*
X026249Y026161D01*
X026249Y026210D02*
X021275Y026210D01*
X021275Y026258D02*
X026249Y026258D01*
X026249Y026307D02*
X021275Y026307D01*
X021275Y026355D02*
X026249Y026355D01*
X026249Y026404D02*
X021275Y026404D01*
X021275Y026452D02*
X026249Y026452D01*
X026249Y026501D02*
X021275Y026501D01*
X021275Y026549D02*
X026249Y026549D01*
X026249Y026598D02*
X021275Y026598D01*
X021275Y026646D02*
X026249Y026646D01*
X026249Y026695D02*
X021275Y026695D01*
X021275Y026743D02*
X026249Y026743D01*
X026249Y026792D02*
X021275Y026792D01*
X021275Y026840D02*
X026249Y026840D01*
X026249Y026889D02*
X021275Y026889D01*
X021275Y026937D02*
X026249Y026937D01*
X026249Y026986D02*
X021275Y026986D01*
X021275Y027034D02*
X026249Y027034D01*
X026249Y027083D02*
X021275Y027083D01*
X021275Y027131D02*
X026249Y027131D01*
X026249Y027180D02*
X021275Y027180D01*
X021275Y027228D02*
X026249Y027228D01*
X026249Y027277D02*
X021275Y027277D01*
X021275Y027325D02*
X026249Y027325D01*
X026249Y027374D02*
X021275Y027374D01*
X021275Y027422D02*
X026249Y027422D01*
X026249Y027471D02*
X021275Y027471D01*
X021275Y027519D02*
X026249Y027519D01*
X026249Y027568D02*
X021275Y027568D01*
X021275Y027616D02*
X026249Y027616D01*
X026249Y027665D02*
X021275Y027665D01*
X021275Y027713D02*
X026249Y027713D01*
X026249Y027762D02*
X021275Y027762D01*
X021275Y027810D02*
X026249Y027810D01*
X026249Y027859D02*
X021275Y027859D01*
X021275Y027907D02*
X026249Y027907D01*
X026249Y027956D02*
X021275Y027956D01*
X021275Y028004D02*
X026249Y028004D01*
X026249Y028053D02*
X021275Y028053D01*
X021275Y028101D02*
X026249Y028101D01*
X026249Y028150D02*
X021275Y028150D01*
X021275Y028198D02*
X026249Y028198D01*
X026249Y028247D02*
X021275Y028247D01*
X021275Y028295D02*
X026249Y028295D01*
X026249Y028344D02*
X021275Y028344D01*
X021275Y028392D02*
X026249Y028392D01*
X026249Y028441D02*
X021275Y028441D01*
X021275Y028489D02*
X026249Y028489D01*
X026249Y028538D02*
X021275Y028538D01*
X021275Y028586D02*
X026249Y028586D01*
X026249Y028635D02*
X021275Y028635D01*
X021275Y028683D02*
X026249Y028683D01*
X026249Y028732D02*
X021275Y028732D01*
X021275Y028780D02*
X026249Y028780D01*
X026249Y028829D02*
X021275Y028829D01*
X021275Y028877D02*
X026249Y028877D01*
X026249Y028926D02*
X021275Y028926D01*
X021275Y028974D02*
X026249Y028974D01*
X026249Y029023D02*
X021275Y029023D01*
X021275Y029071D02*
X026249Y029071D01*
X026249Y029120D02*
X021275Y029120D01*
X021275Y029168D02*
X026249Y029168D01*
X026249Y029217D02*
X021275Y029217D01*
D11*
X006833Y007500D03*
X006833Y024236D03*
X026683Y007150D03*
X027312Y028417D03*
D12*
X015333Y013894D03*
X015333Y013106D03*
X010333Y013287D03*
X010333Y012500D03*
X009333Y012500D03*
X009333Y013287D03*
X006081Y009315D03*
X006081Y008528D03*
D13*
X016459Y008500D03*
X017207Y008500D03*
X017959Y008500D03*
X018707Y008500D03*
X019959Y008500D03*
X020707Y008500D03*
X021459Y008500D03*
X022207Y008500D03*
X018207Y010500D03*
X017459Y010500D03*
X017459Y011250D03*
X018207Y011250D03*
X018294Y024870D03*
X017546Y024870D03*
D14*
X017550Y024083D03*
X018337Y024083D03*
X009227Y015000D03*
X008440Y015000D03*
X007723Y010287D03*
X006936Y010287D03*
D15*
X007022Y015750D03*
X007022Y016250D03*
X007022Y016750D03*
X007022Y017250D03*
X007022Y017750D03*
X007022Y018250D03*
X007022Y018750D03*
X007022Y019250D03*
X010644Y019250D03*
X010644Y018750D03*
X010644Y018250D03*
X010644Y017750D03*
X010644Y017250D03*
X010644Y016750D03*
X010644Y016250D03*
X010644Y015750D03*
D16*
X012475Y017138D02*
X012947Y017138D01*
X012947Y017335D02*
X012475Y017335D01*
X012475Y017531D02*
X012947Y017531D01*
X012947Y017728D02*
X012475Y017728D01*
X012475Y017925D02*
X012947Y017925D01*
X012947Y018122D02*
X012475Y018122D01*
X012475Y018319D02*
X012947Y018319D01*
X012947Y018516D02*
X012475Y018516D01*
X012475Y018713D02*
X012947Y018713D01*
X012947Y018909D02*
X012475Y018909D01*
X012475Y019106D02*
X012947Y019106D01*
X012947Y019303D02*
X012475Y019303D01*
X012475Y019500D02*
X012947Y019500D01*
X012947Y019697D02*
X012475Y019697D01*
X012475Y019894D02*
X012947Y019894D01*
X012947Y020091D02*
X012475Y020091D01*
X012475Y020287D02*
X012947Y020287D01*
X012947Y020484D02*
X012475Y020484D01*
X012475Y020681D02*
X012947Y020681D01*
X012947Y020878D02*
X012475Y020878D01*
X012475Y021075D02*
X012947Y021075D01*
X012947Y021272D02*
X012475Y021272D01*
X012475Y021469D02*
X012947Y021469D01*
X012947Y021665D02*
X012475Y021665D01*
X012475Y021862D02*
X012947Y021862D01*
X013499Y022414D02*
X013499Y022886D01*
X013696Y022886D02*
X013696Y022414D01*
X013892Y022414D02*
X013892Y022886D01*
X014089Y022886D02*
X014089Y022414D01*
X014286Y022414D02*
X014286Y022886D01*
X014483Y022886D02*
X014483Y022414D01*
X014680Y022414D02*
X014680Y022886D01*
X014877Y022886D02*
X014877Y022414D01*
X015073Y022414D02*
X015073Y022886D01*
X015270Y022886D02*
X015270Y022414D01*
X015467Y022414D02*
X015467Y022886D01*
X015664Y022886D02*
X015664Y022414D01*
X015861Y022414D02*
X015861Y022886D01*
X016058Y022886D02*
X016058Y022414D01*
X016255Y022414D02*
X016255Y022886D01*
X016451Y022886D02*
X016451Y022414D01*
X016648Y022414D02*
X016648Y022886D01*
X016845Y022886D02*
X016845Y022414D01*
X017042Y022414D02*
X017042Y022886D01*
X017239Y022886D02*
X017239Y022414D01*
X017436Y022414D02*
X017436Y022886D01*
X017633Y022886D02*
X017633Y022414D01*
X017829Y022414D02*
X017829Y022886D01*
X018026Y022886D02*
X018026Y022414D01*
X018223Y022414D02*
X018223Y022886D01*
X018774Y021862D02*
X019246Y021862D01*
X019246Y021665D02*
X018774Y021665D01*
X018774Y021469D02*
X019246Y021469D01*
X019246Y021272D02*
X018774Y021272D01*
X018774Y021075D02*
X019246Y021075D01*
X019246Y020878D02*
X018774Y020878D01*
X018774Y020681D02*
X019246Y020681D01*
X019246Y020484D02*
X018774Y020484D01*
X018774Y020287D02*
X019246Y020287D01*
X019246Y020091D02*
X018774Y020091D01*
X018774Y019894D02*
X019246Y019894D01*
X019246Y019697D02*
X018774Y019697D01*
X018774Y019500D02*
X019246Y019500D01*
X019246Y019303D02*
X018774Y019303D01*
X018774Y019106D02*
X019246Y019106D01*
X019246Y018909D02*
X018774Y018909D01*
X018774Y018713D02*
X019246Y018713D01*
X019246Y018516D02*
X018774Y018516D01*
X018774Y018319D02*
X019246Y018319D01*
X019246Y018122D02*
X018774Y018122D01*
X018774Y017925D02*
X019246Y017925D01*
X019246Y017728D02*
X018774Y017728D01*
X018774Y017531D02*
X019246Y017531D01*
X019246Y017335D02*
X018774Y017335D01*
X018774Y017138D02*
X019246Y017138D01*
X018223Y016586D02*
X018223Y016114D01*
X018026Y016114D02*
X018026Y016586D01*
X017829Y016586D02*
X017829Y016114D01*
X017633Y016114D02*
X017633Y016586D01*
X017436Y016586D02*
X017436Y016114D01*
X017239Y016114D02*
X017239Y016586D01*
X017042Y016586D02*
X017042Y016114D01*
X016845Y016114D02*
X016845Y016586D01*
X016648Y016586D02*
X016648Y016114D01*
X016451Y016114D02*
X016451Y016586D01*
X016255Y016586D02*
X016255Y016114D01*
X016058Y016114D02*
X016058Y016586D01*
X015861Y016586D02*
X015861Y016114D01*
X015664Y016114D02*
X015664Y016586D01*
X015467Y016586D02*
X015467Y016114D01*
X015270Y016114D02*
X015270Y016586D01*
X015073Y016586D02*
X015073Y016114D01*
X014877Y016114D02*
X014877Y016586D01*
X014680Y016586D02*
X014680Y016114D01*
X014483Y016114D02*
X014483Y016586D01*
X014286Y016586D02*
X014286Y016114D01*
X014089Y016114D02*
X014089Y016586D01*
X013892Y016586D02*
X013892Y016114D01*
X013696Y016114D02*
X013696Y016586D01*
X013499Y016586D02*
X013499Y016114D01*
D17*
X021597Y016413D03*
X021597Y015587D03*
X021420Y007000D03*
X020747Y007000D03*
X019920Y007000D03*
X018747Y007000D03*
X017920Y007000D03*
X017247Y007000D03*
X016420Y007000D03*
X022247Y007000D03*
D18*
X011093Y022000D03*
X007156Y022000D03*
D19*
X023233Y018100D03*
X024233Y018100D03*
X024233Y017100D03*
X023233Y017100D03*
X023233Y016100D03*
X024233Y016100D03*
D20*
X014497Y012939D03*
X014241Y012939D03*
X013985Y012939D03*
X013729Y012939D03*
X013473Y012939D03*
X013217Y012939D03*
X012961Y012939D03*
X012705Y012939D03*
X012449Y012939D03*
X012194Y012939D03*
X011938Y012939D03*
X011682Y012939D03*
X011426Y012939D03*
X011170Y012939D03*
X011170Y010061D03*
X011426Y010061D03*
X011682Y010061D03*
X011938Y010061D03*
X012194Y010061D03*
X012449Y010061D03*
X012705Y010061D03*
X012961Y010061D03*
X013217Y010061D03*
X013473Y010061D03*
X013729Y010061D03*
X013985Y010061D03*
X014241Y010061D03*
X014497Y010061D03*
D21*
X016333Y013126D03*
X016333Y013874D03*
X012833Y014126D03*
X011833Y014126D03*
X011833Y014874D03*
X012833Y014874D03*
X020833Y015626D03*
X020833Y016374D03*
X014295Y024126D03*
X013552Y024126D03*
X013552Y024874D03*
X014295Y024874D03*
D22*
X013514Y026000D03*
X012727Y026000D03*
X011940Y026000D03*
X009014Y026000D03*
X008227Y026000D03*
X007440Y026000D03*
X016440Y026000D03*
X017227Y026000D03*
X018014Y026000D03*
X013948Y009008D03*
X013633Y008535D03*
X013318Y009008D03*
X013003Y008535D03*
X012688Y009008D03*
D23*
X011881Y007000D03*
X014755Y007000D03*
D24*
X008243Y013720D03*
X007333Y013720D03*
X006423Y013720D03*
D25*
X007333Y011280D03*
D26*
X021991Y010307D03*
X021991Y012551D03*
D27*
X027168Y009677D03*
X027562Y014854D03*
D28*
X026046Y013020D03*
X025888Y012587D03*
X026046Y012154D03*
X026125Y011720D03*
X026046Y011287D03*
X026125Y010854D03*
X026046Y010421D03*
X026046Y009988D03*
D29*
X015652Y026000D03*
X011152Y026000D03*
X006652Y026000D03*
D30*
X015361Y015150D03*
X015833Y015150D03*
X016306Y015150D03*
D31*
X024231Y021354D03*
X024231Y027260D03*
D32*
X023593Y008500D03*
X026073Y008500D03*
D33*
X027183Y021500D03*
X027183Y022500D03*
X027183Y023500D03*
X027183Y024500D03*
X027183Y025500D03*
D34*
X022257Y025053D03*
X022257Y024553D03*
X022257Y024053D03*
X022257Y023553D03*
X020197Y023553D03*
X020197Y024053D03*
X020197Y024553D03*
X020197Y025053D03*
D35*
X009967Y011221D02*
X009967Y010621D01*
X008967Y010621D02*
X008967Y011221D01*
M02*
