G75*
%MOIN*%
%OFA0B0*%
%FSLAX24Y24*%
%IPPOS*%
%LPD*%
%AMOC8*
5,1,8,0,0,1.08239X$1,22.5*
%
%ADD10C,0.0060*%
%ADD11C,0.0200*%
%ADD12C,0.0160*%
%ADD13C,0.0030*%
%ADD14R,0.0079X0.0079*%
%ADD15C,0.0080*%
%ADD16C,0.0040*%
%ADD17C,0.0050*%
%ADD18C,0.0100*%
%ADD19C,0.0020*%
%ADD20C,0.0010*%
%ADD21C,0.0070*%
D10*
X007706Y000827D02*
X007920Y000614D01*
X008133Y000827D01*
X008133Y001254D01*
X008351Y001041D02*
X008564Y001254D01*
X008564Y000614D01*
X008351Y000614D02*
X008778Y000614D01*
X009640Y000614D02*
X010067Y000614D01*
X009853Y000614D02*
X009853Y001254D01*
X009640Y001041D01*
X010284Y000934D02*
X010498Y001041D01*
X010605Y001041D01*
X010711Y000934D01*
X010711Y000721D01*
X010605Y000614D01*
X010391Y000614D01*
X010284Y000721D01*
X010284Y000934D02*
X010284Y001254D01*
X010711Y001254D01*
X010929Y001148D02*
X011036Y001254D01*
X011249Y001254D01*
X011356Y001148D01*
X011356Y001041D01*
X011249Y000934D01*
X011356Y000827D01*
X011356Y000721D01*
X011249Y000614D01*
X011036Y000614D01*
X010929Y000721D01*
X011142Y000934D02*
X011249Y000934D01*
X011573Y001148D02*
X011680Y001254D01*
X011894Y001254D01*
X012001Y001148D01*
X012001Y001041D01*
X011573Y000614D01*
X012001Y000614D01*
X012218Y000721D02*
X012325Y000614D01*
X012538Y000614D01*
X012645Y000721D01*
X012645Y000934D01*
X012538Y001041D01*
X012432Y001041D01*
X012218Y000934D01*
X012218Y001254D01*
X012645Y001254D01*
X007706Y001254D02*
X007706Y000827D01*
X012118Y007349D02*
X011958Y007509D01*
X011128Y008089D02*
X010718Y008089D01*
X013318Y010599D02*
X013318Y010999D01*
X015208Y007769D02*
X015608Y007769D01*
X017752Y006792D02*
X019171Y006792D01*
X019171Y004932D02*
X017752Y004932D01*
X020541Y002913D02*
X020543Y002973D01*
X020549Y003034D01*
X020559Y003093D01*
X020573Y003152D01*
X020590Y003210D01*
X020611Y003267D01*
X020636Y003322D01*
X020665Y003375D01*
X020697Y003427D01*
X020732Y003476D01*
X020771Y003523D01*
X020812Y003567D01*
X020856Y003608D01*
X020903Y003647D01*
X020952Y003682D01*
X021003Y003714D01*
X021057Y003743D01*
X021112Y003768D01*
X021169Y003789D01*
X021227Y003806D01*
X021286Y003820D01*
X021345Y003830D01*
X021406Y003836D01*
X021466Y003838D01*
X021526Y003836D01*
X021587Y003830D01*
X021646Y003820D01*
X021705Y003806D01*
X021763Y003789D01*
X021820Y003768D01*
X021875Y003743D01*
X021928Y003714D01*
X021980Y003682D01*
X022029Y003647D01*
X022076Y003608D01*
X022120Y003567D01*
X022161Y003523D01*
X022200Y003476D01*
X022235Y003427D01*
X022267Y003376D01*
X022296Y003322D01*
X022321Y003267D01*
X022342Y003210D01*
X022359Y003152D01*
X022373Y003093D01*
X022383Y003034D01*
X022389Y002973D01*
X022391Y002913D01*
X022389Y002853D01*
X022383Y002792D01*
X022373Y002733D01*
X022359Y002674D01*
X022342Y002616D01*
X022321Y002559D01*
X022296Y002504D01*
X022267Y002451D01*
X022235Y002399D01*
X022200Y002350D01*
X022161Y002303D01*
X022120Y002259D01*
X022076Y002218D01*
X022029Y002179D01*
X021980Y002144D01*
X021929Y002112D01*
X021875Y002083D01*
X021820Y002058D01*
X021763Y002037D01*
X021705Y002020D01*
X021646Y002006D01*
X021587Y001996D01*
X021526Y001990D01*
X021466Y001988D01*
X021406Y001990D01*
X021345Y001996D01*
X021286Y002006D01*
X021227Y002020D01*
X021169Y002037D01*
X021112Y002058D01*
X021057Y002083D01*
X021004Y002112D01*
X020952Y002144D01*
X020903Y002179D01*
X020856Y002218D01*
X020812Y002259D01*
X020771Y002303D01*
X020732Y002350D01*
X020697Y002399D01*
X020665Y002450D01*
X020636Y002504D01*
X020611Y002559D01*
X020590Y002616D01*
X020573Y002674D01*
X020559Y002733D01*
X020549Y002792D01*
X020543Y002853D01*
X020541Y002913D01*
X020541Y008819D02*
X020543Y008879D01*
X020549Y008940D01*
X020559Y008999D01*
X020573Y009058D01*
X020590Y009116D01*
X020611Y009173D01*
X020636Y009228D01*
X020665Y009281D01*
X020697Y009333D01*
X020732Y009382D01*
X020771Y009429D01*
X020812Y009473D01*
X020856Y009514D01*
X020903Y009553D01*
X020952Y009588D01*
X021003Y009620D01*
X021057Y009649D01*
X021112Y009674D01*
X021169Y009695D01*
X021227Y009712D01*
X021286Y009726D01*
X021345Y009736D01*
X021406Y009742D01*
X021466Y009744D01*
X021526Y009742D01*
X021587Y009736D01*
X021646Y009726D01*
X021705Y009712D01*
X021763Y009695D01*
X021820Y009674D01*
X021875Y009649D01*
X021928Y009620D01*
X021980Y009588D01*
X022029Y009553D01*
X022076Y009514D01*
X022120Y009473D01*
X022161Y009429D01*
X022200Y009382D01*
X022235Y009333D01*
X022267Y009282D01*
X022296Y009228D01*
X022321Y009173D01*
X022342Y009116D01*
X022359Y009058D01*
X022373Y008999D01*
X022383Y008940D01*
X022389Y008879D01*
X022391Y008819D01*
X022389Y008759D01*
X022383Y008698D01*
X022373Y008639D01*
X022359Y008580D01*
X022342Y008522D01*
X022321Y008465D01*
X022296Y008410D01*
X022267Y008357D01*
X022235Y008305D01*
X022200Y008256D01*
X022161Y008209D01*
X022120Y008165D01*
X022076Y008124D01*
X022029Y008085D01*
X021980Y008050D01*
X021929Y008018D01*
X021875Y007989D01*
X021820Y007964D01*
X021763Y007943D01*
X021705Y007926D01*
X021646Y007912D01*
X021587Y007902D01*
X021526Y007896D01*
X021466Y007894D01*
X021406Y007896D01*
X021345Y007902D01*
X021286Y007912D01*
X021227Y007926D01*
X021169Y007943D01*
X021112Y007964D01*
X021057Y007989D01*
X021004Y008018D01*
X020952Y008050D01*
X020903Y008085D01*
X020856Y008124D01*
X020812Y008165D01*
X020771Y008209D01*
X020732Y008256D01*
X020697Y008305D01*
X020665Y008356D01*
X020636Y008410D01*
X020611Y008465D01*
X020590Y008522D01*
X020573Y008580D01*
X020559Y008639D01*
X020549Y008698D01*
X020543Y008759D01*
X020541Y008819D01*
D11*
X019507Y008510D02*
X017945Y008510D01*
D12*
X017824Y003673D02*
X017824Y002446D01*
X018438Y003060D02*
X017210Y003060D01*
D13*
X016311Y004739D02*
X016311Y004800D01*
X016554Y005043D01*
X016554Y005103D01*
X016311Y005103D01*
X016191Y005043D02*
X016131Y005103D01*
X016009Y005103D01*
X015949Y005043D01*
X015949Y004800D01*
X016009Y004739D01*
X016131Y004739D01*
X016191Y004800D01*
X016276Y007034D02*
X016155Y007155D01*
X016215Y007155D02*
X016033Y007155D01*
X016033Y007034D02*
X016033Y007398D01*
X016215Y007398D01*
X016276Y007337D01*
X016276Y007216D01*
X016215Y007155D01*
X016396Y007034D02*
X016638Y007034D01*
X016517Y007034D02*
X016517Y007398D01*
X016396Y007277D01*
X016758Y007337D02*
X016819Y007398D01*
X016940Y007398D01*
X017001Y007337D01*
X017001Y007277D01*
X016940Y007216D01*
X017001Y007155D01*
X017001Y007095D01*
X016940Y007034D01*
X016819Y007034D01*
X016758Y007095D01*
X016880Y007216D02*
X016940Y007216D01*
X012979Y004837D02*
X012979Y004594D01*
X012918Y004534D01*
X012797Y004534D01*
X012736Y004594D01*
X012979Y004837D01*
X012918Y004898D01*
X012797Y004898D01*
X012736Y004837D01*
X012736Y004594D01*
X012616Y004534D02*
X012374Y004534D01*
X012254Y004534D02*
X012132Y004655D01*
X012193Y004655D02*
X012011Y004655D01*
X012011Y004534D02*
X012011Y004898D01*
X012193Y004898D01*
X012254Y004837D01*
X012254Y004716D01*
X012193Y004655D01*
X012374Y004776D02*
X012495Y004898D01*
X012495Y004534D01*
X012510Y003983D02*
X012631Y003983D01*
X012692Y003922D01*
X012692Y003861D01*
X012631Y003801D01*
X012692Y003740D01*
X012692Y003679D01*
X012631Y003619D01*
X012510Y003619D01*
X012449Y003679D01*
X012329Y003619D02*
X012208Y003740D01*
X012269Y003740D02*
X012087Y003740D01*
X012087Y003619D02*
X012087Y003983D01*
X012269Y003983D01*
X012329Y003922D01*
X012329Y003801D01*
X012269Y003740D01*
X012449Y003922D02*
X012510Y003983D01*
X012570Y003801D02*
X012631Y003801D01*
X011902Y002454D02*
X011720Y002454D01*
X011720Y002090D01*
X011601Y002090D02*
X011601Y002454D01*
X011358Y002454D02*
X011358Y002090D01*
X011479Y002211D01*
X011601Y002090D01*
X011720Y002211D02*
X011902Y002211D01*
X011963Y002272D01*
X011963Y002393D01*
X011902Y002454D01*
X011842Y002211D02*
X011963Y002090D01*
X011238Y002272D02*
X011177Y002211D01*
X010995Y002211D01*
X010995Y002090D02*
X010995Y002454D01*
X011177Y002454D01*
X011238Y002393D01*
X011238Y002272D01*
X010075Y002082D02*
X009833Y002082D01*
X009833Y002446D01*
X009350Y002386D02*
X009290Y002446D01*
X009168Y002446D01*
X009108Y002386D01*
X009108Y002143D01*
X009168Y002082D01*
X009290Y002082D01*
X009350Y002143D01*
X009350Y002264D01*
X009229Y002264D01*
X008988Y002204D02*
X008988Y002143D01*
X008927Y002082D01*
X008745Y002082D01*
X008745Y002446D01*
X008927Y002446D01*
X008988Y002386D01*
X008988Y002325D01*
X008927Y002264D01*
X008745Y002264D01*
X008625Y002143D02*
X008625Y002386D01*
X008565Y002446D01*
X008383Y002446D01*
X008383Y002082D01*
X008565Y002082D01*
X008625Y002143D01*
X008927Y002264D02*
X008988Y002204D01*
X009470Y002022D02*
X009713Y002022D01*
X008869Y003813D02*
X008627Y003813D01*
X008748Y003813D02*
X008748Y004177D01*
X008627Y004056D01*
X008507Y004116D02*
X008446Y004177D01*
X008325Y004177D01*
X008264Y004116D01*
X008264Y003874D01*
X008325Y003813D01*
X008446Y003813D01*
X008507Y003874D01*
X008526Y004895D02*
X008404Y005016D01*
X008465Y005016D02*
X008283Y005016D01*
X008283Y004895D02*
X008283Y005259D01*
X008465Y005259D01*
X008526Y005198D01*
X008526Y005077D01*
X008465Y005016D01*
X008645Y004895D02*
X008888Y004895D01*
X008767Y004895D02*
X008767Y005259D01*
X008645Y005138D01*
X011601Y006184D02*
X011915Y006497D01*
X011601Y006184D01*
X011601Y006341D02*
X011915Y006341D01*
X011601Y006341D01*
X011601Y006497D02*
X011915Y006184D01*
X011601Y006497D01*
X011758Y006497D02*
X011758Y006184D01*
X011758Y006497D01*
X012133Y005794D02*
X012318Y005794D01*
X012380Y005732D01*
X012380Y005609D01*
X012318Y005547D01*
X012133Y005547D01*
X012133Y005424D02*
X012133Y005794D01*
X012256Y005547D02*
X012380Y005424D01*
X012501Y005485D02*
X012501Y005547D01*
X012563Y005609D01*
X012686Y005609D01*
X012748Y005547D01*
X012748Y005485D01*
X012686Y005424D01*
X012563Y005424D01*
X012501Y005485D01*
X012563Y005609D02*
X012501Y005671D01*
X012501Y005732D01*
X012563Y005794D01*
X012686Y005794D01*
X012748Y005732D01*
X012748Y005671D01*
X012686Y005609D01*
X010948Y009401D02*
X010584Y009401D01*
X010584Y009583D01*
X010645Y009644D01*
X010766Y009644D01*
X010827Y009583D01*
X010827Y009401D01*
X010827Y009522D02*
X010948Y009644D01*
X010948Y009764D02*
X010948Y010006D01*
X010948Y009885D02*
X010584Y009885D01*
X010706Y009764D01*
X010766Y010126D02*
X010766Y010369D01*
X010584Y010308D02*
X010766Y010126D01*
X010948Y010308D02*
X010584Y010308D01*
X009354Y010598D02*
X009354Y010720D01*
X009293Y010780D01*
X009172Y010900D02*
X009172Y011143D01*
X009354Y011082D02*
X008990Y011082D01*
X009172Y010900D01*
X009050Y010780D02*
X008990Y010720D01*
X008990Y010598D01*
X009050Y010538D01*
X009293Y010538D01*
X009354Y010598D01*
D14*
X009329Y002909D03*
X011329Y002909D03*
D15*
X004418Y003559D02*
X004418Y002059D01*
X004668Y001809D01*
X005168Y001809D01*
X005418Y002059D01*
X005418Y003559D01*
X005168Y003809D01*
X004668Y003809D01*
X004418Y003559D01*
X005418Y003559D02*
X005668Y003809D01*
X006168Y003809D01*
X006418Y003559D01*
X006418Y002059D01*
X006168Y001809D01*
X005668Y001809D01*
X005418Y002059D01*
X006418Y002059D02*
X006668Y001809D01*
X007168Y001809D01*
X007418Y002059D01*
X007418Y003559D01*
X007168Y003809D01*
X006668Y003809D01*
X006418Y003559D01*
X006668Y003941D02*
X007168Y003941D01*
X013340Y003853D02*
X013340Y004365D01*
X013399Y004365D01*
X013399Y003853D02*
X013340Y003853D01*
X014737Y003853D02*
X014777Y003853D01*
X014777Y004365D01*
X014737Y004365D01*
X015527Y006439D02*
X016144Y006439D01*
X016268Y006562D01*
X016268Y006809D01*
X016144Y006932D01*
X015527Y006932D01*
X015774Y007194D02*
X015527Y007441D01*
X016268Y007441D01*
X016268Y007194D02*
X016268Y007688D01*
X018795Y005152D02*
X018797Y005167D01*
X018803Y005180D01*
X018812Y005192D01*
X018823Y005201D01*
X018837Y005207D01*
X018852Y005209D01*
X018867Y005207D01*
X018880Y005201D01*
X018892Y005192D01*
X018901Y005181D01*
X018907Y005167D01*
X018909Y005152D01*
X018907Y005137D01*
X018901Y005124D01*
X018892Y005112D01*
X018881Y005103D01*
X018867Y005097D01*
X018852Y005095D01*
X018837Y005097D01*
X018824Y005103D01*
X018812Y005112D01*
X018803Y005123D01*
X018797Y005137D01*
X018795Y005152D01*
D16*
X014605Y005829D02*
X014298Y005829D01*
X014605Y006136D01*
X014605Y006212D01*
X014528Y006289D01*
X014375Y006289D01*
X014298Y006212D01*
X014145Y006212D02*
X014145Y006059D01*
X014068Y005982D01*
X013838Y005982D01*
X013838Y005829D02*
X013838Y006289D01*
X014068Y006289D01*
X014145Y006212D01*
X013991Y005982D02*
X014145Y005829D01*
X008108Y005821D02*
X008049Y005880D01*
X008108Y005821D02*
X008108Y005703D01*
X008049Y005644D01*
X007813Y005644D01*
X007754Y005703D01*
X007754Y005821D01*
X007813Y005880D01*
X007813Y006006D02*
X008049Y006006D01*
X008108Y006065D01*
X008108Y006183D01*
X008049Y006242D01*
X007813Y006242D01*
X007754Y006183D01*
X007754Y006065D01*
X007813Y006006D01*
X007754Y005517D02*
X008108Y005517D01*
X007754Y005281D01*
X008108Y005281D01*
X008108Y005155D02*
X007872Y005155D01*
X007754Y005037D01*
X007872Y004919D01*
X008108Y004919D01*
X008049Y004792D02*
X007990Y004792D01*
X007931Y004733D01*
X007931Y004556D01*
X008108Y004556D02*
X008108Y004733D01*
X008049Y004792D01*
X007931Y004733D02*
X007872Y004792D01*
X007813Y004792D01*
X007754Y004733D01*
X007754Y004556D01*
X008108Y004556D01*
X007931Y004919D02*
X007931Y005155D01*
X005705Y001618D02*
X005528Y001618D01*
X005528Y001264D01*
X005528Y001382D02*
X005705Y001382D01*
X005764Y001441D01*
X005764Y001559D01*
X005705Y001618D01*
X005402Y001559D02*
X005343Y001618D01*
X005225Y001618D01*
X005166Y001559D01*
X005166Y001500D01*
X005225Y001441D01*
X005343Y001441D01*
X005402Y001382D01*
X005402Y001323D01*
X005343Y001264D01*
X005225Y001264D01*
X005166Y001323D01*
X005042Y001264D02*
X004924Y001264D01*
X004983Y001264D02*
X004983Y001618D01*
X004924Y001618D02*
X005042Y001618D01*
X004970Y009605D02*
X005030Y009666D01*
X005030Y009726D01*
X004970Y009786D01*
X004669Y009786D01*
X004669Y009726D02*
X004669Y009846D01*
X004790Y009974D02*
X004669Y010094D01*
X005030Y010094D01*
X005030Y009974D02*
X005030Y010214D01*
D17*
X006624Y004590D02*
X007412Y004590D01*
X013287Y002199D02*
X013287Y002042D01*
X013287Y002200D02*
X013292Y002220D01*
X013301Y002239D01*
X013312Y002256D01*
X013327Y002271D01*
X013344Y002283D01*
X013363Y002292D01*
X013383Y002298D01*
X013404Y002300D01*
X013425Y002298D01*
X015551Y002298D01*
X015551Y002297D02*
X015568Y002296D01*
X015585Y002291D01*
X015600Y002284D01*
X015614Y002274D01*
X015626Y002262D01*
X015636Y002248D01*
X015643Y002233D01*
X015648Y002216D01*
X015649Y002199D01*
X015649Y002042D01*
X015058Y001904D02*
X015058Y001313D01*
X013877Y001313D01*
X013877Y001904D01*
X015058Y001904D01*
X015649Y001176D02*
X015649Y001018D01*
X015648Y001001D01*
X015643Y000984D01*
X015636Y000969D01*
X015626Y000955D01*
X015614Y000943D01*
X015600Y000933D01*
X015585Y000926D01*
X015568Y000921D01*
X015551Y000920D01*
X013385Y000920D01*
X013368Y000921D01*
X013351Y000926D01*
X013336Y000933D01*
X013322Y000943D01*
X013310Y000955D01*
X013300Y000969D01*
X013293Y000984D01*
X013288Y001001D01*
X013287Y001018D01*
X013287Y001176D01*
D18*
X007608Y004590D02*
X007608Y008527D01*
X006388Y008527D01*
X006388Y004590D01*
X007608Y004590D01*
X006388Y004590D02*
X003711Y004590D01*
X003711Y005456D01*
X004105Y005456D01*
X004105Y007661D01*
X003711Y007661D01*
X003711Y008527D01*
X006388Y008527D01*
X006789Y008875D02*
X006789Y009125D01*
X006539Y009125D01*
X006539Y009625D01*
X006789Y009625D01*
X006789Y010125D01*
X006539Y010125D01*
X006539Y010625D01*
X006789Y010625D01*
X006789Y010875D01*
X005539Y010875D01*
X005539Y010525D01*
X003089Y010525D01*
X002949Y010395D01*
X002389Y010375D02*
X002189Y010275D01*
X002189Y009895D01*
X002189Y009855D01*
X002189Y009895D02*
X002189Y009475D01*
X002389Y009375D01*
X005539Y009375D01*
X005539Y008875D01*
X006789Y008875D01*
X005539Y009225D02*
X003089Y009225D01*
X002949Y009355D01*
X002389Y010375D02*
X005539Y010375D01*
X005539Y010525D02*
X005539Y009375D01*
D19*
X014207Y001715D02*
X014253Y001762D01*
X014347Y001762D01*
X014393Y001715D01*
X014483Y001668D02*
X014576Y001762D01*
X014576Y001481D01*
X014483Y001481D02*
X014670Y001481D01*
X014393Y001528D02*
X014393Y001575D01*
X014347Y001621D01*
X014253Y001621D01*
X014207Y001668D01*
X014207Y001715D01*
X014207Y001528D02*
X014253Y001481D01*
X014347Y001481D01*
X014393Y001528D01*
D20*
X018157Y005467D02*
X018106Y005517D01*
X018157Y005567D01*
X018257Y005567D01*
X018232Y005614D02*
X018257Y005639D01*
X018257Y005689D01*
X018232Y005714D01*
X018232Y005762D02*
X018257Y005787D01*
X018257Y005837D01*
X018232Y005862D01*
X018207Y005862D01*
X018182Y005837D01*
X018182Y005787D01*
X018157Y005762D01*
X018132Y005762D01*
X018106Y005787D01*
X018106Y005837D01*
X018132Y005862D01*
X018106Y005909D02*
X018106Y006009D01*
X018132Y006009D01*
X018232Y005909D01*
X018257Y005909D01*
X018257Y006056D02*
X018257Y006156D01*
X018257Y006204D02*
X018257Y006304D01*
X018257Y006254D02*
X018106Y006254D01*
X018157Y006204D01*
X018106Y006106D02*
X018257Y006106D01*
X018157Y006056D02*
X018106Y006106D01*
X018132Y005714D02*
X018106Y005689D01*
X018106Y005639D01*
X018132Y005614D01*
X018232Y005614D01*
X018182Y005567D02*
X018182Y005467D01*
X018157Y005467D02*
X018257Y005467D01*
D21*
X006061Y009100D02*
X005774Y009100D01*
X005918Y009100D02*
X005918Y009531D01*
X005774Y009387D01*
X005824Y010080D02*
X006111Y010367D01*
X006111Y010439D01*
X006040Y010511D01*
X005896Y010511D01*
X005824Y010439D01*
X005824Y010080D02*
X006111Y010080D01*
M02*
