G75*
%MOIN*%
%OFA0B0*%
%FSLAX24Y24*%
%IPPOS*%
%LPD*%
%AMOC8*
5,1,8,0,0,1.08239X$1,22.5*
%
%ADD10C,0.0060*%
%ADD11C,0.0200*%
%ADD12C,0.0160*%
%ADD13C,0.0030*%
%ADD14R,0.0079X0.0079*%
%ADD15C,0.0080*%
%ADD16C,0.0040*%
%ADD17C,0.0050*%
%ADD18C,0.0100*%
%ADD19C,0.0020*%
%ADD20C,0.0010*%
%ADD21C,0.0070*%
D10*
X008506Y000851D02*
X008720Y000638D01*
X008933Y000851D01*
X008933Y001278D01*
X009151Y001065D02*
X009364Y001278D01*
X009364Y000638D01*
X009151Y000638D02*
X009578Y000638D01*
X010440Y000638D02*
X010867Y000638D01*
X010653Y000638D02*
X010653Y001278D01*
X010440Y001065D01*
X011084Y000958D02*
X011298Y001065D01*
X011405Y001065D01*
X011511Y000958D01*
X011511Y000744D01*
X011405Y000638D01*
X011191Y000638D01*
X011084Y000744D01*
X011084Y000958D02*
X011084Y001278D01*
X011511Y001278D01*
X011729Y001172D02*
X011836Y001278D01*
X012049Y001278D01*
X012156Y001172D01*
X012156Y001065D01*
X012049Y000958D01*
X012156Y000851D01*
X012156Y000744D01*
X012049Y000638D01*
X011836Y000638D01*
X011729Y000744D01*
X011942Y000958D02*
X012049Y000958D01*
X012373Y001172D02*
X012480Y001278D01*
X012694Y001278D01*
X012801Y001172D01*
X012801Y001065D01*
X012373Y000638D01*
X012801Y000638D01*
X013018Y000744D02*
X013125Y000638D01*
X013338Y000638D01*
X013445Y000744D01*
X013445Y000958D01*
X013338Y001065D01*
X013232Y001065D01*
X013018Y000958D01*
X013018Y001278D01*
X013445Y001278D01*
X008506Y001278D02*
X008506Y000851D01*
X019152Y004956D02*
X020571Y004956D01*
X020571Y006816D02*
X019152Y006816D01*
X016408Y007793D02*
X016008Y007793D01*
X012918Y007373D02*
X012758Y007533D01*
X011928Y008113D02*
X011518Y008113D01*
X014118Y010623D02*
X014118Y011023D01*
X021941Y008842D02*
X021943Y008902D01*
X021949Y008963D01*
X021959Y009022D01*
X021973Y009081D01*
X021990Y009139D01*
X022011Y009196D01*
X022036Y009251D01*
X022065Y009304D01*
X022097Y009356D01*
X022132Y009405D01*
X022171Y009452D01*
X022212Y009496D01*
X022256Y009537D01*
X022303Y009576D01*
X022352Y009611D01*
X022403Y009643D01*
X022457Y009672D01*
X022512Y009697D01*
X022569Y009718D01*
X022627Y009735D01*
X022686Y009749D01*
X022745Y009759D01*
X022806Y009765D01*
X022866Y009767D01*
X022926Y009765D01*
X022987Y009759D01*
X023046Y009749D01*
X023105Y009735D01*
X023163Y009718D01*
X023220Y009697D01*
X023275Y009672D01*
X023328Y009643D01*
X023380Y009611D01*
X023429Y009576D01*
X023476Y009537D01*
X023520Y009496D01*
X023561Y009452D01*
X023600Y009405D01*
X023635Y009356D01*
X023667Y009305D01*
X023696Y009251D01*
X023721Y009196D01*
X023742Y009139D01*
X023759Y009081D01*
X023773Y009022D01*
X023783Y008963D01*
X023789Y008902D01*
X023791Y008842D01*
X023789Y008782D01*
X023783Y008721D01*
X023773Y008662D01*
X023759Y008603D01*
X023742Y008545D01*
X023721Y008488D01*
X023696Y008433D01*
X023667Y008380D01*
X023635Y008328D01*
X023600Y008279D01*
X023561Y008232D01*
X023520Y008188D01*
X023476Y008147D01*
X023429Y008108D01*
X023380Y008073D01*
X023329Y008041D01*
X023275Y008012D01*
X023220Y007987D01*
X023163Y007966D01*
X023105Y007949D01*
X023046Y007935D01*
X022987Y007925D01*
X022926Y007919D01*
X022866Y007917D01*
X022806Y007919D01*
X022745Y007925D01*
X022686Y007935D01*
X022627Y007949D01*
X022569Y007966D01*
X022512Y007987D01*
X022457Y008012D01*
X022404Y008041D01*
X022352Y008073D01*
X022303Y008108D01*
X022256Y008147D01*
X022212Y008188D01*
X022171Y008232D01*
X022132Y008279D01*
X022097Y008328D01*
X022065Y008379D01*
X022036Y008433D01*
X022011Y008488D01*
X021990Y008545D01*
X021973Y008603D01*
X021959Y008662D01*
X021949Y008721D01*
X021943Y008782D01*
X021941Y008842D01*
X021941Y002937D02*
X021943Y002997D01*
X021949Y003058D01*
X021959Y003117D01*
X021973Y003176D01*
X021990Y003234D01*
X022011Y003291D01*
X022036Y003346D01*
X022065Y003399D01*
X022097Y003451D01*
X022132Y003500D01*
X022171Y003547D01*
X022212Y003591D01*
X022256Y003632D01*
X022303Y003671D01*
X022352Y003706D01*
X022403Y003738D01*
X022457Y003767D01*
X022512Y003792D01*
X022569Y003813D01*
X022627Y003830D01*
X022686Y003844D01*
X022745Y003854D01*
X022806Y003860D01*
X022866Y003862D01*
X022926Y003860D01*
X022987Y003854D01*
X023046Y003844D01*
X023105Y003830D01*
X023163Y003813D01*
X023220Y003792D01*
X023275Y003767D01*
X023328Y003738D01*
X023380Y003706D01*
X023429Y003671D01*
X023476Y003632D01*
X023520Y003591D01*
X023561Y003547D01*
X023600Y003500D01*
X023635Y003451D01*
X023667Y003400D01*
X023696Y003346D01*
X023721Y003291D01*
X023742Y003234D01*
X023759Y003176D01*
X023773Y003117D01*
X023783Y003058D01*
X023789Y002997D01*
X023791Y002937D01*
X023789Y002877D01*
X023783Y002816D01*
X023773Y002757D01*
X023759Y002698D01*
X023742Y002640D01*
X023721Y002583D01*
X023696Y002528D01*
X023667Y002475D01*
X023635Y002423D01*
X023600Y002374D01*
X023561Y002327D01*
X023520Y002283D01*
X023476Y002242D01*
X023429Y002203D01*
X023380Y002168D01*
X023329Y002136D01*
X023275Y002107D01*
X023220Y002082D01*
X023163Y002061D01*
X023105Y002044D01*
X023046Y002030D01*
X022987Y002020D01*
X022926Y002014D01*
X022866Y002012D01*
X022806Y002014D01*
X022745Y002020D01*
X022686Y002030D01*
X022627Y002044D01*
X022569Y002061D01*
X022512Y002082D01*
X022457Y002107D01*
X022404Y002136D01*
X022352Y002168D01*
X022303Y002203D01*
X022256Y002242D01*
X022212Y002283D01*
X022171Y002327D01*
X022132Y002374D01*
X022097Y002423D01*
X022065Y002474D01*
X022036Y002528D01*
X022011Y002583D01*
X021990Y002640D01*
X021973Y002698D01*
X021959Y002757D01*
X021949Y002816D01*
X021943Y002877D01*
X021941Y002937D01*
D11*
X020707Y008584D02*
X019145Y008584D01*
D12*
X019224Y003697D02*
X019224Y002469D01*
X019838Y003083D02*
X018610Y003083D01*
D13*
X017111Y004763D02*
X017111Y004824D01*
X017354Y005067D01*
X017354Y005127D01*
X017111Y005127D01*
X016991Y005067D02*
X016931Y005127D01*
X016809Y005127D01*
X016749Y005067D01*
X016749Y004824D01*
X016809Y004763D01*
X016931Y004763D01*
X016991Y004824D01*
X013779Y004861D02*
X013536Y004618D01*
X013597Y004557D01*
X013718Y004557D01*
X013779Y004618D01*
X013779Y004861D01*
X013718Y004921D01*
X013597Y004921D01*
X013536Y004861D01*
X013536Y004618D01*
X013416Y004557D02*
X013174Y004557D01*
X013054Y004557D02*
X012932Y004679D01*
X012993Y004679D02*
X012811Y004679D01*
X012811Y004557D02*
X012811Y004921D01*
X012993Y004921D01*
X013054Y004861D01*
X013054Y004739D01*
X012993Y004679D01*
X013174Y004800D02*
X013295Y004921D01*
X013295Y004557D01*
X013310Y004006D02*
X013431Y004006D01*
X013492Y003946D01*
X013492Y003885D01*
X013431Y003824D01*
X013492Y003764D01*
X013492Y003703D01*
X013431Y003642D01*
X013310Y003642D01*
X013249Y003703D01*
X013129Y003642D02*
X013008Y003764D01*
X013069Y003764D02*
X012887Y003764D01*
X012887Y003642D02*
X012887Y004006D01*
X013069Y004006D01*
X013129Y003946D01*
X013129Y003824D01*
X013069Y003764D01*
X013249Y003946D02*
X013310Y004006D01*
X013370Y003824D02*
X013431Y003824D01*
X012702Y002478D02*
X012520Y002478D01*
X012520Y002114D01*
X012401Y002114D02*
X012401Y002478D01*
X012158Y002478D02*
X012158Y002114D01*
X012279Y002235D01*
X012401Y002114D01*
X012520Y002235D02*
X012702Y002235D01*
X012763Y002296D01*
X012763Y002417D01*
X012702Y002478D01*
X012642Y002235D02*
X012763Y002114D01*
X012038Y002296D02*
X011977Y002235D01*
X011795Y002235D01*
X011795Y002114D02*
X011795Y002478D01*
X011977Y002478D01*
X012038Y002417D01*
X012038Y002296D01*
X010875Y002106D02*
X010633Y002106D01*
X010633Y002470D01*
X010150Y002410D02*
X010090Y002470D01*
X009968Y002470D01*
X009908Y002410D01*
X009908Y002167D01*
X009968Y002106D01*
X010090Y002106D01*
X010150Y002167D01*
X010150Y002288D01*
X010029Y002288D01*
X009788Y002228D02*
X009788Y002167D01*
X009727Y002106D01*
X009545Y002106D01*
X009545Y002470D01*
X009727Y002470D01*
X009788Y002410D01*
X009788Y002349D01*
X009727Y002288D01*
X009545Y002288D01*
X009425Y002167D02*
X009425Y002410D01*
X009365Y002470D01*
X009183Y002470D01*
X009183Y002106D01*
X009365Y002106D01*
X009425Y002167D01*
X009727Y002288D02*
X009788Y002228D01*
X010270Y002046D02*
X010513Y002046D01*
X009669Y003837D02*
X009427Y003837D01*
X009548Y003837D02*
X009548Y004201D01*
X009427Y004080D01*
X009307Y004140D02*
X009246Y004201D01*
X009125Y004201D01*
X009064Y004140D01*
X009064Y003898D01*
X009125Y003837D01*
X009246Y003837D01*
X009307Y003898D01*
X009326Y004919D02*
X009204Y005040D01*
X009265Y005040D02*
X009083Y005040D01*
X009083Y004919D02*
X009083Y005283D01*
X009265Y005283D01*
X009326Y005222D01*
X009326Y005101D01*
X009265Y005040D01*
X009445Y004919D02*
X009688Y004919D01*
X009567Y004919D02*
X009567Y005283D01*
X009445Y005161D01*
X012401Y006208D02*
X012715Y006521D01*
X012401Y006208D01*
X012401Y006364D02*
X012715Y006364D01*
X012401Y006364D01*
X012401Y006521D02*
X012715Y006208D01*
X012401Y006521D01*
X012558Y006521D02*
X012558Y006208D01*
X012558Y006521D01*
X012933Y005818D02*
X013118Y005818D01*
X013180Y005756D01*
X013180Y005633D01*
X013118Y005571D01*
X012933Y005571D01*
X013056Y005571D02*
X013180Y005448D01*
X013301Y005509D02*
X013301Y005571D01*
X013363Y005633D01*
X013486Y005633D01*
X013548Y005571D01*
X013548Y005509D01*
X013486Y005448D01*
X013363Y005448D01*
X013301Y005509D01*
X013363Y005633D02*
X013301Y005694D01*
X013301Y005756D01*
X013363Y005818D01*
X013486Y005818D01*
X013548Y005756D01*
X013548Y005694D01*
X013486Y005633D01*
X012933Y005448D02*
X012933Y005818D01*
X016833Y007058D02*
X016833Y007422D01*
X017015Y007422D01*
X017076Y007361D01*
X017076Y007240D01*
X017015Y007179D01*
X016833Y007179D01*
X016955Y007179D02*
X017076Y007058D01*
X017196Y007058D02*
X017438Y007058D01*
X017317Y007058D02*
X017317Y007422D01*
X017196Y007300D01*
X017558Y007361D02*
X017619Y007422D01*
X017740Y007422D01*
X017801Y007361D01*
X017801Y007300D01*
X017740Y007240D01*
X017801Y007179D01*
X017801Y007118D01*
X017740Y007058D01*
X017619Y007058D01*
X017558Y007118D01*
X017680Y007240D02*
X017740Y007240D01*
X011748Y009425D02*
X011384Y009425D01*
X011384Y009607D01*
X011445Y009668D01*
X011566Y009668D01*
X011627Y009607D01*
X011627Y009425D01*
X011627Y009546D02*
X011748Y009668D01*
X011748Y009787D02*
X011748Y010030D01*
X011748Y009909D02*
X011384Y009909D01*
X011506Y009787D01*
X011566Y010150D02*
X011566Y010393D01*
X011384Y010332D02*
X011566Y010150D01*
X011748Y010332D02*
X011384Y010332D01*
X010154Y010622D02*
X010154Y010743D01*
X010093Y010804D01*
X009972Y010924D02*
X009972Y011166D01*
X010154Y011106D02*
X009790Y011106D01*
X009972Y010924D01*
X009850Y010804D02*
X009790Y010743D01*
X009790Y010622D01*
X009850Y010561D01*
X010093Y010561D01*
X010154Y010622D01*
D14*
X010129Y002933D03*
X012129Y002933D03*
D15*
X004668Y001433D02*
X004418Y001683D01*
X004418Y003183D01*
X004668Y003433D01*
X005168Y003433D01*
X005418Y003183D01*
X005418Y001683D01*
X005168Y001433D01*
X004668Y001433D01*
X005418Y001683D02*
X005668Y001433D01*
X006168Y001433D01*
X006418Y001683D01*
X006418Y003183D01*
X006168Y003433D01*
X005668Y003433D01*
X005418Y003183D01*
X006418Y003183D02*
X006668Y003433D01*
X007168Y003433D01*
X007418Y003183D01*
X007418Y001683D01*
X007168Y001433D01*
X006668Y001433D01*
X006418Y001683D01*
X006668Y003564D02*
X007168Y003564D01*
X014140Y003877D02*
X014140Y004388D01*
X014199Y004388D01*
X014199Y003877D02*
X014140Y003877D01*
X015537Y003877D02*
X015577Y003877D01*
X015577Y004388D01*
X015537Y004388D01*
X016327Y006463D02*
X016944Y006463D01*
X017068Y006586D01*
X017068Y006833D01*
X016944Y006956D01*
X016327Y006956D01*
X016574Y007218D02*
X016327Y007464D01*
X017068Y007464D01*
X017068Y007218D02*
X017068Y007711D01*
X020195Y005176D02*
X020197Y005191D01*
X020203Y005204D01*
X020212Y005216D01*
X020223Y005225D01*
X020237Y005231D01*
X020252Y005233D01*
X020267Y005231D01*
X020280Y005225D01*
X020292Y005216D01*
X020301Y005205D01*
X020307Y005191D01*
X020309Y005176D01*
X020307Y005161D01*
X020301Y005148D01*
X020292Y005136D01*
X020281Y005127D01*
X020267Y005121D01*
X020252Y005119D01*
X020237Y005121D01*
X020224Y005127D01*
X020212Y005136D01*
X020203Y005147D01*
X020197Y005161D01*
X020195Y005176D01*
D16*
X015405Y005853D02*
X015098Y005853D01*
X015405Y006159D01*
X015405Y006236D01*
X015328Y006313D01*
X015175Y006313D01*
X015098Y006236D01*
X014945Y006236D02*
X014945Y006083D01*
X014868Y006006D01*
X014638Y006006D01*
X014791Y006006D02*
X014945Y005853D01*
X014638Y005853D02*
X014638Y006313D01*
X014868Y006313D01*
X014945Y006236D01*
X008558Y006207D02*
X008558Y006089D01*
X008499Y006030D01*
X008263Y006030D01*
X008204Y006089D01*
X008204Y006207D01*
X008263Y006266D01*
X008499Y006266D01*
X008558Y006207D01*
X008499Y005904D02*
X008558Y005845D01*
X008558Y005727D01*
X008499Y005668D01*
X008263Y005668D01*
X008204Y005727D01*
X008204Y005845D01*
X008263Y005904D01*
X008204Y005541D02*
X008558Y005541D01*
X008204Y005305D01*
X008558Y005305D01*
X008558Y005179D02*
X008322Y005179D01*
X008204Y005061D01*
X008322Y004943D01*
X008558Y004943D01*
X008499Y004816D02*
X008558Y004757D01*
X008558Y004580D01*
X008204Y004580D01*
X008204Y004757D01*
X008263Y004816D01*
X008322Y004816D01*
X008381Y004757D01*
X008381Y004580D01*
X008381Y004757D02*
X008440Y004816D01*
X008499Y004816D01*
X008381Y004943D02*
X008381Y005179D01*
X005705Y001242D02*
X005528Y001242D01*
X005528Y000888D01*
X005528Y001006D02*
X005705Y001006D01*
X005764Y001065D01*
X005764Y001183D01*
X005705Y001242D01*
X005402Y001183D02*
X005343Y001242D01*
X005225Y001242D01*
X005166Y001183D01*
X005166Y001124D01*
X005225Y001065D01*
X005343Y001065D01*
X005402Y001006D01*
X005402Y000947D01*
X005343Y000888D01*
X005225Y000888D01*
X005166Y000947D01*
X005042Y000888D02*
X004924Y000888D01*
X004983Y000888D02*
X004983Y001242D01*
X004924Y001242D02*
X005042Y001242D01*
X005670Y009729D02*
X005730Y009789D01*
X005730Y009849D01*
X005670Y009909D01*
X005369Y009909D01*
X005369Y009849D02*
X005369Y009969D01*
X005490Y010098D02*
X005369Y010218D01*
X005730Y010218D01*
X005730Y010098D02*
X005730Y010338D01*
D17*
X007074Y004614D02*
X007862Y004614D01*
X014087Y002223D02*
X014087Y002066D01*
X014087Y002223D02*
X014092Y002243D01*
X014101Y002262D01*
X014112Y002279D01*
X014127Y002294D01*
X014144Y002306D01*
X014163Y002315D01*
X014183Y002321D01*
X014204Y002323D01*
X014225Y002321D01*
X016351Y002321D01*
X016368Y002320D01*
X016385Y002315D01*
X016400Y002308D01*
X016414Y002298D01*
X016426Y002286D01*
X016436Y002272D01*
X016443Y002257D01*
X016448Y002240D01*
X016449Y002223D01*
X016449Y002066D01*
X015858Y001928D02*
X015858Y001337D01*
X014677Y001337D01*
X014677Y001928D01*
X015858Y001928D01*
X016449Y001199D02*
X016449Y001042D01*
X016448Y001025D01*
X016443Y001008D01*
X016436Y000993D01*
X016426Y000979D01*
X016414Y000967D01*
X016400Y000957D01*
X016385Y000950D01*
X016368Y000945D01*
X016351Y000944D01*
X014185Y000944D01*
X014168Y000945D01*
X014151Y000950D01*
X014136Y000957D01*
X014122Y000967D01*
X014110Y000979D01*
X014100Y000993D01*
X014093Y001008D01*
X014088Y001025D01*
X014087Y001042D01*
X014087Y001199D01*
D18*
X008058Y004614D02*
X008058Y008551D01*
X006838Y008551D01*
X006838Y004614D01*
X008058Y004614D01*
X006838Y004614D02*
X004161Y004614D01*
X004161Y005480D01*
X004555Y005480D01*
X004555Y007685D01*
X004161Y007685D01*
X004161Y008551D01*
X006838Y008551D01*
X006239Y008999D02*
X006239Y009499D01*
X003089Y009499D01*
X002889Y009599D01*
X002889Y010019D01*
X002889Y009979D01*
X002889Y010019D02*
X002889Y010399D01*
X003089Y010499D01*
X006239Y010499D01*
X006239Y010649D02*
X003789Y010649D01*
X003649Y010519D01*
X003649Y009479D02*
X003789Y009349D01*
X006239Y009349D01*
X006239Y009499D02*
X006239Y010649D01*
X006239Y010999D01*
X007489Y010999D01*
X007489Y010749D01*
X007239Y010749D01*
X007239Y010249D01*
X007489Y010249D01*
X007489Y009749D01*
X007239Y009749D01*
X007239Y009249D01*
X007489Y009249D01*
X007489Y008999D01*
X006239Y008999D01*
D19*
X015007Y001739D02*
X015007Y001692D01*
X015053Y001645D01*
X015147Y001645D01*
X015193Y001599D01*
X015193Y001552D01*
X015147Y001505D01*
X015053Y001505D01*
X015007Y001552D01*
X015007Y001739D02*
X015053Y001785D01*
X015147Y001785D01*
X015193Y001739D01*
X015283Y001692D02*
X015376Y001785D01*
X015376Y001505D01*
X015283Y001505D02*
X015470Y001505D01*
D20*
X019506Y005541D02*
X019557Y005491D01*
X019657Y005491D01*
X019582Y005491D02*
X019582Y005591D01*
X019557Y005591D02*
X019657Y005591D01*
X019632Y005638D02*
X019657Y005663D01*
X019657Y005713D01*
X019632Y005738D01*
X019632Y005785D02*
X019657Y005810D01*
X019657Y005860D01*
X019632Y005885D01*
X019607Y005885D01*
X019582Y005860D01*
X019582Y005810D01*
X019557Y005785D01*
X019532Y005785D01*
X019506Y005810D01*
X019506Y005860D01*
X019532Y005885D01*
X019506Y005933D02*
X019506Y006033D01*
X019532Y006033D01*
X019632Y005933D01*
X019657Y005933D01*
X019657Y006080D02*
X019657Y006180D01*
X019657Y006227D02*
X019657Y006327D01*
X019657Y006277D02*
X019506Y006277D01*
X019557Y006227D01*
X019506Y006130D02*
X019657Y006130D01*
X019557Y006080D02*
X019506Y006130D01*
X019532Y005738D02*
X019506Y005713D01*
X019506Y005663D01*
X019532Y005638D01*
X019632Y005638D01*
X019557Y005591D02*
X019506Y005541D01*
D21*
X006761Y009224D02*
X006474Y009224D01*
X006618Y009224D02*
X006618Y009655D01*
X006474Y009511D01*
X006524Y010204D02*
X006811Y010491D01*
X006811Y010563D01*
X006740Y010635D01*
X006596Y010635D01*
X006524Y010563D01*
X006524Y010204D02*
X006811Y010204D01*
M02*
