G75*
%MOIN*%
%OFA0B0*%
%FSLAX24Y24*%
%IPPOS*%
%LPD*%
%AMOC8*
5,1,8,0,0,1.08239X$1,22.5*
%
%ADD10C,0.0100*%
%ADD11OC8,0.0740*%
%ADD12R,0.0480X0.0880*%
%ADD13R,0.1417X0.0866*%
%ADD14R,0.0591X0.0512*%
%ADD15R,0.0177X0.0512*%
%ADD16R,0.0512X0.0591*%
%ADD17R,0.0515X0.0515*%
%ADD18C,0.0515*%
%ADD19C,0.3543*%
%ADD20C,0.0600*%
%ADD21C,0.0160*%
%ADD22C,0.0317*%
%ADD23C,0.0356*%
%ADD24C,0.0277*%
D10*
X009868Y003459D02*
X010218Y003109D01*
X010218Y002159D01*
X010318Y002059D01*
X010918Y002059D01*
X012518Y002780D02*
X012540Y003752D01*
X012518Y002780D02*
X012668Y002509D01*
X018118Y005559D02*
X018118Y007059D01*
X017618Y007559D01*
X016818Y007609D01*
X016818Y010109D01*
X018518Y010108D02*
X023968Y010108D01*
X023968Y010206D02*
X018518Y010206D01*
X018518Y010305D02*
X023968Y010305D01*
X023968Y010403D02*
X018518Y010403D01*
X018518Y010502D02*
X023968Y010502D01*
X023968Y010600D02*
X018518Y010600D01*
X018518Y010699D02*
X023968Y010699D01*
X023968Y010759D02*
X023968Y006009D01*
X018518Y006009D01*
X018518Y010759D01*
X023968Y010759D01*
X023968Y010009D02*
X018518Y010009D01*
X018518Y009911D02*
X023968Y009911D01*
X023968Y009812D02*
X018518Y009812D01*
X018518Y009714D02*
X023968Y009714D01*
X023968Y009615D02*
X018518Y009615D01*
X018518Y009517D02*
X023968Y009517D01*
X023968Y009418D02*
X018518Y009418D01*
X018518Y009320D02*
X023968Y009320D01*
X023968Y009221D02*
X018518Y009221D01*
X018518Y009123D02*
X023968Y009123D01*
X023968Y009024D02*
X018518Y009024D01*
X018518Y008926D02*
X023968Y008926D01*
X023968Y008827D02*
X018518Y008827D01*
X018518Y008729D02*
X023968Y008729D01*
X023968Y008630D02*
X018518Y008630D01*
X018518Y008532D02*
X023968Y008532D01*
X023968Y008433D02*
X018518Y008433D01*
X018518Y008335D02*
X023968Y008335D01*
X023968Y008236D02*
X018518Y008236D01*
X018518Y008138D02*
X023968Y008138D01*
X023968Y008039D02*
X018518Y008039D01*
X018518Y007941D02*
X023968Y007941D01*
X023968Y007842D02*
X018518Y007842D01*
X018518Y007744D02*
X023968Y007744D01*
X023968Y007645D02*
X018518Y007645D01*
X018518Y007547D02*
X023968Y007547D01*
X023968Y007448D02*
X018518Y007448D01*
X018518Y007350D02*
X023968Y007350D01*
X023968Y007251D02*
X018518Y007251D01*
X018518Y007153D02*
X023968Y007153D01*
X023968Y007054D02*
X018518Y007054D01*
X018518Y006956D02*
X023968Y006956D01*
X023968Y006857D02*
X018518Y006857D01*
X018518Y006759D02*
X023968Y006759D01*
X023968Y006660D02*
X018518Y006660D01*
X018518Y006562D02*
X023968Y006562D01*
X023968Y006463D02*
X018518Y006463D01*
X018518Y006365D02*
X023968Y006365D01*
X023968Y006266D02*
X018518Y006266D01*
X018518Y006168D02*
X023968Y006168D01*
X023968Y006069D02*
X018518Y006069D01*
X018568Y005709D02*
X018568Y001059D01*
X023968Y001059D01*
X023968Y005709D01*
X018568Y005709D01*
X018568Y005675D02*
X023968Y005675D01*
X023968Y005577D02*
X018568Y005577D01*
X018568Y005478D02*
X023968Y005478D01*
X023968Y005380D02*
X018568Y005380D01*
X018568Y005281D02*
X023968Y005281D01*
X023968Y005183D02*
X018568Y005183D01*
X018568Y005084D02*
X023968Y005084D01*
X023968Y004986D02*
X018568Y004986D01*
X018568Y004887D02*
X023968Y004887D01*
X023968Y004789D02*
X018568Y004789D01*
X018568Y004690D02*
X023968Y004690D01*
X023968Y004592D02*
X018568Y004592D01*
X018568Y004493D02*
X023968Y004493D01*
X023968Y004395D02*
X018568Y004395D01*
X018568Y004296D02*
X023968Y004296D01*
X023968Y004198D02*
X018568Y004198D01*
X018568Y004099D02*
X023968Y004099D01*
X023968Y004001D02*
X018568Y004001D01*
X018568Y003902D02*
X023968Y003902D01*
X023968Y003804D02*
X018568Y003804D01*
X018568Y003705D02*
X023968Y003705D01*
X023968Y003607D02*
X018568Y003607D01*
X018568Y003508D02*
X023968Y003508D01*
X023968Y003410D02*
X018568Y003410D01*
X018568Y003311D02*
X023968Y003311D01*
X023968Y003213D02*
X018568Y003213D01*
X018568Y003114D02*
X023968Y003114D01*
X023968Y003016D02*
X018568Y003016D01*
X018568Y002917D02*
X023968Y002917D01*
X023968Y002819D02*
X018568Y002819D01*
X018568Y002720D02*
X023968Y002720D01*
X023968Y002622D02*
X018568Y002622D01*
X018568Y002523D02*
X023968Y002523D01*
X023968Y002425D02*
X018568Y002425D01*
X018568Y002326D02*
X023968Y002326D01*
X023968Y002228D02*
X018568Y002228D01*
X018568Y002129D02*
X023968Y002129D01*
X023968Y002031D02*
X018568Y002031D01*
X018568Y001932D02*
X023968Y001932D01*
X023968Y001834D02*
X018568Y001834D01*
X018568Y001735D02*
X023968Y001735D01*
X023968Y001637D02*
X018568Y001637D01*
X018568Y001538D02*
X023968Y001538D01*
X023968Y001440D02*
X018568Y001440D01*
X018568Y001341D02*
X023968Y001341D01*
X023968Y001243D02*
X018568Y001243D01*
X018568Y001144D02*
X023968Y001144D01*
D11*
X006918Y002309D03*
X005918Y002309D03*
X004918Y002309D03*
X004918Y003309D03*
X005918Y003309D03*
X006918Y003309D03*
D12*
X008258Y004779D03*
X009168Y004779D03*
X010078Y004779D03*
D13*
X009168Y002339D03*
D14*
X011479Y009435D03*
X011479Y010183D03*
D15*
X012284Y005366D03*
X012540Y005366D03*
X012796Y005366D03*
X013052Y005366D03*
X013052Y003752D03*
X012796Y003752D03*
X012540Y003752D03*
X012284Y003752D03*
D16*
X010192Y006009D03*
X009444Y006009D03*
D17*
X007018Y005378D03*
D18*
X007018Y006165D03*
X007018Y006952D03*
X007018Y007740D03*
D19*
X021466Y008819D03*
X021466Y002913D03*
D20*
X007839Y009375D02*
X007239Y009375D01*
X007239Y010375D02*
X007839Y010375D01*
D21*
X004048Y001268D02*
X004048Y000289D01*
X008226Y000289D01*
X017568Y000409D01*
X017454Y000429D01*
X017453Y000429D01*
X017183Y000429D01*
X016933Y000532D01*
X016741Y000724D01*
X016638Y000973D01*
X016638Y001244D01*
X016741Y001494D01*
X016933Y001685D01*
X017183Y001789D01*
X017402Y001789D01*
X017375Y007384D01*
X016812Y007419D01*
X016739Y007419D01*
X016734Y007424D01*
X016728Y007424D01*
X016679Y007479D01*
X016628Y007530D01*
X016628Y007537D01*
X016623Y007542D01*
X016628Y007615D01*
X016628Y009847D01*
X016587Y009806D01*
X016538Y009785D01*
X016538Y002818D01*
X016088Y002368D01*
X015959Y002239D01*
X014913Y002239D01*
X013337Y000571D01*
X013337Y000566D01*
X013275Y000505D01*
X013215Y000441D01*
X013211Y000441D01*
X013208Y000438D01*
X013120Y000439D01*
X013033Y000436D01*
X013030Y000439D01*
X005185Y000489D01*
X005114Y000477D01*
X005097Y000489D01*
X005075Y000489D01*
X005025Y000541D01*
X004406Y000982D01*
X004397Y000981D01*
X004333Y001034D01*
X004266Y001083D01*
X004264Y001092D01*
X004088Y001239D01*
X004077Y001239D01*
X004048Y001268D01*
X004048Y001165D02*
X004176Y001165D01*
X004048Y001007D02*
X004367Y001007D01*
X004594Y000848D02*
X004048Y000848D01*
X004048Y000690D02*
X004816Y000690D01*
X005034Y000531D02*
X004048Y000531D01*
X004048Y000373D02*
X014767Y000373D01*
X013899Y001165D02*
X016638Y001165D01*
X016638Y001007D02*
X013749Y001007D01*
X013600Y000848D02*
X016690Y000848D01*
X016775Y000690D02*
X013450Y000690D01*
X013302Y000531D02*
X016935Y000531D01*
X016671Y001324D02*
X014049Y001324D01*
X014198Y001482D02*
X016737Y001482D01*
X016888Y001641D02*
X014348Y001641D01*
X014498Y001799D02*
X017402Y001799D01*
X017401Y001958D02*
X014647Y001958D01*
X014797Y002116D02*
X017400Y002116D01*
X017399Y002275D02*
X015995Y002275D01*
X015868Y002459D02*
X014818Y002459D01*
X013118Y000659D01*
X005168Y000709D01*
X004468Y001209D01*
X004168Y001459D01*
X004168Y004109D01*
X004388Y003879D02*
X004438Y003929D01*
X004486Y004045D01*
X004486Y004172D01*
X004438Y004289D01*
X004348Y004378D01*
X004231Y004427D01*
X004105Y004427D01*
X004048Y004403D01*
X004048Y010388D01*
X004057Y010429D01*
X004110Y010568D01*
X004184Y010698D01*
X004278Y010815D01*
X004389Y010915D01*
X004514Y010997D01*
X004651Y011059D01*
X004795Y011098D01*
X004944Y011114D01*
X011435Y011048D01*
X011365Y010978D01*
X011319Y010868D01*
X011319Y010821D01*
X011259Y010761D01*
X011259Y010579D01*
X011126Y010579D01*
X011044Y010497D01*
X011044Y009869D01*
X011077Y009836D01*
X011074Y009835D01*
X011040Y009801D01*
X011016Y009760D01*
X011004Y009714D01*
X011004Y009483D01*
X011431Y009483D01*
X011431Y009387D01*
X011004Y009387D01*
X011004Y009155D01*
X011016Y009109D01*
X011040Y009068D01*
X011074Y009035D01*
X011115Y009011D01*
X011160Y008999D01*
X011431Y008999D01*
X011431Y009387D01*
X011527Y009387D01*
X011527Y008999D01*
X011798Y008999D01*
X011844Y009011D01*
X011885Y009035D01*
X011919Y009068D01*
X011942Y009109D01*
X011955Y009155D01*
X011955Y009387D01*
X011527Y009387D01*
X011527Y009483D01*
X011955Y009483D01*
X011955Y009714D01*
X011942Y009760D01*
X011919Y009801D01*
X011885Y009835D01*
X011882Y009836D01*
X011915Y009869D01*
X011915Y010497D01*
X011833Y010579D01*
X011810Y010579D01*
X011871Y010640D01*
X011916Y010749D01*
X011916Y010868D01*
X011871Y010978D01*
X011804Y011044D01*
X012875Y011033D01*
X012850Y010972D01*
X012850Y010845D01*
X012898Y010729D01*
X012988Y010639D01*
X013105Y010591D01*
X013231Y010591D01*
X013348Y010639D01*
X013398Y010689D01*
X016196Y010689D01*
X016403Y010357D01*
X016359Y010357D01*
X016249Y010312D01*
X016165Y010228D01*
X016119Y010118D01*
X016119Y010071D01*
X016098Y010050D01*
X016098Y009628D01*
X016027Y009657D01*
X015916Y009657D01*
X015916Y009718D01*
X015871Y009828D01*
X015787Y009912D01*
X015677Y009957D01*
X015559Y009957D01*
X015449Y009912D01*
X015365Y009828D01*
X015319Y009718D01*
X015319Y009599D01*
X015365Y009490D01*
X015398Y009457D01*
X015398Y003300D01*
X015377Y003279D01*
X014522Y003279D01*
X014436Y003282D01*
X014432Y003279D01*
X014427Y003279D01*
X014366Y003217D01*
X012589Y001581D01*
X012527Y001607D01*
X012504Y001607D01*
X012504Y003316D01*
X012540Y003316D01*
X012652Y003316D01*
X012668Y003320D01*
X012684Y003316D01*
X012796Y003316D01*
X012908Y003316D01*
X012924Y003320D01*
X012939Y003316D01*
X013052Y003316D01*
X013164Y003316D01*
X013210Y003328D01*
X013251Y003352D01*
X013284Y003385D01*
X013308Y003426D01*
X013320Y003472D01*
X013320Y003752D01*
X013320Y004031D01*
X013308Y004077D01*
X013284Y004118D01*
X013251Y004152D01*
X013210Y004175D01*
X013164Y004188D01*
X013052Y004188D01*
X013052Y004078D01*
X013052Y004188D01*
X012939Y004188D01*
X012924Y004183D01*
X012908Y004188D01*
X012796Y004188D01*
X012796Y004078D01*
X012796Y004078D01*
X012796Y004188D01*
X012684Y004188D01*
X012668Y004183D01*
X012652Y004188D01*
X012540Y004188D01*
X012540Y004078D01*
X012540Y004078D01*
X012540Y004188D01*
X012428Y004188D01*
X012382Y004175D01*
X012341Y004152D01*
X012337Y004148D01*
X012137Y004148D01*
X012055Y004066D01*
X012055Y003438D01*
X012064Y003429D01*
X012064Y001779D01*
X010770Y001779D01*
X010737Y001812D01*
X010627Y001857D01*
X010509Y001857D01*
X010399Y001812D01*
X010369Y001782D01*
X009958Y001789D01*
X010017Y001848D01*
X010017Y002830D01*
X009935Y002912D01*
X008906Y002912D01*
X008538Y003280D01*
X008566Y003349D01*
X008566Y003468D01*
X008558Y003489D01*
X009209Y003489D01*
X009919Y004199D01*
X010376Y004199D01*
X010458Y004281D01*
X010458Y005277D01*
X010376Y005359D01*
X009780Y005359D01*
X009698Y005277D01*
X009698Y004600D01*
X009548Y004450D01*
X009548Y005277D01*
X009466Y005359D01*
X008870Y005359D01*
X008788Y005277D01*
X008788Y004999D01*
X008678Y004999D01*
X008678Y005242D01*
X008666Y005288D01*
X008642Y005329D01*
X008608Y005363D01*
X008567Y005386D01*
X008522Y005399D01*
X008298Y005399D01*
X008298Y004819D01*
X008218Y004819D01*
X008218Y005399D01*
X007994Y005399D01*
X007948Y005386D01*
X007907Y005363D01*
X007874Y005329D01*
X007850Y005288D01*
X007838Y005242D01*
X007838Y004819D01*
X008218Y004819D01*
X008218Y004739D01*
X007838Y004739D01*
X007838Y004315D01*
X007850Y004269D01*
X007874Y004228D01*
X007907Y004195D01*
X007948Y004171D01*
X007994Y004159D01*
X008218Y004159D01*
X008218Y004739D01*
X008298Y004739D01*
X008298Y004159D01*
X008386Y004159D01*
X008369Y004118D01*
X008369Y003999D01*
X008399Y003929D01*
X008065Y003929D01*
X007785Y004053D01*
X007738Y006455D01*
X007738Y006544D01*
X007736Y006545D01*
X007736Y006548D01*
X007672Y006609D01*
X007413Y006868D01*
X007415Y006873D01*
X007415Y007031D01*
X007355Y007178D01*
X007243Y007289D01*
X007157Y007325D01*
X007186Y007334D01*
X007247Y007366D01*
X007303Y007406D01*
X007352Y007455D01*
X007392Y007511D01*
X007423Y007572D01*
X007445Y007637D01*
X007455Y007705D01*
X007455Y007740D01*
X007455Y007774D01*
X007445Y007842D01*
X007423Y007908D01*
X007392Y007969D01*
X007352Y008025D01*
X007303Y008074D01*
X007247Y008114D01*
X007186Y008145D01*
X007120Y008167D01*
X007052Y008177D01*
X007018Y008177D01*
X007018Y007740D01*
X007018Y007740D01*
X007455Y007740D01*
X007018Y007740D01*
X007018Y007740D01*
X007018Y008177D01*
X006983Y008177D01*
X006915Y008167D01*
X006850Y008145D01*
X006789Y008114D01*
X006733Y008074D01*
X006684Y008025D01*
X006644Y007969D01*
X006612Y007908D01*
X006591Y007842D01*
X006580Y007774D01*
X006580Y007740D01*
X007018Y007740D01*
X007018Y007740D01*
X006580Y007740D01*
X006580Y007705D01*
X006591Y007637D01*
X006612Y007572D01*
X006644Y007511D01*
X006684Y007455D01*
X006733Y007406D01*
X006789Y007366D01*
X006850Y007334D01*
X006879Y007325D01*
X006793Y007289D01*
X006681Y007178D01*
X006679Y007172D01*
X006173Y007172D01*
X006171Y007178D01*
X006087Y007262D01*
X005977Y007307D01*
X005859Y007307D01*
X005749Y007262D01*
X005665Y007178D01*
X005619Y007068D01*
X005619Y006949D01*
X005665Y006840D01*
X005749Y006756D01*
X005859Y006710D01*
X005977Y006710D01*
X006031Y006732D01*
X006679Y006732D01*
X006681Y006727D01*
X006793Y006615D01*
X006930Y006559D01*
X006793Y006502D01*
X006681Y006390D01*
X006620Y006244D01*
X006620Y006086D01*
X006681Y005940D01*
X006793Y005828D01*
X006921Y005775D01*
X006702Y005775D01*
X006620Y005693D01*
X006620Y005062D01*
X006702Y004980D01*
X007327Y004980D01*
X007330Y004815D01*
X007227Y004857D01*
X007109Y004857D01*
X006999Y004812D01*
X006915Y004728D01*
X006869Y004618D01*
X006869Y004571D01*
X006117Y003819D01*
X005707Y003819D01*
X005418Y003530D01*
X005129Y003819D01*
X004707Y003819D01*
X004408Y003520D01*
X004408Y003097D01*
X004668Y002837D01*
X004388Y002557D01*
X004388Y003879D01*
X004388Y003860D02*
X006158Y003860D01*
X006316Y004018D02*
X005533Y004018D01*
X005521Y003990D02*
X005566Y004099D01*
X005566Y004218D01*
X005521Y004328D01*
X005437Y004412D01*
X005327Y004457D01*
X005294Y004457D01*
X004988Y004794D01*
X004988Y007625D01*
X005665Y008387D01*
X008575Y008340D01*
X008577Y008339D01*
X008666Y008339D01*
X008755Y008337D01*
X008757Y008339D01*
X008759Y008339D01*
X008822Y008402D01*
X008886Y008464D01*
X008886Y008466D01*
X009109Y008689D01*
X009928Y008689D01*
X009919Y008668D01*
X009919Y008549D01*
X009965Y008440D01*
X009972Y008433D01*
X009972Y006444D01*
X009878Y006444D01*
X009818Y006384D01*
X009758Y006444D01*
X009688Y006444D01*
X009688Y006457D01*
X009721Y006490D01*
X009766Y006599D01*
X009766Y006718D01*
X009721Y006828D01*
X009637Y006912D01*
X009527Y006957D01*
X009409Y006957D01*
X009299Y006912D01*
X009215Y006828D01*
X009169Y006718D01*
X009169Y006599D01*
X009215Y006490D01*
X009248Y006457D01*
X009248Y006444D01*
X009130Y006444D01*
X009048Y006362D01*
X009048Y005655D01*
X009130Y005573D01*
X009758Y005573D01*
X009818Y005634D01*
X009878Y005573D01*
X010316Y005573D01*
X010615Y005275D01*
X010744Y005146D01*
X012055Y005146D01*
X012055Y005052D01*
X012097Y005010D01*
X012015Y004928D01*
X011969Y004818D01*
X011969Y004699D01*
X012015Y004590D01*
X012099Y004506D01*
X012209Y004460D01*
X012327Y004460D01*
X012437Y004506D01*
X012521Y004590D01*
X012566Y004699D01*
X012566Y004746D01*
X012631Y004811D01*
X012760Y004940D01*
X012760Y004970D01*
X012849Y004970D01*
X012853Y004966D01*
X012894Y004942D01*
X012939Y004930D01*
X013052Y004930D01*
X013164Y004930D01*
X013210Y004942D01*
X013251Y004966D01*
X013284Y004999D01*
X013308Y005040D01*
X013320Y005086D01*
X013320Y005366D01*
X013320Y005645D01*
X013308Y005691D01*
X013284Y005732D01*
X013251Y005766D01*
X013210Y005789D01*
X013164Y005802D01*
X013052Y005802D01*
X013052Y005366D01*
X013320Y005366D01*
X013052Y005366D01*
X013052Y005366D01*
X013052Y005366D01*
X013052Y005802D01*
X012939Y005802D01*
X012894Y005789D01*
X012853Y005766D01*
X012849Y005762D01*
X012744Y005762D01*
X012785Y008253D01*
X012821Y008290D01*
X012866Y008399D01*
X012866Y008518D01*
X012821Y008628D01*
X012737Y008712D01*
X012627Y008757D01*
X012509Y008757D01*
X012399Y008712D01*
X012315Y008628D01*
X012269Y008518D01*
X012269Y008399D01*
X012315Y008290D01*
X012345Y008260D01*
X012312Y006237D01*
X012287Y006262D01*
X012177Y006307D01*
X012131Y006307D01*
X011038Y007400D01*
X011038Y008257D01*
X011071Y008290D01*
X011116Y008399D01*
X011116Y008518D01*
X011071Y008628D01*
X011038Y008661D01*
X011038Y008750D01*
X010909Y008879D01*
X010659Y009129D01*
X008927Y009129D01*
X008798Y009000D01*
X008578Y008780D01*
X005653Y008827D01*
X005646Y008834D01*
X005563Y008829D01*
X005480Y008830D01*
X005474Y008824D01*
X005464Y008823D01*
X005409Y008761D01*
X005349Y008703D01*
X005349Y008694D01*
X004608Y007860D01*
X004548Y007800D01*
X004548Y007792D01*
X004543Y007787D01*
X004548Y007702D01*
X004548Y004714D01*
X004544Y004628D01*
X004548Y004624D01*
X004548Y004618D01*
X004609Y004557D01*
X004969Y004160D01*
X004969Y004099D01*
X005015Y003990D01*
X005099Y003906D01*
X005209Y003860D01*
X005327Y003860D01*
X005437Y003906D01*
X005521Y003990D01*
X005566Y004177D02*
X006475Y004177D01*
X006633Y004335D02*
X005513Y004335D01*
X005261Y004494D02*
X006792Y004494D01*
X006884Y004652D02*
X005117Y004652D01*
X004988Y004811D02*
X006998Y004811D01*
X007168Y004559D02*
X005918Y003309D01*
X005589Y003701D02*
X005247Y003701D01*
X005405Y003543D02*
X005431Y003543D01*
X005003Y004018D02*
X004475Y004018D01*
X004484Y004177D02*
X004954Y004177D01*
X004810Y004335D02*
X004391Y004335D01*
X004666Y004494D02*
X004048Y004494D01*
X004048Y004652D02*
X004545Y004652D01*
X004548Y004811D02*
X004048Y004811D01*
X004048Y004969D02*
X004548Y004969D01*
X004548Y005128D02*
X004048Y005128D01*
X004048Y005286D02*
X004548Y005286D01*
X004548Y005445D02*
X004048Y005445D01*
X004048Y005603D02*
X004548Y005603D01*
X004548Y005762D02*
X004048Y005762D01*
X004048Y005920D02*
X004548Y005920D01*
X004548Y006079D02*
X004048Y006079D01*
X004048Y006237D02*
X004548Y006237D01*
X004548Y006396D02*
X004048Y006396D01*
X004048Y006554D02*
X004548Y006554D01*
X004548Y006713D02*
X004048Y006713D01*
X004048Y006871D02*
X004548Y006871D01*
X004548Y007030D02*
X004048Y007030D01*
X004048Y007188D02*
X004548Y007188D01*
X004548Y007347D02*
X004048Y007347D01*
X004048Y007505D02*
X004548Y007505D01*
X004548Y007664D02*
X004048Y007664D01*
X004048Y007822D02*
X004570Y007822D01*
X004715Y007981D02*
X004048Y007981D01*
X004048Y008139D02*
X004856Y008139D01*
X004997Y008298D02*
X004048Y008298D01*
X004048Y008456D02*
X005138Y008456D01*
X005279Y008615D02*
X004048Y008615D01*
X004048Y008773D02*
X005420Y008773D01*
X005568Y008609D02*
X008668Y008559D01*
X009018Y008909D01*
X010568Y008909D01*
X010818Y008659D01*
X010818Y008459D01*
X010818Y007309D01*
X012118Y006009D01*
X012311Y006237D02*
X012312Y006237D01*
X012314Y006396D02*
X012042Y006396D01*
X011884Y006554D02*
X012317Y006554D01*
X012319Y006713D02*
X011725Y006713D01*
X011567Y006871D02*
X012322Y006871D01*
X012325Y007030D02*
X011408Y007030D01*
X011250Y007188D02*
X012327Y007188D01*
X012330Y007347D02*
X011091Y007347D01*
X011038Y007505D02*
X012332Y007505D01*
X012335Y007664D02*
X011038Y007664D01*
X011038Y007822D02*
X012338Y007822D01*
X012340Y007981D02*
X011038Y007981D01*
X011038Y008139D02*
X012343Y008139D01*
X012312Y008298D02*
X011074Y008298D01*
X011116Y008456D02*
X012269Y008456D01*
X012310Y008615D02*
X011076Y008615D01*
X011014Y008773D02*
X015398Y008773D01*
X015398Y008615D02*
X012826Y008615D01*
X012866Y008456D02*
X015398Y008456D01*
X015398Y008298D02*
X012824Y008298D01*
X012783Y008139D02*
X015398Y008139D01*
X015398Y007981D02*
X012780Y007981D01*
X012778Y007822D02*
X014024Y007822D01*
X013999Y007812D02*
X013915Y007728D01*
X013869Y007618D01*
X013869Y007499D01*
X013915Y007390D01*
X013999Y007306D01*
X014109Y007260D01*
X014186Y007260D01*
X014669Y006868D01*
X014669Y006849D01*
X014715Y006740D01*
X014799Y006656D01*
X014909Y006610D01*
X015027Y006610D01*
X015137Y006656D01*
X015221Y006740D01*
X015266Y006849D01*
X015266Y006968D01*
X015221Y007078D01*
X015137Y007162D01*
X015027Y007207D01*
X014949Y007207D01*
X014466Y007600D01*
X014466Y007618D01*
X014421Y007728D01*
X014337Y007812D01*
X014227Y007857D01*
X014109Y007857D01*
X013999Y007812D01*
X013888Y007664D02*
X012775Y007664D01*
X012772Y007505D02*
X013869Y007505D01*
X013958Y007347D02*
X012770Y007347D01*
X012767Y007188D02*
X014275Y007188D01*
X014470Y007030D02*
X012765Y007030D01*
X012762Y006871D02*
X014665Y006871D01*
X014742Y006713D02*
X012760Y006713D01*
X012757Y006554D02*
X015398Y006554D01*
X015398Y006396D02*
X012754Y006396D01*
X012752Y006237D02*
X015398Y006237D01*
X015398Y006079D02*
X012749Y006079D01*
X012747Y005920D02*
X015398Y005920D01*
X015398Y005762D02*
X013255Y005762D01*
X013320Y005603D02*
X015398Y005603D01*
X015398Y005445D02*
X013320Y005445D01*
X013320Y005286D02*
X015398Y005286D01*
X015398Y005128D02*
X013320Y005128D01*
X013254Y004969D02*
X015398Y004969D01*
X015398Y004811D02*
X012631Y004811D01*
X012547Y004652D02*
X015398Y004652D01*
X015398Y004494D02*
X012408Y004494D01*
X012128Y004494D02*
X010458Y004494D01*
X010458Y004652D02*
X011989Y004652D01*
X011969Y004811D02*
X010458Y004811D01*
X010458Y004969D02*
X012056Y004969D01*
X012055Y005128D02*
X010458Y005128D01*
X010448Y005286D02*
X010603Y005286D01*
X010445Y005445D02*
X007758Y005445D01*
X007755Y005603D02*
X009100Y005603D01*
X009048Y005762D02*
X007752Y005762D01*
X007748Y005920D02*
X009048Y005920D01*
X009048Y006079D02*
X007745Y006079D01*
X007742Y006237D02*
X009048Y006237D01*
X009082Y006396D02*
X007739Y006396D01*
X007729Y006554D02*
X009188Y006554D01*
X009169Y006713D02*
X007569Y006713D01*
X007415Y006871D02*
X009258Y006871D01*
X009468Y006659D02*
X009468Y006033D01*
X009444Y006009D01*
X009788Y005603D02*
X009848Y005603D01*
X009707Y005286D02*
X009538Y005286D01*
X009548Y005128D02*
X009698Y005128D01*
X009698Y004969D02*
X009548Y004969D01*
X009548Y004811D02*
X009698Y004811D01*
X009698Y004652D02*
X009548Y004652D01*
X009548Y004494D02*
X009592Y004494D01*
X009968Y004559D02*
X010018Y004559D01*
X010078Y004619D01*
X010078Y004779D01*
X009968Y004559D02*
X009118Y003709D01*
X008018Y003709D01*
X007568Y003909D01*
X007518Y006452D01*
X007018Y006952D01*
X005974Y006952D01*
X005918Y007009D01*
X005619Y007030D02*
X004988Y007030D01*
X004988Y007188D02*
X005675Y007188D01*
X005652Y006871D02*
X004988Y006871D01*
X004988Y006713D02*
X005853Y006713D01*
X005983Y006713D02*
X006695Y006713D01*
X006919Y006554D02*
X004988Y006554D01*
X004988Y006396D02*
X006687Y006396D01*
X006620Y006237D02*
X004988Y006237D01*
X004988Y006079D02*
X006623Y006079D01*
X006701Y005920D02*
X004988Y005920D01*
X004988Y005762D02*
X006689Y005762D01*
X006620Y005603D02*
X004988Y005603D01*
X004988Y005445D02*
X006620Y005445D01*
X006620Y005286D02*
X004988Y005286D01*
X004988Y005128D02*
X006620Y005128D01*
X007327Y004969D02*
X004988Y004969D01*
X004768Y004709D02*
X004768Y007709D01*
X005568Y008609D01*
X005586Y008298D02*
X009972Y008298D01*
X009972Y008139D02*
X007198Y008139D01*
X007018Y008139D02*
X007018Y008139D01*
X007018Y007981D02*
X007018Y007981D01*
X007018Y007822D02*
X007018Y007822D01*
X006652Y007981D02*
X005304Y007981D01*
X005445Y008139D02*
X006838Y008139D01*
X006588Y007822D02*
X005163Y007822D01*
X005022Y007664D02*
X006587Y007664D01*
X006648Y007505D02*
X004988Y007505D01*
X004988Y007347D02*
X006826Y007347D01*
X006692Y007188D02*
X006160Y007188D01*
X007210Y007347D02*
X009972Y007347D01*
X009972Y007505D02*
X007388Y007505D01*
X007449Y007664D02*
X009972Y007664D01*
X009972Y007822D02*
X007448Y007822D01*
X007384Y007981D02*
X009972Y007981D01*
X009958Y008456D02*
X008878Y008456D01*
X009035Y008615D02*
X009919Y008615D01*
X010192Y008583D02*
X010192Y006009D01*
X010835Y005366D01*
X012284Y005366D01*
X012518Y005388D02*
X012568Y008459D01*
X013318Y008059D02*
X013318Y006009D01*
X013052Y005762D02*
X013052Y005762D01*
X013052Y005603D02*
X013052Y005603D01*
X013052Y005445D02*
X013052Y005445D01*
X013052Y005366D02*
X013052Y005366D01*
X013052Y004930D01*
X013052Y005366D01*
X013052Y005366D01*
X013024Y005366D01*
X013024Y005366D01*
X013052Y005366D01*
X013052Y005286D02*
X013052Y005286D01*
X013052Y005128D02*
X013052Y005128D01*
X013052Y004969D02*
X013052Y004969D01*
X012849Y004969D02*
X012760Y004969D01*
X012540Y005031D02*
X012540Y005366D01*
X012518Y005388D01*
X012540Y005031D02*
X012268Y004759D01*
X012387Y004177D02*
X009897Y004177D01*
X009739Y004018D02*
X012055Y004018D01*
X012055Y003860D02*
X009580Y003860D01*
X009422Y003701D02*
X012055Y003701D01*
X012055Y003543D02*
X009263Y003543D01*
X008750Y003067D02*
X012064Y003067D01*
X012064Y002909D02*
X009938Y002909D01*
X010017Y002750D02*
X012064Y002750D01*
X012064Y002592D02*
X010017Y002592D01*
X010017Y002433D02*
X012064Y002433D01*
X012064Y002275D02*
X010017Y002275D01*
X010017Y002116D02*
X012064Y002116D01*
X012064Y001958D02*
X010017Y001958D01*
X009968Y001799D02*
X010386Y001799D01*
X010568Y001559D02*
X012168Y001559D01*
X012284Y001675D01*
X012284Y003752D01*
X012540Y003752D02*
X012796Y003752D01*
X013052Y003752D01*
X013320Y003752D01*
X013052Y003752D01*
X013052Y003752D01*
X013052Y003752D01*
X012796Y003752D01*
X012796Y003752D01*
X012796Y003752D01*
X012540Y003752D01*
X012540Y003752D01*
X012540Y003426D02*
X012540Y003426D01*
X012540Y003316D01*
X012540Y003426D01*
X012540Y003384D02*
X012540Y003384D01*
X012504Y003226D02*
X014374Y003226D01*
X014518Y003059D02*
X015468Y003059D01*
X015618Y003209D01*
X015618Y009659D01*
X015816Y009883D02*
X016098Y009883D01*
X016098Y010041D02*
X011915Y010041D01*
X011915Y009883D02*
X015420Y009883D01*
X015322Y009724D02*
X011952Y009724D01*
X011955Y009566D02*
X015333Y009566D01*
X015398Y009407D02*
X011527Y009407D01*
X011431Y009407D02*
X008319Y009407D01*
X008319Y009413D02*
X008307Y009487D01*
X008284Y009559D01*
X008250Y009626D01*
X008205Y009688D01*
X008152Y009741D01*
X008091Y009785D01*
X008023Y009820D01*
X007952Y009843D01*
X007877Y009855D01*
X007559Y009855D01*
X007559Y009395D01*
X007519Y009395D01*
X007519Y009355D01*
X006759Y009355D01*
X006759Y009337D01*
X006771Y009262D01*
X006794Y009191D01*
X006829Y009123D01*
X006873Y009062D01*
X006926Y009009D01*
X006988Y008964D01*
X007055Y008930D01*
X007127Y008907D01*
X007201Y008895D01*
X007519Y008895D01*
X007519Y009355D01*
X007559Y009355D01*
X007559Y008895D01*
X007877Y008895D01*
X007952Y008907D01*
X008023Y008930D01*
X008091Y008964D01*
X008152Y009009D01*
X008205Y009062D01*
X008250Y009123D01*
X008284Y009191D01*
X008307Y009262D01*
X008319Y009337D01*
X008319Y009355D01*
X007559Y009355D01*
X007559Y009395D01*
X008319Y009395D01*
X008319Y009413D01*
X008281Y009566D02*
X011004Y009566D01*
X011007Y009724D02*
X008169Y009724D01*
X008088Y010002D02*
X007927Y009935D01*
X007152Y009935D01*
X006990Y010002D01*
X006866Y010126D01*
X006799Y010287D01*
X006799Y010462D01*
X006866Y010624D01*
X006990Y010748D01*
X007152Y010815D01*
X007927Y010815D01*
X008088Y010748D01*
X008212Y010624D01*
X008279Y010462D01*
X008279Y010287D01*
X008212Y010126D01*
X008088Y010002D01*
X008128Y010041D02*
X011044Y010041D01*
X011044Y009883D02*
X004048Y009883D01*
X004048Y010041D02*
X006951Y010041D01*
X006835Y010200D02*
X004048Y010200D01*
X004048Y010358D02*
X006799Y010358D01*
X006822Y010517D02*
X004090Y010517D01*
X004171Y010675D02*
X006917Y010675D01*
X007127Y009843D02*
X007055Y009820D01*
X006988Y009785D01*
X006926Y009741D01*
X006873Y009688D01*
X006829Y009626D01*
X006794Y009559D01*
X006771Y009487D01*
X006759Y009413D01*
X006759Y009395D01*
X007519Y009395D01*
X007519Y009855D01*
X007201Y009855D01*
X007127Y009843D01*
X006910Y009724D02*
X004048Y009724D01*
X004048Y009566D02*
X006798Y009566D01*
X006759Y009407D02*
X004048Y009407D01*
X004048Y009249D02*
X006775Y009249D01*
X006853Y009090D02*
X004048Y009090D01*
X004048Y008932D02*
X007052Y008932D01*
X007519Y008932D02*
X007559Y008932D01*
X007559Y009090D02*
X007519Y009090D01*
X007519Y009249D02*
X007559Y009249D01*
X007559Y009407D02*
X007519Y009407D01*
X007519Y009566D02*
X007559Y009566D01*
X007559Y009724D02*
X007519Y009724D01*
X008243Y010200D02*
X011044Y010200D01*
X011044Y010358D02*
X008279Y010358D01*
X008257Y010517D02*
X011064Y010517D01*
X011259Y010675D02*
X008161Y010675D01*
X008303Y009249D02*
X011004Y009249D01*
X011027Y009090D02*
X010697Y009090D01*
X010856Y008932D02*
X015398Y008932D01*
X015398Y009090D02*
X011931Y009090D01*
X011955Y009249D02*
X015398Y009249D01*
X015968Y009359D02*
X015968Y003009D01*
X015768Y002809D01*
X014668Y002809D01*
X012768Y000959D01*
X007768Y001009D01*
X007972Y001227D02*
X007937Y001262D01*
X007827Y001307D01*
X007709Y001307D01*
X007599Y001262D01*
X007515Y001178D01*
X007469Y001068D01*
X007469Y000949D01*
X007484Y000914D01*
X005239Y000928D01*
X004602Y001383D01*
X004388Y001562D01*
X004388Y002061D01*
X004690Y001759D01*
X004898Y001759D01*
X004898Y002289D01*
X004938Y002289D01*
X004938Y001759D01*
X005146Y001759D01*
X005446Y002059D01*
X005707Y001799D01*
X006129Y001799D01*
X006418Y002087D01*
X006707Y001799D01*
X007091Y001799D01*
X007346Y001524D01*
X007346Y001521D01*
X007408Y001457D01*
X007469Y001392D01*
X007471Y001392D01*
X007473Y001390D01*
X007562Y001389D01*
X007651Y001386D01*
X007653Y001387D01*
X010362Y001342D01*
X010399Y001306D01*
X010509Y001260D01*
X010627Y001260D01*
X010737Y001306D01*
X010770Y001339D01*
X012169Y001339D01*
X012169Y001249D01*
X012196Y001184D01*
X007972Y001227D01*
X007510Y001165D02*
X004907Y001165D01*
X004685Y001324D02*
X010381Y001324D01*
X010568Y001559D02*
X007568Y001609D01*
X006918Y002309D01*
X006548Y001958D02*
X006288Y001958D01*
X006130Y001799D02*
X006706Y001799D01*
X007238Y001641D02*
X004388Y001641D01*
X004388Y001799D02*
X004650Y001799D01*
X004491Y001958D02*
X004388Y001958D01*
X004898Y001958D02*
X004938Y001958D01*
X004938Y002116D02*
X004898Y002116D01*
X004898Y002275D02*
X004938Y002275D01*
X005345Y001958D02*
X005548Y001958D01*
X005706Y001799D02*
X005186Y001799D01*
X004938Y001799D02*
X004898Y001799D01*
X004483Y001482D02*
X007384Y001482D01*
X007469Y001007D02*
X005129Y001007D01*
X004423Y002592D02*
X004388Y002592D01*
X004388Y002750D02*
X004582Y002750D01*
X004597Y002909D02*
X004388Y002909D01*
X004388Y003067D02*
X004438Y003067D01*
X004408Y003226D02*
X004388Y003226D01*
X004388Y003384D02*
X004408Y003384D01*
X004388Y003543D02*
X004431Y003543D01*
X004388Y003701D02*
X004589Y003701D01*
X005268Y004159D02*
X004768Y004709D01*
X007770Y004811D02*
X008218Y004811D01*
X008218Y004969D02*
X008298Y004969D01*
X008298Y005128D02*
X008218Y005128D01*
X008218Y005286D02*
X008298Y005286D01*
X008666Y005286D02*
X008797Y005286D01*
X008788Y005128D02*
X008678Y005128D01*
X008738Y004779D02*
X008668Y004709D01*
X008668Y004059D01*
X008369Y004018D02*
X007863Y004018D01*
X007938Y004177D02*
X007783Y004177D01*
X007780Y004335D02*
X007838Y004335D01*
X007838Y004494D02*
X007776Y004494D01*
X007773Y004652D02*
X007838Y004652D01*
X007838Y004969D02*
X007767Y004969D01*
X007764Y005128D02*
X007838Y005128D01*
X007850Y005286D02*
X007761Y005286D01*
X008218Y004652D02*
X008298Y004652D01*
X008298Y004494D02*
X008218Y004494D01*
X008218Y004335D02*
X008298Y004335D01*
X008298Y004177D02*
X008218Y004177D01*
X008738Y004779D02*
X009168Y004779D01*
X010458Y004335D02*
X015398Y004335D01*
X015398Y004177D02*
X013204Y004177D01*
X013052Y004177D02*
X013052Y004177D01*
X013052Y004078D02*
X013052Y004078D01*
X012796Y004078D02*
X012796Y004078D01*
X012796Y004177D02*
X012796Y004177D01*
X012540Y004177D02*
X012540Y004177D01*
X013320Y004018D02*
X015398Y004018D01*
X015398Y003860D02*
X013320Y003860D01*
X013320Y003701D02*
X015398Y003701D01*
X015398Y003543D02*
X013320Y003543D01*
X013283Y003384D02*
X015398Y003384D01*
X014518Y003059D02*
X012618Y001309D01*
X012468Y001309D01*
X012169Y001324D02*
X010755Y001324D01*
X010749Y001799D02*
X012064Y001799D01*
X012504Y001799D02*
X012826Y001799D01*
X012998Y001958D02*
X012504Y001958D01*
X012504Y002116D02*
X013170Y002116D01*
X013342Y002275D02*
X012504Y002275D01*
X012504Y002433D02*
X013514Y002433D01*
X013686Y002592D02*
X012504Y002592D01*
X012504Y002750D02*
X013858Y002750D01*
X014030Y002909D02*
X012504Y002909D01*
X012504Y003067D02*
X014202Y003067D01*
X013052Y003316D02*
X013052Y003426D01*
X013052Y003426D01*
X013052Y003316D01*
X013052Y003384D02*
X013052Y003384D01*
X012796Y003384D02*
X012796Y003384D01*
X012796Y003426D02*
X012796Y003426D01*
X012796Y003426D01*
X012796Y003316D01*
X012796Y003426D01*
X012064Y003384D02*
X008566Y003384D01*
X008592Y003226D02*
X012064Y003226D01*
X012504Y001641D02*
X012654Y001641D01*
X015868Y002459D02*
X016318Y002909D01*
X016318Y009959D01*
X016418Y010059D01*
X016153Y010200D02*
X011915Y010200D01*
X011915Y010358D02*
X016403Y010358D01*
X016303Y010517D02*
X011894Y010517D01*
X011886Y010675D02*
X012951Y010675D01*
X012855Y010834D02*
X011916Y010834D01*
X011856Y010992D02*
X012858Y010992D01*
X013168Y010909D02*
X016318Y010909D01*
X016818Y010109D01*
X016628Y009724D02*
X016538Y009724D01*
X016538Y009566D02*
X016628Y009566D01*
X016628Y009407D02*
X016538Y009407D01*
X016538Y009249D02*
X016628Y009249D01*
X016628Y009090D02*
X016538Y009090D01*
X016538Y008932D02*
X016628Y008932D01*
X016628Y008773D02*
X016538Y008773D01*
X016538Y008615D02*
X016628Y008615D01*
X016628Y008456D02*
X016538Y008456D01*
X016538Y008298D02*
X016628Y008298D01*
X016628Y008139D02*
X016538Y008139D01*
X016538Y007981D02*
X016628Y007981D01*
X016628Y007822D02*
X016538Y007822D01*
X016538Y007664D02*
X016628Y007664D01*
X016653Y007505D02*
X016538Y007505D01*
X016538Y007347D02*
X017375Y007347D01*
X017376Y007188D02*
X016538Y007188D01*
X016538Y007030D02*
X017377Y007030D01*
X017378Y006871D02*
X016538Y006871D01*
X016538Y006713D02*
X017378Y006713D01*
X017379Y006554D02*
X016538Y006554D01*
X016538Y006396D02*
X017380Y006396D01*
X017381Y006237D02*
X016538Y006237D01*
X016538Y006079D02*
X017381Y006079D01*
X017382Y005920D02*
X016538Y005920D01*
X016618Y005909D02*
X016668Y005959D01*
X016668Y007059D01*
X015398Y007030D02*
X015241Y007030D01*
X015266Y006871D02*
X015398Y006871D01*
X015398Y006713D02*
X015194Y006713D01*
X014968Y006909D02*
X014168Y007559D01*
X014447Y007664D02*
X015398Y007664D01*
X015398Y007822D02*
X014312Y007822D01*
X014583Y007505D02*
X015398Y007505D01*
X015398Y007347D02*
X014778Y007347D01*
X015073Y007188D02*
X015398Y007188D01*
X016538Y005762D02*
X017383Y005762D01*
X017384Y005603D02*
X016538Y005603D01*
X016538Y005445D02*
X017384Y005445D01*
X017385Y005286D02*
X016538Y005286D01*
X016538Y005128D02*
X017386Y005128D01*
X017387Y004969D02*
X016538Y004969D01*
X016538Y004811D02*
X017387Y004811D01*
X017388Y004652D02*
X016538Y004652D01*
X016538Y004494D02*
X017389Y004494D01*
X017390Y004335D02*
X016538Y004335D01*
X016538Y004177D02*
X017390Y004177D01*
X017391Y004018D02*
X016538Y004018D01*
X016538Y003860D02*
X017392Y003860D01*
X017393Y003701D02*
X016538Y003701D01*
X016538Y003543D02*
X017393Y003543D01*
X017394Y003384D02*
X016538Y003384D01*
X016538Y003226D02*
X017395Y003226D01*
X017396Y003067D02*
X016538Y003067D01*
X016538Y002909D02*
X017396Y002909D01*
X017397Y002750D02*
X016471Y002750D01*
X016312Y002592D02*
X017398Y002592D01*
X017399Y002433D02*
X016154Y002433D01*
X018906Y002716D02*
X018906Y001929D01*
X022550Y005322D02*
X023387Y005322D01*
X016098Y009724D02*
X015914Y009724D01*
X016204Y010675D02*
X013384Y010675D01*
X011618Y010809D02*
X011479Y010670D01*
X011479Y010183D01*
X011319Y010834D02*
X004299Y010834D01*
X004507Y010992D02*
X011379Y010992D01*
X011431Y009249D02*
X011527Y009249D01*
X011527Y009090D02*
X011431Y009090D01*
X010218Y008609D02*
X010192Y008583D01*
X008888Y009090D02*
X008226Y009090D01*
X008027Y008932D02*
X008730Y008932D01*
X009972Y007188D02*
X007344Y007188D01*
X007415Y007030D02*
X009972Y007030D01*
X009972Y006871D02*
X009677Y006871D01*
X009766Y006713D02*
X009972Y006713D01*
X009972Y006554D02*
X009748Y006554D01*
X009806Y006396D02*
X009830Y006396D01*
X012744Y005762D02*
X012849Y005762D01*
X009168Y002339D02*
X008268Y003239D01*
X008268Y003409D01*
D22*
X008268Y003409D03*
X008668Y004059D03*
X007168Y004559D03*
X005268Y004159D03*
X005918Y007009D03*
X009468Y006659D03*
X012118Y006009D03*
X013318Y006009D03*
X012268Y004759D03*
X014968Y006909D03*
X014168Y007559D03*
X013318Y008059D03*
X012568Y008459D03*
X010818Y008459D03*
X010218Y008609D03*
X011618Y010809D03*
X015618Y009659D03*
X015968Y009359D03*
X016418Y010059D03*
X016668Y007059D03*
X016618Y005909D03*
X010568Y001559D03*
X012468Y001309D03*
X007768Y001009D03*
D23*
X010918Y002059D03*
X012668Y002509D03*
X009868Y003459D03*
X004168Y004109D03*
X013168Y010909D03*
X018118Y005559D03*
D24*
X019156Y005141D03*
X019891Y004488D03*
X020481Y003897D03*
X019497Y003700D03*
X018906Y003504D03*
X018906Y004291D03*
X020284Y005275D03*
X021025Y005322D03*
X021612Y005222D03*
X022550Y005322D03*
X023387Y005322D03*
X023687Y005072D03*
X022940Y004488D03*
X023678Y004432D03*
X023703Y003882D03*
X023087Y003622D03*
X022450Y003897D03*
X021466Y004291D03*
X022843Y002913D03*
X022805Y002278D03*
X023437Y001722D03*
X023637Y002922D03*
X021987Y001472D03*
X021466Y001535D03*
X020481Y001929D03*
X019891Y001338D03*
X018906Y001929D03*
X018906Y002716D03*
X020088Y002913D03*
X020875Y006260D03*
X020678Y006850D03*
X020284Y006456D03*
X019891Y007244D03*
X020481Y007834D03*
X019497Y008031D03*
X018906Y008228D03*
X018906Y007441D03*
X020088Y008819D03*
X019247Y009456D03*
X018906Y009803D03*
X019447Y010056D03*
X019541Y010543D03*
X018906Y010590D03*
X020481Y009803D03*
X021466Y010197D03*
X022450Y009803D03*
X022587Y010490D03*
X023437Y010140D03*
X023637Y009290D03*
X023487Y008640D03*
X022843Y008819D03*
X023437Y007940D03*
X023737Y007690D03*
X023040Y007244D03*
X023687Y007040D03*
X023737Y006390D03*
X023237Y006260D03*
X022450Y006260D03*
X022253Y006850D03*
X021662Y006260D03*
X021466Y007441D03*
X022450Y007834D03*
X018906Y009015D03*
M02*
