G75*
%MOIN*%
%OFA0B0*%
%FSLAX24Y24*%
%IPPOS*%
%LPD*%
%AMOC8*
5,1,8,0,0,1.08239X$1,22.5*
%
%ADD10C,0.1040*%
%ADD11C,0.0100*%
%ADD12OC8,0.0780*%
%ADD13R,0.0520X0.0920*%
%ADD14R,0.1457X0.0906*%
%ADD15R,0.0631X0.0552*%
%ADD16R,0.0217X0.0552*%
%ADD17R,0.0552X0.0631*%
%ADD18R,0.0555X0.0555*%
%ADD19C,0.0555*%
%ADD20C,0.3583*%
%ADD21C,0.0640*%
D10*
X018718Y001133D03*
X018947Y009999D03*
D11*
X019918Y010033D02*
X026368Y010033D01*
X026368Y009935D02*
X019918Y009935D01*
X019918Y009836D02*
X026368Y009836D01*
X026368Y009738D02*
X019918Y009738D01*
X019918Y009639D02*
X026368Y009639D01*
X026368Y009541D02*
X019918Y009541D01*
X019918Y009442D02*
X026368Y009442D01*
X026368Y009344D02*
X019918Y009344D01*
X019918Y009245D02*
X026368Y009245D01*
X026368Y009147D02*
X019918Y009147D01*
X019918Y009048D02*
X026368Y009048D01*
X026368Y008950D02*
X019918Y008950D01*
X019918Y008851D02*
X026368Y008851D01*
X026368Y008753D02*
X019918Y008753D01*
X019918Y008654D02*
X026368Y008654D01*
X026368Y008556D02*
X019918Y008556D01*
X019918Y008457D02*
X026368Y008457D01*
X026368Y008359D02*
X019918Y008359D01*
X019918Y008260D02*
X026368Y008260D01*
X026368Y008162D02*
X019918Y008162D01*
X019918Y008063D02*
X026368Y008063D01*
X026368Y007965D02*
X019918Y007965D01*
X019918Y007866D02*
X026368Y007866D01*
X026368Y007768D02*
X019918Y007768D01*
X019918Y007669D02*
X026368Y007669D01*
X026368Y007571D02*
X019918Y007571D01*
X019918Y007472D02*
X026368Y007472D01*
X026368Y007374D02*
X019918Y007374D01*
X019918Y007275D02*
X026368Y007275D01*
X026368Y007177D02*
X019918Y007177D01*
X019918Y007078D02*
X026368Y007078D01*
X026368Y006980D02*
X019918Y006980D01*
X019918Y006881D02*
X026368Y006881D01*
X026368Y006783D02*
X019918Y006783D01*
X019918Y006684D02*
X026368Y006684D01*
X026368Y006586D02*
X019918Y006586D01*
X019918Y006487D02*
X026368Y006487D01*
X026368Y006389D02*
X019918Y006389D01*
X019918Y006290D02*
X026368Y006290D01*
X026368Y006192D02*
X019918Y006192D01*
X019918Y006093D02*
X026368Y006093D01*
X026368Y006033D02*
X019918Y006033D01*
X019918Y010783D01*
X026368Y010783D01*
X026368Y006033D01*
X026368Y005733D02*
X026368Y001083D01*
X019968Y001083D01*
X019968Y005733D01*
X026368Y005733D01*
X026368Y005699D02*
X019968Y005699D01*
X019968Y005601D02*
X026368Y005601D01*
X026368Y005502D02*
X019968Y005502D01*
X019968Y005404D02*
X026368Y005404D01*
X026368Y005305D02*
X019968Y005305D01*
X019968Y005207D02*
X026368Y005207D01*
X026368Y005108D02*
X019968Y005108D01*
X019968Y005010D02*
X026368Y005010D01*
X026368Y004911D02*
X019968Y004911D01*
X019968Y004813D02*
X026368Y004813D01*
X026368Y004714D02*
X019968Y004714D01*
X019968Y004616D02*
X026368Y004616D01*
X026368Y004517D02*
X019968Y004517D01*
X019968Y004419D02*
X026368Y004419D01*
X026368Y004320D02*
X019968Y004320D01*
X019968Y004222D02*
X026368Y004222D01*
X026368Y004123D02*
X019968Y004123D01*
X019968Y004025D02*
X026368Y004025D01*
X026368Y003926D02*
X019968Y003926D01*
X019968Y003828D02*
X026368Y003828D01*
X026368Y003729D02*
X019968Y003729D01*
X019968Y003631D02*
X026368Y003631D01*
X026368Y003532D02*
X019968Y003532D01*
X019968Y003434D02*
X026368Y003434D01*
X026368Y003335D02*
X019968Y003335D01*
X019968Y003237D02*
X026368Y003237D01*
X026368Y003138D02*
X019968Y003138D01*
X019968Y003040D02*
X026368Y003040D01*
X026368Y002941D02*
X019968Y002941D01*
X019968Y002843D02*
X026368Y002843D01*
X026368Y002744D02*
X019968Y002744D01*
X019968Y002646D02*
X026368Y002646D01*
X026368Y002547D02*
X019968Y002547D01*
X019968Y002449D02*
X026368Y002449D01*
X026368Y002350D02*
X019968Y002350D01*
X019968Y002252D02*
X026368Y002252D01*
X026368Y002153D02*
X019968Y002153D01*
X019968Y002055D02*
X026368Y002055D01*
X026368Y001956D02*
X019968Y001956D01*
X019968Y001858D02*
X026368Y001858D01*
X026368Y001759D02*
X019968Y001759D01*
X019968Y001661D02*
X026368Y001661D01*
X026368Y001562D02*
X019968Y001562D01*
X019968Y001464D02*
X026368Y001464D01*
X026368Y001365D02*
X019968Y001365D01*
X019968Y001267D02*
X026368Y001267D01*
X026368Y001168D02*
X019968Y001168D01*
X019918Y010132D02*
X026368Y010132D01*
X026368Y010230D02*
X019918Y010230D01*
X019918Y010329D02*
X026368Y010329D01*
X026368Y010427D02*
X019918Y010427D01*
X019918Y010526D02*
X026368Y010526D01*
X026368Y010624D02*
X019918Y010624D01*
X019918Y010723D02*
X026368Y010723D01*
D12*
X004918Y001933D03*
X005918Y001933D03*
X006918Y001933D03*
X006918Y002933D03*
X005918Y002933D03*
X004918Y002933D03*
D13*
X009058Y004803D03*
X009968Y004803D03*
X010878Y004803D03*
D14*
X009968Y002362D03*
D15*
X012279Y009459D03*
X012279Y010207D03*
D16*
X013084Y005390D03*
X013340Y005390D03*
X013596Y005390D03*
X013852Y005390D03*
X013852Y003775D03*
X013596Y003775D03*
X013340Y003775D03*
X013084Y003775D03*
D17*
X010992Y006033D03*
X010244Y006033D03*
D18*
X007468Y005401D03*
D19*
X007468Y006189D03*
X007468Y006976D03*
X007468Y007764D03*
D20*
X022866Y008842D03*
X022866Y002937D03*
D21*
X008539Y009499D02*
X007939Y009499D01*
X007939Y010499D02*
X008539Y010499D01*
M02*
