G75*
%MOIN*%
%OFA0B0*%
%FSLAX24Y24*%
%IPPOS*%
%LPD*%
%AMOC8*
5,1,8,0,0,1.08239X$1,22.5*
%
%ADD10C,0.0050*%
%ADD11C,0.1040*%
%ADD12R,0.0552X0.0631*%
%ADD13R,0.0552X0.0670*%
%ADD14R,0.0670X0.0552*%
%ADD15R,0.0512X0.0512*%
%ADD16OC8,0.0780*%
%ADD17R,0.0631X0.0552*%
%ADD18R,0.0555X0.0555*%
%ADD19C,0.0555*%
%ADD20R,0.0316X0.0709*%
%ADD21C,0.3583*%
%ADD22R,0.0946X0.0670*%
%ADD23R,0.0910X0.0280*%
%ADD24C,0.0640*%
%ADD25R,0.0240X0.0620*%
%ADD26R,0.0620X0.0240*%
D10*
X018510Y000945D02*
X018510Y005748D01*
X023984Y005748D01*
X023984Y000945D01*
X018510Y000945D01*
X018510Y000978D02*
X023984Y000978D01*
X023984Y001027D02*
X018510Y001027D01*
X018510Y001075D02*
X023984Y001075D01*
X023984Y001124D02*
X018510Y001124D01*
X018510Y001172D02*
X023984Y001172D01*
X023984Y001221D02*
X018510Y001221D01*
X018510Y001269D02*
X023984Y001269D01*
X023984Y001318D02*
X018510Y001318D01*
X018510Y001366D02*
X023984Y001366D01*
X023984Y001415D02*
X018510Y001415D01*
X018510Y001463D02*
X023984Y001463D01*
X023984Y001512D02*
X018510Y001512D01*
X018510Y001560D02*
X023984Y001560D01*
X023984Y001609D02*
X018510Y001609D01*
X018510Y001657D02*
X023984Y001657D01*
X023984Y001706D02*
X018510Y001706D01*
X018510Y001754D02*
X023984Y001754D01*
X023984Y001803D02*
X018510Y001803D01*
X018510Y001851D02*
X023984Y001851D01*
X023984Y001900D02*
X018510Y001900D01*
X018510Y001948D02*
X023984Y001948D01*
X023984Y001997D02*
X018510Y001997D01*
X018510Y002045D02*
X023984Y002045D01*
X023984Y002094D02*
X018510Y002094D01*
X018510Y002142D02*
X023984Y002142D01*
X023984Y002191D02*
X018510Y002191D01*
X018510Y002239D02*
X023984Y002239D01*
X023984Y002288D02*
X018510Y002288D01*
X018510Y002336D02*
X023984Y002336D01*
X023984Y002385D02*
X018510Y002385D01*
X018510Y002433D02*
X023984Y002433D01*
X023984Y002482D02*
X018510Y002482D01*
X018510Y002530D02*
X023984Y002530D01*
X023984Y002579D02*
X018510Y002579D01*
X018510Y002627D02*
X023984Y002627D01*
X023984Y002676D02*
X018510Y002676D01*
X018510Y002724D02*
X023984Y002724D01*
X023984Y002773D02*
X018510Y002773D01*
X018510Y002821D02*
X023984Y002821D01*
X023984Y002870D02*
X018510Y002870D01*
X018510Y002918D02*
X023984Y002918D01*
X023984Y002967D02*
X018510Y002967D01*
X018510Y003015D02*
X023984Y003015D01*
X023984Y003064D02*
X018510Y003064D01*
X018510Y003112D02*
X023984Y003112D01*
X023984Y003161D02*
X018510Y003161D01*
X018510Y003209D02*
X023984Y003209D01*
X023984Y003258D02*
X018510Y003258D01*
X018510Y003306D02*
X023984Y003306D01*
X023984Y003355D02*
X018510Y003355D01*
X018510Y003403D02*
X023984Y003403D01*
X023984Y003452D02*
X018510Y003452D01*
X018510Y003500D02*
X023984Y003500D01*
X023984Y003549D02*
X018510Y003549D01*
X018510Y003597D02*
X023984Y003597D01*
X023984Y003646D02*
X018510Y003646D01*
X018510Y003694D02*
X023984Y003694D01*
X023984Y003743D02*
X018510Y003743D01*
X018510Y003791D02*
X023984Y003791D01*
X023984Y003840D02*
X018510Y003840D01*
X018510Y003888D02*
X023984Y003888D01*
X023984Y003937D02*
X018510Y003937D01*
X018510Y003985D02*
X023984Y003985D01*
X023984Y004034D02*
X018510Y004034D01*
X018510Y004082D02*
X023984Y004082D01*
X023984Y004131D02*
X018510Y004131D01*
X018510Y004179D02*
X023984Y004179D01*
X023984Y004228D02*
X018510Y004228D01*
X018510Y004276D02*
X023984Y004276D01*
X023984Y004325D02*
X018510Y004325D01*
X018510Y004373D02*
X023984Y004373D01*
X023984Y004422D02*
X018510Y004422D01*
X018510Y004470D02*
X023984Y004470D01*
X023984Y004519D02*
X018510Y004519D01*
X018510Y004567D02*
X023984Y004567D01*
X023984Y004616D02*
X018510Y004616D01*
X018510Y004664D02*
X023984Y004664D01*
X023984Y004713D02*
X018510Y004713D01*
X018510Y004761D02*
X023984Y004761D01*
X023984Y004810D02*
X018510Y004810D01*
X018510Y004858D02*
X023984Y004858D01*
X023984Y004907D02*
X018510Y004907D01*
X018510Y004955D02*
X023984Y004955D01*
X023984Y005004D02*
X018510Y005004D01*
X018510Y005052D02*
X023984Y005052D01*
X023984Y005101D02*
X018510Y005101D01*
X018510Y005149D02*
X023984Y005149D01*
X023984Y005198D02*
X018510Y005198D01*
X018510Y005246D02*
X023984Y005246D01*
X023984Y005295D02*
X018510Y005295D01*
X018510Y005343D02*
X023984Y005343D01*
X023984Y005392D02*
X018510Y005392D01*
X018510Y005440D02*
X023984Y005440D01*
X023984Y005489D02*
X018510Y005489D01*
X018510Y005537D02*
X023984Y005537D01*
X023984Y005586D02*
X018510Y005586D01*
X018510Y005634D02*
X023984Y005634D01*
X023984Y005683D02*
X018510Y005683D01*
X018510Y005731D02*
X023984Y005731D01*
X023984Y005984D02*
X018510Y005984D01*
X018510Y010787D01*
X023984Y010787D01*
X023984Y005984D01*
X023984Y006022D02*
X018510Y006022D01*
X018510Y006071D02*
X023984Y006071D01*
X023984Y006119D02*
X018510Y006119D01*
X018510Y006168D02*
X023984Y006168D01*
X023984Y006216D02*
X018510Y006216D01*
X018510Y006265D02*
X023984Y006265D01*
X023984Y006313D02*
X018510Y006313D01*
X018510Y006362D02*
X023984Y006362D01*
X023984Y006410D02*
X018510Y006410D01*
X018510Y006459D02*
X023984Y006459D01*
X023984Y006507D02*
X018510Y006507D01*
X018510Y006556D02*
X023984Y006556D01*
X023984Y006604D02*
X018510Y006604D01*
X018510Y006653D02*
X023984Y006653D01*
X023984Y006701D02*
X018510Y006701D01*
X018510Y006750D02*
X023984Y006750D01*
X023984Y006798D02*
X018510Y006798D01*
X018510Y006847D02*
X023984Y006847D01*
X023984Y006895D02*
X018510Y006895D01*
X018510Y006944D02*
X023984Y006944D01*
X023984Y006992D02*
X018510Y006992D01*
X018510Y007041D02*
X023984Y007041D01*
X023984Y007089D02*
X018510Y007089D01*
X018510Y007138D02*
X023984Y007138D01*
X023984Y007186D02*
X018510Y007186D01*
X018510Y007235D02*
X023984Y007235D01*
X023984Y007283D02*
X018510Y007283D01*
X018510Y007332D02*
X023984Y007332D01*
X023984Y007380D02*
X018510Y007380D01*
X018510Y007429D02*
X023984Y007429D01*
X023984Y007477D02*
X018510Y007477D01*
X018510Y007526D02*
X023984Y007526D01*
X023984Y007574D02*
X018510Y007574D01*
X018510Y007623D02*
X023984Y007623D01*
X023984Y007671D02*
X018510Y007671D01*
X018510Y007720D02*
X023984Y007720D01*
X023984Y007768D02*
X018510Y007768D01*
X018510Y007817D02*
X023984Y007817D01*
X023984Y007865D02*
X018510Y007865D01*
X018510Y007914D02*
X023984Y007914D01*
X023984Y007962D02*
X018510Y007962D01*
X018510Y008011D02*
X023984Y008011D01*
X023984Y008059D02*
X018510Y008059D01*
X018510Y008108D02*
X023984Y008108D01*
X023984Y008156D02*
X018510Y008156D01*
X018510Y008205D02*
X023984Y008205D01*
X023984Y008253D02*
X018510Y008253D01*
X018510Y008302D02*
X023984Y008302D01*
X023984Y008350D02*
X018510Y008350D01*
X018510Y008399D02*
X023984Y008399D01*
X023984Y008447D02*
X018510Y008447D01*
X018510Y008496D02*
X023984Y008496D01*
X023984Y008544D02*
X018510Y008544D01*
X018510Y008593D02*
X023984Y008593D01*
X023984Y008641D02*
X018510Y008641D01*
X018510Y008690D02*
X023984Y008690D01*
X023984Y008738D02*
X018510Y008738D01*
X018510Y008787D02*
X023984Y008787D01*
X023984Y008835D02*
X018510Y008835D01*
X018510Y008884D02*
X023984Y008884D01*
X023984Y008932D02*
X018510Y008932D01*
X018510Y008981D02*
X023984Y008981D01*
X023984Y009029D02*
X018510Y009029D01*
X018510Y009078D02*
X023984Y009078D01*
X023984Y009126D02*
X018510Y009126D01*
X018510Y009175D02*
X023984Y009175D01*
X023984Y009223D02*
X018510Y009223D01*
X018510Y009272D02*
X023984Y009272D01*
X023984Y009320D02*
X018510Y009320D01*
X018510Y009369D02*
X023984Y009369D01*
X023984Y009417D02*
X018510Y009417D01*
X018510Y009466D02*
X023984Y009466D01*
X023984Y009514D02*
X018510Y009514D01*
X018510Y009563D02*
X023984Y009563D01*
X023984Y009611D02*
X018510Y009611D01*
X018510Y009660D02*
X023984Y009660D01*
X023984Y009708D02*
X018510Y009708D01*
X018510Y009757D02*
X023984Y009757D01*
X023984Y009805D02*
X018510Y009805D01*
X018510Y009854D02*
X023984Y009854D01*
X023984Y009902D02*
X018510Y009902D01*
X018510Y009951D02*
X023984Y009951D01*
X023984Y009999D02*
X018510Y009999D01*
X018510Y010048D02*
X023984Y010048D01*
X023984Y010096D02*
X018510Y010096D01*
X018510Y010145D02*
X023984Y010145D01*
X023984Y010193D02*
X018510Y010193D01*
X018510Y010242D02*
X023984Y010242D01*
X023984Y010290D02*
X018510Y010290D01*
X018510Y010339D02*
X023984Y010339D01*
X023984Y010387D02*
X018510Y010387D01*
X018510Y010436D02*
X023984Y010436D01*
X023984Y010484D02*
X018510Y010484D01*
X018510Y010533D02*
X023984Y010533D01*
X023984Y010581D02*
X018510Y010581D01*
X018510Y010630D02*
X023984Y010630D01*
X023984Y010678D02*
X018510Y010678D01*
X018510Y010727D02*
X023984Y010727D01*
X023984Y010775D02*
X018510Y010775D01*
D11*
X017547Y009976D03*
X017318Y001109D03*
D12*
X011742Y003909D03*
X010994Y003909D03*
X010994Y004759D03*
X011742Y004759D03*
X011692Y005609D03*
X010944Y005609D03*
X009992Y005109D03*
X009244Y005109D03*
X013694Y005309D03*
X014442Y005309D03*
X015381Y006429D03*
X016129Y006429D03*
D13*
X016172Y005641D03*
X015384Y005641D03*
X010008Y004046D03*
X009220Y004046D03*
D14*
X009021Y009344D03*
X009021Y010131D03*
D15*
X008955Y002909D03*
X009781Y002909D03*
X010955Y002909D03*
X011781Y002909D03*
D16*
X004918Y002309D03*
X005918Y002309D03*
X006918Y002309D03*
X006918Y003309D03*
X005918Y003309D03*
X004918Y003309D03*
D17*
X010149Y009435D03*
X010149Y010183D03*
D18*
X007018Y005378D03*
D19*
X007018Y006165D03*
X007018Y006952D03*
X007018Y007740D03*
D20*
X013595Y004109D03*
X014068Y004109D03*
X014540Y004109D03*
D21*
X021466Y002913D03*
X021466Y008819D03*
D22*
X015708Y001609D03*
X013228Y001609D03*
D23*
X017432Y005112D03*
X017432Y005612D03*
X017432Y006112D03*
X017432Y006612D03*
X019492Y006612D03*
X019492Y006112D03*
X019492Y005612D03*
X019492Y005112D03*
D24*
X007839Y009375D02*
X007239Y009375D01*
X007239Y010375D02*
X007839Y010375D01*
D25*
X012068Y010179D03*
X012378Y010179D03*
X012698Y010179D03*
X013008Y010179D03*
X013328Y010179D03*
X013638Y010179D03*
X013958Y010179D03*
X014268Y010179D03*
X014268Y006939D03*
X013958Y006939D03*
X013638Y006939D03*
X013328Y006939D03*
X013008Y006939D03*
X012698Y006939D03*
X012378Y006939D03*
X012068Y006939D03*
D26*
X011548Y007459D03*
X011548Y007769D03*
X011548Y008089D03*
X011548Y008399D03*
X011548Y008719D03*
X011548Y009029D03*
X011548Y009349D03*
X011548Y009659D03*
X014788Y009659D03*
X014788Y009349D03*
X014788Y009029D03*
X014788Y008719D03*
X014788Y008399D03*
X014788Y008089D03*
X014788Y007769D03*
X014788Y007459D03*
M02*
