G75*
%MOIN*%
%OFA0B0*%
%FSLAX24Y24*%
%IPPOS*%
%LPD*%
%AMOC8*
5,1,8,0,0,1.08239X$1,22.5*
%
%ADD10C,0.0000*%
D10*
X003968Y000598D02*
X003968Y010374D01*
X003952Y010432D01*
X003939Y010491D01*
X003930Y010551D01*
X003924Y010611D01*
X003922Y010672D01*
X003924Y010732D01*
X003929Y010792D01*
X003938Y010852D01*
X003950Y010911D01*
X003967Y010969D01*
X003986Y011026D01*
X004009Y011082D01*
X004035Y011137D01*
X004065Y011189D01*
X004098Y011240D01*
X004133Y011289D01*
X004172Y011335D01*
X004213Y011379D01*
X004257Y011421D01*
X004303Y011460D01*
X004352Y011496D01*
X004403Y011528D01*
X004455Y011558D01*
X004509Y011585D01*
X004565Y011608D01*
X004622Y011628D01*
X004622Y011629D02*
X026148Y011629D01*
X026203Y011611D01*
X026258Y011590D01*
X026311Y011566D01*
X026362Y011538D01*
X026411Y011508D01*
X026458Y011474D01*
X026503Y011437D01*
X026546Y011398D01*
X026586Y011356D01*
X026624Y011311D01*
X026658Y011265D01*
X026690Y011216D01*
X026718Y011165D01*
X026744Y011113D01*
X026765Y011059D01*
X026784Y011004D01*
X026799Y010948D01*
X026810Y010891D01*
X026818Y010833D01*
X026822Y010775D01*
X026823Y010717D01*
X026820Y010659D01*
X026813Y010602D01*
X026803Y010544D01*
X026789Y010488D01*
X026788Y010488D02*
X026788Y000549D01*
X026776Y000505D01*
X026760Y000462D01*
X026741Y000420D01*
X026718Y000380D01*
X026692Y000342D01*
X026663Y000307D01*
X026631Y000274D01*
X026597Y000243D01*
X026560Y000216D01*
X026521Y000192D01*
X026481Y000171D01*
X026438Y000153D01*
X026395Y000139D01*
X026350Y000129D01*
X026304Y000122D01*
X026259Y000119D01*
X026213Y000120D01*
X026167Y000125D01*
X026122Y000133D01*
X004783Y000133D01*
X004783Y000132D02*
X004735Y000121D01*
X004686Y000114D01*
X004636Y000110D01*
X004586Y000109D01*
X004537Y000113D01*
X004488Y000120D01*
X004439Y000131D01*
X004392Y000145D01*
X004345Y000163D01*
X004301Y000184D01*
X004257Y000209D01*
X004216Y000237D01*
X004177Y000268D01*
X004141Y000301D01*
X004107Y000337D01*
X004076Y000376D01*
X004048Y000417D01*
X004022Y000460D01*
X004001Y000504D01*
X003982Y000551D01*
X003967Y000598D01*
X018218Y001133D02*
X018220Y001177D01*
X018226Y001221D01*
X018236Y001264D01*
X018249Y001306D01*
X018266Y001347D01*
X018287Y001386D01*
X018311Y001423D01*
X018338Y001458D01*
X018368Y001490D01*
X018401Y001520D01*
X018437Y001546D01*
X018474Y001570D01*
X018514Y001589D01*
X018555Y001606D01*
X018598Y001618D01*
X018641Y001627D01*
X018685Y001632D01*
X018729Y001633D01*
X018773Y001630D01*
X018817Y001623D01*
X018860Y001612D01*
X018902Y001598D01*
X018942Y001580D01*
X018981Y001558D01*
X019017Y001534D01*
X019051Y001506D01*
X019083Y001475D01*
X019112Y001441D01*
X019138Y001405D01*
X019160Y001367D01*
X019179Y001327D01*
X019194Y001285D01*
X019206Y001243D01*
X019214Y001199D01*
X019218Y001155D01*
X019218Y001111D01*
X019214Y001067D01*
X019206Y001023D01*
X019194Y000981D01*
X019179Y000939D01*
X019160Y000899D01*
X019138Y000861D01*
X019112Y000825D01*
X019083Y000791D01*
X019051Y000760D01*
X019017Y000732D01*
X018981Y000708D01*
X018942Y000686D01*
X018902Y000668D01*
X018860Y000654D01*
X018817Y000643D01*
X018773Y000636D01*
X018729Y000633D01*
X018685Y000634D01*
X018641Y000639D01*
X018598Y000648D01*
X018555Y000660D01*
X018514Y000677D01*
X018474Y000696D01*
X018437Y000720D01*
X018401Y000746D01*
X018368Y000776D01*
X018338Y000808D01*
X018311Y000843D01*
X018287Y000880D01*
X018266Y000919D01*
X018249Y000960D01*
X018236Y001002D01*
X018226Y001045D01*
X018220Y001089D01*
X018218Y001133D01*
X018447Y009999D02*
X018449Y010043D01*
X018455Y010087D01*
X018465Y010130D01*
X018478Y010172D01*
X018495Y010213D01*
X018516Y010252D01*
X018540Y010289D01*
X018567Y010324D01*
X018597Y010356D01*
X018630Y010386D01*
X018666Y010412D01*
X018703Y010436D01*
X018743Y010455D01*
X018784Y010472D01*
X018827Y010484D01*
X018870Y010493D01*
X018914Y010498D01*
X018958Y010499D01*
X019002Y010496D01*
X019046Y010489D01*
X019089Y010478D01*
X019131Y010464D01*
X019171Y010446D01*
X019210Y010424D01*
X019246Y010400D01*
X019280Y010372D01*
X019312Y010341D01*
X019341Y010307D01*
X019367Y010271D01*
X019389Y010233D01*
X019408Y010193D01*
X019423Y010151D01*
X019435Y010109D01*
X019443Y010065D01*
X019447Y010021D01*
X019447Y009977D01*
X019443Y009933D01*
X019435Y009889D01*
X019423Y009847D01*
X019408Y009805D01*
X019389Y009765D01*
X019367Y009727D01*
X019341Y009691D01*
X019312Y009657D01*
X019280Y009626D01*
X019246Y009598D01*
X019210Y009574D01*
X019171Y009552D01*
X019131Y009534D01*
X019089Y009520D01*
X019046Y009509D01*
X019002Y009502D01*
X018958Y009499D01*
X018914Y009500D01*
X018870Y009505D01*
X018827Y009514D01*
X018784Y009526D01*
X018743Y009543D01*
X018703Y009562D01*
X018666Y009586D01*
X018630Y009612D01*
X018597Y009642D01*
X018567Y009674D01*
X018540Y009709D01*
X018516Y009746D01*
X018495Y009785D01*
X018478Y009826D01*
X018465Y009868D01*
X018455Y009911D01*
X018449Y009955D01*
X018447Y009999D01*
M02*
