G75*
%MOIN*%
%OFA0B0*%
%FSLAX24Y24*%
%IPPOS*%
%LPD*%
%AMOC8*
5,1,8,0,0,1.08239X$1,22.5*
%
%ADD10C,0.0100*%
%ADD11OC8,0.0740*%
%ADD12R,0.0480X0.0880*%
%ADD13R,0.1417X0.0866*%
%ADD14R,0.0591X0.0512*%
%ADD15R,0.0177X0.0512*%
%ADD16R,0.0512X0.0591*%
%ADD17R,0.0515X0.0515*%
%ADD18C,0.0515*%
%ADD19C,0.3543*%
%ADD20C,0.0600*%
%ADD21C,0.0160*%
%ADD22C,0.0317*%
%ADD23C,0.0356*%
%ADD24C,0.0277*%
D10*
X010668Y003483D02*
X011018Y003133D01*
X011018Y002183D01*
X011118Y002083D01*
X011668Y002083D01*
X013318Y002433D02*
X013318Y003753D01*
X013340Y003775D01*
X019518Y005583D02*
X019518Y007083D01*
X019018Y007583D01*
X017968Y007583D01*
X017968Y010083D01*
X019918Y010132D02*
X026368Y010132D01*
X026368Y010230D02*
X019918Y010230D01*
X019918Y010329D02*
X026368Y010329D01*
X026368Y010427D02*
X019918Y010427D01*
X019918Y010526D02*
X026368Y010526D01*
X026368Y010624D02*
X019918Y010624D01*
X019918Y010723D02*
X026368Y010723D01*
X026368Y010783D02*
X026368Y006033D01*
X019918Y006033D01*
X019918Y010783D01*
X026368Y010783D01*
X026368Y010033D02*
X019918Y010033D01*
X019918Y009935D02*
X026368Y009935D01*
X026368Y009836D02*
X019918Y009836D01*
X019918Y009738D02*
X026368Y009738D01*
X026368Y009639D02*
X019918Y009639D01*
X019918Y009541D02*
X026368Y009541D01*
X026368Y009442D02*
X019918Y009442D01*
X019918Y009344D02*
X026368Y009344D01*
X026368Y009245D02*
X019918Y009245D01*
X019918Y009147D02*
X026368Y009147D01*
X026368Y009048D02*
X019918Y009048D01*
X019918Y008950D02*
X026368Y008950D01*
X026368Y008851D02*
X019918Y008851D01*
X019918Y008753D02*
X026368Y008753D01*
X026368Y008654D02*
X019918Y008654D01*
X019918Y008556D02*
X026368Y008556D01*
X026368Y008457D02*
X019918Y008457D01*
X019918Y008359D02*
X026368Y008359D01*
X026368Y008260D02*
X019918Y008260D01*
X019918Y008162D02*
X026368Y008162D01*
X026368Y008063D02*
X019918Y008063D01*
X019918Y007965D02*
X026368Y007965D01*
X026368Y007866D02*
X019918Y007866D01*
X019918Y007768D02*
X026368Y007768D01*
X026368Y007669D02*
X019918Y007669D01*
X019918Y007571D02*
X026368Y007571D01*
X026368Y007472D02*
X019918Y007472D01*
X019918Y007374D02*
X026368Y007374D01*
X026368Y007275D02*
X019918Y007275D01*
X019918Y007177D02*
X026368Y007177D01*
X026368Y007078D02*
X019918Y007078D01*
X019918Y006980D02*
X026368Y006980D01*
X026368Y006881D02*
X019918Y006881D01*
X019918Y006783D02*
X026368Y006783D01*
X026368Y006684D02*
X019918Y006684D01*
X019918Y006586D02*
X026368Y006586D01*
X026368Y006487D02*
X019918Y006487D01*
X019918Y006389D02*
X026368Y006389D01*
X026368Y006290D02*
X019918Y006290D01*
X019918Y006192D02*
X026368Y006192D01*
X026368Y006093D02*
X019918Y006093D01*
X019968Y005733D02*
X019968Y001083D01*
X026368Y001083D01*
X026368Y005733D01*
X019968Y005733D01*
X019968Y005699D02*
X026368Y005699D01*
X026368Y005601D02*
X019968Y005601D01*
X019968Y005502D02*
X026368Y005502D01*
X026368Y005404D02*
X019968Y005404D01*
X019968Y005305D02*
X026368Y005305D01*
X026368Y005207D02*
X019968Y005207D01*
X019968Y005108D02*
X026368Y005108D01*
X026368Y005010D02*
X019968Y005010D01*
X019968Y004911D02*
X026368Y004911D01*
X026368Y004813D02*
X019968Y004813D01*
X019968Y004714D02*
X026368Y004714D01*
X026368Y004616D02*
X019968Y004616D01*
X019968Y004517D02*
X026368Y004517D01*
X026368Y004419D02*
X019968Y004419D01*
X019968Y004320D02*
X026368Y004320D01*
X026368Y004222D02*
X019968Y004222D01*
X019968Y004123D02*
X026368Y004123D01*
X026368Y004025D02*
X019968Y004025D01*
X019968Y003926D02*
X026368Y003926D01*
X026368Y003828D02*
X019968Y003828D01*
X019968Y003729D02*
X026368Y003729D01*
X026368Y003631D02*
X019968Y003631D01*
X019968Y003532D02*
X026368Y003532D01*
X026368Y003434D02*
X019968Y003434D01*
X019968Y003335D02*
X026368Y003335D01*
X026368Y003237D02*
X019968Y003237D01*
X019968Y003138D02*
X026368Y003138D01*
X026368Y003040D02*
X019968Y003040D01*
X019968Y002941D02*
X026368Y002941D01*
X026368Y002843D02*
X019968Y002843D01*
X019968Y002744D02*
X026368Y002744D01*
X026368Y002646D02*
X019968Y002646D01*
X019968Y002547D02*
X026368Y002547D01*
X026368Y002449D02*
X019968Y002449D01*
X019968Y002350D02*
X026368Y002350D01*
X026368Y002252D02*
X019968Y002252D01*
X019968Y002153D02*
X026368Y002153D01*
X026368Y002055D02*
X019968Y002055D01*
X019968Y001956D02*
X026368Y001956D01*
X026368Y001858D02*
X019968Y001858D01*
X019968Y001759D02*
X026368Y001759D01*
X026368Y001661D02*
X019968Y001661D01*
X019968Y001562D02*
X026368Y001562D01*
X026368Y001464D02*
X019968Y001464D01*
X019968Y001365D02*
X026368Y001365D01*
X026368Y001267D02*
X019968Y001267D01*
X019968Y001168D02*
X026368Y001168D01*
D11*
X006918Y001933D03*
X005918Y001933D03*
X004918Y001933D03*
X004918Y002933D03*
X005918Y002933D03*
X006918Y002933D03*
D12*
X009058Y004803D03*
X009968Y004803D03*
X010878Y004803D03*
D13*
X009968Y002362D03*
D14*
X012279Y009459D03*
X012279Y010207D03*
D15*
X013084Y005390D03*
X013340Y005390D03*
X013596Y005390D03*
X013852Y005390D03*
X013852Y003775D03*
X013596Y003775D03*
X013340Y003775D03*
X013084Y003775D03*
D16*
X010992Y006033D03*
X010244Y006033D03*
D17*
X007468Y005401D03*
D18*
X007468Y006189D03*
X007468Y006976D03*
X007468Y007764D03*
D19*
X022866Y008842D03*
X022866Y002937D03*
D20*
X008539Y009499D02*
X007939Y009499D01*
X007939Y010499D02*
X008539Y010499D01*
D21*
X004148Y001041D02*
X004148Y000629D01*
X004175Y000557D01*
X004291Y000408D01*
X004372Y000361D01*
X018968Y000433D01*
X018854Y000453D01*
X018853Y000453D01*
X018583Y000453D01*
X018333Y000556D01*
X018141Y000747D01*
X018038Y000997D01*
X018038Y001268D01*
X018141Y001518D01*
X018333Y001709D01*
X018583Y001813D01*
X018802Y001813D01*
X018775Y007393D01*
X017889Y007393D01*
X017778Y007504D01*
X017778Y009961D01*
X017027Y010713D01*
X014198Y010713D01*
X014148Y010663D01*
X014031Y010614D01*
X013905Y010614D01*
X013788Y010663D01*
X013698Y010752D01*
X013650Y010869D01*
X013650Y010996D01*
X013668Y011040D01*
X012627Y011045D01*
X012671Y011002D01*
X012716Y010892D01*
X012716Y010773D01*
X012671Y010663D01*
X012610Y010602D01*
X012633Y010602D01*
X012715Y010520D01*
X012715Y009893D01*
X012682Y009860D01*
X012685Y009858D01*
X012719Y009825D01*
X012742Y009784D01*
X012755Y009738D01*
X012755Y009506D01*
X012327Y009506D01*
X012327Y009411D01*
X012755Y009411D01*
X012755Y009179D01*
X012742Y009133D01*
X012719Y009092D01*
X012685Y009059D01*
X012644Y009035D01*
X012598Y009023D01*
X012327Y009023D01*
X012327Y009411D01*
X012231Y009411D01*
X011804Y009411D01*
X011804Y009179D01*
X011816Y009133D01*
X011840Y009092D01*
X011874Y009059D01*
X011915Y009035D01*
X011960Y009023D01*
X012231Y009023D01*
X012231Y009411D01*
X012231Y009506D01*
X011804Y009506D01*
X011804Y009738D01*
X011816Y009784D01*
X011840Y009825D01*
X011874Y009858D01*
X011877Y009860D01*
X011844Y009893D01*
X011844Y010520D01*
X011926Y010602D01*
X012059Y010602D01*
X012059Y010785D01*
X012119Y010845D01*
X012119Y010892D01*
X012165Y011002D01*
X012211Y011048D01*
X004894Y011088D01*
X004744Y011080D01*
X004598Y011048D01*
X004459Y010994D01*
X004330Y010918D01*
X004214Y010824D01*
X004114Y010712D01*
X004112Y010710D01*
X004111Y010554D01*
X004131Y010466D01*
X004148Y010449D01*
X004148Y010402D01*
X004162Y010357D01*
X004148Y010330D01*
X004148Y003777D01*
X004205Y003801D01*
X004331Y003801D01*
X004448Y003752D01*
X004538Y003663D01*
X004586Y003546D01*
X004586Y003419D01*
X004538Y003302D01*
X004488Y003253D01*
X004488Y003224D01*
X004707Y003443D01*
X005129Y003443D01*
X005418Y003154D01*
X005707Y003443D01*
X006117Y003443D01*
X007219Y004545D01*
X007219Y004592D01*
X007265Y004702D01*
X007349Y004786D01*
X007459Y004831D01*
X007577Y004831D01*
X007687Y004786D01*
X007771Y004702D01*
X007816Y004592D01*
X007816Y004473D01*
X007771Y004363D01*
X007687Y004280D01*
X007577Y004234D01*
X007531Y004234D01*
X006739Y003443D01*
X007129Y003443D01*
X007428Y003144D01*
X007428Y002721D01*
X007139Y002433D01*
X007428Y002144D01*
X007428Y001803D01*
X009188Y001803D01*
X009119Y001871D01*
X009119Y002853D01*
X009142Y002877D01*
X008977Y003042D01*
X008848Y003171D01*
X008848Y003230D01*
X008815Y003263D01*
X008769Y003373D01*
X008769Y003492D01*
X008777Y003510D01*
X008771Y003513D01*
X008727Y003513D01*
X008691Y003548D01*
X008321Y003713D01*
X008277Y003713D01*
X008241Y003748D01*
X008195Y003768D01*
X008179Y003810D01*
X008148Y003841D01*
X008148Y003892D01*
X008130Y003939D01*
X008148Y003979D01*
X008148Y005750D01*
X007865Y006111D01*
X007865Y006110D01*
X007805Y005964D01*
X007693Y005852D01*
X007565Y005799D01*
X007783Y005799D01*
X007865Y005717D01*
X007865Y005086D01*
X007783Y005004D01*
X007152Y005004D01*
X007070Y005086D01*
X007070Y005717D01*
X007152Y005799D01*
X007371Y005799D01*
X007243Y005852D01*
X007131Y005964D01*
X007070Y006110D01*
X007070Y006268D01*
X007131Y006414D01*
X007243Y006526D01*
X007380Y006583D01*
X007243Y006639D01*
X007131Y006751D01*
X007129Y006756D01*
X006831Y006756D01*
X006777Y006734D01*
X006659Y006734D01*
X006549Y006780D01*
X006465Y006863D01*
X006419Y006973D01*
X006419Y007092D01*
X006465Y007202D01*
X006549Y007286D01*
X006659Y007331D01*
X006777Y007331D01*
X006887Y007286D01*
X006971Y007202D01*
X006973Y007196D01*
X007129Y007196D01*
X007131Y007201D01*
X007243Y007313D01*
X007329Y007349D01*
X007300Y007358D01*
X007239Y007389D01*
X007183Y007430D01*
X007134Y007479D01*
X007094Y007534D01*
X007062Y007596D01*
X007041Y007661D01*
X007030Y007729D01*
X007030Y007764D01*
X007468Y007764D01*
X007468Y007764D01*
X007468Y008201D01*
X007502Y008201D01*
X007570Y008190D01*
X007636Y008169D01*
X007697Y008138D01*
X007753Y008097D01*
X007802Y008049D01*
X007842Y007993D01*
X007873Y007932D01*
X007895Y007866D01*
X007905Y007798D01*
X007905Y007764D01*
X007468Y007764D01*
X007468Y008201D01*
X007433Y008201D01*
X007365Y008190D01*
X007300Y008169D01*
X007239Y008138D01*
X007183Y008097D01*
X007134Y008049D01*
X007094Y007993D01*
X007062Y007932D01*
X007041Y007866D01*
X007030Y007798D01*
X007030Y007764D01*
X007468Y007764D01*
X007468Y007764D01*
X007468Y007764D01*
X007905Y007764D01*
X007905Y007729D01*
X007895Y007661D01*
X007873Y007596D01*
X007842Y007534D01*
X007802Y007479D01*
X007753Y007430D01*
X007697Y007389D01*
X007636Y007358D01*
X007607Y007349D01*
X007693Y007313D01*
X007805Y007201D01*
X007865Y007055D01*
X007865Y006897D01*
X007846Y006850D01*
X008533Y005972D01*
X008588Y005917D01*
X008588Y005902D01*
X008597Y005890D01*
X008588Y005813D01*
X008588Y004075D01*
X008865Y003953D01*
X009199Y003953D01*
X009169Y004023D01*
X009169Y004142D01*
X009186Y004183D01*
X009098Y004183D01*
X009098Y004763D01*
X009018Y004763D01*
X008638Y004763D01*
X008638Y004339D01*
X008650Y004293D01*
X008674Y004252D01*
X008707Y004218D01*
X008748Y004195D01*
X008794Y004183D01*
X009018Y004183D01*
X009018Y004763D01*
X009018Y004843D01*
X009018Y005423D01*
X008794Y005423D01*
X008748Y005410D01*
X008707Y005387D01*
X008674Y005353D01*
X008650Y005312D01*
X008638Y005266D01*
X008638Y004843D01*
X009018Y004843D01*
X009098Y004843D01*
X009098Y005423D01*
X009322Y005423D01*
X009367Y005410D01*
X009408Y005387D01*
X009442Y005353D01*
X009466Y005312D01*
X009478Y005266D01*
X009478Y005023D01*
X009588Y005023D01*
X009588Y005301D01*
X009670Y005383D01*
X010266Y005383D01*
X010348Y005301D01*
X010348Y004474D01*
X010498Y004624D01*
X010498Y005301D01*
X010580Y005383D01*
X011176Y005383D01*
X011258Y005301D01*
X011258Y004305D01*
X011176Y004223D01*
X010719Y004223D01*
X010009Y003513D01*
X009358Y003513D01*
X009366Y003492D01*
X009366Y003373D01*
X009338Y003304D01*
X009706Y002936D01*
X010735Y002936D01*
X010817Y002853D01*
X010817Y001871D01*
X010748Y001803D01*
X011166Y001803D01*
X011199Y001836D01*
X011309Y001881D01*
X011427Y001881D01*
X011537Y001836D01*
X011570Y001803D01*
X012864Y001803D01*
X012864Y003453D01*
X012855Y003462D01*
X012855Y004089D01*
X012937Y004171D01*
X013137Y004171D01*
X013141Y004175D01*
X013182Y004199D01*
X013228Y004211D01*
X013340Y004211D01*
X013340Y004102D01*
X013340Y004102D01*
X013340Y004211D01*
X013452Y004211D01*
X013468Y004207D01*
X013484Y004211D01*
X013596Y004211D01*
X013596Y004102D01*
X013596Y004102D01*
X013596Y004211D01*
X013708Y004211D01*
X013724Y004207D01*
X013739Y004211D01*
X013852Y004211D01*
X013852Y004102D01*
X013852Y004211D01*
X013964Y004211D01*
X014010Y004199D01*
X014051Y004175D01*
X014084Y004142D01*
X014108Y004101D01*
X014120Y004055D01*
X014120Y003775D01*
X013852Y003775D01*
X013852Y003775D01*
X014120Y003775D01*
X014120Y003496D01*
X014108Y003450D01*
X014084Y003409D01*
X014051Y003375D01*
X014010Y003352D01*
X013964Y003340D01*
X013852Y003340D01*
X013852Y003449D01*
X013852Y003449D01*
X013852Y003340D01*
X013739Y003340D01*
X013724Y003344D01*
X013708Y003340D01*
X013596Y003340D01*
X013596Y003449D01*
X013596Y003449D01*
X013596Y003449D01*
X013596Y003340D01*
X013484Y003340D01*
X013468Y003344D01*
X013452Y003340D01*
X013340Y003340D01*
X013340Y003449D01*
X013340Y003449D01*
X013340Y003340D01*
X013304Y003340D01*
X013304Y001631D01*
X013327Y001631D01*
X013389Y001605D01*
X015166Y003241D01*
X015227Y003303D01*
X015232Y003303D01*
X015236Y003306D01*
X015322Y003303D01*
X016177Y003303D01*
X016198Y003324D01*
X016198Y009480D01*
X016165Y009513D01*
X016119Y009623D01*
X016119Y009742D01*
X016165Y009852D01*
X016249Y009936D01*
X016359Y009981D01*
X016477Y009981D01*
X016587Y009936D01*
X016671Y009852D01*
X016716Y009742D01*
X016716Y009681D01*
X016827Y009681D01*
X016898Y009652D01*
X016898Y010074D01*
X016919Y010095D01*
X016919Y010142D01*
X016965Y010252D01*
X017049Y010336D01*
X017159Y010381D01*
X017277Y010381D01*
X017387Y010336D01*
X017471Y010252D01*
X017516Y010142D01*
X017516Y010023D01*
X017471Y009913D01*
X017387Y009830D01*
X017338Y009809D01*
X017338Y002841D01*
X016888Y002391D01*
X016759Y002263D01*
X015713Y002263D01*
X014138Y000595D01*
X014138Y000591D01*
X014076Y000529D01*
X014015Y000465D01*
X014012Y000465D01*
X014009Y000463D01*
X013921Y000463D01*
X013833Y000460D01*
X013830Y000463D01*
X005177Y000463D01*
X005048Y000591D01*
X005048Y001013D01*
X004177Y001013D01*
X004148Y001041D01*
X004148Y001031D02*
X004159Y001031D01*
X004148Y000872D02*
X005048Y000872D01*
X005048Y000714D02*
X004148Y000714D01*
X004177Y000555D02*
X005084Y000555D01*
X005268Y000683D02*
X005268Y001233D01*
X004268Y001233D01*
X004268Y003483D01*
X004475Y003725D02*
X006399Y003725D01*
X006241Y003567D02*
X004577Y003567D01*
X004581Y003408D02*
X004672Y003408D01*
X004514Y003250D02*
X004488Y003250D01*
X005164Y003408D02*
X005672Y003408D01*
X005514Y003250D02*
X005322Y003250D01*
X005918Y002933D02*
X007518Y004533D01*
X007816Y004518D02*
X008148Y004518D01*
X008148Y004676D02*
X007781Y004676D01*
X008148Y004835D02*
X004688Y004835D01*
X004688Y004993D02*
X008148Y004993D01*
X008148Y005152D02*
X007865Y005152D01*
X007865Y005310D02*
X008148Y005310D01*
X008148Y005469D02*
X007865Y005469D01*
X007865Y005627D02*
X008148Y005627D01*
X008120Y005786D02*
X007797Y005786D01*
X007785Y005944D02*
X007996Y005944D01*
X007872Y006103D02*
X007862Y006103D01*
X008183Y006420D02*
X009882Y006420D01*
X009848Y006386D02*
X009848Y005679D01*
X009930Y005597D01*
X010558Y005597D01*
X010618Y005657D01*
X010678Y005597D01*
X011116Y005597D01*
X011415Y005298D01*
X011544Y005170D01*
X012855Y005170D01*
X012855Y005076D01*
X012897Y005034D01*
X012815Y004952D01*
X012769Y004842D01*
X012769Y004723D01*
X012815Y004613D01*
X012899Y004530D01*
X013009Y004484D01*
X013127Y004484D01*
X013237Y004530D01*
X013321Y004613D01*
X013366Y004723D01*
X013366Y004770D01*
X013431Y004835D01*
X013560Y004963D01*
X013560Y004994D01*
X013649Y004994D01*
X013653Y004990D01*
X013694Y004966D01*
X013739Y004954D01*
X013852Y004954D01*
X013964Y004954D01*
X014010Y004966D01*
X014051Y004990D01*
X014084Y005023D01*
X014108Y005064D01*
X014120Y005110D01*
X014120Y005390D01*
X014120Y005669D01*
X014108Y005715D01*
X014084Y005756D01*
X014051Y005790D01*
X014010Y005813D01*
X013964Y005826D01*
X013852Y005826D01*
X013852Y005390D01*
X013852Y005390D01*
X014120Y005390D01*
X013852Y005390D01*
X013852Y005390D01*
X013852Y005826D01*
X013739Y005826D01*
X013694Y005813D01*
X013653Y005790D01*
X013649Y005786D01*
X013544Y005786D01*
X013585Y008277D01*
X013621Y008313D01*
X013666Y008423D01*
X013666Y008542D01*
X013621Y008652D01*
X013537Y008736D01*
X013427Y008781D01*
X013309Y008781D01*
X013199Y008736D01*
X013115Y008652D01*
X013069Y008542D01*
X013069Y008423D01*
X013115Y008313D01*
X013145Y008284D01*
X013112Y006261D01*
X013111Y006261D01*
X013112Y006261D02*
X013087Y006286D01*
X012977Y006331D01*
X012931Y006331D01*
X011838Y007424D01*
X011838Y008280D01*
X011871Y008313D01*
X011916Y008423D01*
X011916Y008542D01*
X011871Y008652D01*
X011838Y008685D01*
X011838Y008774D01*
X011709Y008903D01*
X011459Y009153D01*
X009727Y009153D01*
X009598Y009024D01*
X009377Y008803D01*
X005377Y008803D01*
X005248Y008674D01*
X004248Y007674D01*
X004248Y004491D01*
X004377Y004363D01*
X004669Y004070D01*
X004669Y004023D01*
X004715Y003913D01*
X004799Y003830D01*
X004909Y003784D01*
X005027Y003784D01*
X005137Y003830D01*
X005221Y003913D01*
X005266Y004023D01*
X005266Y004142D01*
X005221Y004252D01*
X005137Y004336D01*
X005027Y004381D01*
X004981Y004381D01*
X004688Y004674D01*
X004688Y007491D01*
X005559Y008363D01*
X009559Y008363D01*
X009909Y008713D01*
X010728Y008713D01*
X010719Y008692D01*
X010719Y008573D01*
X010765Y008463D01*
X010772Y008456D01*
X010772Y006468D01*
X010678Y006468D01*
X010618Y006408D01*
X010558Y006468D01*
X010488Y006468D01*
X010488Y006480D01*
X010521Y006513D01*
X010566Y006623D01*
X010566Y006742D01*
X010521Y006852D01*
X010437Y006936D01*
X010327Y006981D01*
X010209Y006981D01*
X010099Y006936D01*
X010015Y006852D01*
X009969Y006742D01*
X009969Y006623D01*
X010015Y006513D01*
X010048Y006480D01*
X010048Y006468D01*
X009930Y006468D01*
X009848Y006386D01*
X009848Y006261D02*
X008307Y006261D01*
X008431Y006103D02*
X009848Y006103D01*
X009848Y005944D02*
X008561Y005944D01*
X008588Y005786D02*
X009848Y005786D01*
X009900Y005627D02*
X008588Y005627D01*
X008588Y005469D02*
X011245Y005469D01*
X011248Y005310D02*
X011403Y005310D01*
X011258Y005152D02*
X012855Y005152D01*
X012856Y004993D02*
X011258Y004993D01*
X011258Y004835D02*
X012769Y004835D01*
X012789Y004676D02*
X011258Y004676D01*
X011258Y004518D02*
X012928Y004518D01*
X013208Y004518D02*
X016198Y004518D01*
X016198Y004676D02*
X013347Y004676D01*
X013431Y004835D02*
X016198Y004835D01*
X016198Y004993D02*
X014054Y004993D01*
X014120Y005152D02*
X016198Y005152D01*
X016198Y005310D02*
X014120Y005310D01*
X014120Y005469D02*
X016198Y005469D01*
X016198Y005627D02*
X014120Y005627D01*
X014055Y005786D02*
X016198Y005786D01*
X016198Y005944D02*
X013547Y005944D01*
X013544Y005786D02*
X013649Y005786D01*
X013852Y005786D02*
X013852Y005786D01*
X013852Y005627D02*
X013852Y005627D01*
X013852Y005469D02*
X013852Y005469D01*
X013852Y005390D02*
X013852Y005390D01*
X013824Y005390D01*
X013824Y005390D01*
X013852Y005390D01*
X013852Y004954D01*
X013852Y005390D01*
X013852Y005390D01*
X013852Y005310D02*
X013852Y005310D01*
X013852Y005152D02*
X013852Y005152D01*
X013852Y004993D02*
X013852Y004993D01*
X013649Y004993D02*
X013560Y004993D01*
X013340Y005055D02*
X013340Y005390D01*
X013318Y005412D01*
X013368Y008483D01*
X013666Y008480D02*
X016198Y008480D01*
X016198Y008322D02*
X013624Y008322D01*
X013583Y008163D02*
X016198Y008163D01*
X016198Y008005D02*
X013580Y008005D01*
X013578Y007846D02*
X014824Y007846D01*
X014799Y007836D02*
X014715Y007752D01*
X014669Y007642D01*
X014669Y007523D01*
X014715Y007413D01*
X014799Y007330D01*
X014909Y007284D01*
X014986Y007284D01*
X015469Y006892D01*
X015469Y006873D01*
X015515Y006763D01*
X015599Y006680D01*
X015709Y006634D01*
X015827Y006634D01*
X015937Y006680D01*
X016021Y006763D01*
X016066Y006873D01*
X016066Y006992D01*
X016021Y007102D01*
X015937Y007186D01*
X015827Y007231D01*
X015749Y007231D01*
X015266Y007624D01*
X015266Y007642D01*
X015221Y007752D01*
X015137Y007836D01*
X015027Y007881D01*
X014909Y007881D01*
X014799Y007836D01*
X014688Y007688D02*
X013575Y007688D01*
X013572Y007529D02*
X014669Y007529D01*
X014758Y007371D02*
X013570Y007371D01*
X013567Y007212D02*
X015075Y007212D01*
X015270Y007054D02*
X013565Y007054D01*
X013562Y006895D02*
X015465Y006895D01*
X015542Y006737D02*
X013560Y006737D01*
X013557Y006578D02*
X016198Y006578D01*
X016198Y006420D02*
X013554Y006420D01*
X013552Y006261D02*
X016198Y006261D01*
X016198Y006103D02*
X013549Y006103D01*
X013114Y006420D02*
X012842Y006420D01*
X012684Y006578D02*
X013117Y006578D01*
X013119Y006737D02*
X012525Y006737D01*
X012367Y006895D02*
X013122Y006895D01*
X013125Y007054D02*
X012208Y007054D01*
X012050Y007212D02*
X013127Y007212D01*
X013130Y007371D02*
X011891Y007371D01*
X011838Y007529D02*
X013132Y007529D01*
X013135Y007688D02*
X011838Y007688D01*
X011838Y007846D02*
X013138Y007846D01*
X013140Y008005D02*
X011838Y008005D01*
X011838Y008163D02*
X013143Y008163D01*
X013112Y008322D02*
X011874Y008322D01*
X011916Y008480D02*
X013069Y008480D01*
X013110Y008639D02*
X011876Y008639D01*
X011814Y008797D02*
X016198Y008797D01*
X016198Y008639D02*
X013626Y008639D01*
X012731Y009114D02*
X016198Y009114D01*
X016198Y008956D02*
X011656Y008956D01*
X011497Y009114D02*
X011827Y009114D01*
X011804Y009273D02*
X008963Y009273D01*
X008950Y009247D02*
X008984Y009314D01*
X009007Y009386D01*
X009019Y009461D01*
X009019Y009479D01*
X008259Y009479D01*
X008259Y009519D01*
X008219Y009519D01*
X008219Y009979D01*
X007901Y009979D01*
X007827Y009967D01*
X007755Y009943D01*
X007688Y009909D01*
X007626Y009865D01*
X007573Y009811D01*
X007529Y009750D01*
X007494Y009683D01*
X007471Y009611D01*
X007459Y009536D01*
X007459Y009519D01*
X008219Y009519D01*
X008219Y009479D01*
X007459Y009479D01*
X007459Y009461D01*
X007471Y009386D01*
X007494Y009314D01*
X007529Y009247D01*
X007573Y009186D01*
X007626Y009133D01*
X007688Y009088D01*
X007755Y009054D01*
X007827Y009030D01*
X007901Y009019D01*
X008219Y009019D01*
X008219Y009479D01*
X008259Y009479D01*
X008259Y009019D01*
X008577Y009019D01*
X008652Y009030D01*
X008723Y009054D01*
X008791Y009088D01*
X008852Y009133D01*
X008905Y009186D01*
X008950Y009247D01*
X008826Y009114D02*
X009688Y009114D01*
X009818Y008933D02*
X011368Y008933D01*
X011618Y008683D01*
X011618Y008483D01*
X011618Y007333D01*
X012918Y006033D01*
X013084Y005390D02*
X011635Y005390D01*
X010992Y006033D01*
X010992Y008607D01*
X011018Y008633D01*
X010719Y008639D02*
X009835Y008639D01*
X009677Y008480D02*
X010758Y008480D01*
X010772Y008322D02*
X005518Y008322D01*
X005360Y008163D02*
X007288Y008163D01*
X007468Y008163D02*
X007468Y008163D01*
X007468Y008005D02*
X007468Y008005D01*
X007468Y007846D02*
X007468Y007846D01*
X007834Y008005D02*
X010772Y008005D01*
X010772Y008163D02*
X007648Y008163D01*
X007898Y007846D02*
X010772Y007846D01*
X010772Y007688D02*
X007899Y007688D01*
X007838Y007529D02*
X010772Y007529D01*
X010772Y007371D02*
X007660Y007371D01*
X007794Y007212D02*
X010772Y007212D01*
X010772Y007054D02*
X007865Y007054D01*
X007865Y006895D02*
X010058Y006895D01*
X009969Y006737D02*
X007935Y006737D01*
X008059Y006578D02*
X009988Y006578D01*
X010268Y006683D02*
X010268Y006057D01*
X010244Y006033D01*
X010606Y006420D02*
X010630Y006420D01*
X010548Y006578D02*
X010772Y006578D01*
X010772Y006737D02*
X010566Y006737D01*
X010477Y006895D02*
X010772Y006895D01*
X010648Y005627D02*
X010588Y005627D01*
X010507Y005310D02*
X010338Y005310D01*
X010348Y005152D02*
X010498Y005152D01*
X010498Y004993D02*
X010348Y004993D01*
X010348Y004835D02*
X010498Y004835D01*
X010498Y004676D02*
X010348Y004676D01*
X010348Y004518D02*
X010392Y004518D01*
X010768Y004583D02*
X010818Y004583D01*
X010878Y004643D01*
X010878Y004803D01*
X010768Y004583D02*
X009918Y003733D01*
X008818Y003733D01*
X008368Y003933D01*
X008368Y005826D01*
X007468Y006976D01*
X006774Y006976D01*
X006718Y007033D01*
X006419Y007054D02*
X004688Y007054D01*
X004688Y007212D02*
X006475Y007212D01*
X006452Y006895D02*
X004688Y006895D01*
X004688Y006737D02*
X006653Y006737D01*
X006783Y006737D02*
X007145Y006737D01*
X007369Y006578D02*
X004688Y006578D01*
X004688Y006420D02*
X007137Y006420D01*
X007070Y006261D02*
X004688Y006261D01*
X004688Y006103D02*
X007073Y006103D01*
X007151Y005944D02*
X004688Y005944D01*
X004688Y005786D02*
X007139Y005786D01*
X007070Y005627D02*
X004688Y005627D01*
X004688Y005469D02*
X007070Y005469D01*
X007070Y005310D02*
X004688Y005310D01*
X004688Y005152D02*
X007070Y005152D01*
X007254Y004676D02*
X004688Y004676D01*
X004844Y004518D02*
X007192Y004518D01*
X007033Y004359D02*
X005080Y004359D01*
X005242Y004201D02*
X006875Y004201D01*
X006716Y004042D02*
X005266Y004042D01*
X005191Y003884D02*
X006558Y003884D01*
X007022Y003725D02*
X008264Y003725D01*
X008148Y003884D02*
X007180Y003884D01*
X007339Y004042D02*
X008148Y004042D01*
X008148Y004201D02*
X007497Y004201D01*
X007766Y004359D02*
X008148Y004359D01*
X008588Y004359D02*
X008638Y004359D01*
X008638Y004518D02*
X008588Y004518D01*
X008588Y004676D02*
X008638Y004676D01*
X008588Y004835D02*
X009018Y004835D01*
X009018Y004993D02*
X009098Y004993D01*
X009098Y005152D02*
X009018Y005152D01*
X009018Y005310D02*
X009098Y005310D01*
X008650Y005310D02*
X008588Y005310D01*
X008588Y005152D02*
X008638Y005152D01*
X008638Y004993D02*
X008588Y004993D01*
X009018Y004676D02*
X009098Y004676D01*
X009098Y004518D02*
X009018Y004518D01*
X009018Y004359D02*
X009098Y004359D01*
X009098Y004201D02*
X009018Y004201D01*
X009169Y004042D02*
X008663Y004042D01*
X008588Y004201D02*
X008738Y004201D01*
X009468Y004083D02*
X009468Y004733D01*
X009538Y004803D01*
X009968Y004803D01*
X009588Y005152D02*
X009478Y005152D01*
X009466Y005310D02*
X009597Y005310D01*
X010697Y004201D02*
X013187Y004201D01*
X013340Y004201D02*
X013340Y004201D01*
X013596Y004201D02*
X013596Y004201D01*
X013596Y004102D02*
X013596Y004102D01*
X013852Y004102D02*
X013852Y004102D01*
X013852Y004201D02*
X013852Y004201D01*
X014004Y004201D02*
X016198Y004201D01*
X016198Y004359D02*
X011258Y004359D01*
X010539Y004042D02*
X012855Y004042D01*
X012855Y003884D02*
X010380Y003884D01*
X010222Y003725D02*
X012855Y003725D01*
X012855Y003567D02*
X010063Y003567D01*
X009550Y003091D02*
X012864Y003091D01*
X012864Y002933D02*
X010738Y002933D01*
X010817Y002774D02*
X012864Y002774D01*
X012864Y002616D02*
X010817Y002616D01*
X010817Y002457D02*
X012864Y002457D01*
X012864Y002299D02*
X010817Y002299D01*
X010817Y002140D02*
X012864Y002140D01*
X012864Y001982D02*
X010817Y001982D01*
X010768Y001823D02*
X011186Y001823D01*
X011368Y001583D02*
X012968Y001583D01*
X013084Y001699D01*
X013084Y003775D01*
X013340Y003775D02*
X013583Y003775D01*
X013596Y003775D01*
X013596Y003775D01*
X013852Y003775D01*
X013852Y003775D01*
X013596Y003775D01*
X013340Y003775D01*
X013340Y003775D01*
X013596Y003775D02*
X013596Y003775D01*
X013596Y003408D02*
X013596Y003408D01*
X013852Y003408D02*
X013852Y003408D01*
X014083Y003408D02*
X016198Y003408D01*
X016198Y003567D02*
X014120Y003567D01*
X014120Y003725D02*
X016198Y003725D01*
X016198Y003884D02*
X014120Y003884D01*
X014120Y004042D02*
X016198Y004042D01*
X017338Y004042D02*
X018791Y004042D01*
X018792Y003884D02*
X017338Y003884D01*
X017338Y003725D02*
X018793Y003725D01*
X018793Y003567D02*
X017338Y003567D01*
X017338Y003408D02*
X018794Y003408D01*
X018795Y003250D02*
X017338Y003250D01*
X017338Y003091D02*
X018796Y003091D01*
X018796Y002933D02*
X017338Y002933D01*
X017271Y002774D02*
X018797Y002774D01*
X018798Y002616D02*
X017112Y002616D01*
X016954Y002457D02*
X018799Y002457D01*
X018799Y002299D02*
X016795Y002299D01*
X016668Y002483D02*
X015618Y002483D01*
X013918Y000683D01*
X005268Y000683D01*
X004310Y000397D02*
X011596Y000397D01*
X013268Y001333D02*
X013418Y001333D01*
X015318Y003083D01*
X016268Y003083D01*
X016418Y003233D01*
X016418Y009683D01*
X016616Y009907D02*
X016898Y009907D01*
X016898Y010065D02*
X012715Y010065D01*
X012715Y009907D02*
X016220Y009907D01*
X016122Y009748D02*
X012752Y009748D01*
X012755Y009590D02*
X016133Y009590D01*
X016198Y009431D02*
X012327Y009431D01*
X012231Y009431D02*
X009014Y009431D01*
X009019Y009519D02*
X009019Y009536D01*
X009007Y009611D01*
X008984Y009683D01*
X008950Y009750D01*
X008905Y009811D01*
X008852Y009865D01*
X008791Y009909D01*
X008723Y009943D01*
X008652Y009967D01*
X008577Y009979D01*
X008259Y009979D01*
X008259Y009519D01*
X009019Y009519D01*
X009011Y009590D02*
X011804Y009590D01*
X011807Y009748D02*
X008951Y009748D01*
X008794Y009907D02*
X011844Y009907D01*
X011844Y010065D02*
X008642Y010065D01*
X008627Y010059D02*
X008788Y010126D01*
X008912Y010249D01*
X008979Y010411D01*
X008979Y010586D01*
X008912Y010748D01*
X008788Y010872D01*
X008627Y010939D01*
X007852Y010939D01*
X007690Y010872D01*
X007566Y010748D01*
X007499Y010586D01*
X007499Y010411D01*
X007566Y010249D01*
X007690Y010126D01*
X007852Y010059D01*
X008627Y010059D01*
X008886Y010224D02*
X011844Y010224D01*
X011844Y010382D02*
X008967Y010382D01*
X008979Y010541D02*
X011864Y010541D01*
X012059Y010699D02*
X008932Y010699D01*
X008803Y010858D02*
X012119Y010858D01*
X012179Y011016D02*
X004517Y011016D01*
X004255Y010858D02*
X007676Y010858D01*
X007546Y010699D02*
X004112Y010699D01*
X004114Y010541D02*
X007499Y010541D01*
X007511Y010382D02*
X004154Y010382D01*
X004148Y010224D02*
X007592Y010224D01*
X007836Y010065D02*
X004148Y010065D01*
X004148Y009907D02*
X007684Y009907D01*
X007528Y009748D02*
X004148Y009748D01*
X004148Y009590D02*
X007468Y009590D01*
X007464Y009431D02*
X004148Y009431D01*
X004148Y009273D02*
X007516Y009273D01*
X007652Y009114D02*
X004148Y009114D01*
X004148Y008956D02*
X009530Y008956D01*
X009818Y008933D02*
X009468Y008583D01*
X005468Y008583D01*
X004468Y007583D01*
X004468Y004583D01*
X004968Y004083D01*
X004745Y003884D02*
X004148Y003884D01*
X004148Y004042D02*
X004669Y004042D01*
X004539Y004201D02*
X004148Y004201D01*
X004148Y004359D02*
X004380Y004359D01*
X004248Y004518D02*
X004148Y004518D01*
X004148Y004676D02*
X004248Y004676D01*
X004248Y004835D02*
X004148Y004835D01*
X004148Y004993D02*
X004248Y004993D01*
X004248Y005152D02*
X004148Y005152D01*
X004148Y005310D02*
X004248Y005310D01*
X004248Y005469D02*
X004148Y005469D01*
X004148Y005627D02*
X004248Y005627D01*
X004248Y005786D02*
X004148Y005786D01*
X004148Y005944D02*
X004248Y005944D01*
X004248Y006103D02*
X004148Y006103D01*
X004148Y006261D02*
X004248Y006261D01*
X004248Y006420D02*
X004148Y006420D01*
X004148Y006578D02*
X004248Y006578D01*
X004248Y006737D02*
X004148Y006737D01*
X004148Y006895D02*
X004248Y006895D01*
X004248Y007054D02*
X004148Y007054D01*
X004148Y007212D02*
X004248Y007212D01*
X004248Y007371D02*
X004148Y007371D01*
X004148Y007529D02*
X004248Y007529D01*
X004262Y007688D02*
X004148Y007688D01*
X004148Y007846D02*
X004420Y007846D01*
X004579Y008005D02*
X004148Y008005D01*
X004148Y008163D02*
X004737Y008163D01*
X004896Y008322D02*
X004148Y008322D01*
X004148Y008480D02*
X005054Y008480D01*
X005213Y008639D02*
X004148Y008639D01*
X004148Y008797D02*
X005371Y008797D01*
X005201Y008005D02*
X007102Y008005D01*
X007038Y007846D02*
X005043Y007846D01*
X004884Y007688D02*
X007037Y007688D01*
X007098Y007529D02*
X004726Y007529D01*
X004688Y007371D02*
X007276Y007371D01*
X007142Y007212D02*
X006960Y007212D01*
X008219Y009114D02*
X008259Y009114D01*
X008259Y009273D02*
X008219Y009273D01*
X008219Y009431D02*
X008259Y009431D01*
X008259Y009590D02*
X008219Y009590D01*
X008219Y009748D02*
X008259Y009748D01*
X008259Y009907D02*
X008219Y009907D01*
X012231Y009273D02*
X012327Y009273D01*
X012327Y009114D02*
X012231Y009114D01*
X012755Y009273D02*
X016198Y009273D01*
X016768Y009383D02*
X016768Y003033D01*
X016568Y002833D01*
X015468Y002833D01*
X013568Y000983D01*
X008568Y000983D01*
X009168Y001823D02*
X007428Y001823D01*
X007428Y001982D02*
X009119Y001982D01*
X009119Y002140D02*
X007428Y002140D01*
X007273Y002299D02*
X009119Y002299D01*
X009119Y002457D02*
X007164Y002457D01*
X007322Y002616D02*
X009119Y002616D01*
X009119Y002774D02*
X007428Y002774D01*
X007428Y002933D02*
X009087Y002933D01*
X008928Y003091D02*
X007428Y003091D01*
X007322Y003250D02*
X008829Y003250D01*
X008769Y003408D02*
X007164Y003408D01*
X006863Y003567D02*
X008650Y003567D01*
X009068Y003433D02*
X009068Y003262D01*
X009968Y002362D01*
X009392Y003250D02*
X012864Y003250D01*
X012864Y003408D02*
X009366Y003408D01*
X007268Y001583D02*
X006918Y001933D01*
X007268Y001583D02*
X011368Y001583D01*
X011549Y001823D02*
X012864Y001823D01*
X013304Y001823D02*
X013626Y001823D01*
X013798Y001982D02*
X013304Y001982D01*
X013304Y002140D02*
X013970Y002140D01*
X014142Y002299D02*
X013304Y002299D01*
X013304Y002457D02*
X014314Y002457D01*
X014486Y002616D02*
X013304Y002616D01*
X013304Y002774D02*
X014658Y002774D01*
X014830Y002933D02*
X013304Y002933D01*
X013304Y003091D02*
X015002Y003091D01*
X015174Y003250D02*
X013304Y003250D01*
X013340Y003408D02*
X013340Y003408D01*
X013068Y004783D02*
X013340Y005055D01*
X014118Y006033D02*
X014118Y008083D01*
X014968Y007583D02*
X015768Y006933D01*
X015873Y007212D02*
X016198Y007212D01*
X016198Y007054D02*
X016041Y007054D01*
X016066Y006895D02*
X016198Y006895D01*
X016198Y006737D02*
X015994Y006737D01*
X016198Y007371D02*
X015578Y007371D01*
X015383Y007529D02*
X016198Y007529D01*
X016198Y007688D02*
X015247Y007688D01*
X015112Y007846D02*
X016198Y007846D01*
X017338Y007846D02*
X017778Y007846D01*
X017778Y007688D02*
X017338Y007688D01*
X017338Y007529D02*
X017778Y007529D01*
X017338Y007371D02*
X018775Y007371D01*
X018776Y007212D02*
X017338Y007212D01*
X017338Y007054D02*
X018777Y007054D01*
X018778Y006895D02*
X017338Y006895D01*
X017338Y006737D02*
X018778Y006737D01*
X018779Y006578D02*
X017338Y006578D01*
X017338Y006420D02*
X018780Y006420D01*
X018781Y006261D02*
X017338Y006261D01*
X017338Y006103D02*
X018781Y006103D01*
X018782Y005944D02*
X017338Y005944D01*
X017418Y005933D02*
X017468Y005983D01*
X017468Y007083D01*
X017338Y008005D02*
X017778Y008005D01*
X017778Y008163D02*
X017338Y008163D01*
X017338Y008322D02*
X017778Y008322D01*
X017778Y008480D02*
X017338Y008480D01*
X017338Y008639D02*
X017778Y008639D01*
X017778Y008797D02*
X017338Y008797D01*
X017338Y008956D02*
X017778Y008956D01*
X017778Y009114D02*
X017338Y009114D01*
X017338Y009273D02*
X017778Y009273D01*
X017778Y009431D02*
X017338Y009431D01*
X017338Y009590D02*
X017778Y009590D01*
X017778Y009748D02*
X017338Y009748D01*
X017464Y009907D02*
X017778Y009907D01*
X017674Y010065D02*
X017516Y010065D01*
X017516Y010224D02*
X017483Y010224D01*
X017357Y010382D02*
X012715Y010382D01*
X012715Y010224D02*
X016953Y010224D01*
X017118Y009983D02*
X017218Y010083D01*
X017118Y009983D02*
X017118Y002933D01*
X016668Y002483D01*
X015597Y002140D02*
X018800Y002140D01*
X018801Y001982D02*
X015447Y001982D01*
X015298Y001823D02*
X018802Y001823D01*
X018288Y001665D02*
X015148Y001665D01*
X014998Y001506D02*
X018137Y001506D01*
X018071Y001348D02*
X014849Y001348D01*
X014699Y001189D02*
X018038Y001189D01*
X018038Y001031D02*
X014549Y001031D01*
X014400Y000872D02*
X018090Y000872D01*
X018175Y000714D02*
X014250Y000714D01*
X014102Y000555D02*
X018335Y000555D01*
X020306Y001953D02*
X020306Y002740D01*
X018790Y004201D02*
X017338Y004201D01*
X017338Y004359D02*
X018790Y004359D01*
X018789Y004518D02*
X017338Y004518D01*
X017338Y004676D02*
X018788Y004676D01*
X018787Y004835D02*
X017338Y004835D01*
X017338Y004993D02*
X018787Y004993D01*
X018786Y005152D02*
X017338Y005152D01*
X017338Y005310D02*
X018785Y005310D01*
X018784Y005469D02*
X017338Y005469D01*
X017338Y005627D02*
X018784Y005627D01*
X018783Y005786D02*
X017338Y005786D01*
X023950Y005346D02*
X024787Y005346D01*
X017968Y010083D02*
X017118Y010933D01*
X013968Y010933D01*
X014184Y010699D02*
X017040Y010699D01*
X017199Y010541D02*
X012694Y010541D01*
X012686Y010699D02*
X013751Y010699D01*
X013655Y010858D02*
X012716Y010858D01*
X012656Y011016D02*
X013658Y011016D01*
X012418Y010833D02*
X012279Y010694D01*
X012279Y010207D01*
X016714Y009748D02*
X016898Y009748D01*
X013454Y001665D02*
X013304Y001665D01*
D22*
X013268Y001333D03*
X011368Y001583D03*
X008568Y000983D03*
X009068Y003433D03*
X009468Y004083D03*
X007518Y004533D03*
X004968Y004083D03*
X006718Y007033D03*
X010268Y006683D03*
X012918Y006033D03*
X014118Y006033D03*
X015768Y006933D03*
X014968Y007583D03*
X014118Y008083D03*
X013368Y008483D03*
X011618Y008483D03*
X011018Y008633D03*
X012418Y010833D03*
X016418Y009683D03*
X016768Y009383D03*
X017218Y010083D03*
X017468Y007083D03*
X017418Y005933D03*
X013068Y004783D03*
D23*
X010668Y003483D03*
X011668Y002083D03*
X013318Y002433D03*
X019518Y005583D03*
X013968Y010933D03*
X004268Y003483D03*
D24*
X020306Y003527D03*
X020897Y003724D03*
X021881Y003921D03*
X022866Y004315D03*
X023850Y003921D03*
X024690Y004612D03*
X025428Y004605D03*
X026053Y004255D03*
X025137Y003996D03*
X025637Y003496D03*
X024955Y002802D03*
X024243Y002937D03*
X025937Y002746D03*
X025937Y001896D03*
X022866Y001559D03*
X021881Y001953D03*
X021291Y001362D03*
X020306Y001953D03*
X020306Y002740D03*
X021488Y002937D03*
X020306Y004315D03*
X021291Y004512D03*
X020556Y005165D03*
X021684Y005299D03*
X022425Y005346D03*
X023012Y005246D03*
X023950Y005346D03*
X024787Y005346D03*
X025787Y005246D03*
X024637Y006283D03*
X023850Y006283D03*
X023653Y006874D03*
X023062Y006283D03*
X022275Y006283D03*
X021684Y006480D03*
X022078Y006874D03*
X021291Y007268D03*
X021881Y007858D03*
X020897Y008055D03*
X020306Y008252D03*
X020306Y007464D03*
X021488Y008842D03*
X020647Y009480D03*
X020306Y009827D03*
X020847Y010080D03*
X020941Y010567D03*
X020306Y010614D03*
X021881Y009827D03*
X022866Y010220D03*
X023850Y009827D03*
X024637Y010614D03*
X025637Y010114D03*
X025137Y009114D03*
X025937Y008714D03*
X025137Y008114D03*
X025887Y007614D03*
X025187Y007064D03*
X024440Y007268D03*
X023850Y007858D03*
X022866Y007464D03*
X024243Y008842D03*
X020306Y009039D03*
X025837Y006514D03*
M02*
