%
M48
M72
T01C0.0157
T02C0.0197
T03C0.0236
T04C0.0315
T05C0.0400
T06C0.1000
T07C0.1772
%
T01
X23237Y6260
X22450Y6260
X21662Y6260
X22253Y6850
X23040Y7244
X20284Y5275
X21025Y5322
X21612Y5222
X22550Y5322
X23387Y5322
X23687Y5072
X23087Y3622
X22805Y2278
X21987Y1472
X23637Y2922
X23437Y1722
X22940Y4488
X23678Y4432
X23703Y3882
X19891Y4488
X18906Y4291
X18906Y3504
X19497Y3700
X19156Y5141
X18906Y2716
X18906Y1929
X19891Y1338
X20481Y1929
X20088Y2913
X20481Y3897
X21466Y4291
X22450Y3897
X22843Y2913
X21466Y1535
X18906Y10590
X19541Y10543
X18906Y9803
X19247Y9456
X19447Y10056
X18906Y9015
X19497Y8031
X18906Y8228
X18906Y7441
X19891Y7244
X20481Y7834
X20678Y6850
X20284Y6456
X20875Y6260
X21466Y7441
X20088Y8819
X20481Y9803
X21466Y10197
X22450Y9803
X22843Y8819
X22450Y7834
X22587Y10490
X23437Y10140
X23637Y9290
X23437Y7940
X23687Y7040
X23737Y6390
X23737Y7690
X23487Y8640
T02
X16618Y5909
X16668Y7059
X13318Y8059
X13318Y6009
X7168Y4559
X16418Y10059
X12468Y1309
X15618Y9659
X15968Y9359
X7768Y1009
X5918Y7009
X12118Y6009
X10818Y8459
X5268Y4159
X10568Y1559
X14968Y6909
X14168Y7559
X9468Y6659
X11618Y10809
X10218Y8609
X12268Y4759
X12568Y8459
X8268Y3409
X8668Y4059
T03
X12668Y2509
X10918Y2059
X9868Y3459
X4168Y4109
X13168Y10909
X18118Y5559
T04
X7018Y5378
X7018Y6165
X7018Y6952
X7018Y7740
T05
X6918Y3309
X6918Y2309
X5918Y3309
X5918Y2309
X4918Y3309
X4918Y2309
X7539Y9375
X7539Y10375
T06
X17318Y1109
X17547Y9976
T07
X21466Y8819
X21466Y2913
M30
