G75*
%MOIN*%
%OFA0B0*%
%FSLAX24Y24*%
%IPPOS*%
%LPD*%
%AMOC8*
5,1,8,0,0,1.08239X$1,22.5*
%
%ADD10C,0.0050*%
%ADD11C,0.1040*%
%ADD12R,0.0552X0.0631*%
%ADD13R,0.0552X0.0670*%
%ADD14R,0.0670X0.0552*%
%ADD15R,0.0512X0.0512*%
%ADD16OC8,0.0780*%
%ADD17R,0.0631X0.0552*%
%ADD18R,0.0555X0.0555*%
%ADD19C,0.0555*%
%ADD20R,0.0316X0.0709*%
%ADD21C,0.3583*%
%ADD22R,0.0946X0.0670*%
%ADD23R,0.0910X0.0280*%
%ADD24C,0.0640*%
%ADD25R,0.0240X0.0620*%
%ADD26R,0.0620X0.0240*%
D10*
X019910Y000968D02*
X019910Y005771D01*
X026384Y005771D01*
X026384Y000968D01*
X019910Y000968D01*
X019910Y001002D02*
X026384Y001002D01*
X026384Y001051D02*
X019910Y001051D01*
X019910Y001099D02*
X026384Y001099D01*
X026384Y001148D02*
X019910Y001148D01*
X019910Y001196D02*
X026384Y001196D01*
X026384Y001245D02*
X019910Y001245D01*
X019910Y001293D02*
X026384Y001293D01*
X026384Y001342D02*
X019910Y001342D01*
X019910Y001390D02*
X026384Y001390D01*
X026384Y001439D02*
X019910Y001439D01*
X019910Y001487D02*
X026384Y001487D01*
X026384Y001536D02*
X019910Y001536D01*
X019910Y001584D02*
X026384Y001584D01*
X026384Y001633D02*
X019910Y001633D01*
X019910Y001681D02*
X026384Y001681D01*
X026384Y001730D02*
X019910Y001730D01*
X019910Y001778D02*
X026384Y001778D01*
X026384Y001827D02*
X019910Y001827D01*
X019910Y001875D02*
X026384Y001875D01*
X026384Y001924D02*
X019910Y001924D01*
X019910Y001972D02*
X026384Y001972D01*
X026384Y002021D02*
X019910Y002021D01*
X019910Y002069D02*
X026384Y002069D01*
X026384Y002118D02*
X019910Y002118D01*
X019910Y002166D02*
X026384Y002166D01*
X026384Y002215D02*
X019910Y002215D01*
X019910Y002263D02*
X026384Y002263D01*
X026384Y002312D02*
X019910Y002312D01*
X019910Y002360D02*
X026384Y002360D01*
X026384Y002409D02*
X019910Y002409D01*
X019910Y002457D02*
X026384Y002457D01*
X026384Y002506D02*
X019910Y002506D01*
X019910Y002554D02*
X026384Y002554D01*
X026384Y002603D02*
X019910Y002603D01*
X019910Y002651D02*
X026384Y002651D01*
X026384Y002700D02*
X019910Y002700D01*
X019910Y002748D02*
X026384Y002748D01*
X026384Y002797D02*
X019910Y002797D01*
X019910Y002845D02*
X026384Y002845D01*
X026384Y002894D02*
X019910Y002894D01*
X019910Y002942D02*
X026384Y002942D01*
X026384Y002991D02*
X019910Y002991D01*
X019910Y003039D02*
X026384Y003039D01*
X026384Y003088D02*
X019910Y003088D01*
X019910Y003136D02*
X026384Y003136D01*
X026384Y003185D02*
X019910Y003185D01*
X019910Y003233D02*
X026384Y003233D01*
X026384Y003282D02*
X019910Y003282D01*
X019910Y003330D02*
X026384Y003330D01*
X026384Y003379D02*
X019910Y003379D01*
X019910Y003427D02*
X026384Y003427D01*
X026384Y003476D02*
X019910Y003476D01*
X019910Y003524D02*
X026384Y003524D01*
X026384Y003573D02*
X019910Y003573D01*
X019910Y003621D02*
X026384Y003621D01*
X026384Y003670D02*
X019910Y003670D01*
X019910Y003718D02*
X026384Y003718D01*
X026384Y003767D02*
X019910Y003767D01*
X019910Y003815D02*
X026384Y003815D01*
X026384Y003864D02*
X019910Y003864D01*
X019910Y003912D02*
X026384Y003912D01*
X026384Y003961D02*
X019910Y003961D01*
X019910Y004009D02*
X026384Y004009D01*
X026384Y004058D02*
X019910Y004058D01*
X019910Y004106D02*
X026384Y004106D01*
X026384Y004155D02*
X019910Y004155D01*
X019910Y004203D02*
X026384Y004203D01*
X026384Y004252D02*
X019910Y004252D01*
X019910Y004300D02*
X026384Y004300D01*
X026384Y004349D02*
X019910Y004349D01*
X019910Y004397D02*
X026384Y004397D01*
X026384Y004446D02*
X019910Y004446D01*
X019910Y004494D02*
X026384Y004494D01*
X026384Y004543D02*
X019910Y004543D01*
X019910Y004591D02*
X026384Y004591D01*
X026384Y004640D02*
X019910Y004640D01*
X019910Y004688D02*
X026384Y004688D01*
X026384Y004737D02*
X019910Y004737D01*
X019910Y004785D02*
X026384Y004785D01*
X026384Y004834D02*
X019910Y004834D01*
X019910Y004882D02*
X026384Y004882D01*
X026384Y004931D02*
X019910Y004931D01*
X019910Y004979D02*
X026384Y004979D01*
X026384Y005028D02*
X019910Y005028D01*
X019910Y005076D02*
X026384Y005076D01*
X026384Y005125D02*
X019910Y005125D01*
X019910Y005173D02*
X026384Y005173D01*
X026384Y005222D02*
X019910Y005222D01*
X019910Y005270D02*
X026384Y005270D01*
X026384Y005319D02*
X019910Y005319D01*
X019910Y005367D02*
X026384Y005367D01*
X026384Y005416D02*
X019910Y005416D01*
X019910Y005464D02*
X026384Y005464D01*
X026384Y005513D02*
X019910Y005513D01*
X019910Y005561D02*
X026384Y005561D01*
X026384Y005610D02*
X019910Y005610D01*
X019910Y005658D02*
X026384Y005658D01*
X026384Y005707D02*
X019910Y005707D01*
X019910Y005755D02*
X026384Y005755D01*
X026384Y006008D02*
X019910Y006008D01*
X019910Y010811D01*
X026384Y010811D01*
X026384Y006008D01*
X026384Y006046D02*
X019910Y006046D01*
X019910Y006095D02*
X026384Y006095D01*
X026384Y006143D02*
X019910Y006143D01*
X019910Y006192D02*
X026384Y006192D01*
X026384Y006240D02*
X019910Y006240D01*
X019910Y006289D02*
X026384Y006289D01*
X026384Y006337D02*
X019910Y006337D01*
X019910Y006386D02*
X026384Y006386D01*
X026384Y006434D02*
X019910Y006434D01*
X019910Y006483D02*
X026384Y006483D01*
X026384Y006531D02*
X019910Y006531D01*
X019910Y006580D02*
X026384Y006580D01*
X026384Y006628D02*
X019910Y006628D01*
X019910Y006677D02*
X026384Y006677D01*
X026384Y006725D02*
X019910Y006725D01*
X019910Y006774D02*
X026384Y006774D01*
X026384Y006822D02*
X019910Y006822D01*
X019910Y006871D02*
X026384Y006871D01*
X026384Y006919D02*
X019910Y006919D01*
X019910Y006968D02*
X026384Y006968D01*
X026384Y007016D02*
X019910Y007016D01*
X019910Y007065D02*
X026384Y007065D01*
X026384Y007113D02*
X019910Y007113D01*
X019910Y007162D02*
X026384Y007162D01*
X026384Y007210D02*
X019910Y007210D01*
X019910Y007259D02*
X026384Y007259D01*
X026384Y007307D02*
X019910Y007307D01*
X019910Y007356D02*
X026384Y007356D01*
X026384Y007404D02*
X019910Y007404D01*
X019910Y007453D02*
X026384Y007453D01*
X026384Y007501D02*
X019910Y007501D01*
X019910Y007550D02*
X026384Y007550D01*
X026384Y007598D02*
X019910Y007598D01*
X019910Y007647D02*
X026384Y007647D01*
X026384Y007695D02*
X019910Y007695D01*
X019910Y007744D02*
X026384Y007744D01*
X026384Y007792D02*
X019910Y007792D01*
X019910Y007841D02*
X026384Y007841D01*
X026384Y007889D02*
X019910Y007889D01*
X019910Y007938D02*
X026384Y007938D01*
X026384Y007986D02*
X019910Y007986D01*
X019910Y008035D02*
X026384Y008035D01*
X026384Y008083D02*
X019910Y008083D01*
X019910Y008132D02*
X026384Y008132D01*
X026384Y008180D02*
X019910Y008180D01*
X019910Y008229D02*
X026384Y008229D01*
X026384Y008277D02*
X019910Y008277D01*
X019910Y008326D02*
X026384Y008326D01*
X026384Y008374D02*
X019910Y008374D01*
X019910Y008423D02*
X026384Y008423D01*
X026384Y008471D02*
X019910Y008471D01*
X019910Y008520D02*
X026384Y008520D01*
X026384Y008568D02*
X019910Y008568D01*
X019910Y008617D02*
X026384Y008617D01*
X026384Y008665D02*
X019910Y008665D01*
X019910Y008714D02*
X026384Y008714D01*
X026384Y008762D02*
X019910Y008762D01*
X019910Y008811D02*
X026384Y008811D01*
X026384Y008859D02*
X019910Y008859D01*
X019910Y008908D02*
X026384Y008908D01*
X026384Y008956D02*
X019910Y008956D01*
X019910Y009005D02*
X026384Y009005D01*
X026384Y009053D02*
X019910Y009053D01*
X019910Y009102D02*
X026384Y009102D01*
X026384Y009150D02*
X019910Y009150D01*
X019910Y009199D02*
X026384Y009199D01*
X026384Y009247D02*
X019910Y009247D01*
X019910Y009296D02*
X026384Y009296D01*
X026384Y009344D02*
X019910Y009344D01*
X019910Y009393D02*
X026384Y009393D01*
X026384Y009441D02*
X019910Y009441D01*
X019910Y009490D02*
X026384Y009490D01*
X026384Y009538D02*
X019910Y009538D01*
X019910Y009587D02*
X026384Y009587D01*
X026384Y009635D02*
X019910Y009635D01*
X019910Y009684D02*
X026384Y009684D01*
X026384Y009732D02*
X019910Y009732D01*
X019910Y009781D02*
X026384Y009781D01*
X026384Y009829D02*
X019910Y009829D01*
X019910Y009878D02*
X026384Y009878D01*
X026384Y009926D02*
X019910Y009926D01*
X019910Y009975D02*
X026384Y009975D01*
X026384Y010023D02*
X019910Y010023D01*
X019910Y010072D02*
X026384Y010072D01*
X026384Y010120D02*
X019910Y010120D01*
X019910Y010169D02*
X026384Y010169D01*
X026384Y010217D02*
X019910Y010217D01*
X019910Y010266D02*
X026384Y010266D01*
X026384Y010314D02*
X019910Y010314D01*
X019910Y010363D02*
X026384Y010363D01*
X026384Y010411D02*
X019910Y010411D01*
X019910Y010460D02*
X026384Y010460D01*
X026384Y010508D02*
X019910Y010508D01*
X019910Y010557D02*
X026384Y010557D01*
X026384Y010605D02*
X019910Y010605D01*
X019910Y010654D02*
X026384Y010654D01*
X026384Y010702D02*
X019910Y010702D01*
X019910Y010751D02*
X026384Y010751D01*
X026384Y010799D02*
X019910Y010799D01*
D11*
X018947Y009999D03*
X018718Y001133D03*
D12*
X012542Y003933D03*
X011794Y003933D03*
X011794Y004783D03*
X012542Y004783D03*
X012492Y005633D03*
X011744Y005633D03*
X010792Y005133D03*
X010044Y005133D03*
X014494Y005333D03*
X015242Y005333D03*
X016181Y006453D03*
X016929Y006453D03*
D13*
X016972Y005665D03*
X016184Y005665D03*
X010808Y004070D03*
X010020Y004070D03*
D14*
X009821Y009368D03*
X009821Y010155D03*
D15*
X009755Y002933D03*
X010581Y002933D03*
X011755Y002933D03*
X012581Y002933D03*
D16*
X004918Y001933D03*
X005918Y001933D03*
X006918Y001933D03*
X006918Y002933D03*
X005918Y002933D03*
X004918Y002933D03*
D17*
X010949Y009459D03*
X010949Y010207D03*
D18*
X007468Y005401D03*
D19*
X007468Y006189D03*
X007468Y006976D03*
X007468Y007764D03*
D20*
X014395Y004133D03*
X014868Y004133D03*
X015340Y004133D03*
D21*
X022866Y002937D03*
X022866Y008842D03*
D22*
X016508Y001633D03*
X014028Y001633D03*
D23*
X018832Y005136D03*
X018832Y005636D03*
X018832Y006136D03*
X018832Y006636D03*
X020892Y006636D03*
X020892Y006136D03*
X020892Y005636D03*
X020892Y005136D03*
D24*
X008539Y009499D02*
X007939Y009499D01*
X007939Y010499D02*
X008539Y010499D01*
D25*
X012868Y010203D03*
X013178Y010203D03*
X013498Y010203D03*
X013808Y010203D03*
X014128Y010203D03*
X014438Y010203D03*
X014758Y010203D03*
X015068Y010203D03*
X015068Y006963D03*
X014758Y006963D03*
X014438Y006963D03*
X014128Y006963D03*
X013808Y006963D03*
X013498Y006963D03*
X013178Y006963D03*
X012868Y006963D03*
D26*
X012348Y007483D03*
X012348Y007793D03*
X012348Y008113D03*
X012348Y008423D03*
X012348Y008743D03*
X012348Y009053D03*
X012348Y009373D03*
X012348Y009683D03*
X015588Y009683D03*
X015588Y009373D03*
X015588Y009053D03*
X015588Y008743D03*
X015588Y008423D03*
X015588Y008113D03*
X015588Y007793D03*
X015588Y007483D03*
M02*
