%
M48
M72
T01C0.0157
T02C0.0197
T03C0.0236
T04C0.0315
T05C0.0400
T06C0.1000
T07C0.1772
%
T01
X24637Y6283
X23850Y6283
X23062Y6283
X23653Y6874
X24440Y7268
X21684Y5299
X22425Y5346
X23012Y5246
X23950Y5346
X24787Y5346
X25787Y5246
X25137Y3996
X24955Y2802
X25937Y1896
X25637Y3496
X25937Y2746
X24690Y4612
X25428Y4605
X26053Y4255
X21291Y4512
X20306Y4315
X20306Y3527
X20897Y3724
X20556Y5165
X20306Y2740
X20306Y1953
X21291Y1362
X21881Y1953
X21488Y2937
X21881Y3921
X22866Y4315
X23850Y3921
X24243Y2937
X22866Y1559
X20306Y10614
X20941Y10567
X20306Y9827
X20647Y9480
X20847Y10080
X20306Y9039
X20897Y8055
X20306Y8252
X20306Y7464
X21291Y7268
X21881Y7858
X22078Y6874
X21684Y6480
X22275Y6283
X22866Y7464
X21488Y8842
X21881Y9827
X22866Y10220
X23850Y9827
X24243Y8842
X23850Y7858
X24637Y10614
X25637Y10114
X25137Y9114
X25137Y8114
X25187Y7064
X25837Y6514
X25887Y7614
X25937Y8714
T02
X17418Y5933
X17468Y7083
X14118Y8083
X14118Y6033
X7518Y4533
X17218Y10083
X13268Y1333
X16418Y9683
X16768Y9383
X8568Y983
X6718Y7033
X12918Y6033
X11618Y8483
X4968Y4083
X11368Y1583
X15768Y6933
X14968Y7583
X10268Y6683
X12418Y10833
X11018Y8633
X13068Y4783
X13368Y8483
X9068Y3433
X9468Y4083
T03
X13318Y2433
X11668Y2083
X10668Y3483
X4268Y3483
X13968Y10933
X19518Y5583
T04
X7468Y5401
X7468Y6189
X7468Y6976
X7468Y7764
T05
X6918Y2933
X6918Y1933
X5918Y2933
X5918Y1933
X4918Y2933
X4918Y1933
X8239Y9499
X8239Y10499
T06
X18718Y1133
X18947Y9999
T07
X22866Y8842
X22866Y2937
M30
