G75*
%MOIN*%
%OFA0B0*%
%FSLAX24Y24*%
%IPPOS*%
%LPD*%
%AMOC8*
5,1,8,0,0,1.08239X$1,22.5*
%
%ADD10C,0.0050*%
%ADD11C,0.0051*%
%ADD12C,0.0060*%
%ADD13R,0.0512X0.0591*%
%ADD14R,0.0512X0.0630*%
%ADD15R,0.0630X0.0512*%
%ADD16R,0.0472X0.0472*%
%ADD17OC8,0.0740*%
%ADD18R,0.0591X0.0512*%
%ADD19R,0.0515X0.0515*%
%ADD20C,0.0515*%
%ADD21R,0.0276X0.0669*%
%ADD22C,0.3543*%
%ADD23R,0.0906X0.0630*%
%ADD24R,0.0870X0.0240*%
%ADD25C,0.0600*%
%ADD26R,0.0200X0.0580*%
%ADD27R,0.0580X0.0200*%
%ADD28C,0.0100*%
%ADD29C,0.0160*%
%ADD30C,0.0317*%
%ADD31C,0.0356*%
%ADD32C,0.0120*%
%ADD33C,0.0277*%
D10*
X019910Y000968D02*
X019910Y005771D01*
X026384Y005771D01*
X026384Y000968D01*
X019910Y000968D01*
X019910Y001002D02*
X026384Y001002D01*
X026384Y001051D02*
X019910Y001051D01*
X019910Y001099D02*
X026384Y001099D01*
X026384Y001148D02*
X019910Y001148D01*
X019910Y001196D02*
X026384Y001196D01*
X026384Y001245D02*
X019910Y001245D01*
X019910Y001293D02*
X026384Y001293D01*
X026384Y001342D02*
X019910Y001342D01*
X019910Y001390D02*
X026384Y001390D01*
X026384Y001439D02*
X019910Y001439D01*
X019910Y001487D02*
X026384Y001487D01*
X026384Y001536D02*
X019910Y001536D01*
X019910Y001584D02*
X026384Y001584D01*
X026384Y001633D02*
X019910Y001633D01*
X019910Y001681D02*
X026384Y001681D01*
X026384Y001730D02*
X019910Y001730D01*
X019910Y001778D02*
X026384Y001778D01*
X026384Y001827D02*
X019910Y001827D01*
X019910Y001875D02*
X026384Y001875D01*
X026384Y001924D02*
X019910Y001924D01*
X019910Y001972D02*
X026384Y001972D01*
X026384Y002021D02*
X019910Y002021D01*
X019910Y002069D02*
X026384Y002069D01*
X026384Y002118D02*
X019910Y002118D01*
X019910Y002166D02*
X026384Y002166D01*
X026384Y002215D02*
X019910Y002215D01*
X019910Y002263D02*
X026384Y002263D01*
X026384Y002312D02*
X019910Y002312D01*
X019910Y002360D02*
X026384Y002360D01*
X026384Y002409D02*
X019910Y002409D01*
X019910Y002457D02*
X026384Y002457D01*
X026384Y002506D02*
X019910Y002506D01*
X019910Y002554D02*
X026384Y002554D01*
X026384Y002603D02*
X019910Y002603D01*
X019910Y002651D02*
X026384Y002651D01*
X026384Y002700D02*
X019910Y002700D01*
X019910Y002748D02*
X026384Y002748D01*
X026384Y002797D02*
X019910Y002797D01*
X019910Y002845D02*
X026384Y002845D01*
X026384Y002894D02*
X019910Y002894D01*
X019910Y002942D02*
X026384Y002942D01*
X026384Y002991D02*
X019910Y002991D01*
X019910Y003039D02*
X026384Y003039D01*
X026384Y003088D02*
X019910Y003088D01*
X019910Y003136D02*
X026384Y003136D01*
X026384Y003185D02*
X019910Y003185D01*
X019910Y003233D02*
X026384Y003233D01*
X026384Y003282D02*
X019910Y003282D01*
X019910Y003330D02*
X026384Y003330D01*
X026384Y003379D02*
X019910Y003379D01*
X019910Y003427D02*
X026384Y003427D01*
X026384Y003476D02*
X019910Y003476D01*
X019910Y003524D02*
X026384Y003524D01*
X026384Y003573D02*
X019910Y003573D01*
X019910Y003621D02*
X026384Y003621D01*
X026384Y003670D02*
X019910Y003670D01*
X019910Y003718D02*
X026384Y003718D01*
X026384Y003767D02*
X019910Y003767D01*
X019910Y003815D02*
X026384Y003815D01*
X026384Y003864D02*
X019910Y003864D01*
X019910Y003912D02*
X026384Y003912D01*
X026384Y003961D02*
X019910Y003961D01*
X019910Y004009D02*
X026384Y004009D01*
X026384Y004058D02*
X019910Y004058D01*
X019910Y004106D02*
X026384Y004106D01*
X026384Y004155D02*
X019910Y004155D01*
X019910Y004203D02*
X026384Y004203D01*
X026384Y004252D02*
X019910Y004252D01*
X019910Y004300D02*
X026384Y004300D01*
X026384Y004349D02*
X019910Y004349D01*
X019910Y004397D02*
X026384Y004397D01*
X026384Y004446D02*
X019910Y004446D01*
X019910Y004494D02*
X026384Y004494D01*
X026384Y004543D02*
X019910Y004543D01*
X019910Y004591D02*
X026384Y004591D01*
X026384Y004640D02*
X019910Y004640D01*
X019910Y004688D02*
X026384Y004688D01*
X026384Y004737D02*
X019910Y004737D01*
X019910Y004785D02*
X026384Y004785D01*
X026384Y004834D02*
X019910Y004834D01*
X019910Y004882D02*
X026384Y004882D01*
X026384Y004931D02*
X019910Y004931D01*
X019910Y004979D02*
X026384Y004979D01*
X026384Y005028D02*
X019910Y005028D01*
X019910Y005076D02*
X026384Y005076D01*
X026384Y005125D02*
X019910Y005125D01*
X019910Y005173D02*
X026384Y005173D01*
X026384Y005222D02*
X019910Y005222D01*
X019910Y005270D02*
X026384Y005270D01*
X026384Y005319D02*
X019910Y005319D01*
X019910Y005367D02*
X026384Y005367D01*
X026384Y005416D02*
X019910Y005416D01*
X019910Y005464D02*
X026384Y005464D01*
X026384Y005513D02*
X019910Y005513D01*
X019910Y005561D02*
X026384Y005561D01*
X026384Y005610D02*
X019910Y005610D01*
X019910Y005658D02*
X026384Y005658D01*
X026384Y005707D02*
X019910Y005707D01*
X019910Y005755D02*
X026384Y005755D01*
X026384Y006008D02*
X019910Y006008D01*
X019910Y010811D01*
X026384Y010811D01*
X026384Y006008D01*
X026384Y006046D02*
X019910Y006046D01*
X019910Y006095D02*
X026384Y006095D01*
X026384Y006143D02*
X019910Y006143D01*
X019910Y006192D02*
X026384Y006192D01*
X026384Y006240D02*
X019910Y006240D01*
X019910Y006289D02*
X026384Y006289D01*
X026384Y006337D02*
X019910Y006337D01*
X019910Y006386D02*
X026384Y006386D01*
X026384Y006434D02*
X019910Y006434D01*
X019910Y006483D02*
X026384Y006483D01*
X026384Y006531D02*
X019910Y006531D01*
X019910Y006580D02*
X026384Y006580D01*
X026384Y006628D02*
X019910Y006628D01*
X019910Y006677D02*
X026384Y006677D01*
X026384Y006725D02*
X019910Y006725D01*
X019910Y006774D02*
X026384Y006774D01*
X026384Y006822D02*
X019910Y006822D01*
X019910Y006871D02*
X026384Y006871D01*
X026384Y006919D02*
X019910Y006919D01*
X019910Y006968D02*
X026384Y006968D01*
X026384Y007016D02*
X019910Y007016D01*
X019910Y007065D02*
X026384Y007065D01*
X026384Y007113D02*
X019910Y007113D01*
X019910Y007162D02*
X026384Y007162D01*
X026384Y007210D02*
X019910Y007210D01*
X019910Y007259D02*
X026384Y007259D01*
X026384Y007307D02*
X019910Y007307D01*
X019910Y007356D02*
X026384Y007356D01*
X026384Y007404D02*
X019910Y007404D01*
X019910Y007453D02*
X026384Y007453D01*
X026384Y007501D02*
X019910Y007501D01*
X019910Y007550D02*
X026384Y007550D01*
X026384Y007598D02*
X019910Y007598D01*
X019910Y007647D02*
X026384Y007647D01*
X026384Y007695D02*
X019910Y007695D01*
X019910Y007744D02*
X026384Y007744D01*
X026384Y007792D02*
X019910Y007792D01*
X019910Y007841D02*
X026384Y007841D01*
X026384Y007889D02*
X019910Y007889D01*
X019910Y007938D02*
X026384Y007938D01*
X026384Y007986D02*
X019910Y007986D01*
X019910Y008035D02*
X026384Y008035D01*
X026384Y008083D02*
X019910Y008083D01*
X019910Y008132D02*
X026384Y008132D01*
X026384Y008180D02*
X019910Y008180D01*
X019910Y008229D02*
X026384Y008229D01*
X026384Y008277D02*
X019910Y008277D01*
X019910Y008326D02*
X026384Y008326D01*
X026384Y008374D02*
X019910Y008374D01*
X019910Y008423D02*
X026384Y008423D01*
X026384Y008471D02*
X019910Y008471D01*
X019910Y008520D02*
X026384Y008520D01*
X026384Y008568D02*
X019910Y008568D01*
X019910Y008617D02*
X026384Y008617D01*
X026384Y008665D02*
X019910Y008665D01*
X019910Y008714D02*
X026384Y008714D01*
X026384Y008762D02*
X019910Y008762D01*
X019910Y008811D02*
X026384Y008811D01*
X026384Y008859D02*
X019910Y008859D01*
X019910Y008908D02*
X026384Y008908D01*
X026384Y008956D02*
X019910Y008956D01*
X019910Y009005D02*
X026384Y009005D01*
X026384Y009053D02*
X019910Y009053D01*
X019910Y009102D02*
X026384Y009102D01*
X026384Y009150D02*
X019910Y009150D01*
X019910Y009199D02*
X026384Y009199D01*
X026384Y009247D02*
X019910Y009247D01*
X019910Y009296D02*
X026384Y009296D01*
X026384Y009344D02*
X019910Y009344D01*
X019910Y009393D02*
X026384Y009393D01*
X026384Y009441D02*
X019910Y009441D01*
X019910Y009490D02*
X026384Y009490D01*
X026384Y009538D02*
X019910Y009538D01*
X019910Y009587D02*
X026384Y009587D01*
X026384Y009635D02*
X019910Y009635D01*
X019910Y009684D02*
X026384Y009684D01*
X026384Y009732D02*
X019910Y009732D01*
X019910Y009781D02*
X026384Y009781D01*
X026384Y009829D02*
X019910Y009829D01*
X019910Y009878D02*
X026384Y009878D01*
X026384Y009926D02*
X019910Y009926D01*
X019910Y009975D02*
X026384Y009975D01*
X026384Y010023D02*
X019910Y010023D01*
X019910Y010072D02*
X026384Y010072D01*
X026384Y010120D02*
X019910Y010120D01*
X019910Y010169D02*
X026384Y010169D01*
X026384Y010217D02*
X019910Y010217D01*
X019910Y010266D02*
X026384Y010266D01*
X026384Y010314D02*
X019910Y010314D01*
X019910Y010363D02*
X026384Y010363D01*
X026384Y010411D02*
X019910Y010411D01*
X019910Y010460D02*
X026384Y010460D01*
X026384Y010508D02*
X019910Y010508D01*
X019910Y010557D02*
X026384Y010557D01*
X026384Y010605D02*
X019910Y010605D01*
X019910Y010654D02*
X026384Y010654D01*
X026384Y010702D02*
X019910Y010702D01*
X019910Y010751D02*
X026384Y010751D01*
X026384Y010799D02*
X019910Y010799D01*
D11*
X025955Y013442D02*
X026954Y013565D01*
X025955Y013466D01*
X025955Y013442D02*
X025956Y013694D01*
X026954Y013565D01*
X025956Y013670D01*
X025956Y013619D02*
X026954Y013565D01*
X025955Y013517D01*
X026954Y013565D02*
X003955Y013639D01*
X004952Y013533D01*
X004952Y013510D02*
X003955Y013639D01*
X004953Y013738D01*
X004953Y013761D02*
X004952Y013510D01*
X004953Y013584D02*
X003955Y013639D01*
X004953Y013687D01*
X004953Y013761D02*
X003955Y013639D01*
X003932Y014407D02*
X003918Y010157D01*
X026122Y000133D02*
X029211Y000126D01*
X028443Y000153D02*
X028548Y001151D01*
X028571Y001151D02*
X028443Y000153D01*
X028343Y001151D01*
X028320Y001151D02*
X028571Y001151D01*
X028497Y001151D02*
X028443Y000153D01*
X028394Y001151D01*
X028320Y001151D02*
X028443Y000153D01*
X028469Y011598D01*
X028569Y010600D01*
X028593Y010599D02*
X028469Y011598D01*
X028364Y010600D01*
X028341Y010600D02*
X028593Y010599D01*
X028518Y010600D02*
X028469Y011598D01*
X028416Y010600D01*
X028341Y010600D02*
X028469Y011598D01*
X029237Y011622D02*
X026148Y011629D01*
X026968Y010083D02*
X026982Y014333D01*
D12*
X016914Y014493D02*
X016487Y014495D01*
X016486Y014174D01*
X016700Y014280D01*
X016806Y014280D01*
X016913Y014173D01*
X016912Y013959D01*
X016805Y013853D01*
X016591Y013854D01*
X016485Y013961D01*
X016267Y013962D02*
X016160Y013855D01*
X015947Y013856D01*
X015840Y013963D01*
X015841Y014177D02*
X016055Y014283D01*
X016162Y014282D01*
X016268Y014175D01*
X016267Y013962D01*
X015841Y014177D02*
X015842Y014497D01*
X016269Y014495D01*
X015625Y013964D02*
X015518Y013964D01*
X015518Y013857D01*
X015624Y013857D01*
X015625Y013964D01*
X015301Y013965D02*
X015193Y013859D01*
X014980Y013859D01*
X014874Y013966D01*
X014874Y014073D01*
X014981Y014180D01*
X015195Y014179D01*
X015301Y014072D01*
X015301Y013965D01*
X015195Y014179D02*
X015302Y014285D01*
X015302Y014392D01*
X015196Y014499D01*
X014982Y014500D01*
X014875Y014393D01*
X014875Y014287D01*
X014981Y014180D01*
X014657Y014181D02*
X014656Y013967D01*
X014549Y013861D01*
X014335Y013862D01*
X014229Y013969D01*
X014230Y014182D02*
X014444Y014288D01*
X014550Y014288D01*
X014657Y014181D01*
X014230Y014182D02*
X014231Y014503D01*
X014658Y014501D01*
X027561Y006862D02*
X027560Y006648D01*
X027667Y006541D01*
X028094Y006325D02*
X028200Y006325D01*
X028200Y006218D01*
X028093Y006218D01*
X028094Y006325D01*
X028201Y006540D02*
X027774Y006968D01*
X027668Y006968D01*
X027561Y006862D01*
X028201Y006967D02*
X028201Y006540D01*
X028093Y006001D02*
X027666Y006001D01*
X027559Y005895D01*
X027559Y005681D01*
X027665Y005574D01*
X027772Y005574D01*
X027879Y005681D01*
X027880Y006001D01*
X028093Y006001D02*
X028200Y005894D01*
X028199Y005680D01*
X028092Y005574D01*
X028199Y005356D02*
X028198Y004929D01*
X027772Y005357D01*
X027665Y005357D01*
X027558Y005250D01*
X027558Y005037D01*
X027664Y004930D01*
D13*
X016929Y006453D03*
X016181Y006453D03*
X015242Y005333D03*
X014494Y005333D03*
X012492Y005633D03*
X011744Y005633D03*
X010792Y005133D03*
X010044Y005133D03*
X011794Y004783D03*
X012542Y004783D03*
X012542Y003933D03*
X011794Y003933D03*
D14*
X010808Y004070D03*
X010020Y004070D03*
X016184Y005665D03*
X016972Y005665D03*
D15*
X009821Y009368D03*
X009821Y010155D03*
D16*
X009755Y002933D03*
X010581Y002933D03*
X011755Y002933D03*
X012581Y002933D03*
D17*
X006918Y002933D03*
X005918Y002933D03*
X004918Y002933D03*
X004918Y001933D03*
X005918Y001933D03*
X006918Y001933D03*
D18*
X010949Y009459D03*
X010949Y010207D03*
D19*
X007468Y005401D03*
D20*
X007468Y006189D03*
X007468Y006976D03*
X007468Y007764D03*
D21*
X014395Y004133D03*
X014868Y004133D03*
X015340Y004133D03*
D22*
X022866Y002937D03*
X022866Y008842D03*
D23*
X016508Y001633D03*
X014028Y001633D03*
D24*
X018832Y005136D03*
X018832Y005636D03*
X018832Y006136D03*
X018832Y006636D03*
X020892Y006636D03*
X020892Y006136D03*
X020892Y005636D03*
X020892Y005136D03*
D25*
X008539Y009499D02*
X007939Y009499D01*
X007939Y010499D02*
X008539Y010499D01*
D26*
X012868Y010203D03*
X013178Y010203D03*
X013498Y010203D03*
X013808Y010203D03*
X014128Y010203D03*
X014438Y010203D03*
X014758Y010203D03*
X015068Y010203D03*
X015068Y006963D03*
X014758Y006963D03*
X014438Y006963D03*
X014128Y006963D03*
X013808Y006963D03*
X013498Y006963D03*
X013178Y006963D03*
X012868Y006963D03*
D27*
X012348Y007483D03*
X012348Y007793D03*
X012348Y008113D03*
X012348Y008423D03*
X012348Y008743D03*
X012348Y009053D03*
X012348Y009373D03*
X012348Y009683D03*
X015588Y009683D03*
X015588Y009373D03*
X015588Y009053D03*
X015588Y008743D03*
X015588Y008423D03*
X015588Y008113D03*
X015588Y007793D03*
X015588Y007483D03*
D28*
X004118Y003213D02*
X004118Y000624D01*
X004149Y000543D01*
X004235Y000433D01*
X018858Y000433D01*
X018858Y000487D01*
X018847Y000483D01*
X018589Y000483D01*
X018350Y000581D01*
X018167Y000764D01*
X018068Y001003D01*
X018068Y001262D01*
X018167Y001501D01*
X018350Y001684D01*
X018589Y001783D01*
X018847Y001783D01*
X018858Y001778D01*
X018858Y004874D01*
X018834Y004874D01*
X016556Y004826D01*
X016554Y004824D01*
X016470Y004824D01*
X016386Y004822D01*
X016384Y004824D01*
X016381Y004824D01*
X016322Y004883D01*
X016261Y004942D01*
X016261Y004944D01*
X016080Y005125D01*
X016023Y005169D01*
X016021Y005185D01*
X016009Y005196D01*
X016009Y005221D01*
X015875Y005221D01*
X015800Y005297D01*
X015800Y006033D01*
X015833Y006067D01*
X015796Y006104D01*
X015796Y006609D01*
X015760Y006645D01*
X015711Y006645D01*
X015605Y006689D01*
X015524Y006770D01*
X015481Y006875D01*
X015481Y006990D01*
X015524Y007095D01*
X015605Y007176D01*
X015711Y007220D01*
X015825Y007220D01*
X015931Y007176D01*
X016011Y007095D01*
X016055Y006990D01*
X016055Y006941D01*
X016119Y006877D01*
X016490Y006877D01*
X016555Y006812D01*
X016619Y006877D01*
X017238Y006877D01*
X017313Y006801D01*
X017313Y006661D01*
X017684Y006661D01*
X018054Y006291D01*
X018268Y006291D01*
X018268Y006309D01*
X018336Y006377D01*
X018305Y006396D01*
X018277Y006424D01*
X018257Y006458D01*
X018247Y006496D01*
X018247Y006626D01*
X018822Y006626D01*
X018822Y006646D01*
X018822Y006906D01*
X018377Y006906D01*
X018339Y006895D01*
X018305Y006876D01*
X018277Y006848D01*
X018257Y006814D01*
X018247Y006775D01*
X018247Y006646D01*
X018822Y006646D01*
X018842Y006646D01*
X018842Y006906D01*
X018858Y006906D01*
X018858Y009349D01*
X018817Y009349D01*
X018578Y009448D01*
X018396Y009631D01*
X018297Y009870D01*
X018297Y010129D01*
X018396Y010368D01*
X018578Y010550D01*
X018817Y010649D01*
X018858Y010649D01*
X018858Y011083D01*
X014238Y011083D01*
X014275Y010994D01*
X014275Y010871D01*
X014228Y010759D01*
X014142Y010672D01*
X014029Y010626D01*
X013977Y010626D01*
X013985Y010621D01*
X014281Y010621D01*
X014283Y010620D01*
X014285Y010621D01*
X014591Y010621D01*
X014598Y010615D01*
X014605Y010621D01*
X014911Y010621D01*
X014913Y010620D01*
X014915Y010621D01*
X015221Y010621D01*
X015297Y010546D01*
X015297Y010291D01*
X017021Y010291D01*
X017055Y010326D01*
X017161Y010370D01*
X017275Y010370D01*
X017381Y010326D01*
X017461Y010245D01*
X017505Y010140D01*
X017505Y010025D01*
X017461Y009920D01*
X017381Y009839D01*
X017275Y009795D01*
X017161Y009795D01*
X017055Y009839D01*
X017021Y009874D01*
X016633Y009874D01*
X016661Y009845D01*
X016705Y009740D01*
X016705Y009667D01*
X016711Y009670D01*
X016825Y009670D01*
X016931Y009626D01*
X017011Y009545D01*
X017055Y009440D01*
X017055Y009325D01*
X017011Y009220D01*
X016931Y009139D01*
X016825Y009095D01*
X016711Y009095D01*
X016605Y009139D01*
X016571Y009174D01*
X016007Y009174D01*
X016007Y008899D01*
X016005Y008898D01*
X016007Y008896D01*
X016007Y008589D01*
X016000Y008583D01*
X016007Y008576D01*
X016007Y008269D01*
X016005Y008268D01*
X016007Y008266D01*
X016007Y007959D01*
X016000Y007953D01*
X016007Y007946D01*
X016007Y007639D01*
X016005Y007638D01*
X016007Y007636D01*
X016007Y007329D01*
X015931Y007254D01*
X015297Y007254D01*
X015297Y007029D01*
X015451Y006875D01*
X015451Y005757D01*
X015551Y005757D01*
X015627Y005681D01*
X015627Y004984D01*
X015551Y004909D01*
X015549Y004909D01*
X015549Y004578D01*
X015607Y004520D01*
X015607Y003745D01*
X015531Y003669D01*
X015149Y003669D01*
X015119Y003699D01*
X015098Y003678D01*
X015064Y003658D01*
X015025Y003648D01*
X014887Y003648D01*
X014887Y004114D01*
X014849Y004114D01*
X014849Y003648D01*
X014710Y003648D01*
X014672Y003658D01*
X014638Y003678D01*
X014617Y003699D01*
X014587Y003669D01*
X014204Y003669D01*
X014129Y003745D01*
X014129Y004520D01*
X014187Y004578D01*
X014187Y004909D01*
X014185Y004909D01*
X014109Y004984D01*
X014109Y005681D01*
X014185Y005757D01*
X014285Y005757D01*
X014285Y006145D01*
X014559Y006419D01*
X014559Y006544D01*
X014305Y006544D01*
X014286Y006533D01*
X014248Y006523D01*
X014128Y006523D01*
X014128Y006963D01*
X014128Y006963D01*
X014128Y006523D01*
X014008Y006523D01*
X014004Y006524D01*
X013604Y006124D01*
X013191Y006124D01*
X013205Y006090D01*
X013205Y005975D01*
X013161Y005870D01*
X013133Y005841D01*
X013253Y005841D01*
X013324Y005851D01*
X013337Y005841D01*
X013354Y005841D01*
X013405Y005791D01*
X013537Y005691D01*
X013554Y005691D01*
X013605Y005641D01*
X013662Y005598D01*
X013665Y005581D01*
X013677Y005569D01*
X013677Y005497D01*
X013687Y005426D01*
X013677Y005413D01*
X013677Y003669D01*
X014177Y003169D01*
X014177Y002076D01*
X014534Y002076D01*
X014609Y002001D01*
X014609Y001264D01*
X014534Y001189D01*
X013522Y001189D01*
X013520Y001191D01*
X013511Y001170D01*
X013431Y001089D01*
X013325Y001045D01*
X013211Y001045D01*
X013115Y001085D01*
X013104Y001074D01*
X013039Y001074D01*
X012974Y001061D01*
X012955Y001074D01*
X008841Y001074D01*
X008855Y001040D01*
X008855Y000925D01*
X008811Y000820D01*
X008731Y000739D01*
X008625Y000695D01*
X008511Y000695D01*
X008405Y000739D01*
X008324Y000820D01*
X008281Y000925D01*
X008281Y000950D01*
X008192Y001024D01*
X006431Y001024D01*
X006374Y001081D01*
X006364Y001082D01*
X006314Y001141D01*
X006259Y001196D01*
X006259Y001206D01*
X006066Y001434D01*
X005711Y001434D01*
X005433Y001712D01*
X005133Y001413D01*
X004968Y001413D01*
X004968Y001883D01*
X004868Y001883D01*
X004398Y001883D01*
X004398Y001717D01*
X004703Y001413D01*
X004868Y001413D01*
X004868Y001883D01*
X004868Y001983D01*
X004398Y001983D01*
X004398Y002148D01*
X004698Y002448D01*
X004419Y002726D01*
X004419Y003139D01*
X004711Y003431D01*
X004759Y003431D01*
X004759Y003885D01*
X004724Y003920D01*
X004681Y004025D01*
X004663Y004025D01*
X004681Y004025D02*
X004681Y004043D01*
X004447Y003808D01*
X004447Y003738D01*
X004528Y003656D01*
X004575Y003544D01*
X004575Y003421D01*
X004528Y003309D01*
X004442Y003222D01*
X004329Y003176D01*
X004207Y003176D01*
X004118Y003213D01*
X004118Y003138D02*
X004419Y003138D01*
X004419Y003040D02*
X004118Y003040D01*
X004118Y002941D02*
X004419Y002941D01*
X004419Y002843D02*
X004118Y002843D01*
X004118Y002744D02*
X004419Y002744D01*
X004500Y002646D02*
X004118Y002646D01*
X004118Y002547D02*
X004598Y002547D01*
X004697Y002449D02*
X004118Y002449D01*
X004118Y002350D02*
X004600Y002350D01*
X004502Y002252D02*
X004118Y002252D01*
X004118Y002153D02*
X004403Y002153D01*
X004398Y002055D02*
X004118Y002055D01*
X004118Y001956D02*
X004868Y001956D01*
X004868Y001858D02*
X004968Y001858D01*
X004968Y001759D02*
X004868Y001759D01*
X004868Y001661D02*
X004968Y001661D01*
X004968Y001562D02*
X004868Y001562D01*
X004868Y001464D02*
X004968Y001464D01*
X005184Y001464D02*
X005682Y001464D01*
X005583Y001562D02*
X005283Y001562D01*
X005381Y001661D02*
X005485Y001661D01*
X006125Y001365D02*
X004118Y001365D01*
X004118Y001267D02*
X006208Y001267D01*
X006287Y001168D02*
X004118Y001168D01*
X004118Y001070D02*
X006386Y001070D01*
X006607Y001441D02*
X006389Y001699D01*
X006417Y001726D01*
X006417Y002139D01*
X006124Y002431D01*
X005711Y002431D01*
X005433Y002153D01*
X005433Y002153D01*
X005138Y002448D01*
X005417Y002726D01*
X005417Y003139D01*
X005177Y003379D01*
X005177Y003885D01*
X005211Y003920D01*
X005255Y004025D01*
X005255Y004140D01*
X005211Y004245D01*
X005131Y004326D01*
X005025Y004370D01*
X005008Y004370D01*
X005042Y004404D01*
X007260Y004404D01*
X007274Y004370D01*
X007355Y004289D01*
X007461Y004245D01*
X007575Y004245D01*
X007681Y004289D01*
X007761Y004370D01*
X007805Y004475D01*
X007805Y004524D01*
X008754Y005474D01*
X009631Y005474D01*
X009659Y005446D01*
X009659Y004784D01*
X009735Y004709D01*
X010353Y004709D01*
X010418Y004773D01*
X010483Y004709D01*
X011059Y004709D01*
X011059Y004535D01*
X010858Y004535D01*
X010858Y004120D01*
X011059Y004120D01*
X011059Y004020D01*
X010858Y004020D01*
X010858Y004120D01*
X010758Y004120D01*
X010758Y004535D01*
X010532Y004535D01*
X010494Y004525D01*
X010460Y004505D01*
X010432Y004477D01*
X010412Y004443D01*
X010405Y004416D01*
X010405Y004438D01*
X010330Y004514D01*
X009711Y004514D01*
X009636Y004438D01*
X009636Y004321D01*
X009631Y004326D01*
X009525Y004370D01*
X009411Y004370D01*
X009305Y004326D01*
X009224Y004245D01*
X009181Y004140D01*
X009181Y004025D01*
X005255Y004025D01*
X005255Y004123D02*
X009181Y004123D01*
X009181Y004025D02*
X009224Y003920D01*
X009305Y003839D01*
X009393Y003803D01*
X009381Y003791D01*
X009131Y003791D01*
X009060Y003720D01*
X009011Y003720D01*
X008905Y003676D01*
X008824Y003595D01*
X008781Y003490D01*
X008781Y003375D01*
X008824Y003270D01*
X008905Y003189D01*
X009011Y003145D01*
X009125Y003145D01*
X009231Y003189D01*
X009311Y003270D01*
X009354Y003374D01*
X009554Y003374D01*
X009807Y003626D01*
X010330Y003626D01*
X010405Y003702D01*
X010405Y003723D01*
X010412Y003697D01*
X010432Y003663D01*
X010460Y003635D01*
X010494Y003615D01*
X010532Y003605D01*
X010758Y003605D01*
X010758Y004020D01*
X010858Y004020D01*
X010858Y003605D01*
X010959Y003605D01*
X010651Y003297D01*
X010292Y003297D01*
X010216Y003222D01*
X010216Y002643D01*
X010292Y002568D01*
X010871Y002568D01*
X010946Y002643D01*
X010946Y003002D01*
X011159Y003215D01*
X011159Y001780D01*
X011124Y001745D01*
X011081Y001640D01*
X011081Y001525D01*
X011095Y001491D01*
X008654Y001491D01*
X007417Y002729D01*
X007417Y003139D01*
X007124Y003431D01*
X006711Y003431D01*
X006419Y003139D01*
X006419Y002726D01*
X006711Y002434D01*
X007121Y002434D01*
X007124Y002431D01*
X006711Y002431D01*
X006419Y002139D01*
X006419Y001726D01*
X006704Y001441D01*
X006607Y001441D01*
X006588Y001464D02*
X006682Y001464D01*
X006583Y001562D02*
X006505Y001562D01*
X006485Y001661D02*
X006421Y001661D01*
X006417Y001759D02*
X006419Y001759D01*
X006417Y001858D02*
X006419Y001858D01*
X006417Y001956D02*
X006419Y001956D01*
X006417Y002055D02*
X006419Y002055D01*
X006433Y002153D02*
X006403Y002153D01*
X006304Y002252D02*
X006532Y002252D01*
X006630Y002350D02*
X006206Y002350D01*
X006124Y002434D02*
X006417Y002726D01*
X006417Y003139D01*
X006124Y003431D01*
X005711Y003431D01*
X005419Y003139D01*
X005419Y002726D01*
X005711Y002434D01*
X006124Y002434D01*
X006139Y002449D02*
X006697Y002449D01*
X006598Y002547D02*
X006238Y002547D01*
X006336Y002646D02*
X006500Y002646D01*
X006419Y002744D02*
X006417Y002744D01*
X006417Y002843D02*
X006419Y002843D01*
X006417Y002941D02*
X006419Y002941D01*
X006417Y003040D02*
X006419Y003040D01*
X006417Y003138D02*
X006419Y003138D01*
X006517Y003237D02*
X006319Y003237D01*
X006221Y003335D02*
X006615Y003335D01*
X007221Y003335D02*
X008797Y003335D01*
X008781Y003434D02*
X005177Y003434D01*
X005177Y003532D02*
X008798Y003532D01*
X008860Y003631D02*
X005177Y003631D01*
X005177Y003729D02*
X009069Y003729D01*
X009222Y003926D02*
X005214Y003926D01*
X005177Y003828D02*
X009333Y003828D01*
X009215Y004222D02*
X005221Y004222D01*
X005136Y004320D02*
X007324Y004320D01*
X007518Y004533D02*
X007468Y004583D01*
X004968Y004583D01*
X004268Y003883D01*
X004268Y003483D01*
X004539Y003631D02*
X004759Y003631D01*
X004759Y003729D02*
X004455Y003729D01*
X004466Y003828D02*
X004759Y003828D01*
X004722Y003926D02*
X004564Y003926D01*
X004256Y004123D02*
X004118Y004123D01*
X004118Y004025D02*
X004157Y004025D01*
X004118Y003985D02*
X004118Y010337D01*
X004130Y010360D01*
X004118Y010397D01*
X004118Y010436D01*
X004104Y010450D01*
X004081Y010549D01*
X004082Y010670D01*
X004126Y010741D01*
X004210Y010840D01*
X004309Y010924D01*
X004420Y010992D01*
X004540Y011042D01*
X004666Y011072D01*
X004796Y011083D01*
X012271Y011083D01*
X012255Y011076D01*
X012174Y010995D01*
X012131Y010890D01*
X012131Y010775D01*
X012174Y010670D01*
X012255Y010589D01*
X012361Y010545D01*
X012475Y010545D01*
X012570Y010585D01*
X012639Y010516D01*
X012639Y010411D01*
X011373Y010411D01*
X011373Y010516D01*
X011298Y010591D01*
X010600Y010591D01*
X010525Y010516D01*
X010525Y009897D01*
X010590Y009833D01*
X010525Y009768D01*
X010525Y009576D01*
X010264Y009576D01*
X010264Y009677D01*
X010189Y009752D01*
X010167Y009752D01*
X010194Y009759D01*
X010228Y009779D01*
X010256Y009807D01*
X010275Y009841D01*
X010286Y009879D01*
X010286Y010105D01*
X009871Y010105D01*
X009871Y010205D01*
X010286Y010205D01*
X010286Y010431D01*
X010275Y010469D01*
X010256Y010503D01*
X010228Y010531D01*
X010194Y010551D01*
X010155Y010561D01*
X009871Y010561D01*
X009871Y010205D01*
X009771Y010205D01*
X009771Y010561D01*
X009486Y010561D01*
X009448Y010551D01*
X009414Y010531D01*
X009386Y010503D01*
X009366Y010469D01*
X009356Y010431D01*
X009356Y010205D01*
X009771Y010205D01*
X009771Y010105D01*
X009356Y010105D01*
X009356Y009879D01*
X009366Y009841D01*
X009386Y009807D01*
X009414Y009779D01*
X009448Y009759D01*
X009474Y009752D01*
X009452Y009752D01*
X009377Y009677D01*
X009377Y009674D01*
X008849Y010202D01*
X008903Y010256D01*
X008968Y010413D01*
X008968Y010584D01*
X008903Y010742D01*
X008782Y010862D01*
X008624Y010927D01*
X007854Y010927D01*
X007696Y010862D01*
X007576Y010742D01*
X007555Y010691D01*
X007140Y010691D01*
X007078Y010705D01*
X007057Y010691D01*
X007031Y010691D01*
X006986Y010646D01*
X006357Y010241D01*
X006331Y010241D01*
X006286Y010196D01*
X006232Y010161D01*
X006227Y010137D01*
X006209Y010119D01*
X006209Y010055D01*
X006196Y009992D01*
X006209Y009971D01*
X006209Y007246D01*
X006431Y007024D01*
X006431Y006975D01*
X006474Y006870D01*
X006555Y006789D01*
X006661Y006745D01*
X006775Y006745D01*
X006881Y006789D01*
X006961Y006870D01*
X007005Y006975D01*
X007005Y007090D01*
X006961Y007195D01*
X006881Y007276D01*
X006775Y007320D01*
X006726Y007320D01*
X006627Y007419D01*
X006627Y009919D01*
X007179Y010274D01*
X007568Y010274D01*
X007576Y010256D01*
X007696Y010135D01*
X007854Y010070D01*
X008390Y010070D01*
X008512Y009949D01*
X008289Y009949D01*
X008289Y009549D01*
X008189Y009549D01*
X008189Y009949D01*
X007904Y009949D01*
X007834Y009938D01*
X007766Y009916D01*
X007703Y009884D01*
X007646Y009842D01*
X007596Y009792D01*
X007554Y009735D01*
X007522Y009671D01*
X007500Y009604D01*
X007491Y009549D01*
X008189Y009549D01*
X008189Y009449D01*
X007491Y009449D01*
X007500Y009393D01*
X007522Y009326D01*
X007554Y009263D01*
X007596Y009206D01*
X007646Y009155D01*
X007703Y009114D01*
X007766Y009082D01*
X007834Y009060D01*
X007904Y009049D01*
X008189Y009049D01*
X008189Y009449D01*
X008289Y009449D01*
X008289Y009549D01*
X008912Y009549D01*
X009179Y009281D01*
X009302Y009159D01*
X009377Y009159D01*
X009377Y009058D01*
X009452Y008983D01*
X010189Y008983D01*
X010264Y009058D01*
X010264Y009159D01*
X010525Y009159D01*
X010525Y009149D01*
X010600Y009074D01*
X011298Y009074D01*
X011373Y009149D01*
X011373Y009768D01*
X011308Y009833D01*
X011373Y009897D01*
X011373Y009994D01*
X012639Y009994D01*
X012639Y009911D01*
X012005Y009911D01*
X011929Y009836D01*
X011929Y009529D01*
X011931Y009528D01*
X011929Y009526D01*
X011929Y009241D01*
X011639Y009241D01*
X011574Y009254D01*
X011555Y009241D01*
X011531Y009241D01*
X011485Y009195D01*
X011072Y008920D01*
X010961Y008920D01*
X010855Y008876D01*
X010774Y008795D01*
X010731Y008690D01*
X010731Y008575D01*
X010774Y008470D01*
X010855Y008389D01*
X010961Y008345D01*
X011075Y008345D01*
X011181Y008389D01*
X011261Y008470D01*
X011304Y008572D01*
X011360Y008609D01*
X011331Y008540D01*
X011331Y008425D01*
X011374Y008321D01*
X009305Y008321D01*
X009183Y008199D01*
X007834Y006850D01*
X007854Y006899D01*
X007854Y007053D01*
X007795Y007195D01*
X007687Y007304D01*
X007545Y007362D01*
X007540Y007362D01*
X007563Y007366D01*
X007624Y007386D01*
X007681Y007415D01*
X007733Y007453D01*
X007779Y007498D01*
X007816Y007550D01*
X007846Y007607D01*
X007865Y007668D01*
X007875Y007732D01*
X007875Y007735D01*
X007497Y007735D01*
X007497Y007792D01*
X007875Y007792D01*
X007875Y007796D01*
X007865Y007859D01*
X007846Y007920D01*
X007816Y007977D01*
X007779Y008029D01*
X007733Y008074D01*
X007681Y008112D01*
X007624Y008141D01*
X007563Y008161D01*
X007500Y008171D01*
X007497Y008171D01*
X007497Y007792D01*
X007439Y007792D01*
X007439Y007735D01*
X007060Y007735D01*
X007060Y007732D01*
X007070Y007668D01*
X007090Y007607D01*
X007119Y007550D01*
X007157Y007498D01*
X007202Y007453D01*
X007254Y007415D01*
X007311Y007386D01*
X007372Y007366D01*
X007396Y007362D01*
X007391Y007362D01*
X007249Y007304D01*
X007140Y007195D01*
X007082Y007053D01*
X007082Y006899D01*
X007140Y006757D01*
X007249Y006649D01*
X007391Y006590D01*
X007545Y006590D01*
X007595Y006611D01*
X007555Y006571D01*
X007545Y006575D01*
X007391Y006575D01*
X007249Y006516D01*
X007140Y006408D01*
X007082Y006266D01*
X007082Y006112D01*
X007140Y005970D01*
X007249Y005861D01*
X007391Y005803D01*
X007545Y005803D01*
X007595Y005823D01*
X007559Y005788D01*
X007157Y005788D01*
X007082Y005712D01*
X007082Y005091D01*
X007157Y005015D01*
X007705Y005015D01*
X007510Y004820D01*
X007461Y004820D01*
X007355Y004776D01*
X007341Y004761D01*
X004894Y004761D01*
X004789Y004657D01*
X004118Y003985D01*
X004118Y004222D02*
X004354Y004222D01*
X004453Y004320D02*
X004118Y004320D01*
X004118Y004419D02*
X004551Y004419D01*
X004650Y004517D02*
X004118Y004517D01*
X004118Y004616D02*
X004748Y004616D01*
X004847Y004714D02*
X004118Y004714D01*
X004118Y004813D02*
X007444Y004813D01*
X007601Y004911D02*
X004118Y004911D01*
X004118Y005010D02*
X007700Y005010D01*
X008192Y004911D02*
X009659Y004911D01*
X009659Y004813D02*
X008093Y004813D01*
X007995Y004714D02*
X009729Y004714D01*
X009659Y005010D02*
X008290Y005010D01*
X008389Y005108D02*
X009659Y005108D01*
X009659Y005207D02*
X008487Y005207D01*
X008586Y005305D02*
X009659Y005305D01*
X009659Y005404D02*
X008684Y005404D01*
X007569Y005798D02*
X004118Y005798D01*
X004118Y005896D02*
X007214Y005896D01*
X007130Y005995D02*
X004118Y005995D01*
X004118Y006093D02*
X007090Y006093D01*
X007082Y006192D02*
X004118Y006192D01*
X004118Y006290D02*
X007092Y006290D01*
X007133Y006389D02*
X004118Y006389D01*
X004118Y006487D02*
X007220Y006487D01*
X007214Y006684D02*
X004118Y006684D01*
X004118Y006586D02*
X007569Y006586D01*
X007847Y006881D02*
X007865Y006881D01*
X007854Y006980D02*
X007963Y006980D01*
X008062Y007078D02*
X007844Y007078D01*
X007803Y007177D02*
X008160Y007177D01*
X008259Y007275D02*
X007715Y007275D01*
X007586Y007374D02*
X008357Y007374D01*
X008456Y007472D02*
X007753Y007472D01*
X007827Y007571D02*
X008554Y007571D01*
X008653Y007669D02*
X007865Y007669D01*
X007863Y007866D02*
X008850Y007866D01*
X008751Y007768D02*
X007497Y007768D01*
X007439Y007768D02*
X006627Y007768D01*
X006627Y007866D02*
X007073Y007866D01*
X007070Y007859D02*
X007060Y007796D01*
X007060Y007792D01*
X007439Y007792D01*
X007439Y008171D01*
X007436Y008171D01*
X007372Y008161D01*
X007311Y008141D01*
X007254Y008112D01*
X007202Y008074D01*
X007157Y008029D01*
X007119Y007977D01*
X007090Y007920D01*
X007070Y007859D01*
X007113Y007965D02*
X006627Y007965D01*
X006627Y008063D02*
X007191Y008063D01*
X007376Y008162D02*
X006627Y008162D01*
X006627Y008260D02*
X009244Y008260D01*
X009145Y008162D02*
X007560Y008162D01*
X007497Y008162D02*
X007439Y008162D01*
X007439Y008063D02*
X007497Y008063D01*
X007497Y007965D02*
X007439Y007965D01*
X007439Y007866D02*
X007497Y007866D01*
X007745Y008063D02*
X009047Y008063D01*
X008948Y007965D02*
X007823Y007965D01*
X007070Y007669D02*
X006627Y007669D01*
X006627Y007571D02*
X007109Y007571D01*
X007183Y007472D02*
X006627Y007472D01*
X006672Y007374D02*
X007350Y007374D01*
X007221Y007275D02*
X006881Y007275D01*
X006969Y007177D02*
X007133Y007177D01*
X007092Y007078D02*
X007005Y007078D01*
X007005Y006980D02*
X007082Y006980D01*
X007089Y006881D02*
X006966Y006881D01*
X006865Y006783D02*
X007130Y006783D01*
X006571Y006783D02*
X004118Y006783D01*
X004118Y006881D02*
X006470Y006881D01*
X006431Y006980D02*
X004118Y006980D01*
X004118Y007078D02*
X006377Y007078D01*
X006279Y007177D02*
X004118Y007177D01*
X004118Y007275D02*
X006209Y007275D01*
X006209Y007374D02*
X004118Y007374D01*
X004118Y007472D02*
X006209Y007472D01*
X006209Y007571D02*
X004118Y007571D01*
X004118Y007669D02*
X006209Y007669D01*
X006209Y007768D02*
X004118Y007768D01*
X004118Y007866D02*
X006209Y007866D01*
X006209Y007965D02*
X004118Y007965D01*
X004118Y008063D02*
X006209Y008063D01*
X006209Y008162D02*
X004118Y008162D01*
X004118Y008260D02*
X006209Y008260D01*
X006209Y008359D02*
X004118Y008359D01*
X004118Y008457D02*
X006209Y008457D01*
X006209Y008556D02*
X004118Y008556D01*
X004118Y008654D02*
X006209Y008654D01*
X006209Y008753D02*
X004118Y008753D01*
X004118Y008851D02*
X006209Y008851D01*
X006209Y008950D02*
X004118Y008950D01*
X004118Y009048D02*
X006209Y009048D01*
X006209Y009147D02*
X004118Y009147D01*
X004118Y009245D02*
X006209Y009245D01*
X006209Y009344D02*
X004118Y009344D01*
X004118Y009442D02*
X006209Y009442D01*
X006209Y009541D02*
X004118Y009541D01*
X004118Y009639D02*
X006209Y009639D01*
X006209Y009738D02*
X004118Y009738D01*
X004118Y009836D02*
X006209Y009836D01*
X006209Y009935D02*
X004118Y009935D01*
X004118Y010033D02*
X006204Y010033D01*
X006222Y010132D02*
X004118Y010132D01*
X004118Y010230D02*
X006320Y010230D01*
X006492Y010329D02*
X004118Y010329D01*
X004118Y010427D02*
X006646Y010427D01*
X006799Y010526D02*
X004087Y010526D01*
X004082Y010624D02*
X006952Y010624D01*
X007111Y010230D02*
X007601Y010230D01*
X007705Y010132D02*
X006958Y010132D01*
X006805Y010033D02*
X008427Y010033D01*
X008289Y009935D02*
X008189Y009935D01*
X008189Y009836D02*
X008289Y009836D01*
X008289Y009738D02*
X008189Y009738D01*
X008189Y009639D02*
X008289Y009639D01*
X008289Y009541D02*
X008920Y009541D01*
X008987Y009449D02*
X008289Y009449D01*
X008289Y009049D01*
X008575Y009049D01*
X008645Y009060D01*
X008712Y009082D01*
X008775Y009114D01*
X008832Y009155D01*
X008882Y009206D01*
X008924Y009263D01*
X008956Y009326D01*
X008978Y009393D01*
X008987Y009449D01*
X008986Y009442D02*
X009018Y009442D01*
X008962Y009344D02*
X009117Y009344D01*
X009215Y009245D02*
X008911Y009245D01*
X008820Y009147D02*
X009377Y009147D01*
X009387Y009048D02*
X006627Y009048D01*
X006627Y008950D02*
X011117Y008950D01*
X011265Y009048D02*
X010254Y009048D01*
X010264Y009147D02*
X010528Y009147D01*
X010830Y008851D02*
X006627Y008851D01*
X006627Y008753D02*
X010757Y008753D01*
X010731Y008654D02*
X006627Y008654D01*
X006627Y008556D02*
X010739Y008556D01*
X010787Y008457D02*
X006627Y008457D01*
X006627Y008359D02*
X010929Y008359D01*
X011107Y008359D02*
X011358Y008359D01*
X011331Y008457D02*
X011249Y008457D01*
X011297Y008556D02*
X011337Y008556D01*
X011370Y009147D02*
X011413Y009147D01*
X011373Y009245D02*
X011560Y009245D01*
X011619Y009245D02*
X011929Y009245D01*
X011929Y009344D02*
X011373Y009344D01*
X011373Y009442D02*
X011929Y009442D01*
X011929Y009541D02*
X011373Y009541D01*
X011373Y009639D02*
X011929Y009639D01*
X011929Y009738D02*
X011373Y009738D01*
X011312Y009836D02*
X011929Y009836D01*
X011373Y009935D02*
X012639Y009935D01*
X012767Y009784D02*
X013021Y009784D01*
X013023Y009785D01*
X013025Y009784D01*
X013331Y009784D01*
X013338Y009790D01*
X013345Y009784D01*
X013631Y009784D01*
X013650Y009773D01*
X013688Y009763D01*
X013808Y009763D01*
X013928Y009763D01*
X013966Y009773D01*
X013985Y009784D01*
X014281Y009784D01*
X014283Y009785D01*
X014285Y009784D01*
X014549Y009784D01*
X014549Y009459D01*
X014381Y009291D01*
X014259Y009169D01*
X014259Y007791D01*
X013989Y007791D01*
X013924Y007804D01*
X013905Y007791D01*
X013881Y007791D01*
X013835Y007745D01*
X013757Y007692D01*
X013735Y007693D01*
X013687Y007646D01*
X013630Y007608D01*
X013626Y007588D01*
X013611Y007573D01*
X013610Y007505D01*
X013596Y007439D01*
X013608Y007421D01*
X013608Y007403D01*
X013498Y007403D01*
X013498Y006963D01*
X013498Y006963D01*
X013498Y007403D01*
X013378Y007403D01*
X013340Y007392D01*
X013321Y007381D01*
X013025Y007381D01*
X013023Y007380D01*
X013021Y007381D01*
X012767Y007381D01*
X012767Y007636D01*
X012765Y007638D01*
X012767Y007639D01*
X012767Y007946D01*
X012760Y007953D01*
X012767Y007959D01*
X012767Y008266D01*
X012765Y008268D01*
X012767Y008269D01*
X012767Y008534D01*
X013021Y008534D01*
X013081Y008474D01*
X013081Y008425D01*
X013124Y008320D01*
X013205Y008239D01*
X013311Y008195D01*
X013425Y008195D01*
X013531Y008239D01*
X013611Y008320D01*
X013655Y008425D01*
X013655Y008540D01*
X013611Y008645D01*
X013531Y008726D01*
X013425Y008770D01*
X013376Y008770D01*
X013317Y008829D01*
X013194Y008951D01*
X012767Y008951D01*
X012767Y009206D01*
X012760Y009213D01*
X012767Y009219D01*
X012767Y009526D01*
X012765Y009528D01*
X012767Y009529D01*
X012767Y009784D01*
X012767Y009738D02*
X014549Y009738D01*
X014549Y009639D02*
X012767Y009639D01*
X012767Y009541D02*
X014549Y009541D01*
X014532Y009442D02*
X012767Y009442D01*
X012767Y009344D02*
X014434Y009344D01*
X014335Y009245D02*
X012767Y009245D01*
X012767Y009147D02*
X014259Y009147D01*
X014259Y009048D02*
X012767Y009048D01*
X013196Y008950D02*
X014259Y008950D01*
X014259Y008851D02*
X013295Y008851D01*
X013466Y008753D02*
X014259Y008753D01*
X014259Y008654D02*
X013602Y008654D01*
X013648Y008556D02*
X014259Y008556D01*
X014259Y008457D02*
X013655Y008457D01*
X013627Y008359D02*
X014259Y008359D01*
X014259Y008260D02*
X013552Y008260D01*
X013184Y008260D02*
X012767Y008260D01*
X012767Y008162D02*
X014259Y008162D01*
X014259Y008063D02*
X012767Y008063D01*
X012767Y007965D02*
X014259Y007965D01*
X014259Y007866D02*
X012767Y007866D01*
X012767Y007768D02*
X013858Y007768D01*
X013711Y007669D02*
X012767Y007669D01*
X012767Y007571D02*
X013611Y007571D01*
X013603Y007472D02*
X012767Y007472D01*
X013498Y007374D02*
X013498Y007374D01*
X013498Y007275D02*
X013498Y007275D01*
X013498Y007177D02*
X013498Y007177D01*
X013498Y007078D02*
X013498Y007078D01*
X013498Y006980D02*
X013498Y006980D01*
X014128Y006881D02*
X014128Y006881D01*
X014128Y006783D02*
X014128Y006783D01*
X014128Y006684D02*
X014128Y006684D01*
X014128Y006586D02*
X014128Y006586D01*
X013968Y006487D02*
X014559Y006487D01*
X014529Y006389D02*
X013869Y006389D01*
X013771Y006290D02*
X014430Y006290D01*
X014332Y006192D02*
X013672Y006192D01*
X013204Y006093D02*
X014285Y006093D01*
X014285Y005995D02*
X013205Y005995D01*
X013172Y005896D02*
X014285Y005896D01*
X014285Y005798D02*
X013398Y005798D01*
X013527Y005699D02*
X014127Y005699D01*
X014109Y005601D02*
X013658Y005601D01*
X013677Y005502D02*
X014109Y005502D01*
X014109Y005404D02*
X013677Y005404D01*
X013677Y005305D02*
X014109Y005305D01*
X014109Y005207D02*
X013677Y005207D01*
X013677Y005108D02*
X014109Y005108D01*
X014109Y005010D02*
X013677Y005010D01*
X013677Y004911D02*
X014182Y004911D01*
X014187Y004813D02*
X013677Y004813D01*
X013677Y004714D02*
X014187Y004714D01*
X014187Y004616D02*
X013677Y004616D01*
X013677Y004517D02*
X014129Y004517D01*
X014129Y004419D02*
X013677Y004419D01*
X013677Y004320D02*
X014129Y004320D01*
X014129Y004222D02*
X013677Y004222D01*
X013677Y004123D02*
X014129Y004123D01*
X014129Y004025D02*
X013677Y004025D01*
X013677Y003926D02*
X014129Y003926D01*
X014129Y003828D02*
X013677Y003828D01*
X013677Y003729D02*
X014144Y003729D01*
X013814Y003532D02*
X018858Y003532D01*
X018858Y003434D02*
X013912Y003434D01*
X014011Y003335D02*
X018858Y003335D01*
X018858Y003237D02*
X014109Y003237D01*
X014177Y003138D02*
X018858Y003138D01*
X018858Y003040D02*
X014177Y003040D01*
X014177Y002941D02*
X018858Y002941D01*
X018858Y002843D02*
X014177Y002843D01*
X014177Y002744D02*
X018858Y002744D01*
X018858Y002646D02*
X014177Y002646D01*
X014177Y002547D02*
X018858Y002547D01*
X018858Y002449D02*
X014177Y002449D01*
X014177Y002350D02*
X018858Y002350D01*
X018858Y002252D02*
X014177Y002252D01*
X014177Y002153D02*
X018858Y002153D01*
X018858Y002055D02*
X017066Y002055D01*
X017053Y002068D02*
X017019Y002087D01*
X016981Y002097D01*
X016558Y002097D01*
X016558Y001683D01*
X016458Y001683D01*
X016458Y002097D01*
X016036Y002097D01*
X015997Y002087D01*
X015963Y002068D01*
X015935Y002040D01*
X015916Y002005D01*
X015905Y001967D01*
X015905Y001683D01*
X016458Y001683D01*
X016458Y001583D01*
X015905Y001583D01*
X015905Y001298D01*
X015916Y001260D01*
X015935Y001225D01*
X015963Y001198D01*
X015997Y001178D01*
X016036Y001168D01*
X016458Y001168D01*
X016558Y001168D01*
X016981Y001168D01*
X017019Y001178D01*
X017053Y001198D01*
X017081Y001225D01*
X017101Y001260D01*
X017111Y001298D01*
X017111Y001583D01*
X016558Y001583D01*
X016558Y001683D01*
X017111Y001683D01*
X017111Y001967D01*
X017101Y002005D01*
X017081Y002040D01*
X017053Y002068D01*
X017111Y001956D02*
X018858Y001956D01*
X018858Y001858D02*
X017111Y001858D01*
X017111Y001759D02*
X018532Y001759D01*
X018327Y001661D02*
X016558Y001661D01*
X016558Y001583D02*
X016558Y001168D01*
X016558Y001267D02*
X016458Y001267D01*
X016458Y001365D02*
X016558Y001365D01*
X016558Y001464D02*
X016458Y001464D01*
X016458Y001562D02*
X016558Y001562D01*
X016558Y001583D02*
X016458Y001583D01*
X016458Y001168D01*
X016982Y001168D02*
X018068Y001168D01*
X018068Y001070D02*
X013383Y001070D01*
X013510Y001168D02*
X016034Y001168D01*
X015914Y001267D02*
X014609Y001267D01*
X014609Y001365D02*
X015905Y001365D01*
X015905Y001464D02*
X014609Y001464D01*
X014609Y001562D02*
X015905Y001562D01*
X015905Y001759D02*
X014609Y001759D01*
X014609Y001661D02*
X016458Y001661D01*
X016458Y001759D02*
X016558Y001759D01*
X016558Y001858D02*
X016458Y001858D01*
X016458Y001956D02*
X016558Y001956D01*
X016558Y002055D02*
X016458Y002055D01*
X015950Y002055D02*
X014555Y002055D01*
X014609Y001956D02*
X015905Y001956D01*
X015905Y001858D02*
X014609Y001858D01*
X013759Y002076D02*
X013522Y002076D01*
X013446Y002001D01*
X013446Y001560D01*
X013431Y001576D01*
X013325Y001620D01*
X013211Y001620D01*
X013105Y001576D01*
X013026Y001497D01*
X012997Y001491D01*
X011641Y001491D01*
X011655Y001525D01*
X011655Y001640D01*
X011611Y001745D01*
X011577Y001780D01*
X011577Y002546D01*
X011705Y002546D01*
X011705Y002883D01*
X011805Y002883D01*
X011805Y002983D01*
X011705Y002983D01*
X011705Y003319D01*
X011629Y003319D01*
X011758Y003509D01*
X012103Y003509D01*
X012168Y003573D01*
X012233Y003509D01*
X012373Y003509D01*
X012373Y003297D01*
X012292Y003297D01*
X012216Y003222D01*
X012216Y002643D01*
X012292Y002568D01*
X012871Y002568D01*
X012946Y002643D01*
X012946Y003222D01*
X012871Y003297D01*
X012790Y003297D01*
X012790Y003509D01*
X012851Y003509D01*
X012927Y003584D01*
X012927Y004281D01*
X012851Y004357D01*
X012233Y004357D01*
X012168Y004292D01*
X012103Y004357D01*
X012003Y004357D01*
X012003Y004359D01*
X012103Y004359D01*
X012168Y004423D01*
X012233Y004359D01*
X012851Y004359D01*
X012927Y004434D01*
X012927Y004530D01*
X013011Y004495D01*
X013125Y004495D01*
X013231Y004539D01*
X013259Y004568D01*
X013259Y003496D01*
X013381Y003374D01*
X013759Y002996D01*
X013759Y002076D01*
X013759Y002153D02*
X011577Y002153D01*
X011577Y002055D02*
X013500Y002055D01*
X013446Y001956D02*
X011577Y001956D01*
X011577Y001858D02*
X013446Y001858D01*
X013446Y001759D02*
X011597Y001759D01*
X011646Y001661D02*
X013446Y001661D01*
X013444Y001562D02*
X013446Y001562D01*
X013091Y001562D02*
X011655Y001562D01*
X011159Y001858D02*
X008288Y001858D01*
X008190Y001956D02*
X011159Y001956D01*
X011159Y002055D02*
X008091Y002055D01*
X007993Y002153D02*
X011159Y002153D01*
X011159Y002252D02*
X007894Y002252D01*
X007796Y002350D02*
X011159Y002350D01*
X011159Y002449D02*
X007697Y002449D01*
X007599Y002547D02*
X009496Y002547D01*
X009499Y002546D02*
X009705Y002546D01*
X009705Y002883D01*
X009805Y002883D01*
X009805Y002983D01*
X009705Y002983D01*
X009705Y003319D01*
X009499Y003319D01*
X009460Y003309D01*
X009426Y003289D01*
X009398Y003261D01*
X009379Y003227D01*
X009368Y003188D01*
X009368Y002983D01*
X009705Y002983D01*
X009705Y002883D01*
X009368Y002883D01*
X009368Y002677D01*
X009379Y002638D01*
X009398Y002604D01*
X009426Y002576D01*
X009460Y002557D01*
X009499Y002546D01*
X009377Y002646D02*
X007500Y002646D01*
X007417Y002744D02*
X009368Y002744D01*
X009368Y002843D02*
X007417Y002843D01*
X007417Y002941D02*
X009705Y002941D01*
X009705Y002843D02*
X009805Y002843D01*
X009805Y002883D02*
X009805Y002546D01*
X010010Y002546D01*
X010049Y002557D01*
X010083Y002576D01*
X010111Y002604D01*
X010131Y002638D01*
X010141Y002677D01*
X010141Y002883D01*
X009805Y002883D01*
X009805Y002941D02*
X010216Y002941D01*
X010141Y002983D02*
X010141Y003188D01*
X010131Y003227D01*
X010111Y003261D01*
X010083Y003289D01*
X010049Y003309D01*
X010010Y003319D01*
X009805Y003319D01*
X009805Y002983D01*
X010141Y002983D01*
X010141Y003040D02*
X010216Y003040D01*
X010216Y003138D02*
X010141Y003138D01*
X010125Y003237D02*
X010231Y003237D01*
X009805Y003237D02*
X009705Y003237D01*
X009705Y003138D02*
X009805Y003138D01*
X009805Y003040D02*
X009705Y003040D01*
X010141Y002843D02*
X010216Y002843D01*
X010216Y002744D02*
X010141Y002744D01*
X010132Y002646D02*
X010216Y002646D01*
X010013Y002547D02*
X011159Y002547D01*
X011159Y002646D02*
X010946Y002646D01*
X010946Y002744D02*
X011159Y002744D01*
X011159Y002843D02*
X010946Y002843D01*
X010946Y002941D02*
X011159Y002941D01*
X011159Y003040D02*
X010984Y003040D01*
X011082Y003138D02*
X011159Y003138D01*
X011640Y003335D02*
X012373Y003335D01*
X012373Y003434D02*
X011707Y003434D01*
X011805Y003319D02*
X011805Y002983D01*
X012141Y002983D01*
X012141Y003188D01*
X012131Y003227D01*
X012111Y003261D01*
X012083Y003289D01*
X012049Y003309D01*
X012010Y003319D01*
X011805Y003319D01*
X011805Y003237D02*
X011705Y003237D01*
X011705Y003138D02*
X011805Y003138D01*
X011805Y003040D02*
X011705Y003040D01*
X011755Y002933D02*
X011755Y002496D01*
X011768Y002483D01*
X011768Y002183D01*
X011668Y002083D01*
X011577Y002252D02*
X013759Y002252D01*
X013759Y002350D02*
X011577Y002350D01*
X011577Y002449D02*
X013759Y002449D01*
X013759Y002547D02*
X012013Y002547D01*
X012010Y002546D02*
X012049Y002557D01*
X012083Y002576D01*
X012111Y002604D01*
X012131Y002638D01*
X012141Y002677D01*
X012141Y002883D01*
X011805Y002883D01*
X011805Y002546D01*
X012010Y002546D01*
X012132Y002646D02*
X012216Y002646D01*
X012216Y002744D02*
X012141Y002744D01*
X012141Y002843D02*
X012216Y002843D01*
X012216Y002941D02*
X011805Y002941D01*
X011755Y002933D02*
X011755Y002446D01*
X012118Y002083D01*
X012968Y002083D01*
X013318Y002433D01*
X012946Y002646D02*
X013759Y002646D01*
X013759Y002744D02*
X012946Y002744D01*
X012946Y002843D02*
X013759Y002843D01*
X013759Y002941D02*
X012946Y002941D01*
X012946Y003040D02*
X013716Y003040D01*
X013617Y003138D02*
X012946Y003138D01*
X012932Y003237D02*
X013519Y003237D01*
X013420Y003335D02*
X012790Y003335D01*
X012790Y003434D02*
X013322Y003434D01*
X013259Y003532D02*
X012875Y003532D01*
X012927Y003631D02*
X013259Y003631D01*
X013259Y003729D02*
X012927Y003729D01*
X012927Y003828D02*
X013259Y003828D01*
X013259Y003926D02*
X012927Y003926D01*
X012927Y004025D02*
X013259Y004025D01*
X013259Y004123D02*
X012927Y004123D01*
X012927Y004222D02*
X013259Y004222D01*
X013259Y004320D02*
X012888Y004320D01*
X012911Y004419D02*
X013259Y004419D01*
X013259Y004517D02*
X013177Y004517D01*
X012958Y004517D02*
X012927Y004517D01*
X012196Y004320D02*
X012140Y004320D01*
X012163Y004419D02*
X012173Y004419D01*
X011059Y004616D02*
X007896Y004616D01*
X007805Y004517D02*
X010481Y004517D01*
X010406Y004419D02*
X010405Y004419D01*
X010758Y004419D02*
X010858Y004419D01*
X010858Y004517D02*
X010758Y004517D01*
X010758Y004320D02*
X010858Y004320D01*
X010858Y004222D02*
X010758Y004222D01*
X010758Y004123D02*
X010858Y004123D01*
X010808Y004070D02*
X010668Y003930D01*
X010668Y003483D01*
X010787Y003434D02*
X009614Y003434D01*
X009713Y003532D02*
X010886Y003532D01*
X010858Y003631D02*
X010758Y003631D01*
X010758Y003729D02*
X010858Y003729D01*
X010858Y003828D02*
X010758Y003828D01*
X010758Y003926D02*
X010858Y003926D01*
X010858Y004025D02*
X011059Y004025D01*
X011031Y004070D02*
X010808Y004070D01*
X010467Y003631D02*
X010334Y003631D01*
X010689Y003335D02*
X009338Y003335D01*
X009384Y003237D02*
X009278Y003237D01*
X009368Y003138D02*
X007417Y003138D01*
X007417Y003040D02*
X009368Y003040D01*
X008858Y003237D02*
X007319Y003237D01*
X005615Y003335D02*
X005221Y003335D01*
X005319Y003237D02*
X005517Y003237D01*
X005419Y003138D02*
X005417Y003138D01*
X005417Y003040D02*
X005419Y003040D01*
X005417Y002941D02*
X005419Y002941D01*
X005417Y002843D02*
X005419Y002843D01*
X005417Y002744D02*
X005419Y002744D01*
X005500Y002646D02*
X005336Y002646D01*
X005238Y002547D02*
X005598Y002547D01*
X005697Y002449D02*
X005139Y002449D01*
X005236Y002350D02*
X005630Y002350D01*
X005532Y002252D02*
X005334Y002252D01*
X004398Y001858D02*
X004118Y001858D01*
X004118Y001759D02*
X004398Y001759D01*
X004454Y001661D02*
X004118Y001661D01*
X004118Y001562D02*
X004553Y001562D01*
X004651Y001464D02*
X004118Y001464D01*
X004118Y000971D02*
X008256Y000971D01*
X008303Y000873D02*
X004118Y000873D01*
X004118Y000774D02*
X008370Y000774D01*
X008766Y000774D02*
X018163Y000774D01*
X018122Y000873D02*
X008833Y000873D01*
X008855Y000971D02*
X018081Y000971D01*
X018070Y001267D02*
X017102Y001267D01*
X017111Y001365D02*
X018111Y001365D01*
X018151Y001464D02*
X017111Y001464D01*
X017111Y001562D02*
X018228Y001562D01*
X018256Y000676D02*
X004118Y000676D01*
X004136Y000577D02*
X018360Y000577D01*
X018858Y000479D02*
X004199Y000479D01*
X008387Y001759D02*
X011138Y001759D01*
X011089Y001661D02*
X008485Y001661D01*
X008584Y001562D02*
X011081Y001562D01*
X011705Y002547D02*
X011805Y002547D01*
X011805Y002646D02*
X011705Y002646D01*
X011705Y002744D02*
X011805Y002744D01*
X011805Y002843D02*
X011705Y002843D01*
X012141Y003040D02*
X012216Y003040D01*
X012216Y003138D02*
X012141Y003138D01*
X012125Y003237D02*
X012231Y003237D01*
X012209Y003532D02*
X012127Y003532D01*
X013715Y003631D02*
X018858Y003631D01*
X018858Y003729D02*
X015591Y003729D01*
X015607Y003828D02*
X018858Y003828D01*
X018858Y003926D02*
X015607Y003926D01*
X015607Y004025D02*
X018858Y004025D01*
X018858Y004123D02*
X015607Y004123D01*
X015607Y004222D02*
X018858Y004222D01*
X018858Y004320D02*
X015607Y004320D01*
X015607Y004419D02*
X018858Y004419D01*
X018858Y004517D02*
X015607Y004517D01*
X015549Y004616D02*
X018858Y004616D01*
X018858Y004714D02*
X015549Y004714D01*
X015549Y004813D02*
X018858Y004813D01*
X018268Y005279D02*
X017349Y005260D01*
X017368Y005292D01*
X017378Y005330D01*
X017378Y005615D01*
X017022Y005615D01*
X017022Y005715D01*
X017378Y005715D01*
X017378Y006000D01*
X017368Y006038D01*
X017348Y006072D01*
X017320Y006100D01*
X017313Y006104D01*
X017313Y006244D01*
X017511Y006244D01*
X017881Y005874D01*
X018333Y005874D01*
X018268Y005809D01*
X018268Y005462D01*
X018343Y005387D01*
X018858Y005387D01*
X018858Y005384D01*
X018343Y005384D01*
X018268Y005309D01*
X018268Y005279D01*
X018268Y005305D02*
X017371Y005305D01*
X017378Y005404D02*
X018327Y005404D01*
X018268Y005502D02*
X017378Y005502D01*
X017378Y005601D02*
X018268Y005601D01*
X018268Y005699D02*
X017022Y005699D01*
X017378Y005798D02*
X018268Y005798D01*
X017859Y005896D02*
X017378Y005896D01*
X017378Y005995D02*
X017761Y005995D01*
X017662Y006093D02*
X017327Y006093D01*
X017313Y006192D02*
X017564Y006192D01*
X017859Y006487D02*
X018249Y006487D01*
X018247Y006586D02*
X017760Y006586D01*
X017957Y006389D02*
X018317Y006389D01*
X018247Y006684D02*
X017313Y006684D01*
X017313Y006783D02*
X018249Y006783D01*
X018314Y006881D02*
X016115Y006881D01*
X016055Y006980D02*
X018858Y006980D01*
X018858Y007078D02*
X016018Y007078D01*
X015929Y007177D02*
X018858Y007177D01*
X018858Y007275D02*
X015953Y007275D01*
X016007Y007374D02*
X018858Y007374D01*
X018858Y007472D02*
X016007Y007472D01*
X016007Y007571D02*
X018858Y007571D01*
X018858Y007669D02*
X016007Y007669D01*
X016007Y007768D02*
X018858Y007768D01*
X018858Y007866D02*
X016007Y007866D01*
X016007Y007965D02*
X018858Y007965D01*
X018858Y008063D02*
X016007Y008063D01*
X016007Y008162D02*
X018858Y008162D01*
X018858Y008260D02*
X016007Y008260D01*
X016007Y008359D02*
X018858Y008359D01*
X018858Y008457D02*
X016007Y008457D01*
X016007Y008556D02*
X018858Y008556D01*
X018858Y008654D02*
X016007Y008654D01*
X016007Y008753D02*
X018858Y008753D01*
X018858Y008851D02*
X016007Y008851D01*
X016007Y008950D02*
X018858Y008950D01*
X018858Y009048D02*
X016007Y009048D01*
X016007Y009147D02*
X016598Y009147D01*
X016938Y009147D02*
X018858Y009147D01*
X018858Y009245D02*
X017022Y009245D01*
X017055Y009344D02*
X018858Y009344D01*
X018594Y009442D02*
X017054Y009442D01*
X017013Y009541D02*
X018486Y009541D01*
X018392Y009639D02*
X016899Y009639D01*
X016705Y009738D02*
X018352Y009738D01*
X018311Y009836D02*
X017373Y009836D01*
X017467Y009935D02*
X018297Y009935D01*
X018297Y010033D02*
X017505Y010033D01*
X017505Y010132D02*
X018298Y010132D01*
X018339Y010230D02*
X017468Y010230D01*
X017374Y010329D02*
X018379Y010329D01*
X018455Y010427D02*
X015297Y010427D01*
X015297Y010329D02*
X017062Y010329D01*
X017062Y009836D02*
X016665Y009836D01*
X015297Y010526D02*
X018554Y010526D01*
X018756Y010624D02*
X013980Y010624D01*
X013866Y010643D02*
X013808Y010643D01*
X013808Y010203D01*
X013808Y010203D01*
X013808Y010643D01*
X013688Y010643D01*
X013650Y010632D01*
X013631Y010621D01*
X013402Y010621D01*
X013504Y010724D01*
X013743Y010724D01*
X013794Y010672D01*
X013866Y010643D01*
X013808Y010624D02*
X013808Y010624D01*
X013808Y010526D02*
X013808Y010526D01*
X013808Y010427D02*
X013808Y010427D01*
X013808Y010329D02*
X013808Y010329D01*
X013808Y010230D02*
X013808Y010230D01*
X013808Y010203D02*
X013808Y009763D01*
X013808Y010203D01*
X013808Y010203D01*
X013808Y010132D02*
X013808Y010132D01*
X013808Y010033D02*
X013808Y010033D01*
X013808Y009935D02*
X013808Y009935D01*
X013808Y009836D02*
X013808Y009836D01*
X013636Y010624D02*
X013405Y010624D01*
X013503Y010723D02*
X013744Y010723D01*
X014192Y010723D02*
X018858Y010723D01*
X018858Y010821D02*
X014254Y010821D01*
X014275Y010920D02*
X018858Y010920D01*
X018858Y011018D02*
X014265Y011018D01*
X012630Y010526D02*
X011363Y010526D01*
X011373Y010427D02*
X012639Y010427D01*
X012220Y010624D02*
X008951Y010624D01*
X008968Y010526D02*
X009408Y010526D01*
X009356Y010427D02*
X008968Y010427D01*
X008933Y010329D02*
X009356Y010329D01*
X009356Y010230D02*
X008877Y010230D01*
X008919Y010132D02*
X009771Y010132D01*
X009771Y010230D02*
X009871Y010230D01*
X009871Y010132D02*
X010525Y010132D01*
X010525Y010230D02*
X010286Y010230D01*
X010286Y010329D02*
X010525Y010329D01*
X010525Y010427D02*
X010286Y010427D01*
X010233Y010526D02*
X010535Y010526D01*
X009871Y010526D02*
X009771Y010526D01*
X009771Y010427D02*
X009871Y010427D01*
X009871Y010329D02*
X009771Y010329D01*
X009356Y010033D02*
X009018Y010033D01*
X009116Y009935D02*
X009356Y009935D01*
X009369Y009836D02*
X009215Y009836D01*
X009313Y009738D02*
X009438Y009738D01*
X010204Y009738D02*
X010525Y009738D01*
X010525Y009639D02*
X010264Y009639D01*
X010272Y009836D02*
X010586Y009836D01*
X010525Y009935D02*
X010286Y009935D01*
X010286Y010033D02*
X010525Y010033D01*
X008910Y010723D02*
X012153Y010723D01*
X012131Y010821D02*
X008823Y010821D01*
X008643Y010920D02*
X012143Y010920D01*
X012197Y011018D02*
X004482Y011018D01*
X004303Y010920D02*
X007835Y010920D01*
X007655Y010821D02*
X004194Y010821D01*
X004114Y010723D02*
X007568Y010723D01*
X007825Y009935D02*
X006652Y009935D01*
X006627Y009836D02*
X007640Y009836D01*
X007557Y009738D02*
X006627Y009738D01*
X006627Y009639D02*
X007512Y009639D01*
X007493Y009442D02*
X006627Y009442D01*
X006627Y009344D02*
X007516Y009344D01*
X007567Y009245D02*
X006627Y009245D01*
X006627Y009147D02*
X007658Y009147D01*
X008189Y009147D02*
X008289Y009147D01*
X008289Y009245D02*
X008189Y009245D01*
X008189Y009344D02*
X008289Y009344D01*
X008289Y009442D02*
X008189Y009442D01*
X008189Y009541D02*
X006627Y009541D01*
X012767Y008457D02*
X013081Y008457D01*
X013108Y008359D02*
X012767Y008359D01*
X015297Y007177D02*
X015607Y007177D01*
X015517Y007078D02*
X015297Y007078D01*
X015346Y006980D02*
X015481Y006980D01*
X015481Y006881D02*
X015445Y006881D01*
X015451Y006783D02*
X015519Y006783D01*
X015451Y006684D02*
X015617Y006684D01*
X015451Y006586D02*
X015796Y006586D01*
X015796Y006487D02*
X015451Y006487D01*
X015451Y006389D02*
X015796Y006389D01*
X015796Y006290D02*
X015451Y006290D01*
X015451Y006192D02*
X015796Y006192D01*
X015807Y006093D02*
X015451Y006093D01*
X015451Y005995D02*
X015800Y005995D01*
X015800Y005896D02*
X015451Y005896D01*
X015451Y005798D02*
X015800Y005798D01*
X015800Y005699D02*
X015609Y005699D01*
X015627Y005601D02*
X015800Y005601D01*
X015800Y005502D02*
X015627Y005502D01*
X015627Y005404D02*
X015800Y005404D01*
X015800Y005305D02*
X015627Y005305D01*
X015627Y005207D02*
X016009Y005207D01*
X016097Y005108D02*
X015627Y005108D01*
X015627Y005010D02*
X016196Y005010D01*
X016293Y004911D02*
X015554Y004911D01*
X015132Y004909D02*
X015132Y004578D01*
X015119Y004566D01*
X015098Y004587D01*
X015064Y004607D01*
X015025Y004617D01*
X014887Y004617D01*
X014887Y004151D01*
X014849Y004151D01*
X014849Y004617D01*
X014710Y004617D01*
X014672Y004607D01*
X014638Y004587D01*
X014617Y004566D01*
X014604Y004578D01*
X014604Y004909D01*
X014803Y004909D01*
X014868Y004973D01*
X014933Y004909D01*
X015132Y004909D01*
X015132Y004813D02*
X014604Y004813D01*
X014604Y004714D02*
X015132Y004714D01*
X015132Y004616D02*
X015031Y004616D01*
X014887Y004616D02*
X014849Y004616D01*
X014849Y004517D02*
X014887Y004517D01*
X014887Y004419D02*
X014849Y004419D01*
X014849Y004320D02*
X014887Y004320D01*
X014887Y004222D02*
X014849Y004222D01*
X014849Y004025D02*
X014887Y004025D01*
X014887Y003926D02*
X014849Y003926D01*
X014849Y003828D02*
X014887Y003828D01*
X014887Y003729D02*
X014849Y003729D01*
X014704Y004616D02*
X014604Y004616D01*
X014806Y004911D02*
X014930Y004911D01*
X018832Y005636D02*
X018885Y005583D01*
X019518Y005583D01*
X020850Y005465D02*
X020850Y004952D01*
X021881Y003921D01*
X020892Y006136D02*
X020892Y006506D01*
X020968Y006583D01*
X021984Y006583D01*
X022866Y007464D01*
X018842Y006881D02*
X018822Y006881D01*
X018822Y006783D02*
X018842Y006783D01*
X018842Y006684D02*
X018822Y006684D01*
X010477Y004714D02*
X010359Y004714D01*
X009636Y004419D02*
X007782Y004419D01*
X007712Y004320D02*
X009299Y004320D01*
X007082Y005108D02*
X004118Y005108D01*
X004118Y005207D02*
X007082Y005207D01*
X007082Y005305D02*
X004118Y005305D01*
X004118Y005404D02*
X007082Y005404D01*
X007082Y005502D02*
X004118Y005502D01*
X004118Y005601D02*
X007082Y005601D01*
X007082Y005699D02*
X004118Y005699D01*
X004575Y003532D02*
X004759Y003532D01*
X004759Y003434D02*
X004575Y003434D01*
X004539Y003335D02*
X004615Y003335D01*
X004517Y003237D02*
X004456Y003237D01*
X008843Y001070D02*
X012961Y001070D01*
X013017Y001070D02*
X013152Y001070D01*
X009805Y002547D02*
X009705Y002547D01*
X009705Y002646D02*
X009805Y002646D01*
X009805Y002744D02*
X009705Y002744D01*
D29*
X010581Y002933D02*
X011268Y003619D01*
X011268Y004833D01*
X010968Y005133D01*
X010792Y005133D01*
X010044Y005133D02*
X010044Y005357D01*
X009718Y005683D01*
X008668Y005683D01*
X007518Y004533D01*
X007468Y005401D02*
X009859Y007793D01*
X012348Y007793D01*
X012348Y008113D02*
X009392Y008113D01*
X007468Y006189D01*
X006718Y007033D02*
X006418Y007333D01*
X006418Y010033D01*
X007118Y010483D01*
X008273Y010483D01*
X008320Y010435D01*
X008303Y010435D01*
X008239Y010499D01*
X008320Y010435D02*
X009388Y009368D01*
X009821Y009368D01*
X010858Y009368D01*
X010949Y009459D01*
X011618Y009033D02*
X011018Y008633D01*
X011618Y008483D02*
X011658Y008423D01*
X012348Y008423D01*
X012348Y008743D02*
X013108Y008743D01*
X013368Y008483D01*
X013968Y008083D02*
X014118Y008083D01*
X013968Y008083D02*
X013518Y007633D01*
X013518Y006983D01*
X013498Y006963D01*
X013808Y006963D02*
X013808Y006623D01*
X013518Y006333D01*
X011868Y006333D01*
X011768Y006233D01*
X011768Y005609D01*
X011794Y005583D01*
X011794Y004783D01*
X011794Y003933D01*
X011368Y003307D01*
X011368Y001583D01*
X013018Y001283D02*
X013268Y001333D01*
X013018Y001283D02*
X008568Y001283D01*
X006918Y002933D01*
X005918Y001933D02*
X006468Y001283D01*
X006518Y001233D01*
X008268Y001233D01*
X008568Y000983D01*
X004968Y002983D02*
X004968Y004083D01*
X004968Y002983D02*
X004918Y002933D01*
X009068Y003433D02*
X009218Y003583D01*
X009468Y003583D01*
X009955Y004070D01*
X010020Y004070D01*
X009508Y004083D01*
X009468Y004083D01*
X011744Y005633D02*
X011744Y006607D01*
X011568Y006783D01*
X010368Y006783D01*
X010268Y006683D01*
X011744Y005633D02*
X011768Y005609D01*
X012492Y005633D02*
X012892Y006033D01*
X012918Y006033D01*
X013268Y005633D02*
X012492Y005633D01*
X013268Y005633D02*
X013468Y005483D01*
X013468Y003583D01*
X013968Y003083D01*
X013968Y001692D01*
X014028Y001633D01*
X012581Y002933D02*
X012581Y003893D01*
X012542Y003933D01*
X012542Y004783D02*
X013068Y004783D01*
X014395Y005234D02*
X014395Y004133D01*
X015340Y004133D02*
X015340Y005234D01*
X015242Y005333D01*
X015242Y006789D01*
X015068Y006963D01*
X014768Y006953D02*
X014758Y006963D01*
X014768Y006953D02*
X014768Y006333D01*
X014494Y006059D01*
X014494Y005333D01*
X014395Y005234D01*
X014118Y006033D02*
X014128Y006043D01*
X014128Y006963D01*
X014438Y006963D02*
X014468Y007583D01*
X013968Y007583D01*
X013818Y007483D01*
X013808Y006963D01*
X014438Y006963D02*
X014468Y006993D01*
X014468Y007583D01*
X014968Y007583D01*
X014468Y007583D02*
X014468Y009083D01*
X014758Y009373D01*
X014758Y010203D01*
X015068Y010203D02*
X015188Y010083D01*
X017218Y010083D01*
X016418Y009683D02*
X015588Y009683D01*
X015598Y009383D02*
X016768Y009383D01*
X015598Y009383D02*
X015588Y009373D01*
X013968Y010933D02*
X013418Y010933D01*
X013178Y010693D01*
X013178Y010203D01*
X012868Y010203D02*
X012868Y010583D01*
X012618Y010833D01*
X012418Y010833D01*
X012868Y010203D02*
X010953Y010203D01*
X010949Y010207D01*
X011618Y009033D02*
X012018Y009033D01*
X012318Y009083D01*
X012348Y009053D01*
X015768Y006933D02*
X016181Y006520D01*
X016181Y006453D01*
X016184Y006449D01*
X016184Y005665D01*
X016168Y005649D01*
X016218Y005283D01*
X016468Y005033D01*
X018832Y005083D01*
X018832Y005136D01*
X017418Y005933D02*
X017239Y005933D01*
X016972Y005665D01*
X017598Y006453D02*
X017968Y006083D01*
X018778Y006083D01*
X018832Y006136D01*
X018832Y006636D02*
X018832Y006669D01*
X018368Y007133D01*
X017518Y007133D01*
X017468Y007083D01*
X017598Y006453D02*
X016929Y006453D01*
X020306Y007464D02*
X020892Y006879D01*
X020892Y006636D01*
X020892Y006868D01*
X021291Y007268D01*
X021968Y006764D02*
X021968Y006583D01*
X021866Y006480D01*
X021684Y006480D01*
X021047Y006480D01*
X020892Y006636D01*
X021968Y006764D02*
X022078Y006874D01*
X022078Y006472D01*
X022468Y006083D01*
X022468Y006090D01*
X022275Y006283D01*
X020968Y005583D02*
X020850Y005465D01*
X020556Y005165D01*
X020892Y005136D02*
X021055Y005299D01*
X021684Y005299D01*
X021731Y005346D01*
X022425Y005346D01*
X022525Y005246D01*
X023012Y005246D01*
X022866Y005099D01*
X022866Y004315D01*
X023259Y003921D01*
X023850Y003921D01*
X022968Y003083D02*
X021881Y001996D01*
X021881Y001953D01*
X022866Y002937D02*
X022968Y003039D01*
X022968Y003083D01*
X023968Y005083D02*
X023805Y005246D01*
X023012Y005246D01*
X023950Y005346D02*
X023968Y005328D01*
X023968Y005083D01*
X020968Y005583D02*
X020945Y005583D01*
X020892Y005636D01*
X020306Y007464D02*
X020425Y007583D01*
X020468Y007583D01*
X020306Y007744D01*
X020306Y008252D01*
X020503Y008055D01*
X020897Y008055D01*
X020940Y008055D01*
X021468Y008583D01*
X021468Y008823D01*
X021488Y008842D01*
X022968Y007583D02*
X023243Y007858D01*
X023850Y007858D01*
X022968Y007583D02*
X022968Y007567D01*
X022866Y007464D01*
D30*
X017468Y007083D03*
X015768Y006933D03*
X014968Y007583D03*
X014118Y008083D03*
X013368Y008483D03*
X011618Y008483D03*
X011018Y008633D03*
X010268Y006683D03*
X012918Y006033D03*
X014118Y006033D03*
X013068Y004783D03*
X009468Y004083D03*
X009068Y003433D03*
X007518Y004533D03*
X004968Y004083D03*
X006718Y007033D03*
X012418Y010833D03*
X016418Y009683D03*
X016768Y009383D03*
X017218Y010083D03*
X017418Y005933D03*
X011368Y001583D03*
X013268Y001333D03*
X008568Y000983D03*
D31*
X011668Y002083D03*
X013318Y002433D03*
X010668Y003483D03*
X004268Y003483D03*
X013968Y010933D03*
X019518Y005583D03*
D32*
X018832Y005136D02*
X018828Y005133D01*
D33*
X020306Y004315D03*
X021291Y004512D03*
X020556Y005165D03*
X021684Y005299D03*
X022425Y005346D03*
X023012Y005246D03*
X023950Y005346D03*
X024787Y005346D03*
X025787Y005246D03*
X025428Y004605D03*
X026053Y004255D03*
X025137Y003996D03*
X025637Y003496D03*
X024955Y002802D03*
X024243Y002937D03*
X023850Y003921D03*
X022866Y004315D03*
X021881Y003921D03*
X020897Y003724D03*
X020306Y003527D03*
X021488Y002937D03*
X020306Y002740D03*
X020306Y001953D03*
X021291Y001362D03*
X021881Y001953D03*
X022866Y001559D03*
X025937Y001896D03*
X025937Y002746D03*
X024690Y004612D03*
X024637Y006283D03*
X023850Y006283D03*
X023653Y006874D03*
X023062Y006283D03*
X022275Y006283D03*
X021684Y006480D03*
X022078Y006874D03*
X021291Y007268D03*
X021881Y007858D03*
X020897Y008055D03*
X020306Y008252D03*
X020306Y007464D03*
X021488Y008842D03*
X020647Y009480D03*
X020306Y009827D03*
X020847Y010080D03*
X020941Y010567D03*
X020306Y010614D03*
X021881Y009827D03*
X022866Y010220D03*
X023850Y009827D03*
X024637Y010614D03*
X025637Y010114D03*
X025137Y009114D03*
X025937Y008714D03*
X025137Y008114D03*
X025887Y007614D03*
X025187Y007064D03*
X024440Y007268D03*
X023850Y007858D03*
X022866Y007464D03*
X024243Y008842D03*
X020306Y009039D03*
X025837Y006514D03*
M02*
