G75*
%MOIN*%
%OFA0B0*%
%FSLAX24Y24*%
%IPPOS*%
%LPD*%
%AMOC8*
5,1,8,0,0,1.08239X$1,22.5*
%
%ADD10C,0.1040*%
%ADD11C,0.0100*%
%ADD12OC8,0.0800*%
%ADD13OC8,0.0780*%
%ADD14C,0.0555*%
%ADD15C,0.1162*%
%ADD16R,0.0217X0.0552*%
%ADD17R,0.0555X0.0555*%
%ADD18C,0.0610*%
%ADD19C,0.2340*%
D10*
X006833Y007000D03*
X023833Y007000D03*
X006833Y023736D03*
X019912Y028067D03*
D11*
X020983Y028057D02*
X025183Y028057D01*
X025183Y028155D02*
X020983Y028155D01*
X020983Y028254D02*
X025183Y028254D01*
X025183Y028352D02*
X020983Y028352D01*
X020983Y028451D02*
X025183Y028451D01*
X025183Y028549D02*
X020983Y028549D01*
X020983Y028648D02*
X025183Y028648D01*
X025183Y028700D02*
X025183Y024200D01*
X020033Y024200D01*
X020033Y027000D01*
X020983Y027000D01*
X020983Y028700D01*
X025183Y028700D01*
X025183Y027958D02*
X020983Y027958D01*
X020983Y027860D02*
X025183Y027860D01*
X025183Y027761D02*
X020983Y027761D01*
X020983Y027663D02*
X025183Y027663D01*
X025183Y027564D02*
X020983Y027564D01*
X020983Y027466D02*
X025183Y027466D01*
X025183Y027367D02*
X020983Y027367D01*
X020983Y027269D02*
X025183Y027269D01*
X025183Y027170D02*
X020983Y027170D01*
X020983Y027072D02*
X025183Y027072D01*
X025183Y026973D02*
X020033Y026973D01*
X020033Y026875D02*
X025183Y026875D01*
X025183Y026776D02*
X020033Y026776D01*
X020033Y026678D02*
X025183Y026678D01*
X025183Y026579D02*
X020033Y026579D01*
X020033Y026481D02*
X025183Y026481D01*
X025183Y026382D02*
X020033Y026382D01*
X020033Y026284D02*
X025183Y026284D01*
X025183Y026185D02*
X020033Y026185D01*
X020033Y026087D02*
X025183Y026087D01*
X025183Y025988D02*
X020033Y025988D01*
X020033Y025890D02*
X025183Y025890D01*
X025183Y025791D02*
X020033Y025791D01*
X020033Y025693D02*
X025183Y025693D01*
X025183Y025594D02*
X020033Y025594D01*
X020033Y025496D02*
X025183Y025496D01*
X025183Y025397D02*
X020033Y025397D01*
X020033Y025299D02*
X025183Y025299D01*
X025183Y025200D02*
X020033Y025200D01*
X020033Y025102D02*
X025183Y025102D01*
X025183Y025003D02*
X020033Y025003D01*
X020033Y024905D02*
X025183Y024905D01*
X025183Y024806D02*
X020033Y024806D01*
X020033Y024708D02*
X025183Y024708D01*
X025183Y024609D02*
X020033Y024609D01*
X020033Y024511D02*
X025183Y024511D01*
X025183Y024412D02*
X020033Y024412D01*
X020033Y024314D02*
X025183Y024314D01*
X025183Y024215D02*
X020033Y024215D01*
X020083Y023800D02*
X020083Y019000D01*
X025233Y019000D01*
X025233Y023800D01*
X020083Y023800D01*
X020083Y023723D02*
X025233Y023723D01*
X025233Y023624D02*
X020083Y023624D01*
X020083Y023526D02*
X025233Y023526D01*
X025233Y023427D02*
X020083Y023427D01*
X020083Y023329D02*
X025233Y023329D01*
X025233Y023230D02*
X020083Y023230D01*
X020083Y023132D02*
X025233Y023132D01*
X025233Y023033D02*
X020083Y023033D01*
X020083Y022935D02*
X025233Y022935D01*
X025233Y022836D02*
X020083Y022836D01*
X020083Y022738D02*
X025233Y022738D01*
X025233Y022639D02*
X020083Y022639D01*
X020083Y022541D02*
X025233Y022541D01*
X025233Y022442D02*
X020083Y022442D01*
X020083Y022344D02*
X025233Y022344D01*
X025233Y022245D02*
X020083Y022245D01*
X020083Y022147D02*
X025233Y022147D01*
X025233Y022048D02*
X020083Y022048D01*
X020083Y021950D02*
X025233Y021950D01*
X025233Y021851D02*
X020083Y021851D01*
X020083Y021753D02*
X025233Y021753D01*
X025233Y021654D02*
X020083Y021654D01*
X020083Y021556D02*
X025233Y021556D01*
X025233Y021457D02*
X020083Y021457D01*
X020083Y021359D02*
X025233Y021359D01*
X025233Y021260D02*
X020083Y021260D01*
X020083Y021162D02*
X025233Y021162D01*
X025233Y021063D02*
X020083Y021063D01*
X020083Y020965D02*
X025233Y020965D01*
X025233Y020866D02*
X020083Y020866D01*
X020083Y020768D02*
X025233Y020768D01*
X025233Y020669D02*
X020083Y020669D01*
X020083Y020571D02*
X025233Y020571D01*
X025233Y020472D02*
X020083Y020472D01*
X020083Y020374D02*
X025233Y020374D01*
X025233Y020275D02*
X020083Y020275D01*
X020083Y020177D02*
X025233Y020177D01*
X025233Y020078D02*
X020083Y020078D01*
X020083Y019980D02*
X025233Y019980D01*
X025233Y019881D02*
X020083Y019881D01*
X020083Y019783D02*
X025233Y019783D01*
X025233Y019684D02*
X020083Y019684D01*
X020083Y019586D02*
X025233Y019586D01*
X025233Y019487D02*
X020083Y019487D01*
X020083Y019389D02*
X025233Y019389D01*
X025233Y019290D02*
X020083Y019290D01*
X020083Y019192D02*
X025233Y019192D01*
X025233Y019093D02*
X020083Y019093D01*
D12*
X011093Y021500D03*
X007156Y021500D03*
D13*
X023233Y017600D03*
X023233Y016600D03*
X023233Y015600D03*
X024233Y015600D03*
X024233Y016600D03*
X024233Y017600D03*
D14*
X018014Y025500D03*
X017227Y025500D03*
X016440Y025500D03*
X013514Y025500D03*
X012727Y025500D03*
X011940Y025500D03*
X009014Y025500D03*
X008227Y025500D03*
X007440Y025500D03*
X012688Y008508D03*
X013003Y008035D03*
X013318Y008508D03*
X013633Y008035D03*
X013948Y008508D03*
D15*
X014755Y006500D03*
X011881Y006500D03*
D16*
X020449Y010693D03*
X020705Y010693D03*
X020961Y010693D03*
X021217Y010693D03*
X021217Y012307D03*
X020961Y012307D03*
X020705Y012307D03*
X020449Y012307D03*
D17*
X015652Y025500D03*
X011152Y025500D03*
X006652Y025500D03*
D18*
X008940Y008000D03*
X009727Y008000D03*
D19*
X023333Y021000D03*
X023333Y027000D03*
M02*
