G75*
%MOIN*%
%OFA0B0*%
%FSLAX24Y24*%
%IPPOS*%
%LPD*%
%AMOC8*
5,1,8,0,0,1.08239X$1,22.5*
%
%ADD10C,0.0100*%
%ADD11OC8,0.0760*%
%ADD12OC8,0.0740*%
%ADD13C,0.0515*%
%ADD14C,0.1122*%
%ADD15R,0.0177X0.0512*%
%ADD16R,0.0515X0.0515*%
%ADD17C,0.0570*%
%ADD18C,0.2300*%
%ADD19C,0.0160*%
%ADD20C,0.0317*%
%ADD21C,0.0320*%
%ADD22C,0.0356*%
%ADD23C,0.0157*%
%ADD24C,0.0277*%
D10*
X010924Y008886D02*
X011160Y009122D01*
X013050Y009122D01*
X013318Y008854D01*
X013318Y008508D01*
X012633Y010200D02*
X011687Y010200D01*
X011672Y010185D01*
X012183Y010750D02*
X011333Y011600D01*
X011033Y011600D01*
X012164Y013000D02*
X013833Y013000D01*
X015333Y011500D01*
X015833Y011500D01*
X015783Y010700D02*
X017583Y008750D01*
X017583Y007400D01*
X018083Y009000D02*
X017783Y009300D01*
X018083Y009000D02*
X020333Y009000D01*
X021217Y009884D01*
X021217Y010693D01*
X021217Y011216D01*
X021533Y011400D01*
X022433Y012000D01*
X022433Y012750D01*
X022833Y013000D01*
X022333Y013650D02*
X023683Y013650D01*
X023833Y013500D01*
X023833Y012500D01*
X022333Y011000D01*
X022333Y010500D01*
X020983Y009150D01*
X020983Y008200D01*
X020783Y008000D01*
X020133Y008000D01*
X020333Y009500D02*
X019333Y009500D01*
X013782Y015051D01*
X012833Y015200D02*
X014833Y017500D01*
X014833Y020146D01*
X014597Y020382D01*
X014310Y020382D01*
X013983Y021200D02*
X013983Y018906D01*
X014333Y019663D02*
X014333Y017550D01*
X012155Y015121D01*
X011711Y015894D02*
X011711Y013453D01*
X012164Y013000D01*
X013527Y011804D02*
X013729Y011804D01*
X013527Y011804D02*
X012814Y011091D01*
X012814Y010380D01*
X012633Y010200D01*
X013333Y010700D02*
X015783Y010700D01*
X015133Y010350D02*
X015583Y009650D01*
X015583Y007350D01*
X015133Y010350D02*
X014333Y010350D01*
X016883Y013200D02*
X016883Y016600D01*
X017223Y016996D02*
X017538Y016681D01*
X017223Y016996D02*
X015727Y016996D01*
X015533Y017190D01*
X015533Y023950D01*
X014983Y024500D01*
X012940Y024500D01*
X011940Y025500D01*
X012727Y025500D02*
X013227Y025000D01*
X014833Y025000D01*
X015833Y024000D01*
X015833Y018500D01*
X016900Y018500D01*
X017066Y018335D01*
X017365Y017469D02*
X016514Y017469D01*
X017365Y017469D02*
X019833Y015000D01*
X019833Y011300D01*
X020833Y011300D01*
X020983Y010950D01*
X020983Y010671D01*
X020961Y010693D01*
X021083Y011700D02*
X021217Y012016D01*
X021217Y012307D01*
X018833Y013000D02*
X018833Y014921D01*
X016883Y013200D02*
X019883Y010200D01*
X011711Y015894D02*
X011554Y016051D01*
X009743Y018020D02*
X009743Y021012D01*
X010231Y021500D01*
X011093Y021500D01*
X011869Y022272D02*
X010515Y023625D01*
X009758Y023625D01*
X008740Y024644D01*
X008233Y025100D01*
X007833Y025106D01*
X007440Y025500D01*
X008227Y025500D02*
X008727Y025000D01*
X008833Y024900D01*
X009833Y023900D01*
X011283Y023900D01*
X013833Y021500D01*
X013983Y021200D01*
X013601Y022980D02*
X015097Y022980D01*
X017583Y022500D02*
X017774Y022309D01*
X017774Y019831D01*
X018247Y019516D02*
X017932Y019201D01*
X017774Y019201D01*
X018247Y019516D02*
X018247Y022413D01*
X018333Y022500D01*
X018333Y024394D01*
X017227Y025500D01*
X016440Y025500D02*
X016440Y025494D01*
X017583Y024350D01*
X017583Y022500D01*
X018877Y022665D02*
X018877Y024638D01*
X018014Y025500D01*
X020033Y025496D02*
X025183Y025496D01*
X025183Y025594D02*
X020033Y025594D01*
X020033Y025693D02*
X025183Y025693D01*
X025183Y025791D02*
X020033Y025791D01*
X020033Y025890D02*
X025183Y025890D01*
X025183Y025988D02*
X020033Y025988D01*
X020033Y026087D02*
X025183Y026087D01*
X025183Y026185D02*
X020033Y026185D01*
X020033Y026284D02*
X025183Y026284D01*
X025183Y026382D02*
X020033Y026382D01*
X020033Y026481D02*
X025183Y026481D01*
X025183Y026579D02*
X020033Y026579D01*
X020033Y026678D02*
X025183Y026678D01*
X025183Y026776D02*
X020033Y026776D01*
X020033Y026875D02*
X025183Y026875D01*
X025183Y026973D02*
X020033Y026973D01*
X020033Y027000D02*
X020033Y024200D01*
X025183Y024200D01*
X025183Y028700D01*
X020983Y028700D01*
X020983Y027000D01*
X020033Y027000D01*
X020983Y027072D02*
X025183Y027072D01*
X025183Y027170D02*
X020983Y027170D01*
X020983Y027269D02*
X025183Y027269D01*
X025183Y027367D02*
X020983Y027367D01*
X020983Y027466D02*
X025183Y027466D01*
X025183Y027564D02*
X020983Y027564D01*
X020983Y027663D02*
X025183Y027663D01*
X025183Y027761D02*
X020983Y027761D01*
X020983Y027860D02*
X025183Y027860D01*
X025183Y027958D02*
X020983Y027958D01*
X020983Y028057D02*
X025183Y028057D01*
X025183Y028155D02*
X020983Y028155D01*
X020983Y028254D02*
X025183Y028254D01*
X025183Y028352D02*
X020983Y028352D01*
X020983Y028451D02*
X025183Y028451D01*
X025183Y028549D02*
X020983Y028549D01*
X020983Y028648D02*
X025183Y028648D01*
X025183Y025397D02*
X020033Y025397D01*
X020033Y025299D02*
X025183Y025299D01*
X025183Y025200D02*
X020033Y025200D01*
X020033Y025102D02*
X025183Y025102D01*
X025183Y025003D02*
X020033Y025003D01*
X020033Y024905D02*
X025183Y024905D01*
X025183Y024806D02*
X020033Y024806D01*
X020033Y024708D02*
X025183Y024708D01*
X025183Y024609D02*
X020033Y024609D01*
X020033Y024511D02*
X025183Y024511D01*
X025183Y024412D02*
X020033Y024412D01*
X020033Y024314D02*
X025183Y024314D01*
X025183Y024215D02*
X020033Y024215D01*
X020083Y023800D02*
X020083Y019000D01*
X025233Y019000D01*
X025233Y023800D01*
X020083Y023800D01*
X020083Y023723D02*
X025233Y023723D01*
X025233Y023624D02*
X020083Y023624D01*
X020083Y023526D02*
X025233Y023526D01*
X025233Y023427D02*
X020083Y023427D01*
X020083Y023329D02*
X025233Y023329D01*
X025233Y023230D02*
X020083Y023230D01*
X020083Y023132D02*
X025233Y023132D01*
X025233Y023033D02*
X020083Y023033D01*
X020083Y022935D02*
X025233Y022935D01*
X025233Y022836D02*
X020083Y022836D01*
X020083Y022738D02*
X025233Y022738D01*
X025233Y022639D02*
X020083Y022639D01*
X020083Y022541D02*
X025233Y022541D01*
X025233Y022442D02*
X020083Y022442D01*
X020083Y022344D02*
X025233Y022344D01*
X025233Y022245D02*
X020083Y022245D01*
X020083Y022147D02*
X025233Y022147D01*
X025233Y022048D02*
X020083Y022048D01*
X020083Y021950D02*
X025233Y021950D01*
X025233Y021851D02*
X020083Y021851D01*
X020083Y021753D02*
X025233Y021753D01*
X025233Y021654D02*
X020083Y021654D01*
X020083Y021556D02*
X025233Y021556D01*
X025233Y021457D02*
X020083Y021457D01*
X020083Y021359D02*
X025233Y021359D01*
X025233Y021260D02*
X020083Y021260D01*
X020083Y021162D02*
X025233Y021162D01*
X025233Y021063D02*
X020083Y021063D01*
X020083Y020965D02*
X025233Y020965D01*
X025233Y020866D02*
X020083Y020866D01*
X020083Y020768D02*
X025233Y020768D01*
X025233Y020669D02*
X020083Y020669D01*
X020083Y020571D02*
X025233Y020571D01*
X025233Y020472D02*
X020083Y020472D01*
X020083Y020374D02*
X025233Y020374D01*
X025233Y020275D02*
X020083Y020275D01*
X020083Y020177D02*
X025233Y020177D01*
X025233Y020078D02*
X020083Y020078D01*
X020083Y019980D02*
X025233Y019980D01*
X025233Y019881D02*
X020083Y019881D01*
X020083Y019783D02*
X025233Y019783D01*
X025233Y019684D02*
X020083Y019684D01*
X020083Y019586D02*
X025233Y019586D01*
X025233Y019487D02*
X020083Y019487D01*
X020083Y019389D02*
X025233Y019389D01*
X025233Y019290D02*
X020083Y019290D01*
X020083Y019192D02*
X025233Y019192D01*
X025233Y019093D02*
X020083Y019093D01*
D11*
X011093Y021500D03*
X007156Y021500D03*
D12*
X023233Y017600D03*
X023233Y016600D03*
X023233Y015600D03*
X024233Y015600D03*
X024233Y016600D03*
X024233Y017600D03*
D13*
X018014Y025500D03*
X017227Y025500D03*
X016440Y025500D03*
X013514Y025500D03*
X012727Y025500D03*
X011940Y025500D03*
X009014Y025500D03*
X008227Y025500D03*
X007440Y025500D03*
X012688Y008508D03*
X013003Y008035D03*
X013318Y008508D03*
X013633Y008035D03*
X013948Y008508D03*
D14*
X014755Y006500D03*
X011881Y006500D03*
D15*
X020449Y010693D03*
X020705Y010693D03*
X020961Y010693D03*
X021217Y010693D03*
X021217Y012307D03*
X020961Y012307D03*
X020705Y012307D03*
X020449Y012307D03*
D16*
X015652Y025500D03*
X011152Y025500D03*
X006652Y025500D03*
D17*
X008940Y008000D03*
X009727Y008000D03*
D18*
X023333Y021000D03*
X023333Y027000D03*
D19*
X005961Y005769D02*
X005754Y005920D01*
X005603Y006128D01*
X005523Y006372D01*
X005513Y006500D01*
X005513Y028292D01*
X005520Y028374D01*
X005570Y028530D01*
X005667Y028662D01*
X005800Y028759D01*
X005956Y028810D01*
X006038Y028816D01*
X019624Y028816D01*
X019625Y028684D01*
X019527Y028643D01*
X019336Y028452D01*
X019232Y028202D01*
X019232Y027932D01*
X019336Y027682D01*
X019527Y027490D01*
X019631Y027448D01*
X019673Y018379D01*
X025173Y018351D01*
X025173Y006636D01*
X025162Y006486D01*
X025069Y006202D01*
X024893Y005960D01*
X024651Y005784D01*
X024367Y005692D01*
X024217Y005680D01*
X006333Y005680D01*
X006205Y005690D01*
X005961Y005769D01*
X005896Y005817D02*
X011698Y005817D01*
X011741Y005799D02*
X011483Y005906D01*
X011286Y006103D01*
X011180Y006361D01*
X011180Y006639D01*
X011286Y006897D01*
X011483Y007094D01*
X011741Y007201D01*
X012020Y007201D01*
X012278Y007094D01*
X012475Y006897D01*
X012582Y006639D01*
X012582Y006361D01*
X012475Y006103D01*
X012278Y005906D01*
X012020Y005799D01*
X011741Y005799D01*
X012064Y005817D02*
X014572Y005817D01*
X014615Y005799D02*
X014357Y005906D01*
X014160Y006103D01*
X014054Y006361D01*
X014054Y006639D01*
X014160Y006897D01*
X014357Y007094D01*
X014615Y007201D01*
X014894Y007201D01*
X015152Y007094D01*
X015349Y006897D01*
X015456Y006639D01*
X015456Y006361D01*
X015349Y006103D01*
X015152Y005906D01*
X014894Y005799D01*
X014615Y005799D01*
X014938Y005817D02*
X024697Y005817D01*
X024905Y005976D02*
X015221Y005976D01*
X015362Y006134D02*
X025020Y006134D01*
X025099Y006293D02*
X015427Y006293D01*
X015456Y006451D02*
X023421Y006451D01*
X023448Y006424D02*
X023698Y006320D01*
X023969Y006320D01*
X024219Y006424D01*
X024410Y006615D01*
X024513Y006865D01*
X024513Y007135D01*
X024410Y007385D01*
X024219Y007576D01*
X023969Y007680D01*
X023698Y007680D01*
X023448Y007576D01*
X023257Y007385D01*
X023153Y007135D01*
X023153Y006865D01*
X023257Y006615D01*
X023448Y006424D01*
X023262Y006610D02*
X015456Y006610D01*
X015402Y006768D02*
X023193Y006768D01*
X023153Y006927D02*
X015319Y006927D01*
X015413Y007096D02*
X015524Y007050D01*
X015643Y007050D01*
X015753Y007096D01*
X015838Y007180D01*
X015883Y007290D01*
X015883Y007410D01*
X015838Y007520D01*
X015773Y007584D01*
X015773Y009630D01*
X015786Y009687D01*
X015773Y009706D01*
X015773Y009729D01*
X015732Y009770D01*
X015323Y010406D01*
X015323Y010429D01*
X015282Y010470D01*
X015256Y010510D01*
X015700Y010510D01*
X017393Y008676D01*
X017393Y007634D01*
X017329Y007570D01*
X017283Y007460D01*
X017283Y007340D01*
X017329Y007230D01*
X017413Y007146D01*
X017524Y007100D01*
X017643Y007100D01*
X017753Y007146D01*
X017838Y007230D01*
X017883Y007340D01*
X017883Y007460D01*
X017838Y007570D01*
X017773Y007634D01*
X017773Y008746D01*
X017776Y008821D01*
X017773Y008824D01*
X017773Y008829D01*
X017720Y008882D01*
X015973Y010774D01*
X015973Y010779D01*
X015920Y010832D01*
X015870Y010887D01*
X015865Y010887D01*
X015862Y010890D01*
X015787Y010890D01*
X015712Y010893D01*
X015709Y010890D01*
X013568Y010890D01*
X013503Y010954D01*
X013393Y011000D01*
X013274Y011000D01*
X013163Y010954D01*
X013079Y010870D01*
X013033Y010760D01*
X013033Y010640D01*
X013079Y010530D01*
X013163Y010446D01*
X013274Y010400D01*
X013393Y010400D01*
X013503Y010446D01*
X013568Y010510D01*
X014075Y010510D01*
X014033Y010410D01*
X014033Y010290D01*
X014079Y010180D01*
X014163Y010096D01*
X014274Y010050D01*
X014393Y010050D01*
X014503Y010096D01*
X014568Y010160D01*
X015030Y010160D01*
X015393Y009594D01*
X015393Y007584D01*
X015329Y007520D01*
X015283Y007410D01*
X015283Y007290D01*
X015329Y007180D01*
X015413Y007096D01*
X015439Y007085D02*
X015161Y007085D01*
X015303Y007244D02*
X007468Y007244D01*
X007513Y007135D02*
X007410Y007385D01*
X007219Y007576D01*
X006969Y007680D01*
X006698Y007680D01*
X006448Y007576D01*
X006257Y007385D01*
X006153Y007135D01*
X006153Y006865D01*
X006257Y006615D01*
X006448Y006424D01*
X006698Y006320D01*
X006969Y006320D01*
X007219Y006424D01*
X007410Y006615D01*
X007513Y006865D01*
X007513Y007135D01*
X007513Y007085D02*
X011474Y007085D01*
X011316Y006927D02*
X007513Y006927D01*
X007473Y006768D02*
X011233Y006768D01*
X011180Y006610D02*
X007404Y006610D01*
X007246Y006451D02*
X011180Y006451D01*
X011208Y006293D02*
X005549Y006293D01*
X005517Y006451D02*
X006421Y006451D01*
X006262Y006610D02*
X005513Y006610D01*
X005513Y006768D02*
X006193Y006768D01*
X006153Y006927D02*
X005513Y006927D01*
X005513Y007085D02*
X006153Y007085D01*
X006198Y007244D02*
X005513Y007244D01*
X005513Y007402D02*
X006274Y007402D01*
X006432Y007561D02*
X005513Y007561D01*
X005513Y007719D02*
X008620Y007719D01*
X008579Y007759D02*
X008699Y007640D01*
X008855Y007575D01*
X009024Y007575D01*
X009180Y007640D01*
X009300Y007759D01*
X009312Y007789D01*
X009329Y007756D01*
X009372Y007697D01*
X009424Y007645D01*
X009483Y007602D01*
X009549Y007569D01*
X009618Y007546D01*
X009690Y007535D01*
X009727Y007535D01*
X009727Y008000D01*
X009727Y008000D01*
X009727Y008465D01*
X009690Y008465D01*
X009618Y008454D01*
X009549Y008431D01*
X009483Y008398D01*
X009424Y008355D01*
X009372Y008303D01*
X009329Y008244D01*
X009312Y008211D01*
X009300Y008241D01*
X009180Y008360D01*
X009024Y008425D01*
X008855Y008425D01*
X008699Y008360D01*
X008579Y008241D01*
X008515Y008085D01*
X008515Y007915D01*
X008579Y007759D01*
X008530Y007878D02*
X005513Y007878D01*
X005513Y008036D02*
X008515Y008036D01*
X008560Y008195D02*
X005513Y008195D01*
X005513Y008353D02*
X008692Y008353D01*
X009188Y008353D02*
X009422Y008353D01*
X009727Y008353D02*
X009727Y008353D01*
X009727Y008465D02*
X009727Y008000D01*
X009727Y008000D01*
X009727Y007535D01*
X009764Y007535D01*
X009836Y007546D01*
X009906Y007569D01*
X009971Y007602D01*
X010030Y007645D01*
X010082Y007697D01*
X010125Y007756D01*
X010158Y007822D01*
X010181Y007891D01*
X010192Y007963D01*
X010192Y008000D01*
X010192Y008037D01*
X010181Y008109D01*
X010158Y008178D01*
X010125Y008244D01*
X010082Y008303D01*
X010030Y008355D01*
X009971Y008398D01*
X009906Y008431D01*
X009836Y008454D01*
X009764Y008465D01*
X009727Y008465D01*
X009727Y008195D02*
X009727Y008195D01*
X009727Y008036D02*
X009727Y008036D01*
X009727Y008000D02*
X010192Y008000D01*
X009727Y008000D01*
X009727Y008000D01*
X009727Y007878D02*
X009727Y007878D01*
X009727Y007719D02*
X009727Y007719D01*
X009727Y007561D02*
X009727Y007561D01*
X009575Y007561D02*
X007234Y007561D01*
X007393Y007402D02*
X015283Y007402D01*
X015370Y007561D02*
X009879Y007561D01*
X010098Y007719D02*
X012757Y007719D01*
X012777Y007698D02*
X012924Y007638D01*
X013082Y007638D01*
X013228Y007698D01*
X013318Y007788D01*
X013407Y007698D01*
X013553Y007638D01*
X013712Y007638D01*
X013858Y007698D01*
X013970Y007810D01*
X014030Y007956D01*
X014030Y008112D01*
X014173Y008171D01*
X014284Y008283D01*
X014345Y008429D01*
X014345Y008587D01*
X014284Y008733D01*
X014173Y008845D01*
X014027Y008905D01*
X013868Y008905D01*
X013722Y008845D01*
X013633Y008755D01*
X013543Y008845D01*
X013508Y008859D01*
X013508Y008933D01*
X013396Y009044D01*
X013129Y009312D01*
X011081Y009312D01*
X010973Y009204D01*
X010861Y009204D01*
X010744Y009156D01*
X010654Y009066D01*
X010606Y008949D01*
X010606Y008823D01*
X010654Y008706D01*
X010744Y008616D01*
X010861Y008568D01*
X010987Y008568D01*
X011104Y008616D01*
X011194Y008706D01*
X011242Y008823D01*
X011242Y008932D01*
X012577Y008932D01*
X012520Y008913D01*
X012458Y008882D01*
X012403Y008842D01*
X012354Y008793D01*
X012313Y008737D01*
X012282Y008676D01*
X012261Y008610D01*
X012250Y008542D01*
X012250Y008508D01*
X012688Y008508D01*
X012688Y008508D01*
X012250Y008508D01*
X012250Y008473D01*
X012261Y008405D01*
X012282Y008340D01*
X012313Y008279D01*
X012354Y008223D01*
X012403Y008174D01*
X012458Y008134D01*
X012520Y008102D01*
X012585Y008081D01*
X012605Y008078D01*
X012605Y007956D01*
X012666Y007810D01*
X012777Y007698D01*
X012638Y007878D02*
X010176Y007878D01*
X010192Y008036D02*
X012605Y008036D01*
X012382Y008195D02*
X010150Y008195D01*
X010032Y008353D02*
X012278Y008353D01*
X012250Y008512D02*
X005513Y008512D01*
X005513Y008670D02*
X010690Y008670D01*
X010606Y008829D02*
X005513Y008829D01*
X005513Y008987D02*
X010621Y008987D01*
X010734Y009146D02*
X005513Y009146D01*
X005513Y009304D02*
X011073Y009304D01*
X011242Y008829D02*
X012390Y008829D01*
X012280Y008670D02*
X011158Y008670D01*
X011609Y009867D02*
X011735Y009867D01*
X011852Y009915D01*
X011942Y010005D01*
X011944Y010010D01*
X012712Y010010D01*
X012892Y010190D01*
X013004Y010302D01*
X013004Y011012D01*
X013538Y011546D01*
X013549Y011535D01*
X013666Y011486D01*
X013792Y011486D01*
X013909Y011535D01*
X013999Y011624D01*
X014047Y011741D01*
X014047Y011868D01*
X013999Y011985D01*
X013909Y012074D01*
X013792Y012122D01*
X013666Y012122D01*
X013549Y012074D01*
X013469Y011994D01*
X013449Y011994D01*
X013337Y011883D01*
X012624Y011169D01*
X012624Y010459D01*
X012555Y010390D01*
X011917Y010390D01*
X011852Y010455D01*
X011735Y010503D01*
X011609Y010503D01*
X011492Y010455D01*
X011402Y010365D01*
X011354Y010248D01*
X011354Y010122D01*
X011402Y010005D01*
X011492Y009915D01*
X011609Y009867D01*
X011469Y009938D02*
X005513Y009938D01*
X005513Y009780D02*
X015274Y009780D01*
X015172Y009938D02*
X011875Y009938D01*
X011893Y010414D02*
X012578Y010414D01*
X012624Y010572D02*
X012430Y010572D01*
X012438Y010580D02*
X012483Y010690D01*
X012483Y010810D01*
X012438Y010920D01*
X012353Y011004D01*
X012243Y011050D01*
X012152Y011050D01*
X011412Y011790D01*
X011268Y011790D01*
X011203Y011854D01*
X011093Y011900D01*
X010974Y011900D01*
X010863Y011854D01*
X010779Y011770D01*
X010733Y011660D01*
X010733Y011540D01*
X010779Y011430D01*
X010863Y011346D01*
X010974Y011300D01*
X011093Y011300D01*
X011203Y011346D01*
X011261Y011404D01*
X011883Y010781D01*
X011883Y010690D01*
X011929Y010580D01*
X012013Y010496D01*
X012124Y010450D01*
X012243Y010450D01*
X012353Y010496D01*
X012438Y010580D01*
X012483Y010731D02*
X012624Y010731D01*
X012624Y010889D02*
X012450Y010889D01*
X012624Y011048D02*
X012249Y011048D01*
X011996Y011206D02*
X012660Y011206D01*
X012819Y011365D02*
X011838Y011365D01*
X011679Y011523D02*
X012977Y011523D01*
X013136Y011682D02*
X011521Y011682D01*
X011218Y011840D02*
X013294Y011840D01*
X013473Y011999D02*
X005513Y011999D01*
X005513Y012157D02*
X014408Y012157D01*
X014566Y011999D02*
X013985Y011999D01*
X014047Y011840D02*
X014725Y011840D01*
X014883Y011682D02*
X014022Y011682D01*
X013881Y011523D02*
X015042Y011523D01*
X015200Y011365D02*
X013356Y011365D01*
X013515Y011523D02*
X013577Y011523D01*
X013198Y011206D02*
X015759Y011206D01*
X015774Y011200D02*
X015893Y011200D01*
X016003Y011246D01*
X016088Y011330D01*
X016133Y011440D01*
X016133Y011560D01*
X016088Y011670D01*
X016003Y011754D01*
X015893Y011800D01*
X015774Y011800D01*
X015663Y011754D01*
X015599Y011690D01*
X015412Y011690D01*
X014023Y013079D01*
X013912Y013190D01*
X012243Y013190D01*
X011901Y013531D01*
X011901Y014950D01*
X011985Y014867D01*
X012095Y014821D01*
X012214Y014821D01*
X012325Y014867D01*
X012409Y014951D01*
X012455Y015062D01*
X012455Y015171D01*
X012533Y015259D01*
X012533Y015140D01*
X012579Y015030D01*
X012663Y014946D01*
X012774Y014900D01*
X012893Y014900D01*
X013003Y014946D01*
X013088Y015030D01*
X013133Y015140D01*
X013133Y015255D01*
X014972Y017370D01*
X015023Y017421D01*
X015023Y017429D01*
X015028Y017435D01*
X015023Y017507D01*
X015023Y020224D01*
X014676Y020572D01*
X014570Y020572D01*
X014490Y020652D01*
X014373Y020700D01*
X014246Y020700D01*
X014173Y020670D01*
X014173Y021169D01*
X014188Y021215D01*
X014173Y021245D01*
X014173Y021279D01*
X014139Y021313D01*
X014022Y021548D01*
X014021Y021584D01*
X013988Y021615D01*
X013968Y021655D01*
X013933Y021667D01*
X015343Y021667D01*
X015343Y021509D02*
X014041Y021509D01*
X014121Y021350D02*
X015343Y021350D01*
X015343Y021192D02*
X014181Y021192D01*
X014173Y021033D02*
X015343Y021033D01*
X015343Y020875D02*
X014173Y020875D01*
X014173Y020716D02*
X015343Y020716D01*
X015343Y020558D02*
X014690Y020558D01*
X014849Y020399D02*
X015343Y020399D01*
X015343Y020241D02*
X015007Y020241D01*
X015023Y020082D02*
X015343Y020082D01*
X015343Y019924D02*
X015023Y019924D01*
X015023Y019765D02*
X015343Y019765D01*
X015343Y019607D02*
X015023Y019607D01*
X015023Y019448D02*
X015343Y019448D01*
X015343Y019290D02*
X015023Y019290D01*
X015023Y019131D02*
X015343Y019131D01*
X015343Y018973D02*
X015023Y018973D01*
X015023Y018814D02*
X015343Y018814D01*
X015343Y018656D02*
X015023Y018656D01*
X015023Y018497D02*
X015343Y018497D01*
X015343Y018339D02*
X015023Y018339D01*
X015023Y018180D02*
X015343Y018180D01*
X015343Y018022D02*
X015023Y018022D01*
X015023Y017863D02*
X015343Y017863D01*
X015343Y017705D02*
X015023Y017705D01*
X015023Y017546D02*
X015343Y017546D01*
X015343Y017388D02*
X014990Y017388D01*
X014849Y017229D02*
X015343Y017229D01*
X015343Y017111D02*
X015537Y016917D01*
X015648Y016806D01*
X016665Y016806D01*
X016629Y016770D01*
X016583Y016660D01*
X016583Y016540D01*
X016629Y016430D01*
X016693Y016366D01*
X016693Y013121D01*
X016805Y013010D01*
X019583Y010231D01*
X019583Y010140D01*
X019629Y010030D01*
X019713Y009946D01*
X019824Y009900D01*
X019943Y009900D01*
X020053Y009946D01*
X020138Y010030D01*
X020183Y010140D01*
X020183Y010260D01*
X020138Y010370D01*
X020053Y010454D01*
X019943Y010500D01*
X019852Y010500D01*
X017073Y013279D01*
X017073Y016366D01*
X017138Y016430D01*
X017183Y016540D01*
X017183Y016660D01*
X017138Y016770D01*
X017102Y016806D01*
X017144Y016806D01*
X017220Y016731D01*
X017220Y016618D01*
X017268Y016501D01*
X017358Y016411D01*
X017475Y016363D01*
X017601Y016363D01*
X017718Y016411D01*
X017808Y016501D01*
X017856Y016618D01*
X017856Y016708D01*
X019533Y015031D01*
X019533Y014940D01*
X019579Y014830D01*
X019643Y014766D01*
X019643Y011534D01*
X019579Y011470D01*
X019533Y011360D01*
X019533Y011240D01*
X019579Y011130D01*
X019663Y011046D01*
X019774Y011000D01*
X019893Y011000D01*
X020003Y011046D01*
X020068Y011110D01*
X020280Y011110D01*
X020250Y011093D01*
X020217Y011059D01*
X020193Y011018D01*
X020181Y010973D01*
X020181Y010693D01*
X020449Y010693D01*
X020449Y010693D01*
X020181Y010693D01*
X020181Y010413D01*
X020193Y010368D01*
X020217Y010326D01*
X020250Y010293D01*
X020291Y010269D01*
X020337Y010257D01*
X020449Y010257D01*
X020449Y010693D01*
X020449Y011110D01*
X020449Y011110D01*
X020449Y010693D01*
X020449Y010693D01*
X020449Y010693D01*
X020449Y010257D01*
X020562Y010257D01*
X020608Y010269D01*
X020649Y010293D01*
X020653Y010297D01*
X021027Y010297D01*
X021027Y009963D01*
X020631Y009566D01*
X020588Y009670D01*
X020503Y009754D01*
X020393Y009800D01*
X020274Y009800D01*
X020163Y009754D01*
X020099Y009690D01*
X019412Y009690D01*
X014082Y015020D01*
X014082Y015111D01*
X014036Y015221D01*
X013952Y015306D01*
X013842Y015351D01*
X013722Y015351D01*
X013612Y015306D01*
X013528Y015221D01*
X013482Y015111D01*
X013482Y014992D01*
X013528Y014881D01*
X013612Y014797D01*
X013722Y014751D01*
X013813Y014751D01*
X019143Y009421D01*
X019255Y009310D01*
X020099Y009310D01*
X020163Y009246D01*
X020267Y009203D01*
X020255Y009190D01*
X018162Y009190D01*
X018083Y009269D01*
X018083Y009360D01*
X018038Y009470D01*
X017953Y009554D01*
X017843Y009600D01*
X017724Y009600D01*
X017613Y009554D01*
X017529Y009470D01*
X017483Y009360D01*
X017483Y009240D01*
X017529Y009130D01*
X017613Y009046D01*
X017724Y009000D01*
X017815Y009000D01*
X018005Y008810D01*
X020412Y008810D01*
X020523Y008921D01*
X020793Y009191D01*
X020793Y008279D01*
X020705Y008190D01*
X020368Y008190D01*
X020303Y008254D01*
X020193Y008300D01*
X020074Y008300D01*
X019963Y008254D01*
X019879Y008170D01*
X019833Y008060D01*
X019833Y007940D01*
X019879Y007830D01*
X019963Y007746D01*
X020074Y007700D01*
X020193Y007700D01*
X020303Y007746D01*
X020368Y007810D01*
X020862Y007810D01*
X021062Y008010D01*
X021173Y008121D01*
X021173Y009071D01*
X022412Y010310D01*
X022523Y010421D01*
X022523Y010921D01*
X023912Y012310D01*
X024023Y012421D01*
X024023Y013579D01*
X023873Y013729D01*
X023762Y013840D01*
X022568Y013840D01*
X022503Y013904D01*
X022393Y013950D01*
X022274Y013950D01*
X022163Y013904D01*
X022079Y013820D01*
X022033Y013710D01*
X022033Y013590D01*
X022079Y013480D01*
X022163Y013396D01*
X022274Y013350D01*
X022393Y013350D01*
X022503Y013396D01*
X022568Y013460D01*
X023605Y013460D01*
X023643Y013421D01*
X023643Y012579D01*
X022143Y011079D01*
X022143Y010579D01*
X021407Y009843D01*
X021407Y010340D01*
X021446Y010379D01*
X021446Y011007D01*
X021407Y011045D01*
X021407Y011107D01*
X021567Y011200D01*
X021573Y011198D01*
X021634Y011239D01*
X021697Y011275D01*
X021699Y011282D01*
X022491Y011810D01*
X022512Y011810D01*
X022554Y011852D01*
X022604Y011886D01*
X022608Y011906D01*
X022623Y011921D01*
X022623Y011981D01*
X022635Y012040D01*
X022623Y012058D01*
X022623Y012645D01*
X022736Y012715D01*
X022774Y012700D01*
X022893Y012700D01*
X023003Y012746D01*
X023088Y012830D01*
X023133Y012940D01*
X023133Y013060D01*
X023088Y013170D01*
X023003Y013254D01*
X022893Y013300D01*
X022774Y013300D01*
X022663Y013254D01*
X022579Y013170D01*
X022533Y013060D01*
X022533Y013037D01*
X022379Y012940D01*
X022355Y012940D01*
X022314Y012900D01*
X022266Y012869D01*
X022260Y012846D01*
X022243Y012829D01*
X022243Y012772D01*
X022231Y012716D01*
X022243Y012696D01*
X022243Y012102D01*
X021433Y011561D01*
X021280Y011473D01*
X021338Y011530D01*
X021383Y011640D01*
X021383Y011760D01*
X021350Y011841D01*
X021378Y011908D01*
X021407Y011937D01*
X021407Y011955D01*
X021446Y011993D01*
X021446Y012621D01*
X021364Y012703D01*
X021164Y012703D01*
X021160Y012707D01*
X021119Y012731D01*
X021074Y012743D01*
X020961Y012743D01*
X020849Y012743D01*
X020833Y012739D01*
X020818Y012743D01*
X020705Y012743D01*
X020593Y012743D01*
X020577Y012739D01*
X020562Y012743D01*
X020449Y012743D01*
X020337Y012743D01*
X020291Y012731D01*
X020250Y012707D01*
X020217Y012674D01*
X020193Y012632D01*
X020181Y012587D01*
X020181Y012307D01*
X020181Y012027D01*
X020193Y011982D01*
X020217Y011941D01*
X020250Y011907D01*
X020291Y011883D01*
X020337Y011871D01*
X020449Y011871D01*
X020449Y011981D01*
X020449Y011981D01*
X020449Y011871D01*
X020562Y011871D01*
X020577Y011875D01*
X020593Y011871D01*
X020705Y011871D01*
X020705Y011981D01*
X020705Y011981D01*
X020705Y011981D01*
X020705Y011871D01*
X020818Y011871D01*
X020833Y011875D01*
X020834Y011875D01*
X020829Y011870D01*
X020783Y011760D01*
X020783Y011640D01*
X020829Y011530D01*
X020869Y011491D01*
X020831Y011506D01*
X020794Y011490D01*
X020068Y011490D01*
X020023Y011534D01*
X020023Y014766D01*
X020088Y014830D01*
X020133Y014940D01*
X020133Y015060D01*
X020088Y015170D01*
X020003Y015254D01*
X019893Y015300D01*
X019802Y015300D01*
X017444Y017659D01*
X016774Y017659D01*
X016695Y017738D01*
X016578Y017787D01*
X016451Y017787D01*
X016334Y017738D01*
X016245Y017649D01*
X016196Y017532D01*
X016196Y017405D01*
X016245Y017288D01*
X016334Y017199D01*
X016365Y017186D01*
X015806Y017186D01*
X015723Y017268D01*
X015723Y018341D01*
X015755Y018310D01*
X016748Y018310D01*
X016748Y018271D01*
X016796Y018154D01*
X016885Y018065D01*
X017002Y018017D01*
X017129Y018017D01*
X017246Y018065D01*
X017335Y018154D01*
X017384Y018271D01*
X017384Y018398D01*
X017335Y018515D01*
X017246Y018604D01*
X017129Y018653D01*
X017016Y018653D01*
X016979Y018690D01*
X016023Y018690D01*
X016023Y024079D01*
X015912Y024190D01*
X014912Y025190D01*
X013767Y025190D01*
X013851Y025275D01*
X013912Y025421D01*
X013912Y025579D01*
X013851Y025725D01*
X013740Y025837D01*
X013593Y025897D01*
X013435Y025897D01*
X013289Y025837D01*
X013177Y025725D01*
X013121Y025588D01*
X013064Y025725D01*
X012952Y025837D01*
X012806Y025897D01*
X012648Y025897D01*
X012502Y025837D01*
X012390Y025725D01*
X012333Y025588D01*
X012277Y025725D01*
X012165Y025837D01*
X012019Y025897D01*
X011861Y025897D01*
X011714Y025837D01*
X011603Y025725D01*
X011590Y025694D01*
X011590Y025781D01*
X011577Y025827D01*
X011554Y025868D01*
X011520Y025902D01*
X011479Y025925D01*
X011433Y025937D01*
X011152Y025937D01*
X010871Y025937D01*
X010825Y025925D01*
X010784Y025902D01*
X010751Y025868D01*
X010727Y025827D01*
X010715Y025781D01*
X010715Y025500D01*
X010715Y025219D01*
X010727Y025173D01*
X010751Y025132D01*
X010784Y025098D01*
X010825Y025075D01*
X010871Y025063D01*
X011152Y025063D01*
X011152Y025500D01*
X010715Y025500D01*
X011152Y025500D01*
X011152Y025500D01*
X011152Y025500D01*
X011152Y025937D01*
X011152Y025500D01*
X011152Y025500D01*
X011152Y025063D01*
X011433Y025063D01*
X011479Y025075D01*
X011520Y025098D01*
X011554Y025132D01*
X011577Y025173D01*
X011590Y025219D01*
X011590Y025306D01*
X011603Y025275D01*
X011714Y025163D01*
X011861Y025103D01*
X012019Y025103D01*
X012054Y025117D01*
X012750Y024421D01*
X012861Y024310D01*
X014905Y024310D01*
X015343Y023871D01*
X015343Y023184D01*
X015277Y023250D01*
X015160Y023298D01*
X015034Y023298D01*
X014917Y023250D01*
X014837Y023170D01*
X013861Y023170D01*
X013781Y023250D01*
X013664Y023298D01*
X013538Y023298D01*
X013421Y023250D01*
X013331Y023161D01*
X013283Y023044D01*
X013283Y022917D01*
X013331Y022800D01*
X013421Y022711D01*
X013538Y022662D01*
X013664Y022662D01*
X013781Y022711D01*
X013861Y022790D01*
X014837Y022790D01*
X014917Y022711D01*
X015034Y022662D01*
X015160Y022662D01*
X015277Y022711D01*
X015343Y022777D01*
X015343Y017111D01*
X015384Y017071D02*
X014712Y017071D01*
X014574Y016912D02*
X015542Y016912D01*
X015763Y017229D02*
X016304Y017229D01*
X016204Y017388D02*
X015723Y017388D01*
X015723Y017546D02*
X016202Y017546D01*
X016301Y017705D02*
X015723Y017705D01*
X015723Y017863D02*
X022719Y017863D01*
X022683Y017828D02*
X022683Y017620D01*
X023213Y017620D01*
X023213Y017580D01*
X022683Y017580D01*
X022683Y017372D01*
X022984Y017072D01*
X022723Y016811D01*
X022723Y016389D01*
X023012Y016100D01*
X022723Y015811D01*
X022723Y015389D01*
X023022Y015090D01*
X023445Y015090D01*
X023733Y015379D01*
X024022Y015090D01*
X024445Y015090D01*
X024743Y015389D01*
X024743Y015811D01*
X024455Y016100D01*
X024743Y016389D01*
X024743Y016811D01*
X024455Y017100D01*
X024743Y017389D01*
X024743Y017811D01*
X024445Y018110D01*
X024022Y018110D01*
X023762Y017850D01*
X023461Y018150D01*
X023253Y018150D01*
X023253Y017620D01*
X023213Y017620D01*
X023213Y018150D01*
X023006Y018150D01*
X022683Y017828D01*
X022683Y017705D02*
X016728Y017705D01*
X016990Y018022D02*
X015723Y018022D01*
X015723Y018180D02*
X016785Y018180D01*
X017141Y018022D02*
X022877Y018022D01*
X023213Y018022D02*
X023253Y018022D01*
X023253Y017863D02*
X023213Y017863D01*
X023213Y017705D02*
X023253Y017705D01*
X023590Y018022D02*
X023934Y018022D01*
X023775Y017863D02*
X023748Y017863D01*
X024533Y018022D02*
X025173Y018022D01*
X025173Y018180D02*
X017346Y018180D01*
X017384Y018339D02*
X025173Y018339D01*
X025173Y017863D02*
X024692Y017863D01*
X024743Y017705D02*
X025173Y017705D01*
X025173Y017546D02*
X024743Y017546D01*
X024742Y017388D02*
X025173Y017388D01*
X025173Y017229D02*
X024584Y017229D01*
X024484Y017071D02*
X025173Y017071D01*
X025173Y016912D02*
X024643Y016912D01*
X024743Y016754D02*
X025173Y016754D01*
X025173Y016595D02*
X024743Y016595D01*
X024743Y016437D02*
X025173Y016437D01*
X025173Y016278D02*
X024633Y016278D01*
X024474Y016120D02*
X025173Y016120D01*
X025173Y015961D02*
X024594Y015961D01*
X024743Y015803D02*
X025173Y015803D01*
X025173Y015644D02*
X024743Y015644D01*
X024743Y015486D02*
X025173Y015486D01*
X025173Y015327D02*
X024682Y015327D01*
X024523Y015169D02*
X025173Y015169D01*
X025173Y015010D02*
X020133Y015010D01*
X020097Y014852D02*
X025173Y014852D01*
X025173Y014693D02*
X020023Y014693D01*
X020023Y014535D02*
X025173Y014535D01*
X025173Y014376D02*
X020023Y014376D01*
X020023Y014218D02*
X025173Y014218D01*
X025173Y014059D02*
X020023Y014059D01*
X020023Y013901D02*
X022160Y013901D01*
X022047Y013742D02*
X020023Y013742D01*
X020023Y013584D02*
X022036Y013584D01*
X022134Y013425D02*
X020023Y013425D01*
X020023Y013267D02*
X022693Y013267D01*
X022553Y013108D02*
X020023Y013108D01*
X020023Y012950D02*
X022394Y012950D01*
X022243Y012791D02*
X020023Y012791D01*
X020023Y012633D02*
X020193Y012633D01*
X020181Y012474D02*
X020023Y012474D01*
X020023Y012316D02*
X020181Y012316D01*
X020181Y012307D02*
X020449Y012307D01*
X020181Y012307D01*
X020181Y012157D02*
X020023Y012157D01*
X020023Y011999D02*
X020189Y011999D01*
X020023Y011840D02*
X020817Y011840D01*
X020783Y011682D02*
X020023Y011682D01*
X020035Y011523D02*
X020836Y011523D01*
X020449Y011048D02*
X020449Y011048D01*
X020449Y010889D02*
X020449Y010889D01*
X020449Y010731D02*
X020449Y010731D01*
X020449Y010693D02*
X020477Y010693D01*
X020477Y010693D01*
X020449Y010693D01*
X020449Y010693D01*
X020449Y010572D02*
X020449Y010572D01*
X020449Y010414D02*
X020449Y010414D01*
X020181Y010414D02*
X020094Y010414D01*
X020181Y010572D02*
X019780Y010572D01*
X019622Y010731D02*
X020181Y010731D01*
X020181Y010889D02*
X019463Y010889D01*
X019305Y011048D02*
X019662Y011048D01*
X019548Y011206D02*
X019146Y011206D01*
X018988Y011365D02*
X019535Y011365D01*
X019632Y011523D02*
X018829Y011523D01*
X018671Y011682D02*
X019643Y011682D01*
X019643Y011840D02*
X018512Y011840D01*
X018354Y011999D02*
X019643Y011999D01*
X019643Y012157D02*
X018195Y012157D01*
X018037Y012316D02*
X019643Y012316D01*
X019643Y012474D02*
X017878Y012474D01*
X017720Y012633D02*
X019643Y012633D01*
X019643Y012791D02*
X019049Y012791D01*
X019088Y012830D02*
X019133Y012940D01*
X019133Y013060D01*
X019088Y013170D01*
X019023Y013234D01*
X019023Y014687D01*
X019088Y014751D01*
X019133Y014862D01*
X019133Y014981D01*
X019088Y015091D01*
X019003Y015176D01*
X018893Y015221D01*
X018774Y015221D01*
X018663Y015176D01*
X018579Y015091D01*
X018533Y014981D01*
X018533Y014862D01*
X018579Y014751D01*
X018643Y014687D01*
X018643Y013234D01*
X018579Y013170D01*
X018533Y013060D01*
X018533Y012940D01*
X018579Y012830D01*
X018663Y012746D01*
X018774Y012700D01*
X018893Y012700D01*
X019003Y012746D01*
X019088Y012830D01*
X019133Y012950D02*
X019643Y012950D01*
X019643Y013108D02*
X019113Y013108D01*
X019023Y013267D02*
X019643Y013267D01*
X019643Y013425D02*
X019023Y013425D01*
X019023Y013584D02*
X019643Y013584D01*
X019643Y013742D02*
X019023Y013742D01*
X019023Y013901D02*
X019643Y013901D01*
X019643Y014059D02*
X019023Y014059D01*
X019023Y014218D02*
X019643Y014218D01*
X019643Y014376D02*
X019023Y014376D01*
X019023Y014535D02*
X019643Y014535D01*
X019643Y014693D02*
X019029Y014693D01*
X019129Y014852D02*
X019570Y014852D01*
X019533Y015010D02*
X019121Y015010D01*
X019010Y015169D02*
X019396Y015169D01*
X019238Y015327D02*
X017073Y015327D01*
X017073Y015169D02*
X018656Y015169D01*
X018545Y015010D02*
X017073Y015010D01*
X017073Y014852D02*
X018538Y014852D01*
X018637Y014693D02*
X017073Y014693D01*
X017073Y014535D02*
X018643Y014535D01*
X018643Y014376D02*
X017073Y014376D01*
X017073Y014218D02*
X018643Y014218D01*
X018643Y014059D02*
X017073Y014059D01*
X017073Y013901D02*
X018643Y013901D01*
X018643Y013742D02*
X017073Y013742D01*
X017073Y013584D02*
X018643Y013584D01*
X018643Y013425D02*
X017073Y013425D01*
X017086Y013267D02*
X018643Y013267D01*
X018553Y013108D02*
X017244Y013108D01*
X017403Y012950D02*
X018533Y012950D01*
X018618Y012791D02*
X017561Y012791D01*
X017341Y012474D02*
X016628Y012474D01*
X016470Y012633D02*
X017182Y012633D01*
X017024Y012791D02*
X016311Y012791D01*
X016153Y012950D02*
X016865Y012950D01*
X016707Y013108D02*
X015994Y013108D01*
X015836Y013267D02*
X016693Y013267D01*
X016693Y013425D02*
X015677Y013425D01*
X015519Y013584D02*
X016693Y013584D01*
X016693Y013742D02*
X015360Y013742D01*
X015202Y013901D02*
X016693Y013901D01*
X016693Y014059D02*
X015043Y014059D01*
X014885Y014218D02*
X016693Y014218D01*
X016693Y014376D02*
X014726Y014376D01*
X014568Y014535D02*
X016693Y014535D01*
X016693Y014693D02*
X014409Y014693D01*
X014251Y014852D02*
X016693Y014852D01*
X016693Y015010D02*
X014092Y015010D01*
X014058Y015169D02*
X016693Y015169D01*
X016693Y015327D02*
X013900Y015327D01*
X013664Y015327D02*
X013196Y015327D01*
X013133Y015169D02*
X013506Y015169D01*
X013482Y015010D02*
X013068Y015010D01*
X012599Y015010D02*
X012433Y015010D01*
X012455Y015169D02*
X012533Y015169D01*
X012287Y014852D02*
X013558Y014852D01*
X013872Y014693D02*
X011901Y014693D01*
X011901Y014535D02*
X014030Y014535D01*
X014189Y014376D02*
X011901Y014376D01*
X011901Y014218D02*
X014347Y014218D01*
X014506Y014059D02*
X011901Y014059D01*
X011901Y013901D02*
X014664Y013901D01*
X014823Y013742D02*
X011901Y013742D01*
X011901Y013584D02*
X014981Y013584D01*
X015140Y013425D02*
X012008Y013425D01*
X012166Y013267D02*
X015298Y013267D01*
X015457Y013108D02*
X013994Y013108D01*
X014023Y013079D02*
X014023Y013079D01*
X014153Y012950D02*
X015615Y012950D01*
X015774Y012791D02*
X014311Y012791D01*
X014470Y012633D02*
X015932Y012633D01*
X016091Y012474D02*
X014628Y012474D01*
X014787Y012316D02*
X016249Y012316D01*
X016408Y012157D02*
X014945Y012157D01*
X015104Y011999D02*
X016566Y011999D01*
X016725Y011840D02*
X015262Y011840D01*
X015255Y011310D02*
X015599Y011310D01*
X015663Y011246D01*
X015774Y011200D01*
X015908Y011206D02*
X017359Y011206D01*
X017517Y011048D02*
X013039Y011048D01*
X013004Y010889D02*
X013098Y010889D01*
X013033Y010731D02*
X013004Y010731D01*
X013004Y010572D02*
X013062Y010572D01*
X013004Y010414D02*
X013241Y010414D01*
X013426Y010414D02*
X014035Y010414D01*
X014048Y010255D02*
X012957Y010255D01*
X012799Y010097D02*
X014163Y010097D01*
X014504Y010097D02*
X015070Y010097D01*
X015420Y010255D02*
X015936Y010255D01*
X016082Y010097D02*
X015522Y010097D01*
X015624Y009938D02*
X016228Y009938D01*
X016374Y009780D02*
X015726Y009780D01*
X015773Y009621D02*
X016521Y009621D01*
X016667Y009463D02*
X015773Y009463D01*
X015773Y009304D02*
X016813Y009304D01*
X016960Y009146D02*
X015773Y009146D01*
X015773Y008987D02*
X017106Y008987D01*
X017252Y008829D02*
X015773Y008829D01*
X015773Y008670D02*
X017393Y008670D01*
X017393Y008512D02*
X015773Y008512D01*
X015773Y008353D02*
X017393Y008353D01*
X017393Y008195D02*
X015773Y008195D01*
X015773Y008036D02*
X017393Y008036D01*
X017393Y007878D02*
X015773Y007878D01*
X015773Y007719D02*
X017393Y007719D01*
X017325Y007561D02*
X015797Y007561D01*
X015883Y007402D02*
X017283Y007402D01*
X017323Y007244D02*
X015864Y007244D01*
X015728Y007085D02*
X023153Y007085D01*
X023198Y007244D02*
X017843Y007244D01*
X017883Y007402D02*
X023274Y007402D01*
X023432Y007561D02*
X017842Y007561D01*
X017773Y007719D02*
X020028Y007719D01*
X020239Y007719D02*
X025173Y007719D01*
X025173Y007561D02*
X024234Y007561D01*
X024393Y007402D02*
X025173Y007402D01*
X025173Y007244D02*
X024468Y007244D01*
X024513Y007085D02*
X025173Y007085D01*
X025173Y006927D02*
X024513Y006927D01*
X024473Y006768D02*
X025173Y006768D01*
X025171Y006610D02*
X024404Y006610D01*
X024246Y006451D02*
X025150Y006451D01*
X025173Y007878D02*
X020930Y007878D01*
X021088Y008036D02*
X025173Y008036D01*
X025173Y008195D02*
X021173Y008195D01*
X021173Y008353D02*
X025173Y008353D01*
X025173Y008512D02*
X021173Y008512D01*
X021173Y008670D02*
X025173Y008670D01*
X025173Y008829D02*
X021173Y008829D01*
X021173Y008987D02*
X025173Y008987D01*
X025173Y009146D02*
X021248Y009146D01*
X021406Y009304D02*
X025173Y009304D01*
X025173Y009463D02*
X021565Y009463D01*
X021723Y009621D02*
X025173Y009621D01*
X025173Y009780D02*
X021882Y009780D01*
X022040Y009938D02*
X025173Y009938D01*
X025173Y010097D02*
X022199Y010097D01*
X022357Y010255D02*
X025173Y010255D01*
X025173Y010414D02*
X022516Y010414D01*
X022523Y010572D02*
X025173Y010572D01*
X025173Y010731D02*
X022523Y010731D01*
X022523Y010889D02*
X025173Y010889D01*
X025173Y011048D02*
X022650Y011048D01*
X022808Y011206D02*
X025173Y011206D01*
X025173Y011365D02*
X022967Y011365D01*
X023125Y011523D02*
X025173Y011523D01*
X025173Y011682D02*
X023284Y011682D01*
X023442Y011840D02*
X025173Y011840D01*
X025173Y011999D02*
X023601Y011999D01*
X023759Y012157D02*
X025173Y012157D01*
X025173Y012316D02*
X023918Y012316D01*
X024023Y012474D02*
X025173Y012474D01*
X025173Y012633D02*
X024023Y012633D01*
X024023Y012791D02*
X025173Y012791D01*
X025173Y012950D02*
X024023Y012950D01*
X024023Y013108D02*
X025173Y013108D01*
X025173Y013267D02*
X024023Y013267D01*
X024023Y013425D02*
X025173Y013425D01*
X025173Y013584D02*
X024019Y013584D01*
X023860Y013742D02*
X025173Y013742D01*
X025173Y013901D02*
X022507Y013901D01*
X022533Y013425D02*
X023640Y013425D01*
X023643Y013267D02*
X022974Y013267D01*
X023113Y013108D02*
X023643Y013108D01*
X023643Y012950D02*
X023133Y012950D01*
X023049Y012791D02*
X023643Y012791D01*
X023643Y012633D02*
X022623Y012633D01*
X022623Y012474D02*
X023539Y012474D01*
X023380Y012316D02*
X022623Y012316D01*
X022623Y012157D02*
X023222Y012157D01*
X023063Y011999D02*
X022627Y011999D01*
X022542Y011840D02*
X022905Y011840D01*
X022746Y011682D02*
X022298Y011682D01*
X022060Y011523D02*
X022588Y011523D01*
X022429Y011365D02*
X021823Y011365D01*
X021585Y011206D02*
X022271Y011206D01*
X022143Y011048D02*
X021407Y011048D01*
X021446Y010889D02*
X022143Y010889D01*
X022143Y010731D02*
X021446Y010731D01*
X021446Y010572D02*
X022137Y010572D01*
X021978Y010414D02*
X021446Y010414D01*
X021407Y010255D02*
X021820Y010255D01*
X021661Y010097D02*
X021407Y010097D01*
X021407Y009938D02*
X021503Y009938D01*
X021003Y009938D02*
X020035Y009938D01*
X020165Y010097D02*
X021027Y010097D01*
X021027Y010255D02*
X020183Y010255D01*
X020224Y009780D02*
X019323Y009780D01*
X019164Y009938D02*
X019732Y009938D01*
X019601Y010097D02*
X019006Y010097D01*
X018847Y010255D02*
X019560Y010255D01*
X019401Y010414D02*
X018689Y010414D01*
X018530Y010572D02*
X019243Y010572D01*
X019084Y010731D02*
X018372Y010731D01*
X018213Y010889D02*
X018926Y010889D01*
X018767Y011048D02*
X018055Y011048D01*
X017896Y011206D02*
X018609Y011206D01*
X018450Y011365D02*
X017738Y011365D01*
X017579Y011523D02*
X018292Y011523D01*
X018133Y011682D02*
X017421Y011682D01*
X017262Y011840D02*
X017975Y011840D01*
X017816Y011999D02*
X017104Y011999D01*
X016945Y012157D02*
X017658Y012157D01*
X017499Y012316D02*
X016787Y012316D01*
X016883Y011682D02*
X016076Y011682D01*
X016133Y011523D02*
X017042Y011523D01*
X017200Y011365D02*
X016102Y011365D01*
X015863Y010889D02*
X017676Y010889D01*
X017834Y010731D02*
X016014Y010731D01*
X016160Y010572D02*
X017993Y010572D01*
X018151Y010414D02*
X016306Y010414D01*
X016453Y010255D02*
X018310Y010255D01*
X018468Y010097D02*
X016599Y010097D01*
X016745Y009938D02*
X018627Y009938D01*
X018785Y009780D02*
X016892Y009780D01*
X017038Y009621D02*
X018944Y009621D01*
X019102Y009463D02*
X018041Y009463D01*
X018083Y009304D02*
X020105Y009304D01*
X020431Y008829D02*
X020793Y008829D01*
X020793Y008987D02*
X020589Y008987D01*
X020748Y009146D02*
X020793Y009146D01*
X020686Y009621D02*
X020608Y009621D01*
X020442Y009780D02*
X020844Y009780D01*
X020793Y008670D02*
X017773Y008670D01*
X017773Y008512D02*
X020793Y008512D01*
X020793Y008353D02*
X017773Y008353D01*
X017773Y008195D02*
X019904Y008195D01*
X019833Y008036D02*
X017773Y008036D01*
X017773Y007878D02*
X019859Y007878D01*
X020363Y008195D02*
X020709Y008195D01*
X017986Y008829D02*
X017773Y008829D01*
X017828Y008987D02*
X017623Y008987D01*
X017523Y009146D02*
X017477Y009146D01*
X017483Y009304D02*
X017331Y009304D01*
X017184Y009463D02*
X017526Y009463D01*
X015789Y010414D02*
X015323Y010414D01*
X015376Y009621D02*
X005513Y009621D01*
X005513Y009463D02*
X015393Y009463D01*
X015393Y009304D02*
X013137Y009304D01*
X013295Y009146D02*
X015393Y009146D01*
X015393Y008987D02*
X013454Y008987D01*
X013559Y008829D02*
X013706Y008829D01*
X014189Y008829D02*
X015393Y008829D01*
X015393Y008670D02*
X014311Y008670D01*
X014345Y008512D02*
X015393Y008512D01*
X015393Y008353D02*
X014314Y008353D01*
X014196Y008195D02*
X015393Y008195D01*
X015393Y008036D02*
X014030Y008036D01*
X013997Y007878D02*
X015393Y007878D01*
X015393Y007719D02*
X013878Y007719D01*
X013387Y007719D02*
X013248Y007719D01*
X012445Y006927D02*
X014190Y006927D01*
X014107Y006768D02*
X012528Y006768D01*
X012582Y006610D02*
X014054Y006610D01*
X014054Y006451D02*
X012582Y006451D01*
X012553Y006293D02*
X014082Y006293D01*
X014147Y006134D02*
X012488Y006134D01*
X012347Y005976D02*
X014288Y005976D01*
X014348Y007085D02*
X012287Y007085D01*
X011273Y006134D02*
X005601Y006134D01*
X005713Y005976D02*
X011414Y005976D01*
X009356Y007719D02*
X009260Y007719D01*
X011364Y010097D02*
X005513Y010097D01*
X005513Y010255D02*
X011357Y010255D01*
X011451Y010414D02*
X005513Y010414D01*
X005513Y010572D02*
X011937Y010572D01*
X011883Y010731D02*
X005513Y010731D01*
X005513Y010889D02*
X011776Y010889D01*
X011617Y011048D02*
X005513Y011048D01*
X005513Y011206D02*
X011459Y011206D01*
X011300Y011365D02*
X011222Y011365D01*
X010845Y011365D02*
X005513Y011365D01*
X005513Y011523D02*
X010741Y011523D01*
X010742Y011682D02*
X005513Y011682D01*
X005513Y011840D02*
X010849Y011840D01*
X011974Y012921D02*
X012085Y012810D01*
X013755Y012810D01*
X015255Y011310D01*
X014249Y012316D02*
X005513Y012316D01*
X005513Y012474D02*
X014091Y012474D01*
X013932Y012633D02*
X005513Y012633D01*
X005513Y012791D02*
X013774Y012791D01*
X011974Y012921D02*
X011521Y013374D01*
X011521Y015733D01*
X011491Y015733D01*
X011374Y015781D01*
X011284Y015871D01*
X011236Y015988D01*
X011236Y016114D01*
X011284Y016231D01*
X011374Y016321D01*
X011491Y016369D01*
X011617Y016369D01*
X011734Y016321D01*
X011823Y016231D01*
X011872Y016114D01*
X011872Y016002D01*
X011901Y015972D01*
X011901Y015292D01*
X011985Y015376D01*
X012095Y015421D01*
X012168Y015421D01*
X014143Y017623D01*
X014143Y018648D01*
X014043Y018606D01*
X013924Y018606D01*
X013813Y018652D01*
X013729Y018736D01*
X013683Y018847D01*
X013683Y018966D01*
X013729Y019076D01*
X013793Y019141D01*
X013793Y021155D01*
X013679Y021385D01*
X011208Y023710D01*
X010699Y023710D01*
X010705Y023704D01*
X011819Y022590D01*
X011932Y022590D01*
X012049Y022541D01*
X012138Y022452D01*
X012187Y022335D01*
X012187Y022208D01*
X012138Y022091D01*
X012049Y022002D01*
X011932Y021954D01*
X011805Y021954D01*
X011689Y022002D01*
X011599Y022091D01*
X011551Y022208D01*
X011551Y022321D01*
X010436Y023435D01*
X009679Y023435D01*
X009568Y023547D01*
X008609Y024506D01*
X008159Y024911D01*
X007832Y024916D01*
X007755Y024916D01*
X007753Y024918D01*
X007752Y024918D01*
X007698Y024973D01*
X007554Y025117D01*
X007519Y025103D01*
X007361Y025103D01*
X007214Y025163D01*
X007103Y025275D01*
X007090Y025306D01*
X007090Y025219D01*
X007077Y025173D01*
X007054Y025132D01*
X007020Y025098D01*
X006979Y025075D01*
X006933Y025063D01*
X006652Y025063D01*
X006652Y025500D01*
X006215Y025500D01*
X006215Y025219D01*
X006227Y025173D01*
X006251Y025132D01*
X006284Y025098D01*
X006325Y025075D01*
X006371Y025063D01*
X006652Y025063D01*
X006652Y025500D01*
X006652Y025500D01*
X006215Y025500D01*
X006215Y025781D01*
X006227Y025827D01*
X006251Y025868D01*
X006284Y025902D01*
X006325Y025925D01*
X006371Y025937D01*
X006652Y025937D01*
X006652Y025500D01*
X006652Y025500D01*
X006652Y025500D01*
X006652Y025937D01*
X006933Y025937D01*
X006979Y025925D01*
X007020Y025902D01*
X007054Y025868D01*
X007077Y025827D01*
X007090Y025781D01*
X007090Y025694D01*
X007103Y025725D01*
X007214Y025837D01*
X007361Y025897D01*
X007519Y025897D01*
X007665Y025837D01*
X007777Y025725D01*
X007833Y025588D01*
X007890Y025725D01*
X008002Y025837D01*
X008148Y025897D01*
X008306Y025897D01*
X008452Y025837D01*
X008564Y025725D01*
X008621Y025588D01*
X008677Y025725D01*
X008789Y025837D01*
X008815Y025848D01*
X008815Y025984D01*
X010075Y027244D01*
X010203Y027372D01*
X016999Y027372D01*
X018105Y026266D01*
X018233Y026138D01*
X018233Y025840D01*
X018240Y025837D01*
X018351Y025725D01*
X018412Y025579D01*
X018412Y025421D01*
X018397Y025386D01*
X019067Y024716D01*
X019067Y022925D01*
X019146Y022846D01*
X019195Y022729D01*
X019195Y022602D01*
X019146Y022485D01*
X019057Y022396D01*
X018940Y022347D01*
X018813Y022347D01*
X018696Y022396D01*
X018607Y022485D01*
X018559Y022602D01*
X018559Y022729D01*
X018607Y022846D01*
X018687Y022925D01*
X018687Y024559D01*
X018129Y025117D01*
X018093Y025103D01*
X017935Y025103D01*
X017863Y025132D01*
X018412Y024584D01*
X018523Y024472D01*
X018523Y022421D01*
X018437Y022335D01*
X018437Y019437D01*
X018325Y019326D01*
X018325Y019326D01*
X018122Y019122D01*
X018122Y019122D01*
X018061Y019061D01*
X018044Y019021D01*
X017954Y018931D01*
X017838Y018883D01*
X017711Y018883D01*
X017594Y018931D01*
X017505Y019021D01*
X017456Y019138D01*
X017456Y019264D01*
X017505Y019381D01*
X017594Y019470D01*
X017703Y019516D01*
X017594Y019561D01*
X017505Y019651D01*
X017456Y019767D01*
X017456Y019894D01*
X017505Y020011D01*
X017584Y020091D01*
X017584Y022230D01*
X017393Y022421D01*
X017393Y024271D01*
X016549Y025115D01*
X016519Y025103D01*
X016361Y025103D01*
X016214Y025163D01*
X016103Y025275D01*
X016090Y025306D01*
X016090Y025219D01*
X016077Y025173D01*
X016054Y025132D01*
X016020Y025098D01*
X015979Y025075D01*
X015933Y025063D01*
X015652Y025063D01*
X015652Y025500D01*
X015215Y025500D01*
X015215Y025219D01*
X015227Y025173D01*
X015251Y025132D01*
X015284Y025098D01*
X015325Y025075D01*
X015371Y025063D01*
X015652Y025063D01*
X015652Y025500D01*
X015652Y025500D01*
X015215Y025500D01*
X015215Y025781D01*
X015227Y025827D01*
X015251Y025868D01*
X015284Y025902D01*
X015325Y025925D01*
X015371Y025937D01*
X015652Y025937D01*
X015652Y025500D01*
X015652Y025500D01*
X015652Y025500D01*
X015652Y025937D01*
X015933Y025937D01*
X015979Y025925D01*
X016020Y025902D01*
X016054Y025868D01*
X016077Y025827D01*
X016090Y025781D01*
X016090Y025694D01*
X016103Y025725D01*
X016214Y025837D01*
X016361Y025897D01*
X016519Y025897D01*
X016665Y025837D01*
X016777Y025725D01*
X016833Y025588D01*
X016890Y025725D01*
X017002Y025837D01*
X017148Y025897D01*
X017306Y025897D01*
X017452Y025837D01*
X017564Y025725D01*
X017621Y025588D01*
X017677Y025725D01*
X017789Y025837D01*
X017796Y025840D01*
X017796Y025957D01*
X016818Y026935D01*
X010385Y026935D01*
X009263Y025813D01*
X009351Y025725D01*
X009412Y025579D01*
X009412Y025421D01*
X009351Y025275D01*
X009240Y025163D01*
X009093Y025103D01*
X008935Y025103D01*
X008864Y025132D01*
X008909Y025090D01*
X008912Y025090D01*
X008966Y025036D01*
X009021Y024984D01*
X009021Y024981D01*
X009912Y024090D01*
X011280Y024090D01*
X011356Y024092D01*
X011359Y024090D01*
X011362Y024090D01*
X011416Y024036D01*
X013933Y021667D01*
X013765Y021826D02*
X015343Y021826D01*
X015343Y021984D02*
X013596Y021984D01*
X013428Y022143D02*
X015343Y022143D01*
X015343Y022301D02*
X013259Y022301D01*
X013091Y022460D02*
X015343Y022460D01*
X015343Y022618D02*
X012923Y022618D01*
X012754Y022777D02*
X013355Y022777D01*
X013283Y022935D02*
X012586Y022935D01*
X012417Y023094D02*
X013304Y023094D01*
X013426Y023252D02*
X012249Y023252D01*
X012081Y023411D02*
X015343Y023411D01*
X015343Y023569D02*
X011912Y023569D01*
X011744Y023728D02*
X015343Y023728D01*
X015329Y023886D02*
X011575Y023886D01*
X011408Y024045D02*
X015170Y024045D01*
X015012Y024203D02*
X009799Y024203D01*
X009641Y024362D02*
X012809Y024362D01*
X012651Y024520D02*
X009482Y024520D01*
X009324Y024679D02*
X012492Y024679D01*
X012334Y024837D02*
X009165Y024837D01*
X009009Y024996D02*
X012175Y024996D01*
X011736Y025154D02*
X011566Y025154D01*
X011152Y025154D02*
X011152Y025154D01*
X011152Y025313D02*
X011152Y025313D01*
X011152Y025471D02*
X011152Y025471D01*
X011152Y025630D02*
X011152Y025630D01*
X011152Y025788D02*
X011152Y025788D01*
X011588Y025788D02*
X011666Y025788D01*
X012214Y025788D02*
X012453Y025788D01*
X012350Y025630D02*
X012316Y025630D01*
X013001Y025788D02*
X013240Y025788D01*
X013138Y025630D02*
X013104Y025630D01*
X013789Y025788D02*
X015217Y025788D01*
X015215Y025630D02*
X013891Y025630D01*
X013912Y025471D02*
X015215Y025471D01*
X015215Y025313D02*
X013867Y025313D01*
X014948Y025154D02*
X015238Y025154D01*
X015107Y024996D02*
X016669Y024996D01*
X016828Y024837D02*
X015265Y024837D01*
X015424Y024679D02*
X016986Y024679D01*
X017145Y024520D02*
X015582Y024520D01*
X015741Y024362D02*
X017303Y024362D01*
X017393Y024203D02*
X015899Y024203D01*
X016023Y024045D02*
X017393Y024045D01*
X017393Y023886D02*
X016023Y023886D01*
X016023Y023728D02*
X017393Y023728D01*
X017393Y023569D02*
X016023Y023569D01*
X016023Y023411D02*
X017393Y023411D01*
X017393Y023252D02*
X016023Y023252D01*
X016023Y023094D02*
X017393Y023094D01*
X017393Y022935D02*
X016023Y022935D01*
X016023Y022777D02*
X017393Y022777D01*
X017393Y022618D02*
X016023Y022618D01*
X016023Y022460D02*
X017393Y022460D01*
X017514Y022301D02*
X016023Y022301D01*
X016023Y022143D02*
X017584Y022143D01*
X017584Y021984D02*
X016023Y021984D01*
X016023Y021826D02*
X017584Y021826D01*
X017584Y021667D02*
X016023Y021667D01*
X016023Y021509D02*
X017584Y021509D01*
X017584Y021350D02*
X016023Y021350D01*
X016023Y021192D02*
X017584Y021192D01*
X017584Y021033D02*
X016023Y021033D01*
X016023Y020875D02*
X017584Y020875D01*
X017584Y020716D02*
X016023Y020716D01*
X016023Y020558D02*
X017584Y020558D01*
X017584Y020399D02*
X016023Y020399D01*
X016023Y020241D02*
X017584Y020241D01*
X017576Y020082D02*
X016023Y020082D01*
X016023Y019924D02*
X017468Y019924D01*
X017457Y019765D02*
X016023Y019765D01*
X016023Y019607D02*
X017549Y019607D01*
X017572Y019448D02*
X016023Y019448D01*
X016023Y019290D02*
X017467Y019290D01*
X017459Y019131D02*
X016023Y019131D01*
X016023Y018973D02*
X017553Y018973D01*
X017996Y018973D02*
X019671Y018973D01*
X019670Y019131D02*
X018131Y019131D01*
X018289Y019290D02*
X019669Y019290D01*
X019668Y019448D02*
X018437Y019448D01*
X018437Y019607D02*
X019668Y019607D01*
X019667Y019765D02*
X018437Y019765D01*
X018437Y019924D02*
X019666Y019924D01*
X019665Y020082D02*
X018437Y020082D01*
X018437Y020241D02*
X019665Y020241D01*
X019664Y020399D02*
X018437Y020399D01*
X018437Y020558D02*
X019663Y020558D01*
X019662Y020716D02*
X018437Y020716D01*
X018437Y020875D02*
X019662Y020875D01*
X019661Y021033D02*
X018437Y021033D01*
X018437Y021192D02*
X019660Y021192D01*
X019659Y021350D02*
X018437Y021350D01*
X018437Y021509D02*
X019659Y021509D01*
X019658Y021667D02*
X018437Y021667D01*
X018437Y021826D02*
X019657Y021826D01*
X019656Y021984D02*
X018437Y021984D01*
X018437Y022143D02*
X019656Y022143D01*
X019655Y022301D02*
X018437Y022301D01*
X018523Y022460D02*
X018633Y022460D01*
X018559Y022618D02*
X018523Y022618D01*
X018523Y022777D02*
X018578Y022777D01*
X018523Y022935D02*
X018687Y022935D01*
X018687Y023094D02*
X018523Y023094D01*
X018523Y023252D02*
X018687Y023252D01*
X018687Y023411D02*
X018523Y023411D01*
X018523Y023569D02*
X018687Y023569D01*
X018687Y023728D02*
X018523Y023728D01*
X018523Y023886D02*
X018687Y023886D01*
X018687Y024045D02*
X018523Y024045D01*
X018523Y024203D02*
X018687Y024203D01*
X018687Y024362D02*
X018523Y024362D01*
X018476Y024520D02*
X018687Y024520D01*
X018567Y024679D02*
X018317Y024679D01*
X018409Y024837D02*
X018159Y024837D01*
X018250Y024996D02*
X018000Y024996D01*
X018471Y025313D02*
X019641Y025313D01*
X019640Y025471D02*
X018412Y025471D01*
X018391Y025630D02*
X019639Y025630D01*
X019638Y025788D02*
X018289Y025788D01*
X018233Y025947D02*
X019638Y025947D01*
X019637Y026105D02*
X018233Y026105D01*
X018107Y026264D02*
X019636Y026264D01*
X019635Y026422D02*
X017949Y026422D01*
X017790Y026581D02*
X019635Y026581D01*
X019634Y026739D02*
X017632Y026739D01*
X017473Y026898D02*
X019633Y026898D01*
X019632Y027056D02*
X017315Y027056D01*
X017156Y027215D02*
X019632Y027215D01*
X019631Y027373D02*
X005513Y027373D01*
X005513Y027215D02*
X010046Y027215D01*
X009887Y027056D02*
X005513Y027056D01*
X005513Y026898D02*
X009729Y026898D01*
X009570Y026739D02*
X005513Y026739D01*
X005513Y026581D02*
X009412Y026581D01*
X009253Y026422D02*
X005513Y026422D01*
X005513Y026264D02*
X009095Y026264D01*
X008936Y026105D02*
X005513Y026105D01*
X005513Y025947D02*
X008815Y025947D01*
X008740Y025788D02*
X008501Y025788D01*
X008604Y025630D02*
X008638Y025630D01*
X009289Y025788D02*
X010717Y025788D01*
X010715Y025630D02*
X009391Y025630D01*
X009412Y025471D02*
X010715Y025471D01*
X010715Y025313D02*
X009367Y025313D01*
X009218Y025154D02*
X010738Y025154D01*
X009555Y026105D02*
X017647Y026105D01*
X017796Y025947D02*
X009396Y025947D01*
X009713Y026264D02*
X017489Y026264D01*
X017330Y026422D02*
X009872Y026422D01*
X010030Y026581D02*
X017172Y026581D01*
X017013Y026739D02*
X010189Y026739D01*
X010347Y026898D02*
X016855Y026898D01*
X016953Y025788D02*
X016714Y025788D01*
X016816Y025630D02*
X016850Y025630D01*
X017501Y025788D02*
X017740Y025788D01*
X017638Y025630D02*
X017604Y025630D01*
X018629Y025154D02*
X019641Y025154D01*
X019642Y024996D02*
X018788Y024996D01*
X018946Y024837D02*
X019643Y024837D01*
X019644Y024679D02*
X019067Y024679D01*
X019067Y024520D02*
X019644Y024520D01*
X019645Y024362D02*
X019067Y024362D01*
X019067Y024203D02*
X019646Y024203D01*
X019647Y024045D02*
X019067Y024045D01*
X019067Y023886D02*
X019647Y023886D01*
X019648Y023728D02*
X019067Y023728D01*
X019067Y023569D02*
X019649Y023569D01*
X019650Y023411D02*
X019067Y023411D01*
X019067Y023252D02*
X019650Y023252D01*
X019651Y023094D02*
X019067Y023094D01*
X019067Y022935D02*
X019652Y022935D01*
X019653Y022777D02*
X019175Y022777D01*
X019195Y022618D02*
X019653Y022618D01*
X019654Y022460D02*
X019121Y022460D01*
X016236Y025154D02*
X016066Y025154D01*
X015652Y025154D02*
X015652Y025154D01*
X015652Y025313D02*
X015652Y025313D01*
X015652Y025471D02*
X015652Y025471D01*
X015652Y025630D02*
X015652Y025630D01*
X015652Y025788D02*
X015652Y025788D01*
X016088Y025788D02*
X016166Y025788D01*
X015343Y023252D02*
X015272Y023252D01*
X014922Y023252D02*
X013776Y023252D01*
X013847Y022777D02*
X014851Y022777D01*
X015343Y022777D02*
X015343Y022777D01*
X013696Y021350D02*
X011613Y021350D01*
X011613Y021285D02*
X011309Y020980D01*
X010878Y020980D01*
X010573Y021285D01*
X010573Y021310D01*
X010310Y021310D01*
X009933Y020933D01*
X009933Y018280D01*
X010012Y018200D01*
X010061Y018083D01*
X010061Y017956D01*
X010012Y017839D01*
X009923Y017750D01*
X009806Y017702D01*
X009680Y017702D01*
X009563Y017750D01*
X009473Y017839D01*
X009425Y017956D01*
X009425Y018083D01*
X009473Y018200D01*
X009553Y018280D01*
X009553Y021091D01*
X009664Y021202D01*
X010152Y021690D01*
X010573Y021690D01*
X010573Y021715D01*
X010878Y022020D01*
X011309Y022020D01*
X011613Y021715D01*
X011613Y021285D01*
X011520Y021192D02*
X013775Y021192D01*
X013793Y021033D02*
X011362Y021033D01*
X010825Y021033D02*
X010033Y021033D01*
X009933Y020875D02*
X013793Y020875D01*
X013793Y020716D02*
X009933Y020716D01*
X009933Y020558D02*
X013793Y020558D01*
X013793Y020399D02*
X009933Y020399D01*
X009933Y020241D02*
X013793Y020241D01*
X013793Y020082D02*
X009933Y020082D01*
X009933Y019924D02*
X013793Y019924D01*
X013793Y019765D02*
X009933Y019765D01*
X009933Y019607D02*
X013793Y019607D01*
X013793Y019448D02*
X009933Y019448D01*
X009933Y019290D02*
X013793Y019290D01*
X013784Y019131D02*
X009933Y019131D01*
X009933Y018973D02*
X013686Y018973D01*
X013697Y018814D02*
X009933Y018814D01*
X009933Y018656D02*
X013810Y018656D01*
X014143Y018497D02*
X009933Y018497D01*
X009933Y018339D02*
X014143Y018339D01*
X014143Y018180D02*
X010021Y018180D01*
X010061Y018022D02*
X014143Y018022D01*
X014143Y017863D02*
X010022Y017863D01*
X009813Y017705D02*
X014143Y017705D01*
X014075Y017546D02*
X005513Y017546D01*
X005513Y017388D02*
X013932Y017388D01*
X013790Y017229D02*
X005513Y017229D01*
X005513Y017071D02*
X013648Y017071D01*
X013506Y016912D02*
X005513Y016912D01*
X005513Y016754D02*
X013364Y016754D01*
X013221Y016595D02*
X005513Y016595D01*
X005513Y016437D02*
X013079Y016437D01*
X012937Y016278D02*
X011777Y016278D01*
X011870Y016120D02*
X012795Y016120D01*
X012653Y015961D02*
X011901Y015961D01*
X011901Y015803D02*
X012510Y015803D01*
X012368Y015644D02*
X011901Y015644D01*
X011901Y015486D02*
X012226Y015486D01*
X011936Y015327D02*
X011901Y015327D01*
X011521Y015327D02*
X005513Y015327D01*
X005513Y015169D02*
X011521Y015169D01*
X011521Y015010D02*
X005513Y015010D01*
X005513Y014852D02*
X011521Y014852D01*
X011521Y014693D02*
X005513Y014693D01*
X005513Y014535D02*
X011521Y014535D01*
X011521Y014376D02*
X005513Y014376D01*
X005513Y014218D02*
X011521Y014218D01*
X011521Y014059D02*
X005513Y014059D01*
X005513Y013901D02*
X011521Y013901D01*
X011521Y013742D02*
X005513Y013742D01*
X005513Y013584D02*
X011521Y013584D01*
X011521Y013425D02*
X005513Y013425D01*
X005513Y013267D02*
X011629Y013267D01*
X011787Y013108D02*
X005513Y013108D01*
X005513Y012950D02*
X011946Y012950D01*
X011901Y014852D02*
X012022Y014852D01*
X011521Y015486D02*
X005513Y015486D01*
X005513Y015644D02*
X011521Y015644D01*
X011353Y015803D02*
X005513Y015803D01*
X005513Y015961D02*
X011247Y015961D01*
X011238Y016120D02*
X005513Y016120D01*
X005513Y016278D02*
X011331Y016278D01*
X009672Y017705D02*
X005513Y017705D01*
X005513Y017863D02*
X009463Y017863D01*
X009425Y018022D02*
X005513Y018022D01*
X005513Y018180D02*
X009465Y018180D01*
X009553Y018339D02*
X005513Y018339D01*
X005513Y018497D02*
X009553Y018497D01*
X009553Y018656D02*
X005513Y018656D01*
X005513Y018814D02*
X009553Y018814D01*
X009553Y018973D02*
X005513Y018973D01*
X005513Y019131D02*
X009553Y019131D01*
X009553Y019290D02*
X005513Y019290D01*
X005513Y019448D02*
X009553Y019448D01*
X009553Y019607D02*
X005513Y019607D01*
X005513Y019765D02*
X009553Y019765D01*
X009553Y019924D02*
X005513Y019924D01*
X005513Y020082D02*
X009553Y020082D01*
X009553Y020241D02*
X005513Y020241D01*
X005513Y020399D02*
X009553Y020399D01*
X009553Y020558D02*
X005513Y020558D01*
X005513Y020716D02*
X009553Y020716D01*
X009553Y020875D02*
X005513Y020875D01*
X005513Y021033D02*
X006831Y021033D01*
X006924Y020940D02*
X007136Y020940D01*
X007136Y021480D01*
X006596Y021480D01*
X006596Y021268D01*
X006924Y020940D01*
X007136Y021033D02*
X007176Y021033D01*
X007176Y020940D02*
X007388Y020940D01*
X007716Y021268D01*
X007716Y021480D01*
X007176Y021480D01*
X007176Y020940D01*
X007176Y021192D02*
X007136Y021192D01*
X007136Y021350D02*
X007176Y021350D01*
X007176Y021480D02*
X007136Y021480D01*
X007136Y021520D01*
X006596Y021520D01*
X006596Y021732D01*
X006924Y022060D01*
X007136Y022060D01*
X007136Y021520D01*
X007176Y021520D01*
X007176Y022060D01*
X007388Y022060D01*
X007716Y021732D01*
X007716Y021520D01*
X007176Y021520D01*
X007176Y021480D01*
X007176Y021509D02*
X009971Y021509D01*
X010129Y021667D02*
X007716Y021667D01*
X007623Y021826D02*
X010683Y021826D01*
X010842Y021984D02*
X007464Y021984D01*
X007176Y021984D02*
X007136Y021984D01*
X007136Y021826D02*
X007176Y021826D01*
X007176Y021667D02*
X007136Y021667D01*
X007136Y021509D02*
X005513Y021509D01*
X005513Y021667D02*
X006596Y021667D01*
X006690Y021826D02*
X005513Y021826D01*
X005513Y021984D02*
X006848Y021984D01*
X006596Y021350D02*
X005513Y021350D01*
X005513Y021192D02*
X006673Y021192D01*
X007481Y021033D02*
X009553Y021033D01*
X009654Y021192D02*
X007640Y021192D01*
X007716Y021350D02*
X009812Y021350D01*
X010191Y021192D02*
X010666Y021192D01*
X011613Y021509D02*
X013547Y021509D01*
X013379Y021667D02*
X011613Y021667D01*
X011503Y021826D02*
X013210Y021826D01*
X013042Y021984D02*
X012006Y021984D01*
X012160Y022143D02*
X012873Y022143D01*
X012705Y022301D02*
X012187Y022301D01*
X012131Y022460D02*
X012537Y022460D01*
X012368Y022618D02*
X011791Y022618D01*
X011633Y022777D02*
X012200Y022777D01*
X012031Y022935D02*
X011474Y022935D01*
X011316Y023094D02*
X011863Y023094D01*
X011695Y023252D02*
X011157Y023252D01*
X010999Y023411D02*
X011526Y023411D01*
X011358Y023569D02*
X010840Y023569D01*
X010620Y023252D02*
X007311Y023252D01*
X007219Y023160D02*
X007410Y023351D01*
X007513Y023601D01*
X007513Y023871D01*
X007410Y024121D01*
X007219Y024313D01*
X006969Y024416D01*
X006698Y024416D01*
X006448Y024313D01*
X006257Y024121D01*
X006153Y023871D01*
X006153Y023601D01*
X006257Y023351D01*
X006448Y023160D01*
X006698Y023056D01*
X006969Y023056D01*
X007219Y023160D01*
X007059Y023094D02*
X010778Y023094D01*
X010937Y022935D02*
X005513Y022935D01*
X005513Y022777D02*
X011095Y022777D01*
X011254Y022618D02*
X005513Y022618D01*
X005513Y022460D02*
X011412Y022460D01*
X011551Y022301D02*
X005513Y022301D01*
X005513Y022143D02*
X011578Y022143D01*
X011732Y021984D02*
X011345Y021984D01*
X010461Y023411D02*
X007434Y023411D01*
X007500Y023569D02*
X009546Y023569D01*
X009387Y023728D02*
X007513Y023728D01*
X007507Y023886D02*
X009229Y023886D01*
X009070Y024045D02*
X007442Y024045D01*
X007328Y024203D02*
X008912Y024203D01*
X008753Y024362D02*
X007101Y024362D01*
X006566Y024362D02*
X005513Y024362D01*
X005513Y024520D02*
X008593Y024520D01*
X008417Y024679D02*
X005513Y024679D01*
X005513Y024837D02*
X008241Y024837D01*
X007675Y024996D02*
X005513Y024996D01*
X005513Y025154D02*
X006238Y025154D01*
X006215Y025313D02*
X005513Y025313D01*
X005513Y025471D02*
X006215Y025471D01*
X006215Y025630D02*
X005513Y025630D01*
X005513Y025788D02*
X006217Y025788D01*
X006652Y025788D02*
X006652Y025788D01*
X006652Y025630D02*
X006652Y025630D01*
X006652Y025471D02*
X006652Y025471D01*
X006652Y025313D02*
X006652Y025313D01*
X006652Y025154D02*
X006652Y025154D01*
X007066Y025154D02*
X007236Y025154D01*
X007166Y025788D02*
X007088Y025788D01*
X007714Y025788D02*
X007953Y025788D01*
X007850Y025630D02*
X007816Y025630D01*
X006338Y024203D02*
X005513Y024203D01*
X005513Y024045D02*
X006225Y024045D01*
X006159Y023886D02*
X005513Y023886D01*
X005513Y023728D02*
X006153Y023728D01*
X006167Y023569D02*
X005513Y023569D01*
X005513Y023411D02*
X006232Y023411D01*
X006356Y023252D02*
X005513Y023252D01*
X005513Y023094D02*
X006608Y023094D01*
X005513Y027532D02*
X019486Y027532D01*
X019332Y027690D02*
X005513Y027690D01*
X005513Y027849D02*
X019267Y027849D01*
X019232Y028007D02*
X005513Y028007D01*
X005513Y028166D02*
X019232Y028166D01*
X019283Y028324D02*
X005516Y028324D01*
X005555Y028483D02*
X019366Y028483D01*
X019525Y028641D02*
X005651Y028641D01*
X005925Y028800D02*
X019624Y028800D01*
X019671Y018814D02*
X016023Y018814D01*
X015726Y018339D02*
X015723Y018339D01*
X017013Y018656D02*
X019672Y018656D01*
X019673Y018497D02*
X017343Y018497D01*
X017556Y017546D02*
X022683Y017546D01*
X022683Y017388D02*
X017715Y017388D01*
X017873Y017229D02*
X022826Y017229D01*
X022983Y017071D02*
X018032Y017071D01*
X018190Y016912D02*
X022824Y016912D01*
X022723Y016754D02*
X018349Y016754D01*
X018507Y016595D02*
X022723Y016595D01*
X022723Y016437D02*
X018666Y016437D01*
X018824Y016278D02*
X022834Y016278D01*
X022993Y016120D02*
X018983Y016120D01*
X019141Y015961D02*
X022873Y015961D01*
X022723Y015803D02*
X019300Y015803D01*
X019458Y015644D02*
X022723Y015644D01*
X022723Y015486D02*
X019617Y015486D01*
X019775Y015327D02*
X022785Y015327D01*
X022944Y015169D02*
X020088Y015169D01*
X019079Y015486D02*
X017073Y015486D01*
X017073Y015644D02*
X018921Y015644D01*
X018762Y015803D02*
X017073Y015803D01*
X017073Y015961D02*
X018604Y015961D01*
X018445Y016120D02*
X017073Y016120D01*
X017073Y016278D02*
X018287Y016278D01*
X018128Y016437D02*
X017743Y016437D01*
X017847Y016595D02*
X017970Y016595D01*
X017333Y016437D02*
X017140Y016437D01*
X017183Y016595D02*
X017229Y016595D01*
X017197Y016754D02*
X017144Y016754D01*
X016693Y016278D02*
X014023Y016278D01*
X014160Y016437D02*
X016626Y016437D01*
X016583Y016595D02*
X014298Y016595D01*
X014436Y016754D02*
X016622Y016754D01*
X016693Y016120D02*
X013885Y016120D01*
X013747Y015961D02*
X016693Y015961D01*
X016693Y015803D02*
X013609Y015803D01*
X013471Y015644D02*
X016693Y015644D01*
X016693Y015486D02*
X013333Y015486D01*
X020005Y011048D02*
X020210Y011048D01*
X021331Y011523D02*
X021367Y011523D01*
X021383Y011682D02*
X021613Y011682D01*
X021851Y011840D02*
X021350Y011840D01*
X021446Y011999D02*
X022089Y011999D01*
X022243Y012157D02*
X021446Y012157D01*
X021446Y012316D02*
X022243Y012316D01*
X022243Y012474D02*
X021446Y012474D01*
X021434Y012633D02*
X022243Y012633D01*
X020961Y012633D02*
X020961Y012633D01*
X020961Y012743D01*
X020961Y012633D01*
X020705Y012633D02*
X020705Y012633D01*
X020705Y012743D01*
X020705Y012633D01*
X020705Y012633D01*
X020449Y012633D02*
X020449Y012633D01*
X020449Y012743D01*
X020449Y012633D01*
X020449Y012307D02*
X020449Y012307D01*
X020693Y012307D01*
X020705Y012307D01*
X020705Y012307D01*
X020449Y012307D01*
X020449Y012307D01*
X020705Y012307D02*
X020961Y012307D01*
X020961Y012307D01*
X020705Y012307D01*
X020705Y012307D01*
X023523Y015169D02*
X023944Y015169D01*
X023785Y015327D02*
X023682Y015327D01*
D20*
X017933Y014500D03*
X010063Y013757D03*
X009218Y016368D03*
X006533Y014500D03*
D21*
X011033Y011600D03*
X012183Y010750D03*
X013333Y010700D03*
X014333Y010350D03*
X015833Y011500D03*
X017783Y009300D03*
X017583Y007400D03*
X015583Y007350D03*
X020133Y008000D03*
X021033Y006550D03*
X023333Y008300D03*
X024333Y008300D03*
X024633Y011300D03*
X022833Y013000D03*
X022333Y013650D03*
X021083Y011700D03*
X019833Y011300D03*
X019883Y010200D03*
X020333Y009500D03*
X018833Y013000D03*
X018833Y014921D03*
X019833Y015000D03*
X016883Y016600D03*
X013983Y018906D03*
X014333Y019663D03*
X012833Y015200D03*
X012155Y015121D03*
X013782Y015051D03*
D22*
X011554Y016051D03*
X009743Y018020D03*
X014310Y020382D03*
X011869Y022272D03*
X013601Y022980D03*
X015097Y022980D03*
X017774Y019831D03*
X017774Y019201D03*
X017066Y018335D03*
X016514Y017469D03*
X017538Y016681D03*
X013729Y011804D03*
X011672Y010185D03*
X010924Y008886D03*
X018877Y022665D03*
D23*
X018014Y025500D02*
X018014Y026047D01*
X016908Y027154D01*
X010294Y027154D01*
X009034Y025894D01*
X009034Y025520D01*
X009014Y025500D01*
D24*
X021633Y024387D03*
X021633Y023621D03*
X022420Y022744D03*
X023039Y023206D03*
X023325Y023453D03*
X023039Y023700D03*
X023612Y023700D03*
X023612Y023206D03*
X024231Y022744D03*
X024940Y023571D03*
X024940Y024437D03*
X024231Y025343D03*
X023662Y024802D03*
X023325Y024555D03*
X023039Y024308D03*
X023039Y024802D03*
X023662Y024308D03*
X022420Y025343D03*
X021593Y028531D03*
X024979Y028531D03*
X024940Y019201D03*
X021633Y019201D03*
M02*
